<?xml version="1.0" encoding="UTF-8" standalone="no"?>
<!-- Created with Inkscape (http://www.inkscape.org/) -->

<svg
   version="1.1"
   id="svg1"
   width="527.95844"
   height="275.55927"
   viewBox="0 0 527.95844 275.55927"
   xmlns="http://www.w3.org/2000/svg"
   xmlns:svg="http://www.w3.org/2000/svg">
  <defs
     id="defs1" />
  <g
     id="g1"
     transform="translate(-92.950053,-137.65021)">
    <path
       id="path1"
       d="m 3123.13,5608.89 c 0,70.4 -57.08,127.47 -127.47,127.47 -70.4,0 -127.48,-57.07 -127.48,-127.47 0,-70.4 57.08,-127.48 127.48,-127.48 70.39,0 127.47,57.08 127.47,127.48"
       style="fill:none;stroke:#000000;stroke-width:7.96717;stroke-linecap:butt;stroke-linejoin:miter;stroke-miterlimit:10;stroke-dasharray:none;stroke-opacity:1"
       transform="matrix(0.13333333,0,0,-0.13333333,0,1056)" />
    <path
       id="path2"
       d="m 3123.13,5608.89 c 0,0 0,0 31.87,-84.98 31.87,-84.99 95.61,-254.95 286.82,-339.94 191.21,-84.98 509.89,-84.98 669.24,-84.98 159.34,0 159.34,0 159.34,0"
       style="fill:none;stroke:#000000;stroke-width:7.96717;stroke-linecap:butt;stroke-linejoin:miter;stroke-miterlimit:10;stroke-dasharray:none;stroke-opacity:1"
       transform="matrix(0.13333333,0,0,-0.13333333,0,1056)" />
    <path
       id="path3"
       d="m 4190.73,5118.91 79.67,-19.92 -79.67,-19.92"
       style="fill:none;stroke:#000000;stroke-width:7.96717;stroke-linecap:butt;stroke-linejoin:miter;stroke-miterlimit:10;stroke-dasharray:none;stroke-opacity:1"
       transform="matrix(0.13333333,0,0,-0.13333333,0,1056)" />
    <path
       id="path4"
       d="m 3123.13,5608.89 c 0,0 0,0 42.49,-42.5 42.49,-42.48 127.48,-127.47 318.69,-169.96 191.21,-42.49 488.65,-42.49 637.37,-42.49 148.72,0 148.72,0 148.72,0"
       style="fill:none;stroke:#000000;stroke-width:7.96717;stroke-linecap:butt;stroke-linejoin:miter;stroke-miterlimit:10;stroke-dasharray:none;stroke-opacity:1"
       transform="matrix(0.13333333,0,0,-0.13333333,0,1056)" />
    <path
       id="path5"
       d="m 4190.73,5373.86 79.67,-19.92 -79.67,-19.92"
       style="fill:none;stroke:#000000;stroke-width:7.96717;stroke-linecap:butt;stroke-linejoin:miter;stroke-miterlimit:10;stroke-dasharray:none;stroke-opacity:1"
       transform="matrix(0.13333333,0,0,-0.13333333,0,1056)" />
    <path
       id="path6"
       d="m 3123.13,5608.89 c 0,0 0,0 63.74,0 63.74,0 191.21,0 382.42,0 191.21,0 446.16,0 573.64,0 127.47,0 127.47,0 127.47,0"
       style="fill:none;stroke:#000000;stroke-width:7.96717;stroke-linecap:butt;stroke-linejoin:miter;stroke-miterlimit:10;stroke-dasharray:none;stroke-opacity:1"
       transform="matrix(0.13333333,0,0,-0.13333333,0,1056)" />
    <path
       id="path7"
       d="m 4190.73,5628.8 79.67,-19.91 -79.67,-19.92"
       style="fill:none;stroke:#000000;stroke-width:7.96717;stroke-linecap:butt;stroke-linejoin:miter;stroke-miterlimit:10;stroke-dasharray:none;stroke-opacity:1"
       transform="matrix(0.13333333,0,0,-0.13333333,0,1056)" />
    <path
       id="path8"
       d="m 4.3353437,-8.2630547 c -2.3320312,0 -3.91406245,1.7109375 -3.91406245,4.2539063 0,2.5546875 1.57031245,4.26562496 3.92578125,4.26562496 0.9960937,0 1.8632812,-0.3046875 2.5195312,-0.85546875 0.890625,-0.75000001 1.40625,-2.01562501 1.40625,-3.33984371 0,-2.625 -1.546875,-4.3242188 -3.9375,-4.3242188 z m 0,0.9140625 c 1.7695313,0 2.90625,1.3242188 2.90625,3.3867188 0,1.96875 -1.171875,3.30468746 -2.8945312,3.30468746 -1.734375,0 -2.8828125,-1.33593746 -2.8828125,-3.35156246 0,-2.0039063 1.1484375,-3.3398438 2.8710937,-3.3398438 z m 6.8027343,3.6328125 h 0.539063 c 1.066406,0 1.640625,0.5039063 1.640625,1.4765625 0,1.0078125 -0.609375,1.62890626 -1.628907,1.62890626 -1.078125,0 -1.605468,-0.55078126 -1.675781,-1.73437496 H 9.0287031 c 0.046875,0.6445312 0.1640625,1.0664062 0.3515625,1.42968746 0.4101563,0.78515625 1.1835934,1.171875 2.2617184,1.171875 1.628907,0 2.683594,-0.984375 2.683594,-2.50781246 0,-1.03125 -0.398437,-1.5820313 -1.347656,-1.921875 0.738281,-0.3046875 1.113281,-0.8554688 1.113281,-1.6757813 0,-1.3828125 -0.902344,-2.2148437 -2.414062,-2.2148437 -1.59375,0 -2.4375004,0.890625 -2.4726566,2.6015625 h 0.9843746 c 0,-0.4921875 0.04687,-0.7734375 0.175782,-1.0195313 0.222656,-0.4570312 0.714843,-0.7265625 1.324218,-0.7265625 0.867188,0 1.394532,0.5273438 1.394532,1.3945313 0,0.5742187 -0.199219,0.9140625 -0.632813,1.1015625 -0.269531,0.1171875 -0.632812,0.1640625 -1.3125,0.1757812 z m 0,0"
       style="fill:#000000;fill-opacity:1;fill-rule:nonzero;stroke:none"
       aria-label="O3"
       transform="matrix(1.3333333,0,0,1.3333333,390.92267,310.076)" />
    <path
       id="path9"
       d="m 4525.35,5098.99 c 0,70.4 -57.07,127.47 -127.47,127.47 -70.4,0 -127.48,-57.07 -127.48,-127.47 0,-70.4 57.08,-127.47 127.48,-127.47 70.4,0 127.47,57.07 127.47,127.47"
       style="fill:none;stroke:#000000;stroke-width:7.96717;stroke-linecap:butt;stroke-linejoin:miter;stroke-miterlimit:10;stroke-dasharray:none;stroke-opacity:1"
       transform="matrix(0.13333333,0,0,-0.13333333,0,1056)" />
    <path
       id="path10"
       d="m 4525.35,5353.94 c 0,70.4 -57.07,127.47 -127.47,127.47 -70.4,0 -127.48,-57.07 -127.48,-127.47 0,-70.4 57.08,-127.48 127.48,-127.48 70.4,0 127.47,57.08 127.47,127.48"
       style="fill:none;stroke:#000000;stroke-width:7.96717;stroke-linecap:butt;stroke-linejoin:miter;stroke-miterlimit:10;stroke-dasharray:none;stroke-opacity:1"
       transform="matrix(0.13333333,0,0,-0.13333333,0,1056)" />
    <path
       id="path11"
       d="m 4525.35,5608.89 c 0,70.4 -57.07,127.47 -127.47,127.47 -70.4,0 -127.48,-57.07 -127.48,-127.47 0,-70.4 57.08,-127.48 127.48,-127.48 70.4,0 127.47,57.08 127.47,127.48"
       style="fill:none;stroke:#000000;stroke-width:7.96717;stroke-linecap:butt;stroke-linejoin:miter;stroke-miterlimit:10;stroke-dasharray:none;stroke-opacity:1"
       transform="matrix(0.13333333,0,0,-0.13333333,0,1056)" />
    <path
       id="path12"
       d="M 2.0401016,-3.7044609 H 6.4697891 V -4.6185234 H 2.0401016 v -2.6015625 h 4.59375 v -0.9140625 h -5.625 v 8.13281246 h 5.8359375 v -0.9140625 H 2.0401016 Z m 7.8603515,-0.011719 h 0.5390629 c 1.066406,0 1.640625,0.5039063 1.640625,1.4765625 0,1.0078125 -0.609375,1.62890626 -1.628907,1.62890626 -1.0781246,0 -1.6054684,-0.55078126 -1.6757809,-1.73437496 h -0.984375 c 0.046875,0.6445312 0.1640625,1.0664062 0.3515625,1.42968746 0.4101563,0.78515625 1.1835938,1.171875 2.2617184,1.171875 1.628907,0 2.683594,-0.984375 2.683594,-2.50781246 0,-1.03125 -0.398437,-1.5820313 -1.347656,-1.921875 0.738281,-0.3046875 1.113281,-0.8554688 1.113281,-1.6757813 0,-1.3828125 -0.902344,-2.2148437 -2.414062,-2.2148437 -1.5937504,0 -2.4375004,0.890625 -2.4726566,2.6015625 h 0.984375 c 0,-0.4921875 0.046875,-0.7734375 0.1757812,-1.0195313 0.2226563,-0.4570312 0.7148438,-0.7265625 1.3242184,-0.7265625 0.867188,0 1.394532,0.5273438 1.394532,1.3945313 0,0.5742187 -0.199219,0.9140625 -0.632813,1.1015625 -0.269531,0.1171875 -0.632812,0.1640625 -1.3124999,0.1757812 z M 2.0401016,21.792609 H 6.4697891 V 20.878547 H 2.0401016 v -2.601563 h 4.59375 v -0.914062 h -5.625 v 8.132812 H 6.8447891 V 24.581672 H 2.0401016 Z m 9.0439454,1.746094 v 1.957031 h 0.984375 v -1.957031 h 1.171875 v -0.878906 h -1.171875 v -5.226563 h -0.726563 l -3.5859371,5.074219 v 1.03125 z m 0,-0.878906 H 8.6113906 L 11.084047,19.109016 Z M 2.0401016,47.28675 H 6.4697891 V 46.372687 H 2.0401016 v -2.601562 h 4.59375 v -0.914063 h -5.625 v 8.132813 H 6.8447891 V 50.075812 H 2.0401016 Z M 12.748109,43.079719 H 8.6699844 l -0.5976563,4.3125 h 0.9023438 c 0.4570312,-0.550782 0.84375,-0.738282 1.4648441,-0.738282 1.066406,0 1.722656,0.726563 1.722656,1.898438 0,1.136719 -0.65625,1.828125 -1.734375,1.828125 -0.8554689,0 -1.3828126,-0.433594 -1.6171876,-1.335938 h -0.984375 c 0.140625,0.65625 0.2460937,0.960938 0.4804687,1.253907 0.4453125,0.597656 1.2539063,0.949218 2.1445309,0.949218 1.59375,0 2.707032,-1.160156 2.707032,-2.835937 0,-1.558594 -1.03125,-2.636719 -2.554688,-2.636719 -0.550781,0 -0.9960936,0.152344 -1.4531249,0.480469 L 9.4551406,44.052375 H 12.748109 Z M -350.28412,-69.478875 c 0,-0.5625 -0.0234,-0.714844 -0.21093,-1.101563 -0.44532,-0.9375 -1.39454,-1.417968 -2.76563,-1.417968 -1.78125,0 -2.88281,0.914062 -2.88281,2.378906 0,0.996094 0.51562,1.617187 1.59375,1.898437 l 2.01562,0.539063 c 1.04297,0.269531 1.5,0.679687 1.5,1.3125 0,0.433594 -0.23437,0.878906 -0.58593,1.125 -0.31641,0.234375 -0.83204,0.351562 -1.48829,0.351562 -0.90234,0 -1.48828,-0.210937 -1.875,-0.679687 -0.30468,-0.363281 -0.43359,-0.75 -0.43359,-1.253906 h -0.97266 c 0.0117,0.75 0.15235,1.242187 0.48047,1.6875 0.55078,0.773437 1.48828,1.160156 2.73047,1.160156 0.97266,0 1.75781,-0.222656 2.28516,-0.621094 0.55078,-0.445312 0.89062,-1.160156 0.89062,-1.863281 0,-1.007813 -0.62109,-1.746094 -1.72265,-2.050781 l -2.05078,-0.539063 c -0.97266,-0.269531 -1.33594,-0.585937 -1.33594,-1.207031 0,-0.832031 0.72656,-1.371094 1.8164,-1.371094 1.30079,0 2.02735,0.574219 2.03907,1.652344 z m 3.68848,0 v 5.742187 h 0.97266 v -8.0625 h -0.64454 c -0.33984,1.230469 -0.5625,1.40625 -2.08593,1.605469 v 0.714844 z m 0,0"
       style="fill:#000000;fill-opacity:1;fill-rule:nonzero;stroke:none"
       aria-label="E3&#10;E4&#10;E5&#10;S1"
       transform="matrix(1.3333333,0,0,1.3333333,577.88533,310.076)" />
    <path
       id="path13"
       d="m 956.059,6246.26 c 0,70.4 -57.075,127.47 -127.473,127.47 -70.398,0 -127.477,-57.07 -127.477,-127.47 0,-70.4 57.079,-127.47 127.477,-127.47 70.398,0 127.473,57.07 127.473,127.47"
       style="fill:none;stroke:#000000;stroke-width:7.96717;stroke-linecap:butt;stroke-linejoin:miter;stroke-miterlimit:10;stroke-dasharray:none;stroke-opacity:1"
       transform="matrix(0.13333333,0,0,-0.13333333,0,1056)" />
    <path
       id="path14"
       d="m 1720.91,6118.79 c 0,70.39 -57.08,127.47 -127.48,127.47 -70.39,0 -127.47,-57.08 -127.47,-127.47 0,-70.4 57.08,-127.48 127.47,-127.48 70.4,0 127.48,57.08 127.48,127.48"
       style="fill:none;stroke:#000000;stroke-width:7.96717;stroke-linecap:butt;stroke-linejoin:miter;stroke-miterlimit:10;stroke-dasharray:none;stroke-opacity:1"
       transform="matrix(0.13333333,0,0,-0.13333333,0,1056)" />
    <path
       id="path15"
       d="m 956.059,6246.26 c 0,0 0,0 31.871,0 31.87,0 95.61,0 138.1,-21.24 42.49,-21.25 63.74,-63.74 116.85,-84.99 53.11,-21.24 138.1,-21.24 180.59,-21.24 42.49,0 42.49,0 42.49,0"
       style="fill:none;stroke:#000000;stroke-width:7.96717;stroke-linecap:butt;stroke-linejoin:miter;stroke-miterlimit:10;stroke-dasharray:none;stroke-opacity:1"
       transform="matrix(0.13333333,0,0,-0.13333333,0,1056)" />
    <path
       id="path16"
       d="m 1386.29,6138.7 79.67,-19.91 -79.67,-19.92"
       style="fill:none;stroke:#000000;stroke-width:7.96717;stroke-linecap:butt;stroke-linejoin:miter;stroke-miterlimit:10;stroke-dasharray:none;stroke-opacity:1"
       transform="matrix(0.13333333,0,0,-0.13333333,0,1056)" />
    <g
       id="g16"
       aria-label="I6&#10;io&#10;input−link&#10;output−link&#10;effector−1&#10;effector−2&#10;effector−3&#10;(etc.)"
       transform="matrix(1.3333333,0,0,1.3333333,203.96,242.088)">
      <path
         id="path17"
         d="M 2.1686719,-8.1314297 H 1.1139844 V 0.00138281 H 2.1686719 Z M 8.655,-5.9634609 C 8.4675,-7.2876797 7.62375,-8.0611172 6.4167188,-8.0611172 c -0.8789063,0 -1.6523438,0.421875 -2.1210938,1.1484375 -0.5039062,0.7851563 -0.7148437,1.7695313 -0.7148437,3.234375 0,1.359375 0.1875,2.2148438 0.6679687,2.92968751 0.421875,0.65625 1.1132813,1.0078125 1.9921875,1.0078125 1.5,0 2.578125,-1.125 2.578125,-2.69531251 0,-1.4882812 -0.9960937,-2.5429687 -2.4140625,-2.5429687 -0.7851562,0 -1.3945312,0.2929687 -1.8164062,0.890625 0.011719,-2.0039063 0.6328125,-3.1054688 1.7578125,-3.1054688 0.6914062,0 1.171875,0.4453125 1.3242187,1.2304688 z m -2.3789062,1.8632812 c 0.9492187,0 1.546875,0.6679688 1.546875,1.734375 0,1.0195313 -0.6679688,1.75781251 -1.5820313,1.75781251 -0.9140625,0 -1.6054687,-0.77343751 -1.6054687,-1.80468751 0,-0.9960937 0.6679687,-1.6875 1.640625,-1.6875 z m 0,0"
         style="fill:#000000;fill-opacity:1;fill-rule:nonzero;stroke:none" />
      <path
         id="path18"
         d="m -29.372344,-17.143148 h -0.808593 l -1.054688,5.015625 h 0.796875 z m 0.421875,-1.957032 h -0.808593 L -29.97,-18.115805 h 0.808594 z m 2.871094,1.816407 c -1.441406,0 -2.402344,0.925781 -2.800781,2.683593 -0.05859,0.316407 -0.105469,0.621094 -0.105469,0.902344 0,1.066406 0.738281,1.792969 1.816406,1.792969 0.914063,0 1.640625,-0.375 2.179688,-1.113281 0.433594,-0.597657 0.75,-1.640625 0.75,-2.472657 0,-0.714843 -0.375,-1.359375 -0.960938,-1.617187 -0.257812,-0.117188 -0.527343,-0.175781 -0.878906,-0.175781 z m -0.117187,0.738281 c 0.480468,0 0.878906,0.246094 1.019531,0.644531 0.07031,0.175781 0.09375,0.363281 0.09375,0.585938 0,1.089843 -0.503906,2.132812 -1.21875,2.496093 -0.234375,0.117188 -0.457031,0.175782 -0.738281,0.175782 -0.46875,0 -0.84375,-0.234375 -0.996094,-0.644532 -0.07031,-0.1875 -0.105469,-0.386718 -0.105469,-0.597656 0,-0.445312 0.105469,-0.9375 0.292969,-1.382812 0.210937,-0.527344 0.515625,-0.890625 0.9375,-1.101563 0.234375,-0.117187 0.457031,-0.175781 0.714844,-0.175781 z m 105.17871,-24.498047 h -0.808593 l -1.054688,5.015625 h 0.796875 z m 0.421875,-1.957031 H 78.59543 l -0.210938,0.984375 h 0.808594 z m 0.9375,1.957031 -1.066406,5.015625 h 0.808594 l 0.574219,-2.765625 c 0.234375,-1.054688 0.902343,-1.699219 1.769531,-1.699219 0.46875,0 0.832031,0.328125 0.832031,0.773438 0,0.05859 -0.02344,0.1875 -0.05859,0.351562 l -0.714843,3.339844 h 0.808593 l 0.761719,-3.597656 c 0.03516,-0.117188 0.03516,-0.234375 0.03516,-0.363282 0,-0.550781 -0.328125,-1.007812 -0.832031,-1.136718 -0.140625,-0.03516 -0.292969,-0.05859 -0.46875,-0.05859 -0.726562,0 -1.347656,0.257812 -1.851562,0.761719 l 0.128906,-0.621094 z m 3.653321,7.054687 h 0.796875 l 0.574219,-2.683593 c 0.222656,0.457031 0.457031,0.691406 0.867187,0.796875 0.164063,0.04687 0.316406,0.07031 0.503906,0.07031 0.75,0 1.464844,-0.351562 1.945313,-0.9375 0.515625,-0.644531 0.84375,-1.628906 0.84375,-2.578125 0,-1.148437 -0.632813,-1.863281 -1.664063,-1.863281 -0.738281,0 -1.511718,0.410156 -1.769531,0.949219 l 0.175781,-0.808594 h -0.773437 z m 3.550781,-6.457031 c 0.46875,0 0.820313,0.210938 0.996094,0.597656 0.09375,0.210938 0.140625,0.445313 0.140625,0.726563 0,0.421875 -0.105469,0.890625 -0.28125,1.335937 -0.246094,0.550782 -0.550781,0.914063 -0.960938,1.113282 -0.199218,0.09375 -0.398437,0.128906 -0.632812,0.128906 -0.703125,0 -1.136719,-0.480469 -1.136719,-1.242188 0,-1.089843 0.550781,-2.179687 1.265625,-2.53125 0.1875,-0.09375 0.386719,-0.128906 0.609375,-0.128906 z m 6.310547,4.417969 1.066406,-5.015625 h -0.808594 l -0.597656,2.847656 c -0.222656,1.03125 -0.890625,1.699219 -1.710937,1.699219 -0.457032,0 -0.761719,-0.199219 -0.832032,-0.550781 -0.01172,-0.05859 -0.02344,-0.128907 -0.02344,-0.1875 0,-0.07031 0.01172,-0.164063 0.03516,-0.257813 l 0.75,-3.550781 h -0.808594 l -0.820312,3.867187 c -0.01172,0.09375 -0.02344,0.199219 -0.02344,0.328125 0,0.503907 0.316407,0.878907 0.84375,0.996094 0.152344,0.02344 0.316407,0.04687 0.46875,0.04687 0.75,0 1.300782,-0.234375 1.851563,-0.773437 l -0.117188,0.550781 z m 4.204101,-5.015625 h -0.855468 l 0.292968,-1.371094 h -0.796875 l -0.304687,1.371094 h -0.667969 l -0.140625,0.644531 h 0.679688 l -0.75,3.539063 c -0.02344,0.09375 -0.03516,0.199218 -0.03516,0.292968 0,0.386719 0.164063,0.609375 0.539063,0.714844 0.105469,0.02344 0.210937,0.04687 0.316406,0.04687 0.199219,0 0.480469,-0.03516 0.621094,-0.07031 l 0.152344,-0.703125 c -0.316407,0.08203 -0.339844,0.08203 -0.457032,0.08203 -0.1875,0 -0.304687,-0.07031 -0.339843,-0.1875 -0.01172,-0.03516 -0.01172,-0.04687 -0.01172,-0.07031 0,-0.02344 0.01172,-0.08203 0.02344,-0.128906 l 0.75,-3.515625 h 0.84375 z m 4.895507,2.4375 h -4.828124 l -0.140625,0.691406 h 4.828129 z m 2.7832,-4.394531 h -0.80859 l -1.48828,6.972656 h 0.80859 z m 1.67579,1.957031 h -0.8086 l -1.05469,5.015625 h 0.79688 z m 0.42187,-1.957031 h -0.80859 l -0.21094,0.984375 h 0.80859 z m 0.94043,1.957031 -1.06641,5.015625 h 0.8086 l 0.57422,-2.765625 c 0.23437,-1.054688 0.90234,-1.699219 1.76953,-1.699219 0.46875,0 0.83203,0.328125 0.83203,0.773438 0,0.05859 -0.0234,0.1875 -0.0586,0.351562 l -0.71485,3.339844 h 0.8086 l 0.76171,-3.597656 c 0.0352,-0.117188 0.0352,-0.234375 0.0352,-0.363282 0,-0.550781 -0.32812,-1.007812 -0.83203,-1.136718 -0.14063,-0.03516 -0.29297,-0.05859 -0.46875,-0.05859 -0.72656,0 -1.34766,0.257812 -1.85156,0.761719 l 0.1289,-0.621094 z m 6.41602,-1.957031 h -0.79688 l -1.48828,6.972656 h 0.80859 l 0.41016,-1.945313 1.01953,-0.832031 1.08984,2.777344 h 0.92579 l -1.34766,-3.28125 2.13281,-1.734375 h -1.04297 l -2.5664,2.085937 z M 80.154023,35.298258 c -1.441406,0 -2.402343,0.925781 -2.800781,2.683594 -0.05859,0.316406 -0.105469,0.621093 -0.105469,0.902343 0,1.066407 0.738282,1.792969 1.816407,1.792969 0.914062,0 1.640625,-0.375 2.179687,-1.113281 0.433594,-0.597656 0.75,-1.640625 0.75,-2.472656 0,-0.714844 -0.375,-1.359375 -0.960937,-1.617188 -0.257813,-0.117187 -0.527344,-0.175781 -0.878907,-0.175781 z m -0.117187,0.738281 c 0.480469,0 0.878906,0.246094 1.019531,0.644531 0.07031,0.175782 0.09375,0.363282 0.09375,0.585938 0,1.089844 -0.503906,2.132812 -1.21875,2.496094 -0.234375,0.117187 -0.457031,0.175781 -0.738281,0.175781 -0.46875,0 -0.84375,-0.234375 -0.996094,-0.644531 -0.07031,-0.1875 -0.105469,-0.386719 -0.105469,-0.597657 0,-0.445312 0.105469,-0.9375 0.292969,-1.382812 0.210938,-0.527344 0.515625,-0.890625 0.9375,-1.101563 0.234375,-0.117187 0.457031,-0.175781 0.714844,-0.175781 z m 6.380859,4.417969 1.066407,-5.015625 h -0.808594 l -0.597656,2.847656 c -0.222657,1.03125 -0.890625,1.699219 -1.710938,1.699219 -0.457031,0 -0.761719,-0.199219 -0.832031,-0.550781 -0.01172,-0.05859 -0.02344,-0.128907 -0.02344,-0.1875 0,-0.07031 0.01172,-0.164063 0.03516,-0.257813 l 0.75,-3.550781 h -0.808594 l -0.820313,3.867187 c -0.01172,0.09375 -0.02344,0.199219 -0.02344,0.328125 0,0.503907 0.316406,0.878907 0.84375,0.996094 0.152344,0.02344 0.316406,0.04687 0.46875,0.04687 0.75,0 1.300781,-0.234375 1.851562,-0.773437 l -0.117187,0.550781 z m 4.204102,-5.015625 h -0.855469 l 0.292969,-1.371094 h -0.796875 l -0.304688,1.371094 h -0.667968 l -0.140625,0.644531 h 0.679687 l -0.75,3.539063 c -0.02344,0.09375 -0.03516,0.199218 -0.03516,0.292968 0,0.386719 0.164062,0.609375 0.539062,0.714844 0.105469,0.02344 0.210938,0.04687 0.316407,0.04687 0.199218,0 0.480468,-0.03516 0.621093,-0.07031 l 0.152344,-0.703125 c -0.316406,0.08203 -0.339844,0.08203 -0.457031,0.08203 -0.1875,0 -0.304688,-0.07031 -0.339844,-0.1875 -0.01172,-0.03516 -0.01172,-0.04687 -0.01172,-0.07031 0,-0.02344 0.01172,-0.08203 0.02344,-0.128906 l 0.75,-3.515625 h 0.84375 z M 89.84543,42.49357 h 0.796875 l 0.574218,-2.683593 c 0.222657,0.457031 0.457032,0.691406 0.867188,0.796875 0.164062,0.04687 0.316406,0.07031 0.503906,0.07031 0.75,0 1.464844,-0.351562 1.945313,-0.9375 0.515625,-0.644531 0.84375,-1.628906 0.84375,-2.578125 0,-1.148437 -0.632813,-1.863281 -1.664063,-1.863281 -0.738281,0 -1.511719,0.410156 -1.769531,0.949219 l 0.175781,-0.808594 H 91.34543 Z m 3.550781,-6.457031 c 0.46875,0 0.820312,0.210938 0.996094,0.597656 0.09375,0.210938 0.140625,0.445313 0.140625,0.726563 0,0.421875 -0.105469,0.890625 -0.28125,1.335937 -0.246094,0.550782 -0.550782,0.914063 -0.960938,1.113282 -0.199219,0.09375 -0.398437,0.128906 -0.632812,0.128906 -0.703125,0 -1.136719,-0.480469 -1.136719,-1.242188 0,-1.089843 0.550781,-2.179687 1.265625,-2.53125 0.1875,-0.09375 0.386719,-0.128906 0.609375,-0.128906 z m 6.310547,4.417969 1.066402,-5.015625 h -0.80859 l -0.597656,2.847656 c -0.222656,1.03125 -0.890625,1.699219 -1.710937,1.699219 -0.457032,0 -0.761719,-0.199219 -0.832032,-0.550781 -0.01172,-0.05859 -0.02344,-0.128907 -0.02344,-0.1875 0,-0.07031 0.01172,-0.164063 0.03516,-0.257813 l 0.75,-3.550781 H 96.77707 l -0.820312,3.867187 c -0.01172,0.09375 -0.02344,0.199219 -0.02344,0.328125 0,0.503907 0.316407,0.878907 0.84375,0.996094 0.152344,0.02344 0.316407,0.04687 0.46875,0.04687 0.75,0 1.300782,-0.234375 1.851563,-0.773437 l -0.117188,0.550781 z m 4.204102,-5.015625 h -0.85547 l 0.29297,-1.371094 h -0.79688 l -0.30468,1.371094 h -0.66797 l -0.14063,0.644531 h 0.67969 l -0.75,3.539063 c -0.0234,0.09375 -0.0352,0.199218 -0.0352,0.292968 0,0.386719 0.16407,0.609375 0.53907,0.714844 0.10547,0.02344 0.21093,0.04687 0.3164,0.04687 0.19922,0 0.48047,-0.03516 0.6211,-0.07031 l 0.15234,-0.703125 c -0.31641,0.08203 -0.33984,0.08203 -0.45703,0.08203 -0.1875,0 -0.30469,-0.07031 -0.33984,-0.1875 -0.0117,-0.03516 -0.0117,-0.04687 -0.0117,-0.07031 0,-0.02344 0.0117,-0.08203 0.0234,-0.128906 l 0.75,-3.515625 h 0.84375 z m 4.89551,2.4375 h -4.82813 l -0.14062,0.691406 h 4.82812 z m 2.7832,-4.394531 h -0.80859 l -1.48828,6.972656 h 0.80859 z m 1.67578,1.957031 h -0.80859 l -1.05469,5.015625 h 0.79688 z m 0.42188,-1.957031 h -0.8086 l -0.21093,0.984375 h 0.80859 z m 0.94043,1.957031 -1.06641,5.015625 h 0.80859 l 0.57422,-2.765625 c 0.23438,-1.054688 0.90235,-1.699219 1.76953,-1.699219 0.46875,0 0.83204,0.328125 0.83204,0.773438 0,0.05859 -0.0234,0.1875 -0.0586,0.351562 l -0.71484,3.339844 h 0.80859 l 0.76172,-3.597656 c 0.0352,-0.117188 0.0352,-0.234375 0.0352,-0.363282 0,-0.550781 -0.32813,-1.007812 -0.83203,-1.136718 -0.14063,-0.03516 -0.29297,-0.05859 -0.46875,-0.05859 -0.72657,0 -1.34766,0.257812 -1.85157,0.761719 l 0.12891,-0.621094 z m 6.41601,-1.957031 h -0.79687 l -1.48828,6.972656 h 0.80859 l 0.41016,-1.945313 1.01953,-0.832031 1.08984,2.777344 h 0.92578 l -1.34765,-3.28125 2.13281,-1.734375 h -1.04297 l -2.56641,2.085937 z m 101.04199,11.109375 c 0.14063,-0.75 0.16407,-0.972657 0.16407,-1.277344 0,-0.925781 -0.78516,-1.640625 -1.82813,-1.640625 -0.83203,0 -1.61719,0.398437 -2.10937,1.03125 -0.44532,0.609375 -0.79688,1.6875 -0.79688,2.472656 0,0.515625 0.22266,1.042969 0.58594,1.394531 0.33984,0.328125 0.76172,0.480469 1.30078,0.480469 1.14844,0 2.13281,-0.714844 2.42578,-1.746094 h -0.79687 c -0.35157,0.667969 -0.85547,1.007813 -1.48828,1.007813 -0.76172,0 -1.19532,-0.46875 -1.19532,-1.277344 0,-0.210937 0.0117,-0.304687 0.0469,-0.445312 z m -3.51562,-0.691407 c 0.24609,-0.878906 0.96094,-1.488281 1.73437,-1.488281 0.58594,0 0.96094,0.316406 1.07813,0.890625 0.0234,0.09375 0.0234,0.1875 0.0234,0.28125 0,0.09375 0,0.164063 -0.0234,0.316406 z m 6.99316,-2.085937 h -0.82031 l 0.14063,-0.65625 c 0.10546,-0.492188 0.26953,-0.644531 0.6914,-0.644531 0.0586,0 0.12891,0 0.25781,0.02344 l 0.14063,-0.65625 c -0.17578,-0.03516 -0.28125,-0.04687 -0.43359,-0.04687 -0.73829,0 -1.26563,0.421875 -1.41797,1.136719 l -0.1875,0.84375 h -0.66797 l -0.12891,0.644531 h 0.66797 l -0.92578,4.371094 h 0.79687 l 0.92579,-4.371094 h 0.82031 z m 2.65723,0 h -0.82031 l 0.14062,-0.65625 c 0.10547,-0.492188 0.26953,-0.644531 0.69141,-0.644531 0.0586,0 0.1289,0 0.25781,0.02344 l 0.14063,-0.65625 c -0.17579,-0.03516 -0.28125,-0.04687 -0.4336,-0.04687 -0.73828,0 -1.26562,0.421875 -1.41797,1.136719 l -0.1875,0.84375 h -0.66797 l -0.1289,0.644531 h 0.66797 l -0.92578,4.371094 h 0.79687 l 0.92578,-4.371094 h 0.82031 z m 4.49707,2.777344 c 0.14063,-0.75 0.16406,-0.972657 0.16406,-1.277344 0,-0.925781 -0.78515,-1.640625 -1.82812,-1.640625 -0.83203,0 -1.61719,0.398437 -2.10938,1.03125 -0.44531,0.609375 -0.79687,1.6875 -0.79687,2.472656 0,0.515625 0.22265,1.042969 0.58594,1.394531 0.33984,0.328125 0.76171,0.480469 1.30078,0.480469 1.14843,0 2.13281,-0.714844 2.42578,-1.746094 h -0.79688 c -0.35156,0.667969 -0.85547,1.007813 -1.48828,1.007813 -0.76172,0 -1.19531,-0.46875 -1.19531,-1.277344 0,-0.210937 0.0117,-0.304687 0.0469,-0.445312 z m -3.51562,-0.691407 c 0.24609,-0.878906 0.96093,-1.488281 1.73437,-1.488281 0.58594,0 0.96094,0.316406 1.07813,0.890625 0.0234,0.09375 0.0234,0.1875 0.0234,0.28125 0,0.09375 0,0.164063 -0.0234,0.316406 z m 8.72753,-0.398437 v -0.140625 c 0.0117,-0.140625 0.0234,-0.246094 0.0234,-0.28125 0,-0.539063 -0.43359,-1.113281 -0.96094,-1.300781 -0.19921,-0.07031 -0.43359,-0.105469 -0.6914,-0.105469 -0.86719,0 -1.64063,0.363281 -2.14453,1.019531 -0.44532,0.585938 -0.77344,1.628906 -0.77344,2.507813 0,0.773437 0.42187,1.476562 1.01953,1.710937 0.21094,0.09375 0.48047,0.140625 0.77344,0.140625 0.78515,0 1.4414,-0.28125 1.875,-0.796875 0.25781,-0.28125 0.41015,-0.609375 0.5625,-1.148437 h -0.8086 c -0.28125,0.785156 -0.80859,1.207031 -1.5,1.207031 -0.39843,0 -0.75,-0.1875 -0.90234,-0.492188 -0.11719,-0.210937 -0.17578,-0.457031 -0.17578,-0.726562 0,-0.609375 0.19922,-1.335938 0.51562,-1.828125 0.36329,-0.574219 0.83204,-0.855469 1.41797,-0.855469 0.48047,0 0.8086,0.199219 0.92578,0.574219 0.0234,0.105469 0.0469,0.199219 0.0469,0.304687 0,0.05859 0,0.128907 -0.0117,0.210938 z m 3.00879,-1.6875 h -0.85547 l 0.29297,-1.371094 h -0.79687 l -0.30469,1.371094 h -0.66797 l -0.14062,0.644531 h 0.67968 l -0.75,3.539063 c -0.0234,0.09375 -0.0351,0.199218 -0.0351,0.292968 0,0.386719 0.16406,0.609375 0.53906,0.714844 0.10547,0.02344 0.21094,0.04687 0.31641,0.04687 0.19922,0 0.48047,-0.03516 0.62109,-0.07031 l 0.15234,-0.703125 c -0.3164,0.08203 -0.33984,0.08203 -0.45703,0.08203 -0.1875,0 -0.30468,-0.07031 -0.33984,-0.1875 -0.0117,-0.03516 -0.0117,-0.04687 -0.0117,-0.07031 0,-0.02344 0.0117,-0.08203 0.0234,-0.128906 l 0.75,-3.515625 h 0.84375 z m 2.82129,-0.140625 c -1.4414,0 -2.40234,0.925781 -2.80078,2.683594 -0.0586,0.316406 -0.10547,0.621093 -0.10547,0.902343 0,1.066407 0.73828,1.792969 1.81641,1.792969 0.91406,0 1.64062,-0.375 2.17969,-1.113281 0.43359,-0.597656 0.75,-1.640625 0.75,-2.472656 0,-0.714844 -0.375,-1.359375 -0.96094,-1.617188 -0.25781,-0.117187 -0.52735,-0.175781 -0.87891,-0.175781 z m -0.11719,0.738281 c 0.48047,0 0.87891,0.246094 1.01954,0.644531 0.0703,0.175782 0.0937,0.363282 0.0937,0.585938 0,1.089844 -0.50391,2.132812 -1.21875,2.496094 -0.23438,0.117187 -0.45704,0.175781 -0.73829,0.175781 -0.46875,0 -0.84375,-0.234375 -0.99609,-0.644531 -0.0703,-0.1875 -0.10547,-0.386719 -0.10547,-0.597657 0,-0.445312 0.10547,-0.9375 0.29297,-1.382812 0.21094,-0.527344 0.51563,-0.890625 0.9375,-1.101563 0.23438,-0.117187 0.45703,-0.175781 0.71484,-0.175781 z m 3.48926,-0.597656 -1.0664,5.015625 h 0.80859 l 0.55078,-2.601563 c 0.2461,-1.125 0.87891,-1.710937 1.88672,-1.710937 h 0.0937 l 0.17578,-0.808594 -0.0586,-0.01172 c -0.082,-0.01172 -0.16406,-0.02344 -0.2461,-0.02344 -0.5625,0 -0.98437,0.246094 -1.58203,0.925781 l 0.16407,-0.785156 z m 7.2041,2.4375 h -4.82812 l -0.14063,0.691406 h 4.82813 z m 3.37793,-2.390625 -1.0664,4.96875 h 0.84375 l 1.47656,-6.914063 h -0.5625 c -0.50391,1.03125 -0.71484,1.171875 -2.08594,1.347657 l -0.1289,0.597656 z m -35.62793,28.224609 c 0.14063,-0.75 0.16407,-0.972656 0.16407,-1.277344 0,-0.925781 -0.78516,-1.640625 -1.82813,-1.640625 -0.83203,0 -1.61719,0.398438 -2.10937,1.03125 -0.44532,0.609375 -0.79688,1.6875 -0.79688,2.472657 0,0.515625 0.22266,1.042968 0.58594,1.394531 0.33984,0.328125 0.76172,0.480469 1.30078,0.480469 1.14844,0 2.13281,-0.714844 2.42578,-1.746094 h -0.79687 c -0.35157,0.667969 -0.85547,1.007812 -1.48828,1.007812 -0.76172,0 -1.19532,-0.46875 -1.19532,-1.277343 0,-0.210938 0.0117,-0.304688 0.0469,-0.445313 z m -3.51562,-0.691406 c 0.24609,-0.878906 0.96094,-1.488281 1.73437,-1.488281 0.58594,0 0.96094,0.316406 1.07813,0.890625 0.0234,0.09375 0.0234,0.1875 0.0234,0.28125 0,0.09375 0,0.164062 -0.0234,0.316406 z m 6.99316,-2.085938 h -0.82031 l 0.14063,-0.65625 c 0.10546,-0.492187 0.26953,-0.644531 0.6914,-0.644531 0.0586,0 0.12891,0 0.25781,0.02344 l 0.14063,-0.65625 c -0.17578,-0.03516 -0.28125,-0.04687 -0.43359,-0.04687 -0.73829,0 -1.26563,0.421875 -1.41797,1.136718 l -0.1875,0.84375 h -0.66797 l -0.12891,0.644532 h 0.66797 l -0.92578,4.371093 h 0.79687 l 0.92579,-4.371093 h 0.82031 z m 2.65723,0 h -0.82031 l 0.14062,-0.65625 c 0.10547,-0.492187 0.26953,-0.644531 0.69141,-0.644531 0.0586,0 0.1289,0 0.25781,0.02344 l 0.14063,-0.65625 c -0.17579,-0.03516 -0.28125,-0.04687 -0.4336,-0.04687 -0.73828,0 -1.26562,0.421875 -1.41797,1.136718 l -0.1875,0.84375 h -0.66797 l -0.1289,0.644532 h 0.66797 l -0.92578,4.371093 h 0.79687 l 0.92578,-4.371093 h 0.82031 z m 4.49707,2.777344 c 0.14063,-0.75 0.16406,-0.972656 0.16406,-1.277344 0,-0.925781 -0.78515,-1.640625 -1.82812,-1.640625 -0.83203,0 -1.61719,0.398438 -2.10938,1.03125 -0.44531,0.609375 -0.79687,1.6875 -0.79687,2.472657 0,0.515625 0.22265,1.042968 0.58594,1.394531 0.33984,0.328125 0.76171,0.480469 1.30078,0.480469 1.14843,0 2.13281,-0.714844 2.42578,-1.746094 h -0.79688 c -0.35156,0.667969 -0.85547,1.007812 -1.48828,1.007812 -0.76172,0 -1.19531,-0.46875 -1.19531,-1.277343 0,-0.210938 0.0117,-0.304688 0.0469,-0.445313 z m -3.51562,-0.691406 c 0.24609,-0.878906 0.96093,-1.488281 1.73437,-1.488281 0.58594,0 0.96094,0.316406 1.07813,0.890625 0.0234,0.09375 0.0234,0.1875 0.0234,0.28125 0,0.09375 0,0.164062 -0.0234,0.316406 z m 8.72753,-0.398438 v -0.140625 c 0.0117,-0.140625 0.0234,-0.246093 0.0234,-0.28125 0,-0.539062 -0.43359,-1.113281 -0.96094,-1.300781 -0.19921,-0.07031 -0.43359,-0.105469 -0.6914,-0.105469 -0.86719,0 -1.64063,0.363282 -2.14453,1.019532 -0.44532,0.585937 -0.77344,1.628906 -0.77344,2.507812 0,0.773438 0.42187,1.476563 1.01953,1.710938 0.21094,0.09375 0.48047,0.140625 0.77344,0.140625 0.78515,0 1.4414,-0.28125 1.875,-0.796875 0.25781,-0.28125 0.41015,-0.609375 0.5625,-1.148438 h -0.8086 c -0.28125,0.785156 -0.80859,1.207031 -1.5,1.207031 -0.39843,0 -0.75,-0.1875 -0.90234,-0.492187 -0.11719,-0.210938 -0.17578,-0.457031 -0.17578,-0.726563 0,-0.609375 0.19922,-1.335937 0.51562,-1.828125 0.36329,-0.574218 0.83204,-0.855468 1.41797,-0.855468 0.48047,0 0.8086,0.199218 0.92578,0.574218 0.0234,0.105469 0.0469,0.199219 0.0469,0.304688 0,0.05859 0,0.128906 -0.0117,0.210937 z m 3.00879,-1.6875 h -0.85547 l 0.29297,-1.371093 h -0.79687 l -0.30469,1.371093 h -0.66797 l -0.14062,0.644532 h 0.67968 l -0.75,3.539062 c -0.0234,0.09375 -0.0351,0.199219 -0.0351,0.292969 0,0.386719 0.16406,0.609375 0.53906,0.714844 0.10547,0.02344 0.21094,0.04687 0.31641,0.04687 0.19922,0 0.48047,-0.03516 0.62109,-0.07031 l 0.15234,-0.703125 c -0.3164,0.08203 -0.33984,0.08203 -0.45703,0.08203 -0.1875,0 -0.30468,-0.07031 -0.33984,-0.1875 -0.0117,-0.03516 -0.0117,-0.04687 -0.0117,-0.07031 0,-0.02344 0.0117,-0.08203 0.0234,-0.128906 l 0.75,-3.515625 h 0.84375 z m 2.82129,-0.140625 c -1.4414,0 -2.40234,0.925782 -2.80078,2.683594 -0.0586,0.316406 -0.10547,0.621094 -0.10547,0.902344 0,1.066406 0.73828,1.792969 1.81641,1.792969 0.91406,0 1.64062,-0.375 2.17969,-1.113282 0.43359,-0.597656 0.75,-1.640625 0.75,-2.472656 0,-0.714844 -0.375,-1.359375 -0.96094,-1.617187 -0.25781,-0.117188 -0.52735,-0.175782 -0.87891,-0.175782 z m -0.11719,0.738282 c 0.48047,0 0.87891,0.246093 1.01954,0.644531 0.0703,0.175781 0.0937,0.363281 0.0937,0.585937 0,1.089844 -0.50391,2.132813 -1.21875,2.496094 -0.23438,0.117188 -0.45704,0.175781 -0.73829,0.175781 -0.46875,0 -0.84375,-0.234375 -0.99609,-0.644531 -0.0703,-0.1875 -0.10547,-0.386719 -0.10547,-0.597656 0,-0.445313 0.10547,-0.9375 0.29297,-1.382813 0.21094,-0.527343 0.51563,-0.890625 0.9375,-1.101562 0.23438,-0.117188 0.45703,-0.175781 0.71484,-0.175781 z m 3.48926,-0.597657 -1.0664,5.015625 h 0.80859 l 0.55078,-2.601562 c 0.2461,-1.125 0.87891,-1.710938 1.88672,-1.710938 h 0.0937 l 0.17578,-0.808593 -0.0586,-0.01172 c -0.082,-0.01172 -0.16406,-0.02344 -0.2461,-0.02344 -0.5625,0 -0.98437,0.246094 -1.58203,0.925782 l 0.16407,-0.785157 z m 7.2041,2.4375 h -4.82812 l -0.14063,0.691407 h 4.82813 z m 4.8545,1.746094 h -3.60938 c 0.14063,-0.46875 0.69141,-0.960937 1.57031,-1.417969 l 1.06641,-0.5625 c 0.85547,-0.433593 1.37109,-0.902343 1.66406,-1.476562 0.15235,-0.304688 0.2461,-0.632813 0.2461,-0.960938 0,-0.75 -0.42188,-1.359375 -1.06641,-1.558593 -0.23437,-0.07031 -0.49219,-0.105469 -0.76172,-0.105469 -1.47656,0 -2.32031,0.75 -2.69531,2.390625 h 0.83203 c 0.11719,-0.433594 0.23438,-0.726563 0.41016,-0.972656 0.29297,-0.433594 0.78515,-0.679688 1.33593,-0.679688 0.66797,0 1.10157,0.410156 1.10157,1.042969 0,0.632812 -0.45703,1.21875 -1.26563,1.628906 l -0.99609,0.515625 c -0.8086,0.410156 -1.45313,0.890625 -1.82813,1.359375 -0.28125,0.363281 -0.39843,0.621094 -0.6914,1.617188 h 4.5 z m -37.1045,24.09082 c 0.14063,-0.75 0.16407,-0.972656 0.16407,-1.277343 0,-0.925782 -0.78516,-1.640625 -1.82813,-1.640625 -0.83203,0 -1.61719,0.398437 -2.10937,1.03125 -0.44532,0.609375 -0.79688,1.6875 -0.79688,2.472656 0,0.515625 0.22266,1.042969 0.58594,1.394531 0.33984,0.328125 0.76172,0.480469 1.30078,0.480469 1.14844,0 2.13281,-0.714844 2.42578,-1.746094 h -0.79687 c -0.35157,0.667969 -0.85547,1.007813 -1.48828,1.007813 -0.76172,0 -1.19532,-0.46875 -1.19532,-1.277344 0,-0.210938 0.0117,-0.304688 0.0469,-0.445313 z m -3.51562,-0.691406 c 0.24609,-0.878906 0.96094,-1.488281 1.73437,-1.488281 0.58594,0 0.96094,0.316406 1.07813,0.890625 0.0234,0.09375 0.0234,0.1875 0.0234,0.28125 0,0.09375 0,0.164062 -0.0234,0.316406 z m 6.99316,-2.085937 h -0.82031 l 0.14063,-0.65625 c 0.10546,-0.492188 0.26953,-0.644532 0.6914,-0.644532 0.0586,0 0.12891,0 0.25781,0.02344 l 0.14063,-0.65625 c -0.17578,-0.03516 -0.28125,-0.04687 -0.43359,-0.04687 -0.73829,0 -1.26563,0.421875 -1.41797,1.136719 l -0.1875,0.84375 h -0.66797 l -0.12891,0.644531 h 0.66797 l -0.92578,4.371094 h 0.79687 l 0.92579,-4.371094 h 0.82031 z m 2.65723,0 h -0.82031 l 0.14062,-0.65625 c 0.10547,-0.492188 0.26953,-0.644532 0.69141,-0.644532 0.0586,0 0.1289,0 0.25781,0.02344 l 0.14063,-0.65625 c -0.17579,-0.03516 -0.28125,-0.04687 -0.4336,-0.04687 -0.73828,0 -1.26562,0.421875 -1.41797,1.136719 l -0.1875,0.84375 h -0.66797 l -0.1289,0.644531 h 0.66797 l -0.92578,4.371094 h 0.79687 l 0.92578,-4.371094 h 0.82031 z m 4.49707,2.777343 c 0.14063,-0.75 0.16406,-0.972656 0.16406,-1.277343 0,-0.925782 -0.78515,-1.640625 -1.82812,-1.640625 -0.83203,0 -1.61719,0.398437 -2.10938,1.03125 -0.44531,0.609375 -0.79687,1.6875 -0.79687,2.472656 0,0.515625 0.22265,1.042969 0.58594,1.394531 0.33984,0.328125 0.76171,0.480469 1.30078,0.480469 1.14843,0 2.13281,-0.714844 2.42578,-1.746094 h -0.79688 c -0.35156,0.667969 -0.85547,1.007813 -1.48828,1.007813 -0.76172,0 -1.19531,-0.46875 -1.19531,-1.277344 0,-0.210938 0.0117,-0.304688 0.0469,-0.445313 z m -3.51562,-0.691406 c 0.24609,-0.878906 0.96093,-1.488281 1.73437,-1.488281 0.58594,0 0.96094,0.316406 1.07813,0.890625 0.0234,0.09375 0.0234,0.1875 0.0234,0.28125 0,0.09375 0,0.164062 -0.0234,0.316406 z m 8.72753,-0.398437 v -0.140625 c 0.0117,-0.140625 0.0234,-0.246094 0.0234,-0.28125 0,-0.539063 -0.43359,-1.113282 -0.96094,-1.300782 -0.19921,-0.07031 -0.43359,-0.105468 -0.6914,-0.105468 -0.86719,0 -1.64063,0.363281 -2.14453,1.019531 -0.44532,0.585937 -0.77344,1.628906 -0.77344,2.507812 0,0.773438 0.42187,1.476563 1.01953,1.710938 0.21094,0.09375 0.48047,0.140625 0.77344,0.140625 0.78515,0 1.4414,-0.28125 1.875,-0.796875 0.25781,-0.28125 0.41015,-0.609375 0.5625,-1.148438 h -0.8086 c -0.28125,0.785157 -0.80859,1.207032 -1.5,1.207032 -0.39843,0 -0.75,-0.1875 -0.90234,-0.492188 -0.11719,-0.210937 -0.17578,-0.457031 -0.17578,-0.726562 0,-0.609375 0.19922,-1.335938 0.51562,-1.828125 0.36329,-0.574219 0.83204,-0.855469 1.41797,-0.855469 0.48047,0 0.8086,0.199219 0.92578,0.574219 0.0234,0.105468 0.0469,0.199218 0.0469,0.304687 0,0.05859 0,0.128906 -0.0117,0.210938 z m 3.00879,-1.6875 h -0.85547 L 240.3757,91.434 h -0.79687 l -0.30469,1.371094 h -0.66797 l -0.14062,0.644531 h 0.67968 l -0.75,3.539062 c -0.0234,0.09375 -0.0351,0.199219 -0.0351,0.292969 0,0.386719 0.16406,0.609375 0.53906,0.714844 0.10547,0.02344 0.21094,0.04687 0.31641,0.04687 0.19922,0 0.48047,-0.03516 0.62109,-0.07031 l 0.15234,-0.703125 c -0.3164,0.08203 -0.33984,0.08203 -0.45703,0.08203 -0.1875,0 -0.30468,-0.07031 -0.33984,-0.1875 -0.0117,-0.03516 -0.0117,-0.04687 -0.0117,-0.07031 0,-0.02344 0.0117,-0.08203 0.0234,-0.128906 l 0.75,-3.515625 h 0.84375 z m 2.82129,-0.140625 c -1.4414,0 -2.40234,0.925781 -2.80078,2.683593 -0.0586,0.316407 -0.10547,0.621094 -0.10547,0.902344 0,1.066406 0.73828,1.792969 1.81641,1.792969 0.91406,0 1.64062,-0.375 2.17969,-1.113281 0.43359,-0.597657 0.75,-1.640625 0.75,-2.472657 0,-0.714843 -0.375,-1.359375 -0.96094,-1.617187 -0.25781,-0.117188 -0.52735,-0.175781 -0.87891,-0.175781 z m -0.11719,0.738281 c 0.48047,0 0.87891,0.246094 1.01954,0.644531 0.0703,0.175781 0.0937,0.363281 0.0937,0.585938 0,1.089843 -0.50391,2.132812 -1.21875,2.496093 -0.23438,0.117188 -0.45704,0.175782 -0.73829,0.175782 -0.46875,0 -0.84375,-0.234375 -0.99609,-0.644532 -0.0703,-0.1875 -0.10547,-0.386718 -0.10547,-0.597656 0,-0.445312 0.10547,-0.9375 0.29297,-1.382812 0.21094,-0.527344 0.51563,-0.890625 0.9375,-1.101563 0.23438,-0.117187 0.45703,-0.175781 0.71484,-0.175781 z m 3.48926,-0.597656 -1.0664,5.015625 h 0.80859 l 0.55078,-2.601563 c 0.2461,-1.125 0.87891,-1.710937 1.88672,-1.710937 h 0.0937 l 0.17578,-0.808594 -0.0586,-0.01172 c -0.082,-0.01172 -0.16406,-0.02344 -0.2461,-0.02344 -0.5625,0 -0.98437,0.246093 -1.58203,0.925781 l 0.16407,-0.785156 z m 7.2041,2.4375 h -4.82812 L 249.36691,95.934 h 4.82813 z m 2.62793,-0.597657 c 0.19922,-0.02344 0.30469,-0.02344 0.4336,-0.02344 0.72656,0 1.17187,0.269531 1.24219,0.761719 0.0117,0.03516 0.0117,0.08203 0.0117,0.128906 0,1.054687 -0.75,1.792969 -1.8164,1.792969 -0.64453,0 -1.05469,-0.316407 -1.125,-0.855469 0,-0.04687 0,-0.08203 0,-0.128906 0,-0.140625 0,-0.257813 0.0469,-0.503907 h -0.84375 c -0.0352,0.292969 -0.0469,0.433594 -0.0469,0.597657 0,1.054687 0.64453,1.628906 1.82812,1.628906 0.86719,0 1.59375,-0.304688 2.08594,-0.84375 0.43359,-0.480469 0.71484,-1.171875 0.71484,-1.804688 0,-0.5625 -0.19921,-0.878906 -0.73828,-1.148437 0.8086,-0.46875 1.17188,-1.054688 1.17188,-1.910156 0,-0.632813 -0.375,-1.136719 -0.9961,-1.324219 -0.22265,-0.07031 -0.46875,-0.105469 -0.72656,-0.105469 -0.79687,0 -1.47656,0.292969 -1.94531,0.820313 -0.28125,0.328125 -0.44531,0.703125 -0.64453,1.40625 h 0.84375 c 0.1875,-0.832032 0.49219,-1.21875 1.07812,-1.417969 0.16407,-0.04687 0.35157,-0.07031 0.53907,-0.07031 0.63281,0 1.00781,0.316407 1.00781,0.84375 0,0.375 -0.11719,0.75 -0.31641,0.984375 -0.26953,0.304688 -0.77344,0.457032 -1.47656,0.457032 h -0.17578 z M 220.44504,116.3422 c -1.25391,1.30078 -2.19141,2.98828 -2.51953,4.5 -0.0937,0.44532 -0.14063,0.90235 -0.14063,1.35938 0,1.14844 0.28125,2.32031 0.75,3.15234 h 0.52735 c -0.26953,-0.70312 -0.4336,-1.39453 -0.50391,-2.09765 -0.0117,-0.22266 -0.0234,-0.44532 -0.0234,-0.69141 0,-2.13281 0.83203,-4.25391 2.4375,-6.22266 z m 4.82519,4.73438 c 0.14063,-0.75 0.16407,-0.97266 0.16407,-1.27735 0,-0.92578 -0.78516,-1.64062 -1.82813,-1.64062 -0.83203,0 -1.61719,0.39844 -2.10937,1.03125 -0.44532,0.60937 -0.79688,1.6875 -0.79688,2.47266 0,0.51562 0.22266,1.04296 0.58594,1.39453 0.33984,0.32812 0.76172,0.48047 1.30078,0.48047 1.14844,0 2.13281,-0.71485 2.42578,-1.7461 h -0.79687 c -0.35157,0.66797 -0.85547,1.00781 -1.48828,1.00781 -0.76172,0 -1.19532,-0.46875 -1.19532,-1.27734 0,-0.21094 0.0117,-0.30469 0.0469,-0.44531 z m -3.51562,-0.69141 c 0.24609,-0.8789 0.96094,-1.48828 1.73437,-1.48828 0.58594,0 0.96094,0.31641 1.07813,0.89063 0.0234,0.0937 0.0234,0.1875 0.0234,0.28125 0,0.0937 0,0.16406 -0.0234,0.3164 z m 6.95508,-2.08594 h -0.85547 l 0.29297,-1.37109 h -0.79688 l -0.30468,1.37109 h -0.66797 l -0.14063,0.64454 h 0.67969 l -0.75,3.53906 c -0.0234,0.0937 -0.0352,0.19922 -0.0352,0.29297 0,0.38672 0.16407,0.60937 0.53907,0.71484 0.10546,0.0234 0.21093,0.0469 0.3164,0.0469 0.19922,0 0.48047,-0.0352 0.6211,-0.0703 l 0.15234,-0.70312 c -0.31641,0.082 -0.33984,0.082 -0.45703,0.082 -0.1875,0 -0.30469,-0.0703 -0.33985,-0.1875 -0.0117,-0.0352 -0.0117,-0.0469 -0.0117,-0.0703 0,-0.0234 0.0117,-0.082 0.0234,-0.12891 l 0.75,-3.51562 h 0.84375 z m 4.42969,1.6875 v -0.14062 c 0.0117,-0.14063 0.0234,-0.24609 0.0234,-0.28125 0,-0.53906 -0.43359,-1.11328 -0.96093,-1.30078 -0.19922,-0.0703 -0.4336,-0.10547 -0.69141,-0.10547 -0.86719,0 -1.64063,0.36328 -2.14453,1.01953 -0.44531,0.58594 -0.77344,1.62891 -0.77344,2.50781 0,0.77344 0.42188,1.47657 1.01953,1.71094 0.21094,0.0937 0.48047,0.14063 0.77344,0.14063 0.78516,0 1.44141,-0.28125 1.875,-0.79688 0.25781,-0.28125 0.41016,-0.60937 0.5625,-1.14844 h -0.80859 c -0.28125,0.78516 -0.8086,1.20703 -1.5,1.20703 -0.39844,0 -0.75,-0.1875 -0.90235,-0.49218 -0.11719,-0.21094 -0.17578,-0.45703 -0.17578,-0.72657 0,-0.60937 0.19922,-1.33593 0.51563,-1.82812 0.36328,-0.57422 0.83203,-0.85547 1.41796,-0.85547 0.48047,0 0.8086,0.19922 0.92579,0.57422 0.0234,0.10547 0.0469,0.19922 0.0469,0.30469 0,0.0586 0,0.1289 -0.0117,0.21093 z m 1.54394,2.34375 h -0.99609 l -0.21094,0.98438 h 0.99609 z m 1.07813,3.02344 c 1.23046,-1.28906 2.1914,-3 2.50781,-4.5 0.0937,-0.44531 0.14062,-0.9375 0.14062,-1.42969 0,-1.08984 -0.28125,-2.28515 -0.73828,-3.08203 h -0.52734 c 0.36328,0.9375 0.52734,1.82813 0.52734,2.84766 0,2.07422 -0.84375,4.20703 -2.4375,6.16406 z m 0,0"
         style="fill:#000000;fill-opacity:1;fill-rule:nonzero;stroke:none" />
    </g>
    <path
       id="path19"
       d="m 3123.13,6437.47 c 0,70.4 -57.08,127.48 -127.47,127.48 -70.4,0 -127.48,-57.08 -127.48,-127.48 0,-70.4 57.08,-127.47 127.48,-127.47 70.39,0 127.47,57.07 127.47,127.47"
       style="fill:none;stroke:#000000;stroke-width:7.96717;stroke-linecap:butt;stroke-linejoin:miter;stroke-miterlimit:10;stroke-dasharray:none;stroke-opacity:1"
       transform="matrix(0.13333333,0,0,-0.13333333,0,1056)" />
    <path
       id="path20"
       d="m 3123.13,6437.47 c 0,0 0,0 53.12,10.63 53.11,10.62 159.34,31.86 371.8,42.49 212.45,10.62 531.14,10.62 690.49,10.62 159.34,0 159.34,0 159.34,0"
       style="fill:none;stroke:#000000;stroke-width:7.96717;stroke-linecap:butt;stroke-linejoin:miter;stroke-miterlimit:10;stroke-dasharray:none;stroke-opacity:1"
       transform="matrix(0.13333333,0,0,-0.13333333,0,1056)" />
    <path
       id="path21"
       d="m 4318.21,6521.13 79.67,-19.92 -79.67,-19.92"
       style="fill:none;stroke:#000000;stroke-width:7.96717;stroke-linecap:butt;stroke-linejoin:miter;stroke-miterlimit:10;stroke-dasharray:none;stroke-opacity:1"
       transform="matrix(0.13333333,0,0,-0.13333333,0,1056)" />
    <path
       id="path22"
       d="m 3123.13,6437.47 c 0,0 0,0 53.12,-31.86 53.11,-31.88 159.34,-95.61 371.8,-127.48 212.45,-31.87 531.14,-31.87 690.49,-31.87 159.34,0 159.34,0 159.34,0"
       style="fill:none;stroke:#000000;stroke-width:7.96717;stroke-linecap:butt;stroke-linejoin:miter;stroke-miterlimit:10;stroke-dasharray:none;stroke-opacity:1"
       transform="matrix(0.13333333,0,0,-0.13333333,0,1056)" />
    <path
       id="path23"
       d="m 4318.21,6266.18 79.67,-19.92 -79.67,-19.92"
       style="fill:none;stroke:#000000;stroke-width:7.96717;stroke-linecap:butt;stroke-linejoin:miter;stroke-miterlimit:10;stroke-dasharray:none;stroke-opacity:1"
       transform="matrix(0.13333333,0,0,-0.13333333,0,1056)" />
    <path
       id="path24"
       d="m 3123.13,6437.47 c 0,0 0,0 53.12,53.12 53.11,53.11 159.34,159.34 371.8,212.46 212.45,53.11 531.14,53.11 690.49,53.11 159.34,0 159.34,0 159.34,0"
       style="fill:none;stroke:#000000;stroke-width:7.96717;stroke-linecap:butt;stroke-linejoin:miter;stroke-miterlimit:10;stroke-dasharray:none;stroke-opacity:1"
       transform="matrix(0.13333333,0,0,-0.13333333,0,1056)" />
    <path
       id="path25"
       d="m 4318.21,6776.08 79.67,-19.92 -79.67,-19.92"
       style="fill:none;stroke:#000000;stroke-width:7.96717;stroke-linecap:butt;stroke-linejoin:miter;stroke-miterlimit:10;stroke-dasharray:none;stroke-opacity:1"
       transform="matrix(0.13333333,0,0,-0.13333333,0,1056)" />
    <path
       id="path26"
       d="M 2.167375,-8.1325703 H 1.1126875 V 2.421875e-4 H 2.167375 Z m 1.5205078,6.2929687 c 0.1992188,1.31250004 1.0429688,2.09765629 2.25,2.09765629 0.8789063,0 1.6640625,-0.421875 2.1328125,-1.1484375 0.4921875,-0.79687499 0.7148438,-1.78124999 0.7148438,-3.23437499 0,-1.359375 -0.2109375,-2.2265625 -0.6796875,-2.9414063 -0.4335938,-0.65625 -1.125,-0.9960937 -1.9921875,-0.9960937 -1.5,0 -2.5898438,1.125 -2.5898438,2.6835937 0,1.4882813 1.0078125,2.53125 2.4375,2.53125 0.7382813,0 1.3007813,-0.2695312 1.8046875,-0.8789062 -0.011719,2.0039062 -0.6328125,3.11718749 -1.7578125,3.11718749 -0.703125,0 -1.171875,-0.44531249 -1.3359375,-1.23046879 z m 2.4140625,-5.3671875 c 0.9140625,0 1.6054688,0.7734375 1.6054688,1.8046875 0,0.9960938 -0.6679688,1.6875 -1.640625,1.6875 -0.9492188,0 -1.5351563,-0.6679687 -1.5351563,-1.7460937 0,-1.0078125 0.65625,-1.7460938 1.5703125,-1.7460938 z m 0,0"
       style="fill:#000000;fill-opacity:1;fill-rule:nonzero;stroke:none"
       aria-label="I9"
       transform="matrix(1.3333333,0,0,1.3333333,390.92267,199.59733)" />
    <path
       id="path27"
       d="m 4652.83,6246.26 c 0,70.4 -57.08,127.47 -127.48,127.47 -70.4,0 -127.47,-57.07 -127.47,-127.47 0,-70.4 57.07,-127.47 127.47,-127.47 70.4,0 127.48,57.07 127.48,127.47"
       style="fill:none;stroke:#000000;stroke-width:7.96717;stroke-linecap:butt;stroke-linejoin:miter;stroke-miterlimit:10;stroke-dasharray:none;stroke-opacity:1"
       transform="matrix(0.13333333,0,0,-0.13333333,0,1056)" />
    <path
       id="path28"
       d="m 4652.83,6501.21 c 0,70.4 -57.08,127.47 -127.48,127.47 -70.4,0 -127.47,-57.07 -127.47,-127.47 0,-70.4 57.07,-127.48 127.47,-127.48 70.4,0 127.48,57.08 127.48,127.48"
       style="fill:none;stroke:#000000;stroke-width:7.96717;stroke-linecap:butt;stroke-linejoin:miter;stroke-miterlimit:10;stroke-dasharray:none;stroke-opacity:1"
       transform="matrix(0.13333333,0,0,-0.13333333,0,1056)" />
    <path
       id="path29"
       d="m 4652.83,6756.16 c 0,70.4 -57.08,127.48 -127.48,127.48 -70.4,0 -127.47,-57.08 -127.47,-127.48 0,-70.4 57.07,-127.47 127.47,-127.47 70.4,0 127.48,57.07 127.48,127.47"
       style="fill:none;stroke:#000000;stroke-width:7.96717;stroke-linecap:butt;stroke-linejoin:miter;stroke-miterlimit:10;stroke-dasharray:none;stroke-opacity:1"
       transform="matrix(0.13333333,0,0,-0.13333333,0,1056)" />
    <g
       id="g29"
       aria-label="S23&#10;S24&#10;S25&#10;sensor−1&#10;sensor−2&#10;sensor−3&#10;(etc.)"
       transform="matrix(1.3333333,0,0,1.3333333,590.63333,156.57467)">
      <path
         id="path30"
         d="m 6.6441406,-5.7425234 c 0,-0.5625 -0.023437,-0.7148438 -0.2109375,-1.1015625 -0.4453125,-0.9375 -1.3945312,-1.4179688 -2.765625,-1.4179688 -1.78125,0 -2.88281247,0.9140625 -2.88281247,2.3789063 0,0.9960937 0.51562497,1.6171875 1.59374997,1.8984375 l 2.015625,0.5390625 c 1.0429688,0.2695312 1.5,0.6796875 1.5,1.3125 0,0.4335937 -0.234375,0.8789062 -0.5859375,1.125 -0.3164062,0.23437496 -0.8320312,0.35156246 -1.4882812,0.35156246 -0.9023438,0 -1.4882813,-0.2109375 -1.875,-0.67968746 -0.3046875,-0.3632813 -0.4335938,-0.75 -0.4335938,-1.2539063 H 0.53867188 c 0.0117188,0.75 0.15234375,1.2421875 0.48046872,1.68750001 0.5507813,0.7734375 1.4882813,1.16015625 2.7304688,1.16015625 0.9726562,0 1.7578125,-0.22265625 2.2851562,-0.62109375 0.5507813,-0.4453125 0.890625,-1.16015621 0.890625,-1.86328121 0,-1.0078125 -0.6210937,-1.7460938 -1.7226562,-2.0507813 L 3.1519531,-4.8167422 C 2.1792969,-5.0862734 1.8160156,-5.4026797 1.8160156,-6.0237734 c 0,-0.8320313 0.7265625,-1.3710938 1.8164063,-1.3710938 1.3007812,0 2.0273437,0.5742188 2.0390625,1.6523438 z m 6.4453124,4.76953121 H 8.9292969 C 9.0230469,-1.6409609 9.3863281,-2.0628359 10.347266,-2.6604922 l 1.125,-0.6210937 c 1.101562,-0.609375 1.664062,-1.4414063 1.664062,-2.4257813 0,-0.6796875 -0.257812,-1.3007812 -0.726562,-1.734375 -0.46875,-0.421875 -1.054688,-0.6210937 -1.804688,-0.6210937 -0.9960936,0 -1.7460936,0.3515625 -2.1796874,1.0429687 -0.28125,0.421875 -0.3984375,0.9257813 -0.421875,1.7460938 h 0.9726563 c 0.035156,-0.5507813 0.1054687,-0.8789063 0.234375,-1.1367188 0.2578125,-0.4921875 0.7734375,-0.796875 1.3710941,-0.796875 0.890625,0 1.558593,0.6445313 1.558593,1.5117188 0,0.65625 -0.375,1.2070312 -1.078125,1.6171875 l -1.019531,0.5976562 c -1.6523436,0.9492188 -2.1328124,1.7109375 -2.2265624,3.46875001 h 5.2734374 z m 3.011719,-2.74218751 h 0.539062 c 1.066407,0 1.640625,0.5039063 1.640625,1.4765625 0,1.0078125 -0.609375,1.62890626 -1.628906,1.62890626 -1.078125,0 -1.605469,-0.55078126 -1.675781,-1.73437496 h -0.984375 c 0.04687,0.6445312 0.164062,1.0664062 0.351562,1.42968746 0.410157,0.78515625 1.183594,1.171875 2.261719,1.171875 1.628906,0 2.683594,-0.984375 2.683594,-2.50781246 0,-1.03125 -0.398438,-1.5820313 -1.347656,-1.921875 0.738281,-0.3046875 1.113281,-0.8554688 1.113281,-1.6757813 0,-1.3828125 -0.902344,-2.2148437 -2.414063,-2.2148437 -1.59375,0 -2.4375,0.890625 -2.472656,2.6015625 h 0.984375 c 0,-0.4921875 0.04687,-0.7734375 0.175781,-1.0195313 0.222657,-0.4570312 0.714844,-0.7265625 1.324219,-0.7265625 0.867188,0 1.394531,0.5273438 1.394531,1.3945313 0,0.5742187 -0.199218,0.9140625 -0.632812,1.1015625 -0.269531,0.1171875 -0.632813,0.1640625 -1.3125,0.1757812 z M 6.6441406,19.751617 c 0,-0.5625 -0.023437,-0.714844 -0.2109375,-1.101562 -0.4453125,-0.9375 -1.3945312,-1.417969 -2.765625,-1.417969 -1.78125,0 -2.88281247,0.914062 -2.88281247,2.378906 0,0.996094 0.51562497,1.617188 1.59374997,1.898438 l 2.015625,0.539062 c 1.0429688,0.269531 1.5,0.679688 1.5,1.3125 0,0.433594 -0.234375,0.878906 -0.5859375,1.125 -0.3164062,0.234375 -0.8320312,0.351563 -1.4882812,0.351563 -0.9023438,0 -1.4882813,-0.210938 -1.875,-0.679688 -0.3046875,-0.363281 -0.4335938,-0.75 -0.4335938,-1.253906 H 0.53867188 c 0.0117188,0.75 0.15234375,1.242187 0.48046872,1.6875 0.5507813,0.773437 1.4882813,1.160156 2.7304688,1.160156 0.9726562,0 1.7578125,-0.222656 2.2851562,-0.621094 0.5507813,-0.445312 0.890625,-1.160156 0.890625,-1.863281 0,-1.007812 -0.6210937,-1.746094 -1.7226562,-2.050781 L 3.1519531,20.677398 C 2.1792969,20.407867 1.8160156,20.091461 1.8160156,19.470367 c 0,-0.832031 0.7265625,-1.371094 1.8164063,-1.371094 1.3007812,0 2.0273437,0.574219 2.0390625,1.652344 z m 6.4453124,4.769531 H 8.9292969 c 0.09375,-0.667968 0.4570312,-1.089843 1.4179691,-1.6875 l 1.125,-0.621093 c 1.101562,-0.609375 1.664062,-1.441407 1.664062,-2.425782 0,-0.679687 -0.257812,-1.300781 -0.726562,-1.734375 -0.46875,-0.421875 -1.054688,-0.621093 -1.804688,-0.621093 -0.9960936,0 -1.7460936,0.351562 -2.1796874,1.042968 -0.28125,0.421875 -0.3984375,0.925782 -0.421875,1.746094 h 0.9726563 c 0.035156,-0.550781 0.1054687,-0.878906 0.234375,-1.136719 0.2578125,-0.492187 0.7734375,-0.796875 1.3710941,-0.796875 0.890625,0 1.558593,0.644532 1.558593,1.511719 0,0.65625 -0.375,1.207031 -1.078125,1.617188 l -1.019531,0.597656 c -1.6523436,0.949219 -2.1328124,1.710937 -2.2265624,3.46875 h 5.2734374 z m 4.195313,-0.984375 v 1.957032 h 0.984375 v -1.957032 h 1.171875 v -0.878906 h -1.171875 v -5.226562 h -0.726563 l -3.585937,5.074218 v 1.03125 z m 0,-0.878906 h -2.472657 l 2.472657,-3.550781 z M 6.6441406,45.248687 c 0,-0.5625 -0.023437,-0.714843 -0.2109375,-1.101562 -0.4453125,-0.9375 -1.3945312,-1.417969 -2.765625,-1.417969 -1.78125,0 -2.88281247,0.914063 -2.88281247,2.378906 0,0.996094 0.51562497,1.617188 1.59374997,1.898438 l 2.015625,0.539062 c 1.0429688,0.269532 1.5,0.679688 1.5,1.3125 0,0.433594 -0.234375,0.878907 -0.5859375,1.125 -0.3164062,0.234375 -0.8320312,0.351563 -1.4882812,0.351563 -0.9023438,0 -1.4882813,-0.210938 -1.875,-0.679688 -0.3046875,-0.363281 -0.4335938,-0.75 -0.4335938,-1.253906 H 0.53867188 c 0.0117188,0.75 0.15234375,1.242188 0.48046872,1.6875 0.5507813,0.773438 1.4882813,1.160156 2.7304688,1.160156 0.9726562,0 1.7578125,-0.222656 2.2851562,-0.621093 0.5507813,-0.445313 0.890625,-1.160157 0.890625,-1.863282 0,-1.007812 -0.6210937,-1.746093 -1.7226562,-2.050781 L 3.1519531,46.174469 C 2.1792969,45.904937 1.8160156,45.588531 1.8160156,44.967437 c 0,-0.832031 0.7265625,-1.371093 1.8164063,-1.371093 1.3007812,0 2.0273437,0.574218 2.0390625,1.652343 z m 6.4453124,4.769532 H 8.9292969 c 0.09375,-0.667969 0.4570312,-1.089844 1.4179691,-1.6875 l 1.125,-0.621094 c 1.101562,-0.609375 1.664062,-1.441406 1.664062,-2.425781 0,-0.679688 -0.257812,-1.300782 -0.726562,-1.734375 -0.46875,-0.421875 -1.054688,-0.621094 -1.804688,-0.621094 -0.9960936,0 -1.7460936,0.351562 -2.1796874,1.042969 -0.28125,0.421875 -0.3984375,0.925781 -0.421875,1.746093 h 0.9726563 c 0.035156,-0.550781 0.1054687,-0.878906 0.234375,-1.136718 0.2578125,-0.492188 0.7734375,-0.796875 1.3710941,-0.796875 0.890625,0 1.558593,0.644531 1.558593,1.511718 0,0.65625 -0.375,1.207032 -1.078125,1.617188 l -1.019531,0.597656 c -1.6523436,0.949219 -2.1328124,1.710938 -2.2265624,3.46875 h 5.2734374 z m 5.859375,-6.9375 h -4.078125 l -0.597656,4.3125 h 0.902344 c 0.457031,-0.550782 0.84375,-0.738282 1.464843,-0.738282 1.066407,0 1.722657,0.726563 1.722657,1.898438 0,1.136719 -0.65625,1.828125 -1.734375,1.828125 -0.855469,0 -1.382813,-0.433594 -1.617188,-1.335938 h -0.984375 c 0.140625,0.65625 0.246094,0.960938 0.480469,1.253907 0.445312,0.597656 1.253906,0.949218 2.144531,0.949218 1.59375,0 2.707031,-1.160156 2.707031,-2.835937 0,-1.558594 -1.03125,-2.636719 -2.554687,-2.636719 -0.550781,0 -0.996094,0.152344 -1.453125,0.480469 l 0.304687,-2.203125 h 3.292969 z m 0,0"
         style="fill:#000000;fill-opacity:1;fill-rule:nonzero;stroke:none" />
      <path
         id="path31"
         d="m -68.388086,-7.3714297 c 0.05859,-0.2109375 0.05859,-0.2929687 0.05859,-0.421875 0,-0.6679687 -0.632813,-1.125 -1.570313,-1.125 -0.667968,0 -1.253906,0.1992188 -1.652343,0.5742188 -0.351563,0.3398437 -0.574219,0.8320312 -0.574219,1.2773437 0,0.5859375 0.339844,0.8671875 1.324219,1.125 l 0.703125,0.1757813 c 0.316406,0.09375 0.46875,0.1523437 0.550781,0.2578125 0.07031,0.082031 0.117187,0.2226562 0.117187,0.3164062 0,0.1054688 -0.09375,0.3515625 -0.175781,0.46875 -0.152344,0.1875 -0.445312,0.3398438 -0.785156,0.4101563 -0.128906,0.023437 -0.269531,0.035156 -0.398438,0.035156 -0.574218,0 -0.914062,-0.1875 -1.007812,-0.5390625 -0.02344,-0.058594 -0.02344,-0.1289062 -0.02344,-0.1992187 0,-0.058594 0,-0.140625 0.01172,-0.234375 h -0.84375 c -0.04687,0.2109375 -0.05859,0.328125 -0.05859,0.4804687 0,0.5742188 0.386719,0.9960938 1.054688,1.1484375 0.234375,0.046875 0.46875,0.082031 0.726562,0.082031 1.417969,0 2.34375,-0.7382813 2.34375,-1.875 0,-0.5859375 -0.316406,-0.890625 -1.148437,-1.1015625 l -0.726563,-0.1875 c -0.457031,-0.1054688 -0.726562,-0.2578125 -0.796875,-0.4570313 -0.01172,-0.023437 -0.02344,-0.058594 -0.02344,-0.1054687 0,-0.1992188 0.117187,-0.4335938 0.292969,-0.5976563 0.222656,-0.2226562 0.515625,-0.3164062 0.9375,-0.3164062 0.445312,0 0.726562,0.1289062 0.832031,0.3867187 0.03516,0.058594 0.04687,0.1171875 0.04687,0.2109375 0,0.046875 0,0.1289063 -0.01172,0.2109375 z m 5.25,1.3710938 c 0.140625,-0.75 0.164063,-0.9726563 0.164063,-1.2773438 0,-0.9257812 -0.785157,-1.640625 -1.828125,-1.640625 -0.832032,0 -1.617188,0.3984375 -2.109375,1.03125 -0.445313,0.609375 -0.796875,1.6875 -0.796875,2.4726563 0,0.515625 0.222656,1.0429687 0.585937,1.3945312 0.339844,0.328125 0.761719,0.4804688 1.300781,0.4804688 1.148438,0 2.132813,-0.7148438 2.425782,-1.7460938 h -0.796875 c -0.351563,0.6679688 -0.855469,1.0078125 -1.488282,1.0078125 -0.761718,0 -1.195312,-0.46875 -1.195312,-1.2773437 0,-0.2109375 0.01172,-0.3046875 0.04687,-0.4453125 z m -3.515625,-0.6914063 c 0.246094,-0.8789062 0.960938,-1.4882812 1.734375,-1.4882812 0.585938,0 0.960938,0.3164062 1.078125,0.890625 0.02344,0.09375 0.02344,0.1875 0.02344,0.28125 0,0.09375 0,0.1640625 -0.02344,0.3164062 z m 5.185547,-2.0859375 -1.066406,5.015625 h 0.808593 l 0.574219,-2.765625 c 0.234375,-1.0546875 0.902344,-1.6992187 1.769531,-1.6992187 0.46875,0 0.832032,0.328125 0.832032,0.7734375 0,0.058594 -0.02344,0.1875 -0.05859,0.3515625 l -0.714844,3.3398437 h 0.808594 l 0.761719,-3.5976562 c 0.03516,-0.1171875 0.03516,-0.234375 0.03516,-0.3632813 0,-0.5507812 -0.328125,-1.0078125 -0.832031,-1.1367187 -0.140625,-0.035156 -0.292969,-0.058594 -0.46875,-0.058594 -0.726563,0 -1.347657,0.2578125 -1.851563,0.7617188 l 0.128906,-0.6210938 z m 8.493164,1.40625 c 0.05859,-0.2109375 0.05859,-0.2929687 0.05859,-0.421875 0,-0.6679687 -0.632813,-1.125 -1.570313,-1.125 -0.667968,0 -1.253906,0.1992188 -1.652343,0.5742188 -0.351563,0.3398437 -0.574219,0.8320312 -0.574219,1.2773437 0,0.5859375 0.339844,0.8671875 1.324219,1.125 l 0.703125,0.1757813 c 0.316406,0.09375 0.46875,0.1523437 0.550781,0.2578125 0.07031,0.082031 0.117187,0.2226562 0.117187,0.3164062 0,0.1054688 -0.09375,0.3515625 -0.175781,0.46875 -0.152344,0.1875 -0.445312,0.3398438 -0.785156,0.4101563 -0.128906,0.023437 -0.269531,0.035156 -0.398438,0.035156 -0.574218,0 -0.914062,-0.1875 -1.007812,-0.5390625 -0.02344,-0.058594 -0.02344,-0.1289062 -0.02344,-0.1992187 0,-0.058594 0,-0.140625 0.01172,-0.234375 h -0.84375 c -0.04687,0.2109375 -0.05859,0.328125 -0.05859,0.4804687 0,0.5742188 0.386719,0.9960938 1.054688,1.1484375 0.234375,0.046875 0.46875,0.082031 0.726562,0.082031 1.417969,0 2.34375,-0.7382813 2.34375,-1.875 0,-0.5859375 -0.316406,-0.890625 -1.148437,-1.1015625 l -0.726563,-0.1875 c -0.457031,-0.1054688 -0.726562,-0.2578125 -0.796875,-0.4570313 -0.01172,-0.023437 -0.02344,-0.058594 -0.02344,-0.1054687 0,-0.1992188 0.117187,-0.4335938 0.292969,-0.5976563 0.222656,-0.2226562 0.515625,-0.3164062 0.9375,-0.3164062 0.445312,0 0.726562,0.1289062 0.832031,0.3867187 0.03516,0.058594 0.04687,0.1171875 0.04687,0.2109375 0,0.046875 0,0.1289063 -0.01172,0.2109375 z m 3.536133,-1.546875 c -1.441406,0 -2.402344,0.9257813 -2.800781,2.6835938 -0.05859,0.3164062 -0.105469,0.6210937 -0.105469,0.9023437 0,1.0664063 0.738281,1.7929688 1.816406,1.7929688 0.914063,0 1.640625,-0.375 2.179688,-1.1132813 0.433593,-0.5976562 0.75,-1.640625 0.75,-2.4726562 0,-0.7148438 -0.375,-1.359375 -0.960938,-1.6171875 -0.257812,-0.1171875 -0.527344,-0.1757813 -0.878906,-0.1757813 z m -0.117188,0.7382813 c 0.480469,0 0.878907,0.2460937 1.019532,0.6445312 0.07031,0.1757813 0.09375,0.3632813 0.09375,0.5859375 0,1.0898438 -0.503907,2.1328125 -1.21875,2.4960938 -0.234375,0.1171875 -0.457032,0.1757812 -0.738282,0.1757812 -0.46875,0 -0.84375,-0.234375 -0.996093,-0.6445312 -0.07031,-0.1875 -0.105469,-0.3867188 -0.105469,-0.5976563 0,-0.4453125 0.105469,-0.9375 0.292969,-1.3828125 0.210937,-0.5273437 0.515625,-0.890625 0.9375,-1.1015625 0.234375,-0.1171875 0.457031,-0.1757812 0.714843,-0.1757812 z m 3.489258,-0.5976563 -1.066406,5.015625 h 0.808594 l 0.550781,-2.6015625 c 0.246094,-1.125 0.878906,-1.7109375 1.886719,-1.7109375 h 0.09375 l 0.175781,-0.8085937 -0.05859,-0.011719 c -0.08203,-0.011719 -0.164062,-0.023437 -0.246094,-0.023437 -0.5625,0 -0.984375,0.2460938 -1.582031,0.9257813 l 0.164063,-0.7851563 z m 7.201172,2.4375 h -4.828125 l -0.140625,0.6914063 h 4.828125 z m 3.380859,-2.390625 -1.066406,4.96875 h 0.84375 l 1.476563,-6.9140623 h -0.5625 c -0.503907,1.0312498 -0.714844,1.1718748 -2.085938,1.3476561 l -0.128906,0.5976562 z m -32.90332,26.8535157 c 0.05859,-0.210938 0.05859,-0.292969 0.05859,-0.421875 0,-0.667969 -0.632813,-1.125 -1.570313,-1.125 -0.667968,0 -1.253906,0.199219 -1.652343,0.574219 -0.351563,0.339843 -0.574219,0.832031 -0.574219,1.277343 0,0.585938 0.339844,0.867188 1.324219,1.125 l 0.703125,0.175782 c 0.316406,0.09375 0.46875,0.152343 0.550781,0.257812 0.07031,0.08203 0.117187,0.222656 0.117187,0.316406 0,0.105469 -0.09375,0.351563 -0.175781,0.46875 -0.152344,0.1875 -0.445312,0.339844 -0.785156,0.410157 -0.128906,0.02344 -0.269531,0.03516 -0.398438,0.03516 -0.574218,0 -0.914062,-0.1875 -1.007812,-0.539063 -0.02344,-0.05859 -0.02344,-0.128906 -0.02344,-0.199218 0,-0.05859 0,-0.140625 0.01172,-0.234375 h -0.84375 c -0.04687,0.210937 -0.05859,0.328125 -0.05859,0.480468 0,0.574219 0.386719,0.996094 1.054688,1.148438 0.234375,0.04687 0.46875,0.08203 0.726562,0.08203 1.417969,0 2.34375,-0.738281 2.34375,-1.875 0,-0.585937 -0.316406,-0.890625 -1.148437,-1.101562 l -0.726563,-0.1875 c -0.457031,-0.105469 -0.726562,-0.257813 -0.796875,-0.457032 -0.01172,-0.02344 -0.02344,-0.05859 -0.02344,-0.105468 0,-0.199219 0.117187,-0.433594 0.292969,-0.597657 0.222656,-0.222656 0.515625,-0.316406 0.9375,-0.316406 0.445312,0 0.726562,0.128906 0.832031,0.386719 0.03516,0.05859 0.04687,0.117187 0.04687,0.210937 0,0.04687 0,0.128907 -0.01172,0.210938 z m 5.25,1.371094 c 0.140625,-0.75 0.164063,-0.972657 0.164063,-1.277344 0,-0.925781 -0.785157,-1.640625 -1.828125,-1.640625 -0.832032,0 -1.617188,0.398437 -2.109375,1.03125 -0.445313,0.609375 -0.796875,1.6875 -0.796875,2.472656 0,0.515625 0.222656,1.042969 0.585937,1.394531 0.339844,0.328125 0.761719,0.480469 1.300781,0.480469 1.148438,0 2.132813,-0.714844 2.425782,-1.746094 h -0.796875 c -0.351563,0.667969 -0.855469,1.007813 -1.488282,1.007813 -0.761718,0 -1.195312,-0.46875 -1.195312,-1.277344 0,-0.210937 0.01172,-0.304687 0.04687,-0.445312 z m -3.515625,-0.691407 c 0.246094,-0.878906 0.960938,-1.488281 1.734375,-1.488281 0.585938,0 0.960938,0.316406 1.078125,0.890625 0.02344,0.09375 0.02344,0.1875 0.02344,0.28125 0,0.09375 0,0.164063 -0.02344,0.316406 z m 5.185547,-2.085937 -1.066406,5.015625 h 0.808593 l 0.574219,-2.765625 c 0.234375,-1.054688 0.902344,-1.699219 1.769531,-1.699219 0.46875,0 0.832032,0.328125 0.832032,0.773438 0,0.05859 -0.02344,0.1875 -0.05859,0.351562 l -0.714844,3.339844 h 0.808594 l 0.761719,-3.597656 c 0.03516,-0.117188 0.03516,-0.234375 0.03516,-0.363282 0,-0.550781 -0.328125,-1.007812 -0.832031,-1.136718 -0.140625,-0.03516 -0.292969,-0.05859 -0.46875,-0.05859 -0.726563,0 -1.347657,0.257812 -1.851563,0.761719 l 0.128906,-0.621094 z m 8.493164,1.40625 c 0.05859,-0.210938 0.05859,-0.292969 0.05859,-0.421875 0,-0.667969 -0.632813,-1.125 -1.570313,-1.125 -0.667968,0 -1.253906,0.199219 -1.652343,0.574219 -0.351563,0.339843 -0.574219,0.832031 -0.574219,1.277343 0,0.585938 0.339844,0.867188 1.324219,1.125 l 0.703125,0.175782 c 0.316406,0.09375 0.46875,0.152343 0.550781,0.257812 0.07031,0.08203 0.117187,0.222656 0.117187,0.316406 0,0.105469 -0.09375,0.351563 -0.175781,0.46875 -0.152344,0.1875 -0.445312,0.339844 -0.785156,0.410157 -0.128906,0.02344 -0.269531,0.03516 -0.398438,0.03516 -0.574218,0 -0.914062,-0.1875 -1.007812,-0.539063 -0.02344,-0.05859 -0.02344,-0.128906 -0.02344,-0.199218 0,-0.05859 0,-0.140625 0.01172,-0.234375 h -0.84375 c -0.04687,0.210937 -0.05859,0.328125 -0.05859,0.480468 0,0.574219 0.386719,0.996094 1.054688,1.148438 0.234375,0.04687 0.46875,0.08203 0.726562,0.08203 1.417969,0 2.34375,-0.738281 2.34375,-1.875 0,-0.585937 -0.316406,-0.890625 -1.148437,-1.101562 l -0.726563,-0.1875 c -0.457031,-0.105469 -0.726562,-0.257813 -0.796875,-0.457032 -0.01172,-0.02344 -0.02344,-0.05859 -0.02344,-0.105468 0,-0.199219 0.117187,-0.433594 0.292969,-0.597657 0.222656,-0.222656 0.515625,-0.316406 0.9375,-0.316406 0.445312,0 0.726562,0.128906 0.832031,0.386719 0.03516,0.05859 0.04687,0.117187 0.04687,0.210937 0,0.04687 0,0.128907 -0.01172,0.210938 z m 3.536133,-1.546875 c -1.441406,0 -2.402344,0.925781 -2.800781,2.683594 -0.05859,0.316406 -0.105469,0.621093 -0.105469,0.902343 0,1.066407 0.738281,1.792969 1.816406,1.792969 0.914063,0 1.640625,-0.375 2.179688,-1.113281 0.433593,-0.597656 0.75,-1.640625 0.75,-2.472656 0,-0.714844 -0.375,-1.359375 -0.960938,-1.617188 -0.257812,-0.117187 -0.527344,-0.175781 -0.878906,-0.175781 z m -0.117188,0.738281 c 0.480469,0 0.878907,0.246094 1.019532,0.644531 0.07031,0.175782 0.09375,0.363282 0.09375,0.585938 0,1.089844 -0.503907,2.132812 -1.21875,2.496094 -0.234375,0.117187 -0.457032,0.175781 -0.738282,0.175781 -0.46875,0 -0.84375,-0.234375 -0.996093,-0.644531 -0.07031,-0.1875 -0.105469,-0.386719 -0.105469,-0.597657 0,-0.445312 0.105469,-0.9375 0.292969,-1.382812 0.210937,-0.527344 0.515625,-0.890625 0.9375,-1.101563 0.234375,-0.117187 0.457031,-0.175781 0.714843,-0.175781 z m 3.489258,-0.597656 -1.066406,5.015625 h 0.808594 l 0.550781,-2.601563 c 0.246094,-1.125 0.878906,-1.710937 1.886719,-1.710937 h 0.09375 l 0.175781,-0.808594 -0.05859,-0.01172 c -0.08203,-0.01172 -0.164062,-0.02344 -0.246094,-0.02344 -0.5625,0 -0.984375,0.246094 -1.582031,0.925781 l 0.164063,-0.785156 z m 7.201172,2.4375 h -4.828125 l -0.140625,0.691406 h 4.828125 z m 4.857422,1.746094 h -3.609375 c 0.140625,-0.46875 0.691406,-0.960938 1.570312,-1.417969 l 1.066407,-0.5625 c 0.855468,-0.433594 1.371093,-0.902344 1.664062,-1.476563 0.152344,-0.304687 0.246094,-0.632812 0.246094,-0.960937 0,-0.75 -0.421875,-1.359375 -1.066406,-1.558594 -0.234375,-0.07031 -0.492188,-0.105469 -0.761719,-0.105469 -1.476563,0 -2.320313,0.75 -2.695313,2.390625 h 0.832032 c 0.117187,-0.433593 0.234375,-0.726562 0.410156,-0.972656 0.292969,-0.433594 0.785156,-0.679687 1.335937,-0.679687 0.667969,0 1.101563,0.410156 1.101563,1.042968 0,0.632813 -0.457031,1.21875 -1.265625,1.628907 l -0.996094,0.515625 c -0.808594,0.410156 -1.453125,0.890625 -1.828125,1.359375 -0.28125,0.363281 -0.398437,0.621093 -0.691406,1.617187 h 4.5 z m -34.379883,22.716797 c 0.05859,-0.210938 0.05859,-0.292969 0.05859,-0.421875 0,-0.667969 -0.632813,-1.125 -1.570313,-1.125 -0.667968,0 -1.253906,0.199218 -1.652343,0.574218 -0.351563,0.339844 -0.574219,0.832032 -0.574219,1.277344 0,0.585938 0.339844,0.867188 1.324219,1.125 l 0.703125,0.175781 c 0.316406,0.09375 0.46875,0.152344 0.550781,0.257813 0.07031,0.08203 0.117187,0.222656 0.117187,0.316406 0,0.105469 -0.09375,0.351563 -0.175781,0.46875 -0.152344,0.1875 -0.445312,0.339844 -0.785156,0.410156 -0.128906,0.02344 -0.269531,0.03516 -0.398438,0.03516 -0.574218,0 -0.914062,-0.1875 -1.007812,-0.539063 -0.02344,-0.05859 -0.02344,-0.128906 -0.02344,-0.199219 0,-0.05859 0,-0.140625 0.01172,-0.234375 h -0.84375 c -0.04687,0.210938 -0.05859,0.328125 -0.05859,0.480469 0,0.574219 0.386719,0.996094 1.054688,1.148438 0.234375,0.04687 0.46875,0.08203 0.726562,0.08203 1.417969,0 2.34375,-0.738281 2.34375,-1.875 0,-0.585938 -0.316406,-0.890625 -1.148437,-1.101563 l -0.726563,-0.1875 c -0.457031,-0.105468 -0.726562,-0.257812 -0.796875,-0.457031 -0.01172,-0.02344 -0.02344,-0.05859 -0.02344,-0.105469 0,-0.199218 0.117187,-0.433593 0.292969,-0.597656 0.222656,-0.222656 0.515625,-0.316406 0.9375,-0.316406 0.445312,0 0.726562,0.128906 0.832031,0.386719 0.03516,0.05859 0.04687,0.117187 0.04687,0.210937 0,0.04687 0,0.128906 -0.01172,0.210938 z m 5.25,1.371093 c 0.140625,-0.75 0.164063,-0.972656 0.164063,-1.277343 0,-0.925782 -0.785157,-1.640625 -1.828125,-1.640625 -0.832032,0 -1.617188,0.398437 -2.109375,1.03125 -0.445313,0.609375 -0.796875,1.6875 -0.796875,2.472656 0,0.515625 0.222656,1.042969 0.585937,1.394531 0.339844,0.328125 0.761719,0.480469 1.300781,0.480469 1.148438,0 2.132813,-0.714844 2.425782,-1.746094 h -0.796875 c -0.351563,0.667969 -0.855469,1.007813 -1.488282,1.007813 -0.761718,0 -1.195312,-0.46875 -1.195312,-1.277344 0,-0.210938 0.01172,-0.304688 0.04687,-0.445313 z m -3.515625,-0.691406 c 0.246094,-0.878906 0.960938,-1.488281 1.734375,-1.488281 0.585938,0 0.960938,0.316406 1.078125,0.890625 0.02344,0.09375 0.02344,0.1875 0.02344,0.28125 0,0.09375 0,0.164062 -0.02344,0.316406 z m 5.185547,-2.085937 -1.066406,5.015625 h 0.808593 l 0.574219,-2.765625 c 0.234375,-1.054688 0.902344,-1.699219 1.769531,-1.699219 0.46875,0 0.832032,0.328125 0.832032,0.773437 0,0.05859 -0.02344,0.1875 -0.05859,0.351563 l -0.714844,3.339844 h 0.808594 l 0.761719,-3.597657 c 0.03516,-0.117187 0.03516,-0.234375 0.03516,-0.363281 0,-0.550781 -0.328125,-1.007812 -0.832031,-1.136719 -0.140625,-0.03516 -0.292969,-0.05859 -0.46875,-0.05859 -0.726563,0 -1.347657,0.257812 -1.851563,0.761718 l 0.128906,-0.621093 z m 8.493164,1.40625 c 0.05859,-0.210938 0.05859,-0.292969 0.05859,-0.421875 0,-0.667969 -0.632813,-1.125 -1.570313,-1.125 -0.667968,0 -1.253906,0.199218 -1.652343,0.574218 -0.351563,0.339844 -0.574219,0.832032 -0.574219,1.277344 0,0.585938 0.339844,0.867188 1.324219,1.125 l 0.703125,0.175781 c 0.316406,0.09375 0.46875,0.152344 0.550781,0.257813 0.07031,0.08203 0.117187,0.222656 0.117187,0.316406 0,0.105469 -0.09375,0.351563 -0.175781,0.46875 -0.152344,0.1875 -0.445312,0.339844 -0.785156,0.410156 -0.128906,0.02344 -0.269531,0.03516 -0.398438,0.03516 -0.574218,0 -0.914062,-0.1875 -1.007812,-0.539063 -0.02344,-0.05859 -0.02344,-0.128906 -0.02344,-0.199219 0,-0.05859 0,-0.140625 0.01172,-0.234375 h -0.84375 c -0.04687,0.210938 -0.05859,0.328125 -0.05859,0.480469 0,0.574219 0.386719,0.996094 1.054688,1.148438 0.234375,0.04687 0.46875,0.08203 0.726562,0.08203 1.417969,0 2.34375,-0.738281 2.34375,-1.875 0,-0.585938 -0.316406,-0.890625 -1.148437,-1.101563 l -0.726563,-0.1875 c -0.457031,-0.105468 -0.726562,-0.257812 -0.796875,-0.457031 -0.01172,-0.02344 -0.02344,-0.05859 -0.02344,-0.105469 0,-0.199218 0.117187,-0.433593 0.292969,-0.597656 0.222656,-0.222656 0.515625,-0.316406 0.9375,-0.316406 0.445312,0 0.726562,0.128906 0.832031,0.386719 0.03516,0.05859 0.04687,0.117187 0.04687,0.210937 0,0.04687 0,0.128906 -0.01172,0.210938 z m 3.536133,-1.546875 c -1.441406,0 -2.402344,0.925781 -2.800781,2.683593 -0.05859,0.316407 -0.105469,0.621094 -0.105469,0.902344 0,1.066406 0.738281,1.792969 1.816406,1.792969 0.914063,0 1.640625,-0.375 2.179688,-1.113281 0.433593,-0.597657 0.75,-1.640625 0.75,-2.472657 0,-0.714843 -0.375,-1.359375 -0.960938,-1.617187 -0.257812,-0.117188 -0.527344,-0.175781 -0.878906,-0.175781 z m -0.117188,0.738281 c 0.480469,0 0.878907,0.246094 1.019532,0.644531 0.07031,0.175781 0.09375,0.363281 0.09375,0.585938 0,1.089843 -0.503907,2.132812 -1.21875,2.496093 -0.234375,0.117188 -0.457032,0.175782 -0.738282,0.175782 -0.46875,0 -0.84375,-0.234375 -0.996093,-0.644532 -0.07031,-0.1875 -0.105469,-0.386718 -0.105469,-0.597656 0,-0.445312 0.105469,-0.9375 0.292969,-1.382812 0.210937,-0.527344 0.515625,-0.890625 0.9375,-1.101563 0.234375,-0.117187 0.457031,-0.175781 0.714843,-0.175781 z m 3.489258,-0.597656 -1.066406,5.015625 h 0.808594 l 0.550781,-2.601563 c 0.246094,-1.125 0.878906,-1.710937 1.886719,-1.710937 h 0.09375 l 0.175781,-0.808594 -0.05859,-0.01172 c -0.08203,-0.01172 -0.164062,-0.02344 -0.246094,-0.02344 -0.5625,0 -0.984375,0.246093 -1.582031,0.925781 l 0.164063,-0.785156 z m 7.201172,2.4375 h -4.828125 l -0.140625,0.691406 h 4.828125 z m 2.630859,-0.597657 c 0.199219,-0.02344 0.304688,-0.02344 0.433594,-0.02344 0.726563,0 1.171875,0.269531 1.242188,0.761719 0.01172,0.03516 0.01172,0.08203 0.01172,0.128906 0,1.054687 -0.75,1.792969 -1.816406,1.792969 -0.644531,0 -1.054687,-0.316407 -1.125,-0.855469 0,-0.04687 0,-0.08203 0,-0.128906 0,-0.140625 0,-0.257813 0.04687,-0.503907 h -0.84375 c -0.03516,0.292969 -0.04687,0.433594 -0.04687,0.597657 0,1.054687 0.644531,1.628906 1.828125,1.628906 0.867188,0 1.59375,-0.304688 2.085938,-0.84375 0.433593,-0.480469 0.714843,-1.171875 0.714843,-1.804688 0,-0.5625 -0.199218,-0.878906 -0.738281,-1.148437 0.808594,-0.46875 1.171875,-1.054688 1.171875,-1.910156 0,-0.632813 -0.375,-1.136719 -0.996094,-1.324219 -0.222656,-0.07031 -0.46875,-0.105469 -0.726562,-0.105469 -0.796875,0 -1.476563,0.292969 -1.945313,0.820313 -0.28125,0.328125 -0.445312,0.703125 -0.644531,1.40625 h 0.84375 c 0.1875,-0.832032 0.492188,-1.21875 1.078125,-1.417969 0.164063,-0.04687 0.351563,-0.07031 0.539063,-0.07031 0.632812,0 1.007812,0.316407 1.007812,0.84375 0,0.375 -0.117187,0.75 -0.316406,0.984375 -0.269531,0.304688 -0.773438,0.457032 -1.476563,0.457032 h -0.175781 z m -33.325195,15.325196 c -1.253906,1.300781 -2.191406,2.988281 -2.519531,4.5 -0.09375,0.445312 -0.140625,0.902343 -0.140625,1.359375 0,1.148437 0.28125,2.320312 0.75,3.152343 h 0.527344 c -0.269532,-0.703125 -0.433594,-1.394531 -0.503907,-2.097656 -0.01172,-0.222656 -0.02344,-0.445312 -0.02344,-0.691406 0,-2.132813 0.832031,-4.253906 2.4375,-6.222656 z m 4.825195,4.734375 c 0.140625,-0.75 0.164063,-0.972657 0.164063,-1.277344 0,-0.925781 -0.785156,-1.640625 -1.828125,-1.640625 -0.832031,0 -1.617188,0.398437 -2.109375,1.03125 -0.445313,0.609375 -0.796875,1.6875 -0.796875,2.472656 0,0.515625 0.222656,1.042969 0.585937,1.394531 0.339844,0.328125 0.761719,0.480469 1.300782,0.480469 1.148437,0 2.132812,-0.714844 2.425781,-1.746094 h -0.796875 c -0.351563,0.667969 -0.855469,1.007813 -1.488281,1.007813 -0.761719,0 -1.195313,-0.46875 -1.195313,-1.277344 0,-0.210937 0.01172,-0.304687 0.04687,-0.445312 z m -3.515625,-0.691407 c 0.246094,-0.878906 0.960938,-1.488281 1.734375,-1.488281 0.585938,0 0.960938,0.316406 1.078125,0.890625 0.02344,0.09375 0.02344,0.1875 0.02344,0.28125 0,0.09375 0,0.164063 -0.02344,0.316406 z m 6.955079,-2.085937 h -0.855469 l 0.292969,-1.371094 h -0.796875 l -0.304688,1.371094 h -0.667969 l -0.140625,0.644531 h 0.679688 l -0.75,3.539063 c -0.02344,0.09375 -0.03516,0.199218 -0.03516,0.292968 0,0.386719 0.164062,0.609375 0.539062,0.714844 0.105469,0.02344 0.210938,0.04687 0.316406,0.04687 0.199219,0 0.480469,-0.03516 0.621094,-0.07031 l 0.152344,-0.703125 c -0.316406,0.08203 -0.339844,0.08203 -0.457031,0.08203 -0.1875,0 -0.304688,-0.07031 -0.339844,-0.1875 -0.01172,-0.03516 -0.01172,-0.04687 -0.01172,-0.07031 0,-0.02344 0.01172,-0.08203 0.02344,-0.128906 l 0.75,-3.515625 h 0.84375 z m 4.426757,1.6875 v -0.140625 c 0.01172,-0.140625 0.02344,-0.246094 0.02344,-0.28125 0,-0.539063 -0.433594,-1.113281 -0.960938,-1.300781 -0.199218,-0.07031 -0.433593,-0.105469 -0.691406,-0.105469 -0.867187,0 -1.640625,0.363281 -2.144531,1.019531 -0.445313,0.585938 -0.773438,1.628906 -0.773438,2.507813 0,0.773437 0.421875,1.476562 1.019532,1.710937 0.210937,0.09375 0.480468,0.140625 0.773437,0.140625 0.785156,0 1.441406,-0.28125 1.875,-0.796875 0.257813,-0.28125 0.410156,-0.609375 0.5625,-1.148437 h -0.808594 c -0.28125,0.785156 -0.808593,1.207031 -1.5,1.207031 -0.398437,0 -0.75,-0.1875 -0.902343,-0.492188 -0.117188,-0.210937 -0.175782,-0.457031 -0.175782,-0.726562 0,-0.609375 0.199219,-1.335938 0.515625,-1.828125 0.363282,-0.574219 0.832032,-0.855469 1.417969,-0.855469 0.480469,0 0.808594,0.199219 0.925781,0.574219 0.02344,0.105469 0.04687,0.199219 0.04687,0.304687 0,0.05859 0,0.128907 -0.01172,0.210938 z m 1.546875,2.34375 h -0.996093 l -0.210938,0.984375 h 0.996094 z m 1.075196,3.023437 c 1.230468,-1.289062 2.191406,-3 2.507812,-4.5 0.09375,-0.445312 0.140625,-0.9375 0.140625,-1.429687 0,-1.089844 -0.28125,-2.285156 -0.738281,-3.082031 h -0.527344 c 0.363281,0.9375 0.527344,1.828125 0.527344,2.847656 0,2.074219 -0.84375,4.207031 -2.4375,6.164062 z m 0,0"
         style="fill:#000000;fill-opacity:1;fill-rule:nonzero;stroke:none" />
    </g>
    <path
       id="path32"
       d="m 3123.13,6437.47 c 0,0 0,0 42.49,-63.74 42.49,-63.73 127.48,-191.21 297.44,-254.94 169.97,-63.74 424.92,-63.74 552.39,-63.74 127.48,0 127.48,0 127.48,0"
       style="fill:none;stroke:#000000;stroke-width:7.96717;stroke-linecap:butt;stroke-linejoin:miter;stroke-miterlimit:10;stroke-dasharray:63.7374, 63.7374;stroke-dashoffset:0;stroke-opacity:1"
       transform="matrix(0.13333333,0,0,-0.13333333,0,1056)" />
    <path
       id="path33"
       d="m 4063.26,6074.97 79.67,-19.92 -79.67,-19.92"
       style="fill:none;stroke:#000000;stroke-width:7.96717;stroke-linecap:butt;stroke-linejoin:miter;stroke-miterlimit:10;stroke-dasharray:63.7374, 63.7374;stroke-dashoffset:0;stroke-opacity:1"
       transform="matrix(0.13333333,0,0,-0.13333333,0,1056)" />
    <path
       id="path34"
       d="m 3123.13,5608.89 c 0,0 0,0 21.25,-95.61 21.24,-95.6 63.73,-286.82 116.85,-414.29 53.11,-127.47 116.85,-191.21 254.95,-223.08 138.09,-31.87 350.55,-31.87 456.78,-31.87 106.23,0 106.23,0 106.23,0"
       style="fill:none;stroke:#000000;stroke-width:7.96717;stroke-linecap:butt;stroke-linejoin:miter;stroke-miterlimit:10;stroke-dasharray:63.7374, 63.7374;stroke-dashoffset:0;stroke-opacity:1"
       transform="matrix(0.13333333,0,0,-0.13333333,0,1056)" />
    <path
       id="path35"
       d="m 3999.52,4863.96 79.67,-19.92 -79.67,-19.92"
       style="fill:none;stroke:#000000;stroke-width:7.96717;stroke-linecap:butt;stroke-linejoin:miter;stroke-miterlimit:10;stroke-dasharray:63.7374, 63.7374;stroke-dashoffset:0;stroke-opacity:1"
       transform="matrix(0.13333333,0,0,-0.13333333,0,1056)" />
    <path
       id="path36"
       d="m 1720.91,6118.79 c 0,0 0,0 63.73,-84.99 63.74,-84.98 191.22,-254.94 382.43,-339.93 191.21,-84.98 446.16,-84.98 573.64,-84.98 127.47,0 127.47,0 127.47,0"
       style="fill:none;stroke:#000000;stroke-width:7.96717;stroke-linecap:butt;stroke-linejoin:miter;stroke-miterlimit:10;stroke-dasharray:none;stroke-opacity:1"
       transform="matrix(0.13333333,0,0,-0.13333333,0,1056)" />
    <path
       id="path37"
       d="m 2788.51,5628.8 79.67,-19.91 -79.67,-19.92"
       style="fill:none;stroke:#000000;stroke-width:7.96717;stroke-linecap:butt;stroke-linejoin:miter;stroke-miterlimit:10;stroke-dasharray:none;stroke-opacity:1"
       transform="matrix(0.13333333,0,0,-0.13333333,0,1056)" />
    <path
       id="path38"
       d="m 1720.91,6118.79 c 0,0 0,0 84.98,53.11 84.99,53.12 254.95,159.35 446.16,212.46 191.22,53.11 403.67,53.11 509.9,53.11 106.23,0 106.23,0 106.23,0"
       style="fill:none;stroke:#000000;stroke-width:7.96717;stroke-linecap:butt;stroke-linejoin:miter;stroke-miterlimit:10;stroke-dasharray:none;stroke-opacity:1"
       transform="matrix(0.13333333,0,0,-0.13333333,0,1056)" />
    <path
       id="path39"
       d="m 2788.51,6457.39 79.67,-19.92 -79.67,-19.92"
       style="fill:none;stroke:#000000;stroke-width:7.96717;stroke-linecap:butt;stroke-linejoin:miter;stroke-miterlimit:10;stroke-dasharray:none;stroke-opacity:1"
       transform="matrix(0.13333333,0,0,-0.13333333,0,1056)" />
  </g>
</svg>
