<?xml version="1.0" encoding="UTF-8" standalone="no"?>
<!-- Created with Inkscape (http://www.inkscape.org/) -->

<svg
   version="1.1"
   id="svg1"
   width="502.46255"
   height="320.64172"
   viewBox="0 0 502.46255 320.64172"
   xmlns="http://www.w3.org/2000/svg"
   xmlns:svg="http://www.w3.org/2000/svg">
  <defs
     id="defs1" />
  <g
     id="g1"
     transform="translate(-101.44859,-18.674215)">
    <path
       id="path1"
       d="m 2.5185859,-2.9053906 h 2.0859375 c 1.5,0 2.4609375,-1.0546875 2.4609375,-2.7070313 0,-1.6289062 -0.9257812,-2.5195312 -2.625,-2.5195312 H 0.84280469 V 8.59375e-4 H 2.5185859 Z m 0,-1.3945313 v -2.4375 h 1.5585938 c 0.9023437,0 1.3125,0.3867188 1.3125,1.21875 0,0.8320313 -0.4101563,1.21875 -1.3125,1.21875 z m 5.625,-1.7226562 V 8.59375e-4 H 9.7021797 V -3.1983594 c 0,-0.9140625 0.4570313,-1.3710937 1.3710933,-1.3710937 0.175782,0 0.28125,0.011719 0.492188,0.035156 v -1.5820312 c -0.08203,-0.011719 -0.117188,-0.011719 -0.1875,-0.011719 -0.714844,0 -1.324219,0.46875 -1.6757813,1.2890625 v -1.1835937 z m 6.9990231,-0.1054688 c -1.851562,0 -2.976562,1.21875 -2.976562,3.1992188 0,1.98046873 1.125,3.18749998 2.988281,3.18749998 1.839844,0 2.976563,-1.20703125 2.976563,-3.15234378 0,-2.0390625 -1.113282,-3.234375 -2.988282,-3.234375 z m 0.01172,1.265625 c 0.855469,0 1.40625,0.7734375 1.40625,1.9570313 0,1.125 -0.574219,1.8984375 -1.40625,1.8984375 -0.855469,0 -1.417969,-0.7617188 -1.417969,-1.921875 0,-1.1601563 0.5625,-1.9335938 1.417969,-1.9335938 z M 23.11722,8.59375e-4 h 1.558594 V -8.1319531 H 23.11722 v 2.8945312 c -0.398438,-0.609375 -0.914063,-0.890625 -1.664063,-0.890625 -1.441406,0 -2.53125,1.3828125 -2.53125,3.2109375 0,0.8085938 0.246094,1.640625 0.644532,2.21484378 0.410156,0.5859375 1.148437,0.9609375 1.886718,0.9609375 0.75,0 1.265625,-0.26953125 1.664063,-0.8671875 z M 21.793,-4.8155469 c 0.796875,0 1.324219,0.75 1.324219,1.9101563 0,1.1015625 -0.539063,1.8632812 -1.324219,1.8632812 -0.773437,0 -1.3125,-0.7734375 -1.3125,-1.875 0,-1.1367187 0.539063,-1.8984375 1.3125,-1.8984375 z M 31.443391,8.59375e-4 V -6.0225781 h -1.558594 v 3.7734375 c 0,0.7148437 -0.492188,1.1835937 -1.265625,1.1835937 -0.667969,0 -1.007813,-0.3632812 -1.007813,-1.0898437 v -3.8671875 h -1.558593 v 4.1953125 c 0,1.33593748 0.726562,2.08593748 2.027343,2.08593748 0.808594,0 1.359375,-0.29296875 1.804688,-0.97265625 V 8.59375e-4 Z M 38.046906,-3.7725781 c -0.117187,-1.4648438 -1.078125,-2.3554688 -2.601562,-2.3554688 -1.804688,0 -2.847656,1.1835938 -2.847656,3.234375 0,1.99218753 1.042968,3.15234378 2.824218,3.15234378 1.464844,0 2.484375,-0.90234375 2.625,-2.34374998 h -1.5 c -0.1875,0.7851562 -0.492187,1.078125 -1.125,1.078125 -0.785156,0 -1.253906,-0.703125 -1.253906,-1.8867188 0,-0.5742187 0.105469,-1.1015625 0.292969,-1.453125 0.1875,-0.3398437 0.527344,-0.515625 0.972656,-0.515625 0.632813,0 0.9375,0.3046875 1.113281,1.0898438 z m 3.741211,-2.1328125 h -0.878906 v -1.6171875 h -1.558594 v 1.6171875 H 38.57718 v 1.0429687 h 0.773437 v 3.703125 c 0,0.94921878 0.503906,1.41796878 1.523438,1.41796878 0.363281,0 0.621093,-0.0351563 0.914062,-0.12890625 v -1.08984375 c -0.164062,0.0234375 -0.234375,0.0351563 -0.363281,0.0351563 -0.410156,0 -0.515625,-0.11718748 -0.515625,-0.65625008 v -3.28125 h 0.878906 z m 2.660156,-0.1171875 H 42.88968 V 8.59375e-4 h 1.558593 z m 0,-2.109375 H 42.88968 v 1.3945312 h 1.558593 z m 4.154297,2.0039062 c -1.851562,0 -2.976562,1.21875 -2.976562,3.1992188 0,1.98046873 1.125,3.18749998 2.988281,3.18749998 1.839844,0 2.976563,-1.20703125 2.976563,-3.15234378 0,-2.0390625 -1.113282,-3.234375 -2.988282,-3.234375 z m 0.01172,1.265625 c 0.855469,0 1.40625,0.7734375 1.40625,1.9570313 0,1.125 -0.574219,1.8984375 -1.40625,1.8984375 -0.855469,0 -1.417969,-0.7617188 -1.417969,-1.921875 0,-1.1601563 0.5625,-1.9335938 1.417969,-1.9335938 z m 4.145508,-1.1601562 V 8.59375e-4 h 1.558594 V -3.6085156 c 0,-0.7148438 0.492187,-1.1835938 1.265625,-1.1835938 0.667968,0 1.007812,0.3632813 1.007812,1.078125 V 8.59375e-4 h 1.558594 V -4.0421094 c 0,-1.3359375 -0.726563,-2.0859375 -2.027344,-2.0859375 -0.808594,0 -1.359375,0.2929688 -1.804687,0.9726563 v -0.8671875 z m 11.625,-0.3164063 1.453125,6.339843775 h 1.675781 L 68.955109,-6.3389844 V 8.59375e-4 h 1.675782 V -8.1319531 h -2.519532 l -1.429687,6.46875 -1.476563,-6.46875 H 62.709016 V 8.59375e-4 h 1.675781 z m 12.726562,3.8203125 c 0.01172,-0.140625 0.01172,-0.1875 0.01172,-0.2695312 0,-0.5976563 -0.09375,-1.1601563 -0.234375,-1.5820313 -0.398437,-1.0898437 -1.371094,-1.7578125 -2.589844,-1.7578125 -1.734375,0 -2.789062,1.2539063 -2.789062,3.2695313 0,1.93359373 1.042969,3.11718748 2.753906,3.11718748 1.347656,0 2.449219,-0.76171875 2.789063,-1.95703128 h -1.535157 c -0.1875,0.4804688 -0.632812,0.76171878 -1.195312,0.76171878 -0.445313,0 -0.808594,-0.18749998 -1.03125,-0.52734378 -0.140625,-0.2226562 -0.199219,-0.4921875 -0.222656,-1.0546875 z m -4.019531,-1.0429687 c 0.105469,-0.9257813 0.492188,-1.3710938 1.183594,-1.3710938 0.714844,0 1.136719,0.4804688 1.21875,1.3710938 z M 78.13382,-6.0225781 V 8.59375e-4 h 1.558594 V -3.6085156 c 0,-0.75 0.410156,-1.1835938 1.078125,-1.1835938 0.527344,0 0.84375,0.2929688 0.84375,0.7734375 V 8.59375e-4 h 1.558594 V -3.6085156 c 0,-0.7382813 0.410156,-1.1835938 1.078125,-1.1835938 0.527344,0 0.84375,0.2929688 0.84375,0.7734375 V 8.59375e-4 h 1.558594 V -4.2647656 c 0,-1.171875 -0.703125,-1.8632813 -1.910157,-1.8632813 -0.773437,0 -1.300781,0.2695313 -1.769531,0.9023438 -0.28125,-0.5742188 -0.890625,-0.9023438 -1.640625,-0.9023438 -0.691406,0 -1.136719,0.2226563 -1.652344,0.8554688 v -0.75 z m 12.609375,-0.1054688 c -1.851562,0 -2.976562,1.21875 -2.976562,3.1992188 0,1.98046873 1.125,3.18749998 2.988281,3.18749998 1.839844,0 2.976563,-1.20703125 2.976563,-3.15234378 0,-2.0390625 -1.113282,-3.234375 -2.988282,-3.234375 z m 0.01172,1.265625 c 0.855469,0 1.40625,0.7734375 1.40625,1.9570313 0,1.125 -0.574219,1.8984375 -1.40625,1.8984375 -0.855469,0 -1.417969,-0.7617188 -1.417969,-1.921875 0,-1.1601563 0.5625,-1.9335938 1.417969,-1.9335938 z m 4.142578,-1.1601562 V 8.59375e-4 h 1.558594 V -3.1983594 c 0,-0.9140625 0.457031,-1.3710937 1.371094,-1.3710937 0.175781,0 0.28125,0.011719 0.492187,0.035156 v -1.5820312 c -0.08203,-0.011719 -0.117187,-0.011719 -0.1875,-0.011719 -0.714844,0 -1.324219,0.46875 -1.675781,1.2890625 v -1.1835937 z m 8.030277,0 -1.25391,4.3828125 -1.32422,-4.3828125 h -1.710936 l 2.238276,6.26953123 c 0,0.62109375 -0.38671,1.04296877 -0.972651,1.04296877 -0.117187,0 -0.222656,-0.011719 -0.410156,-0.058594 v 1.171875 c 0.234375,0.035156 0.363281,0.035156 0.550777,0.035156 0.41016,0 0.85547,-0.070312 1.13672,-0.1875 0.4336,-0.1757813 0.6211,-0.421875 0.87891,-1.1484375 l 2.47265,-7.125 z m 0,0"
       style="fill:#000000;fill-opacity:1;fill-rule:nonzero;stroke:none"
       aria-label="Production Memory"
       transform="matrix(1.3333333,0,0,1.3333333,288.94267,55.006667)" />
    <path
       id="path2"
       d="m 3378.08,7521.01 c 0,140.8 -313.9,254.95 -701.11,254.95 -387.21,0 -701.11,-114.15 -701.11,-254.95 0,-140.8 313.9,-254.95 701.11,-254.95 387.21,0 701.11,114.15 701.11,254.95"
       style="fill:none;stroke:#000000;stroke-width:7.96717;stroke-linecap:butt;stroke-linejoin:miter;stroke-miterlimit:10;stroke-dasharray:none;stroke-opacity:1"
       transform="matrix(0.13333333,0,0,-0.13333333,0,1056)" />
    <path
       id="path3"
       d="m 4525.35,6055.05 c 0,140.8 -313.9,254.95 -701.11,254.95 -387.21,0 -701.11,-114.15 -701.11,-254.95 0,-140.8 313.9,-254.95 701.11,-254.95 387.21,0 701.11,114.15 701.11,254.95"
       style="fill:none;stroke:#000000;stroke-width:7.96717;stroke-linecap:butt;stroke-linejoin:miter;stroke-miterlimit:10;stroke-dasharray:none;stroke-opacity:1"
       transform="matrix(0.13333333,0,0,-0.13333333,0,1056)" />
    <path
       id="path4"
       d="m 2167.07,6055.05 c 0,140.8 -313.9,254.95 -701.11,254.95 -387.21,0 -701.112,-114.15 -701.112,-254.95 0,-140.8 313.902,-254.95 701.112,-254.95 387.21,0 701.11,114.15 701.11,254.95"
       style="fill:none;stroke:#000000;stroke-width:7.96717;stroke-linecap:butt;stroke-linejoin:miter;stroke-miterlimit:10;stroke-dasharray:none;stroke-opacity:1"
       transform="matrix(0.13333333,0,0,-0.13333333,0,1056)" />
    <path
       id="path5"
       d="m 2.5181484,-2.9056875 h 2.0859375 c 1.5,0 2.4609375,-1.0546875 2.4609375,-2.7070313 0,-1.6289062 -0.9257812,-2.5195312 -2.625,-2.5195312 H 0.84236719 V 5.625e-4 H 2.5181484 Z m 0,-1.3945313 v -2.4375 h 1.5585938 c 0.9023437,0 1.3125,0.3867188 1.3125,1.21875 0,0.8320313 -0.4101563,1.21875 -1.3125,1.21875 z m 5.625,-1.7226562 V 5.625e-4 h 1.5585938 v -3.1992188 c 0,-0.9140625 0.4570308,-1.3710937 1.3710938,-1.3710937 0.175781,0 0.28125,0.011719 0.492187,0.035156 v -1.582031 c -0.08203,-0.011719 -0.117187,-0.011719 -0.1875,-0.011719 -0.714843,0 -1.324218,0.46875 -1.6757808,1.2890625 V -6.022875 Z m 9.4833986,3.5039062 c 0.01172,-0.140625 0.01172,-0.1875 0.01172,-0.2695312 0,-0.5976563 -0.09375,-1.1601563 -0.234375,-1.5820313 -0.398438,-1.0898437 -1.371094,-1.7578125 -2.589844,-1.7578125 -1.734375,0 -2.789063,1.2539063 -2.789063,3.2695313 0,1.93359375 1.042969,3.1171875 2.753907,3.1171875 1.347656,0 2.449218,-0.76171875 2.789062,-1.9570313 h -1.535156 c -0.1875,0.4804688 -0.632813,0.7617188 -1.195313,0.7617188 -0.445312,0 -0.808593,-0.1875 -1.03125,-0.5273438 -0.140625,-0.2226562 -0.199218,-0.4921875 -0.222656,-1.0546875 z m -4.019531,-1.0429687 c 0.105468,-0.9257813 0.492187,-1.3710938 1.183593,-1.3710938 0.714844,0 1.136719,0.4804688 1.21875,1.3710938 z m 7.866211,-2.34375 H 20.547445 V -6.491625 c 0,-0.3164063 0.128907,-0.46875 0.421875,-0.46875 0.152344,0 0.292969,0.011719 0.445313,0.035156 v -1.171875 c -0.328125,-0.023437 -0.65625,-0.035156 -0.890625,-0.035156 -1.03125,0 -1.535156,0.4921875 -1.535156,1.5117187 v 0.7148438 h -0.855469 v 1.0429687 h 0.855469 V 5.625e-4 h 1.558593 v -4.8632813 h 0.925782 z m 6.070312,3.3867187 c 0.01172,-0.140625 0.01172,-0.1875 0.01172,-0.2695312 0,-0.5976563 -0.09375,-1.1601563 -0.234375,-1.5820313 -0.398438,-1.0898437 -1.371094,-1.7578125 -2.589844,-1.7578125 -1.734375,0 -2.789062,1.2539063 -2.789062,3.2695313 0,1.93359375 1.042968,3.1171875 2.753906,3.1171875 1.347656,0 2.449219,-0.76171875 2.789062,-1.9570313 H 25.94979 c -0.1875,0.4804688 -0.632812,0.7617188 -1.195312,0.7617188 -0.445313,0 -0.808594,-0.1875 -1.03125,-0.5273438 -0.140625,-0.2226562 -0.199219,-0.4921875 -0.222657,-1.0546875 z m -4.019531,-1.0429687 c 0.105469,-0.9257813 0.492187,-1.3710938 1.183594,-1.3710938 0.714843,0 1.136718,0.4804688 1.21875,1.3710938 z M 28.598227,-6.022875 V 5.625e-4 h 1.558593 v -3.1992188 c 0,-0.9140625 0.457032,-1.3710937 1.371094,-1.3710937 0.175781,0 0.28125,0.011719 0.492188,0.035156 v -1.582031 c -0.08203,-0.011719 -0.117188,-0.011719 -0.1875,-0.011719 -0.714844,0 -1.324219,0.46875 -1.675782,1.2890625 V -6.022875 Z m 9.483398,3.5039062 c 0.01172,-0.140625 0.01172,-0.1875 0.01172,-0.2695312 0,-0.5976563 -0.09375,-1.1601563 -0.234375,-1.5820313 -0.398438,-1.0898437 -1.371094,-1.7578125 -2.589844,-1.7578125 -1.734375,0 -2.789062,1.2539063 -2.789062,3.2695313 0,1.93359375 1.042968,3.1171875 2.753906,3.1171875 1.347656,0 2.449219,-0.76171875 2.789062,-1.9570313 h -1.535156 c -0.1875,0.4804688 -0.632812,0.7617188 -1.195312,0.7617188 -0.445313,0 -0.808594,-0.1875 -1.03125,-0.5273438 -0.140625,-0.2226562 -0.199219,-0.4921875 -0.222657,-1.0546875 z m -4.019531,-1.0429687 c 0.105469,-0.9257813 0.492187,-1.3710938 1.183594,-1.3710938 0.714843,0 1.136718,0.4804688 1.21875,1.3710938 z M 39.139242,-6.022875 V 5.625e-4 h 1.558594 v -3.609375 c 0,-0.7148438 0.492187,-1.1835938 1.265625,-1.1835938 0.667969,0 1.007812,0.3632813 1.007812,1.078125 V 5.625e-4 h 1.558594 v -4.0429688 c 0,-1.3359375 -0.726562,-2.0859375 -2.027344,-2.0859375 -0.808593,0 -1.359375,0.2929688 -1.804687,0.9726563 V -6.022875 Z m 11.935547,2.25 c -0.117187,-1.4648438 -1.078125,-2.3554688 -2.601562,-2.3554688 -1.804688,0 -2.847657,1.1835938 -2.847657,3.234375 0,1.99218755 1.042969,3.1523438 2.824219,3.1523438 1.464844,0 2.484375,-0.90234375 2.625,-2.34375 h -1.5 c -0.1875,0.7851562 -0.492187,1.078125 -1.125,1.078125 -0.785156,0 -1.253906,-0.703125 -1.253906,-1.8867188 0,-0.5742187 0.105469,-1.1015625 0.292969,-1.453125 0.1875,-0.3398437 0.527343,-0.515625 0.972656,-0.515625 0.632812,0 0.9375,0.3046875 1.113281,1.0898438 z m 6.225586,1.2539062 c 0.01172,-0.140625 0.01172,-0.1875 0.01172,-0.2695312 0,-0.5976563 -0.09375,-1.1601563 -0.234375,-1.5820313 -0.398438,-1.0898437 -1.371094,-1.7578125 -2.589844,-1.7578125 -1.734375,0 -2.789062,1.2539063 -2.789062,3.2695313 0,1.93359375 1.042968,3.1171875 2.753906,3.1171875 1.347656,0 2.449219,-0.76171875 2.789062,-1.9570313 h -1.535156 c -0.1875,0.4804688 -0.632812,0.7617188 -1.195312,0.7617188 -0.445313,0 -0.808594,-0.1875 -1.03125,-0.5273438 -0.140625,-0.2226562 -0.199219,-0.4921875 -0.222657,-1.0546875 z m -4.019531,-1.0429687 c 0.105469,-0.9257813 0.492187,-1.3710938 1.183594,-1.3710938 0.714843,0 1.136718,0.4804688 1.21875,1.3710938 z m 9.887695,-2.7773438 1.453125,6.3398438 h 1.675781 l 1.441407,-6.3398438 V 5.625e-4 h 1.675781 V -8.13225 H 66.895102 L 65.465414,-1.6635 63.988852,-8.13225 H 61.492758 V 5.625e-4 h 1.675781 z m 12.726563,3.8203125 c 0.01172,-0.140625 0.01172,-0.1875 0.01172,-0.2695312 0,-0.5976563 -0.09375,-1.1601563 -0.234375,-1.5820313 -0.398437,-1.0898437 -1.371093,-1.7578125 -2.589843,-1.7578125 -1.734375,0 -2.789063,1.2539063 -2.789063,3.2695313 0,1.93359375 1.042969,3.1171875 2.753906,3.1171875 1.347657,0 2.449219,-0.76171875 2.789063,-1.9570313 h -1.535156 c -0.1875,0.4804688 -0.632813,0.7617188 -1.195313,0.7617188 -0.445312,0 -0.808594,-0.1875 -1.03125,-0.5273438 -0.140625,-0.2226562 -0.199219,-0.4921875 -0.222656,-1.0546875 z M 71.87557,-3.5619375 c 0.105469,-0.9257813 0.492188,-1.3710938 1.183594,-1.3710938 0.714844,0 1.136719,0.4804688 1.21875,1.3710938 z M 76.917563,-6.022875 V 5.625e-4 h 1.558593 v -3.609375 c 0,-0.75 0.410157,-1.1835938 1.078125,-1.1835938 0.527344,0 0.84375,0.2929688 0.84375,0.7734375 V 5.625e-4 h 1.558594 v -3.609375 c 0,-0.7382813 0.410156,-1.1835938 1.078125,-1.1835938 0.527344,0 0.84375,0.2929688 0.84375,0.7734375 V 5.625e-4 h 1.558594 v -4.265625 c 0,-1.171875 -0.703125,-1.8632813 -1.910156,-1.8632813 -0.773438,0 -1.300782,0.2695313 -1.769532,0.9023438 -0.28125,-0.5742188 -0.890625,-0.9023438 -1.640625,-0.9023438 -0.691406,0 -1.136718,0.2226563 -1.652343,0.8554688 v -0.75 z m 12.609375,-0.1054688 c -1.851563,0 -2.976563,1.21875 -2.976563,3.1992188 0,1.98046875 1.125,3.1875 2.988281,3.1875 1.839844,0 2.976563,-1.20703125 2.976563,-3.1523438 0,-2.0390625 -1.113281,-3.234375 -2.988281,-3.234375 z m 0.01172,1.265625 c 0.855469,0 1.40625,0.7734375 1.40625,1.9570313 0,1.125 -0.574218,1.8984375 -1.40625,1.8984375 -0.855468,0 -1.417968,-0.7617188 -1.417968,-1.921875 0,-1.1601563 0.5625,-1.9335938 1.417968,-1.9335938 z M 93.684164,-6.022875 V 5.625e-4 h 1.558594 v -3.1992188 c 0,-0.9140625 0.457031,-1.3710937 1.371094,-1.3710937 0.175781,0 0.28125,0.011719 0.492187,0.035156 v -1.582031 c -0.08203,-0.011719 -0.117187,-0.011719 -0.1875,-0.011719 -0.714844,0 -1.324219,0.46875 -1.675781,1.2890625 V -6.022875 Z m 8.030276,0 -1.25391,4.3828125 -1.324217,-4.3828125 h -1.710938 l 2.238281,6.26953125 c 0,0.62109375 -0.386718,1.04296875 -0.972656,1.04296875 -0.117187,0 -0.222656,-0.011719 -0.410156,-0.058594 v 1.171875 c 0.234375,0.035156 0.363281,0.035156 0.550781,0.035156 0.410156,0 0.855469,-0.070312 1.136719,-0.1875 0.433596,-0.1757813 0.621096,-0.421875 0.878906,-1.1484375 l 2.47266,-7.125 z m -323.02442,6.0234375 2.25,-8.1328125 h -1.76953 l -1.21875,6.1054687 -1.3125,-6.1054687 h -1.65234 l -1.26563,6.09375 -1.2539,-6.09375 h -1.78125 l 2.29687,8.1328125 h 1.51172 l 1.32422,-6.3515625 1.35937,6.3515625 z m 5.74805,-6.1289063 c -1.85156,0 -2.97656,1.21875 -2.97656,3.1992188 0,1.98046875 1.125,3.1875 2.98828,3.1875 1.83984,0 2.97656,-1.20703125 2.97656,-3.1523438 0,-2.0390625 -1.11328,-3.234375 -2.98828,-3.234375 z m 0.0117,1.265625 c 0.85547,0 1.40625,0.7734375 1.40625,1.9570313 0,1.125 -0.57422,1.8984375 -1.40625,1.8984375 -0.85547,0 -1.41797,-0.7617188 -1.41797,-1.921875 0,-1.1601563 0.5625,-1.9335938 1.41797,-1.9335938 z m 4.14551,-1.1601562 V 5.625e-4 h 1.55859 v -3.1992188 c 0,-0.9140625 0.45703,-1.3710937 1.37109,-1.3710937 0.17579,0 0.28125,0.011719 0.49219,0.035156 v -1.582031 c -0.082,-0.011719 -0.11719,-0.011719 -0.1875,-0.011719 -0.71484,0 -1.32422,0.46875 -1.67578,1.2890625 V -6.022875 Z m 5.85058,2.34375 V -8.13225 h -1.55859 V 5.625e-4 h 1.55859 v -1.9804688 l 0.63282,-0.6796875 1.4414,2.6601563 h 1.82813 l -2.20313,-3.75 2.05078,-2.2734375 h -1.76953 z m 6.29297,-2.34375 h -1.55859 V 5.625e-4 h 1.55859 z m 0,-2.109375 h -1.55859 v 1.3945312 h 1.55859 z m 1.49707,2.109375 V 5.625e-4 h 1.5586 v -3.609375 c 0,-0.7148438 0.49218,-1.1835938 1.26562,-1.1835938 0.66797,0 1.00781,0.3632813 1.00781,1.078125 V 5.625e-4 h 1.5586 v -4.0429688 c 0,-1.3359375 -0.72657,-2.0859375 -2.02735,-2.0859375 -0.80859,0 -1.35937,0.2929688 -1.80468,0.9726563 V -6.022875 Z m 10.57617,0 v 0.9257812 c -0.43359,-0.703125 -0.91406,-1.03125 -1.55859,-1.03125 -0.52734,0 -1.125,0.2695313 -1.53516,0.703125 -0.59765,0.6328125 -0.91406,1.5 -0.91406,2.5546875 0,1.8515625 0.98438,3.1289063 2.42578,3.1289063 0.64453,0 1.03125,-0.2109375 1.58203,-0.8671875 v 0.80859375 c 0,0.7265625 -0.51562,1.23046875 -1.2539,1.23046875 -0.55078,0 -0.90235,-0.2460938 -1.01953,-0.703125 h -1.60547 c 0,0.46875 0.17578,0.7851562 0.58594,1.125 0.48046,0.3867187 1.13671,0.5859375 1.98046,0.5859375 1.7461,0 2.78907,-0.84375 2.78907,-2.23828125 V -6.022875 Z m -1.26562,1.2070312 c 0.73828,0 1.28906,0.8085938 1.28906,1.921875 0,1.1015625 -0.52734,1.8515625 -1.3125,1.8515625 -0.67969,0 -1.16015,-0.75 -1.16015,-1.8515625 0,-1.1367187 0.48046,-1.921875 1.18359,-1.921875 z m 9.13183,-1.5234375 1.45313,6.3398438 h 1.67578 l 1.44141,-6.3398438 V 5.625e-4 h 1.67578 V -8.13225 h -2.51953 l -1.42969,6.46875 -1.47656,-6.46875 h -2.4961 V 5.625e-4 h 1.67578 z m 12.72364,3.8203125 c 0.0117,-0.140625 0.0117,-0.1875 0.0117,-0.2695312 0,-0.5976563 -0.0937,-1.1601563 -0.23438,-1.5820313 -0.39844,-1.0898437 -1.37109,-1.7578125 -2.58984,-1.7578125 -1.73438,0 -2.78906,1.2539063 -2.78906,3.2695313 0,1.93359375 1.04296,3.1171875 2.7539,3.1171875 1.34766,0 2.44922,-0.76171875 2.78906,-1.9570313 h -1.53515 c -0.1875,0.4804688 -0.63281,0.7617188 -1.19531,0.7617188 -0.44532,0 -0.8086,-0.1875 -1.03125,-0.5273438 -0.14063,-0.2226562 -0.19922,-0.4921875 -0.22266,-1.0546875 z m -4.01953,-1.0429687 c 0.10547,-0.9257813 0.49218,-1.3710938 1.18359,-1.3710938 0.71484,0 1.13672,0.4804688 1.21875,1.3710938 z m 5.04199,-2.4609375 V 5.625e-4 h 1.55859 v -3.609375 c 0,-0.75 0.41016,-1.1835938 1.07813,-1.1835938 0.52734,0 0.84375,0.2929688 0.84375,0.7734375 V 5.625e-4 h 1.55859 v -3.609375 c 0,-0.7382813 0.41016,-1.1835938 1.07813,-1.1835938 0.52734,0 0.84375,0.2929688 0.84375,0.7734375 V 5.625e-4 h 1.55859 v -4.265625 c 0,-1.171875 -0.70313,-1.8632813 -1.91016,-1.8632813 -0.77343,0 -1.30078,0.2695313 -1.76953,0.9023438 -0.28125,-0.5742188 -0.89062,-0.9023438 -1.64062,-0.9023438 -0.69141,0 -1.13672,0.2226563 -1.65235,0.8554688 v -0.75 z m 12.6123,-0.1054688 c -1.85156,0 -2.97656,1.21875 -2.97656,3.1992188 0,1.98046875 1.125,3.1875 2.98828,3.1875 1.83985,0 2.97656,-1.20703125 2.97656,-3.1523438 0,-2.0390625 -1.11328,-3.234375 -2.98828,-3.234375 z m 0.0117,1.265625 c 0.85547,0 1.40625,0.7734375 1.40625,1.9570313 0,1.125 -0.57422,1.8984375 -1.40625,1.8984375 -0.85547,0 -1.41797,-0.7617188 -1.41797,-1.921875 0,-1.1601563 0.5625,-1.9335938 1.41797,-1.9335938 z M -148.809,-6.022875 V 5.625e-4 h 1.55859 v -3.1992188 c 0,-0.9140625 0.45704,-1.3710937 1.3711,-1.3710937 0.17578,0 0.28125,0.011719 0.49219,0.035156 v -1.582031 c -0.082,-0.011719 -0.11719,-0.011719 -0.1875,-0.011719 -0.71485,0 -1.32422,0.46875 -1.67579,1.2890625 V -6.022875 Z m 8.03027,0 -1.2539,4.3828125 -1.32422,-4.3828125 h -1.71094 l 2.23828,6.26953125 c 0,0.62109375 -0.38672,1.04296875 -0.97265,1.04296875 -0.11719,0 -0.22266,-0.011719 -0.41016,-0.058594 v 1.171875 c 0.23437,0.035156 0.36328,0.035156 0.55078,0.035156 0.41016,0 0.85547,-0.070312 1.13672,-0.1875 0.43359,-0.1757813 0.62109,-0.421875 0.87891,-1.1484375 l 2.47265,-7.125 z m 0,0"
       style="fill:#000000;fill-opacity:1;fill-rule:nonzero;stroke:none"
       aria-label="Preference MemoryWorking Memory"
       transform="matrix(1.3333333,0,0,1.3333333,441.912,250.468)" />
    <path
       id="path6"
       d="m 3569.29,5736.36 c 0,0 0,0 -53.11,-42.49 -53.12,-42.49 -159.34,-127.48 -308.07,-191.21 -148.72,-63.74 -339.93,-106.23 -531.14,-116.85 -191.21,-10.63 -382.42,10.62 -541.77,53.11 -159.34,42.49 -286.82,106.23 -382.42,159.35 -95.61,53.11 -159.35,95.6 -191.21,116.85 -31.87,21.24 -31.87,21.24 -31.87,21.24"
       style="fill:none;stroke:#000000;stroke-width:15.9343;stroke-linecap:butt;stroke-linejoin:miter;stroke-miterlimit:10;stroke-dasharray:none;stroke-opacity:1"
       transform="matrix(0.13333333,0,0,-0.13333333,0,1056)" />
    <path
       id="path7"
       d="m 1584.94,5675.59 -55.24,60.77 77.34,-27.62"
       style="fill:none;stroke:#000000;stroke-width:15.9343;stroke-linecap:butt;stroke-linejoin:miter;stroke-miterlimit:10;stroke-dasharray:none;stroke-opacity:1"
       transform="matrix(0.13333333,0,0,-0.13333333,0,1056)" />
    <path
       id="path8"
       d="m 1211.01,6373.73 c 0,0 0,0 -10.62,42.5 -10.62,42.49 -31.87,127.47 -31.87,212.46 0,84.98 21.25,169.96 63.73,244.32 42.5,74.36 106.23,138.1 180.59,201.84 74.37,63.74 159.35,127.47 244.33,180.59 84.99,53.11 169.97,95.6 212.46,116.85 42.49,21.25 42.49,21.25 42.49,21.25"
       style="fill:none;stroke:#000000;stroke-width:15.9343;stroke-linecap:butt;stroke-linejoin:miter;stroke-miterlimit:10;stroke-dasharray:none;stroke-opacity:1"
       transform="matrix(0.13333333,0,0,-0.13333333,0,1056)" />
    <path
       id="path9"
       d="m 1831.95,7375.72 80.17,17.82 -62.35,-53.45"
       style="fill:none;stroke:#000000;stroke-width:15.9343;stroke-linecap:butt;stroke-linejoin:miter;stroke-miterlimit:10;stroke-dasharray:none;stroke-opacity:1"
       transform="matrix(0.13333333,0,0,-0.13333333,0,1056)" />
    <path
       id="path10"
       d="m 3378.08,7393.54 c 0,0 0,0 31.87,-10.63 31.87,-10.62 95.6,-31.87 169.96,-74.36 74.36,-42.49 159.35,-106.23 233.71,-180.59 74.36,-74.36 138.09,-159.34 180.59,-254.95 42.49,-95.6 63.74,-201.83 53.11,-286.81 -10.62,-84.99 -53.11,-148.73 -74.36,-180.59 -21.25,-31.88 -21.25,-31.88 -21.25,-31.88"
       style="fill:none;stroke:#000000;stroke-width:15.9343;stroke-linecap:butt;stroke-linejoin:miter;stroke-miterlimit:10;stroke-dasharray:none;stroke-opacity:1"
       transform="matrix(0.13333333,0,0,-0.13333333,0,1056)" />
    <path
       id="path11"
       d="m 4012.48,6428.98 -60.77,-55.25 27.63,77.34"
       style="fill:none;stroke:#000000;stroke-width:15.9343;stroke-linecap:butt;stroke-linejoin:miter;stroke-miterlimit:10;stroke-dasharray:none;stroke-opacity:1"
       transform="matrix(0.13333333,0,0,-0.13333333,0,1056)" />
    <path
       id="path12"
       d="m 5.5437422,3.125e-4 3,-6.9023438 L 7.0788984,3.125e-4 H 8.6609297 L 10.383586,-8.1325 H 7.9460859 L 5.1101484,-1.8864063 4.8874922,-8.1325 H 2.4617109 L 0.73905469,3.125e-4 H 2.3210859 l 1.4765625,-6.9023438 0.070312,6.9023438 z m 9.6767578,-1.640625 0.210938,1.640625 h 1.699218 L 16.052531,-8.1325 H 14.118938 L 9.5837813,3.125e-4 H 11.283 l 0.914063,-1.640625 z m -0.152344,-1.3945313 h -2.109375 l 1.722657,-3.1523437 z m 8.006836,-3.703125 H 25.44218 L 25.746867,-8.1325 h -6.515625 l -0.304687,1.3945312 H 21.41093 L 19.969523,3.125e-4 h 1.675782 z m 9.884766,1.359375 c 0.03516,-0.3046875 0.04687,-0.421875 0.04687,-0.5507812 0,-1.0078125 -0.65625,-1.8515625 -1.6875,-2.15625 -0.375,-0.1289063 -0.785156,-0.1757813 -1.21875,-0.1757813 -1.371094,0 -2.566406,0.5859375 -3.480469,1.7109375 -0.773437,0.984375 -1.265625,2.484375 -1.265625,3.9257813 0,1.1835937 0.5625,2.16796875 1.488281,2.578125 0.457032,0.19921875 0.996094,0.3046875 1.582032,0.3046875 2.027343,0 3.515625,-1.125 4.007812,-3.0351563 h -1.59375 c -0.316406,1.03125 -1.113281,1.6054688 -2.179687,1.6054688 -0.714844,0 -1.277344,-0.3164063 -1.476563,-0.8085938 -0.117187,-0.2695312 -0.164062,-0.609375 -0.164062,-0.9609375 0,-0.9257812 0.28125,-1.8984375 0.785156,-2.6835937 0.527344,-0.8203125 1.207031,-1.21875 2.109375,-1.21875 0.609375,0 1.054687,0.2109375 1.289062,0.5976562 0.140625,0.2226563 0.1875,0.4335938 0.1875,0.8671875 z m 5.686523,1.6875 -0.773437,3.6914063 h 1.664062 L 41.271281,-8.1325 h -1.6875 L 38.93925,-5.085625 H 35.728313 L 36.372844,-8.1325 H 34.697063 L 32.974406,3.125e-4 h 1.675782 l 0.773437,-3.6914063 z m 38.8125,167.6484338 -1.171875,5.50782 c -0.210937,1.00781 -0.761718,1.45312 -1.792968,1.45312 -0.855469,0 -1.359375,-0.33984 -1.359375,-0.94922 0,-0.16406 0.02344,-0.3164 0.05859,-0.5039 l 1.171875,-5.50782 H 72.68925 l -1.125,5.28516 c -0.04687,0.23437 -0.08203,0.45703 -0.105469,0.65625 -0.01172,0.12891 -0.02344,0.22266 -0.02344,0.32812 0,0.89063 0.492187,1.57032 1.371094,1.88672 0.445312,0.15235 0.902343,0.23438 1.382812,0.23438 0.984375,0 1.898438,-0.29297 2.578125,-0.83203 0.644531,-0.49219 0.996094,-1.125 1.195313,-2.05078 l 1.171875,-5.50782 z m 3.84668,5.22657 h 2.085937 c 0.878907,0 1.523438,-0.25782 2.121094,-0.90235 0.609375,-0.63281 0.984375,-1.58203 0.984375,-2.4375 0,-0.58594 -0.257812,-1.10156 -0.714844,-1.45312 -0.398437,-0.31641 -0.855468,-0.4336 -1.605468,-0.4336 h -3.433594 l -1.734375,8.13282 h 1.675781 z m 0.292969,-1.39454 0.515625,-2.4375 h 1.722656 c 0.492187,0 0.832031,0.22266 0.949219,0.60938 0.03516,0.0937 0.04687,0.1875 0.04687,0.26953 0,0.33984 -0.117188,0.76172 -0.28125,0.99609 -0.269532,0.38672 -0.65625,0.5625 -1.242188,0.5625 z m 4.860351,4.30079 h 3.1875 c 1.617188,0 2.554688,-0.4336 3.363282,-1.5586 0.808593,-1.10156 1.253906,-2.47265 1.253906,-3.78515 0,-1.95704 -0.878906,-2.78907 -2.894531,-2.78907 h -3.175782 z m 1.980469,-1.39454 1.125,-5.34375 h 1.5 c 0.679688,0 1.136719,0.21094 1.335938,0.59766 0.128906,0.26953 0.199218,0.58594 0.199218,0.91406 0,0.87891 -0.292968,2.02735 -0.667968,2.6836 -0.480469,0.83203 -1.03125,1.14843 -2.003907,1.14843 z m 11.147461,-0.24609 0.210937,1.64063 h 1.699222 l -1.07813,-8.13282 h -1.933592 l -4.535156,8.13282 h 1.699219 l 0.914062,-1.64063 z M 99.434367,169.055 h -2.109375 l 1.722656,-3.15234 z m 8.006833,-3.70313 h 2.36719 l 0.30469,-1.39453 h -6.51563 l -0.30468,1.39453 h 2.48437 l -1.44141,6.73829 h 1.67579 z m 4.38868,3.23438 h 3.89062 l 0.29297,-1.39453 h -3.89063 l 0.38672,-1.83985 h 4.21875 l 0.29297,-1.39453 h -5.88281 l -1.73438,8.13282 h 6.08204 l 0.30468,-1.39454 h -4.40625 z M 168.96464,2.8714062 h 3.5625 l 0.29297,-1.3945312 h -3.5625 l 0.38672,-1.83984375 h 4.04297 L 173.98027,-1.7575 h -5.70704 l -1.73437,8.1328125 h 1.67578 z M 176.63456,-1.7575 h -1.66406 l -1.73437,8.1328125 h 1.67578 z m 2.24414,4.9101562 h 1.92188 c 0.42187,0 0.66797,0.082031 0.82031,0.2578125 0.082,0.09375 0.12891,0.2226563 0.12891,0.3515625 0,0.140625 -0.0234,0.2695313 -0.14063,0.6796875 -0.21094,0.7617188 -0.28125,1.1835938 -0.28125,1.4765625 0,0.140625 0.0117,0.2578125 0.082,0.4570313 h 1.78125 l 0.0586,-0.3046875 c -0.0937,-0.070312 -0.14063,-0.1289063 -0.17578,-0.234375 -0.0117,-0.046875 -0.0234,-0.082031 -0.0234,-0.140625 0,-0.082031 0.0117,-0.1757813 0.0352,-0.2929688 0.25782,-1.3710937 0.31641,-1.7578125 0.31641,-2.0390625 0,-0.421875 -0.29297,-0.7265625 -0.87891,-0.9140625 0.59766,-0.2929687 0.89063,-0.4804687 1.14844,-0.7617187 0.44531,-0.4453125 0.71485,-1.1484375 0.71485,-1.76953125 0,-0.421875 -0.17579,-0.8671875 -0.48047,-1.16015625 -0.35157,-0.3632813 -0.79688,-0.515625 -1.44141,-0.515625 h -4.20703 l -1.73438,8.1328125 h 1.67579 z m 0.30469,-1.3945312 0.44531,-2.12109375 h 1.875 c 0.73828,0 1.08985,0.17578125 1.20703,0.5859375 0.0117,0.0585938 0.0117,0.12890625 0.0117,0.19921875 0,0.3046875 -0.11718,0.65625 -0.32812,0.8789062 C 182.10134,1.6175 181.7615,1.758125 181.199,1.758125 Z m 7.80762,1.1132812 h 3.89062 L 191.1746,1.476875 h -3.89062 l 0.38672,-1.83984375 h 4.21875 L 192.18241,-1.7575 h -5.88281 l -1.73437,8.1328125 h 6.08203 l 0.30469,-1.3945313 h -4.40625 z m 14.00976,-0.65625 c -0.1289,0.65625 -0.26953,0.9375 -0.66797,1.3125 l -0.91406,-1.5234375 c 0.59766,-0.3632812 0.9375,-0.609375 1.1836,-0.8789062 0.36328,-0.421875 0.58593,-0.984375 0.58593,-1.51171875 0,-0.78515625 -0.6914,-1.30078125 -1.71093,-1.30078125 -1.19532,0 -2.23829,0.796875 -2.47266,1.8984375 -0.0234,0.10546875 -0.0352,0.22265625 -0.0352,0.328125 0,0.3515625 0.1875,0.7851562 0.59766,1.359375 -1.125,0.5039062 -1.64063,0.9023437 -2.02734,1.5351562 -0.21094,0.3398438 -0.31641,0.7617188 -0.31641,1.1953125 0,0.9375 0.43359,1.59375 1.24219,1.8632813 0.30468,0.082031 0.63281,0.140625 0.96093,0.140625 0.86719,0 1.33594,-0.1757813 2.36719,-0.9257813 l 0.41016,0.6679688 h 1.79297 l -1.05469,-1.78125 c 0.71484,-0.6796875 1.16016,-1.4882813 1.3125,-2.3789063 z m -2.90625,0.5976563 1.11328,1.8632812 c -0.75,0.515625 -1.08984,0.65625 -1.46484,0.65625 -0.48047,0 -0.90234,-0.3632812 -0.98437,-0.8789062 -0.0117,-0.058594 -0.0117,-0.1054688 -0.0117,-0.1640625 0,-0.515625 0.21093,-0.8320313 0.77343,-1.1484375 z m 0.8086,-1.6757813 c -0.36328,-0.6210937 -0.39844,-0.7148437 -0.39844,-0.9257812 0,-0.41015625 0.29297,-0.69140625 0.71484,-0.69140625 0.23438,0 0.39844,0.0585938 0.48047,0.17578125 0.0586,0.0703125 0.0937,0.17578125 0.0937,0.28125 0,0.45703125 -0.3164,0.85546875 -0.89062,1.1601562 z M 168.96464,14.305977 h 1.92188 c 0.42187,0 0.66796,0.08203 0.82031,0.257812 0.082,0.09375 0.1289,0.222656 0.1289,0.351563 0,0.140625 -0.0234,0.269531 -0.14062,0.679687 -0.21094,0.761719 -0.28125,1.183594 -0.28125,1.476563 0,0.140625 0.0117,0.257812 0.082,0.457031 h 1.78125 l 0.0586,-0.304688 c -0.0937,-0.07031 -0.14062,-0.128906 -0.17578,-0.234375 -0.0117,-0.04687 -0.0234,-0.08203 -0.0234,-0.140625 0,-0.08203 0.0117,-0.175781 0.0352,-0.292968 0.25781,-1.371094 0.31641,-1.757813 0.31641,-2.039063 0,-0.421875 -0.29297,-0.726562 -0.87891,-0.914062 0.59766,-0.292969 0.89063,-0.480469 1.14844,-0.761719 0.44531,-0.445313 0.71484,-1.148438 0.71484,-1.769531 0,-0.421875 -0.17578,-0.867188 -0.48047,-1.1601567 -0.35156,-0.3632812 -0.79687,-0.515625 -1.4414,-0.515625 h -4.20703 l -1.73438,8.1328127 h 1.67578 z m 0.30469,-1.394532 0.44531,-2.121093 h 1.875 c 0.73828,0 1.08984,0.175781 1.20703,0.585937 0.0117,0.05859 0.0117,0.128906 0.0117,0.199219 0,0.304687 -0.11719,0.65625 -0.32812,0.878906 -0.29297,0.316406 -0.63282,0.457031 -1.19532,0.457031 z m 7.80469,1.113282 h 3.89062 l 0.29297,-1.394532 h -3.89063 l 0.38672,-1.839843 h 4.21875 l 0.29297,-1.3945317 h -5.88281 l -1.73438,8.1328127 h 6.08204 l 0.30468,-1.394531 h -4.40625 z m 9.86718,-3.234375 h 2.36719 l 0.30469,-1.3945317 h -6.51563 l -0.30468,1.3945317 h 2.48437 l -1.44141,6.738281 h 1.67579 z m 4.33008,3.515625 h 1.92188 c 0.42187,0 0.66797,0.08203 0.82031,0.257812 0.082,0.09375 0.12891,0.222656 0.12891,0.351563 0,0.140625 -0.0234,0.269531 -0.14063,0.679687 -0.21094,0.761719 -0.28125,1.183594 -0.28125,1.476563 0,0.140625 0.0117,0.257812 0.082,0.457031 h 1.78125 l 0.0586,-0.304688 c -0.0937,-0.07031 -0.14063,-0.128906 -0.17579,-0.234375 -0.0117,-0.04687 -0.0234,-0.08203 -0.0234,-0.140625 0,-0.08203 0.0117,-0.175781 0.0351,-0.292968 0.25782,-1.371094 0.31641,-1.757813 0.31641,-2.039063 0,-0.421875 -0.29297,-0.726562 -0.87891,-0.914062 0.59766,-0.292969 0.89063,-0.480469 1.14844,-0.761719 0.44531,-0.445313 0.71484,-1.148438 0.71484,-1.769531 0,-0.421875 -0.17578,-0.867188 -0.48046,-1.1601567 -0.35157,-0.3632812 -0.79688,-0.515625 -1.44141,-0.515625 h -4.20703 l -1.73438,8.1328127 h 1.67578 z m 0.30469,-1.394532 0.44531,-2.121093 h 1.875 c 0.73828,0 1.08985,0.175781 1.20703,0.585937 0.0117,0.05859 0.0117,0.128906 0.0117,0.199219 0,0.304687 -0.11719,0.65625 -0.32812,0.878906 -0.29297,0.316406 -0.63282,0.457031 -1.19532,0.457031 z m 10.43262,2.976563 0.21093,1.640625 h 1.69922 l -1.07812,-8.1328127 h -1.9336 l -4.53515,8.1328127 h 1.69922 l 0.91406,-1.640625 z m -0.15235,-1.394531 h -2.10937 l 1.72265,-3.152344 z m 11.07715,-2.34375 c 0.0352,-0.304688 0.0469,-0.421875 0.0469,-0.550782 0,-1.007812 -0.65625,-1.8515622 -1.6875,-2.1562497 -0.375,-0.1289062 -0.78516,-0.1757812 -1.21875,-0.1757812 -1.3711,0 -2.56641,0.5859375 -3.48047,1.7109379 -0.77344,0.984375 -1.26563,2.484375 -1.26563,3.925781 0,1.183594 0.5625,2.167969 1.48828,2.578125 0.45703,0.199219 0.9961,0.304687 1.58203,0.304687 2.02735,0 3.51563,-1.125 4.00782,-3.035156 h -1.59375 c -0.31641,1.03125 -1.11328,1.605469 -2.17969,1.605469 -0.71484,0 -1.27734,-0.316406 -1.47656,-0.808594 -0.11719,-0.269531 -0.16407,-0.609375 -0.16407,-0.960937 0,-0.925782 0.28125,-1.898438 0.78516,-2.683594 0.52734,-0.820313 1.20703,-1.21875 2.10938,-1.21875 0.60937,0 1.05468,0.210937 1.28906,0.597656 0.14062,0.222656 0.1875,0.433594 0.1875,0.867188 z m 4.98047,-1.359375 h 2.36719 l 0.30468,-1.3945317 h -6.51562 l -0.30469,1.3945317 h 2.48438 l -1.44141,6.738281 h 1.67578 z m 0,0"
       style="fill:#000000;fill-opacity:1;fill-rule:nonzero;stroke:none"
       aria-label="MATCH&#10;UPDATE&#10;FIRE &amp;&#10;RETRACT"
       transform="matrix(1.3333333,0,0,1.3333333,220.956,99.593333)" />
  </g>
</svg>
