<?xml version="1.0" encoding="UTF-8" standalone="no"?>
<!-- Created with Inkscape (http://www.inkscape.org/) -->

<svg
   version="1.1"
   id="svg1"
   width="595.94458"
   height="673.51202"
   viewBox="0 0 595.94458 673.51202"
   xmlns="http://www.w3.org/2000/svg"
   xmlns:svg="http://www.w3.org/2000/svg">
  <defs
     id="defs1" />
  <g
     id="g1"
     transform="translate(-92.950053,-52.667147)">
    <path
       id="path1"
       d="m 892.324,4971.52 h 127.473 v 127.473 H 892.324 Z"
       style="fill:none;stroke:#000000;stroke-width:7.96717;stroke-linecap:butt;stroke-linejoin:miter;stroke-miterlimit:10;stroke-dasharray:none;stroke-opacity:1"
       transform="matrix(0.13333333,0,0,-0.13333333,0,1056)" />
    <path
       id="path2"
       d="M 5.5906281,-1.6398203 6.1296906,8.046875e-4 H 7.8406281 L 5.0281281,-8.1320078 H 3.1765656 L 0.29375313,8.046875e-4 H 1.9929719 L 2.5437531,-1.6398203 Z M 5.1335969,-3.0343516 H 3.0125031 l 1.0546875,-3.1757812 z m 0,0"
       style="fill:#000000;fill-opacity:1;fill-rule:nonzero;stroke:none"
       aria-label="A"
       transform="matrix(1.3333333,0,0,1.3333333,122.69427,388.56533)" />
    <path
       id="path3"
       d="m 1083.54,4971.52 h 127.477 v 127.473 H 1083.54 Z"
       style="fill:none;stroke:#000000;stroke-width:7.96717;stroke-linecap:butt;stroke-linejoin:miter;stroke-miterlimit:10;stroke-dasharray:none;stroke-opacity:1"
       transform="matrix(0.13333333,0,0,-0.13333333,0,1056)" />
    <path
       id="path4"
       d="m 0.9126875,8.046875e-4 h 3.65625 c 0.9375,0 1.5703125,-0.1757812475 2.0507813,-0.5859374975 0.4921875,-0.42187499 0.8085937,-1.10156249 0.8085937,-1.75781249 0,-0.796875 -0.421875,-1.4414063 -1.3476562,-1.96875 0.796875,-0.515625 1.1132812,-0.984375 1.1132812,-1.6757813 0,-0.5742187 -0.28125,-1.1484375 -0.7382812,-1.5585937 C 5.9751875,-7.9562266 5.4126875,-8.1320078 4.5337813,-8.1320078 H 0.9126875 Z M 2.5884688,-6.7374766 H 4.404875 c 0.7851563,0 1.1835938,0.3164063 1.1835938,0.9140625 0,0.609375 -0.3984375,0.9257813 -1.1835938,0.9257813 H 2.5884688 Z m 0,3.234375 h 1.9921875 c 0.8203125,0 1.2421875,0.3632813 1.2421875,1.0664063 0,0.6914062 -0.421875,1.0429687 -1.2421875,1.0429687 H 2.5884688 Z m 0,0"
       style="fill:#000000;fill-opacity:1;fill-rule:nonzero;stroke:none"
       aria-label="B"
       transform="matrix(1.3333333,0,0,1.3333333,148.18933,388.56533)" />
    <path
       id="path5"
       d="m 1274.75,4971.52 h 127.477 v 127.473 H 1274.75 Z"
       style="fill:none;stroke:#000000;stroke-width:7.96717;stroke-linecap:butt;stroke-linejoin:miter;stroke-miterlimit:10;stroke-dasharray:none;stroke-opacity:1"
       transform="matrix(0.13333333,0,0,-0.13333333,0,1056)" />
    <path
       id="path6"
       d="M 7.6048516,-5.3781016 C 7.5579766,-6.0812266 7.4056328,-6.5265391 7.0657891,-6.9835703 6.4329766,-7.8038828 5.4368828,-8.2609141 4.2181328,-8.2609141 c -2.296875,0 -3.72656249,1.640625 -3.72656249,4.265625 0,2.625 1.41796879,4.25390629 3.67968749,4.25390629 2.0273438,0 3.375,-1.171875 3.46875,-3.03515629 H 6.0111016 c -0.1054688,1.03125 -0.7617188,1.6289063 -1.7929688,1.6289063 -1.3007812,0 -2.0507812,-1.0546875 -2.0507812,-2.8242188 0,-1.7929687 0.7851562,-2.8710937 2.109375,-2.8710937 0.9609375,0 1.5117187,0.46875 1.734375,1.4648437 z m 0,0"
       style="fill:#000000;fill-opacity:1;fill-rule:nonzero;stroke:none"
       aria-label="C"
       transform="matrix(1.3333333,0,0,1.3333333,172.09067,388.56533)" />
    <path
       id="path7"
       d="M 768.832,4971.52 H 1533.68"
       style="fill:none;stroke:#000000;stroke-width:7.96717;stroke-linecap:butt;stroke-linejoin:miter;stroke-miterlimit:10;stroke-dasharray:none;stroke-opacity:1"
       transform="matrix(0.13333333,0,0,-0.13333333,0,1056)" />
    <path
       id="path8"
       d="m 2868.18,7266.06 h 127.477 v 127.477 H 2868.18 Z"
       style="fill:none;stroke:#000000;stroke-width:7.96717;stroke-linecap:butt;stroke-linejoin:miter;stroke-miterlimit:10;stroke-dasharray:none;stroke-opacity:1"
       transform="matrix(0.13333333,0,0,-0.13333333,0,1056)" />
    <path
       id="path9"
       d="m 5.5912422,-1.641875 0.5390625,1.640625 h 1.7109375 l -2.8125,-8.1328125 H 3.1771797 L 0.29436719,-0.00125 H 1.9935859 L 2.5443672,-1.641875 Z M 5.1342109,-3.0364063 H 3.0131172 l 1.0546875,-3.1757812 z m 0,0"
       style="fill:#000000;fill-opacity:1;fill-rule:nonzero;stroke:none"
       aria-label="A"
       transform="matrix(1.3333333,0,0,1.3333333,386.14267,82.626667)" />
    <path
       id="path10"
       d="m 2868.18,7138.59 h 127.477 v 127.473 H 2868.18 Z"
       style="fill:none;stroke:#000000;stroke-width:7.96717;stroke-linecap:butt;stroke-linejoin:miter;stroke-miterlimit:10;stroke-dasharray:none;stroke-opacity:1"
       transform="matrix(0.13333333,0,0,-0.13333333,0,1056)" />
    <path
       id="path11"
       d="M 0.91546094,-0.00117969 H 4.5717109 c 0.9375,0 1.5703125,-0.17578125 2.0507813,-0.5859375 0.4921875,-0.42187501 0.8085937,-1.10156251 0.8085937,-1.75781251 0,-0.796875 -0.421875,-1.4414062 -1.3476562,-1.96875 0.796875,-0.515625 1.1132812,-0.984375 1.1132812,-1.6757812 0,-0.5742188 -0.28125,-1.1484375 -0.7382812,-1.5585938 C 5.9779609,-7.9582109 5.4154609,-8.1339922 4.5365547,-8.1339922 H 0.91546094 Z M 2.5912422,-6.7394609 h 1.8164062 c 0.7851563,0 1.1835938,0.3164062 1.1835938,0.9140625 0,0.609375 -0.3984375,0.9257812 -1.1835938,0.9257812 H 2.5912422 Z m 0,3.234375 h 1.9921875 c 0.8203125,0 1.2421875,0.3632812 1.2421875,1.0664062 0,0.6914063 -0.421875,1.0429688 -1.2421875,1.0429688 H 2.5912422 Z m 0,0"
       style="fill:#000000;fill-opacity:1;fill-rule:nonzero;stroke:none"
       aria-label="B"
       transform="matrix(1.3333333,0,0,1.3333333,386.14267,99.622667)" />
    <path
       id="path12"
       d="m 3059.39,7138.59 h 127.473 v 127.473 H 3059.39 Z"
       style="fill:none;stroke:#000000;stroke-width:7.96717;stroke-linecap:butt;stroke-linejoin:miter;stroke-miterlimit:10;stroke-dasharray:none;stroke-opacity:1"
       transform="matrix(0.13333333,0,0,-0.13333333,0,1056)" />
    <path
       id="path13"
       d="M 7.6046953,-5.3800859 C 7.5578203,-6.0832109 7.4054766,-6.5285234 7.0656328,-6.9855547 6.4328203,-7.8058672 5.4367266,-8.2628984 4.2179766,-8.2628984 c -2.296875,0 -3.72656254,1.640625 -3.72656254,4.265625 0,2.625 1.41796874,4.25390621 3.67968754,4.25390621 2.0273437,0 3.375,-1.171875 3.46875,-3.03515621 H 6.0109453 c -0.1054687,1.03125 -0.7617187,1.6289062 -1.7929687,1.6289062 -1.3007813,0 -2.0507813,-1.0546875 -2.0507813,-2.8242187 0,-1.7929688 0.7851563,-2.8710938 2.109375,-2.8710938 0.9609375,0 1.5117188,0.46875 1.734375,1.4648438 z m 0,0"
       style="fill:#000000;fill-opacity:1;fill-rule:nonzero;stroke:none"
       aria-label="C"
       transform="matrix(1.3333333,0,0,1.3333333,410.044,99.622667)" />
    <path
       id="path14"
       d="m 2553.48,7138.59 h 764.85"
       style="fill:none;stroke:#000000;stroke-width:7.96717;stroke-linecap:butt;stroke-linejoin:miter;stroke-miterlimit:10;stroke-dasharray:none;stroke-opacity:1"
       transform="matrix(0.13333333,0,0,-0.13333333,0,1056)" />
    <path
       id="path15"
       d="m 3059.39,6373.73 h 127.473 v 127.477 H 3059.39 Z"
       style="fill:none;stroke:#000000;stroke-width:7.96717;stroke-linecap:butt;stroke-linejoin:miter;stroke-miterlimit:10;stroke-dasharray:none;stroke-opacity:1"
       transform="matrix(0.13333333,0,0,-0.13333333,0,1056)" />
    <path
       id="path16"
       d="M 5.5893828,-1.6414531 6.1284453,-8.28125e-4 H 7.8393828 L 5.0268828,-8.1336406 H 3.1753203 L 0.29250781,-8.28125e-4 H 1.9917266 L 2.5425078,-1.6414531 Z M 5.1323516,-3.0359844 H 3.0112578 l 1.0546875,-3.1757812 z m 0,0"
       style="fill:#000000;fill-opacity:1;fill-rule:nonzero;stroke:none"
       aria-label="A"
       transform="matrix(1.3333333,0,0,1.3333333,411.63733,201.60267)" />
    <path
       id="path17"
       d="m 2868.18,6246.26 h 127.477 v 127.473 H 2868.18 Z"
       style="fill:none;stroke:#000000;stroke-width:7.96717;stroke-linecap:butt;stroke-linejoin:miter;stroke-miterlimit:10;stroke-dasharray:none;stroke-opacity:1"
       transform="matrix(0.13333333,0,0,-0.13333333,0,1056)" />
    <path
       id="path18"
       d="M 0.91546094,0.00117187 H 4.5717109 c 0.9375,0 1.5703125,-0.17578125 2.0507813,-0.5859375 0.4921875,-0.42187497 0.8085937,-1.10156247 0.8085937,-1.75781247 0,-0.796875 -0.421875,-1.4414063 -1.3476562,-1.96875 0.796875,-0.515625 1.1132812,-0.984375 1.1132812,-1.6757813 0,-0.5742187 -0.28125,-1.1484375 -0.7382812,-1.5585937 C 5.9779609,-7.9558594 5.4154609,-8.1316406 4.5365547,-8.1316406 H 0.91546094 Z M 2.5912422,-6.7371094 h 1.8164062 c 0.7851563,0 1.1835938,0.3164063 1.1835938,0.9140625 0,0.609375 -0.3984375,0.9257813 -1.1835938,0.9257813 H 2.5912422 Z m 0,3.234375 h 1.9921875 c 0.8203125,0 1.2421875,0.3632813 1.2421875,1.0664063 0,0.6914062 -0.421875,1.0429687 -1.2421875,1.0429687 H 2.5912422 Z m 0,0"
       style="fill:#000000;fill-opacity:1;fill-rule:nonzero;stroke:none"
       aria-label="B"
       transform="matrix(1.3333333,0,0,1.3333333,386.14267,218.6)" />
    <path
       id="path19"
       d="m 3059.39,6246.26 h 127.473 v 127.473 H 3059.39 Z"
       style="fill:none;stroke:#000000;stroke-width:7.96717;stroke-linecap:butt;stroke-linejoin:miter;stroke-miterlimit:10;stroke-dasharray:none;stroke-opacity:1"
       transform="matrix(0.13333333,0,0,-0.13333333,0,1056)" />
    <path
       id="path20"
       d="M 7.6046953,-5.3777344 C 7.5578203,-6.0808594 7.4054766,-6.5261719 7.0656328,-6.9832031 6.4328203,-7.8035156 5.4367266,-8.2605469 4.2179766,-8.2605469 c -2.296875,0 -3.72656254,1.640625 -3.72656254,4.265625 0,2.625 1.41796874,4.25390627 3.67968754,4.25390627 2.0273437,0 3.375,-1.171875 3.46875,-3.03515627 H 6.0109453 c -0.1054687,1.03125 -0.7617187,1.6289063 -1.7929687,1.6289063 -1.3007813,0 -2.0507813,-1.0546875 -2.0507813,-2.8242188 0,-1.7929687 0.7851563,-2.8710937 2.109375,-2.8710937 0.9609375,0 1.5117188,0.46875 1.734375,1.4648437 z m 0,0"
       style="fill:#000000;fill-opacity:1;fill-rule:nonzero;stroke:none"
       aria-label="C"
       transform="matrix(1.3333333,0,0,1.3333333,410.044,218.6)" />
    <path
       id="path21"
       d="m 2553.48,6246.26 h 764.85"
       style="fill:none;stroke:#000000;stroke-width:7.96717;stroke-linecap:butt;stroke-linejoin:miter;stroke-miterlimit:10;stroke-dasharray:none;stroke-opacity:1"
       transform="matrix(0.13333333,0,0,-0.13333333,0,1056)" />
    <path
       id="path22"
       d="m 2676.97,5417.68 h 127.477 v 127.477 H 2676.97 Z"
       style="fill:none;stroke:#000000;stroke-width:7.96717;stroke-linecap:butt;stroke-linejoin:miter;stroke-miterlimit:10;stroke-dasharray:none;stroke-opacity:1"
       transform="matrix(0.13333333,0,0,-0.13333333,0,1056)" />
    <path
       id="path23"
       d="M 5.5901719,-1.6400313 6.1292344,5.9375e-4 h 1.7109375 l -2.8125,-8.13281255 H 3.1761094 L 0.29329688,5.9375e-4 H 1.9925156 L 2.5432969,-1.6400313 Z M 5.1331406,-3.0345625 H 3.0120469 l 1.0546875,-3.1757813 z m 0,0"
       style="fill:#000000;fill-opacity:1;fill-rule:nonzero;stroke:none"
       aria-label="A"
       transform="matrix(1.3333333,0,0,1.3333333,360.648,329.07733)" />
    <path
       id="path24"
       d="m 2676.97,5545.15 h 127.477 v 127.477 H 2676.97 Z"
       style="fill:none;stroke:#000000;stroke-width:7.96717;stroke-linecap:butt;stroke-linejoin:miter;stroke-miterlimit:10;stroke-dasharray:none;stroke-opacity:1"
       transform="matrix(0.13333333,0,0,-0.13333333,0,1056)" />
    <path
       id="path25"
       d="M 0.91439063,5.234375e-4 H 4.5706406 c 0.9375,0 1.5703125,-0.1757812475 2.0507813,-0.5859374975 0.4921875,-0.42187504 0.8085937,-1.10156254 0.8085937,-1.75781254 0,-0.796875 -0.421875,-1.4414062 -1.3476562,-1.96875 0.796875,-0.515625 1.1132812,-0.984375 1.1132812,-1.6757812 0,-0.5742188 -0.28125,-1.1484375 -0.7382812,-1.5585938 C 5.9768906,-7.9565078 5.4143906,-8.1322891 4.5354844,-8.1322891 H 0.91439063 Z M 2.5901719,-6.7377578 h 1.8164062 c 0.7851563,0 1.1835938,0.3164062 1.1835938,0.9140625 0,0.609375 -0.3984375,0.9257812 -1.1835938,0.9257812 H 2.5901719 Z m 0,3.234375 h 1.9921875 c 0.8203125,0 1.2421875,0.3632812 1.2421875,1.0664062 0,0.6914063 -0.421875,1.0429688 -1.2421875,1.0429688 H 2.5901719 Z m 0,0"
       style="fill:#000000;fill-opacity:1;fill-rule:nonzero;stroke:none"
       aria-label="B"
       transform="matrix(1.3333333,0,0,1.3333333,360.648,312.08133)" />
    <path
       id="path26"
       d="m 3059.39,5417.68 h 127.473 v 127.477 H 3059.39 Z"
       style="fill:none;stroke:#000000;stroke-width:7.96717;stroke-linecap:butt;stroke-linejoin:miter;stroke-miterlimit:10;stroke-dasharray:none;stroke-opacity:1"
       transform="matrix(0.13333333,0,0,-0.13333333,0,1056)" />
    <path
       id="path27"
       d="M 7.6046953,-5.3783125 C 7.5578203,-6.0814375 7.4054766,-6.52675 7.0656328,-6.9837813 6.4328203,-7.8040938 5.4367266,-8.261125 4.2179766,-8.261125 c -2.296875,0 -3.72656254,1.640625 -3.72656254,4.265625 0,2.625 1.41796874,4.25390625 3.67968754,4.25390625 2.0273437,0 3.375,-1.171875 3.46875,-3.03515625 H 6.0109453 c -0.1054687,1.03125 -0.7617187,1.6289062 -1.7929687,1.6289062 -1.3007813,0 -2.0507813,-1.0546875 -2.0507813,-2.8242187 0,-1.7929688 0.7851563,-2.8710938 2.109375,-2.8710938 0.9609375,0 1.5117188,0.46875 1.734375,1.4648438 z m 0,0"
       style="fill:#000000;fill-opacity:1;fill-rule:nonzero;stroke:none"
       aria-label="C"
       transform="matrix(1.3333333,0,0,1.3333333,410.044,329.07733)" />
    <path
       id="path28"
       d="m 2553.48,5417.68 h 764.85"
       style="fill:none;stroke:#000000;stroke-width:7.96717;stroke-linecap:butt;stroke-linejoin:miter;stroke-miterlimit:10;stroke-dasharray:none;stroke-opacity:1"
       transform="matrix(0.13333333,0,0,-0.13333333,0,1056)" />
    <path
       id="path29"
       d="m 2676.97,4525.35 h 127.477 v 127.477 H 2676.97 Z"
       style="fill:none;stroke:#000000;stroke-width:7.96717;stroke-linecap:butt;stroke-linejoin:miter;stroke-miterlimit:10;stroke-dasharray:none;stroke-opacity:1"
       transform="matrix(0.13333333,0,0,-0.13333333,0,1056)" />
    <path
       id="path30"
       d="m 5.5901719,-1.6396094 0.5390625,1.64062502 h 1.7109375 l -2.8125,-8.13281252 H 3.1761094 L 0.29329688,0.00101562 H 1.9925156 L 2.5432969,-1.6396094 Z M 5.1331406,-3.0341406 H 3.0120469 l 1.0546875,-3.1757813 z m 0,0"
       style="fill:#000000;fill-opacity:1;fill-rule:nonzero;stroke:none"
       aria-label="A"
       transform="matrix(1.3333333,0,0,1.3333333,360.648,448.05333)" />
    <path
       id="path31"
       d="m 3059.39,4652.83 h 127.473 v 127.473 H 3059.39 Z"
       style="fill:none;stroke:#000000;stroke-width:7.96717;stroke-linecap:butt;stroke-linejoin:miter;stroke-miterlimit:10;stroke-dasharray:none;stroke-opacity:1"
       transform="matrix(0.13333333,0,0,-0.13333333,0,1056)" />
    <path
       id="path32"
       d="M 0.91360156,9.453125e-4 H 4.5698516 c 0.9375,0 1.5703125,-0.1757812525 2.0507812,-0.5859375025 0.4921875,-0.42187501 0.8085938,-1.10156251 0.8085938,-1.75781251 0,-0.796875 -0.421875,-1.4414062 -1.3476563,-1.96875 0.796875,-0.515625 1.1132813,-0.984375 1.1132813,-1.6757812 0,-0.5742188 -0.28125,-1.1484375 -0.7382813,-1.5585938 C 5.9761016,-7.9560859 5.4136016,-8.1318672 4.5346953,-8.1318672 H 0.91360156 Z M 2.5893828,-6.7373359 h 1.8164063 c 0.7851562,0 1.1835937,0.3164062 1.1835937,0.9140625 0,0.609375 -0.3984375,0.9257812 -1.1835937,0.9257812 H 2.5893828 Z m 0,3.234375 h 1.9921875 c 0.8203125,0 1.2421875,0.3632812 1.2421875,1.0664062 0,0.6914063 -0.421875,1.0429688 -1.2421875,1.0429688 H 2.5893828 Z m 0,0"
       style="fill:#000000;fill-opacity:1;fill-rule:nonzero;stroke:none"
       aria-label="B"
       transform="matrix(1.3333333,0,0,1.3333333,411.63733,431.05733)" />
    <path
       id="path33"
       d="m 3059.39,4525.35 h 127.473 v 127.477 H 3059.39 Z"
       style="fill:none;stroke:#000000;stroke-width:7.96717;stroke-linecap:butt;stroke-linejoin:miter;stroke-miterlimit:10;stroke-dasharray:none;stroke-opacity:1"
       transform="matrix(0.13333333,0,0,-0.13333333,0,1056)" />
    <path
       id="path34"
       d="M 7.6046953,-5.3778906 C 7.5578203,-6.0810156 7.4054766,-6.5263281 7.0656328,-6.9833594 6.4328203,-7.8036719 5.4367266,-8.2607031 4.2179766,-8.2607031 c -2.296875,0 -3.72656254,1.640625 -3.72656254,4.265625 0,2.625 1.41796874,4.25390622 3.67968754,4.25390622 2.0273437,0 3.375,-1.171875 3.46875,-3.03515622 H 6.0109453 c -0.1054687,1.03125 -0.7617187,1.6289062 -1.7929687,1.6289062 -1.3007813,0 -2.0507813,-1.0546875 -2.0507813,-2.8242187 0,-1.7929688 0.7851563,-2.8710938 2.109375,-2.8710938 0.9609375,0 1.5117188,0.46875 1.734375,1.4648438 z m 0,0"
       style="fill:#000000;fill-opacity:1;fill-rule:nonzero;stroke:none"
       aria-label="C"
       transform="matrix(1.3333333,0,0,1.3333333,410.044,448.05333)" />
    <path
       id="path35"
       d="m 2553.48,4525.35 h 764.85"
       style="fill:none;stroke:#000000;stroke-width:7.96717;stroke-linecap:butt;stroke-linejoin:miter;stroke-miterlimit:10;stroke-dasharray:none;stroke-opacity:1"
       transform="matrix(0.13333333,0,0,-0.13333333,0,1056)" />
    <path
       id="path36"
       d="m 2676.97,3696.77 h 127.477 v 127.477 H 2676.97 Z"
       style="fill:none;stroke:#000000;stroke-width:7.96717;stroke-linecap:butt;stroke-linejoin:miter;stroke-miterlimit:10;stroke-dasharray:none;stroke-opacity:1"
       transform="matrix(0.13333333,0,0,-0.13333333,0,1056)" />
    <path
       id="path37"
       d="m 5.5901719,-1.6411875 0.5390625,1.640625 h 1.7109375 l -2.8125,-8.1328125 H 3.1761094 L 0.29329688,-5.625e-4 H 1.9925156 l 0.5507813,-1.640625 z M 5.1331406,-3.0357188 H 3.0120469 L 4.0667344,-6.2115 Z m 0,0"
       style="fill:#000000;fill-opacity:1;fill-rule:nonzero;stroke:none"
       aria-label="A"
       transform="matrix(1.3333333,0,0,1.3333333,360.648,558.532)" />
    <path
       id="path38"
       d="m 2868.18,3696.77 h 127.477 v 127.477 H 2868.18 Z"
       style="fill:none;stroke:#000000;stroke-width:7.96717;stroke-linecap:butt;stroke-linejoin:miter;stroke-miterlimit:10;stroke-dasharray:none;stroke-opacity:1"
       transform="matrix(0.13333333,0,0,-0.13333333,0,1056)" />
    <path
       id="path39"
       d="M 0.91546094,-5.625e-4 H 4.5717109 c 0.9375,0 1.5703125,-0.17578125 2.0507813,-0.5859375 0.4921875,-0.421875 0.8085937,-1.1015625 0.8085937,-1.7578125 0,-0.796875 -0.421875,-1.4414063 -1.3476562,-1.96875 0.796875,-0.515625 1.1132812,-0.984375 1.1132812,-1.6757813 0,-0.5742187 -0.28125,-1.1484375 -0.7382812,-1.5585937 C 5.9779609,-7.9575938 5.4154609,-8.133375 4.5365547,-8.133375 H 0.91546094 Z M 2.5912422,-6.7388438 h 1.8164062 c 0.7851563,0 1.1835938,0.3164063 1.1835938,0.9140625 0,0.609375 -0.3984375,0.9257813 -1.1835938,0.9257813 H 2.5912422 Z m 0,3.234375 h 1.9921875 c 0.8203125,0 1.2421875,0.3632813 1.2421875,1.0664063 0,0.6914062 -0.421875,1.0429687 -1.2421875,1.0429687 H 2.5912422 Z m 0,0"
       style="fill:#000000;fill-opacity:1;fill-rule:nonzero;stroke:none"
       aria-label="B"
       transform="matrix(1.3333333,0,0,1.3333333,386.14267,558.532)" />
    <path
       id="path40"
       d="m 2676.97,3824.24 h 127.477 v 127.473 H 2676.97 Z"
       style="fill:none;stroke:#000000;stroke-width:7.96717;stroke-linecap:butt;stroke-linejoin:miter;stroke-miterlimit:10;stroke-dasharray:none;stroke-opacity:1"
       transform="matrix(0.13333333,0,0,-0.13333333,0,1056)" />
    <path
       id="path41"
       d="M 7.6064844,-5.3795391 C 7.5596094,-6.0826641 7.4072656,-6.5279766 7.0674219,-6.9850078 6.4346094,-7.8053203 5.4385156,-8.2623516 4.2197656,-8.2623516 c -2.296875,0 -3.72656247,1.640625 -3.72656247,4.265625 0,2.625 1.41796877,4.25390629 3.67968747,4.25390629 2.0273438,0 3.375,-1.171875 3.46875,-3.03515629 H 6.0127344 c -0.1054688,1.03125 -0.7617188,1.6289063 -1.7929688,1.6289063 -1.3007812,0 -2.0507812,-1.0546875 -2.0507812,-2.8242188 0,-1.7929687 0.7851562,-2.8710937 2.109375,-2.8710937 0.9609375,0 1.5117187,0.46875 1.734375,1.4648437 z m 0,0"
       style="fill:#000000;fill-opacity:1;fill-rule:nonzero;stroke:none"
       aria-label="C"
       transform="matrix(1.3333333,0,0,1.3333333,359.05333,541.536)" />
    <path
       id="path42"
       d="m 2553.48,3696.77 h 764.85"
       style="fill:none;stroke:#000000;stroke-width:7.96717;stroke-linecap:butt;stroke-linejoin:miter;stroke-miterlimit:10;stroke-dasharray:none;stroke-opacity:1"
       transform="matrix(0.13333333,0,0,-0.13333333,0,1056)" />
    <path
       id="path43"
       d="m 2676.97,2804.45 h 127.477 v 127.473 H 2676.97 Z"
       style="fill:none;stroke:#000000;stroke-width:7.96717;stroke-linecap:butt;stroke-linejoin:miter;stroke-miterlimit:10;stroke-dasharray:none;stroke-opacity:1"
       transform="matrix(0.13333333,0,0,-0.13333333,0,1056)" />
    <path
       id="path44"
       d="M 5.5901719,-1.6407656 6.1292344,-1.40625e-4 H 7.8401719 L 5.0276719,-8.1329531 H 3.1761094 L 0.29329688,-1.40625e-4 H 1.9925156 L 2.5432969,-1.6407656 Z M 5.1331406,-3.0352969 H 3.0120469 l 1.0546875,-3.1757812 z m 0,0"
       style="fill:#000000;fill-opacity:1;fill-rule:nonzero;stroke:none"
       aria-label="A"
       transform="matrix(1.3333333,0,0,1.3333333,360.648,677.508)" />
    <path
       id="path45"
       d="m 2868.18,2804.45 h 127.477 v 127.473 H 2868.18 Z"
       style="fill:none;stroke:#000000;stroke-width:7.96717;stroke-linecap:butt;stroke-linejoin:miter;stroke-miterlimit:10;stroke-dasharray:none;stroke-opacity:1"
       transform="matrix(0.13333333,0,0,-0.13333333,0,1056)" />
    <path
       id="path46"
       d="M 0.91546094,-1.40625e-4 H 4.5717109 c 0.9375,0 1.5703125,-0.175781255 2.0507813,-0.585937505 0.4921875,-0.42187497 0.8085937,-1.10156247 0.8085937,-1.75781247 0,-0.796875 -0.421875,-1.4414063 -1.3476562,-1.96875 0.796875,-0.515625 1.1132812,-0.984375 1.1132812,-1.6757813 0,-0.5742187 -0.28125,-1.1484375 -0.7382812,-1.5585937 C 5.9779609,-7.9571719 5.4154609,-8.1329531 4.5365547,-8.1329531 H 0.91546094 Z M 2.5912422,-6.7384219 h 1.8164062 c 0.7851563,0 1.1835938,0.3164063 1.1835938,0.9140625 0,0.609375 -0.3984375,0.9257813 -1.1835938,0.9257813 H 2.5912422 Z m 0,3.234375 h 1.9921875 c 0.8203125,0 1.2421875,0.3632813 1.2421875,1.0664063 0,0.6914062 -0.421875,1.0429687 -1.2421875,1.0429687 H 2.5912422 Z m 0,0"
       style="fill:#000000;fill-opacity:1;fill-rule:nonzero;stroke:none"
       aria-label="B"
       transform="matrix(1.3333333,0,0,1.3333333,386.14267,677.508)" />
    <path
       id="path47"
       d="m 2868.18,2931.92 h 127.477 v 127.477 H 2868.18 Z"
       style="fill:none;stroke:#000000;stroke-width:7.96717;stroke-linecap:butt;stroke-linejoin:miter;stroke-miterlimit:10;stroke-dasharray:none;stroke-opacity:1"
       transform="matrix(0.13333333,0,0,-0.13333333,0,1056)" />
    <path
       id="path48"
       d="M 7.6065547,-5.3791172 C 7.5596797,-6.0822422 7.4073359,-6.5275547 7.0674922,-6.9845859 6.4346797,-7.8048984 5.4385859,-8.2619297 4.2198359,-8.2619297 c -2.296875,0 -3.72656246,1.640625 -3.72656246,4.265625 0,2.625 1.41796876,4.25390626 3.67968746,4.25390626 2.0273438,0 3.375,-1.171875 3.46875,-3.03515626 H 6.0128047 c -0.1054688,1.03125 -0.7617188,1.6289063 -1.7929688,1.6289063 -1.3007812,0 -2.0507812,-1.0546875 -2.0507812,-2.8242188 0,-1.7929687 0.7851562,-2.8710937 2.109375,-2.8710937 0.9609375,0 1.5117187,0.46875 1.734375,1.4648437 z m 0,0"
       style="fill:#000000;fill-opacity:1;fill-rule:nonzero;stroke:none"
       aria-label="C"
       transform="matrix(1.3333333,0,0,1.3333333,384.54933,660.512)" />
    <path
       id="path49"
       d="m 2553.48,2804.45 h 764.85"
       style="fill:none;stroke:#000000;stroke-width:7.96717;stroke-linecap:butt;stroke-linejoin:miter;stroke-miterlimit:10;stroke-dasharray:none;stroke-opacity:1"
       transform="matrix(0.13333333,0,0,-0.13333333,0,1056)" />
    <path
       id="path50"
       d="m 4716.57,7266.06 h 127.473 v 127.477 H 4716.57 Z"
       style="fill:none;stroke:#000000;stroke-width:7.96717;stroke-linecap:butt;stroke-linejoin:miter;stroke-miterlimit:10;stroke-dasharray:none;stroke-opacity:1"
       transform="matrix(0.13333333,0,0,-0.13333333,0,1056)" />
    <path
       id="path51"
       d="m 5.5901563,-1.641875 0.5390625,1.640625 h 1.7109375 l -2.8125,-8.1328125 H 3.1760938 L 0.29328125,-0.00125 H 1.9925 L 2.5432813,-1.641875 Z M 5.133125,-3.0364063 H 3.0120313 l 1.0546875,-3.1757812 z m 0,0"
       style="fill:#000000;fill-opacity:1;fill-rule:nonzero;stroke:none"
       aria-label="A"
       transform="matrix(1.3333333,0,0,1.3333333,632.59333,82.626667)" />
    <path
       id="path52"
       d="m 4716.57,7138.59 h 127.473 v 127.473 H 4716.57 Z"
       style="fill:none;stroke:#000000;stroke-width:7.96717;stroke-linecap:butt;stroke-linejoin:miter;stroke-miterlimit:10;stroke-dasharray:none;stroke-opacity:1"
       transform="matrix(0.13333333,0,0,-0.13333333,0,1056)" />
    <path
       id="path53"
       d="m 0.914375,-0.00117969 h 3.65625 c 0.9375,0 1.5703125,-0.17578125 2.0507813,-0.5859375 C 7.1135938,-1.0089922 7.43,-1.6886797 7.43,-2.3449297 c 0,-0.796875 -0.421875,-1.4414062 -1.3476562,-1.96875 0.796875,-0.515625 1.1132812,-0.984375 1.1132812,-1.6757812 0,-0.5742188 -0.28125,-1.1484375 -0.7382812,-1.5585938 C 5.976875,-7.9582109 5.414375,-8.1339922 4.5354688,-8.1339922 H 0.914375 Z M 2.5901563,-6.7394609 h 1.8164062 c 0.7851563,0 1.1835938,0.3164062 1.1835938,0.9140625 0,0.609375 -0.3984375,0.9257812 -1.1835938,0.9257812 H 2.5901563 Z m 0,3.234375 h 1.9921875 c 0.8203125,0 1.2421875,0.3632812 1.2421875,1.0664062 0,0.6914063 -0.421875,1.0429688 -1.2421875,1.0429688 H 2.5901563 Z m 0,0"
       style="fill:#000000;fill-opacity:1;fill-rule:nonzero;stroke:none"
       aria-label="B"
       transform="matrix(1.3333333,0,0,1.3333333,632.59333,99.622667)" />
    <path
       id="path54"
       d="m 4716.57,7393.54 h 127.473 v 127.473 H 4716.57 Z"
       style="fill:none;stroke:#000000;stroke-width:7.96717;stroke-linecap:butt;stroke-linejoin:miter;stroke-miterlimit:10;stroke-dasharray:none;stroke-opacity:1"
       transform="matrix(0.13333333,0,0,-0.13333333,0,1056)" />
    <path
       id="path55"
       d="M 7.6054687,-5.3792266 C 7.5585937,-6.0823516 7.40625,-6.5276641 7.0664062,-6.9846953 6.4335937,-7.8050078 5.4375,-8.2620391 4.21875,-8.2620391 c -2.296875,0 -3.7265625,1.640625 -3.7265625,4.265625 0,2.625 1.4179687,4.25390629 3.6796875,4.25390629 2.0273437,0 3.375,-1.171875 3.46875,-3.03515629 H 6.0117187 C 5.90625,-1.7464141 5.25,-1.1487578 4.21875,-1.1487578 c -1.3007812,0 -2.0507812,-1.0546875 -2.0507812,-2.8242188 0,-1.7929687 0.7851562,-2.8710937 2.1093749,-2.8710937 0.9609375,0 1.5117188,0.46875 1.734375,1.4648437 z m 0,0"
       style="fill:#000000;fill-opacity:1;fill-rule:nonzero;stroke:none"
       aria-label="C"
       transform="matrix(1.3333333,0,0,1.3333333,631,65.629333)" />
    <path
       id="path56"
       d="m 4401.86,7138.59 h 764.85"
       style="fill:none;stroke:#000000;stroke-width:7.96717;stroke-linecap:butt;stroke-linejoin:miter;stroke-miterlimit:10;stroke-dasharray:none;stroke-opacity:1"
       transform="matrix(0.13333333,0,0,-0.13333333,0,1056)" />
    <path
       id="path57"
       d="m 4907.78,6373.73 h 127.473 v 127.477 H 4907.78 Z"
       style="fill:none;stroke:#000000;stroke-width:7.96717;stroke-linecap:butt;stroke-linejoin:miter;stroke-miterlimit:10;stroke-dasharray:none;stroke-opacity:1"
       transform="matrix(0.13333333,0,0,-0.13333333,0,1056)" />
    <path
       id="path58"
       d="M 5.5912266,-1.6414531 6.1302891,-8.28125e-4 H 7.8412266 L 5.0287266,-8.1336406 H 3.1771641 L 0.29435156,-8.28125e-4 H 1.9935703 L 2.5443516,-1.6414531 Z M 5.1341953,-3.0359844 H 3.0131016 l 1.0546875,-3.1757812 z m 0,0"
       style="fill:#000000;fill-opacity:1;fill-rule:nonzero;stroke:none"
       aria-label="A"
       transform="matrix(1.3333333,0,0,1.3333333,658.088,201.60267)" />
    <path
       id="path59"
       d="m 4907.78,6501.21 h 127.473 v 127.477 H 4907.78 Z"
       style="fill:none;stroke:#000000;stroke-width:7.96717;stroke-linecap:butt;stroke-linejoin:miter;stroke-miterlimit:10;stroke-dasharray:none;stroke-opacity:1"
       transform="matrix(0.13333333,0,0,-0.13333333,0,1056)" />
    <path
       id="path60"
       d="M 0.91544531,-8.984375e-4 H 4.5716953 c 0.9375,0 1.5703125,-0.1757812525 2.0507813,-0.5859375025 0.4921875,-0.42187496 0.8085937,-1.10156246 0.8085937,-1.75781246 0,-0.796875 -0.421875,-1.4414063 -1.3476562,-1.96875 0.796875,-0.515625 1.1132812,-0.984375 1.1132812,-1.6757813 0,-0.5742187 -0.28125,-1.1484375 -0.7382812,-1.5585937 C 5.9779453,-7.9579297 5.4154453,-8.1337109 4.5365391,-8.1337109 H 0.91544531 Z M 2.5912266,-6.7391797 h 1.8164062 c 0.7851563,0 1.1835938,0.3164063 1.1835938,0.9140625 0,0.609375 -0.3984375,0.9257813 -1.1835938,0.9257813 H 2.5912266 Z m 0,3.234375 h 1.9921875 c 0.8203125,0 1.2421875,0.3632813 1.2421875,1.0664063 0,0.6914062 -0.421875,1.0429687 -1.2421875,1.0429687 H 2.5912266 Z m 0,0"
       style="fill:#000000;fill-opacity:1;fill-rule:nonzero;stroke:none"
       aria-label="B"
       transform="matrix(1.3333333,0,0,1.3333333,658.088,184.60667)" />
    <path
       id="path61"
       d="m 4907.78,6246.26 h 127.473 v 127.473 H 4907.78 Z"
       style="fill:none;stroke:#000000;stroke-width:7.96717;stroke-linecap:butt;stroke-linejoin:miter;stroke-miterlimit:10;stroke-dasharray:none;stroke-opacity:1"
       transform="matrix(0.13333333,0,0,-0.13333333,0,1056)" />
    <path
       id="path62"
       d="M 7.6065391,-5.3777344 C 7.5596641,-6.0808594 7.4073203,-6.5261719 7.0674766,-6.9832031 6.4346641,-7.8035156 5.4385703,-8.2605469 4.2198203,-8.2605469 c -2.296875,0 -3.72656249,1.640625 -3.72656249,4.265625 0,2.625 1.41796879,4.25390627 3.67968749,4.25390627 2.0273438,0 3.375,-1.171875 3.46875,-3.03515627 H 6.0127891 c -0.1054688,1.03125 -0.7617188,1.6289063 -1.7929688,1.6289063 -1.3007812,0 -2.0507812,-1.0546875 -2.0507812,-2.8242188 0,-1.7929687 0.7851562,-2.8710937 2.109375,-2.8710937 0.9609375,0 1.5117187,0.46875 1.734375,1.4648437 z m 0,0"
       style="fill:#000000;fill-opacity:1;fill-rule:nonzero;stroke:none"
       aria-label="C"
       transform="matrix(1.3333333,0,0,1.3333333,656.49467,218.6)" />
    <path
       id="path63"
       d="m 4401.86,6246.26 h 764.85"
       style="fill:none;stroke:#000000;stroke-width:7.96717;stroke-linecap:butt;stroke-linejoin:miter;stroke-miterlimit:10;stroke-dasharray:none;stroke-opacity:1"
       transform="matrix(0.13333333,0,0,-0.13333333,0,1056)" />
    <path
       id="path64"
       d="m 4525.35,5417.68 h 127.477 v 127.477 H 4525.35 Z"
       style="fill:none;stroke:#000000;stroke-width:7.96717;stroke-linecap:butt;stroke-linejoin:miter;stroke-miterlimit:10;stroke-dasharray:none;stroke-opacity:1"
       transform="matrix(0.13333333,0,0,-0.13333333,0,1056)" />
    <path
       id="path65"
       d="M 5.5890859,-1.6400313 6.1281484,5.9375e-4 h 1.7109375 l -2.8125,-8.13281255 H 3.1750234 L 0.29221094,5.9375e-4 H 1.9914297 L 2.5422109,-1.6400313 Z M 5.1320547,-3.0345625 H 3.0109609 l 1.0546875,-3.1757813 z m 0,0"
       style="fill:#000000;fill-opacity:1;fill-rule:nonzero;stroke:none"
       aria-label="A"
       transform="matrix(1.3333333,0,0,1.3333333,607.09867,329.07733)" />
    <path
       id="path66"
       d="m 4525.35,5545.15 h 127.477 v 127.477 H 4525.35 Z"
       style="fill:none;stroke:#000000;stroke-width:7.96717;stroke-linecap:butt;stroke-linejoin:miter;stroke-miterlimit:10;stroke-dasharray:none;stroke-opacity:1"
       transform="matrix(0.13333333,0,0,-0.13333333,0,1056)" />
    <path
       id="path67"
       d="M 0.91330469,5.234375e-4 H 4.5695547 c 0.9375,0 1.5703125,-0.1757812475 2.0507812,-0.5859374975 0.4921875,-0.42187504 0.8085938,-1.10156254 0.8085938,-1.75781254 0,-0.796875 -0.421875,-1.4414062 -1.3476563,-1.96875 0.796875,-0.515625 1.1132813,-0.984375 1.1132813,-1.6757812 0,-0.5742188 -0.28125,-1.1484375 -0.7382813,-1.5585938 C 5.9758047,-7.9565078 5.4133047,-8.1322891 4.5343984,-8.1322891 H 0.91330469 Z M 2.5890859,-6.7377578 h 1.8164063 c 0.7851562,0 1.1835937,0.3164062 1.1835937,0.9140625 0,0.609375 -0.3984375,0.9257812 -1.1835937,0.9257812 H 2.5890859 Z m 0,3.234375 h 1.9921875 c 0.8203125,0 1.2421875,0.3632812 1.2421875,1.0664062 0,0.6914063 -0.421875,1.0429688 -1.2421875,1.0429688 H 2.5890859 Z m 0,0"
       style="fill:#000000;fill-opacity:1;fill-rule:nonzero;stroke:none"
       aria-label="B"
       transform="matrix(1.3333333,0,0,1.3333333,607.09867,312.08133)" />
    <path
       id="path68"
       d="m 4525.35,5672.63 h 127.477 v 127.477 H 4525.35 Z"
       style="fill:none;stroke:#000000;stroke-width:7.96717;stroke-linecap:butt;stroke-linejoin:miter;stroke-miterlimit:10;stroke-dasharray:none;stroke-opacity:1"
       transform="matrix(0.13333333,0,0,-0.13333333,0,1056)" />
    <path
       id="path69"
       d="M 7.6043984,-5.3774531 C 7.5575234,-6.0805781 7.4051797,-6.5258906 7.0653359,-6.9829219 6.4325234,-7.8032344 5.4364297,-8.2602656 4.2176797,-8.2602656 c -2.296875,0 -3.72656251,1.640625 -3.72656251,4.265625 0,2.625 1.41796871,4.25390622 3.67968751,4.25390622 2.0273437,0 3.375,-1.171875 3.46875,-3.03515622 H 6.0106484 c -0.1054687,1.03125 -0.7617187,1.6289062 -1.7929687,1.6289062 -1.3007813,0 -2.0507813,-1.0546875 -2.0507813,-2.8242187 0,-1.7929688 0.7851563,-2.8710938 2.109375,-2.8710938 0.9609375,0 1.5117188,0.46875 1.734375,1.4648438 z m 0,0"
       style="fill:#000000;fill-opacity:1;fill-rule:nonzero;stroke:none"
       aria-label="C"
       transform="matrix(1.3333333,0,0,1.3333333,605.50533,295.084)" />
    <path
       id="path70"
       d="m 4401.86,5417.68 h 764.85"
       style="fill:none;stroke:#000000;stroke-width:7.96717;stroke-linecap:butt;stroke-linejoin:miter;stroke-miterlimit:10;stroke-dasharray:none;stroke-opacity:1"
       transform="matrix(0.13333333,0,0,-0.13333333,0,1056)" />
    <path
       id="path71"
       d="m 4907.78,4780.3 h 127.473 v 127.477 H 4907.78 Z"
       style="fill:none;stroke:#000000;stroke-width:7.96717;stroke-linecap:butt;stroke-linejoin:miter;stroke-miterlimit:10;stroke-dasharray:none;stroke-opacity:1"
       transform="matrix(0.13333333,0,0,-0.13333333,0,1056)" />
    <path
       id="path72"
       d="m 5.5912266,-1.6416797 0.5390625,1.64062501 h 1.7109375 l -2.8125,-8.13281251 H 3.1771641 L 0.29435156,-0.00105469 H 1.9935703 L 2.5443516,-1.6416797 Z M 5.1341953,-3.0362109 H 3.0131016 l 1.0546875,-3.1757813 z m 0,0"
       style="fill:#000000;fill-opacity:1;fill-rule:nonzero;stroke:none"
       aria-label="A"
       transform="matrix(1.3333333,0,0,1.3333333,658.088,414.06)" />
    <path
       id="path73"
       d="m 4907.78,4652.83 h 127.473 v 127.473 H 4907.78 Z"
       style="fill:none;stroke:#000000;stroke-width:7.96717;stroke-linecap:butt;stroke-linejoin:miter;stroke-miterlimit:10;stroke-dasharray:none;stroke-opacity:1"
       transform="matrix(0.13333333,0,0,-0.13333333,0,1056)" />
    <path
       id="path74"
       d="M 0.91544531,9.453125e-4 H 4.5716953 c 0.9375,0 1.5703125,-0.1757812525 2.0507813,-0.5859375025 0.4921875,-0.42187501 0.8085937,-1.10156251 0.8085937,-1.75781251 0,-0.796875 -0.421875,-1.4414062 -1.3476562,-1.96875 0.796875,-0.515625 1.1132812,-0.984375 1.1132812,-1.6757812 0,-0.5742188 -0.28125,-1.1484375 -0.7382812,-1.5585938 C 5.9779453,-7.9560859 5.4154453,-8.1318672 4.5365391,-8.1318672 H 0.91544531 Z M 2.5912266,-6.7373359 h 1.8164062 c 0.7851563,0 1.1835938,0.3164062 1.1835938,0.9140625 0,0.609375 -0.3984375,0.9257812 -1.1835938,0.9257812 H 2.5912266 Z m 0,3.234375 h 1.9921875 c 0.8203125,0 1.2421875,0.3632812 1.2421875,1.0664062 0,0.6914063 -0.421875,1.0429688 -1.2421875,1.0429688 H 2.5912266 Z m 0,0"
       style="fill:#000000;fill-opacity:1;fill-rule:nonzero;stroke:none"
       aria-label="B"
       transform="matrix(1.3333333,0,0,1.3333333,658.088,431.05733)" />
    <path
       id="path75"
       d="m 4907.78,4525.35 h 127.473 v 127.477 H 4907.78 Z"
       style="fill:none;stroke:#000000;stroke-width:7.96717;stroke-linecap:butt;stroke-linejoin:miter;stroke-miterlimit:10;stroke-dasharray:none;stroke-opacity:1"
       transform="matrix(0.13333333,0,0,-0.13333333,0,1056)" />
    <path
       id="path76"
       d="M 7.6065391,-5.3778906 C 7.5596641,-6.0810156 7.4073203,-6.5263281 7.0674766,-6.9833594 6.4346641,-7.8036719 5.4385703,-8.2607031 4.2198203,-8.2607031 c -2.296875,0 -3.72656249,1.640625 -3.72656249,4.265625 0,2.625 1.41796879,4.25390622 3.67968749,4.25390622 2.0273438,0 3.375,-1.171875 3.46875,-3.03515622 H 6.0127891 c -0.1054688,1.03125 -0.7617188,1.6289062 -1.7929688,1.6289062 -1.3007812,0 -2.0507812,-1.0546875 -2.0507812,-2.8242187 0,-1.7929688 0.7851562,-2.8710938 2.109375,-2.8710938 0.9609375,0 1.5117187,0.46875 1.734375,1.4648438 z m 0,0"
       style="fill:#000000;fill-opacity:1;fill-rule:nonzero;stroke:none"
       aria-label="C"
       transform="matrix(1.3333333,0,0,1.3333333,656.49467,448.05333)" />
    <path
       id="path77"
       d="m 4401.86,4525.35 h 764.85"
       style="fill:none;stroke:#000000;stroke-width:7.96717;stroke-linecap:butt;stroke-linejoin:miter;stroke-miterlimit:10;stroke-dasharray:none;stroke-opacity:1"
       transform="matrix(0.13333333,0,0,-0.13333333,0,1056)" />
    <path
       id="path78"
       d="m 4525.35,3696.77 h 127.477 v 127.477 H 4525.35 Z"
       style="fill:none;stroke:#000000;stroke-width:7.96717;stroke-linecap:butt;stroke-linejoin:miter;stroke-miterlimit:10;stroke-dasharray:none;stroke-opacity:1"
       transform="matrix(0.13333333,0,0,-0.13333333,0,1056)" />
    <path
       id="path79"
       d="m 5.5890859,-1.6411875 0.5390625,1.640625 h 1.7109375 l -2.8125,-8.1328125 H 3.1750234 L 0.29221094,-5.625e-4 H 1.9914297 l 0.5507812,-1.640625 z M 5.1320547,-3.0357188 H 3.0109609 L 4.0656484,-6.2115 Z m 0,0"
       style="fill:#000000;fill-opacity:1;fill-rule:nonzero;stroke:none"
       aria-label="A"
       transform="matrix(1.3333333,0,0,1.3333333,607.09867,558.532)" />
    <path
       id="path80"
       d="m 4525.35,3951.71 h 127.477 v 127.477 H 4525.35 Z"
       style="fill:none;stroke:#000000;stroke-width:7.96717;stroke-linecap:butt;stroke-linejoin:miter;stroke-miterlimit:10;stroke-dasharray:none;stroke-opacity:1"
       transform="matrix(0.13333333,0,0,-0.13333333,0,1056)" />
    <path
       id="path81"
       d="M 0.91330469,2.96875e-4 H 4.5695547 c 0.9375,0 1.5703125,-0.175781255 2.0507812,-0.585937505 0.4921875,-0.42187497 0.8085938,-1.10156247 0.8085938,-1.75781247 0,-0.796875 -0.421875,-1.4414063 -1.3476563,-1.96875 0.796875,-0.515625 1.1132813,-0.984375 1.1132813,-1.6757813 0,-0.5742187 -0.28125,-1.1484375 -0.7382813,-1.5585937 C 5.9758047,-7.9567344 5.4133047,-8.1325156 4.5343984,-8.1325156 H 0.91330469 Z M 2.5890859,-6.7379844 h 1.8164063 c 0.7851562,0 1.1835937,0.3164063 1.1835937,0.9140625 0,0.609375 -0.3984375,0.9257813 -1.1835937,0.9257813 H 2.5890859 Z m 0,3.234375 h 1.9921875 c 0.8203125,0 1.2421875,0.3632813 1.2421875,1.0664063 0,0.6914062 -0.421875,1.0429687 -1.2421875,1.0429687 H 2.5890859 Z m 0,0"
       style="fill:#000000;fill-opacity:1;fill-rule:nonzero;stroke:none"
       aria-label="B"
       transform="matrix(1.3333333,0,0,1.3333333,607.09867,524.53867)" />
    <path
       id="path82"
       d="m 4525.35,3824.24 h 127.477 v 127.473 H 4525.35 Z"
       style="fill:none;stroke:#000000;stroke-width:7.96717;stroke-linecap:butt;stroke-linejoin:miter;stroke-miterlimit:10;stroke-dasharray:none;stroke-opacity:1"
       transform="matrix(0.13333333,0,0,-0.13333333,0,1056)" />
    <path
       id="path83"
       d="M 7.6043984,-5.3795391 C 7.5575234,-6.0826641 7.4051797,-6.5279766 7.0653359,-6.9850078 6.4325234,-7.8053203 5.4364297,-8.2623516 4.2176797,-8.2623516 c -2.296875,0 -3.72656251,1.640625 -3.72656251,4.265625 0,2.625 1.41796871,4.25390629 3.67968751,4.25390629 2.0273437,0 3.375,-1.171875 3.46875,-3.03515629 H 6.0106484 c -0.1054687,1.03125 -0.7617187,1.6289063 -1.7929687,1.6289063 -1.3007813,0 -2.0507813,-1.0546875 -2.0507813,-2.8242188 0,-1.7929687 0.7851563,-2.8710937 2.109375,-2.8710937 0.9609375,0 1.5117188,0.46875 1.734375,1.4648437 z m 0,0"
       style="fill:#000000;fill-opacity:1;fill-rule:nonzero;stroke:none"
       aria-label="C"
       transform="matrix(1.3333333,0,0,1.3333333,605.50533,541.536)" />
    <path
       id="path84"
       d="m 4401.86,3696.77 h 764.85"
       style="fill:none;stroke:#000000;stroke-width:7.96717;stroke-linecap:butt;stroke-linejoin:miter;stroke-miterlimit:10;stroke-dasharray:none;stroke-opacity:1"
       transform="matrix(0.13333333,0,0,-0.13333333,0,1056)" />
    <path
       id="path85"
       d="m 4716.57,3059.39 h 127.473 v 127.473 H 4716.57 Z"
       style="fill:none;stroke:#000000;stroke-width:7.96717;stroke-linecap:butt;stroke-linejoin:miter;stroke-miterlimit:10;stroke-dasharray:none;stroke-opacity:1"
       transform="matrix(0.13333333,0,0,-0.13333333,0,1056)" />
    <path
       id="path86"
       d="M 5.5901563,-1.6399063 6.1292188,7.1875e-4 h 1.7109375 l -2.8125,-8.13281255 H 3.1760938 L 0.29328125,7.1875e-4 H 1.9925 L 2.5432813,-1.6399063 Z M 5.133125,-3.0344375 H 3.0120313 l 1.0546875,-3.1757813 z m 0,0"
       style="fill:#000000;fill-opacity:1;fill-rule:nonzero;stroke:none"
       aria-label="A"
       transform="matrix(1.3333333,0,0,1.3333333,632.59333,643.51467)" />
    <path
       id="path87"
       d="m 4716.57,2804.45 h 127.473 v 127.473 H 4716.57 Z"
       style="fill:none;stroke:#000000;stroke-width:7.96717;stroke-linecap:butt;stroke-linejoin:miter;stroke-miterlimit:10;stroke-dasharray:none;stroke-opacity:1"
       transform="matrix(0.13333333,0,0,-0.13333333,0,1056)" />
    <path
       id="path88"
       d="m 0.914375,-1.40625e-4 h 3.65625 c 0.9375,0 1.5703125,-0.175781255 2.0507813,-0.585937505 C 7.1135938,-1.0079531 7.43,-1.6876406 7.43,-2.3438906 c 0,-0.796875 -0.421875,-1.4414063 -1.3476562,-1.96875 0.796875,-0.515625 1.1132812,-0.984375 1.1132812,-1.6757813 0,-0.5742187 -0.28125,-1.1484375 -0.7382812,-1.5585937 C 5.976875,-7.9571719 5.414375,-8.1329531 4.5354688,-8.1329531 H 0.914375 Z M 2.5901563,-6.7384219 h 1.8164062 c 0.7851563,0 1.1835938,0.3164063 1.1835938,0.9140625 0,0.609375 -0.3984375,0.9257813 -1.1835938,0.9257813 H 2.5901563 Z m 0,3.234375 h 1.9921875 c 0.8203125,0 1.2421875,0.3632813 1.2421875,1.0664063 0,0.6914062 -0.421875,1.0429687 -1.2421875,1.0429687 H 2.5901563 Z m 0,0"
       style="fill:#000000;fill-opacity:1;fill-rule:nonzero;stroke:none"
       aria-label="B"
       transform="matrix(1.3333333,0,0,1.3333333,632.59333,677.508)" />
    <path
       id="path89"
       d="m 4716.57,2931.92 h 127.473 v 127.477 H 4716.57 Z"
       style="fill:none;stroke:#000000;stroke-width:7.96717;stroke-linecap:butt;stroke-linejoin:miter;stroke-miterlimit:10;stroke-dasharray:none;stroke-opacity:1"
       transform="matrix(0.13333333,0,0,-0.13333333,0,1056)" />
    <path
       id="path90"
       d="M 7.6054687,-5.3791172 C 7.5585937,-6.0822422 7.40625,-6.5275547 7.0664062,-6.9845859 6.4335937,-7.8048984 5.4375,-8.2619297 4.21875,-8.2619297 c -2.296875,0 -3.7265625,1.640625 -3.7265625,4.265625 0,2.625 1.4179687,4.25390626 3.6796875,4.25390626 2.0273437,0 3.375,-1.171875 3.46875,-3.03515626 H 6.0117187 C 5.90625,-1.7463047 5.25,-1.1486484 4.21875,-1.1486484 c -1.3007812,0 -2.0507812,-1.0546875 -2.0507812,-2.8242188 0,-1.7929687 0.7851562,-2.8710937 2.1093749,-2.8710937 0.9609375,0 1.5117188,0.46875 1.734375,1.4648437 z m 0,0"
       style="fill:#000000;fill-opacity:1;fill-rule:nonzero;stroke:none"
       aria-label="C"
       transform="matrix(1.3333333,0,0,1.3333333,631,660.512)" />
    <path
       id="path91"
       d="m 4401.86,2804.45 h 764.85"
       style="fill:none;stroke:#000000;stroke-width:7.96717;stroke-linecap:butt;stroke-linejoin:miter;stroke-miterlimit:10;stroke-dasharray:none;stroke-opacity:1"
       transform="matrix(0.13333333,0,0,-0.13333333,0,1056)" />
    <path
       id="path92"
       d="m 3445.8,7329.8 h 828.59"
       style="fill:none;stroke:#b3b3b3;stroke-width:15.9343;stroke-linecap:butt;stroke-linejoin:miter;stroke-miterlimit:10;stroke-dasharray:none;stroke-opacity:1"
       transform="matrix(0.13333333,0,0,-0.13333333,0,1056)" />
    <path
       id="path93"
       d="m 3525.47,7309.88 -79.67,19.92 79.67,19.91"
       style="fill:none;stroke:#b3b3b3;stroke-width:15.9343;stroke-linecap:butt;stroke-linejoin:miter;stroke-miterlimit:10;stroke-dasharray:none;stroke-opacity:1"
       transform="matrix(0.13333333,0,0,-0.13333333,0,1056)" />
    <path
       id="path94"
       d="m 4194.71,7349.71 79.68,-19.91 -79.68,-19.92"
       style="fill:none;stroke:#b3b3b3;stroke-width:15.9343;stroke-linecap:butt;stroke-linejoin:miter;stroke-miterlimit:10;stroke-dasharray:none;stroke-opacity:1"
       transform="matrix(0.13333333,0,0,-0.13333333,0,1056)" />
    <path
       id="path95"
       d="m 3445.8,6437.47 h 828.59"
       style="fill:none;stroke:#b3b3b3;stroke-width:15.9343;stroke-linecap:butt;stroke-linejoin:miter;stroke-miterlimit:10;stroke-dasharray:none;stroke-opacity:1"
       transform="matrix(0.13333333,0,0,-0.13333333,0,1056)" />
    <path
       id="path96"
       d="m 3525.47,6417.55 -79.67,19.92 79.67,19.92"
       style="fill:none;stroke:#b3b3b3;stroke-width:15.9343;stroke-linecap:butt;stroke-linejoin:miter;stroke-miterlimit:10;stroke-dasharray:none;stroke-opacity:1"
       transform="matrix(0.13333333,0,0,-0.13333333,0,1056)" />
    <path
       id="path97"
       d="m 4194.71,6457.39 79.68,-19.92 -79.68,-19.92"
       style="fill:none;stroke:#b3b3b3;stroke-width:15.9343;stroke-linecap:butt;stroke-linejoin:miter;stroke-miterlimit:10;stroke-dasharray:none;stroke-opacity:1"
       transform="matrix(0.13333333,0,0,-0.13333333,0,1056)" />
    <path
       id="path98"
       d="m 3445.8,5608.89 h 828.59"
       style="fill:none;stroke:#cccccc;stroke-width:15.9343;stroke-linecap:butt;stroke-linejoin:miter;stroke-miterlimit:10;stroke-dasharray:none;stroke-opacity:1"
       transform="matrix(0.13333333,0,0,-0.13333333,0,1056)" />
    <path
       id="path99"
       d="m 3525.47,5588.97 -79.67,19.92 79.67,19.91"
       style="fill:none;stroke:#cccccc;stroke-width:15.9343;stroke-linecap:butt;stroke-linejoin:miter;stroke-miterlimit:10;stroke-dasharray:none;stroke-opacity:1"
       transform="matrix(0.13333333,0,0,-0.13333333,0,1056)" />
    <path
       id="path100"
       d="m 4194.71,5628.8 79.68,-19.91 -79.68,-19.92"
       style="fill:none;stroke:#cccccc;stroke-width:15.9343;stroke-linecap:butt;stroke-linejoin:miter;stroke-miterlimit:10;stroke-dasharray:none;stroke-opacity:1"
       transform="matrix(0.13333333,0,0,-0.13333333,0,1056)" />
    <path
       id="path101"
       d="m 3445.8,4716.57 h 828.59"
       style="fill:none;stroke:#b3b3b3;stroke-width:15.9343;stroke-linecap:butt;stroke-linejoin:miter;stroke-miterlimit:10;stroke-dasharray:none;stroke-opacity:1"
       transform="matrix(0.13333333,0,0,-0.13333333,0,1056)" />
    <path
       id="path102"
       d="m 3525.47,4696.65 -79.67,19.92 79.67,19.91"
       style="fill:none;stroke:#b3b3b3;stroke-width:15.9343;stroke-linecap:butt;stroke-linejoin:miter;stroke-miterlimit:10;stroke-dasharray:none;stroke-opacity:1"
       transform="matrix(0.13333333,0,0,-0.13333333,0,1056)" />
    <path
       id="path103"
       d="m 4194.71,4736.48 79.68,-19.91 -79.68,-19.92"
       style="fill:none;stroke:#b3b3b3;stroke-width:15.9343;stroke-linecap:butt;stroke-linejoin:miter;stroke-miterlimit:10;stroke-dasharray:none;stroke-opacity:1"
       transform="matrix(0.13333333,0,0,-0.13333333,0,1056)" />
    <path
       id="path104"
       d="m 3445.8,3887.98 h 828.59"
       style="fill:none;stroke:#b3b3b3;stroke-width:15.9343;stroke-linecap:butt;stroke-linejoin:miter;stroke-miterlimit:10;stroke-dasharray:none;stroke-opacity:1"
       transform="matrix(0.13333333,0,0,-0.13333333,0,1056)" />
    <path
       id="path105"
       d="m 3525.47,3868.06 -79.67,19.92 79.67,19.92"
       style="fill:none;stroke:#b3b3b3;stroke-width:15.9343;stroke-linecap:butt;stroke-linejoin:miter;stroke-miterlimit:10;stroke-dasharray:none;stroke-opacity:1"
       transform="matrix(0.13333333,0,0,-0.13333333,0,1056)" />
    <path
       id="path106"
       d="m 4194.71,3907.9 79.68,-19.92 -79.68,-19.92"
       style="fill:none;stroke:#b3b3b3;stroke-width:15.9343;stroke-linecap:butt;stroke-linejoin:miter;stroke-miterlimit:10;stroke-dasharray:none;stroke-opacity:1"
       transform="matrix(0.13333333,0,0,-0.13333333,0,1056)" />
    <path
       id="path107"
       d="m 3445.8,2995.66 h 828.59"
       style="fill:none;stroke:#b3b3b3;stroke-width:15.9343;stroke-linecap:butt;stroke-linejoin:miter;stroke-miterlimit:10;stroke-dasharray:none;stroke-opacity:1"
       transform="matrix(0.13333333,0,0,-0.13333333,0,1056)" />
    <path
       id="path108"
       d="m 3525.47,2975.74 -79.67,19.92 79.67,19.91"
       style="fill:none;stroke:#b3b3b3;stroke-width:15.9343;stroke-linecap:butt;stroke-linejoin:miter;stroke-miterlimit:10;stroke-dasharray:none;stroke-opacity:1"
       transform="matrix(0.13333333,0,0,-0.13333333,0,1056)" />
    <path
       id="path109"
       d="m 4194.71,3015.57 79.68,-19.91 -79.68,-19.92"
       style="fill:none;stroke:#b3b3b3;stroke-width:15.9343;stroke-linecap:butt;stroke-linejoin:miter;stroke-miterlimit:10;stroke-dasharray:none;stroke-opacity:1"
       transform="matrix(0.13333333,0,0,-0.13333333,0,1056)" />
    <path
       id="path110"
       d="M 2935.9,7074.85 V 6501.21"
       style="fill:none;stroke:#b3b3b3;stroke-width:15.9343;stroke-linecap:butt;stroke-linejoin:miter;stroke-miterlimit:10;stroke-dasharray:none;stroke-opacity:1"
       transform="matrix(0.13333333,0,0,-0.13333333,0,1056)" />
    <path
       id="path111"
       d="m 2915.98,6995.18 19.92,79.67 19.92,-79.67"
       style="fill:none;stroke:#b3b3b3;stroke-width:15.9343;stroke-linecap:butt;stroke-linejoin:miter;stroke-miterlimit:10;stroke-dasharray:none;stroke-opacity:1"
       transform="matrix(0.13333333,0,0,-0.13333333,0,1056)" />
    <path
       id="path112"
       d="m 2955.82,6580.88 -19.92,-79.67 -19.92,79.67"
       style="fill:none;stroke:#b3b3b3;stroke-width:15.9343;stroke-linecap:butt;stroke-linejoin:miter;stroke-miterlimit:10;stroke-dasharray:none;stroke-opacity:1"
       transform="matrix(0.13333333,0,0,-0.13333333,0,1056)" />
    <path
       id="path113"
       d="M 2935.9,5353.94 V 4780.3"
       style="fill:none;stroke:#b3b3b3;stroke-width:15.9343;stroke-linecap:butt;stroke-linejoin:miter;stroke-miterlimit:10;stroke-dasharray:none;stroke-opacity:1"
       transform="matrix(0.13333333,0,0,-0.13333333,0,1056)" />
    <path
       id="path114"
       d="m 2915.98,5274.27 19.92,79.67 19.92,-79.67"
       style="fill:none;stroke:#b3b3b3;stroke-width:15.9343;stroke-linecap:butt;stroke-linejoin:miter;stroke-miterlimit:10;stroke-dasharray:none;stroke-opacity:1"
       transform="matrix(0.13333333,0,0,-0.13333333,0,1056)" />
    <path
       id="path115"
       d="m 2955.82,4859.97 -19.92,-79.67 -19.92,79.67"
       style="fill:none;stroke:#b3b3b3;stroke-width:15.9343;stroke-linecap:butt;stroke-linejoin:miter;stroke-miterlimit:10;stroke-dasharray:none;stroke-opacity:1"
       transform="matrix(0.13333333,0,0,-0.13333333,0,1056)" />
    <path
       id="path116"
       d="m 2935.9,3633.03 v -509.9"
       style="fill:none;stroke:#b3b3b3;stroke-width:15.9343;stroke-linecap:butt;stroke-linejoin:miter;stroke-miterlimit:10;stroke-dasharray:none;stroke-opacity:1"
       transform="matrix(0.13333333,0,0,-0.13333333,0,1056)" />
    <path
       id="path117"
       d="m 2915.98,3553.36 19.92,79.67 19.92,-79.67"
       style="fill:none;stroke:#b3b3b3;stroke-width:15.9343;stroke-linecap:butt;stroke-linejoin:miter;stroke-miterlimit:10;stroke-dasharray:none;stroke-opacity:1"
       transform="matrix(0.13333333,0,0,-0.13333333,0,1056)" />
    <path
       id="path118"
       d="m 2955.82,3202.8 -19.92,-79.67 -19.92,79.67"
       style="fill:none;stroke:#b3b3b3;stroke-width:15.9343;stroke-linecap:butt;stroke-linejoin:miter;stroke-miterlimit:10;stroke-dasharray:none;stroke-opacity:1"
       transform="matrix(0.13333333,0,0,-0.13333333,0,1056)" />
    <path
       id="path119"
       d="m 1593.43,4971.52 892.33,-318.69"
       style="fill:none;stroke:#b3b3b3;stroke-width:15.9343;stroke-linecap:butt;stroke-linejoin:miter;stroke-miterlimit:10;stroke-dasharray:none;stroke-opacity:1"
       transform="matrix(0.13333333,0,0,-0.13333333,0,1056)" />
    <path
       id="path120"
       d="m 1661.77,4925.96 -68.34,45.56 81.73,-8.05"
       style="fill:none;stroke:#b3b3b3;stroke-width:15.9343;stroke-linecap:butt;stroke-linejoin:miter;stroke-miterlimit:10;stroke-dasharray:none;stroke-opacity:1"
       transform="matrix(0.13333333,0,0,-0.13333333,0,1056)" />
    <path
       id="path121"
       d="m 2417.43,4698.38 68.33,-45.55 -81.73,8.04"
       style="fill:none;stroke:#b3b3b3;stroke-width:15.9343;stroke-linecap:butt;stroke-linejoin:miter;stroke-miterlimit:10;stroke-dasharray:none;stroke-opacity:1"
       transform="matrix(0.13333333,0,0,-0.13333333,0,1056)" />
    <path
       id="path122"
       d="m 1593.43,5035.25 892.33,509.9"
       style="fill:none;stroke:#b3b3b3;stroke-width:15.9343;stroke-linecap:butt;stroke-linejoin:miter;stroke-miterlimit:10;stroke-dasharray:none;stroke-opacity:1"
       transform="matrix(0.13333333,0,0,-0.13333333,0,1056)" />
    <path
       id="path123"
       d="m 1672.49,5057.48 -79.06,-22.23 59.3,56.82"
       style="fill:none;stroke:#b3b3b3;stroke-width:15.9343;stroke-linecap:butt;stroke-linejoin:miter;stroke-miterlimit:10;stroke-dasharray:none;stroke-opacity:1"
       transform="matrix(0.13333333,0,0,-0.13333333,0,1056)" />
    <path
       id="path124"
       d="m 2406.7,5522.91 79.06,22.24 -59.3,-56.82"
       style="fill:none;stroke:#b3b3b3;stroke-width:15.9343;stroke-linecap:butt;stroke-linejoin:miter;stroke-miterlimit:10;stroke-dasharray:none;stroke-opacity:1"
       transform="matrix(0.13333333,0,0,-0.13333333,0,1056)" />
    <path
       id="path125"
       d="m 1593.43,5098.99 892.33,1274.75"
       style="fill:none;stroke:#b3b3b3;stroke-width:15.9343;stroke-linecap:butt;stroke-linejoin:miter;stroke-miterlimit:10;stroke-dasharray:none;stroke-opacity:1"
       transform="matrix(0.13333333,0,0,-0.13333333,0,1056)" />
    <path
       id="path126"
       d="m 1655.44,5152.84 -62.01,-53.85 29.37,76.69"
       style="fill:none;stroke:#b3b3b3;stroke-width:15.9343;stroke-linecap:butt;stroke-linejoin:miter;stroke-miterlimit:10;stroke-dasharray:none;stroke-opacity:1"
       transform="matrix(0.13333333,0,0,-0.13333333,0,1056)" />
    <path
       id="path127"
       d="m 2423.75,6319.89 62.01,53.85 -29.37,-76.7"
       style="fill:none;stroke:#b3b3b3;stroke-width:15.9343;stroke-linecap:butt;stroke-linejoin:miter;stroke-miterlimit:10;stroke-dasharray:none;stroke-opacity:1"
       transform="matrix(0.13333333,0,0,-0.13333333,0,1056)" />
    <path
       id="path128"
       d="M 1593.43,4907.78 2485.76,3824.24"
       style="fill:none;stroke:#b3b3b3;stroke-width:15.9343;stroke-linecap:butt;stroke-linejoin:miter;stroke-miterlimit:10;stroke-dasharray:none;stroke-opacity:1"
       transform="matrix(0.13333333,0,0,-0.13333333,0,1056)" />
    <path
       id="path129"
       d="m 1628.71,4833.61 -35.28,74.17 66.03,-48.84"
       style="fill:none;stroke:#b3b3b3;stroke-width:15.9343;stroke-linecap:butt;stroke-linejoin:miter;stroke-miterlimit:10;stroke-dasharray:none;stroke-opacity:1"
       transform="matrix(0.13333333,0,0,-0.13333333,0,1056)" />
    <path
       id="path130"
       d="m 2450.48,3898.41 35.28,-74.17 -66.03,48.84"
       style="fill:none;stroke:#b3b3b3;stroke-width:15.9343;stroke-linecap:butt;stroke-linejoin:miter;stroke-miterlimit:10;stroke-dasharray:none;stroke-opacity:1"
       transform="matrix(0.13333333,0,0,-0.13333333,0,1056)" />
    <path
       id="path131"
       d="M 1593.43,4844.04 2485.76,2931.92"
       style="fill:none;stroke:#b3b3b3;stroke-width:15.9343;stroke-linecap:butt;stroke-linejoin:miter;stroke-miterlimit:10;stroke-dasharray:none;stroke-opacity:1"
       transform="matrix(0.13333333,0,0,-0.13333333,0,1056)" />
    <path
       id="path132"
       d="m 1609.08,4763.42 -15.65,80.62 51.75,-63.77"
       style="fill:none;stroke:#b3b3b3;stroke-width:15.9343;stroke-linecap:butt;stroke-linejoin:miter;stroke-miterlimit:10;stroke-dasharray:none;stroke-opacity:1"
       transform="matrix(0.13333333,0,0,-0.13333333,0,1056)" />
    <path
       id="path133"
       d="m 2470.11,3012.54 15.65,-80.62 -51.74,63.77"
       style="fill:none;stroke:#b3b3b3;stroke-width:15.9343;stroke-linecap:butt;stroke-linejoin:miter;stroke-miterlimit:10;stroke-dasharray:none;stroke-opacity:1"
       transform="matrix(0.13333333,0,0,-0.13333333,0,1056)" />
    <path
       id="path134"
       d="m 1593.43,5162.73 892.33,2103.33"
       style="fill:none;stroke:#b3b3b3;stroke-width:15.9343;stroke-linecap:butt;stroke-linejoin:miter;stroke-miterlimit:10;stroke-dasharray:none;stroke-opacity:1"
       transform="matrix(0.13333333,0,0,-0.13333333,0,1056)" />
    <path
       id="path135"
       d="m 1642.89,5228.29 -49.46,-65.56 12.78,81.12"
       style="fill:none;stroke:#b3b3b3;stroke-width:15.9343;stroke-linecap:butt;stroke-linejoin:miter;stroke-miterlimit:10;stroke-dasharray:none;stroke-opacity:1"
       transform="matrix(0.13333333,0,0,-0.13333333,0,1056)" />
    <path
       id="path136"
       d="m 2436.3,7200.49 49.46,65.57 -12.78,-81.13"
       style="fill:none;stroke:#b3b3b3;stroke-width:15.9343;stroke-linecap:butt;stroke-linejoin:miter;stroke-miterlimit:10;stroke-dasharray:none;stroke-opacity:1"
       transform="matrix(0.13333333,0,0,-0.13333333,0,1056)" />
    <path
       id="path137"
       d="M 5.9537578,-4.5830312 H 0.56313281 v 1.3242187 H 5.9537578 Z m 0,2.671875 H 0.56313281 v 1.3242187 H 5.9537578 Z m 7.0253902,-4.21875 c -1.851562,0 -2.976562,1.21875 -2.976562,3.1992187 0,1.98046875 1.125,3.1875 2.988281,3.1875 1.839844,0 2.976563,-1.20703125 2.976563,-3.1523437 0,-2.0390625 -1.113282,-3.234375 -2.988282,-3.234375 z m 0.01172,1.265625 c 0.855469,0 1.40625,0.7734375 1.40625,1.9570312 0,1.125 -0.574219,1.8984375 -1.40625,1.8984375 -0.855469,0 -1.417969,-0.7617187 -1.417969,-1.921875 0,-1.1601562 0.5625,-1.9335937 1.417969,-1.9335937 z m 5.642578,-1.1601563 H 17.074852 V 2.4365 h 1.558593 v -3.15234375 c 0.386719,0.66796875 0.925782,0.984375 1.675782,0.984375 1.453125,0 2.519531,-1.35937495 2.519531,-3.18749995 0,-0.8554688 -0.234375,-1.6992188 -0.644531,-2.2617188 -0.398438,-0.5625 -1.148438,-0.9492187 -1.875,-0.9492187 -0.75,0 -1.289063,0.328125 -1.675782,0.9960937 z m 1.324219,1.2070313 c 0.785156,0 1.3125,0.75 1.3125,1.9101562 0,1.1132813 -0.539062,1.8632813 -1.3125,1.8632813 -0.796875,0 -1.324219,-0.75 -1.324219,-1.875 0,-1.1484375 0.527344,-1.8984375 1.324219,-1.8984375 z m 9.134766,2.296875 c 0.01172,-0.140625 0.01172,-0.1875 0.01172,-0.2695313 0,-0.5976562 -0.09375,-1.1601562 -0.234375,-1.5820312 -0.398437,-1.0898438 -1.371093,-1.7578125 -2.589843,-1.7578125 -1.734375,0 -2.789063,1.2539062 -2.789063,3.2695312 0,1.93359375 1.042969,3.1171875 2.753906,3.1171875 1.347657,0 2.449219,-0.76171875 2.789063,-1.9570312 H 27.49868 C 27.31118,-1.21975 26.865867,-0.9385 26.303367,-0.9385 c -0.445312,0 -0.808594,-0.1875 -1.03125,-0.5273437 C 25.131492,-1.6885 25.072898,-1.9580312 25.049461,-2.5205312 Z M 25.072898,-3.5635 c 0.105469,-0.9257812 0.492188,-1.3710937 1.183594,-1.3710937 0.714844,0 1.136719,0.4804687 1.21875,1.3710937 z m 5.077149,-2.4609375 V -0.001 h 1.558594 v -3.1992187 c 0,-0.9140625 0.457031,-1.3710938 1.371093,-1.3710938 0.175782,0 0.28125,0.011719 0.492188,0.035156 v -1.5820313 c -0.08203,-0.011719 -0.117188,-0.011719 -0.1875,-0.011719 -0.714844,0 -1.324219,0.46875 -1.675781,1.2890625 V -6.0244375 Z M 39.633445,-0.1885 C 39.363914,-0.4463125 39.270164,-0.62209375 39.270164,-0.92678125 V -4.2783437 c 0,-1.21875 -0.832031,-1.8515625 -2.460937,-1.8515625 -1.628907,0 -2.472657,0.6914062 -2.578125,2.0859375 h 1.511718 c 0.07031,-0.6210938 0.328125,-0.8203125 1.101563,-0.8203125 0.597656,0 0.902344,0.1992187 0.902344,0.5976562 0,0.1992188 -0.105469,0.375 -0.269532,0.46875 -0.210937,0.1171875 -0.210937,0.1171875 -0.984375,0.234375 l -0.621093,0.1171875 c -1.195313,0.1992188 -1.769532,0.8085938 -1.769532,1.8984375 0,1.078125 0.726563,1.8046875 1.828125,1.8046875 0.667969,0 1.265625,-0.28125 1.828125,-0.85546875 0,0.3046875 0.03516,0.421875 0.175782,0.59765625 h 1.699218 z m -1.886718,-2.2382812 c 0,0.9140625 -0.445313,1.4179687 -1.242188,1.4179687 -0.515625,0 -0.84375,-0.2695312 -0.84375,-0.7265625 0,-0.46875 0.246094,-0.6914062 0.890625,-0.8203125 l 0.539063,-0.1054687 c 0.410156,-0.070312 0.480468,-0.09375 0.65625,-0.1875 z M 43.351219,-5.90725 H 42.472312 V -7.5244375 H 40.913719 V -5.90725 h -0.773438 v 1.0429688 h 0.773438 v 3.703125 c 0,0.9492187 0.503906,1.4179687 1.523437,1.4179687 0.363281,0 0.621094,-0.0351563 0.914063,-0.12890625 V -0.9619375 c -0.164063,0.0234375 -0.234375,0.0351563 -0.363282,0.0351563 -0.410156,0 -0.515625,-0.1171874 -0.515625,-0.6562499 v -3.28125 h 0.878907 z m 3.714843,-0.2226562 c -1.851562,0 -2.976562,1.21875 -2.976562,3.1992187 0,1.98046875 1.125,3.1875 2.988281,3.1875 1.839844,0 2.976563,-1.20703125 2.976563,-3.1523437 0,-2.0390625 -1.113282,-3.234375 -2.988282,-3.234375 z m 0.01172,1.265625 c 0.855469,0 1.40625,0.7734375 1.40625,1.9570312 0,1.125 -0.574219,1.8984375 -1.40625,1.8984375 -0.855469,0 -1.417969,-0.7617187 -1.417969,-1.921875 0,-1.1601562 0.5625,-1.9335937 1.417969,-1.9335937 z M 51.22036,-6.0244375 V -0.001 h 1.558594 v -3.1992187 c 0,-0.9140625 0.457031,-1.3710938 1.371094,-1.3710938 0.175781,0 0.28125,0.011719 0.492187,0.035156 v -1.5820313 c -0.08203,-0.011719 -0.117187,-0.011719 -0.1875,-0.011719 -0.714843,0 -1.324218,0.46875 -1.675781,1.2890625 v -1.1835938 z m 9.272461,1.9453125 c -0.02344,-1.2773437 -1.007812,-2.0507812 -2.625,-2.0507812 -1.523437,0 -2.472656,0.7734375 -2.472656,2.015625 0,0.3984375 0.117188,0.7382812 0.328125,0.9726562 0.210938,0.2226563 0.410156,0.3164063 0.984375,0.5039063 l 1.863281,0.5859375 c 0.386719,0.1171875 0.527344,0.2460937 0.527344,0.4921875 0,0.3632812 -0.433594,0.58593745 -1.160156,0.58593745 -0.410156,0 -0.726563,-0.0703124 -0.925781,-0.21093745 -0.175782,-0.1171875 -0.234375,-0.2460938 -0.304688,-0.5625 h -1.523437 c 0.03516,1.3242187 1.007812,2.0039062 2.835937,2.0039062 0.84375,0 1.476563,-0.17578125 1.921875,-0.5390625 0.445313,-0.3515625 0.714844,-0.9140625 0.714844,-1.5 0,-0.7851562 -0.386719,-1.2890625 -1.183594,-1.5234375 l -1.96875,-0.5625 c -0.445312,-0.140625 -0.550781,-0.2226562 -0.550781,-0.46875 0,-0.3398437 0.351562,-0.5625 0.902344,-0.5625 0.75,0 1.113281,0.2695313 1.125,0.8203125 z m 0,0"
       style="fill:#000000;fill-opacity:1;fill-rule:nonzero;stroke:none"
       aria-label="= operators"
       transform="matrix(1.3333333,0,0,1.3333333,178.464,711.50133)" />
    <path
       id="path138"
       d="m 701.109,2477.64 h 1329.83 v 437.914 H 701.109 Z"
       style="fill:none;stroke:#000000;stroke-width:7.96717;stroke-linecap:butt;stroke-linejoin:miter;stroke-miterlimit:10;stroke-dasharray:none;stroke-opacity:1"
       transform="matrix(0.13333333,0,0,-0.13333333,0,1056)" />
    <path
       id="path139"
       d="m 854.684,2746.88 h 83.2461 v 83.25 H 854.684 Z"
       style="fill:none;stroke:#000000;stroke-width:7.96717;stroke-linecap:butt;stroke-linejoin:miter;stroke-miterlimit:10;stroke-dasharray:none;stroke-opacity:1"
       transform="matrix(0.13333333,0,0,-0.13333333,0,1056)" />
    <path
       id="path140"
       d="m 3.6567891,-1.0671875 0.3398437,1.06640625 h 1.125 L 3.2935078,-5.309375 h -1.21875 L 0.18803906,-7.8125e-4 H 1.3013203 L 1.6646016,-1.0671875 Z M 3.3521016,-1.98125 H 1.9692891 l 0.6914062,-2.0742188 z m 0,0"
       style="fill:#000000;fill-opacity:1;fill-rule:nonzero;stroke:none"
       aria-label="A"
       transform="matrix(1.3333333,0,0,1.3333333,116.386,686.76667)" />
    <path
       id="path141"
       d="m 979.555,2746.88 h 83.25 v 83.25 h -83.25 z"
       style="fill:none;stroke:#000000;stroke-width:7.96717;stroke-linecap:butt;stroke-linejoin:miter;stroke-miterlimit:10;stroke-dasharray:none;stroke-opacity:1"
       transform="matrix(0.13333333,0,0,-0.13333333,0,1056)" />
    <path
       id="path142"
       d="M 0.59742344,-7.8125e-4 H 2.9880484 c 0.609375,0 1.0195313,-0.1171875 1.3359375,-0.38671875 0.328125,-0.26953125 0.5273438,-0.7148438 0.5273438,-1.1484375 0,-0.515625 -0.2695313,-0.9375 -0.8789063,-1.2890625 0.5273438,-0.328125 0.7265625,-0.6328125 0.7265625,-1.0898438 0,-0.375 -0.1757812,-0.75 -0.4804687,-1.0078125 C 3.9021109,-5.1921875 3.5388297,-5.309375 2.9646109,-5.309375 H 0.59742344 Z M 1.6872672,-4.4070313 h 1.1953125 c 0.5039062,0 0.7734375,0.2109375 0.7734375,0.5976563 0,0.4101562 -0.2695313,0.609375 -0.7734375,0.609375 H 1.6872672 Z m 0,2.1210938 h 1.3125 c 0.5273437,0 0.8085937,0.234375 0.8085937,0.6914062 0,0.4453125 -0.28125,0.67968755 -0.8085937,0.67968755 h -1.3125 z m 0,0"
       style="fill:#000000;fill-opacity:1;fill-rule:nonzero;stroke:none"
       aria-label="B"
       transform="matrix(1.3333333,0,0,1.3333333,133.03547,686.76667)" />
    <path
       id="path143"
       d="m 1104.43,2746.88 h 83.2461 v 83.25 H 1104.43 Z"
       style="fill:none;stroke:#000000;stroke-width:7.96717;stroke-linecap:butt;stroke-linejoin:miter;stroke-miterlimit:10;stroke-dasharray:none;stroke-opacity:1"
       transform="matrix(0.13333333,0,0,-0.13333333,0,1056)" />
    <path
       id="path144"
       d="m 4.9681484,-3.5164063 c -0.035156,-0.4570312 -0.1289062,-0.75 -0.3515625,-1.0429687 -0.4101562,-0.5390625 -1.0664062,-0.84375 -1.8632812,-0.84375 -1.5,0 -2.43750001,1.078125 -2.43750001,2.7890625 0,1.7109375 0.92578121,2.77734375 2.41406251,2.77734375 1.3242187,0 2.1914062,-0.76171875 2.2617187,-1.98046875 H 3.9251797 c -0.070312,0.6796875 -0.4921875,1.06640625 -1.171875,1.06640625 -0.84375,0 -1.3359375,-0.69140625 -1.3359375,-1.83984375 0,-1.1835938 0.515625,-1.875 1.3710937,-1.875 0.6328125,0 0.9960938,0.3046875 1.1367188,0.9492187 z m 0,0"
       style="fill:#000000;fill-opacity:1;fill-rule:nonzero;stroke:none"
       aria-label="C"
       transform="matrix(1.3333333,0,0,1.3333333,148.64533,686.76667)" />
    <path
       id="path145"
       d="M 774.035,2746.88 H 1273.53"
       style="fill:none;stroke:#000000;stroke-width:7.96717;stroke-linecap:butt;stroke-linejoin:miter;stroke-miterlimit:10;stroke-dasharray:none;stroke-opacity:1"
       transform="matrix(0.13333333,0,0,-0.13333333,0,1056)" />
    <path
       id="path146"
       d="M 5.9537578,-4.5811719 H 0.56313281 v 1.3242188 H 5.9537578 Z m 0,2.671875 H 0.56313281 v 1.32421877 H 5.9537578 Z m 9.2988282,-2.1679687 c -0.02344,-1.2773438 -1.007813,-2.0507813 -2.625,-2.0507813 -1.523438,0 -2.472656,0.7734375 -2.472656,2.015625 0,0.3984375 0.117187,0.7382813 0.328125,0.9726563 0.210937,0.2226562 0.410156,0.3164062 0.984375,0.5039062 l 1.863281,0.5859375 c 0.386719,0.1171875 0.527344,0.2460938 0.527344,0.4921875 0,0.3632813 -0.433594,0.58593752 -1.160157,0.58593752 -0.410156,0 -0.726562,-0.0703125 -0.925781,-0.21093752 -0.175781,-0.1171875 -0.234375,-0.2460937 -0.304687,-0.5625 H 9.9439922 c 0.035156,1.32421877 1.0078128,2.00390627 2.8359378,2.00390627 0.84375,0 1.476562,-0.17578125 1.921875,-0.5390625 0.445312,-0.3515625 0.714843,-0.91406247 0.714843,-1.49999997 0,-0.7851563 -0.386718,-1.2890625 -1.183593,-1.5234375 l -1.96875,-0.5625 c -0.445313,-0.140625 -0.550782,-0.2226563 -0.550782,-0.46875 0,-0.3398438 0.351563,-0.5625 0.902344,-0.5625 0.75,0 1.113281,0.2695312 1.125,0.8203125 z m 3.925781,-1.828125 h -0.878906 v -1.6171875 h -1.558594 v 1.6171875 H 15.96743 v 1.0429687 h 0.773437 v 3.703125 c 0,0.94921877 0.503906,1.41796877 1.523438,1.41796877 0.363281,0 0.621093,-0.0351563 0.914062,-0.12890625 v -1.08984375 c -0.164062,0.0234375 -0.234375,0.0351563 -0.363281,0.0351563 -0.410156,0 -0.515625,-0.11718747 -0.515625,-0.65625007 v -3.28125 h 0.878906 z m 6.199219,5.71874997 c -0.269531,-0.2578125 -0.363281,-0.43359375 -0.363281,-0.73828125 V -4.2764844 c 0,-1.21875 -0.832032,-1.8515625 -2.460938,-1.8515625 -1.628906,0 -2.472656,0.6914063 -2.578125,2.0859375 h 1.511719 c 0.07031,-0.6210937 0.328125,-0.8203125 1.101562,-0.8203125 0.597657,0 0.902344,0.1992188 0.902344,0.5976563 0,0.1992187 -0.105469,0.375 -0.269531,0.46875 -0.210938,0.1171875 -0.210938,0.1171875 -0.984375,0.234375 l -0.621094,0.1171875 c -1.195312,0.1992187 -1.769531,0.8085937 -1.769531,1.8984375 0,1.07812497 0.726562,1.80468747 1.828125,1.80468747 0.667969,0 1.265625,-0.28125 1.828125,-0.85546875 0,0.3046875 0.03516,0.421875 0.175781,0.597656255 h 1.699219 z M 23.490867,-2.4249219 c 0,0.9140625 -0.445312,1.4179688 -1.242187,1.4179688 -0.515625,0 -0.84375,-0.2695313 -0.84375,-0.7265625 0,-0.46875 0.246093,-0.6914063 0.890625,-0.8203125 l 0.539062,-0.1054688 c 0.410156,-0.070312 0.480469,-0.09375 0.65625,-0.1875 z m 5.604492,-3.4804687 h -0.878906 v -1.6171875 h -1.558594 v 1.6171875 h -0.773437 v 1.0429687 h 0.773437 v 3.703125 c 0,0.94921877 0.503907,1.41796877 1.523438,1.41796877 0.363281,0 0.621094,-0.0351563 0.914062,-0.12890625 v -1.08984375 c -0.164062,0.0234375 -0.234375,0.0351563 -0.363281,0.0351563 -0.410156,0 -0.515625,-0.11718747 -0.515625,-0.65625007 v -3.28125 h 0.878906 z m 6.199219,3.3867187 c 0.01172,-0.140625 0.01172,-0.1875 0.01172,-0.2695312 0,-0.5976563 -0.09375,-1.1601563 -0.234375,-1.5820313 -0.398438,-1.0898437 -1.371094,-1.7578125 -2.589844,-1.7578125 -1.734375,0 -2.789062,1.2539063 -2.789062,3.2695313 0,1.93359372 1.042968,3.11718747 2.753906,3.11718747 1.347656,0 2.449219,-0.76171875 2.789062,-1.95703127 h -1.535156 c -0.1875,0.4804688 -0.632812,0.76171877 -1.195312,0.76171877 -0.445313,0 -0.808594,-0.18749997 -1.03125,-0.52734377 -0.140625,-0.2226562 -0.199219,-0.4921875 -0.222657,-1.0546875 z m -4.019531,-1.0429687 c 0.105469,-0.9257813 0.492187,-1.3710938 1.183594,-1.3710938 0.714843,0 1.136718,0.4804688 1.21875,1.3710938 z m 10.010742,-0.515625 c -0.02344,-1.2773438 -1.007812,-2.0507813 -2.625,-2.0507813 -1.523437,0 -2.472656,0.7734375 -2.472656,2.015625 0,0.3984375 0.117187,0.7382813 0.328125,0.9726563 0.210937,0.2226562 0.410156,0.3164062 0.984375,0.5039062 l 1.863281,0.5859375 c 0.386719,0.1171875 0.527344,0.2460938 0.527344,0.4921875 0,0.3632813 -0.433594,0.58593752 -1.160156,0.58593752 -0.410157,0 -0.726563,-0.0703125 -0.925782,-0.21093752 -0.175781,-0.1171875 -0.234375,-0.2460937 -0.304687,-0.5625 h -1.523438 c 0.03516,1.32421877 1.007813,2.00390627 2.835938,2.00390627 0.84375,0 1.476562,-0.17578125 1.921875,-0.5390625 0.445312,-0.3515625 0.714844,-0.91406247 0.714844,-1.49999997 0,-0.7851563 -0.386719,-1.2890625 -1.183594,-1.5234375 l -1.96875,-0.5625 c -0.445313,-0.140625 -0.550781,-0.2226563 -0.550781,-0.46875 0,-0.3398438 0.351562,-0.5625 0.902343,-0.5625 0.75,0 1.113282,0.2695312 1.125,0.8203125 z m 0,0"
       style="fill:#000000;fill-opacity:1;fill-rule:nonzero;stroke:none"
       aria-label="= states"
       transform="matrix(1.3333333,0,0,1.3333333,178.464,686.00667)" />
    <path
       id="path147"
       d="M 764.848,2597.3 H 1274.75"
       style="fill:none;stroke:#b3b3b3;stroke-width:15.9343;stroke-linecap:butt;stroke-linejoin:miter;stroke-miterlimit:10;stroke-dasharray:none;stroke-opacity:1"
       transform="matrix(0.13333333,0,0,-0.13333333,0,1056)" />
    <path
       id="path148"
       d="m 844.52,2577.38 -79.672,19.92 79.672,19.91"
       style="fill:none;stroke:#b3b3b3;stroke-width:15.9343;stroke-linecap:butt;stroke-linejoin:miter;stroke-miterlimit:10;stroke-dasharray:none;stroke-opacity:1"
       transform="matrix(0.13333333,0,0,-0.13333333,0,1056)" />
    <path
       id="path149"
       d="m 1195.07,2617.21 79.68,-19.91 -79.68,-19.92"
       style="fill:none;stroke:#b3b3b3;stroke-width:15.9343;stroke-linecap:butt;stroke-linejoin:miter;stroke-miterlimit:10;stroke-dasharray:none;stroke-opacity:1"
       transform="matrix(0.13333333,0,0,-0.13333333,0,1056)" />
  </g>
</svg>
