<?xml version="1.0" encoding="UTF-8" standalone="no"?>
<!-- Created with Inkscape (http://www.inkscape.org/) -->

<svg
   version="1.1"
   id="svg1"
   width="764.50714"
   height="324.80627"
   viewBox="0 0 764.50714 324.80627"
   xmlns="http://www.w3.org/2000/svg"
   xmlns:svg="http://www.w3.org/2000/svg">
  <defs
     id="defs1" />
  <g
     id="g1"
     transform="translate(-25.761308,-117.33021)">
    <path
       id="path1"
       d="m 2418.29,6909.99 -210.09,-252.1 h 1470.59 l 168.07,252.1 h -294.12"
       style="fill:#bfbfbf;fill-opacity:1;fill-rule:evenodd;stroke:#000000;stroke-width:7.96717;stroke-linecap:butt;stroke-linejoin:miter;stroke-miterlimit:10;stroke-dasharray:none;stroke-opacity:1"
       transform="matrix(0.13333333,0,0,-0.13333333,0,1056)" />
    <path
       id="path2"
       d="m 3258.62,6741.92 h 252.102 v 252.102 H 3258.62 Z"
       style="fill:#ffffff;fill-opacity:1;fill-rule:evenodd;stroke:#000000;stroke-width:7.96717;stroke-linecap:butt;stroke-linejoin:miter;stroke-miterlimit:10;stroke-dasharray:none;stroke-opacity:1"
       transform="matrix(0.13333333,0,0,-0.13333333,0,1056)" />
    <path
       id="path3"
       d="m 6.2574375,-4.7578984 c -0.2695312,-1.5117188 -1.1367187,-2.25 -2.6601562,-2.25 -0.9257813,0 -1.6640625,0.2929687 -2.1796875,0.8554687 -0.6210938,0.6914063 -0.96093755,1.6640625 -0.96093755,2.7890625 0,1.1367188 0.3515625,2.109375 0.98437505,2.77734376 0.5390625,0.55078125 1.2304687,0.80859375 2.1210937,0.80859375 1.6875,0 2.6367188,-0.9140625 2.8359375,-2.74218751 H 5.4957188 c -0.082031,0.4804688 -0.1757813,0.796875 -0.3164063,1.078125 -0.28125,0.56250001 -0.8671875,0.87890626 -1.6054687,0.87890626 -1.3710938,0 -2.2382813,-1.08984376 -2.2382813,-2.81249996 0,-1.7695313 0.8203125,-2.859375 2.1679688,-2.859375 0.5507812,0 1.078125,0.1640625 1.359375,0.4335937 0.2578125,0.234375 0.3984375,0.5273438 0.5039062,1.0429688 z M -56.982797,22.412023 h -0.890625 v 6.890625 h 0.890625 z m 1.444336,1.933594 v 4.957031 h 0.796875 V 26.57218 c 0,-1.019532 0.527344,-1.675782 1.347656,-1.675782 0.621094,0 1.019532,0.375 1.019532,0.972657 v 3.433593 h 0.785156 v -3.75 c 0,-0.820312 -0.609375,-1.347656 -1.570313,-1.347656 -0.738281,0 -1.207031,0.28125 -1.640625,0.972656 v -0.832031 z m 6.017578,0 h -0.785156 v 4.957031 h 0.785156 z m 0,-1.933594 h -0.796875 v 0.984375 h 0.796875 z m 3.082031,1.933594 h -0.808593 v -1.359375 h -0.785157 v 1.359375 h -0.679687 v 0.644531 h 0.679687 v 3.75 c 0,0.503907 0.339844,0.785157 0.949219,0.785157 0.210938,0 0.375,-0.02344 0.644531,-0.07031 v -0.667969 c -0.117187,0.03516 -0.222656,0.04687 -0.375,0.04687 -0.339843,0 -0.433593,-0.09375 -0.433593,-0.445312 v -3.398438 h 0.808593 z m 1.643555,0 h -0.785156 v 4.957031 h 0.785156 z m 0,-1.933594 h -0.796875 v 0.984375 h 0.796875 z m 5.745117,6.421875 c -0.09375,0.02344 -0.128906,0.02344 -0.175781,0.02344 -0.269531,0 -0.421875,-0.140625 -0.421875,-0.386719 V 25.55265 c 0,-0.878906 -0.644531,-1.347656 -1.863281,-1.347656 -0.726563,0 -1.300781,0.210938 -1.640625,0.574219 -0.234375,0.257812 -0.328125,0.539062 -0.351563,1.03125 h 0.796875 c 0.07031,-0.597656 0.433594,-0.878906 1.171875,-0.878906 0.714844,0 1.101563,0.269531 1.101563,0.738281 v 0.210937 c -0.01172,0.339844 -0.175781,0.457032 -0.820313,0.550782 -1.125,0.140625 -1.289062,0.175781 -1.59375,0.292968 -0.574218,0.246094 -0.867187,0.691407 -0.867187,1.324219 0,0.902344 0.621094,1.476563 1.628906,1.476563 0.621094,0 1.125,-0.222657 1.675781,-0.738282 0.05859,0.515625 0.304688,0.738282 0.820313,0.738282 0.164062,0 0.269531,-0.02344 0.539062,-0.09375 z m -1.382812,-1.089843 c 0,0.257812 -0.08203,0.421875 -0.316406,0.644531 -0.316407,0.292969 -0.703125,0.445312 -1.171875,0.445312 -0.609375,0 -0.972657,-0.292968 -0.972657,-0.796875 0,-0.527343 0.339844,-0.785156 1.195313,-0.914062 0.84375,-0.105469 0.996094,-0.152344 1.265625,-0.269531 z m 3.017578,-5.332032 h -0.796875 v 6.890625 h 0.796875 z m 8.920898,2.015625 c 0,-0.46875 -0.02344,-0.597656 -0.175781,-0.925781 -0.386719,-0.785156 -1.183594,-1.207031 -2.34375,-1.207031 -1.523437,0 -2.460937,0.773437 -2.460937,2.027344 0,0.84375 0.445312,1.371093 1.359375,1.605468 l 1.710937,0.457032 c 0.878906,0.222656 1.265625,0.574218 1.265625,1.113281 0,0.363281 -0.199219,0.75 -0.492187,0.949219 -0.269532,0.199218 -0.703125,0.292968 -1.265625,0.292968 -0.761719,0 -1.253907,-0.175781 -1.59375,-0.574218 -0.246094,-0.304688 -0.363282,-0.632813 -0.351563,-1.054688 h -0.832031 c 0.01172,0.632813 0.128906,1.042969 0.398437,1.429688 0.480469,0.644531 1.277344,0.984375 2.320313,0.984375 0.820312,0 1.5,-0.199219 1.945312,-0.539063 0.457032,-0.363281 0.75,-0.984375 0.75,-1.570312 0,-0.855469 -0.527343,-1.476563 -1.464843,-1.734375 l -1.734375,-0.46875 c -0.832032,-0.222657 -1.125,-0.492188 -1.125,-1.019532 0,-0.703125 0.609375,-1.160156 1.535156,-1.160156 1.101562,0 1.710937,0.492188 1.722656,1.394531 z m 3.073243,-0.08203 h -0.808594 v -1.359375 h -0.785156 v 1.359375 h -0.679688 v 0.644531 h 0.679688 v 3.75 c 0,0.503907 0.339843,0.785157 0.949218,0.785157 0.210938,0 0.375,-0.02344 0.644532,-0.07031 v -0.667969 c -0.117188,0.03516 -0.222657,0.04687 -0.375,0.04687 -0.339844,0 -0.433594,-0.09375 -0.433594,-0.445312 v -3.398438 h 0.808594 z m 5.288086,4.488281 c -0.09375,0.02344 -0.128907,0.02344 -0.175782,0.02344 -0.269531,0 -0.421875,-0.140625 -0.421875,-0.386719 v -2.917969 c 0,-0.878906 -0.644531,-1.347656 -1.863281,-1.347656 -0.726562,0 -1.300781,0.210938 -1.640625,0.574219 -0.234375,0.257812 -0.328125,0.539062 -0.351562,1.03125 h 0.796875 c 0.07031,-0.597656 0.433593,-0.878906 1.171875,-0.878906 0.714843,0 1.101562,0.269531 1.101562,0.738281 v 0.210937 c -0.01172,0.339844 -0.175781,0.457032 -0.820312,0.550782 -1.125,0.140625 -1.289063,0.175781 -1.59375,0.292968 -0.574219,0.246094 -0.867188,0.691407 -0.867188,1.324219 0,0.902344 0.621094,1.476563 1.628906,1.476563 0.621094,0 1.125,-0.222657 1.675782,-0.738282 0.05859,0.515625 0.304687,0.738282 0.820312,0.738282 0.164063,0 0.269531,-0.02344 0.539063,-0.09375 z M -21.516,27.744055 c 0,0.257812 -0.08203,0.421875 -0.316406,0.644531 -0.316406,0.292969 -0.703125,0.445312 -1.171875,0.445312 -0.609375,0 -0.972656,-0.292968 -0.972656,-0.796875 0,-0.527343 0.339843,-0.785156 1.195312,-0.914062 0.84375,-0.105469 0.996094,-0.152344 1.265625,-0.269531 z m 3.978516,-3.398438 h -0.808594 v -1.359375 h -0.785156 v 1.359375 h -0.679688 v 0.644531 h 0.679688 v 3.75 c 0,0.503907 0.339843,0.785157 0.949218,0.785157 0.210938,0 0.375,-0.02344 0.644532,-0.07031 v -0.667969 c -0.117188,0.03516 -0.222657,0.04687 -0.375,0.04687 -0.339844,0 -0.433594,-0.09375 -0.433594,-0.445312 v -3.398438 h 0.808594 z m 5.077148,2.742188 c 0,-0.75 -0.05859,-1.207032 -0.199219,-1.582032 -0.316406,-0.808593 -1.078125,-1.300781 -2.003906,-1.300781 -1.382812,0 -2.273437,1.054688 -2.273437,2.683594 0,1.640625 0.855468,2.636719 2.25,2.636719 1.136718,0 1.921875,-0.644532 2.121093,-1.722657 h -0.796875 c -0.210937,0.644532 -0.65625,0.984375 -1.289062,0.984375 -0.503906,0 -0.925781,-0.222656 -1.195313,-0.632812 -0.1875,-0.292969 -0.257812,-0.574219 -0.269531,-1.066406 z m -3.632812,-0.644532 c 0.07031,-0.914062 0.621093,-1.511718 1.417968,-1.511718 0.808594,0 1.359375,0.621093 1.359375,1.511718 z m 0,0"
       style="fill:#000000;fill-opacity:1;fill-rule:nonzero;stroke:none"
       aria-label="C&#10;Initial State"
       transform="matrix(1.3333333,0,0,1.3333333,445.688,146.44933)" />
    <path
       id="path4"
       d="m 2502.32,6741.92 h 252.098 v 252.102 H 2502.32 Z"
       style="fill:#ffffff;fill-opacity:1;fill-rule:evenodd;stroke:#000000;stroke-width:7.96717;stroke-linecap:butt;stroke-linejoin:miter;stroke-miterlimit:10;stroke-dasharray:none;stroke-opacity:1"
       transform="matrix(0.13333333,0,0,-0.13333333,0,1056)" />
    <path
       id="path5"
       d="M 5.9773047,-2.7657109 6.9265234,-8.59375e-5 h 1.3125 L 5.0046484,-9.1875859 H 3.4929297 L 0.21167969,-8.59375e-5 H 1.4655859 L 2.4382422,-2.7657109 Z m -0.328125,-0.984375 H 2.7194922 l 1.5234375,-4.1835938 z m 0,0"
       style="fill:#000000;fill-opacity:1;fill-rule:nonzero;stroke:none"
       aria-label="A"
       transform="matrix(1.3333333,0,0,1.3333333,344.84667,146.44933)" />
    <path
       id="path6"
       d="m 2796.44,6909.99 h 84.03"
       style="fill:none;stroke:#000000;stroke-width:7.96717;stroke-linecap:butt;stroke-linejoin:miter;stroke-miterlimit:10;stroke-dasharray:none;stroke-opacity:1"
       transform="matrix(0.13333333,0,0,-0.13333333,0,1056)" />
    <path
       id="path7"
       d="m 3174.59,6909.99 h 84.03"
       style="fill:none;stroke:#000000;stroke-width:7.96717;stroke-linecap:butt;stroke-linejoin:miter;stroke-miterlimit:10;stroke-dasharray:none;stroke-opacity:1"
       transform="matrix(0.13333333,0,0,-0.13333333,0,1056)" />
    <path
       id="path8"
       d="m 2418.29,6909.99 h 84.03"
       style="fill:none;stroke:#000000;stroke-width:7.96717;stroke-linecap:butt;stroke-linejoin:miter;stroke-miterlimit:10;stroke-dasharray:none;stroke-opacity:1"
       transform="matrix(0.13333333,0,0,-0.13333333,0,1056)" />
    <path
       id="path9"
       d="m 2754.42,6994.02 h -252.1 l 42.02,42.02 h 252.1 l -42.02,-42.02 v -252.1 l 42.02,42.02 v 252.1"
       style="fill:#ffffff;fill-opacity:1;fill-rule:evenodd;stroke:#000000;stroke-width:7.96717;stroke-linecap:butt;stroke-linejoin:miter;stroke-miterlimit:10;stroke-dasharray:none;stroke-opacity:1"
       transform="matrix(0.13333333,0,0,-0.13333333,0,1056)" />
    <path
       id="path10"
       d="m 3132.57,6994.02 h -252.1 l 42.02,42.02 h 252.1 l -42.02,-42.02 v -252.1 l 42.02,42.02 v 252.1"
       style="fill:#ffffff;fill-opacity:1;fill-rule:evenodd;stroke:#000000;stroke-width:7.96717;stroke-linecap:butt;stroke-linejoin:miter;stroke-miterlimit:10;stroke-dasharray:none;stroke-opacity:1"
       transform="matrix(0.13333333,0,0,-0.13333333,0,1056)" />
    <path
       id="path11"
       d="m 3510.72,6994.02 h -252.1 l 42.02,42.02 h 252.1 l -42.02,-42.02 v -252.1 l 42.02,42.02 v 252.1"
       style="fill:#ffffff;fill-opacity:1;fill-rule:evenodd;stroke:#000000;stroke-width:7.96717;stroke-linecap:butt;stroke-linejoin:miter;stroke-miterlimit:10;stroke-dasharray:none;stroke-opacity:1"
       transform="matrix(0.13333333,0,0,-0.13333333,0,1056)" />
    <path
       id="path12"
       d="m 2880.47,6741.92 h 252.102 v 252.102 H 2880.47 Z"
       style="fill:#ffffff;fill-opacity:1;fill-rule:evenodd;stroke:#000000;stroke-width:7.96717;stroke-linecap:butt;stroke-linejoin:miter;stroke-miterlimit:10;stroke-dasharray:none;stroke-opacity:1"
       transform="matrix(0.13333333,0,0,-0.13333333,0,1056)" />
    <path
       id="path13"
       d="M 0.9953125,-8.59375e-5 H 5.14375 c 0.8671875,0 1.5117188,-0.2343750025 2.0039063,-0.7734375025 0.4570312,-0.48046876 0.703125,-1.12499996 0.703125,-1.85156246 0,-1.1015625 -0.5039063,-1.78125 -1.6757813,-2.2265625 0.84375,-0.3984375 1.2773438,-1.0664063 1.2773438,-2.0039063 0,-0.6796875 -0.2578125,-1.265625 -0.7265625,-1.6992187 C 6.2335938,-8.9883672 5.6125,-9.1875859 4.7335938,-9.1875859 H 0.9953125 Z M 2.1671875,-5.2383672 V -8.1563359 H 4.440625 c 0.65625,0 1.0195313,0.082031 1.3359375,0.328125 0.328125,0.2460937 0.5039063,0.6328125 0.5039063,1.1367187 0,0.5039063 -0.1757813,0.8789063 -0.5039063,1.125 -0.3164062,0.2460938 -0.6796875,0.328125 -1.3359375,0.328125 z m 0,4.2070313 v -3.1640625 h 2.859375 c 1.0429688,0 1.6523438,0.5859375 1.6523438,1.5820312 0,0.984375 -0.609375,1.5820313 -1.6523438,1.5820313 z m 0,0"
       style="fill:#000000;fill-opacity:1;fill-rule:nonzero;stroke:none"
       aria-label="B"
       transform="matrix(1.3333333,0,0,1.3333333,395.26667,146.44933)" />
    <path
       id="path14"
       d="M 411.801,5752.39 201.715,5500.29 H 1672.3 l 168.07,252.1 h -294.12"
       style="fill:#bfbfbf;fill-opacity:1;fill-rule:evenodd;stroke:#000000;stroke-width:7.96717;stroke-linecap:butt;stroke-linejoin:miter;stroke-miterlimit:10;stroke-dasharray:none;stroke-opacity:1"
       transform="matrix(0.13333333,0,0,-0.13333333,0,1056)" />
    <path
       id="path15"
       d="m 1252.14,5584.32 h 252.102 v 252.098 H 1252.14 Z"
       style="fill:#ffffff;fill-opacity:1;fill-rule:evenodd;stroke:#000000;stroke-width:7.96717;stroke-linecap:butt;stroke-linejoin:miter;stroke-miterlimit:10;stroke-dasharray:none;stroke-opacity:1"
       transform="matrix(0.13333333,0,0,-0.13333333,0,1056)" />
    <path
       id="path16"
       d="m 8.3439375,-6.3401875 c -0.3632812,-2.015625 -1.5234375,-3 -3.5390625,-3 -1.2304687,0 -2.2265625,0.3867187 -2.9179687,1.1484375 -0.8320313,0.9023437 -1.2773438,2.2148437 -1.2773438,3.703125 0,1.5117187 0.4570313,2.8125 1.3242188,3.703125 0.7148437,0.73828125 1.6171875,1.078125 2.8242187,1.078125 2.2382813,0 3.5039063,-1.21875 3.7734375,-3.6445313 H 7.3244063 C 7.2306563,-2.7190938 7.10175,-2.2972188 6.91425,-1.9339375 6.5275313,-1.1722188 5.7540938,-0.738625 4.7697188,-0.738625 c -1.828125,0 -2.9882813,-1.4648438 -2.9882813,-3.7617188 0,-2.3554687 1.0898438,-3.8085937 2.8828125,-3.8085937 0.75,0 1.4414063,0.2109375 1.8164063,0.5742187 C 6.8205,-7.4183125 7.008,-7.0315938 7.148625,-6.3401875 Z m 0,0"
       style="fill:#000000;fill-opacity:1;fill-rule:nonzero;stroke:none"
       aria-label="C"
       transform="matrix(1.3333333,0,0,1.3333333,178.156,300.79733)" />
    <path
       id="path17"
       d="m 1168.1,5752.39 h 84.04"
       style="fill:none;stroke:#000000;stroke-width:7.96717;stroke-linecap:butt;stroke-linejoin:miter;stroke-miterlimit:10;stroke-dasharray:none;stroke-opacity:1"
       transform="matrix(0.13333333,0,0,-0.13333333,0,1056)" />
    <path
       id="path18"
       d="m 411.801,5752.39 h 84.035"
       style="fill:none;stroke:#000000;stroke-width:7.96717;stroke-linecap:butt;stroke-linejoin:miter;stroke-miterlimit:10;stroke-dasharray:none;stroke-opacity:1"
       transform="matrix(0.13333333,0,0,-0.13333333,0,1056)" />
    <path
       id="path19"
       d="M 1126.09,5836.42 H 873.984 l 42.02,42.02 h 252.106 l -42.02,-42.02 v -252.1 l 42.02,42.02 v 252.1"
       style="fill:#ffffff;fill-opacity:1;fill-rule:evenodd;stroke:#000000;stroke-width:7.96717;stroke-linecap:butt;stroke-linejoin:miter;stroke-miterlimit:10;stroke-dasharray:none;stroke-opacity:1"
       transform="matrix(0.13333333,0,0,-0.13333333,0,1056)" />
    <path
       id="path20"
       d="m 1504.24,5836.42 h -252.1 l 42.01,42.02 h 252.1 l -42.01,-42.02 v -252.1 l 42.01,42.02 v 252.1"
       style="fill:#ffffff;fill-opacity:1;fill-rule:evenodd;stroke:#000000;stroke-width:7.96717;stroke-linecap:butt;stroke-linejoin:miter;stroke-miterlimit:10;stroke-dasharray:none;stroke-opacity:1"
       transform="matrix(0.13333333,0,0,-0.13333333,0,1056)" />
    <path
       id="path21"
       d="m 873.984,5584.32 h 252.102 v 252.098 H 873.984 Z"
       style="fill:#ffffff;fill-opacity:1;fill-rule:evenodd;stroke:#000000;stroke-width:7.96717;stroke-linecap:butt;stroke-linejoin:miter;stroke-miterlimit:10;stroke-dasharray:none;stroke-opacity:1"
       transform="matrix(0.13333333,0,0,-0.13333333,0,1056)" />
    <path
       id="path22"
       d="m 0.994875,-3.4375e-4 h 4.1484375 c 0.8671875,0 1.5117188,-0.234375 2.0039063,-0.7734375 C 7.60425,-1.25425 7.8503438,-1.8987813 7.8503438,-2.6253438 c 0,-1.1015625 -0.5039063,-1.78125 -1.6757813,-2.2265625 0.84375,-0.3984375 1.2773438,-1.0664062 1.2773438,-2.0039062 0,-0.6796875 -0.2578125,-1.265625 -0.7265625,-1.6992188 C 6.2331563,-8.988625 5.6120625,-9.1878438 4.7331563,-9.1878438 H 0.994875 Z M 2.16675,-5.238625 v -2.9179688 h 2.2734375 c 0.65625,0 1.0195313,0.082031 1.3359375,0.328125 0.328125,0.2460938 0.5039063,0.6328125 0.5039063,1.1367188 0,0.5039062 -0.1757813,0.8789062 -0.5039063,1.125 -0.3164062,0.2460937 -0.6796875,0.328125 -1.3359375,0.328125 z m 0,4.2070312 v -3.1640625 h 2.859375 c 1.0429688,0 1.6523438,0.5859375 1.6523438,1.5820313 0,0.984375 -0.609375,1.5820312 -1.6523438,1.5820312 z m 0,0"
       style="fill:#000000;fill-opacity:1;fill-rule:nonzero;stroke:none"
       aria-label="B"
       transform="matrix(1.3333333,0,0,1.3333333,127.736,300.79733)" />
    <path
       id="path23"
       d="m 873.984,5836.42 h 252.102 v 252.102 H 873.984 Z"
       style="fill:#ffffff;fill-opacity:1;fill-rule:evenodd;stroke:#000000;stroke-width:7.96717;stroke-linecap:butt;stroke-linejoin:miter;stroke-miterlimit:10;stroke-dasharray:none;stroke-opacity:1"
       transform="matrix(0.13333333,0,0,-0.13333333,0,1056)" />
    <path
       id="path24"
       d="M 5.9753438,-2.7649297 6.9245625,6.953125e-4 h 1.3125 L 5.0026875,-9.1868047 H 3.4909688 L 0.20971875,6.953125e-4 H 1.463625 L 2.4362813,-2.7649297 Z m -0.328125,-0.984375 H 2.7175313 l 1.5234375,-4.1835937 z m 0,0"
       style="fill:#000000;fill-opacity:1;fill-rule:nonzero;stroke:none"
       aria-label="A"
       transform="matrix(1.3333333,0,0,1.3333333,127.736,267.18267)" />
    <path
       id="path25"
       d="M 1126.09,6088.52 H 873.984 l 42.02,42.02 h 252.106 l -42.02,-42.02 v -252.1 l 42.02,42.02 v 252.1"
       style="fill:#ffffff;fill-opacity:1;fill-rule:evenodd;stroke:#000000;stroke-width:7.96717;stroke-linecap:butt;stroke-linejoin:miter;stroke-miterlimit:10;stroke-dasharray:none;stroke-opacity:1"
       transform="matrix(0.13333333,0,0,-0.13333333,0,1056)" />
    <path
       id="path26"
       d="M 495.836,5752.39 H 873.984"
       style="fill:none;stroke:#000000;stroke-width:7.96717;stroke-linecap:butt;stroke-linejoin:miter;stroke-miterlimit:10;stroke-dasharray:none;stroke-opacity:1"
       transform="matrix(0.13333333,0,0,-0.13333333,0,1056)" />
    <path
       id="path27"
       d="m 621.887,5626.34 c 0,0 0,0 0,42.01 0,42.02 0,126.05 21.008,182.08 21.007,56.02 63.023,84.03 98.039,98.03 35.011,14.01 63.023,14.01 77.031,14.01 14.004,0 14.004,0 14.004,0"
       style="fill:none;stroke:#000000;stroke-width:15.9343;stroke-linecap:butt;stroke-linejoin:miter;stroke-miterlimit:10;stroke-dasharray:none;stroke-opacity:1"
       transform="matrix(0.13333333,0,0,-0.13333333,0,1056)" />
    <path
       id="path28"
       d="m 752.297,5982.39 79.672,-19.92 -79.672,-19.92"
       style="fill:none;stroke:#000000;stroke-width:15.9343;stroke-linecap:butt;stroke-linejoin:miter;stroke-miterlimit:10;stroke-dasharray:none;stroke-opacity:1"
       transform="matrix(0.13333333,0,0,-0.13333333,0,1056)" />
    <path
       id="path29"
       d="m 0.65626562,-4.9581797 v 4.95703126 H 1.4531406 V -3.1183359 c 0,-0.7148438 0.5273438,-1.2890625 1.171875,-1.2890625 0.5859375,0 0.9140625,0.3632812 0.9140625,0.9960937 v 3.41015626 h 0.796875 V -3.1183359 c 0,-0.7148438 0.515625,-1.2890625 1.1601563,-1.2890625 0.5742187,0 0.9140625,0.3632812 0.9140625,0.9960937 v 3.41015626 h 0.796875 V -3.7159922 c 0,-0.890625 -0.515625,-1.3828125 -1.4414063,-1.3828125 -0.65625,0 -1.0546875,0.1992188 -1.5234375,0.7617188 -0.2929687,-0.5390625 -0.6914062,-0.7617188 -1.3242187,-0.7617188 -0.6679688,0 -1.1132813,0.2460938 -1.5234375,0.84375 v -0.703125 z m 9.79687538,-0.140625 c -1.4062504,0 -2.2382816,0.9960938 -2.2382816,2.6601563 0,1.67578121 0.8320312,2.66015621 2.2382816,2.66015621 1.40625,0 2.25,-0.99609375 2.25,-2.62500001 0,-1.7226562 -0.820313,-2.6953125 -2.25,-2.6953125 z m 0,0.7265625 c 0.890625,0 1.417968,0.7265625 1.417968,1.9570313 0,1.171875 -0.539062,1.89843746 -1.417968,1.89843746 -0.8789066,0 -1.4179691,-0.72656246 -1.4179691,-1.92187496 0,-1.2070313 0.5390625,-1.9335938 1.4179691,-1.9335938 z m 5.373046,4.37109376 1.898438,-4.95703126 H 16.834 L 15.439469,-0.93864844 14.11525,-4.9581797 h -0.890625 l 1.746094,4.95703126 z m 6.884766,-2.21484376 c 0,-0.75 -0.05859,-1.2070312 -0.199219,-1.5820312 -0.316406,-0.8085938 -1.078125,-1.3007813 -2.003906,-1.3007813 -1.382812,0 -2.273437,1.0546875 -2.273437,2.6835938 0,1.64062496 0.855468,2.63671871 2.25,2.63671871 1.136718,0 1.921875,-0.64453125 2.121093,-1.72265621 h -0.796875 c -0.210937,0.64453121 -0.65625,0.98437496 -1.289062,0.98437496 -0.503906,0 -0.925781,-0.22265625 -1.195313,-0.63281246 -0.1875,-0.2929688 -0.257812,-0.5742188 -0.269531,-1.0664063 z m -3.632812,-0.6445312 c 0.07031,-0.9140625 0.621093,-1.5117188 1.417968,-1.5117188 0.808594,0 1.359375,0.6210938 1.359375,1.5117188 z m 11.15332,0.7851562 0.703125,2.07421876 h 0.984375 L 29.49318,-6.8917734 h -1.125 l -2.460938,6.89062496 h 0.9375 l 0.726563,-2.07421876 z m -0.246094,-0.7382812 h -2.203125 l 1.136719,-3.140625 z M 2.5781406,4.3552969 c -1.40625,0 -2.23828123,0.9960937 -2.23828123,2.6601562 0,1.6757813 0.83203123,2.6601563 2.23828123,2.6601563 1.40625,0 2.25,-0.9960938 2.25,-2.625 0,-1.7226563 -0.8203125,-2.6953125 -2.25,-2.6953125 z m 0,0.7265625 c 0.890625,0 1.4179688,0.7265625 1.4179688,1.9570312 0,1.171875 -0.5390625,1.8984375 -1.4179688,1.8984375 -0.8789062,0 -1.4179687,-0.7265625 -1.4179687,-1.921875 0,-1.2070312 0.5390625,-1.9335937 1.4179687,-1.9335937 z M 5.912125,4.4959219 V 9.4529531 H 6.709 V 6.7224844 c 0,-1.0195313 0.5273437,-1.6757813 1.3476562,-1.6757813 0.6210938,0 1.0195313,0.375 1.0195313,0.9726563 v 3.4335937 h 0.7851562 v -3.75 c 0,-0.8203125 -0.609375,-1.3476562 -1.5703125,-1.3476562 -0.7382812,0 -1.2070312,0.28125 -1.640625,0.9726562 V 4.4959219 Z m 9.629883,0 h -0.808594 v -1.359375 h -0.785156 v 1.359375 H 13.26857 v 0.6445312 h 0.679688 v 3.75 c 0,0.5039063 0.339844,0.7851563 0.949219,0.7851563 0.210937,0 0.375,-0.023437 0.644531,-0.070312 V 8.9373281 c -0.117188,0.035156 -0.222656,0.046875 -0.375,0.046875 -0.339844,0 -0.433594,-0.09375 -0.433594,-0.4453125 V 5.1404531 h 0.808594 z m 2.803711,-0.140625 c -1.40625,0 -2.238282,0.9960937 -2.238282,2.6601562 0,1.6757813 0.832032,2.6601563 2.238282,2.6601563 1.40625,0 2.25,-0.9960938 2.25,-2.625 0,-1.7226563 -0.820313,-2.6953125 -2.25,-2.6953125 z m 0,0.7265625 c 0.890625,0 1.417968,0.7265625 1.417968,1.9570312 0,1.171875 -0.539062,1.8984375 -1.417968,1.8984375 -0.878907,0 -1.417969,-0.7265625 -1.417969,-1.921875 0,-1.2070312 0.539062,-1.9335937 1.417969,-1.9335937 z m 3.196289,6.4335936 h 0.785156 V 8.9373281 c 0.421875,0.5039063 0.878906,0.7382813 1.523438,0.7382813 1.289062,0 2.121093,-1.03125 2.121093,-2.6132813 0,-1.6640625 -0.808593,-2.7070312 -2.132812,-2.7070312 -0.667969,0 -1.207031,0.3046875 -1.570313,0.890625 v -0.75 h -0.726562 z m 2.167969,-6.4218749 c 0.867187,0 1.441406,0.7617188 1.441406,1.9453125 0,1.125 -0.574219,1.8984375 -1.441406,1.8984375 -0.84375,0 -1.382813,-0.7617187 -1.382813,-1.921875 0,-1.1601562 0.539063,-1.921875 1.382813,-1.921875 z M 2.5781406,13.809398 c -1.40625,0 -2.23828123,0.996094 -2.23828123,2.660157 0,1.675781 0.83203123,2.660156 2.23828123,2.660156 1.40625,0 2.25,-0.996094 2.25,-2.625 0,-1.722656 -0.8203125,-2.695313 -2.25,-2.695313 z m 0,0.726563 c 0.890625,0 1.4179688,0.726562 1.4179688,1.957031 0,1.171875 -0.5390625,1.898438 -1.4179688,1.898438 -0.8789062,0 -1.4179687,-0.726563 -1.4179687,-1.921875 0,-1.207032 0.5390625,-1.933594 1.4179687,-1.933594 z M 7.693375,13.950023 H 6.8730625 v -0.773437 c 0,-0.328125 0.1757812,-0.503906 0.5507812,-0.503906 0.058594,0 0.09375,0 0.2695313,0.01172 v -0.65625 c -0.1757813,-0.03516 -0.28125,-0.04687 -0.4453125,-0.04687 -0.7265625,0 -1.1601563,0.421875 -1.1601563,1.125 v 0.84375 h -0.65625 v 0.644532 h 0.65625 v 4.3125 h 0.7851563 v -4.3125 H 7.693375 Z m 3.568359,4.957032 h 3.105469 c 0.65625,0 1.136719,-0.175782 1.511719,-0.574219 0.339844,-0.363281 0.527344,-0.855469 0.527344,-1.394531 0,-0.832032 -0.386719,-1.335938 -1.265625,-1.675782 0.644531,-0.292968 0.960937,-0.785156 0.960937,-1.5 0,-0.515625 -0.1875,-0.949218 -0.550781,-1.265625 -0.363281,-0.328125 -0.832031,-0.480468 -1.488281,-0.480468 h -2.800782 z m 0.878907,-3.925782 v -2.191406 h 1.699218 c 0.492188,0 0.761719,0.07031 1.007813,0.246094 0.246094,0.1875 0.375,0.46875 0.375,0.84375 0,0.386719 -0.128906,0.667969 -0.375,0.855469 -0.246094,0.175781 -0.515625,0.246093 -1.007813,0.246093 z m 0,3.152344 v -2.378906 h 2.144531 c 0.773437,0 1.242187,0.445312 1.242187,1.195312 0,0.738282 -0.46875,1.183594 -1.242187,1.183594 z m 0,0"
       style="fill:#000000;fill-opacity:1;fill-rule:nonzero;stroke:none"
       aria-label="move A&#10;on top&#10;of B"
       transform="matrix(1.3333333,0,0,1.3333333,49.304667,250.232)" />
    <path
       id="path30"
       d="M 411.805,4860.06 201.719,4607.96 H 1672.31 l 168.07,252.1 h -294.12"
       style="fill:#bfbfbf;fill-opacity:1;fill-rule:evenodd;stroke:#000000;stroke-width:7.96717;stroke-linecap:butt;stroke-linejoin:miter;stroke-miterlimit:10;stroke-dasharray:none;stroke-opacity:1"
       transform="matrix(0.13333333,0,0,-0.13333333,0,1056)" />
    <path
       id="path31"
       d="m 1252.14,4692 h 252.102 v 252.102 H 1252.14 Z"
       style="fill:#ffffff;fill-opacity:1;fill-rule:evenodd;stroke:#000000;stroke-width:7.96717;stroke-linecap:butt;stroke-linejoin:miter;stroke-miterlimit:10;stroke-dasharray:none;stroke-opacity:1"
       transform="matrix(0.13333333,0,0,-0.13333333,0,1056)" />
    <path
       id="path32"
       d="m 8.3429375,-6.3397656 c -0.3632812,-2.015625 -1.5234375,-3 -3.5390625,-3 -1.2304687,0 -2.2265625,0.3867187 -2.9179687,1.1484375 -0.8320313,0.9023437 -1.2773438,2.2148437 -1.2773438,3.703125 0,1.5117187 0.4570313,2.8125 1.3242188,3.70312498 0.7148437,0.73828125 1.6171875,1.078125 2.8242187,1.078125 2.2382813,0 3.5039063,-1.21875 3.7734375,-3.64453128 H 7.3234063 c -0.09375,0.6328125 -0.2226563,1.0546875 -0.4101563,1.4179688 -0.3867187,0.7617187 -1.1601562,1.19531248 -2.1445312,1.19531248 -1.828125,0 -2.9882813,-1.46484378 -2.9882813,-3.76171878 0,-2.3554687 1.0898438,-3.8085937 2.8828125,-3.8085937 0.75,0 1.4414063,0.2109375 1.8164063,0.5742187 C 6.8195,-7.4178906 7.007,-7.0311719 7.147625,-6.3397656 Z m 0,0"
       style="fill:#000000;fill-opacity:1;fill-rule:nonzero;stroke:none"
       aria-label="C"
       transform="matrix(1.3333333,0,0,1.3333333,178.15733,419.77333)" />
    <path
       id="path33"
       d="m 1168.11,4860.06 h 84.03"
       style="fill:none;stroke:#000000;stroke-width:7.96717;stroke-linecap:butt;stroke-linejoin:miter;stroke-miterlimit:10;stroke-dasharray:none;stroke-opacity:1"
       transform="matrix(0.13333333,0,0,-0.13333333,0,1056)" />
    <path
       id="path34"
       d="M 411.805,4860.06 H 495.84"
       style="fill:none;stroke:#000000;stroke-width:7.96717;stroke-linecap:butt;stroke-linejoin:miter;stroke-miterlimit:10;stroke-dasharray:none;stroke-opacity:1"
       transform="matrix(0.13333333,0,0,-0.13333333,0,1056)" />
    <path
       id="path35"
       d="M 1126.09,4944.1 H 873.988 l 42.02,42.01 h 252.102 l -42.02,-42.01 V 4692 l 42.02,42.01 v 252.1"
       style="fill:#ffffff;fill-opacity:1;fill-rule:evenodd;stroke:#000000;stroke-width:7.96717;stroke-linecap:butt;stroke-linejoin:miter;stroke-miterlimit:10;stroke-dasharray:none;stroke-opacity:1"
       transform="matrix(0.13333333,0,0,-0.13333333,0,1056)" />
    <path
       id="path36"
       d="m 1504.24,4944.1 h -252.1 l 42.02,42.01 h 252.1 l -42.02,-42.01 V 4692 l 42.02,42.01 v 252.1"
       style="fill:#ffffff;fill-opacity:1;fill-rule:evenodd;stroke:#000000;stroke-width:7.96717;stroke-linecap:butt;stroke-linejoin:miter;stroke-miterlimit:10;stroke-dasharray:none;stroke-opacity:1"
       transform="matrix(0.13333333,0,0,-0.13333333,0,1056)" />
    <path
       id="path37"
       d="m 873.988,4692 h 252.102 v 252.102 H 873.988 Z"
       style="fill:#ffffff;fill-opacity:1;fill-rule:evenodd;stroke:#000000;stroke-width:7.96717;stroke-linecap:butt;stroke-linejoin:miter;stroke-miterlimit:10;stroke-dasharray:none;stroke-opacity:1"
       transform="matrix(0.13333333,0,0,-0.13333333,0,1056)" />
    <path
       id="path38"
       d="M 0.99750469,7.8125e-5 H 5.1459422 c 0.8671875,0 1.5117187,-0.234374995 2.0039062,-0.773437495 0.4570313,-0.48046873 0.703125,-1.12500003 0.703125,-1.85156253 0,-1.1015625 -0.5039062,-1.78125 -1.6757812,-2.2265625 0.84375,-0.3984375 1.2773437,-1.0664062 1.2773437,-2.0039062 0,-0.6796875 -0.2578125,-1.265625 -0.7265625,-1.6992188 C 6.2357859,-8.9882031 5.6146922,-9.1874219 4.7357859,-9.1874219 H 0.99750469 Z M 2.1693797,-5.2382031 v -2.9179688 h 2.2734375 c 0.65625,0 1.0195312,0.082031 1.3359375,0.328125 0.328125,0.2460938 0.5039062,0.6328125 0.5039062,1.1367188 0,0.5039062 -0.1757812,0.8789062 -0.5039062,1.125 -0.3164063,0.2460937 -0.6796875,0.328125 -1.3359375,0.328125 z m 0,4.2070312 v -3.1640625 h 2.859375 c 1.0429687,0 1.6523437,0.5859375 1.6523437,1.5820313 0,0.984375 -0.609375,1.5820312 -1.6523437,1.5820312 z m 0,0"
       style="fill:#000000;fill-opacity:1;fill-rule:nonzero;stroke:none"
       aria-label="B"
       transform="matrix(1.3333333,0,0,1.3333333,127.7364,419.77333)" />
    <path
       id="path39"
       d="m 1252.14,4944.1 h 252.102 v 252.102 H 1252.14 Z"
       style="fill:#ffffff;fill-opacity:1;fill-rule:evenodd;stroke:#000000;stroke-width:7.96717;stroke-linecap:butt;stroke-linejoin:miter;stroke-miterlimit:10;stroke-dasharray:none;stroke-opacity:1"
       transform="matrix(0.13333333,0,0,-0.13333333,0,1056)" />
    <path
       id="path40"
       d="M 5.97575,-2.7655078 6.9249688,1.171875e-4 h 1.3125 L 5.0030938,-9.1873828 H 3.491375 L 0.210125,1.171875e-4 H 1.4640313 L 2.4366875,-2.7655078 Z M 5.647625,-3.7498828 H 2.7179375 L 4.241375,-7.9334766 Z m 0,0"
       style="fill:#000000;fill-opacity:1;fill-rule:nonzero;stroke:none"
       aria-label="A"
       transform="matrix(1.3333333,0,0,1.3333333,178.15733,386.16)" />
    <path
       id="path41"
       d="m 1504.24,5196.2 h -252.1 l 42.02,42.01 h 252.1 l -42.02,-42.01 v -252.1 l 42.02,42.01 v 252.1"
       style="fill:#ffffff;fill-opacity:1;fill-rule:evenodd;stroke:#000000;stroke-width:7.96717;stroke-linecap:butt;stroke-linejoin:miter;stroke-miterlimit:10;stroke-dasharray:none;stroke-opacity:1"
       transform="matrix(0.13333333,0,0,-0.13333333,0,1056)" />
    <path
       id="path42"
       d="M 495.84,4860.06 H 873.988"
       style="fill:none;stroke:#000000;stroke-width:7.96717;stroke-linecap:butt;stroke-linejoin:miter;stroke-miterlimit:10;stroke-dasharray:none;stroke-opacity:1"
       transform="matrix(0.13333333,0,0,-0.13333333,0,1056)" />
    <path
       id="path43"
       d="m 621.891,4734.01 c 0,0 0,0 0,42.02 0,42.02 0,126.05 28.007,189.08 28.012,63.02 84.036,105.04 182.075,126.05 98.039,21 238.097,21 308.127,21 70.03,0 70.03,0 70.03,0"
       style="fill:none;stroke:#000000;stroke-width:15.9343;stroke-linecap:butt;stroke-linejoin:miter;stroke-miterlimit:10;stroke-dasharray:none;stroke-opacity:1"
       transform="matrix(0.13333333,0,0,-0.13333333,0,1056)" />
    <path
       id="path44"
       d="m 1130.45,5132.08 79.68,-19.92 -79.68,-19.91"
       style="fill:none;stroke:#000000;stroke-width:15.9343;stroke-linecap:butt;stroke-linejoin:miter;stroke-miterlimit:10;stroke-dasharray:none;stroke-opacity:1"
       transform="matrix(0.13333333,0,0,-0.13333333,0,1056)" />
    <path
       id="path45"
       d="M 0.65586563,-4.9579297 V -8.984375e-4 H 1.4527406 V -3.1180859 c 0,-0.7148438 0.5273438,-1.2890625 1.171875,-1.2890625 0.5859375,0 0.9140625,0.3632812 0.9140625,0.9960937 v 3.4101562625 h 0.796875 V -3.1180859 c 0,-0.7148438 0.515625,-1.2890625 1.1601563,-1.2890625 0.5742187,0 0.9140625,0.3632812 0.9140625,0.9960937 v 3.4101562625 h 0.796875 V -3.7157422 c 0,-0.890625 -0.515625,-1.3828125 -1.4414063,-1.3828125 -0.65625,0 -1.0546875,0.1992188 -1.5234375,0.7617188 -0.2929687,-0.5390625 -0.6914062,-0.7617188 -1.3242187,-0.7617188 -0.6679688,0 -1.1132813,0.2460938 -1.5234375,0.84375 v -0.703125 z m 9.79687537,-0.140625 c -1.4062504,0 -2.2382816,0.9960938 -2.2382816,2.6601563 0,1.67578121 0.8320312,2.66015621 2.2382816,2.66015621 1.40625,0 2.25,-0.99609375 2.25,-2.62500001 0,-1.7226562 -0.820313,-2.6953125 -2.25,-2.6953125 z m 0,0.7265625 c 0.890625,0 1.417968,0.7265625 1.417968,1.9570313 0,1.171875 -0.539062,1.89843746 -1.417968,1.89843746 -0.8789066,0 -1.4179691,-0.72656246 -1.4179691,-1.92187496 0,-1.2070313 0.5390625,-1.9335938 1.4179691,-1.9335938 z M 15.825788,-8.984375e-4 17.724225,-4.9579297 H 16.8336 L 15.439069,-0.93839844 14.11485,-4.9579297 h -0.890625 l 1.746094,4.9570312625 z M 22.710553,-2.2157422 c 0,-0.75 -0.05859,-1.2070312 -0.199219,-1.5820312 -0.316406,-0.8085938 -1.078125,-1.3007813 -2.003906,-1.3007813 -1.382812,0 -2.273437,1.0546875 -2.273437,2.6835938 0,1.64062496 0.855468,2.63671871 2.25,2.63671871 1.136718,0 1.921875,-0.64453125 2.121093,-1.72265621 h -0.796875 c -0.210937,0.64453121 -0.65625,0.98437496 -1.289062,0.98437496 -0.503906,0 -0.925781,-0.22265625 -1.195313,-0.63281246 -0.1875,-0.2929688 -0.257812,-0.5742188 -0.269531,-1.0664063 z m -3.632812,-0.6445312 c 0.07031,-0.9140625 0.621093,-1.5117188 1.417968,-1.5117188 0.808594,0 1.359375,0.6210938 1.359375,1.5117188 z m 11.15332,0.7851562 0.703125,2.0742187625 h 0.984375 L 29.49278,-6.8915234 h -1.125 l -2.460938,6.8906249625 h 0.9375 L 27.570905,-2.0751172 Z m -0.246094,-0.7382812 h -2.203125 l 1.136719,-3.140625 z M 2.5777406,4.3555469 c -1.40625,0 -2.23828122,0.9960937 -2.23828122,2.6601562 0,1.6757813 0.83203122,2.6601563 2.23828122,2.6601563 1.40625,0 2.25,-0.9960938 2.25,-2.625 0,-1.7226563 -0.8203125,-2.6953125 -2.25,-2.6953125 z m 0,0.7265625 c 0.890625,0 1.4179688,0.7265625 1.4179688,1.9570312 0,1.171875 -0.5390625,1.8984375 -1.4179688,1.8984375 -0.8789062,0 -1.4179687,-0.7265625 -1.4179687,-1.921875 0,-1.2070312 0.5390625,-1.9335937 1.4179687,-1.9335937 z M 5.911725,4.4961719 V 9.4532031 H 6.7086 V 6.7227344 c 0,-1.0195313 0.5273438,-1.6757813 1.3476563,-1.6757813 0.6210937,0 1.0195312,0.375 1.0195312,0.9726563 v 3.4335937 h 0.7851563 v -3.75 c 0,-0.8203125 -0.609375,-1.3476562 -1.5703125,-1.3476562 -0.7382813,0 -1.2070313,0.28125 -1.640625,0.9726562 V 4.4961719 Z m 9.632813,0 h -0.808594 v -1.359375 h -0.785156 v 1.359375 H 13.2711 v 0.6445312 h 0.679688 v 3.75 c 0,0.5039063 0.339843,0.7851563 0.949218,0.7851563 0.210938,0 0.375,-0.023437 0.644532,-0.070312 V 8.9375781 c -0.117188,0.035156 -0.222657,0.046875 -0.375,0.046875 -0.339844,0 -0.433594,-0.09375 -0.433594,-0.4453125 V 5.1407031 h 0.808594 z m 2.80371,-0.140625 c -1.40625,0 -2.238281,0.9960937 -2.238281,2.6601562 0,1.6757813 0.832031,2.6601563 2.238281,2.6601563 1.40625,0 2.25,-0.9960938 2.25,-2.625 0,-1.7226563 -0.820312,-2.6953125 -2.25,-2.6953125 z m 0,0.7265625 c 0.890625,0 1.417969,0.7265625 1.417969,1.9570312 0,1.171875 -0.539062,1.8984375 -1.417969,1.8984375 -0.878906,0 -1.417968,-0.7265625 -1.417968,-1.921875 0,-1.2070312 0.539062,-1.9335937 1.417968,-1.9335937 z m 3.19336,6.4335936 h 0.785156 V 8.9375781 c 0.421875,0.5039063 0.878906,0.7382813 1.523438,0.7382813 1.289062,0 2.121093,-1.03125 2.121093,-2.6132813 0,-1.6640625 -0.808593,-2.7070312 -2.132812,-2.7070312 -0.667969,0 -1.207031,0.3046875 -1.570313,0.890625 v -0.75 h -0.726562 z m 2.167969,-6.4218749 c 0.867187,0 1.441406,0.7617188 1.441406,1.9453125 0,1.125 -0.574219,1.8984375 -1.441406,1.8984375 -0.84375,0 -1.382813,-0.7617187 -1.382813,-1.921875 0,-1.1601562 0.539063,-1.921875 1.382813,-1.921875 z M 2.5777406,13.809648 c -1.40625,0 -2.23828122,0.996094 -2.23828122,2.660157 0,1.675781 0.83203122,2.660156 2.23828122,2.660156 1.40625,0 2.25,-0.996094 2.25,-2.625 0,-1.722656 -0.8203125,-2.695313 -2.25,-2.695313 z m 0,0.726563 c 0.890625,0 1.4179688,0.726562 1.4179688,1.957031 0,1.171875 -0.5390625,1.898438 -1.4179688,1.898438 -0.8789062,0 -1.4179687,-0.726563 -1.4179687,-1.921875 0,-1.207032 0.5390625,-1.933594 1.4179687,-1.933594 z M 7.692975,13.950273 H 6.8726625 v -0.773437 c 0,-0.328125 0.1757813,-0.503906 0.5507813,-0.503906 0.058594,0 0.09375,0 0.2695312,0.01172 V 12.0284 c -0.1757812,-0.03516 -0.28125,-0.04687 -0.4453125,-0.04687 -0.7265625,0 -1.1601562,0.421875 -1.1601562,1.125 v 0.84375 h -0.65625 v 0.644532 h 0.65625 v 4.3125 h 0.7851562 v -4.3125 H 7.692975 Z m 9.076172,0.199219 c -0.269531,-1.511719 -1.136719,-2.25 -2.660156,-2.25 -0.925782,0 -1.664063,0.292969 -2.179688,0.855469 -0.621094,0.691406 -0.960937,1.664062 -0.960937,2.789062 0,1.136719 0.351562,2.109375 0.984375,2.777344 0.539062,0.550781 1.230468,0.808594 2.121093,0.808594 1.6875,0 2.636719,-0.914063 2.835938,-2.742188 h -0.902344 c -0.08203,0.480469 -0.175781,0.796875 -0.316406,1.078125 -0.28125,0.5625 -0.867188,0.878907 -1.605469,0.878907 -1.371094,0 -2.238281,-1.089844 -2.238281,-2.8125 0,-1.769532 0.820312,-2.859375 2.167969,-2.859375 0.550781,0 1.078125,0.164062 1.359375,0.433593 0.257812,0.234375 0.398437,0.527344 0.503906,1.042969 z m 0,0"
       style="fill:#000000;fill-opacity:1;fill-rule:nonzero;stroke:none"
       aria-label="move A&#10;on top&#10;of C"
       transform="matrix(1.3333333,0,0,1.3333333,49.3052,363.60667)" />
    <path
       id="path46"
       d="m 2426.25,5752.39 -210.08,-252.1 h 1470.59 l 168.06,252.1 h -294.11"
       style="fill:#bfbfbf;fill-opacity:1;fill-rule:evenodd;stroke:#000000;stroke-width:7.96717;stroke-linecap:butt;stroke-linejoin:miter;stroke-miterlimit:10;stroke-dasharray:none;stroke-opacity:1"
       transform="matrix(0.13333333,0,0,-0.13333333,0,1056)" />
    <path
       id="path47"
       d="m 3266.59,5584.32 h 252.098 v 252.102 H 3266.59 Z"
       style="fill:#ffffff;fill-opacity:1;fill-rule:evenodd;stroke:#000000;stroke-width:7.96717;stroke-linecap:butt;stroke-linejoin:miter;stroke-miterlimit:10;stroke-dasharray:none;stroke-opacity:1"
       transform="matrix(0.13333333,0,0,-0.13333333,0,1056)" />
    <path
       id="path48"
       d="m 8.34425,-6.3391875 c -0.3632813,-2.015625 -1.5234375,-3 -3.5390625,-3 -1.2304688,0 -2.2265625,0.3867187 -2.9179688,1.1484375 -0.8320312,0.9023437 -1.2773437,2.2148437 -1.2773437,3.703125 0,1.5117187 0.4570312,2.8125 1.3242187,3.703125 0.7148438,0.73828125 1.6171875,1.078125 2.8242188,1.078125 2.2382812,0 3.5039062,-1.21875 3.7734375,-3.6445313 H 7.3247187 c -0.09375,0.6328125 -0.2226562,1.0546875 -0.4101562,1.4179688 -0.3867188,0.7617187 -1.1601563,1.1953125 -2.1445313,1.1953125 -1.828125,0 -2.9882812,-1.4648438 -2.9882812,-3.7617188 0,-2.3554687 1.0898437,-3.8085937 2.8828125,-3.8085937 0.75,0 1.4414062,0.2109375 1.8164062,0.5742187 0.3398438,0.3164063 0.5273438,0.703125 0.6679688,1.3945313 z m 0,0"
       style="fill:#000000;fill-opacity:1;fill-rule:nonzero;stroke:none"
       aria-label="C"
       transform="matrix(1.3333333,0,0,1.3333333,446.74933,300.796)" />
    <path
       id="path49"
       d="m 2510.29,5584.32 h 252.102 v 252.102 H 2510.29 Z"
       style="fill:#ffffff;fill-opacity:1;fill-rule:evenodd;stroke:#000000;stroke-width:7.96717;stroke-linecap:butt;stroke-linejoin:miter;stroke-miterlimit:10;stroke-dasharray:none;stroke-opacity:1"
       transform="matrix(0.13333333,0,0,-0.13333333,0,1056)" />
    <path
       id="path50"
       d="M 5.9771797,-2.7649688 6.9263984,6.5625e-4 h 1.3125 L 5.0045234,-9.1868438 H 3.4928047 L 0.21155469,6.5625e-4 H 1.4654609 L 2.4381172,-2.7649688 Z m -0.328125,-0.984375 H 2.7193672 l 1.5234375,-4.1835937 z m 0,0"
       style="fill:#000000;fill-opacity:1;fill-rule:nonzero;stroke:none"
       aria-label="A"
       transform="matrix(1.3333333,0,0,1.3333333,345.90933,300.796)" />
    <path
       id="path51"
       d="m 3182.55,5752.39 h 84.04"
       style="fill:none;stroke:#000000;stroke-width:7.96717;stroke-linecap:butt;stroke-linejoin:miter;stroke-miterlimit:10;stroke-dasharray:none;stroke-opacity:1"
       transform="matrix(0.13333333,0,0,-0.13333333,0,1056)" />
    <path
       id="path52"
       d="m 2426.25,5752.39 h 84.04"
       style="fill:none;stroke:#000000;stroke-width:7.96717;stroke-linecap:butt;stroke-linejoin:miter;stroke-miterlimit:10;stroke-dasharray:none;stroke-opacity:1"
       transform="matrix(0.13333333,0,0,-0.13333333,0,1056)" />
    <path
       id="path53"
       d="m 2762.39,5836.42 h -252.1 l 42.01,42.02 h 252.1 l -42.01,-42.02 v -252.1 l 42.01,42.02 v 252.1"
       style="fill:#ffffff;fill-opacity:1;fill-rule:evenodd;stroke:#000000;stroke-width:7.96717;stroke-linecap:butt;stroke-linejoin:miter;stroke-miterlimit:10;stroke-dasharray:none;stroke-opacity:1"
       transform="matrix(0.13333333,0,0,-0.13333333,0,1056)" />
    <path
       id="path54"
       d="m 3518.69,5836.42 h -252.1 l 42.02,42.02 h 252.1 l -42.02,-42.02 v -252.1 l 42.02,42.02 v 252.1"
       style="fill:#ffffff;fill-opacity:1;fill-rule:evenodd;stroke:#000000;stroke-width:7.96717;stroke-linecap:butt;stroke-linejoin:miter;stroke-miterlimit:10;stroke-dasharray:none;stroke-opacity:1"
       transform="matrix(0.13333333,0,0,-0.13333333,0,1056)" />
    <path
       id="path55"
       d="m 2762.39,6088.52 h -252.1 l 42.01,42.02 h 252.1 l -42.01,-42.02 v -252.1 l 42.01,42.02 v 252.1"
       style="fill:#ffffff;fill-opacity:1;fill-rule:evenodd;stroke:#000000;stroke-width:7.96717;stroke-linecap:butt;stroke-linejoin:miter;stroke-miterlimit:10;stroke-dasharray:none;stroke-opacity:1"
       transform="matrix(0.13333333,0,0,-0.13333333,0,1056)" />
    <path
       id="path56"
       d="m 2510.29,5836.42 h 252.102 v 252.102 H 2510.29 Z"
       style="fill:#ffffff;fill-opacity:1;fill-rule:evenodd;stroke:#000000;stroke-width:7.96717;stroke-linecap:butt;stroke-linejoin:miter;stroke-miterlimit:10;stroke-dasharray:none;stroke-opacity:1"
       transform="matrix(0.13333333,0,0,-0.13333333,0,1056)" />
    <path
       id="path57"
       d="M 0.99671094,6.953125e-4 H 5.1451484 c 0.8671875,0 1.5117188,-0.2343750025 2.0039063,-0.7734375025 0.4570312,-0.48046871 0.703125,-1.12500001 0.703125,-1.85156251 0,-1.1015625 -0.5039063,-1.78125 -1.6757813,-2.2265625 0.84375,-0.3984375 1.2773438,-1.0664062 1.2773438,-2.0039062 0,-0.6796875 -0.2578125,-1.265625 -0.7265625,-1.6992188 C 6.2349922,-8.9875859 5.6138984,-9.1868047 4.7349922,-9.1868047 H 0.99671094 Z M 2.1685859,-5.2375859 v -2.9179688 h 2.2734375 c 0.65625,0 1.0195313,0.082031 1.3359375,0.328125 0.328125,0.2460938 0.5039063,0.6328125 0.5039063,1.1367188 0,0.5039062 -0.1757813,0.8789062 -0.5039063,1.125 -0.3164062,0.2460937 -0.6796875,0.328125 -1.3359375,0.328125 z m 0,4.2070312 v -3.1640625 h 2.859375 c 1.0429688,0 1.6523438,0.5859375 1.6523438,1.5820313 0,0.984375 -0.609375,1.5820312 -1.6523438,1.5820312 z m 0,0"
       style="fill:#000000;fill-opacity:1;fill-rule:nonzero;stroke:none"
       aria-label="B"
       transform="matrix(1.3333333,0,0,1.3333333,345.90933,267.18267)" />
    <path
       id="path58"
       d="m 2804.4,5752.39 h 378.15"
       style="fill:none;stroke:#000000;stroke-width:7.96717;stroke-linecap:butt;stroke-linejoin:miter;stroke-miterlimit:10;stroke-dasharray:none;stroke-opacity:1"
       transform="matrix(0.13333333,0,0,-0.13333333,0,1056)" />
    <path
       id="path59"
       d="m 3056.5,5626.34 c 0,0 0,0 0,42.02 0,42.01 0,126.04 -21,182.07 -21.01,56.02 -63.03,84.03 -98.04,98.03 -35.02,14.01 -63.03,14.01 -77.03,14.01 -14.01,0 -14.01,0 -14.01,0"
       style="fill:none;stroke:#000000;stroke-width:15.9343;stroke-linecap:butt;stroke-linejoin:miter;stroke-miterlimit:10;stroke-dasharray:none;stroke-opacity:1"
       transform="matrix(0.13333333,0,0,-0.13333333,0,1056)" />
    <path
       id="path60"
       d="m 2926.09,5942.55 -79.67,19.92 79.67,19.92"
       style="fill:none;stroke:#000000;stroke-width:15.9343;stroke-linecap:butt;stroke-linejoin:miter;stroke-miterlimit:10;stroke-dasharray:none;stroke-opacity:1"
       transform="matrix(0.13333333,0,0,-0.13333333,0,1056)" />
    <path
       id="path61"
       d="M 0.65617187,-4.9565938 V 4.375e-4 H 1.4530469 V -3.11675 c 0,-0.7148438 0.5273437,-1.2890625 1.171875,-1.2890625 0.5859375,0 0.9140625,0.3632812 0.9140625,0.9960937 V 4.375e-4 h 0.796875 V -3.11675 c 0,-0.7148438 0.515625,-1.2890625 1.1601562,-1.2890625 0.5742188,0 0.9140625,0.3632812 0.9140625,0.9960937 V 4.375e-4 h 0.796875 v -3.7148438 c 0,-0.890625 -0.515625,-1.3828125 -1.4414062,-1.3828125 -0.65625,0 -1.0546875,0.1992188 -1.5234375,0.7617188 -0.2929688,-0.5390625 -0.6914063,-0.7617188 -1.3242188,-0.7617188 -0.6679687,0 -1.1132812,0.2460938 -1.5234375,0.84375 v -0.703125 z m 9.79687513,-0.140625 c -1.4062501,0 -2.2382814,0.9960938 -2.2382814,2.6601563 0,1.67578125 0.8320313,2.66015625 2.2382814,2.66015625 1.40625,0 2.25,-0.99609375 2.25,-2.62500005 0,-1.7226562 -0.820313,-2.6953125 -2.25,-2.6953125 z m 0,0.7265625 c 0.890625,0 1.417969,0.7265625 1.417969,1.9570313 0,1.171875 -0.539063,1.8984375 -1.417969,1.8984375 -0.8789064,0 -1.4179689,-0.7265625 -1.4179689,-1.921875 0,-1.2070313 0.5390625,-1.9335938 1.4179689,-1.9335938 z m 5.373047,4.3710938 1.898437,-4.9570313 h -0.890625 l -1.394531,4.0195313 -1.324219,-4.0195313 h -0.890625 l 1.746094,4.9570313 z m 6.884765,-2.2148438 c 0,-0.75 -0.05859,-1.2070312 -0.199218,-1.5820312 -0.316407,-0.8085938 -1.078125,-1.3007813 -2.003907,-1.3007813 -1.382812,0 -2.273437,1.0546875 -2.273437,2.6835938 0,1.640625 0.855469,2.63671875 2.25,2.63671875 1.136719,0 1.921875,-0.64453125 2.121094,-1.72265625 h -0.796875 c -0.210938,0.64453125 -0.65625,0.984375 -1.289063,0.984375 -0.503906,0 -0.925781,-0.22265625 -1.195312,-0.6328125 -0.1875,-0.2929688 -0.257813,-0.5742188 -0.269532,-1.0664063 z m -3.632812,-0.6445312 c 0.07031,-0.9140625 0.621094,-1.5117188 1.417969,-1.5117188 0.808593,0 1.359375,0.6210938 1.359375,1.5117188 z m 7.415039,2.859375 h 3.105469 c 0.65625,0 1.136718,-0.17578125 1.511718,-0.57421875 0.339844,-0.36328125 0.527344,-0.85546875 0.527344,-1.39453125 0,-0.8320313 -0.386719,-1.3359375 -1.265625,-1.6757813 0.644531,-0.2929687 0.960938,-0.7851562 0.960938,-1.5 0,-0.515625 -0.1875,-0.9492187 -0.550782,-1.265625 -0.363281,-0.328125 -0.832031,-0.4804687 -1.488281,-0.4804687 h -2.800781 z m 0.878906,-3.9257813 V -6.11675 h 1.699219 c 0.492187,0 0.761719,0.070312 1.007812,0.2460937 0.246094,0.1875 0.375,0.46875 0.375,0.84375 0,0.3867188 -0.128906,0.6679688 -0.375,0.8554688 -0.246093,0.1757812 -0.515625,0.2460937 -1.007812,0.2460937 z m 0,3.1523438 v -2.3789063 h 2.144531 c 0.773438,0 1.242188,0.4453125 1.242188,1.1953125 0,0.7382813 -0.46875,1.1835938 -1.242188,1.1835938 z M 7.8339062,4.3568828 c -1.40625,0 -2.2382812,0.9960938 -2.2382812,2.6601563 0,1.6757812 0.8320312,2.6601562 2.2382812,2.6601562 1.40625,0 2.2499998,-0.9960937 2.2499998,-2.625 0,-1.7226562 -0.8203123,-2.6953125 -2.2499998,-2.6953125 z m 0,0.7265625 c 0.890625,0 1.4179688,0.7265625 1.4179688,1.9570313 0,1.171875 -0.5390625,1.8984375 -1.4179688,1.8984375 -0.8789062,0 -1.4179687,-0.7265625 -1.4179687,-1.921875 0,-1.2070313 0.5390625,-1.9335938 1.4179687,-1.9335938 z M 11.167891,4.4975078 v 4.9570313 h 0.796875 V 6.7240703 c 0,-1.0195312 0.527343,-1.6757812 1.347656,-1.6757812 0.621094,0 1.019531,0.375 1.019531,0.9726562 v 3.4335938 h 0.785156 v -3.75 c 0,-0.8203125 -0.609375,-1.3476563 -1.570312,-1.3476563 -0.738281,0 -1.207031,0.28125 -1.640625,0.9726563 V 4.4975078 Z m 9.632812,0 h -0.808594 v -1.359375 h -0.785156 v 1.359375 h -0.679687 v 0.6445313 h 0.679687 v 3.75 c 0,0.5039062 0.339844,0.7851562 0.949219,0.7851562 0.210937,0 0.375,-0.023437 0.644531,-0.070312 V 8.9389141 c -0.117187,0.035156 -0.222656,0.046875 -0.375,0.046875 -0.339844,0 -0.433594,-0.09375 -0.433594,-0.4453125 V 5.1420391 h 0.808594 z m 2.803711,-0.140625 c -1.40625,0 -2.238281,0.9960938 -2.238281,2.6601563 0,1.6757812 0.832031,2.6601562 2.238281,2.6601562 1.40625,0 2.25,-0.9960937 2.25,-2.625 0,-1.7226562 -0.820312,-2.6953125 -2.25,-2.6953125 z m 0,0.7265625 c 0.890625,0 1.417969,0.7265625 1.417969,1.9570313 0,1.171875 -0.539063,1.8984375 -1.417969,1.8984375 -0.878906,0 -1.417969,-0.7265625 -1.417969,-1.921875 0,-1.2070313 0.539063,-1.9335938 1.417969,-1.9335938 z m 3.193359,6.4335937 H 27.58293 V 8.9389141 c 0.421875,0.5039062 0.878906,0.7382812 1.523437,0.7382812 1.289063,0 2.121094,-1.03125 2.121094,-2.6132812 0,-1.6640625 -0.808594,-2.7070313 -2.132813,-2.7070313 -0.667968,0 -1.207031,0.3046875 -1.570312,0.890625 v -0.75 h -0.726563 z m 2.167969,-6.4218749 c 0.867188,0 1.441406,0.7617187 1.441406,1.9453125 0,1.125 -0.574218,1.8984375 -1.441406,1.8984375 -0.84375,0 -1.382812,-0.7617188 -1.382812,-1.921875 0,-1.1601563 0.539062,-1.921875 1.382812,-1.921875 z M 18.345625,13.810984 c -1.40625,0 -2.238281,0.996094 -2.238281,2.660157 0,1.675781 0.832031,2.660156 2.238281,2.660156 1.40625,0 2.25,-0.996094 2.25,-2.625 0,-1.722656 -0.820313,-2.695313 -2.25,-2.695313 z m 0,0.726563 c 0.890625,0 1.417969,0.726562 1.417969,1.957031 0,1.171875 -0.539063,1.898438 -1.417969,1.898438 -0.878906,0 -1.417969,-0.726563 -1.417969,-1.921875 0,-1.207032 0.539063,-1.933594 1.417969,-1.933594 z m 5.118164,-0.585938 h -0.820312 v -0.773437 c 0,-0.328125 0.175781,-0.503906 0.550781,-0.503906 0.05859,0 0.09375,0 0.269531,0.01172 v -0.65625 c -0.175781,-0.03516 -0.28125,-0.04687 -0.445312,-0.04687 -0.726563,0 -1.160157,0.421875 -1.160157,1.125 v 0.84375 h -0.65625 v 0.644532 h 0.65625 v 4.3125 h 0.785157 v -4.3125 h 0.820312 z m 7.306641,2.882813 0.703125,2.074219 h 0.984375 l -2.425782,-6.890625 h -1.125 l -2.460937,6.890625 h 0.9375 l 0.726562,-2.074219 z m -0.246094,-0.738281 h -2.203125 l 1.136719,-3.140625 z m 0,0"
       style="fill:#000000;fill-opacity:1;fill-rule:nonzero;stroke:none"
       aria-label="move B&#10;  on top&#10;      of A"
       transform="matrix(1.3333333,0,0,1.3333333,390.72667,246.03067)" />
    <path
       id="path62"
       d="m 2426.25,4860.06 -210.09,-252.1 h 1470.59 l 168.07,252.1 H 3560.7"
       style="fill:#bfbfbf;fill-opacity:1;fill-rule:evenodd;stroke:#000000;stroke-width:7.96717;stroke-linecap:butt;stroke-linejoin:miter;stroke-miterlimit:10;stroke-dasharray:none;stroke-opacity:1"
       transform="matrix(0.13333333,0,0,-0.13333333,0,1056)" />
    <path
       id="path63"
       d="m 3266.59,4692 h 252.102 v 252.102 H 3266.59 Z"
       style="fill:#ffffff;fill-opacity:1;fill-rule:evenodd;stroke:#000000;stroke-width:7.96717;stroke-linecap:butt;stroke-linejoin:miter;stroke-miterlimit:10;stroke-dasharray:none;stroke-opacity:1"
       transform="matrix(0.13333333,0,0,-0.13333333,0,1056)" />
    <path
       id="path64"
       d="m 8.34425,-6.3397656 c -0.3632813,-2.015625 -1.5234375,-3 -3.5390625,-3 -1.2304688,0 -2.2265625,0.3867187 -2.9179688,1.1484375 -0.8320312,0.9023437 -1.2773437,2.2148437 -1.2773437,3.703125 0,1.5117187 0.4570312,2.8125 1.3242187,3.70312498 0.7148438,0.73828125 1.6171875,1.078125 2.8242188,1.078125 2.2382812,0 3.5039062,-1.21875 3.7734375,-3.64453128 H 7.3247187 c -0.09375,0.6328125 -0.2226562,1.0546875 -0.4101562,1.4179688 -0.3867188,0.7617187 -1.1601563,1.19531248 -2.1445313,1.19531248 -1.828125,0 -2.9882812,-1.46484378 -2.9882812,-3.76171878 0,-2.3554687 1.0898437,-3.8085937 2.8828125,-3.8085937 0.75,0 1.4414062,0.2109375 1.8164062,0.5742187 0.3398438,0.3164063 0.5273438,0.703125 0.6679688,1.3945313 z m 0,0"
       style="fill:#000000;fill-opacity:1;fill-rule:nonzero;stroke:none"
       aria-label="C"
       transform="matrix(1.3333333,0,0,1.3333333,446.74933,419.77333)" />
    <path
       id="path65"
       d="m 2510.28,4692 h 252.102 v 252.102 H 2510.28 Z"
       style="fill:#ffffff;fill-opacity:1;fill-rule:evenodd;stroke:#000000;stroke-width:7.96717;stroke-linecap:butt;stroke-linejoin:miter;stroke-miterlimit:10;stroke-dasharray:none;stroke-opacity:1"
       transform="matrix(0.13333333,0,0,-0.13333333,0,1056)" />
    <path
       id="path66"
       d="M 5.9771797,-2.7655469 6.9263984,7.8125e-5 h 1.3125 L 5.0045234,-9.1874219 H 3.4928047 L 0.21155469,7.8125e-5 H 1.4654609 L 2.4381172,-2.7655469 Z m -0.328125,-0.984375 H 2.7193672 l 1.5234375,-4.1835937 z m 0,0"
       style="fill:#000000;fill-opacity:1;fill-rule:nonzero;stroke:none"
       aria-label="A"
       transform="matrix(1.3333333,0,0,1.3333333,345.90933,419.77333)" />
    <path
       id="path67"
       d="m 3182.55,4860.06 h 84.04"
       style="fill:none;stroke:#000000;stroke-width:7.96717;stroke-linecap:butt;stroke-linejoin:miter;stroke-miterlimit:10;stroke-dasharray:none;stroke-opacity:1"
       transform="matrix(0.13333333,0,0,-0.13333333,0,1056)" />
    <path
       id="path68"
       d="m 2426.25,4860.06 h 84.03"
       style="fill:none;stroke:#000000;stroke-width:7.96717;stroke-linecap:butt;stroke-linejoin:miter;stroke-miterlimit:10;stroke-dasharray:none;stroke-opacity:1"
       transform="matrix(0.13333333,0,0,-0.13333333,0,1056)" />
    <path
       id="path69"
       d="m 2762.38,4944.1 h -252.1 l 42.02,42.01 h 252.1 l -42.02,-42.01 V 4692 l 42.02,42.02 v 252.09"
       style="fill:#ffffff;fill-opacity:1;fill-rule:evenodd;stroke:#000000;stroke-width:7.96717;stroke-linecap:butt;stroke-linejoin:miter;stroke-miterlimit:10;stroke-dasharray:none;stroke-opacity:1"
       transform="matrix(0.13333333,0,0,-0.13333333,0,1056)" />
    <path
       id="path70"
       d="m 3518.69,4944.1 h -252.1 l 42.01,42.01 h 252.1 l -42.01,-42.01 V 4692 l 42.01,42.02 v 252.09"
       style="fill:#ffffff;fill-opacity:1;fill-rule:evenodd;stroke:#000000;stroke-width:7.96717;stroke-linecap:butt;stroke-linejoin:miter;stroke-miterlimit:10;stroke-dasharray:none;stroke-opacity:1"
       transform="matrix(0.13333333,0,0,-0.13333333,0,1056)" />
    <path
       id="path71"
       d="m 3518.69,5196.2 h -252.1 l 42.01,42.01 h 252.1 l -42.01,-42.01 v -252.1 l 42.01,42.01 v 252.1"
       style="fill:#ffffff;fill-opacity:1;fill-rule:evenodd;stroke:#000000;stroke-width:7.96717;stroke-linecap:butt;stroke-linejoin:miter;stroke-miterlimit:10;stroke-dasharray:none;stroke-opacity:1"
       transform="matrix(0.13333333,0,0,-0.13333333,0,1056)" />
    <path
       id="path72"
       d="m 3266.59,4944.1 h 252.102 v 252.102 H 3266.59 Z"
       style="fill:#ffffff;fill-opacity:1;fill-rule:evenodd;stroke:#000000;stroke-width:7.96717;stroke-linecap:butt;stroke-linejoin:miter;stroke-miterlimit:10;stroke-dasharray:none;stroke-opacity:1"
       transform="matrix(0.13333333,0,0,-0.13333333,0,1056)" />
    <path
       id="path73"
       d="M 0.99659375,1.171875e-4 H 5.1450312 c 0.8671875,0 1.5117188,-0.2343749975 2.0039063,-0.7734374975 0.4570312,-0.48046879 0.703125,-1.12499999 0.703125,-1.85156249 0,-1.1015625 -0.5039063,-1.78125 -1.6757813,-2.2265625 0.84375,-0.3984375 1.2773438,-1.0664063 1.2773438,-2.0039063 0,-0.6796875 -0.2578125,-1.265625 -0.7265625,-1.6992187 C 6.234875,-8.9881641 5.6137812,-9.1873828 4.734875,-9.1873828 H 0.99659375 Z M 2.1684687,-5.2381641 v -2.9179687 h 2.2734375 c 0.65625,0 1.0195313,0.082031 1.3359375,0.328125 0.328125,0.2460937 0.5039063,0.6328125 0.5039063,1.1367187 0,0.5039063 -0.1757813,0.8789063 -0.5039063,1.125 -0.3164062,0.2460938 -0.6796875,0.328125 -1.3359375,0.328125 z m 0,4.2070313 v -3.1640625 h 2.859375 c 1.0429688,0 1.6523438,0.5859375 1.6523438,1.5820312 0,0.984375 -0.609375,1.5820313 -1.6523438,1.5820313 z m 0,0"
       style="fill:#000000;fill-opacity:1;fill-rule:nonzero;stroke:none"
       aria-label="B"
       transform="matrix(1.3333333,0,0,1.3333333,446.74933,386.16)" />
    <path
       id="path74"
       d="m 2804.4,4860.06 h 378.15"
       style="fill:none;stroke:#000000;stroke-width:7.96717;stroke-linecap:butt;stroke-linejoin:miter;stroke-miterlimit:10;stroke-dasharray:none;stroke-opacity:1"
       transform="matrix(0.13333333,0,0,-0.13333333,0,1056)" />
    <path
       id="path75"
       d="m 3014.48,4734.02 c 0,0 0,0 0,42.01 0,42.02 0,126.05 21.01,182.07 21.01,56.03 63.03,84.04 98.04,98.04 35.02,14.01 63.03,14.01 77.03,14.01 14.01,0 14.01,0 14.01,0"
       style="fill:none;stroke:#000000;stroke-width:15.9343;stroke-linecap:butt;stroke-linejoin:miter;stroke-miterlimit:10;stroke-dasharray:none;stroke-opacity:1"
       transform="matrix(0.13333333,0,0,-0.13333333,0,1056)" />
    <path
       id="path76"
       d="m 3144.89,5090.07 79.68,-19.92 -79.68,-19.92"
       style="fill:none;stroke:#000000;stroke-width:15.9343;stroke-linecap:butt;stroke-linejoin:miter;stroke-miterlimit:10;stroke-dasharray:none;stroke-opacity:1"
       transform="matrix(0.13333333,0,0,-0.13333333,0,1056)" />
    <path
       id="path77"
       d="M 0.65682812,-4.9579297 V -8.984375e-4 H 1.4537031 V -3.1180859 c 0,-0.7148438 0.5273438,-1.2890625 1.171875,-1.2890625 0.5859375,0 0.9140625,0.3632812 0.9140625,0.9960937 v 3.4101562625 h 0.796875 V -3.1180859 c 0,-0.7148438 0.515625,-1.2890625 1.1601563,-1.2890625 0.5742187,0 0.9140625,0.3632812 0.9140625,0.9960937 v 3.4101562625 h 0.796875 V -3.7157422 c 0,-0.890625 -0.515625,-1.3828125 -1.4414063,-1.3828125 -0.65625,0 -1.0546875,0.1992188 -1.5234375,0.7617188 -0.2929687,-0.5390625 -0.6914062,-0.7617188 -1.3242187,-0.7617188 -0.6679688,0 -1.1132813,0.2460938 -1.5234375,0.84375 v -0.703125 z m 9.79687488,-0.140625 c -1.4062499,0 -2.2382811,0.9960938 -2.2382811,2.6601563 0,1.67578121 0.8320312,2.66015621 2.2382811,2.66015621 1.40625,0 2.25,-0.99609375 2.25,-2.62500001 0,-1.7226562 -0.820312,-2.6953125 -2.25,-2.6953125 z m 0,0.7265625 c 0.890625,0 1.417969,0.7265625 1.417969,1.9570313 0,1.171875 -0.539063,1.89843746 -1.417969,1.89843746 -0.8789061,0 -1.4179686,-0.72656246 -1.4179686,-1.92187496 0,-1.2070313 0.5390625,-1.9335938 1.4179686,-1.9335938 z M 15.82675,-8.984375e-4 17.725187,-4.9579297 h -0.890625 l -1.394531,4.01953126 -1.324219,-4.01953126 h -0.890625 l 1.746094,4.9570312625 z M 22.708586,-2.2157422 c 0,-0.75 -0.05859,-1.2070312 -0.199219,-1.5820312 -0.316406,-0.8085938 -1.078125,-1.3007813 -2.003906,-1.3007813 -1.382813,0 -2.273438,1.0546875 -2.273438,2.6835938 0,1.64062496 0.855469,2.63671871 2.25,2.63671871 1.136719,0 1.921875,-0.64453125 2.121094,-1.72265621 h -0.796875 c -0.210937,0.64453121 -0.65625,0.98437496 -1.289062,0.98437496 -0.503907,0 -0.925782,-0.22265625 -1.195313,-0.63281246 -0.1875,-0.2929688 -0.257812,-0.5742188 -0.269531,-1.0664063 z m -3.632813,-0.6445312 c 0.07031,-0.9140625 0.621094,-1.5117188 1.417969,-1.5117188 0.808594,0 1.359375,0.6210938 1.359375,1.5117188 z m 7.417969,2.8593749625 h 3.105469 c 0.65625,0 1.136719,-0.1757812525 1.511719,-0.5742187525 0.339843,-0.36328125 0.527343,-0.85546871 0.527343,-1.39453121 0,-0.8320313 -0.386718,-1.3359375 -1.265625,-1.6757813 0.644532,-0.2929687 0.960938,-0.7851562 0.960938,-1.5 0,-0.515625 -0.1875,-0.9492187 -0.550781,-1.265625 -0.363282,-0.328125 -0.832032,-0.4804687 -1.488282,-0.4804687 H 26.493742 Z M 27.372648,-3.9266797 v -2.1914062 h 1.699219 c 0.492188,0 0.761719,0.070312 1.007813,0.2460937 0.246093,0.1875 0.375,0.46875 0.375,0.84375 0,0.3867188 -0.128907,0.6679688 -0.375,0.8554688 -0.246094,0.1757812 -0.515625,0.2460937 -1.007813,0.2460937 z m 0,3.15234376 V -3.1532422 h 2.144532 c 0.773437,0 1.242187,0.4453125 1.242187,1.1953125 0,0.7382813 -0.46875,1.18359376 -1.242187,1.18359376 z M 2.5787031,4.3555469 c -1.40625,0 -2.23828123,0.9960937 -2.23828123,2.6601562 0,1.6757813 0.83203123,2.6601563 2.23828123,2.6601563 1.40625,0 2.25,-0.9960938 2.25,-2.625 0,-1.7226563 -0.8203125,-2.6953125 -2.25,-2.6953125 z m 0,0.7265625 c 0.890625,0 1.4179688,0.7265625 1.4179688,1.9570312 0,1.171875 -0.5390625,1.8984375 -1.4179688,1.8984375 -0.8789062,0 -1.4179687,-0.7265625 -1.4179687,-1.921875 0,-1.2070312 0.5390625,-1.9335937 1.4179687,-1.9335937 z M 5.9126875,4.4961719 v 4.9570312 h 0.796875 V 6.7227344 c 0,-1.0195313 0.5273437,-1.6757813 1.3476562,-1.6757813 0.6210938,0 1.0195313,0.375 1.0195313,0.9726563 v 3.4335937 h 0.7851562 v -3.75 c 0,-0.8203125 -0.609375,-1.3476562 -1.5703125,-1.3476562 -0.7382812,0 -1.2070312,0.28125 -1.640625,0.9726562 V 4.4961719 Z m 9.6298825,0 H 14.733977 V 3.1367969 H 13.94882 v 1.359375 h -0.679687 v 0.6445312 h 0.679687 v 3.75 c 0,0.5039063 0.339844,0.7851563 0.949219,0.7851563 0.210938,0 0.375,-0.023437 0.644531,-0.070312 V 8.9375781 c -0.117187,0.035156 -0.222656,0.046875 -0.375,0.046875 -0.339843,0 -0.433593,-0.09375 -0.433593,-0.4453125 V 5.1407031 h 0.808593 z m 2.803711,-0.140625 c -1.40625,0 -2.238281,0.9960937 -2.238281,2.6601562 0,1.6757813 0.832031,2.6601563 2.238281,2.6601563 1.40625,0 2.25,-0.9960938 2.25,-2.625 0,-1.7226563 -0.820312,-2.6953125 -2.25,-2.6953125 z m 0,0.7265625 c 0.890625,0 1.417969,0.7265625 1.417969,1.9570312 0,1.171875 -0.539063,1.8984375 -1.417969,1.8984375 -0.878906,0 -1.417969,-0.7265625 -1.417969,-1.921875 0,-1.2070312 0.539063,-1.9335937 1.417969,-1.9335937 z m 3.19336,6.4335936 h 0.785156 V 8.9375781 c 0.421875,0.5039063 0.878906,0.7382813 1.523437,0.7382813 1.289063,0 2.121094,-1.03125 2.121094,-2.6132813 0,-1.6640625 -0.808594,-2.7070312 -2.132812,-2.7070312 -0.667969,0 -1.207032,0.3046875 -1.570313,0.890625 v -0.75 h -0.726562 z m 2.167968,-6.4218749 c 0.867188,0 1.441407,0.7617188 1.441407,1.9453125 0,1.125 -0.574219,1.8984375 -1.441407,1.8984375 -0.84375,0 -1.382812,-0.7617187 -1.382812,-1.921875 0,-1.1601562 0.539062,-1.921875 1.382812,-1.921875 z M 2.5787031,13.809648 c -1.40625,0 -2.23828123,0.996094 -2.23828123,2.660157 0,1.675781 0.83203123,2.660156 2.23828123,2.660156 1.40625,0 2.25,-0.996094 2.25,-2.625 0,-1.722656 -0.8203125,-2.695313 -2.25,-2.695313 z m 0,0.726563 c 0.890625,0 1.4179688,0.726562 1.4179688,1.957031 0,1.171875 -0.5390625,1.898438 -1.4179688,1.898438 -0.8789062,0 -1.4179687,-0.726563 -1.4179687,-1.921875 0,-1.207032 0.5390625,-1.933594 1.4179687,-1.933594 z M 7.6939375,13.950273 H 6.873625 v -0.773437 c 0,-0.328125 0.1757812,-0.503906 0.5507812,-0.503906 0.058594,0 0.09375,0 0.2695313,0.01172 V 12.0284 c -0.1757813,-0.03516 -0.28125,-0.04687 -0.4453125,-0.04687 -0.7265625,0 -1.1601563,0.421875 -1.1601563,1.125 v 0.84375 h -0.65625 v 0.644532 h 0.65625 v 4.3125 H 6.873625 v -4.3125 h 0.8203125 z m 9.0761715,0.199219 c -0.269531,-1.511719 -1.136718,-2.25 -2.660156,-2.25 -0.925781,0 -1.664062,0.292969 -2.179687,0.855469 -0.621094,0.691406 -0.960938,1.664062 -0.960938,2.789062 0,1.136719 0.351563,2.109375 0.984375,2.777344 0.539063,0.550781 1.230469,0.808594 2.121094,0.808594 1.6875,0 2.636719,-0.914063 2.835937,-2.742188 h -0.902343 c -0.08203,0.480469 -0.175782,0.796875 -0.316407,1.078125 -0.28125,0.5625 -0.867187,0.878907 -1.605468,0.878907 -1.371094,0 -2.238282,-1.089844 -2.238282,-2.8125 0,-1.769532 0.820313,-2.859375 2.167969,-2.859375 0.550781,0 1.078125,0.164062 1.359375,0.433593 0.257813,0.234375 0.398438,0.527344 0.503906,1.042969 z m 0,0"
       style="fill:#000000;fill-opacity:1;fill-rule:nonzero;stroke:none"
       aria-label="move B&#10;on top&#10;of C"
       transform="matrix(1.3333333,0,0,1.3333333,379.52267,363.60667)" />
    <path
       id="path78"
       d="m 4490.99,5752.38 -210.08,-252.1 H 5751.5 l 168.06,252.1 h -294.11"
       style="fill:#bfbfbf;fill-opacity:1;fill-rule:evenodd;stroke:#000000;stroke-width:7.96717;stroke-linecap:butt;stroke-linejoin:miter;stroke-miterlimit:10;stroke-dasharray:none;stroke-opacity:1"
       transform="matrix(0.13333333,0,0,-0.13333333,0,1056)" />
    <path
       id="path79"
       d="m 4575.03,5584.32 h 252.098 v 252.102 H 4575.03 Z"
       style="fill:#ffffff;fill-opacity:1;fill-rule:evenodd;stroke:#000000;stroke-width:7.96717;stroke-linecap:butt;stroke-linejoin:miter;stroke-miterlimit:10;stroke-dasharray:none;stroke-opacity:1"
       transform="matrix(0.13333333,0,0,-0.13333333,0,1056)" />
    <path
       id="path80"
       d="m 5.9758359,-2.7659688 0.9492188,2.76562505 h 1.3125 L 5.0031797,-9.1878438 H 3.4914609 L 0.21021094,-3.4375e-4 H 1.4641172 L 2.4367734,-2.7659688 Z m -0.328125,-0.984375 H 2.7180234 l 1.5234375,-4.1835937 z m 0,0"
       style="fill:#000000;fill-opacity:1;fill-rule:nonzero;stroke:none"
       aria-label="A"
       transform="matrix(1.3333333,0,0,1.3333333,621.208,300.79733)" />
    <path
       id="path81"
       d="m 4869.14,5752.38 h 84.04"
       style="fill:none;stroke:#000000;stroke-width:7.96717;stroke-linecap:butt;stroke-linejoin:miter;stroke-miterlimit:10;stroke-dasharray:none;stroke-opacity:1"
       transform="matrix(0.13333333,0,0,-0.13333333,0,1056)" />
    <path
       id="path82"
       d="m 4490.99,5752.38 h 84.04"
       style="fill:none;stroke:#000000;stroke-width:7.96717;stroke-linecap:butt;stroke-linejoin:miter;stroke-miterlimit:10;stroke-dasharray:none;stroke-opacity:1"
       transform="matrix(0.13333333,0,0,-0.13333333,0,1056)" />
    <path
       id="path83"
       d="m 4827.13,5836.42 h -252.1 l 42.01,42.01 h 252.1 l -42.01,-42.01 v -252.1 l 42.01,42.01 v 252.1"
       style="fill:#ffffff;fill-opacity:1;fill-rule:evenodd;stroke:#000000;stroke-width:7.96717;stroke-linecap:butt;stroke-linejoin:miter;stroke-miterlimit:10;stroke-dasharray:none;stroke-opacity:1"
       transform="matrix(0.13333333,0,0,-0.13333333,0,1056)" />
    <path
       id="path84"
       d="m 5205.28,5836.42 h -252.1 l 42.02,42.01 h 252.09 l -42.01,-42.01 v -252.1 l 42.01,42.01 v 252.1"
       style="fill:#ffffff;fill-opacity:1;fill-rule:evenodd;stroke:#000000;stroke-width:7.96717;stroke-linecap:butt;stroke-linejoin:miter;stroke-miterlimit:10;stroke-dasharray:none;stroke-opacity:1"
       transform="matrix(0.13333333,0,0,-0.13333333,0,1056)" />
    <path
       id="path85"
       d="m 4575.03,5836.42 h 252.098 v 252.102 H 4575.03 Z"
       style="fill:#ffffff;fill-opacity:1;fill-rule:evenodd;stroke:#000000;stroke-width:7.96717;stroke-linecap:butt;stroke-linejoin:miter;stroke-miterlimit:10;stroke-dasharray:none;stroke-opacity:1"
       transform="matrix(0.13333333,0,0,-0.13333333,0,1056)" />
    <path
       id="path86"
       d="m 8.3430234,-6.3391484 c -0.3632812,-2.015625 -1.5234375,-3 -3.5390625,-3 -1.2304687,0 -2.2265625,0.3867187 -2.9179687,1.1484375 -0.8320313,0.9023437 -1.27734376,2.2148437 -1.27734376,3.703125 0,1.5117187 0.45703126,2.8125 1.32421876,3.70312496 0.7148437,0.73828125 1.6171875,1.078125 2.8242187,1.078125 2.2382813,0 3.5039063,-1.21875 3.7734375,-3.64453126 H 7.3234922 c -0.09375,0.6328125 -0.2226563,1.0546875 -0.4101563,1.4179688 -0.3867187,0.7617187 -1.1601562,1.19531246 -2.1445312,1.19531246 -1.828125,0 -2.9882813,-1.46484376 -2.9882813,-3.76171876 0,-2.3554687 1.0898438,-3.8085937 2.8828125,-3.8085937 0.75,0 1.4414063,0.2109375 1.8164063,0.5742187 0.3398437,0.3164063 0.5273437,0.703125 0.6679687,1.3945313 z m 0,0"
       style="fill:#000000;fill-opacity:1;fill-rule:nonzero;stroke:none"
       aria-label="C"
       transform="matrix(1.3333333,0,0,1.3333333,621.208,267.18267)" />
    <path
       id="path87"
       d="m 4827.13,6088.52 h -252.1 l 42.01,42.02 h 252.1 l -42.01,-42.02 v -252.1 l 42.01,42.01 v 252.11"
       style="fill:#ffffff;fill-opacity:1;fill-rule:evenodd;stroke:#000000;stroke-width:7.96717;stroke-linecap:butt;stroke-linejoin:miter;stroke-miterlimit:10;stroke-dasharray:none;stroke-opacity:1"
       transform="matrix(0.13333333,0,0,-0.13333333,0,1056)" />
    <path
       id="path88"
       d="m 4953.18,5584.32 h 252.102 v 252.102 H 4953.18 Z"
       style="fill:#ffffff;fill-opacity:1;fill-rule:evenodd;stroke:#000000;stroke-width:7.96717;stroke-linecap:butt;stroke-linejoin:miter;stroke-miterlimit:10;stroke-dasharray:none;stroke-opacity:1"
       transform="matrix(0.13333333,0,0,-0.13333333,0,1056)" />
    <path
       id="path89"
       d="M 0.99677344,-3.4375e-4 H 5.1452109 c 0.8671875,0 1.5117188,-0.234375 2.0039063,-0.7734375 0.4570312,-0.48046875 0.703125,-1.12500005 0.703125,-1.85156255 0,-1.1015625 -0.5039063,-1.78125 -1.6757813,-2.2265625 0.84375,-0.3984375 1.2773438,-1.0664062 1.2773438,-2.0039062 0,-0.6796875 -0.2578125,-1.265625 -0.7265625,-1.6992188 C 6.2350547,-8.988625 5.6139609,-9.1878438 4.7350547,-9.1878438 H 0.99677344 Z M 2.1686484,-5.238625 v -2.9179688 h 2.2734375 c 0.65625,0 1.0195313,0.082031 1.3359375,0.328125 0.328125,0.2460938 0.5039063,0.6328125 0.5039063,1.1367188 0,0.5039062 -0.1757813,0.8789062 -0.5039063,1.125 -0.3164062,0.2460937 -0.6796875,0.328125 -1.3359375,0.328125 z m 0,4.2070312 v -3.1640625 h 2.859375 c 1.0429688,0 1.6523438,0.5859375 1.6523438,1.5820313 0,0.984375 -0.609375,1.5820312 -1.6523438,1.5820312 z m 0,0"
       style="fill:#000000;fill-opacity:1;fill-rule:nonzero;stroke:none"
       aria-label="B"
       transform="matrix(1.3333333,0,0,1.3333333,671.628,300.79733)" />
    <path
       id="path90"
       d="m 5247.29,5752.38 h 378.16"
       style="fill:none;stroke:#000000;stroke-width:7.96717;stroke-linecap:butt;stroke-linejoin:miter;stroke-miterlimit:10;stroke-dasharray:none;stroke-opacity:1"
       transform="matrix(0.13333333,0,0,-0.13333333,0,1056)" />
    <path
       id="path91"
       d="m 5499.39,5626.33 c 0,0 0,0 0,42.02 0,42.02 0,126.05 -28.01,189.08 -28.01,63.02 -84.03,105.04 -182.07,126.05 -98.04,21 -238.1,21 -308.12,21 -70.03,0 -70.03,0 -70.03,0"
       style="fill:none;stroke:#000000;stroke-width:15.9343;stroke-linecap:butt;stroke-linejoin:miter;stroke-miterlimit:10;stroke-dasharray:none;stroke-opacity:1"
       transform="matrix(0.13333333,0,0,-0.13333333,0,1056)" />
    <path
       id="path92"
       d="m 4990.83,5984.57 -79.67,19.91 79.67,19.92"
       style="fill:none;stroke:#000000;stroke-width:15.9343;stroke-linecap:butt;stroke-linejoin:miter;stroke-miterlimit:10;stroke-dasharray:none;stroke-opacity:1"
       transform="matrix(0.13333333,0,0,-0.13333333,0,1056)" />
    <path
       id="path93"
       d="M 0.65623438,-4.9565938 V 4.375e-4 H 1.4531094 V -3.11675 c 0,-0.7148438 0.5273437,-1.2890625 1.171875,-1.2890625 0.5859375,0 0.9140625,0.3632812 0.9140625,0.9960937 V 4.375e-4 h 0.796875 V -3.11675 c 0,-0.7148438 0.515625,-1.2890625 1.1601562,-1.2890625 0.5742188,0 0.9140625,0.3632812 0.9140625,0.9960937 V 4.375e-4 h 0.796875 v -3.7148438 c 0,-0.890625 -0.515625,-1.3828125 -1.4414062,-1.3828125 -0.65625,0 -1.0546875,0.1992188 -1.5234375,0.7617188 -0.2929688,-0.5390625 -0.6914063,-0.7617188 -1.3242188,-0.7617188 -0.6679687,0 -1.1132812,0.2460938 -1.5234375,0.84375 v -0.703125 z m 9.79687462,-0.140625 c -1.4062496,0 -2.2382809,0.9960938 -2.2382809,2.6601563 0,1.67578125 0.8320313,2.66015625 2.2382809,2.66015625 1.40625,0 2.25,-0.99609375 2.25,-2.62500005 0,-1.7226562 -0.820312,-2.6953125 -2.25,-2.6953125 z m 0,0.7265625 c 0.890625,0 1.417969,0.7265625 1.417969,1.9570313 0,1.171875 -0.539062,1.8984375 -1.417969,1.8984375 -0.8789059,0 -1.4179684,-0.7265625 -1.4179684,-1.921875 0,-1.2070313 0.5390625,-1.9335938 1.4179684,-1.9335938 z m 5.373047,4.3710938 1.898438,-4.9570313 h -0.890625 l -1.394531,4.0195313 -1.324219,-4.0195313 h -0.890625 l 1.746094,4.9570313 z m 6.884766,-2.2148438 c 0,-0.75 -0.05859,-1.2070312 -0.199219,-1.5820312 -0.316406,-0.8085938 -1.078125,-1.3007813 -2.003906,-1.3007813 -1.382813,0 -2.273438,1.0546875 -2.273438,2.6835938 0,1.640625 0.855469,2.63671875 2.25,2.63671875 1.136719,0 1.921875,-0.64453125 2.121094,-1.72265625 h -0.796875 c -0.210937,0.64453125 -0.65625,0.984375 -1.289062,0.984375 -0.503907,0 -0.925782,-0.22265625 -1.195313,-0.6328125 -0.1875,-0.2929688 -0.257812,-0.5742188 -0.269531,-1.0664063 z m -3.632813,-0.6445312 c 0.07031,-0.9140625 0.621094,-1.5117188 1.417969,-1.5117188 0.808594,0 1.359375,0.6210938 1.359375,1.5117188 z M 32.000961,-4.757375 c -0.269531,-1.5117188 -1.136719,-2.25 -2.660156,-2.25 -0.925782,0 -1.664063,0.2929687 -2.179688,0.8554687 -0.621094,0.6914063 -0.960937,1.6640625 -0.960937,2.7890625 0,1.1367188 0.351562,2.109375 0.984375,2.7773438 0.539062,0.55078125 1.230468,0.80859375 2.121093,0.80859375 1.6875,0 2.636719,-0.9140625 2.835938,-2.74218755 h -0.902344 c -0.08203,0.4804688 -0.175781,0.796875 -0.316406,1.078125 -0.28125,0.56250005 -0.867188,0.8789063 -1.605469,0.8789063 -1.371094,0 -2.238281,-1.0898438 -2.238281,-2.8125 0,-1.7695313 0.820312,-2.859375 2.167969,-2.859375 0.550781,0 1.078125,0.1640625 1.359375,0.4335937 0.257812,0.234375 0.398437,0.5273438 0.503906,1.0429688 z M 7.8339688,4.3568828 c -1.40625,0 -2.2382813,0.9960938 -2.2382813,2.6601563 0,1.6757812 0.8320313,2.6601562 2.2382813,2.6601562 1.40625,0 2.2500002,-0.9960937 2.2500002,-2.625 0,-1.7226562 -0.8203127,-2.6953125 -2.2500002,-2.6953125 z m 0,0.7265625 c 0.890625,0 1.4179687,0.7265625 1.4179687,1.9570313 0,1.171875 -0.5390625,1.8984375 -1.4179687,1.8984375 C 6.9550625,8.9389141 6.416,8.2123516 6.416,7.0170391 6.416,5.8100078 6.9550625,5.0834453 7.8339688,5.0834453 Z M 11.167953,4.4975078 v 4.9570313 h 0.796875 V 6.7240703 c 0,-1.0195312 0.527344,-1.6757812 1.347656,-1.6757812 0.621094,0 1.019532,0.375 1.019532,0.9726562 v 3.4335938 h 0.785156 v -3.75 c 0,-0.8203125 -0.609375,-1.3476563 -1.570313,-1.3476563 -0.738281,0 -1.207031,0.28125 -1.640625,0.9726563 V 4.4975078 Z m 9.632813,0 h -0.808594 v -1.359375 h -0.785156 v 1.359375 h -0.679688 v 0.6445313 h 0.679688 v 3.75 c 0,0.5039062 0.339843,0.7851562 0.949218,0.7851562 0.210938,0 0.375,-0.023437 0.644532,-0.070312 V 8.9389141 c -0.117188,0.035156 -0.222657,0.046875 -0.375,0.046875 -0.339844,0 -0.433594,-0.09375 -0.433594,-0.4453125 V 5.1420391 h 0.808594 z m 2.803711,-0.140625 c -1.40625,0 -2.238282,0.9960938 -2.238282,2.6601563 0,1.6757812 0.832032,2.6601562 2.238282,2.6601562 1.40625,0 2.25,-0.9960937 2.25,-2.625 0,-1.7226562 -0.820313,-2.6953125 -2.25,-2.6953125 z m 0,0.7265625 c 0.890625,0 1.417968,0.7265625 1.417968,1.9570313 0,1.171875 -0.539062,1.8984375 -1.417968,1.8984375 -0.878907,0 -1.417969,-0.7265625 -1.417969,-1.921875 0,-1.2070313 0.539062,-1.9335938 1.417969,-1.9335938 z m 3.193359,6.4335937 h 0.785156 V 8.9389141 c 0.421875,0.5039062 0.878906,0.7382812 1.523438,0.7382812 1.289062,0 2.121093,-1.03125 2.121093,-2.6132812 0,-1.6640625 -0.808593,-2.7070313 -2.132812,-2.7070313 -0.667969,0 -1.207031,0.3046875 -1.570313,0.890625 v -0.75 h -0.726562 z m 2.167969,-6.4218749 c 0.867187,0 1.441406,0.7617187 1.441406,1.9453125 0,1.125 -0.574219,1.8984375 -1.441406,1.8984375 -0.84375,0 -1.382813,-0.7617188 -1.382813,-1.921875 0,-1.1601563 0.539063,-1.921875 1.382813,-1.921875 z M 18.345688,13.810984 c -1.40625,0 -2.238282,0.996094 -2.238282,2.660157 0,1.675781 0.832032,2.660156 2.238282,2.660156 1.40625,0 2.25,-0.996094 2.25,-2.625 0,-1.722656 -0.820313,-2.695313 -2.25,-2.695313 z m 0,0.726563 c 0.890625,0 1.417968,0.726562 1.417968,1.957031 0,1.171875 -0.539062,1.898438 -1.417968,1.898438 -0.878907,0 -1.417969,-0.726563 -1.417969,-1.921875 0,-1.207032 0.539062,-1.933594 1.417969,-1.933594 z m 5.118164,-0.585938 h -0.820313 v -0.773437 c 0,-0.328125 0.175781,-0.503906 0.550781,-0.503906 0.05859,0 0.09375,0 0.269532,0.01172 v -0.65625 c -0.175782,-0.03516 -0.28125,-0.04687 -0.445313,-0.04687 -0.726562,0 -1.160156,0.421875 -1.160156,1.125 v 0.84375 h -0.65625 v 0.644532 h 0.65625 v 4.3125 h 0.785156 v -4.3125 h 0.820313 z m 7.30664,2.882813 0.703125,2.074219 h 0.984375 l -2.425781,-6.890625 h -1.125 l -2.460938,6.890625 h 0.9375 l 0.726563,-2.074219 z m -0.246094,-0.738281 h -2.203125 l 1.136719,-3.140625 z m 0,0"
       style="fill:#000000;fill-opacity:1;fill-rule:nonzero;stroke:none"
       aria-label="move C&#10;  on top&#10;      of A"
       transform="matrix(1.3333333,0,0,1.3333333,716.44533,246.03067)" />
    <path
       id="path94"
       d="m 4490.99,4860.06 -210.08,-252.1 H 5751.5 l 168.07,252.1 h -294.12"
       style="fill:#bfbfbf;fill-opacity:1;fill-rule:evenodd;stroke:#000000;stroke-width:7.96717;stroke-linecap:butt;stroke-linejoin:miter;stroke-miterlimit:10;stroke-dasharray:none;stroke-opacity:1"
       transform="matrix(0.13333333,0,0,-0.13333333,0,1056)" />
    <path
       id="path95"
       d="m 4575.03,4691.99 h 252.102 v 252.102 H 4575.03 Z"
       style="fill:#ffffff;fill-opacity:1;fill-rule:evenodd;stroke:#000000;stroke-width:7.96717;stroke-linecap:butt;stroke-linejoin:miter;stroke-miterlimit:10;stroke-dasharray:none;stroke-opacity:1"
       transform="matrix(0.13333333,0,0,-0.13333333,0,1056)" />
    <path
       id="path96"
       d="M 5.9758359,-2.7655469 6.9250547,7.8125e-5 h 1.3125 L 5.0031797,-9.1874219 H 3.4914609 L 0.21021094,7.8125e-5 H 1.4641172 L 2.4367734,-2.7655469 Z m -0.328125,-0.984375 H 2.7180234 l 1.5234375,-4.1835937 z m 0,0"
       style="fill:#000000;fill-opacity:1;fill-rule:nonzero;stroke:none"
       aria-label="A"
       transform="matrix(1.3333333,0,0,1.3333333,621.208,419.77333)" />
    <path
       id="path97"
       d="m 4869.14,4860.06 h 84.04"
       style="fill:none;stroke:#000000;stroke-width:7.96717;stroke-linecap:butt;stroke-linejoin:miter;stroke-miterlimit:10;stroke-dasharray:none;stroke-opacity:1"
       transform="matrix(0.13333333,0,0,-0.13333333,0,1056)" />
    <path
       id="path98"
       d="m 4490.99,4860.06 h 84.04"
       style="fill:none;stroke:#000000;stroke-width:7.96717;stroke-linecap:butt;stroke-linejoin:miter;stroke-miterlimit:10;stroke-dasharray:none;stroke-opacity:1"
       transform="matrix(0.13333333,0,0,-0.13333333,0,1056)" />
    <path
       id="path99"
       d="m 4827.13,4944.09 h -252.1 l 42.01,42.02 h 252.1 l -42.01,-42.02 v -252.1 l 42.01,42.02 v 252.1"
       style="fill:#ffffff;fill-opacity:1;fill-rule:evenodd;stroke:#000000;stroke-width:7.96717;stroke-linecap:butt;stroke-linejoin:miter;stroke-miterlimit:10;stroke-dasharray:none;stroke-opacity:1"
       transform="matrix(0.13333333,0,0,-0.13333333,0,1056)" />
    <path
       id="path100"
       d="m 5205.28,4944.09 h -252.1 l 42.02,42.02 h 252.1 l -42.02,-42.02 v -252.1 l 42.02,42.02 v 252.1"
       style="fill:#ffffff;fill-opacity:1;fill-rule:evenodd;stroke:#000000;stroke-width:7.96717;stroke-linecap:butt;stroke-linejoin:miter;stroke-miterlimit:10;stroke-dasharray:none;stroke-opacity:1"
       transform="matrix(0.13333333,0,0,-0.13333333,0,1056)" />
    <path
       id="path101"
       d="m 4953.18,4944.09 h 252.102 v 252.102 H 4953.18 Z"
       style="fill:#ffffff;fill-opacity:1;fill-rule:evenodd;stroke:#000000;stroke-width:7.96717;stroke-linecap:butt;stroke-linejoin:miter;stroke-miterlimit:10;stroke-dasharray:none;stroke-opacity:1"
       transform="matrix(0.13333333,0,0,-0.13333333,0,1056)" />
    <path
       id="path102"
       d="m 8.3444297,-6.3397266 c -0.3632813,-2.015625 -1.5234375,-3 -3.5390625,-3 -1.2304688,0 -2.2265625,0.3867188 -2.9179688,1.1484375 -0.8320312,0.9023438 -1.27734371,2.2148438 -1.27734371,3.703125 0,1.5117188 0.45703121,2.8125 1.32421871,3.70312504 0.7148438,0.73828125 1.6171875,1.078125 2.8242188,1.078125 2.2382812,0 3.5039062,-1.21875 3.7734375,-3.64453124 H 7.3248984 c -0.09375,0.6328125 -0.2226562,1.0546875 -0.4101562,1.4179687 -0.3867188,0.7617188 -1.1601563,1.19531254 -2.1445313,1.19531254 -1.828125,0 -2.9882812,-1.46484374 -2.9882812,-3.76171874 0,-2.3554688 1.0898437,-3.8085938 2.8828125,-3.8085938 0.75,0 1.4414062,0.2109375 1.8164062,0.5742188 0.3398438,0.3164062 0.5273438,0.703125 0.6679688,1.3945312 z m 0,0"
       style="fill:#000000;fill-opacity:1;fill-rule:nonzero;stroke:none"
       aria-label="C"
       transform="matrix(1.3333333,0,0,1.3333333,671.628,386.16)" />
    <path
       id="path103"
       d="m 5205.28,5196.2 h -252.1 l 42.02,42.01 h 252.1 l -42.02,-42.01 v -252.11 l 42.02,42.02 v 252.1"
       style="fill:#ffffff;fill-opacity:1;fill-rule:evenodd;stroke:#000000;stroke-width:7.96717;stroke-linecap:butt;stroke-linejoin:miter;stroke-miterlimit:10;stroke-dasharray:none;stroke-opacity:1"
       transform="matrix(0.13333333,0,0,-0.13333333,0,1056)" />
    <path
       id="path104"
       d="m 4953.18,4691.99 h 252.102 v 252.102 H 4953.18 Z"
       style="fill:#ffffff;fill-opacity:1;fill-rule:evenodd;stroke:#000000;stroke-width:7.96717;stroke-linecap:butt;stroke-linejoin:miter;stroke-miterlimit:10;stroke-dasharray:none;stroke-opacity:1"
       transform="matrix(0.13333333,0,0,-0.13333333,0,1056)" />
    <path
       id="path105"
       d="M 0.99677344,7.8125e-5 H 5.1452109 c 0.8671875,0 1.5117188,-0.234374995 2.0039063,-0.773437495 0.4570312,-0.48046873 0.703125,-1.12500003 0.703125,-1.85156253 0,-1.1015625 -0.5039063,-1.78125 -1.6757813,-2.2265625 0.84375,-0.3984375 1.2773438,-1.0664062 1.2773438,-2.0039062 0,-0.6796875 -0.2578125,-1.265625 -0.7265625,-1.6992188 C 6.2350547,-8.9882031 5.6139609,-9.1874219 4.7350547,-9.1874219 H 0.99677344 Z M 2.1686484,-5.2382031 v -2.9179688 h 2.2734375 c 0.65625,0 1.0195313,0.082031 1.3359375,0.328125 0.328125,0.2460938 0.5039063,0.6328125 0.5039063,1.1367188 0,0.5039062 -0.1757813,0.8789062 -0.5039063,1.125 -0.3164062,0.2460937 -0.6796875,0.328125 -1.3359375,0.328125 z m 0,4.2070312 v -3.1640625 h 2.859375 c 1.0429688,0 1.6523438,0.5859375 1.6523438,1.5820313 0,0.984375 -0.609375,1.5820312 -1.6523438,1.5820312 z m 0,0"
       style="fill:#000000;fill-opacity:1;fill-rule:nonzero;stroke:none"
       aria-label="B"
       transform="matrix(1.3333333,0,0,1.3333333,671.628,419.77333)" />
    <path
       id="path106"
       d="m 5247.3,4860.06 h 420.16"
       style="fill:none;stroke:#000000;stroke-width:7.96717;stroke-linecap:butt;stroke-linejoin:miter;stroke-miterlimit:10;stroke-dasharray:none;stroke-opacity:1"
       transform="matrix(0.13333333,0,0,-0.13333333,0,1056)" />
    <path
       id="path107"
       d="m 5499.4,4734.01 c 0,0 0,0 0,42.02 0,42.01 0,126.05 -21.01,182.07 -21.01,56.02 -63.03,84.03 -98.04,98.04 -35.01,14 -63.03,14 -77.03,14 -14.01,0 -14.01,0 -14.01,0"
       style="fill:none;stroke:#000000;stroke-width:15.9343;stroke-linecap:butt;stroke-linejoin:miter;stroke-miterlimit:10;stroke-dasharray:none;stroke-opacity:1"
       transform="matrix(0.13333333,0,0,-0.13333333,0,1056)" />
    <path
       id="path108"
       d="m 5368.98,5050.23 -79.67,19.91 79.67,19.92"
       style="fill:none;stroke:#000000;stroke-width:15.9343;stroke-linecap:butt;stroke-linejoin:miter;stroke-miterlimit:10;stroke-dasharray:none;stroke-opacity:1"
       transform="matrix(0.13333333,0,0,-0.13333333,0,1056)" />
    <path
       id="path109"
       d="M 0.65540625,-4.957 V 3.125e-5 H 1.4522813 V -3.1171562 c 0,-0.7148438 0.5273437,-1.2890625 1.171875,-1.2890625 0.5859375,0 0.9140625,0.3632812 0.9140625,0.9960937 V 3.125e-5 h 0.796875 V -3.1171562 c 0,-0.7148438 0.515625,-1.2890625 1.1601562,-1.2890625 0.5742188,0 0.9140625,0.3632812 0.9140625,0.9960937 V 3.125e-5 h 0.796875 V -3.7148125 c 0,-0.890625 -0.515625,-1.3828125 -1.4414062,-1.3828125 -0.65625,0 -1.0546875,0.1992188 -1.5234375,0.7617188 C 3.948375,-4.8749687 3.5499375,-5.097625 2.917125,-5.097625 c -0.6679687,0 -1.1132812,0.2460938 -1.5234375,0.84375 V -4.957 Z M 10.452281,-5.097625 c -1.4062497,0 -2.238281,0.9960938 -2.238281,2.6601563 0,1.6757812 0.8320313,2.6601562 2.238281,2.6601562 1.40625,0 2.25,-0.99609375 2.25,-2.625 0,-1.7226562 -0.820312,-2.6953125 -2.25,-2.6953125 z m 0,0.7265625 c 0.890625,0 1.417969,0.7265625 1.417969,1.9570313 0,1.171875 -0.539062,1.89843745 -1.417969,1.89843745 -0.878906,0 -1.4179685,-0.72656245 -1.4179685,-1.92187495 0,-1.2070313 0.5390625,-1.9335938 1.4179685,-1.9335938 z M 15.825328,3.125e-5 17.723766,-4.957 H 16.833141 L 15.438609,-0.93746875 14.114391,-4.957 H 13.223766 L 14.969859,3.125e-5 Z m 6.884766,-2.21484375 c 0,-0.75 -0.05859,-1.2070312 -0.199219,-1.5820312 -0.316406,-0.8085938 -1.078125,-1.3007813 -2.003906,-1.3007813 -1.382813,0 -2.273438,1.0546875 -2.273438,2.6835938 0,1.64062495 0.855469,2.6367187 2.25,2.6367187 1.136719,0 1.921875,-0.64453125 2.121094,-1.7226562 H 21.80775 c -0.210937,0.6445312 -0.65625,0.98437495 -1.289062,0.98437495 -0.503907,0 -0.925782,-0.22265625 -1.195313,-0.63281245 -0.1875,-0.2929688 -0.257812,-0.5742188 -0.269531,-1.0664063 z m -3.632813,-0.6445312 c 0.07031,-0.9140625 0.621094,-1.5117188 1.417969,-1.5117188 0.808594,0 1.359375,0.6210938 1.359375,1.5117188 z m 12.922852,-1.8984375 c -0.269531,-1.5117188 -1.136719,-2.25 -2.660156,-2.25 -0.925782,0 -1.664063,0.2929687 -2.179688,0.8554687 -0.621094,0.6914063 -0.960937,1.6640625 -0.960937,2.7890625 0,1.1367188 0.351562,2.109375 0.984375,2.77734375 0.539062,0.55078125 1.230468,0.80859375 2.121093,0.80859375 1.6875,0 2.636719,-0.9140625 2.835938,-2.7421875 h -0.902344 c -0.08203,0.4804688 -0.175781,0.796875 -0.316406,1.078125 -0.28125,0.5625 -0.867188,0.87890625 -1.605469,0.87890625 -1.371094,0 -2.238281,-1.08984375 -2.238281,-2.81249995 0,-1.7695313 0.820312,-2.859375 2.167969,-2.859375 0.550781,0 1.078125,0.1640625 1.359375,0.4335937 0.257812,0.234375 0.398437,0.5273438 0.503906,1.0429688 z M 7.8331406,4.3564766 c -1.40625,0 -2.2382812,0.9960937 -2.2382812,2.6601562 0,1.6757813 0.8320312,2.6601563 2.2382812,2.6601563 1.40625,0 2.2500004,-0.9960938 2.2500004,-2.625 0,-1.7226563 -0.8203129,-2.6953125 -2.2500004,-2.6953125 z m 0,0.7265625 c 0.890625,0 1.4179688,0.7265625 1.4179688,1.9570312 0,1.171875 -0.5390625,1.8984375 -1.4179688,1.8984375 -0.8789062,0 -1.4179687,-0.7265625 -1.4179687,-1.921875 0,-1.2070312 0.5390625,-1.9335937 1.4179687,-1.9335937 z M 11.170055,4.4971016 V 9.4541328 H 11.96693 V 6.7236641 c 0,-1.0195313 0.527343,-1.6757813 1.347656,-1.6757813 0.621094,0 1.019531,0.375 1.019531,0.9726563 v 3.4335937 h 0.785156 v -3.75 c 0,-0.8203125 -0.609375,-1.3476562 -1.570312,-1.3476562 -0.738281,0 -1.207031,0.28125 -1.640625,0.9726562 V 4.4971016 Z m 9.629883,0 h -0.808594 v -1.359375 h -0.785156 v 1.359375 H 18.5265 v 0.6445312 h 0.679688 v 3.75 c 0,0.5039063 0.339843,0.7851563 0.949218,0.7851563 0.210938,0 0.375,-0.023437 0.644532,-0.070312 V 8.9385078 c -0.117188,0.035156 -0.222657,0.046875 -0.375,0.046875 -0.339844,0 -0.433594,-0.09375 -0.433594,-0.4453125 V 5.1416328 h 0.808594 z m 2.80371,-0.140625 c -1.40625,0 -2.238281,0.9960937 -2.238281,2.6601562 0,1.6757813 0.832031,2.6601563 2.238281,2.6601563 1.40625,0 2.25,-0.9960938 2.25,-2.625 0,-1.7226563 -0.820312,-2.6953125 -2.25,-2.6953125 z m 0,0.7265625 c 0.890625,0 1.417969,0.7265625 1.417969,1.9570312 0,1.171875 -0.539062,1.8984375 -1.417969,1.8984375 -0.878906,0 -1.417968,-0.7265625 -1.417968,-1.921875 0,-1.2070312 0.539062,-1.9335937 1.417968,-1.9335937 z m 3.19336,6.4335939 h 0.785156 V 8.9385078 c 0.421875,0.5039063 0.878906,0.7382813 1.523438,0.7382813 1.289062,0 2.121093,-1.03125 2.121093,-2.6132813 0,-1.6640625 -0.808593,-2.7070312 -2.132812,-2.7070312 -0.667969,0 -1.207031,0.3046875 -1.570313,0.890625 v -0.75 h -0.726562 z m 2.167969,-6.4218752 c 0.867187,0 1.441406,0.7617188 1.441406,1.9453125 0,1.125 -0.574219,1.8984375 -1.441406,1.8984375 -0.84375,0 -1.382813,-0.7617187 -1.382813,-1.921875 0,-1.1601562 0.539063,-1.921875 1.382813,-1.921875 z M 18.347789,13.810578 c -1.40625,0 -2.238281,0.996094 -2.238281,2.660156 0,1.675782 0.832031,2.660157 2.238281,2.660157 1.40625,0 2.25,-0.996094 2.25,-2.625 0,-1.722657 -0.820312,-2.695313 -2.25,-2.695313 z m 0,0.726563 c 0.890625,0 1.417969,0.726562 1.417969,1.957031 0,1.171875 -0.539063,1.898437 -1.417969,1.898437 -0.878906,0 -1.417969,-0.726562 -1.417969,-1.921875 0,-1.207031 0.539063,-1.933593 1.417969,-1.933593 z m 5.115234,-0.585938 h -0.820312 v -0.773437 c 0,-0.328125 0.175781,-0.503907 0.550781,-0.503907 0.05859,0 0.09375,0 0.269531,0.01172 v -0.65625 c -0.175781,-0.03516 -0.28125,-0.04687 -0.445312,-0.04687 -0.726563,0 -1.160156,0.421875 -1.160156,1.125 v 0.84375 h -0.65625 v 0.644531 h 0.65625 v 4.3125 h 0.785156 v -4.3125 h 0.820312 z m 3.56836,4.957031 h 3.105469 c 0.65625,0 1.136718,-0.175781 1.511718,-0.574218 0.339844,-0.363282 0.527344,-0.855469 0.527344,-1.394532 0,-0.832031 -0.386719,-1.335937 -1.265625,-1.675781 0.644531,-0.292969 0.960938,-0.785156 0.960938,-1.5 0,-0.515625 -0.1875,-0.949219 -0.550782,-1.265625 -0.363281,-0.328125 -0.832031,-0.480469 -1.488281,-0.480469 h -2.800781 z m 0.878906,-3.925781 v -2.191406 h 1.699219 c 0.492187,0 0.761719,0.07031 1.007812,0.246094 0.246094,0.1875 0.375,0.46875 0.375,0.84375 0,0.386718 -0.128906,0.667968 -0.375,0.855468 -0.246093,0.175782 -0.515625,0.246094 -1.007812,0.246094 z m 0,3.152344 v -2.378906 h 2.144531 c 0.773438,0 1.242188,0.445312 1.242188,1.195312 0,0.738281 -0.46875,1.183594 -1.242188,1.183594 z m 0,0"
       style="fill:#000000;fill-opacity:1;fill-rule:nonzero;stroke:none"
       aria-label="move C&#10;  on top&#10;      of B"
       transform="matrix(1.3333333,0,0,1.3333333,722.048,370.60933)" />
  </g>
</svg>
