<?xml version="1.0" encoding="UTF-8" standalone="no"?>
<!-- Created with Inkscape (http://www.inkscape.org/) -->

<svg
   version="1.1"
   id="svg1"
   width="711.53906"
   height="259.37552"
   viewBox="0 0 711.53906 259.37552"
   xmlns="http://www.w3.org/2000/svg"
   xmlns:svg="http://www.w3.org/2000/svg">
  <defs
     id="defs1" />
  <g
     id="g1"
     transform="translate(-1.6718767,-83.828127)">
    <path
       id="path1"
       d="m 2358.28,6310 c 0,528.02 -428.04,956.06 -956.06,956.06 -528.013,0 -956.06,-428.04 -956.06,-956.06 0,-528.02 428.047,-956.06 956.06,-956.06 528.02,0 956.06,428.04 956.06,956.06"
       style="fill:none;stroke:#000000;stroke-width:15.9343;stroke-linecap:butt;stroke-linejoin:miter;stroke-miterlimit:10;stroke-dasharray:none;stroke-opacity:1"
       transform="matrix(0.13333333,0,0,-0.13333333,0,1056)" />
    <path
       id="path2"
       d="m 2.5541141,-3.5053125 h 3.890625 V -4.8998438 H 2.5541141 V -6.7396875 H 6.7611453 V -8.1342188 H 0.87833281 v 8.13281255 H 6.9603641 V -1.3959375 h -4.40625 z M 8.68595,-8.1342188 H 7.1273562 v 8.13281255 H 8.68595 Z m 6.196289,7.94531255 C 14.612708,-0.44671875 14.518958,-0.6225 14.518958,-0.9271875 V -4.27875 c 0,-1.21875 -0.832031,-1.8515625 -2.460938,-1.8515625 -1.628906,0 -2.4726559,0.6914062 -2.5781247,2.0859375 h 1.5117187 c 0.07031,-0.6210938 0.328125,-0.8203125 1.101563,-0.8203125 0.597656,0 0.902343,0.1992187 0.902343,0.5976562 0,0.1992188 -0.105468,0.375 -0.269531,0.46875 -0.210937,0.1171875 -0.210937,0.1171875 -0.984375,0.234375 L 11.12052,-3.4467188 C 9.9252078,-3.2475 9.3509891,-2.638125 9.3509891,-1.5482813 c 0,1.07812505 0.7265629,1.80468755 1.8281249,1.80468755 0.667969,0 1.265625,-0.28125 1.828125,-0.85546875 0,0.3046875 0.03516,0.421875 0.175781,0.59765625 h 1.699219 z M 12.99552,-2.4271875 c 0,0.9140625 -0.445312,1.4179687 -1.242187,1.4179687 -0.515625,0 -0.84375,-0.2695312 -0.84375,-0.7265625 0,-0.46875 0.246094,-0.6914062 0.890625,-0.8203125 l 0.539062,-0.1054687 c 0.410157,-0.070312 0.480469,-0.09375 0.65625,-0.1875 z m 2.009766,-5.7070313 v 8.13281255 h 1.558594 v -0.609375 c 0.386718,0.5859375 0.914062,0.8671875 1.664062,0.8671875 1.441406,0 2.53125,-1.37109375 2.53125,-3.18750005 0,-0.8203125 -0.246094,-1.640625 -0.644531,-2.2265625 -0.410156,-0.5859375 -1.148438,-0.9726562 -1.886719,-0.9726562 -0.75,0 -1.277344,0.28125 -1.664062,0.890625 v -2.8945313 z m 2.882812,3.3164063 c 0.761719,0 1.3125,0.7734375 1.3125,1.8984375 0,1.1015625 -0.539062,1.875 -1.3125,1.875 -0.796875,0 -1.324218,-0.75 -1.324218,-1.9101563 0,-1.1132812 0.539062,-1.8632812 1.324218,-1.8632812 z m 5.666016,-1.3125 c -1.851562,0 -2.976562,1.21875 -2.976562,3.1992187 0,1.9804688 1.125,3.18750005 2.988281,3.18750005 1.839844,0 2.976562,-1.20703125 2.976562,-3.15234375 0,-2.0390625 -1.113281,-3.234375 -2.988281,-3.234375 z m 0.01172,1.265625 c 0.855469,0 1.40625,0.7734375 1.40625,1.9570312 0,1.125 -0.574219,1.8984375 -1.40625,1.8984375 -0.855469,0 -1.417969,-0.7617187 -1.417969,-1.921875 0,-1.1601562 0.5625,-1.9335937 1.417969,-1.9335937 z m 3.169922,-1.1601563 v 6.02343755 h 1.558593 V -3.200625 c 0,-0.9140625 0.457032,-1.3710938 1.371094,-1.3710938 0.175781,0 0.28125,0.011719 0.492188,0.035156 v -1.5820313 c -0.08203,-0.011719 -0.117188,-0.011719 -0.1875,-0.011719 -0.714844,0 -1.324219,0.46875 -1.675782,1.2890625 v -1.1835938 z m 8.865234,5.83593755 C 35.331458,-0.44671875 35.237708,-0.6225 35.237708,-0.9271875 V -4.27875 c 0,-1.21875 -0.832031,-1.8515625 -2.460938,-1.8515625 -1.628906,0 -2.472656,0.6914062 -2.578125,2.0859375 h 1.511719 c 0.07031,-0.6210938 0.328125,-0.8203125 1.101563,-0.8203125 0.597656,0 0.902343,0.1992187 0.902343,0.5976562 0,0.1992188 -0.105468,0.375 -0.269531,0.46875 -0.210937,0.1171875 -0.210937,0.1171875 -0.984375,0.234375 l -0.621094,0.1171875 c -1.195312,0.1992188 -1.769531,0.8085938 -1.769531,1.8984375 0,1.07812505 0.726563,1.80468755 1.828125,1.80468755 0.667969,0 1.265625,-0.28125 1.828125,-0.85546875 0,0.3046875 0.03516,0.421875 0.175781,0.59765625 h 1.699219 z M 33.71427,-2.4271875 c 0,0.9140625 -0.445312,1.4179687 -1.242187,1.4179687 -0.515625,0 -0.84375,-0.2695312 -0.84375,-0.7265625 0,-0.46875 0.246094,-0.6914062 0.890625,-0.8203125 l 0.539062,-0.1054687 c 0.410157,-0.070312 0.480469,-0.09375 0.65625,-0.1875 z m 4.716797,-3.4804688 h -0.878906 v -1.6171875 h -1.558594 v 1.6171875 H 35.22013 v 1.0429688 h 0.773437 v 3.703125 c 0,0.94921875 0.503906,1.41796875 1.523438,1.41796875 0.363281,0 0.621093,-0.0351563 0.914062,-0.12890625 v -1.08984375 c -0.164062,0.0234375 -0.234375,0.0351563 -0.363281,0.0351563 -0.410156,0 -0.515625,-0.11718755 -0.515625,-0.65625005 v -3.2812499 h 0.878906 z m 2.129883,-0.1171875 h -1.558594 v 6.02343755 h 1.558594 z m 0,-2.109375 h -1.558594 v 1.3945313 h 1.558594 z m 3.711914,2.0039063 c -1.851562,0 -2.976562,1.21875 -2.976562,3.1992187 0,1.9804688 1.125,3.18750005 2.988281,3.18750005 1.839844,0 2.976562,-1.20703125 2.976562,-3.15234375 0,-2.0390625 -1.113281,-3.234375 -2.988281,-3.234375 z m 0.01172,1.265625 c 0.855469,0 1.40625,0.7734375 1.40625,1.9570312 0,1.125 -0.574219,1.8984375 -1.40625,1.8984375 -0.855469,0 -1.417969,-0.7617187 -1.417969,-1.921875 0,-1.1601562 0.5625,-1.9335937 1.417969,-1.9335937 z m 3.169922,-1.1601563 v 6.02343755 h 1.558593 V -3.6107813 c 0,-0.7148437 0.492188,-1.1835937 1.265625,-1.1835937 0.667969,0 1.007813,0.3632812 1.007813,1.078125 v 3.71484375 H 52.84513 V -4.044375 c 0,-1.3359375 -0.726563,-2.0859375 -2.027344,-2.0859375 -0.808594,0 -1.359375,0.2929687 -1.804688,0.9726562 v -0.8671875 z m 10.315429,3.1171875 h 2.085938 c 1.5,0 2.460937,-1.0546875 2.460937,-2.7070312 0,-1.6289063 -0.925781,-2.5195313 -2.625,-2.5195313 h -3.597656 v 8.13281255 h 1.675781 z m 0,-1.3945312 v -2.4375 h 1.558594 c 0.902344,0 1.3125,0.3867187 1.3125,1.21875 0,0.8320312 -0.410156,1.21875 -1.3125,1.21875 z m 4.608399,-3.8320313 v 8.13281255 h 1.558594 V -3.6107813 c 0,-0.6914062 0.503906,-1.1835937 1.207031,-1.1835937 0.339844,0 0.597656,0.1171875 0.785156,0.3632812 0.140625,0.1992188 0.175781,0.3632813 0.175781,0.75 v 3.67968755 H 67.66349 V -4.044375 c 0,-0.7382813 -0.199219,-1.2773438 -0.609375,-1.6289063 -0.351562,-0.28125 -0.855469,-0.4570312 -1.359375,-0.4570312 -0.761719,0 -1.324219,0.3046875 -1.757812,0.9726562 v -2.9765625 z m 10.939453,7.94531255 C 73.048255,-0.44671875 72.954505,-0.6225 72.954505,-0.9271875 V -4.27875 c 0,-1.21875 -0.832032,-1.8515625 -2.460938,-1.8515625 -1.628906,0 -2.472656,0.6914062 -2.578125,2.0859375 h 1.511719 c 0.07031,-0.6210938 0.328125,-0.8203125 1.101562,-0.8203125 0.597657,0 0.902344,0.1992187 0.902344,0.5976562 0,0.1992188 -0.105469,0.375 -0.269531,0.46875 -0.210938,0.1171875 -0.210938,0.1171875 -0.984375,0.234375 l -0.621094,0.1171875 c -1.195312,0.1992188 -1.769531,0.8085938 -1.769531,1.8984375 0,1.07812505 0.726562,1.80468755 1.828125,1.80468755 0.667969,0 1.265625,-0.28125 1.828125,-0.85546875 0,0.3046875 0.03516,0.421875 0.175781,0.59765625 h 1.699219 z m -1.88672,-2.23828125 c 0,0.9140625 -0.445312,1.4179687 -1.242187,1.4179687 -0.515625,0 -0.84375,-0.2695312 -0.84375,-0.7265625 0,-0.46875 0.246093,-0.6914062 0.890625,-0.8203125 l 0.539062,-0.1054687 c 0.410156,-0.070312 0.480469,-0.09375 0.65625,-0.1875 z m 6.990235,-1.6523438 c -0.02344,-1.2773437 -1.007813,-2.0507812 -2.625,-2.0507812 -1.523438,0 -2.472657,0.7734375 -2.472657,2.015625 0,0.3984375 0.117188,0.7382812 0.328125,0.9726562 0.210938,0.2226563 0.410157,0.3164063 0.984375,0.5039063 l 1.863282,0.5859375 C 76.886145,-1.935 77.02677,-1.8060938 77.02677,-1.56 c 0,0.3632812 -0.433593,0.5859375 -1.160156,0.5859375 -0.410156,0 -0.726562,-0.0703125 -0.925781,-0.2109375 -0.175781,-0.1171875 -0.234375,-0.2460938 -0.304688,-0.5625 h -1.523437 c 0.03516,1.32421875 1.007812,2.00390625 2.835937,2.00390625 0.84375,0 1.476563,-0.17578125 1.921875,-0.5390625 0.445313,-0.3515625 0.714844,-0.91406255 0.714844,-1.50000005 0,-0.7851562 -0.386719,-1.2890625 -1.183594,-1.5234375 l -1.96875,-0.5625 c -0.445312,-0.140625 -0.550781,-0.2226562 -0.550781,-0.46875 0,-0.3398437 0.351563,-0.5625 0.902344,-0.5625 0.75,0 1.113281,0.2695313 1.125,0.8203125 z m 5.52832,1.5585938 c 0.01172,-0.140625 0.01172,-0.1875 0.01172,-0.2695313 0,-0.5976562 -0.09375,-1.1601562 -0.234375,-1.5820312 -0.398438,-1.0898438 -1.371094,-1.7578125 -2.589844,-1.7578125 -1.734375,0 -2.789063,1.2539062 -2.789063,3.2695312 0,1.9335938 1.042969,3.11718755 2.753907,3.11718755 1.347656,0 2.449218,-0.76171875 2.789062,-1.95703125 h -1.535156 c -0.1875,0.4804687 -0.632813,0.76171875 -1.195313,0.76171875 -0.445312,0 -0.808593,-0.18750005 -1.03125,-0.52734375 -0.140625,-0.2226563 -0.199218,-0.4921875 -0.222656,-1.0546875 z M 79.930091,-3.5639063 C 80.035559,-4.4896875 80.422278,-4.935 81.113684,-4.935 c 0.714844,0 1.136719,0.4804687 1.21875,1.3710937 z M -69.653894,-33.552188 h 3.1875 c 1.230469,0 2.015625,-0.292968 2.578125,-0.949218 0.632813,-0.761719 0.972656,-1.851563 0.972656,-3.117188 0,-1.265625 -0.339843,-2.355469 -0.972656,-3.128906 -0.5625,-0.65625 -1.335937,-0.9375 -2.578125,-0.9375 h -3.1875 z m 1.675781,-1.394531 v -5.34375 h 1.511719 c 1.253906,0 1.886719,0.878906 1.886719,2.671875 0,1.792969 -0.632813,2.671875 -1.886719,2.671875 z m 11.370118,-1.125 c 0.01172,-0.140625 0.01172,-0.1875 0.01172,-0.269531 0,-0.597656 -0.09375,-1.160156 -0.234375,-1.582031 -0.398437,-1.089844 -1.371093,-1.757813 -2.589843,-1.757813 -1.734375,0 -2.789063,1.253906 -2.789063,3.269531 0,1.933594 1.042969,3.117188 2.753906,3.117188 1.347657,0 2.449219,-0.761719 2.789063,-1.957031 h -1.535156 c -0.1875,0.480468 -0.632813,0.761718 -1.195313,0.761718 -0.445312,0 -0.808594,-0.1875 -1.03125,-0.527343 -0.140625,-0.222657 -0.199219,-0.492188 -0.222656,-1.054688 z m -4.019532,-1.042969 c 0.105469,-0.925781 0.492188,-1.371093 1.183594,-1.371093 0.714844,0 1.136719,0.480468 1.21875,1.371093 z m 10.198243,-0.210937 c -0.117188,-1.464844 -1.078125,-2.355469 -2.601563,-2.355469 -1.804687,0 -2.847656,1.183594 -2.847656,3.234375 0,1.992188 1.042969,3.152344 2.824219,3.152344 1.464843,0 2.484375,-0.902344 2.625,-2.34375 h -1.5 c -0.1875,0.785156 -0.492188,1.078125 -1.125,1.078125 -0.785157,0 -1.253907,-0.703125 -1.253907,-1.886719 0,-0.574219 0.105469,-1.101562 0.292969,-1.453125 0.1875,-0.339844 0.527344,-0.515625 0.972656,-0.515625 0.632813,0 0.9375,0.304688 1.113282,1.089844 z m 2.683593,-2.25 h -1.558593 v 6.023437 h 1.558593 z m 0,-2.109375 h -1.558593 v 1.394531 h 1.558593 z m 6.430664,4.054687 c -0.02344,-1.277343 -1.007812,-2.050781 -2.625,-2.050781 -1.523437,0 -2.472656,0.773438 -2.472656,2.015625 0,0.398438 0.117188,0.738281 0.328125,0.972656 0.210938,0.222657 0.410156,0.316407 0.984375,0.503907 l 1.863281,0.585937 c 0.386719,0.117188 0.527344,0.246094 0.527344,0.492188 0,0.363281 -0.433594,0.585937 -1.160156,0.585937 -0.410156,0 -0.726563,-0.07031 -0.925781,-0.210937 -0.175782,-0.117188 -0.234375,-0.246094 -0.304688,-0.5625 h -1.523437 c 0.03516,1.324218 1.007812,2.003906 2.835937,2.003906 0.84375,0 1.476563,-0.175781 1.921875,-0.539063 0.445313,-0.351562 0.714844,-0.914062 0.714844,-1.5 0,-0.785156 -0.386719,-1.289062 -1.183594,-1.523437 l -1.96875,-0.5625 c -0.445312,-0.140625 -0.550781,-0.222656 -0.550781,-0.46875 0,-0.339844 0.351562,-0.5625 0.902344,-0.5625 0.75,0 1.113281,0.269531 1.125,0.820312 z m 2.874024,-1.945312 h -1.558594 v 6.023437 h 1.558594 z m 0,-2.109375 h -1.558594 v 1.394531 h 1.558594 z m 4.154297,2.003906 c -1.851563,0 -2.976563,1.21875 -2.976563,3.199219 0,1.980469 1.125,3.1875 2.988281,3.1875 1.839844,0 2.976563,-1.207031 2.976563,-3.152344 0,-2.039062 -1.113281,-3.234375 -2.988281,-3.234375 z m 0.01172,1.265625 c 0.855469,0 1.40625,0.773438 1.40625,1.957031 0,1.125 -0.574218,1.898438 -1.40625,1.898438 -0.855468,0 -1.417968,-0.761719 -1.417968,-1.921875 0,-1.160156 0.5625,-1.933594 1.417968,-1.933594 z m 4.142579,-1.160156 v 6.023437 h 1.558593 v -3.609375 c 0,-0.714843 0.492188,-1.183593 1.265625,-1.183593 0.667969,0 1.007813,0.363281 1.007813,1.078125 v 3.714843 h 1.558594 v -4.042968 c 0,-1.335938 -0.726563,-2.085938 -2.027344,-2.085938 -0.808594,0 -1.359375,0.292969 -1.804688,0.972656 v -0.867187 z m 16.819336,0.644531 c -0.04687,-0.703125 -0.199219,-1.148437 -0.539063,-1.605469 -0.632812,-0.820312 -1.628906,-1.277343 -2.847656,-1.277343 -2.296875,0 -3.726563,1.640625 -3.726563,4.265625 0,2.625 1.417969,4.253906 3.679688,4.253906 2.027344,0 3.375,-1.171875 3.46875,-3.035156 h -1.628906 c -0.105469,1.03125 -0.761719,1.628906 -1.792969,1.628906 -1.300781,0 -2.050781,-1.054688 -2.050781,-2.824219 0,-1.792969 0.785156,-2.871094 2.109375,-2.871094 0.960937,0 1.511718,0.46875 1.734375,1.464844 z m 4.842773,-0.644531 -1.2539063,4.382812 -1.3242187,-4.382812 h -1.710938 l 2.238282,6.269531 c 0,0.621094 -0.386719,1.042969 -0.972657,1.042969 -0.117187,0 -0.222656,-0.01172 -0.410156,-0.05859 v 1.171875 c 0.234375,0.03516 0.363281,0.03516 0.550781,0.03516 0.410157,0 0.855469,-0.07031 1.136719,-0.1875 0.433594,-0.175781 0.621094,-0.421875 0.8789065,-1.148437 l 2.4726562,-7.125 z m 7.63183594,2.25 c -0.1171875,-1.464844 -1.07812504,-2.355469 -2.60156254,-2.355469 -1.8046875,0 -2.8476562,1.183594 -2.8476562,3.234375 0,1.992188 1.0429687,3.152344 2.8242187,3.152344 1.4648438,0 2.48437504,-0.902344 2.62500004,-2.34375 H -2.3384641 c -0.1875,0.785156 -0.4921875,1.078125 -1.125,1.078125 -0.7851562,0 -1.2539062,-0.703125 -1.2539062,-1.886719 0,-0.574219 0.1054687,-1.101562 0.2929687,-1.453125 0.1875,-0.339844 0.5273438,-0.515625 0.9726563,-0.515625 0.6328125,0 0.9375,0.304688 1.1132812,1.089844 z M 1.8451297,-41.685 H 0.28653594 v 8.132812 H 1.8451297 Z m 6.6416015,5.613281 c 0.011719,-0.140625 0.011719,-0.1875 0.011719,-0.269531 0,-0.597656 -0.09375,-1.160156 -0.234375,-1.582031 -0.3984375,-1.089844 -1.3710938,-1.757813 -2.5898438,-1.757813 -1.734375,0 -2.7890625,1.253906 -2.7890625,3.269531 0,1.933594 1.0429688,3.117188 2.7539063,3.117188 1.3476562,0 2.4492187,-0.761719 2.7890625,-1.957031 H 6.8929812 c -0.1875,0.480468 -0.6328125,0.761718 -1.1953125,0.761718 -0.4453125,0 -0.8085937,-0.1875 -1.03125,-0.527343 C 4.5257937,-35.239688 4.4672,-35.509219 4.4437625,-36.071719 Z M 4.4672,-37.114688 c 0.1054687,-0.925781 0.4921875,-1.371093 1.1835937,-1.371093 0.7148438,0 1.1367188,0.480468 1.21875,1.371093 z m 0,0"
       style="fill:#000000;fill-opacity:1;fill-rule:nonzero;stroke:none"
       aria-label="Elaboration Phase&#10;Decision Cycle"
       transform="matrix(1.3333333,0,0,1.3333333,94.543733,139.58)" />
    <path
       id="path3"
       d="M 2358.28,6310 H 446.16"
       style="fill:none;stroke:#000000;stroke-width:15.9343;stroke-linecap:butt;stroke-linejoin:miter;stroke-miterlimit:10;stroke-dasharray:31.8687, 31.8687, 31.8687, 31.8687;stroke-dashoffset:0;stroke-opacity:1"
       transform="matrix(0.13333333,0,0,-0.13333333,0,1056)" />
    <path
       id="path4"
       d="m 382.426,6188.13 h 187.387 v 440.563 H 382.426 Z"
       style="fill:#ffffff;fill-opacity:1;fill-rule:evenodd;stroke:none"
       transform="matrix(0.13333333,0,0,-0.13333333,0,1056)" />
    <path
       id="path5"
       d="M 446.16,6182.52 382.426,6055.05"
       style="fill:none;stroke:#000000;stroke-width:15.9343;stroke-linecap:butt;stroke-linejoin:miter;stroke-miterlimit:10;stroke-dasharray:none;stroke-opacity:1"
       transform="matrix(0.13333333,0,0,-0.13333333,0,1056)" />
    <path
       id="path6"
       d="m 446.16,6182.52 127.477,-63.73"
       style="fill:none;stroke:#000000;stroke-width:15.9343;stroke-linecap:butt;stroke-linejoin:miter;stroke-miterlimit:10;stroke-dasharray:none;stroke-opacity:1"
       transform="matrix(0.13333333,0,0,-0.13333333,0,1056)" />
    <path
       id="path7"
       d="m 509.898,6628.69 63.739,-127.48"
       style="fill:none;stroke:#000000;stroke-width:15.9343;stroke-linecap:butt;stroke-linejoin:miter;stroke-miterlimit:10;stroke-dasharray:none;stroke-opacity:1"
       transform="matrix(0.13333333,0,0,-0.13333333,0,1056)" />
    <path
       id="path8"
       d="M 509.898,6628.69 382.426,6564.95"
       style="fill:none;stroke:#000000;stroke-width:15.9343;stroke-linecap:butt;stroke-linejoin:miter;stroke-miterlimit:10;stroke-dasharray:none;stroke-opacity:1"
       transform="matrix(0.13333333,0,0,-0.13333333,0,1056)" />
    <path
       id="path9"
       d="m 1.5242656,0.00113281 h 5.6601563 c 2.1914062,0 3.5859371,-0.515625 4.5703121,-1.68750001 1.136719,-1.3476562 1.746094,-3.2929687 1.746094,-5.5546875 0,-2.2382812 -0.609375,-4.1835933 -1.746094,-5.5429683 -0.984375,-1.171875 -2.3554684,-1.664063 -4.5703121,-1.664063 H 1.5242656 Z M 4.5008281,-2.4832422 V -11.97543 h 2.6835938 c 2.2382812,0 3.3398441,1.570313 3.3398441,4.7578128 0,3.1757813 -1.1015629,4.734375 -3.3398441,4.734375 z m 0,0"
       style="fill:#000000;fill-opacity:1;fill-rule:nonzero;stroke:none"
       aria-label="D"
       transform="matrix(1.3333333,0,0,1.3333333,166.89733,256.71333)" />
    <path
       id="path10"
       d="m 1314.41,5746.62 96.29,24.08 -132.4,-337.02 84.26,300.91 -96.29,-24.08 120.36,264.8"
       style="fill:#000000;fill-opacity:1;fill-rule:evenodd;stroke:none"
       transform="matrix(0.13333333,0,0,-0.13333333,0,1056)" />
    <path
       id="path11"
       d="m 1314.41,5746.62 96.29,24.08 -132.4,-337.02 84.26,300.91 -96.29,-24.08 120.36,264.8 z"
       style="fill:none;stroke:#000000;stroke-width:7.96717;stroke-linecap:butt;stroke-linejoin:miter;stroke-miterlimit:10;stroke-dasharray:none;stroke-opacity:1"
       transform="matrix(0.13333333,0,0,-0.13333333,0,1056)" />
    <path
       id="path12"
       d="m 1274.55,6627.08 179,61.91 -179,61.91"
       style="fill:#000000;fill-opacity:1;fill-rule:evenodd;stroke:none"
       transform="matrix(0.13333333,0,0,-0.13333333,0,1056)" />
    <path
       id="path13"
       d="m 782.293,6668.35 h 537.004 v 41.2734 H 782.293 Z"
       style="fill:#000000;fill-opacity:1;fill-rule:evenodd;stroke:none"
       transform="matrix(0.13333333,0,0,-0.13333333,0,1056)" />
    <path
       id="path14"
       d="m 897.551,6372.13 -179,61.91 179,61.91"
       style="fill:#000000;fill-opacity:1;fill-rule:evenodd;stroke:none"
       transform="matrix(0.13333333,0,0,-0.13333333,0,1056)" />
    <path
       id="path15"
       d="m 852.801,6413.4 h 537.004 v 41.2734 H 852.801 Z"
       style="fill:#000000;fill-opacity:1;fill-rule:evenodd;stroke:none"
       transform="matrix(0.13333333,0,0,-0.13333333,0,1056)" />
    <g
       id="g15"
       aria-label="E&#10;1, 2,&#10;4, 5&#10;Decision &#10;Phase&#10;3&#10;Five Problem−Solving Functions:&#10;1. Proposing an operator&#10;2. Comparing candidate operators&#10;3. Selecting a single operator&#10;4. Applying the operator&#10;5. Terminating the operator"
       transform="matrix(1.3333333,0,0,1.3333333,135.97333,188.38533)">
      <path
         id="path16"
         d="m 3.9838672,-7.2411484 h 8.6601558 v -1.78125 H 3.9838672 v -5.0742186 h 8.9882808 v -1.792969 H 1.9565234 V 0.00103906 H 13.358867 V -1.7919297 H 3.9838672 Z m 0,0"
         style="fill:#000000;fill-opacity:1;fill-rule:nonzero;stroke:none" />
      <path
         id="path17"
         d="m 81.031719,-27.37982 v 9.351562 h 2.683594 v -13.558594 h -1.78125 c -0.421875,1.605469 -1.816407,2.425782 -4.148438,2.425782 v 1.78125 z m 7.303711,6.5625 v 2.789062 h 1.652343 c 0.03516,1.300781 -0.503906,2.050781 -1.652343,2.261719 v 1.066406 c 2.050781,-0.304687 2.953125,-1.394531 2.871093,-3.503906 v -2.613281 z m 19.20996,0.398437 h -5.76562 c 0.36328,-0.726562 0.78515,-1.125 2.77734,-2.566406 2.35547,-1.722656 3.03516,-2.730469 3.03516,-4.582031 0,-2.625 -1.81641,-4.3125 -4.64063,-4.3125 -2.8125,0 -4.453124,1.664062 -4.453124,4.535156 v 0.480469 h 2.578124 v -0.445313 c 0,-1.5 0.70313,-2.390625 1.93359,-2.390625 1.1836,0 1.91016,0.832031 1.91016,2.191406 0,1.5 -0.45703,2.0625 -3.48047,4.207032 -2.296873,1.558593 -2.999998,2.753906 -3.117186,5.273437 h 9.222656 z m 2.05371,-0.398437 v 2.789062 h 1.65235 c 0.0352,1.300781 -0.50391,2.050781 -1.65235,2.261719 v 1.066406 c 2.05078,-0.304687 2.95313,-1.394531 2.8711,-3.503906 V -20.81732 Z M 86.469219,-4.13275 H 85.05125 v -8.332031 h -3.152344 l -4.957031,8.2968747 v 2.2617188 h 5.4375 v 3 h 2.671875 v -3 h 1.417969 z m -4.089844,0 h -3.539062 l 3.539062,-5.7890625 z m 5.956055,2.4375 v 2.7890625 h 1.652343 C 90.02293,2.3945937 89.483867,3.1445937 88.33543,3.3555312 V 4.4219375 C 90.386211,4.11725 91.288555,3.0274062 91.206523,0.91803125 V -1.69525 Z m 18.76465,-10.769531 h -7.242189 l -1.207032,7.5585935 h 2.402341 c 0.29297,-0.6796875 0.90235,-1.0429688 1.72266,-1.0429688 1.35937,0 2.17969,0.984375 2.17969,2.625 0,1.5820313 -0.82032,2.5664063 -2.17969,2.5664063 -1.16016,0 -1.81641,-0.5976563 -1.875,-1.6875 h -2.636719 c 0.03516,2.3671875 1.839839,3.984375 4.476559,3.984375 2.90625,0 4.89844,-1.9921875 4.89844,-4.921875 0,-2.7890625 -1.72266,-4.6875 -4.23047,-4.6875 -0.90234,0 -1.57031,0.234375 -2.35547,0.8203125 l 0.44532,-2.8242185 h 5.60156 z M -35.968281,46.254945 h 5.449219 c 2.121093,0 3.457031,-0.492187 4.417968,-1.628906 1.089844,-1.300781 1.675782,-3.175781 1.675782,-5.355469 0,-2.15625 -0.585938,-4.03125 -1.675782,-5.355468 -0.960937,-1.125 -2.273437,-1.605469 -4.417968,-1.605469 h -5.449219 z m 2.859375,-2.390625 v -9.164062 h 2.589844 c 2.15625,0 3.234375,1.511719 3.234375,4.59375 0,3.058594 -1.078125,4.570312 -3.234375,4.570312 z m 12.585937,-1.933593 c 0.02344,-0.222657 0.02344,-0.328125 0.02344,-0.457032 0,-1.03125 -0.152344,-1.992187 -0.398438,-2.71875 -0.691406,-1.875 -2.355468,-3 -4.441406,-3 -2.964844,0 -4.78125,2.144532 -4.78125,5.601563 0,3.316406 1.792969,5.34375 4.722656,5.34375 2.308594,0 4.183594,-1.300781 4.78125,-3.351563 h -2.636718 c -0.328125,0.820313 -1.078125,1.300782 -2.050782,1.300782 -0.761718,0 -1.371093,-0.328125 -1.757812,-0.902344 -0.246094,-0.375 -0.339844,-0.84375 -0.386719,-1.816406 z m -6.878906,-1.78125 c 0.164063,-1.582032 0.832031,-2.34375 2.027344,-2.34375 1.21875,0 1.945312,0.820312 2.085937,2.34375 z m 12.158203,-0.363282 c -0.1875,-2.519531 -1.851562,-4.03125 -4.453125,-4.03125 -3.105469,0 -4.886719,2.027344 -4.886719,5.542969 0,3.410156 1.78125,5.402344 4.839844,5.402344 2.507813,0 4.253906,-1.558594 4.5,-4.019531 h -2.566406 c -0.328125,1.335937 -0.855469,1.851562 -1.933594,1.851562 -1.347656,0 -2.15625,-1.207031 -2.15625,-3.234375 0,-0.996094 0.1875,-1.886719 0.515625,-2.496094 0.304688,-0.574218 0.902344,-0.890625 1.664063,-0.890625 1.089843,0 1.605468,0.527344 1.910156,1.875 z m -0.706055,-3.855468 h -2.683593 v 10.324218 h 2.683593 z m 0,-3.621094 h -2.683593 v 2.390625 h 2.683593 z m 8.3525395,6.949219 c -0.035156,-2.179688 -1.7226562,-3.503907 -4.4882815,-3.503907 -2.625,0 -4.253906,1.324219 -4.253906,3.445313 0,0.691406 0.210938,1.277344 0.574219,1.675781 0.363281,0.363281 0.691406,0.539063 1.6875,0.867188 l 3.1875,0.996093 c 0.679687,0.210938 0.9023435,0.421875 0.9023435,0.84375 0,0.621094 -0.7382815,1.007813 -1.9921875,1.007813 -0.703125,0 -1.242187,-0.117188 -1.582031,-0.363281 -0.292969,-0.210938 -0.398438,-0.421875 -0.515625,-0.972657 h -2.625 c 0.08203,2.273438 1.746094,3.445313 4.875,3.445313 1.441406,0 2.5312498,-0.316406 3.2929685,-0.925781 0.7617188,-0.609375 1.2304688,-1.570313 1.2304688,-2.578125 0,-1.335938 -0.6679688,-2.203125 -2.0273438,-2.601563 l -3.3867185,-0.972656 c -0.75,-0.234375 -0.9375,-0.386719 -0.9375,-0.808594 0,-0.574219 0.609375,-0.949219 1.546875,-0.949219 1.277344,0 1.910156,0.457032 1.933594,1.394532 z m -0.3779297,-3.328125 h -2.6835938 v 10.324218 h 2.6835938 z m 0,-3.621094 h -2.6835938 v 2.390625 h 2.6835938 z m 4.4501953,3.445312 c -3.1523437,0 -5.0859375,2.085938 -5.0859375,5.472657 0,3.398437 1.9335938,5.472656 5.109375,5.472656 3.15234378,0 5.109375,-2.074219 5.109375,-5.402344 0,-3.492187 -1.89843747,-5.542969 -5.1328125,-5.542969 z m 0.023437,2.15625 c 1.4765625,0 2.4257813,1.324219 2.4257813,3.351563 0,1.933594 -0.9960938,3.269531 -2.4257813,3.269531 -1.453125,0 -2.4257812,-1.3125 -2.4257812,-3.304687 0,-1.992188 0.9726562,-3.316407 2.4257812,-3.316407 z M -2.23,35.930727 v 10.324218 h 2.671875 v -6.199218 c 0,-1.21875 0.84375,-2.027344 2.1679688,-2.027344 1.1484375,0 1.7226562,0.632812 1.7226562,1.863281 v 6.363281 h 2.671875 v -6.925781 c 0,-2.296875 -1.2421875,-3.574219 -3.4570312,-3.574219 -1.3945313,0 -2.3320313,0.492188 -3.1054688,1.664063 v -1.488281 z m -30.890625,14.915039 h 3.574219 c 2.566406,0 4.207031,-1.816407 4.207031,-4.652344 0,-2.789063 -1.582031,-4.324219 -4.488281,-4.324219 h -6.164063 v 13.945313 h 2.871094 z m 0,-2.390625 v -4.195313 h 2.671875 c 1.535156,0 2.238281,0.667969 2.238281,2.085938 0,1.441406 -0.703125,2.109375 -2.238281,2.109375 z m 3.331055,-6.585938 v 13.945313 h 2.683593 v -6.199219 c 0,-1.183594 0.855469,-2.027344 2.0625,-2.027344 0.597657,0 1.03125,0.210938 1.335938,0.632813 0.257812,0.339843 0.304687,0.632812 0.304687,1.277343 v 6.316407 h 2.683594 v -6.925782 c 0,-1.277343 -0.339844,-2.191406 -1.054687,-2.789062 -0.585938,-0.492188 -1.453125,-0.785156 -2.308594,-0.785156 -1.324219,0 -2.285156,0.515625 -3.023438,1.664062 v -5.109375 z m 14.581054,13.617188 c -0.457031,-0.433594 -0.609375,-0.738282 -0.609375,-1.253907 v -5.742187 c 0,-2.109375 -1.429687,-3.175781 -4.230468,-3.175781 -2.789063,0 -4.242188,1.183593 -4.417969,3.574218 h 2.589844 c 0.128906,-1.066406 0.574218,-1.417968 1.886718,-1.417968 1.03125,0 1.546875,0.351562 1.546875,1.042968 0,0.339844 -0.164062,0.621094 -0.457031,0.796875 -0.363281,0.1875 -0.363281,0.1875 -1.675781,0.398438 l -1.078125,0.199219 c -2.039063,0.339843 -3.035156,1.394531 -3.035156,3.246093 0,1.851563 1.242187,3.105469 3.128906,3.105469 1.148437,0 2.179687,-0.480469 3.140625,-1.476562 0,0.539062 0.05859,0.726562 0.304687,1.03125 h 2.90625 z m -3.234375,-3.820313 c 0,1.546875 -0.761718,2.425781 -2.121093,2.425781 -0.890625,0 -1.453125,-0.480468 -1.453125,-1.242187 0,-0.808594 0.421875,-1.183594 1.535156,-1.417969 l 0.914062,-0.164062 c 0.703125,-0.140625 0.820313,-0.175782 1.125,-0.328125 z m 8.188477,-2.847656 c -0.03516,-2.179688 -1.722656,-3.503906 -4.488281,-3.503906 -2.625,0 -4.253907,1.324218 -4.253907,3.445312 0,0.691406 0.210938,1.277344 0.574219,1.675781 0.363281,0.363282 0.691406,0.539063 1.6875,0.867188 l 3.1875,0.996094 c 0.679688,0.210937 0.902344,0.421875 0.902344,0.84375 0,0.621093 -0.738281,1.007812 -1.992188,1.007812 -0.703125,0 -1.242187,-0.117187 -1.582031,-0.363281 -0.292969,-0.210938 -0.398437,-0.421875 -0.515625,-0.972656 h -2.625 c 0.08203,2.273437 1.746094,3.445312 4.875,3.445312 1.441406,0 2.53125,-0.316406 3.292969,-0.925781 0.761719,-0.609375 1.2304687,-1.570313 1.2304687,-2.578125 0,-1.335938 -0.6679687,-2.203125 -2.0273437,-2.601563 l -3.386719,-0.972656 c -0.75,-0.234375 -0.9375,-0.386719 -0.9375,-0.808594 0,-0.574218 0.609375,-0.949218 1.546875,-0.949218 1.277344,0 1.910156,0.457031 1.933594,1.394531 z m 5.6777343,2.671875 c 0.023437,-0.222656 0.023437,-0.328125 0.023437,-0.457031 0,-1.03125 -0.1523437,-1.992188 -0.3984375,-2.71875 -0.6914062,-1.875 -2.3554687,-3 -4.4414062,-3 -2.9648436,0 -4.7812496,2.144531 -4.7812496,5.601562 0,3.316406 1.792969,5.34375 4.7226558,5.34375 2.3085938,0 4.1835938,-1.300781 4.78125,-3.351562 h -2.6367187 c -0.328125,0.820312 -1.078125,1.300781 -2.0507813,1.300781 -0.7617178,0 -1.3710928,-0.328125 -1.7578118,-0.902344 -0.246094,-0.375 -0.339844,-0.84375 -0.386719,-1.816406 z m -6.8789063,-1.78125 c 0.164063,-1.582031 0.832031,-2.34375 2.0273438,-2.34375 1.21875,0 1.9453125,0.820312 2.0859375,2.34375 z M 93.380352,46.02643 c 1.03125,0 1.089843,0 1.570312,0.128906 0.902344,0.246094 1.476563,1.03125 1.476563,2.027344 0,1.207031 -0.84375,2.050781 -2.015625,2.050781 -1.253907,0 -1.945313,-0.726563 -2.027344,-2.121094 h -2.601563 c 0.02344,2.707031 1.78125,4.417969 4.570313,4.417969 2.894531,0 4.746094,-1.710938 4.746094,-4.347656 0,-1.582032 -0.691407,-2.625 -2.214844,-3.363282 1.242187,-0.785156 1.78125,-1.652343 1.78125,-2.894531 0,-2.25 -1.6875,-3.691406 -4.3125,-3.691406 -1.96875,0 -3.480469,0.867187 -4.066406,2.34375 -0.246094,0.644531 -0.328125,1.089844 -0.328125,2.214844 h 2.484375 c 0.02344,-0.726563 0.08203,-1.089844 0.210937,-1.441407 0.246094,-0.585937 0.867188,-0.949218 1.640625,-0.949218 1.078125,0 1.6875,0.644531 1.6875,1.78125 0,1.371093 -0.785156,2.039062 -2.367187,2.039062 h -0.234375 z m 0,0"
         style="fill:#000000;fill-opacity:1;fill-rule:nonzero;stroke:none" />
      <path
         id="path18"
         d="m 208.13035,-36.227477 h 4.58203 l 0.38672,-1.792968 h -4.59375 l 0.50391,-2.367188 h 5.1914 l 0.38672,-1.792969 h -7.34765 l -2.21485,10.453125 h 2.14453 z m 9.20801,-3.246093 h -2.00391 l -1.65234,7.746093 h 2.00391 z m 0.57422,-2.707032 h -2.00391 l -0.38672,1.792969 h 2.00391 z m 3.81152,10.453125 4.32422,-7.746093 h -2.12109 l -2.8125,5.671875 -0.4336,-5.671875 h -2.12109 l 1.05469,7.746093 z m 11.17383,-3.246093 c 0.17578,-0.644532 0.25781,-1.242188 0.25781,-1.792969 0,-0.984375 -0.52734,-1.980469 -1.28906,-2.402344 -0.46875,-0.292969 -1.07813,-0.433594 -1.74609,-0.433594 -1.125,0 -2.26172,0.445313 -2.94141,1.148438 -0.91406,0.960937 -1.58203,2.636719 -1.58203,4.089844 0,1.757812 1.21875,2.964843 3.03515,2.964843 1.73438,0 3.17579,-0.902343 3.97266,-2.507812 h -1.98047 c -0.23437,0.445312 -0.64453,0.75 -1.20703,0.855469 -0.14062,0.03516 -0.26953,0.04687 -0.39844,0.04687 -0.72656,0 -1.26562,-0.445313 -1.34765,-1.078125 -0.0234,-0.08203 -0.0234,-0.152344 -0.0234,-0.246094 0,-0.140625 0.0234,-0.28125 0.0469,-0.644531 z m -1.79297,-1.324219 h -3.15234 c 0.25781,-0.914063 0.63281,-1.371094 1.30078,-1.59375 0.21094,-0.07031 0.41015,-0.105469 0.60937,-0.105469 0.76172,0 1.24219,0.492188 1.24219,1.265625 z m 9.56836,0.84375 h 2.68359 c 1.13672,0 1.96875,-0.351563 2.74219,-1.160156 0.77344,-0.820313 1.25391,-2.039063 1.25391,-3.140625 0,-0.75 -0.32813,-1.429688 -0.91406,-1.875 -0.51563,-0.398438 -1.10157,-0.550782 -2.0625,-0.550782 h -4.41797 l -2.22657,10.453125 h 2.15625 z m 0.38672,-1.792969 0.65625,-3.140625 h 2.21484 c 0.63282,0 1.07813,0.28125 1.23047,0.785156 0.0469,0.117188 0.0586,0.234375 0.0586,0.339844 0,0.433594 -0.16407,0.984375 -0.36329,1.277344 -0.35156,0.503906 -0.84375,0.738281 -1.60546,0.738281 z m 7.70215,-2.226562 -1.65235,7.746093 h 2.00391 l 0.87891,-4.113281 c 0.1875,-0.867187 0.70312,-1.5 1.38281,-1.675781 0.22265,-0.05859 0.48047,-0.09375 0.78515,-0.09375 0.21094,0 0.33985,0.01172 0.59766,0.05859 l 0.43359,-2.039063 c -0.11718,-0.01172 -0.15234,-0.01172 -0.24609,-0.01172 -0.92578,0 -1.82812,0.597657 -2.50781,1.652344 l 0.32812,-1.523437 z m 8.95312,-0.128907 c -1.5,0 -2.77734,0.632813 -3.62109,1.769532 -0.69141,0.914062 -1.13672,2.332031 -1.13672,3.5625 0,1.757812 1.20703,2.871093 3.11719,2.871093 1.54687,0 2.80078,-0.597656 3.66797,-1.757812 0.6914,-0.914063 1.13671,-2.332031 1.13671,-3.574219 0,-1.21875 -0.5625,-2.144531 -1.59375,-2.566406 -0.48046,-0.199219 -0.97265,-0.304688 -1.57031,-0.304688 z m -0.3164,1.605469 c 0.52734,0 1.03125,0.304688 1.24218,0.738281 0.12891,0.269532 0.1875,0.585938 0.1875,0.9375 0,1.347657 -0.64453,2.648438 -1.55859,3.117188 -0.25781,0.128906 -0.55078,0.199219 -0.83203,0.199219 -0.86719,0 -1.42969,-0.644532 -1.42969,-1.664063 0,-1.359375 0.64453,-2.636719 1.57031,-3.128906 0.26953,-0.140625 0.51563,-0.199219 0.82032,-0.199219 z m 6.21972,-4.183594 -2.22656,10.453125 h 2.01563 l 0.16406,-0.785156 c 0.28125,0.632813 0.66797,0.925781 1.34765,1.054688 0.1875,0.04687 0.375,0.05859 0.55079,0.05859 2.22656,0 4.2539,-2.507812 4.2539,-5.238281 0,-1.183594 -0.44531,-2.15625 -1.23047,-2.625 -0.375,-0.222656 -0.82031,-0.339844 -1.27734,-0.339844 -0.97266,0 -1.72266,0.363282 -2.37891,1.136719 l 0.78516,-3.714844 z m 2.80078,4.183594 c 0.78516,0 1.25391,0.644531 1.25391,1.699219 0,1.300781 -0.65625,2.625 -1.54687,3.105469 -0.22266,0.128906 -0.48047,0.1875 -0.76172,0.1875 -0.48047,0 -0.86719,-0.246094 -1.05469,-0.691407 -0.12891,-0.28125 -0.19922,-0.597656 -0.19922,-0.925781 0,-1.371094 0.62109,-2.671875 1.54688,-3.1875 0.22265,-0.128906 0.46875,-0.1875 0.76171,-0.1875 z m 8.08301,-4.183594 h -2.0039 l -2.22657,10.453125 h 2.00391 z m 7.01074,7.207032 c 0.17579,-0.644532 0.25782,-1.242188 0.25782,-1.792969 0,-0.984375 -0.52735,-1.980469 -1.28907,-2.402344 -0.46875,-0.292969 -1.07812,-0.433594 -1.74609,-0.433594 -1.125,0 -2.26172,0.445313 -2.94141,1.148438 -0.91406,0.960937 -1.58203,2.636719 -1.58203,4.089844 0,1.757812 1.21875,2.964843 3.03516,2.964843 1.73437,0 3.17578,-0.902343 3.97266,-2.507812 h -1.98047 c -0.23438,0.445312 -0.64453,0.75 -1.20703,0.855469 -0.14063,0.03516 -0.26954,0.04687 -0.39844,0.04687 -0.72656,0 -1.26563,-0.445313 -1.34766,-1.078125 -0.0234,-0.08203 -0.0234,-0.152344 -0.0234,-0.246094 0,-0.140625 0.0234,-0.28125 0.0469,-0.644531 z m -1.79296,-1.324219 h -3.15235 c 0.25781,-0.914063 0.63281,-1.371094 1.30078,-1.59375 0.21094,-0.07031 0.41016,-0.105469 0.60938,-0.105469 0.76172,0 1.24219,0.492188 1.24219,1.265625 z m 4.06054,-3.175781 -1.65234,7.746093 h 2.01562 l 0.98438,-4.652343 c 0.16406,-0.738282 0.5625,-1.289063 1.125,-1.5 0.1875,-0.07031 0.375,-0.117188 0.57422,-0.117188 0.55078,0 0.90234,0.328125 0.90234,0.832031 0,0.175782 -0.0117,0.316407 -0.0469,0.46875 l -1.05469,4.96875 h 2.0039 l 0.98438,-4.652343 c 0.22266,-1.03125 0.86719,-1.617188 1.76953,-1.617188 0.43359,0 0.66797,0.164063 0.78516,0.492188 0.0351,0.117187 0.0469,0.210937 0.0469,0.316406 0,0.164062 -0.0351,0.386719 -0.0703,0.585937 l -1.03125,4.875 h 2.00391 l 1.10156,-5.191406 c 0.0937,-0.433594 0.11719,-0.597656 0.11719,-0.878906 0,-0.773438 -0.4336,-1.441406 -1.08985,-1.664063 -0.26953,-0.09375 -0.58594,-0.140625 -0.94922,-0.140625 -0.97265,0 -1.74609,0.363282 -2.53125,1.171875 -0.16406,-0.574218 -0.66797,-0.996093 -1.30078,-1.125 -0.15234,-0.03516 -0.30469,-0.04687 -0.48047,-0.04687 -0.94922,0 -1.60547,0.339844 -2.44922,1.289063 l 0.23438,-1.160156 z m 18.93457,3.5625 h -7.23047 l -0.36328,1.710937 h 7.23047 z m 9.96973,-3.09375 c 0.0234,-0.105469 0.0352,-0.199219 0.0586,-0.269532 0.0352,-0.199218 0.0469,-0.410156 0.0469,-0.609375 0,-1.558593 -1.32422,-2.472656 -3.60938,-2.472656 -1.39453,0 -2.48437,0.339844 -3.30468,1.066406 -0.8086,0.703125 -1.3125,1.769532 -1.3125,2.789063 0,1.195312 0.71484,1.828125 2.42578,2.167969 l 1.40625,0.292968 c 1.30078,0.257813 1.72265,0.539063 1.72265,1.21875 0,0.972657 -0.96093,1.582032 -2.46093,1.582032 -1.05469,0 -1.6875,-0.269532 -1.94532,-0.84375 -0.0703,-0.152344 -0.10547,-0.28125 -0.10547,-0.445313 0,-0.07031 0.0117,-0.199219 0.0352,-0.328125 h -2.09766 c -0.0469,0.292969 -0.0586,0.433594 -0.0586,0.632813 0,1.253906 0.82031,2.261718 2.09766,2.613281 0.53906,0.140625 1.125,0.210937 1.75781,0.210937 1.75781,0 3.08203,-0.503906 3.91406,-1.464843 0.60938,-0.667969 0.9961,-1.722657 0.9961,-2.660157 0,-1.113281 -0.78516,-1.851562 -2.25,-2.144531 l -1.57032,-0.316406 c -1.05468,-0.210938 -1.5,-0.398438 -1.67578,-0.703125 -0.0234,-0.08203 -0.0586,-0.199219 -0.0586,-0.339844 0,-0.714844 0.5625,-1.289062 1.40625,-1.429687 0.23437,-0.04687 0.45703,-0.05859 0.70312,-0.05859 1.00782,0 1.57032,0.234375 1.80469,0.773437 0.0586,0.140625 0.0937,0.269532 0.0937,0.410157 0,0.07031 -0.0234,0.199218 -0.0352,0.328125 z m 5.20605,-0.597657 c -1.5,0 -2.77734,0.632813 -3.62109,1.769532 -0.69141,0.914062 -1.13672,2.332031 -1.13672,3.5625 0,1.757812 1.20703,2.871093 3.11719,2.871093 1.54687,0 2.80078,-0.597656 3.66797,-1.757812 0.6914,-0.914063 1.13672,-2.332031 1.13672,-3.574219 0,-1.21875 -0.5625,-2.144531 -1.59375,-2.566406 -0.48047,-0.199219 -0.97266,-0.304688 -1.57032,-0.304688 z m -0.3164,1.605469 c 0.52734,0 1.03125,0.304688 1.24218,0.738281 0.12891,0.269532 0.1875,0.585938 0.1875,0.9375 0,1.347657 -0.64453,2.648438 -1.55859,3.117188 -0.25781,0.128906 -0.55078,0.199219 -0.83203,0.199219 -0.86719,0 -1.42969,-0.644532 -1.42969,-1.664063 0,-1.359375 0.64453,-2.636719 1.57031,-3.128906 0.26954,-0.140625 0.51563,-0.199219 0.82032,-0.199219 z m 8.34082,-4.183594 h -2.00391 l -2.22656,10.453125 h 2.00391 z m 3.81152,10.453125 4.32422,-7.746093 h -2.12109 l -2.8125,5.671875 -0.4336,-5.671875 h -2.12109 l 1.05469,7.746093 z m 7.57324,-7.746093 h -2.0039 l -1.65235,7.746093 h 2.00391 z m 0.57422,-2.707032 h -2.0039 l -0.38672,1.792969 h 2.0039 z m 1.35059,2.707032 -1.65235,7.746093 h 2.00391 l 0.9375,-4.359375 c 0.24609,-1.195312 0.98438,-1.910156 1.96875,-1.910156 0.51563,0 0.85547,0.199219 0.98438,0.609375 0.0469,0.140625 0.0703,0.292969 0.0703,0.46875 0,0.199219 -0.0234,0.375 -0.082,0.703125 l -0.96094,4.488281 h 2.00391 l 1.11328,-5.191406 c 0.0469,-0.269531 0.082,-0.527344 0.082,-0.785156 0,-0.867188 -0.49219,-1.535156 -1.28906,-1.78125 -0.25782,-0.07031 -0.53907,-0.117188 -0.82032,-0.117188 -1.0664,0 -1.83984,0.386719 -2.61328,1.300782 l 0.25781,-1.171875 z m 13.70801,0 -0.25782,1.195312 c -0.3164,-0.726562 -0.6914,-1.089844 -1.27734,-1.253906 -0.1875,-0.04687 -0.375,-0.07031 -0.53906,-0.07031 -1.08985,0 -2.17969,0.550782 -2.92969,1.488282 -0.83203,1.03125 -1.35938,2.601562 -1.35938,3.996093 0,1.195313 0.65625,2.238282 1.66407,2.589844 0.23437,0.08203 0.52734,0.128906 0.84375,0.128906 0.89062,0 1.46484,-0.269531 2.3789,-1.113281 l -0.23437,1.042969 c -0.19922,0.949219 -1.04297,1.582031 -2.08594,1.582031 -0.58594,0 -1.06641,-0.222656 -1.19531,-0.550781 -0.0234,-0.05859 -0.0352,-0.117188 -0.0352,-0.1875 l 0.0117,-0.164063 h -2.07422 c -0.0234,0.164063 -0.0351,0.328125 -0.0351,0.445313 0,0.84375 0.78515,1.511719 1.98046,1.675781 0.32813,0.03516 0.65625,0.07031 1.01954,0.07031 2.3789,0 3.9375,-1.03125 4.32421,-2.871094 l 1.71094,-8.003906 z m -2.0625,1.476562 c 0.49218,0 0.91406,0.269531 1.11328,0.738281 0.15234,0.292969 0.21093,0.621094 0.21093,1.007813 0,1.382812 -0.70312,2.683594 -1.69921,3.105469 -0.21094,0.09375 -0.44532,0.140625 -0.66797,0.140625 -0.75,0 -1.20703,-0.597657 -1.20703,-1.605469 0,-1.359375 0.67968,-2.753906 1.60546,-3.222656 0.19922,-0.117188 0.39844,-0.164063 0.64454,-0.164063 z m 11.48437,1.769531 h 4.58203 l 0.38672,-1.792968 h -4.59375 l 0.50391,-2.367188 h 5.1914 l 0.38672,-1.792969 h -7.34765 l -2.21485,10.453125 h 2.14453 z m 12.3457,4.5 1.65235,-7.746093 h -2.00391 l -0.98437,4.558593 c -0.23438,1.160157 -0.98438,1.910157 -1.92188,1.910157 -0.72656,0 -1.08984,-0.363282 -1.08984,-1.078125 0,-0.210938 0.0234,-0.351563 0.0937,-0.703125 l 0.99609,-4.6875 h -2.0039 l -1.14844,5.390625 c -0.0586,0.28125 -0.082,0.539062 -0.082,0.796875 0,0.855468 0.48047,1.535156 1.28906,1.769531 0.24609,0.07031 0.51562,0.117187 0.79687,0.117187 1.06641,0 1.83985,-0.386718 2.61329,-1.300781 l -0.21094,0.972656 z m 3.55957,-7.746093 -1.65234,7.746093 h 2.00391 l 0.9375,-4.359375 c 0.24609,-1.195312 0.98437,-1.910156 1.96875,-1.910156 0.51562,0 0.85547,0.199219 0.98437,0.609375 0.0469,0.140625 0.0703,0.292969 0.0703,0.46875 0,0.199219 -0.0234,0.375 -0.082,0.703125 l -0.96093,4.488281 h 2.0039 l 1.11328,-5.191406 c 0.0469,-0.269531 0.082,-0.527344 0.082,-0.785156 0,-0.867188 -0.49218,-1.535156 -1.28906,-1.78125 -0.25781,-0.07031 -0.53906,-0.117188 -0.82031,-0.117188 -1.06641,0 -1.83984,0.386719 -2.61328,1.300782 l 0.25781,-1.171875 z m 14.71582,2.894531 c 0.0469,-0.339844 0.0586,-0.46875 0.0586,-0.609375 0,-0.949219 -0.66797,-1.886719 -1.57031,-2.214844 -0.375,-0.128906 -0.79688,-0.199219 -1.28907,-0.199219 -1.34765,0 -2.40234,0.445313 -3.15234,1.359375 -0.84375,1.007813 -1.45313,2.683594 -1.45313,4.042969 0,0.726563 0.25782,1.429688 0.70313,1.921875 0.51562,0.597656 1.32422,0.878906 2.36719,0.878906 1.86328,0 3.26953,-1.089843 3.8789,-3.011718 h -1.92187 c -0.44531,1.019531 -0.92578,1.40625 -1.69922,1.40625 -0.45703,0 -0.90234,-0.199219 -1.05469,-0.46875 -0.15234,-0.257813 -0.22265,-0.609375 -0.22265,-1.007813 0,-0.644531 0.11718,-1.242187 0.36328,-1.898437 0.28125,-0.785157 0.65625,-1.253907 1.16015,-1.476563 0.21094,-0.09375 0.46875,-0.140625 0.72657,-0.140625 0.48046,0 0.83203,0.175781 1.01953,0.480469 0.11718,0.210937 0.15234,0.386719 0.16406,0.9375 z m 5.40821,-2.730469 h -1.125 l 0.44531,-2.085937 h -2.00391 l -0.44531,2.085937 h -0.99609 l -0.28125,1.324219 h 0.98437 l -0.99609,4.769531 c -0.0469,0.199219 -0.0703,0.398438 -0.0703,0.585938 0,0.574218 0.33984,1.007812 0.89062,1.148437 0.22266,0.05859 0.46875,0.08203 0.72656,0.08203 0.46875,0 0.82032,-0.04687 1.21875,-0.152343 l 0.28125,-1.40625 c -0.19921,0.02344 -0.30468,0.03516 -0.46875,0.03516 -0.30468,0 -0.46875,-0.08203 -0.52734,-0.257813 -0.0117,-0.03516 -0.0117,-0.07031 -0.0117,-0.09375 0,-0.05859 0.0234,-0.246093 0.082,-0.492187 l 0.89063,-4.21875 h 1.11328 z m 3.45117,-0.164062 h -2.00391 l -1.65234,7.746093 h 2.00391 z m 0.57422,-2.707032 h -2.00391 l -0.38672,1.792969 h 2.00391 z m 4.72558,2.578125 c -1.5,0 -2.77734,0.632813 -3.62109,1.769532 -0.69141,0.914062 -1.13672,2.332031 -1.13672,3.5625 0,1.757812 1.20703,2.871093 3.11719,2.871093 1.54687,0 2.80078,-0.597656 3.66797,-1.757812 0.6914,-0.914063 1.13672,-2.332031 1.13672,-3.574219 0,-1.21875 -0.5625,-2.144531 -1.59375,-2.566406 -0.48047,-0.199219 -0.97266,-0.304688 -1.57032,-0.304688 z m -0.3164,1.605469 c 0.52734,0 1.03125,0.304688 1.24219,0.738281 0.1289,0.269532 0.1875,0.585938 0.1875,0.9375 0,1.347657 -0.64454,2.648438 -1.5586,3.117188 -0.25781,0.128906 -0.55078,0.199219 -0.83203,0.199219 -0.86719,0 -1.42969,-0.644532 -1.42969,-1.664063 0,-1.359375 0.64453,-2.636719 1.57032,-3.128906 0.26953,-0.140625 0.51562,-0.199219 0.82031,-0.199219 z m 5.7041,-1.476562 -1.65234,7.746093 h 2.0039 l 0.9375,-4.359375 c 0.2461,-1.195312 0.98438,-1.910156 1.96875,-1.910156 0.51563,0 0.85547,0.199219 0.98438,0.609375 0.0469,0.140625 0.0703,0.292969 0.0703,0.46875 0,0.199219 -0.0234,0.375 -0.082,0.703125 l -0.96094,4.488281 h 2.00391 l 1.11328,-5.191406 c 0.0469,-0.269531 0.082,-0.527344 0.082,-0.785156 0,-0.867188 -0.49219,-1.535156 -1.28906,-1.78125 -0.25782,-0.07031 -0.53907,-0.117188 -0.82032,-0.117188 -1.0664,0 -1.83984,0.386719 -2.61328,1.300782 l 0.25782,-1.171875 z m 14.58398,2.496093 c 0.0586,-0.257812 0.0703,-0.375 0.0703,-0.539062 0,-1.3125 -1.08985,-2.085938 -2.89453,-2.085938 -1.13672,0 -2.09766,0.304688 -2.71875,0.84375 -0.60938,0.550782 -1.01954,1.371094 -1.01954,2.085938 0,0.808594 0.59766,1.359375 1.85157,1.769531 l 1.13672,0.363281 c 0.90234,0.292969 1.08984,0.421875 1.08984,0.75 0,0.339844 -0.33984,0.632813 -0.90234,0.726563 -0.1875,0.04687 -0.38672,0.05859 -0.58594,0.05859 -0.96094,0 -1.47656,-0.328125 -1.52344,-0.972657 h -1.96875 c -0.0117,0.08203 -0.0234,0.140625 -0.0352,0.1875 -0.0234,0.08203 -0.0234,0.152344 -0.0234,0.246094 0,0.644531 0.42187,1.3125 1.05468,1.675781 0.5625,0.328125 1.23047,0.46875 2.1211,0.46875 2.4375,0 3.98437,-1.171875 3.98437,-3.011718 0,-0.855469 -0.5625,-1.417969 -1.74609,-1.78125 l -1.38281,-0.398438 c -0.60938,-0.1875 -0.8086,-0.28125 -0.90235,-0.492187 -0.0117,-0.04687 -0.0234,-0.09375 -0.0234,-0.152344 0,-0.339844 0.26953,-0.597656 0.72656,-0.703125 0.17578,-0.04687 0.35156,-0.05859 0.53906,-0.05859 0.78516,0 1.25391,0.269531 1.25391,0.75 0,0.08203 -0.0117,0.140625 -0.0352,0.269531 z m 3.81446,3.152344 h -2.15625 l -0.44532,2.097656 h 2.15625 z m 1.14843,-5.355469 h -2.15625 l -0.44531,2.085938 h 2.15625 z m 0,0"
         style="fill:#000000;fill-opacity:1;fill-rule:nonzero;stroke:none" />
      <path
         id="path19"
         d="m 220.42332,-12.672789 v 7.3828124 h 1.26563 V -15.66107 h -0.83204 c -0.44531,1.59375 -0.73828,1.804687 -2.68359,2.0625 v 0.925781 z m 6.99902,5.8945312 h -1.5 v 1.4882812 h 1.5 z m 7.86914,-2.9414063 h 3.29297 c 0.8086,0 1.45313,-0.2460937 2.01563,-0.7499999 0.63281,-0.574219 0.90234,-1.242188 0.90234,-2.203125 0,-1.96875 -1.16015,-3.070313 -3.22265,-3.070313 h -4.32422 v 10.4531254 h 1.33593 z m 0,-1.1835939 v -3.667969 h 2.78907 c 1.27734,0 2.02734,0.691407 2.02734,1.839844 0,1.148438 -0.75,1.828125 -2.02734,1.828125 z m 7.91309,-1.898437 v 7.5117184 h 1.20703 v -3.9023437 c 0.0117,-1.8046877 0.76172,-2.6132817 2.41406,-2.5664067 v -1.21875 c -0.19921,-0.03516 -0.3164,-0.04687 -0.45703,-0.04687 -0.77343,0 -1.37109,0.457032 -2.05078,1.582032 v -1.359375 z m 7.69336,-0.222657 c -2.12109,0 -3.38672,1.511719 -3.38672,4.0312504 0,2.5429688 1.26563,4.03125 3.39844,4.03125 2.12109,0 3.39844,-1.5 3.39844,-3.9726562 0,-2.6132812 -1.23047,-4.0898442 -3.41016,-4.0898442 z m 0.0117,1.113282 c 1.34765,0 2.15625,1.101562 2.15625,2.9648434 0,1.78125 -0.83203,2.8828125 -2.15625,2.8828125 -1.33594,0 -2.14453,-1.1015625 -2.14453,-2.9296875 0,-1.8164064 0.80859,-2.9179684 2.14453,-2.9179684 z m 4.83105,9.7499997 h 1.20703 v -3.9140625 c 0.63282,0.7734375 1.33594,1.1132812 2.3086,1.1132812 1.94531,0 3.21094,-1.5585937 3.21094,-3.9609375 0,-2.5195309 -1.23047,-4.1015629 -3.22266,-4.1015629 -1.01953,0 -1.83984,0.457032 -2.40234,1.347657 v -1.125 h -1.10157 z m 3.30469,-9.7382817 c 1.3125,0 2.17969,1.160157 2.17969,2.9531254 0,1.7109375 -0.87891,2.8710938 -2.17969,2.8710938 -1.27734,0 -2.09766,-1.1484375 -2.09766,-2.9179688 0,-1.7578124 0.82032,-2.9062504 2.09766,-2.9062504 z m 7.79883,-1.125 c -2.1211,0 -3.38672,1.511719 -3.38672,4.0312504 0,2.5429688 1.26562,4.03125 3.39844,4.03125 2.12109,0 3.39843,-1.5 3.39843,-3.9726562 0,-2.6132812 -1.23046,-4.0898442 -3.41015,-4.0898442 z m 0.0117,1.113282 c 1.34765,0 2.15625,1.101562 2.15625,2.9648434 0,1.78125 -0.83203,2.8828125 -2.15625,2.8828125 -1.33594,0 -2.14453,-1.1015625 -2.14453,-2.9296875 0,-1.8164064 0.80859,-2.9179684 2.14453,-2.9179684 z m 10.34179,1.195312 c -0.0117,-1.476562 -0.98437,-2.308594 -2.71875,-2.308594 -1.75781,0 -2.88281,0.902344 -2.88281,2.296875 0,1.1718754 0.59766,1.7343754 2.37891,2.1679692 l 1.11328,0.2695312 c 0.83203,0.1992188 1.16016,0.5039063 1.16016,1.03125 0,0.7265625 -0.70313,1.1953125 -1.7461,1.1953125 -0.64453,0 -1.19531,-0.1875 -1.48828,-0.5039062 -0.1875,-0.2109375 -0.28125,-0.4335938 -0.35156,-0.9609375 h -1.25391 c 0.0586,1.734375 1.03125,2.5664062 2.98828,2.5664062 1.89844,0 3.10547,-0.9257812 3.10547,-2.3789062 0,-1.125 -0.63281,-1.734375 -2.12109,-2.0976563 l -1.14844,-0.2695312 c -0.97266,-0.234375 -1.39453,-0.5507817 -1.39453,-1.0781247 0,-0.703125 0.62109,-1.125 1.59375,-1.125 0.96094,0 1.47656,0.410156 1.5,1.195312 z m 3.04395,-2.085937 h -1.19531 v 7.5117184 h 1.19531 z m 0,-2.941407 h -1.20703 v 1.5 h 1.20703 z m 2.03613,2.941407 v 7.5117184 h 1.19531 v -4.1484375 c 0,-1.5351559 0.8086,-2.5312499 2.03907,-2.5312499 0.94922,0 1.54687,0.574219 1.54687,1.476562 v 5.2031254 h 1.19531 V -10.97357 c 0,-1.242188 -0.92578,-2.050782 -2.3789,-2.050782 -1.125,0 -1.83985,0.433594 -2.4961,1.476563 v -1.253906 z m 12.75586,0 v 1.089843 c -0.59765,-0.902343 -1.2539,-1.3125 -2.20312,-1.3125 -1.81641,0 -3.08203,1.699219 -3.08203,4.1015629 0,1.265625 0.30468,2.1796875 0.94921,2.9414063 0.55079,0.6679687 1.27735,1.0195312 2.05079,1.0195312 0.90234,0 1.54687,-0.3984375 2.17968,-1.3476562 v 0.3867187 c 0,2.015625 -0.5625,2.7539063 -2.05078,2.7539063 -1.01953,0 -1.55859,-0.3984375 -1.66406,-1.265625 h -1.21875 c 0.10547,1.3945312 1.21875,2.2734375 2.84766,2.2734375 1.10156,0 2.02734,-0.3632813 2.50781,-0.9609375 0.57422,-0.703125 0.79687,-1.640625 0.79687,-3.3984375 v -6.2812497 z m -2.08594,0.890625 c 1.26563,0 1.98047,1.054687 1.98047,2.9648434 0,1.8164063 -0.73828,2.8828125 -1.98047,2.8828125 -1.23046,0 -1.95703,-1.078125 -1.95703,-2.9296875 0,-1.8281254 0.72657,-2.9179684 1.95703,-2.9179684 z m 15.93164,5.9179684 c -0.1289,0.023437 -0.1875,0.023437 -0.25781,0.023437 -0.42187,0 -0.64453,-0.2109375 -0.64453,-0.5859375 V -10.97357 c 0,-1.335938 -0.98437,-2.050782 -2.82422,-2.050782 -1.11328,0 -1.98047,0.316407 -2.49609,0.878907 -0.35156,0.386718 -0.49219,0.820312 -0.51563,1.558593 h 1.19532 c 0.10546,-0.914062 0.64453,-1.324218 1.76953,-1.324218 1.08984,0 1.67578,0.398437 1.67578,1.113281 v 0.316406 c -0.0117,0.5156252 -0.26953,0.7031252 -1.24219,0.8320314 -1.69922,0.2109375 -1.95703,0.2695313 -2.41406,0.4570313 -0.87891,0.375 -1.32422,1.03125 -1.32422,2.0039062 0,1.3710938 0.94922,2.2265625 2.47266,2.2265625 0.94921,0 1.71093,-0.328125 2.55468,-1.1015625 0.082,0.7734375 0.45703,1.1015625 1.23047,1.1015625 0.25781,0 0.42188,-0.023437 0.82031,-0.1289062 z m -2.09765,-1.6640625 c 0,0.3984375 -0.11719,0.6445313 -0.46875,0.9726563 -0.49219,0.4453125 -1.07813,0.6796875 -1.78125,0.6796875 -0.9375,0 -1.47656,-0.4453125 -1.47656,-1.2070313 0,-0.7851562 0.51562,-1.1953125 1.80468,-1.3828125 1.27735,-0.1640625 1.52344,-0.2226562 1.92188,-0.4101562 z m 3.4043,-5.1445309 v 7.5117184 h 1.19531 v -4.1484375 c 0,-1.5351559 0.80859,-2.5312499 2.03906,-2.5312499 0.94922,0 1.54688,0.574219 1.54688,1.476562 v 5.2031254 h 1.19531 V -10.97357 c 0,-1.242188 -0.92578,-2.050782 -2.37891,-2.050782 -1.125,0 -1.83984,0.433594 -2.49609,1.476563 v -1.253906 z m 14.85351,-0.222657 c -2.12109,0 -3.38672,1.511719 -3.38672,4.0312504 0,2.5429688 1.26563,4.03125 3.39844,4.03125 2.12109,0 3.39844,-1.5 3.39844,-3.9726562 0,-2.6132812 -1.23047,-4.0898442 -3.41016,-4.0898442 z m 0.0117,1.113282 c 1.34766,0 2.15625,1.101562 2.15625,2.9648434 0,1.78125 -0.83203,2.8828125 -2.15625,2.8828125 -1.33594,0 -2.14453,-1.1015625 -2.14453,-2.9296875 0,-1.8164064 0.80859,-2.9179684 2.14453,-2.9179684 z m 4.83398,9.7499997 h 1.20704 v -3.9140625 c 0.63281,0.7734375 1.33593,1.1132812 2.30859,1.1132812 1.94531,0 3.21094,-1.5585937 3.21094,-3.9609375 0,-2.5195309 -1.23047,-4.1015629 -3.22266,-4.1015629 -1.01953,0 -1.83984,0.457032 -2.40234,1.347657 v -1.125 h -1.10157 z m 3.30469,-9.7382817 c 1.3125,0 2.17969,1.160157 2.17969,2.9531254 0,1.7109375 -0.87891,2.8710938 -2.17969,2.8710938 -1.27734,0 -2.09765,-1.1484375 -2.09765,-2.9179688 0,-1.7578124 0.82031,-2.9062504 2.09765,-2.9062504 z m 11.25293,3.2578129 c 0,-1.1484375 -0.082,-1.8398439 -0.30469,-2.4023439 -0.48046,-1.230469 -1.6289,-1.980469 -3.03515,-1.980469 -2.09766,0 -3.44531,1.59375 -3.44531,4.0781254 0,2.484375 1.28906,3.984375 3.41015,3.984375 1.72266,0 2.91797,-0.9726562 3.21094,-2.6132812 h -1.19531 c -0.33985,0.9960937 -1.00782,1.5117187 -1.96875,1.5117187 -0.76172,0 -1.40625,-0.3398437 -1.80469,-0.9726562 -0.29297,-0.4335938 -0.38672,-0.8671875 -0.41016,-1.6054688 z m -5.50781,-0.984375 c 0.0937,-1.3828129 0.94922,-2.2851559 2.14453,-2.2851559 1.23047,0 2.07422,0.9375 2.07422,2.2851559 z m 7.10742,-3.1757809 v 7.5117184 h 1.20703 v -3.9023437 c 0.0117,-1.8046877 0.76172,-2.6132817 2.41406,-2.5664067 v -1.21875 c -0.19921,-0.03516 -0.3164,-0.04687 -0.45703,-0.04687 -0.77343,0 -1.37109,0.457032 -2.05078,1.582032 v -1.359375 z m 11.4668,6.8085934 c -0.12891,0.023437 -0.1875,0.023437 -0.25781,0.023437 -0.42188,0 -0.64454,-0.2109375 -0.64454,-0.5859375 V -10.97357 c 0,-1.335938 -0.98437,-2.050782 -2.82421,-2.050782 -1.11329,0 -1.98047,0.316407 -2.4961,0.878907 -0.35156,0.386718 -0.49219,0.820312 -0.51562,1.558593 h 1.19531 c 0.10547,-0.914062 0.64453,-1.324218 1.76953,-1.324218 1.08984,0 1.67578,0.398437 1.67578,1.113281 v 0.316406 c -0.0117,0.5156252 -0.26953,0.7031252 -1.24219,0.8320314 -1.69921,0.2109375 -1.95703,0.2695313 -2.41406,0.4570313 -0.8789,0.375 -1.32422,1.03125 -1.32422,2.0039062 0,1.3710938 0.94922,2.2265625 2.47266,2.2265625 0.94922,0 1.71094,-0.328125 2.55469,-1.1015625 0.082,0.7734375 0.45703,1.1015625 1.23047,1.1015625 0.25781,0 0.42187,-0.023437 0.82031,-0.1289062 z m -2.09766,-1.6640625 c 0,0.3984375 -0.11719,0.6445313 -0.46875,0.9726563 -0.49219,0.4453125 -1.07812,0.6796875 -1.78125,0.6796875 -0.9375,0 -1.47656,-0.4453125 -1.47656,-1.2070313 0,-0.7851562 0.51562,-1.1953125 1.80469,-1.3828125 1.27734,-0.1640625 1.52343,-0.2226562 1.92187,-0.4101562 z m 6.04102,-5.1445309 h -1.23047 v -2.074219 h -1.19531 v 2.074219 h -1.01954 v 0.972656 h 1.01954 v 5.6835937 c 0,0.7734375 0.51562,1.1835937 1.45312,1.1835937 0.31641,0 0.57422,-0.023437 0.97266,-0.09375 v -1.0078125 c -0.17578,0.046875 -0.32813,0.058594 -0.57422,0.058594 -0.51563,0 -0.65625,-0.140625 -0.65625,-0.6796875 v -5.1445314 h 1.23047 z m 4.24511,-0.222657 c -2.12109,0 -3.38671,1.511719 -3.38671,4.0312504 0,2.5429688 1.26562,4.03125 3.39843,4.03125 2.1211,0 3.39844,-1.5 3.39844,-3.9726562 0,-2.6132812 -1.23047,-4.0898442 -3.41016,-4.0898442 z m 0.0117,1.113282 c 1.34766,0 2.15625,1.101562 2.15625,2.9648434 0,1.78125 -0.83203,2.8828125 -2.15625,2.8828125 -1.33593,0 -2.14453,-1.1015625 -2.14453,-2.9296875 0,-1.8164064 0.8086,-2.9179684 2.14453,-2.9179684 z m 5.042,-0.890625 v 7.5117184 h 1.20703 v -3.9023437 c 0.0117,-1.8046877 0.76172,-2.6132817 2.41406,-2.5664067 v -1.21875 c -0.19922,-0.03516 -0.31641,-0.04687 -0.45703,-0.04687 -0.77344,0 -1.3711,0.457032 -2.05078,1.582032 V -12.80169 Z M 223.96238,7.8086562 h -5.34375 c 0.12891,-0.8671875 0.58594,-1.40625 1.82813,-2.1679687 l 1.4414,-0.8085938 c 1.41797,-0.7851562 2.14454,-1.8515625 2.14454,-3.1289062 0,-0.85546875 -0.33985,-1.6640625 -0.9375,-2.21484375 -0.60938,-0.55078125 -1.34766,-0.80859375 -2.3086,-0.80859375 -1.30078,0 -2.26172,0.45703125 -2.8125,1.34765625 -0.36328,0.55078125 -0.51562,1.19531245 -0.55078,2.23828125 h 1.26563 c 0.0469,-0.703125 0.1289,-1.1132813 0.30468,-1.46484375 0.32813,-0.6328125 0.98438,-1.01953125 1.7461,-1.01953125 1.14843,0 2.0039,0.83203125 2.0039,1.9570312 0,0.8320313 -0.46875,1.546875 -1.37109,2.0625 l -1.32422,0.7734375 c -2.12109,1.21875 -2.74219,2.1914063 -2.84766,4.4648438 h 6.76172 z m 3.45996,-0.2460937 h -1.5 v 1.4882812 h 1.5 z m 14.72461,-5.7304688 c -0.41015,-2.29687495 -1.73437,-3.4101562 -4.03125,-3.4101562 -1.40625,0 -2.53125,0.4453125 -3.30468,1.30078125 -0.94922,1.04296875 -1.46485,2.53124995 -1.46485,4.21874995 0,1.7226563 0.52735,3.1992188 1.5,4.21875 0.82031,0.8320313 1.85156,1.21875 3.21094,1.21875 2.55469,0 3.99609,-1.3710937 4.3125,-4.1484375 h -1.38281 c -0.11719,0.7265625 -0.25782,1.2070313 -0.46875,1.6289063 -0.4336,0.8554687 -1.32422,1.3476562 -2.4375,1.3476562 -2.08594,0 -3.39844,-1.6640625 -3.39844,-4.2773437 0,-2.6835938 1.24219,-4.3359375 3.28125,-4.3359375 0.84375,0 1.62891,0.24609375 2.0625,0.66796875 0.38672,0.3515625 0.60937,0.78515625 0.76172,1.57031245 z m 4.76367,-0.515625 c -2.12109,0 -3.38671,1.5117188 -3.38671,4.03125 0,2.5429688 1.26562,4.03125 3.39843,4.03125 2.1211,0 3.39844,-1.5 3.39844,-3.9726562 0,-2.6132813 -1.23047,-4.0898438 -3.41016,-4.0898438 z m 0.0117,1.1132813 c 1.34766,0 2.15625,1.1015625 2.15625,2.9648437 0,1.78125 -0.83203,2.8828125 -2.15625,2.8828125 -1.33593,0 -2.14453,-1.1015625 -2.14453,-2.9296875 0,-1.8164062 0.8086,-2.9179687 2.14453,-2.9179687 z m 5.06836,-0.890625 V 9.0508437 H 253.186 V 4.3281875 c 0,-1.0898438 0.79687,-1.9570313 1.76953,-1.9570313 0.89062,0 1.39453,0.5390625 1.39453,1.5 v 5.1796875 h 1.20703 V 4.3281875 c 0,-1.0898438 0.78516,-1.9570313 1.75781,-1.9570313 0.87891,0 1.39453,0.5507813 1.39453,1.5 v 5.1796875 h 1.20703 V 3.414125 c 0,-1.3476563 -0.77343,-2.0976563 -2.17968,-2.0976563 -1.00782,0 -1.60547,0.3046875 -2.3086,1.1484375 -0.44531,-0.796875 -1.05468,-1.1484375 -2.02734,-1.1484375 -1.00781,0 -1.67578,0.375 -2.30859,1.2773438 V 1.539125 Z m 11.70996,10.640625 h 1.20704 V 8.2656875 c 0.63281,0.7734375 1.33593,1.1132812 2.30859,1.1132812 1.94531,0 3.21094,-1.5585937 3.21094,-3.9609375 0,-2.5195312 -1.23047,-4.1015625 -3.22266,-4.1015625 -1.01953,0 -1.83984,0.4570313 -2.40234,1.3476563 v -1.125 h -1.10157 z m 3.30469,-9.7382813 c 1.3125,0 2.17969,1.1601563 2.17969,2.953125 0,1.7109375 -0.87891,2.8710938 -2.17969,2.8710938 -1.27734,0 -2.09765,-1.1484375 -2.09765,-2.9179688 0,-1.7578125 0.82031,-2.90625 2.09765,-2.90625 z m 11.57227,5.90625 c -0.12891,0.023437 -0.1875,0.023437 -0.25782,0.023437 -0.42187,0 -0.64453,-0.2109375 -0.64453,-0.5859375 V 3.36725 c 0,-1.3359375 -0.98437,-2.0507813 -2.82422,-2.0507813 -1.11328,0 -1.98046,0.3164063 -2.49609,0.8789063 -0.35156,0.3867187 -0.49219,0.8203125 -0.51562,1.5585937 h 1.19531 c 0.10547,-0.9140625 0.64453,-1.3242187 1.76953,-1.3242187 1.08984,0 1.67578,0.3984375 1.67578,1.1132812 v 0.3164063 c -0.0117,0.515625 -0.26953,0.703125 -1.24219,0.8320312 -1.69922,0.2109375 -1.95703,0.2695313 -2.41406,0.4570313 -0.87891,0.375 -1.32422,1.03125 -1.32422,2.0039062 0,1.3710938 0.94922,2.2265625 2.47266,2.2265625 0.94922,0 1.71094,-0.328125 2.55469,-1.1015625 0.082,0.7734375 0.45703,1.1015625 1.23046,1.1015625 0.25782,0 0.42188,-0.023437 0.82032,-0.1289062 z m -2.09766,-1.6640625 c 0,0.3984375 -0.11719,0.6445313 -0.46875,0.9726563 C 275.51902,8.101625 274.93309,8.336 274.22996,8.336 c -0.9375,0 -1.47656,-0.4453125 -1.47656,-1.2070313 0,-0.7851562 0.51562,-1.1953125 1.80469,-1.3828125 C 275.83543,5.5820937 276.08152,5.5235 276.47996,5.336 Z m 3.37793,-5.1445312 v 7.5117187 h 1.20703 V 5.1485 c 0.0117,-1.8046875 0.76172,-2.6132813 2.41406,-2.5664063 v -1.21875 c -0.19921,-0.035156 -0.3164,-0.046875 -0.45703,-0.046875 -0.77343,0 -1.37109,0.4570313 -2.05078,1.5820313 V 1.539125 Z m 5.9502,0 h -1.19532 v 7.5117187 h 1.19532 z m 0,-2.9414063 h -1.20704 v 1.50000005 h 1.20704 z m 2.0332,2.9414063 v 7.5117187 h 1.19531 V 4.9024062 c 0,-1.5351562 0.8086,-2.53125 2.03906,-2.53125 0.94922,0 1.54688,0.5742188 1.54688,1.4765625 v 5.203125 h 1.19531 V 3.36725 c 0,-1.2421875 -0.92578,-2.0507813 -2.3789,-2.0507813 -1.125,0 -1.83985,0.4335938 -2.4961,1.4765625 V 1.539125 Z m 12.75586,0 v 1.0898437 c -0.59766,-0.9023437 -1.25391,-1.3125 -2.20313,-1.3125 -1.8164,0 -3.08203,1.6992188 -3.08203,4.1015625 0,1.265625 0.30469,2.1796875 0.94922,2.9414063 0.55078,0.6679687 1.27734,1.0195312 2.05078,1.0195312 0.90235,0 1.54688,-0.3984375 2.17969,-1.3476562 v 0.3867187 c 0,2.0156248 -0.5625,2.7539058 -2.05078,2.7539058 -1.01953,0 -1.5586,-0.398437 -1.66406,-1.2656245 h -1.21875 c 0.10546,1.3945315 1.21875,2.2734375 2.84765,2.2734375 1.10156,0 2.02735,-0.363281 2.50781,-0.960938 0.57422,-0.703125 0.79688,-1.6406245 0.79688,-3.398437 v -6.28125 z m -2.08594,0.890625 c 1.26563,0 1.98047,1.0546875 1.98047,2.9648437 0,1.8164063 -0.73828,2.8828125 -1.98047,2.8828125 -1.23047,0 -1.95703,-1.078125 -1.95703,-2.9296875 0,-1.828125 0.72656,-2.9179687 1.95703,-2.9179687 z m 15.01758,1.6289062 c -0.0586,-0.7265625 -0.22266,-1.2070312 -0.50391,-1.6171875 -0.51562,-0.703125 -1.42968,-1.125 -2.47265,-1.125 -2.03907,0 -3.33985,1.6054688 -3.33985,4.1015625 0,2.4257813 1.28907,3.9609375 3.32813,3.9609375 1.79297,0 2.92969,-1.078125 3.07031,-2.90625 h -1.20703 c -0.19922,1.1953125 -0.82031,1.8046875 -1.83984,1.8046875 -1.3125,0 -2.10938,-1.078125 -2.10938,-2.859375 0,-1.875 0.78516,-2.9882812 2.08594,-2.9882812 1.00781,0 1.6289,0.5859375 1.78125,1.6289062 z m 8.08594,4.2890625 c -0.12891,0.023437 -0.1875,0.023437 -0.25782,0.023437 -0.42187,0 -0.64453,-0.2109375 -0.64453,-0.5859375 V 3.36725 c 0,-1.3359375 -0.98437,-2.0507813 -2.82422,-2.0507813 -1.11328,0 -1.98046,0.3164063 -2.49609,0.8789063 -0.35156,0.3867187 -0.49219,0.8203125 -0.51562,1.5585937 h 1.19531 c 0.10547,-0.9140625 0.64453,-1.3242187 1.76953,-1.3242187 1.08984,0 1.67578,0.3984375 1.67578,1.1132812 v 0.3164063 c -0.0117,0.515625 -0.26953,0.703125 -1.24219,0.8320312 C 316.57564,4.9024062 316.31783,4.961 315.8608,5.1485 c -0.87891,0.375 -1.32422,1.03125 -1.32422,2.0039062 0,1.3710938 0.94922,2.2265625 2.47266,2.2265625 0.94922,0 1.71094,-0.328125 2.55469,-1.1015625 0.082,0.7734375 0.45703,1.1015625 1.23046,1.1015625 0.25782,0 0.42188,-0.023437 0.82032,-0.1289062 z m -2.09766,-1.6640625 c 0,0.3984375 -0.11719,0.6445313 -0.46875,0.9726563 C 318.55613,8.101625 317.9702,8.336 317.26707,8.336 c -0.9375,0 -1.47656,-0.4453125 -1.47656,-1.2070313 0,-0.7851562 0.51562,-1.1953125 1.80469,-1.3828125 C 318.87254,5.5820937 319.11863,5.5235 319.51707,5.336 Z m 3.40137,-5.1445312 v 7.5117187 h 1.19531 V 4.9024062 c 0,-1.5351562 0.80859,-2.53125 2.03906,-2.53125 0.94922,0 1.54688,0.5742188 1.54688,1.4765625 v 5.203125 H 328.895 V 3.36725 c 0,-1.2421875 -0.92578,-2.0507813 -2.37891,-2.0507813 -1.125,0 -1.83984,0.4335938 -2.49609,1.4765625 V 1.539125 Z m 14.06836,-2.9414063 h -1.19532 V 2.476625 c -0.5039,-0.75 -1.30078,-1.1601563 -2.30859,-1.1601563 -1.94531,0 -3.22266,1.5703125 -3.22266,3.9609375 0,2.5429688 1.23047,4.1015625 3.26954,4.1015625 1.03125,0 1.74609,-0.3867187 2.39062,-1.3125 v 0.984375 h 1.06641 z m -3.30469,3.84375 c 1.30078,0 2.10937,1.125 2.10937,2.9414063 0,1.734375 -0.83203,2.8828125 -2.08593,2.8828125 -1.32422,0 -2.20313,-1.1601563 -2.20313,-2.9179688 0,-1.7460937 0.87891,-2.90625 2.17969,-2.90625 z m 6.33398,-0.9023437 h -1.19531 v 7.5117187 h 1.19531 z m 0,-2.9414063 h -1.20703 v 1.50000005 h 1.20703 z m 8.12696,0 h -1.19532 V 2.476625 c -0.5039,-0.75 -1.30078,-1.1601563 -2.30859,-1.1601563 -1.94531,0 -3.22266,1.5703125 -3.22266,3.9609375 0,2.5429688 1.23047,4.1015625 3.26954,4.1015625 1.03125,0 1.74609,-0.3867187 2.39062,-1.3125 v 0.984375 h 1.06641 z m -3.30469,3.84375 c 1.30078,0 2.10937,1.125 2.10937,2.9414063 0,1.734375 -0.83203,2.8828125 -2.08593,2.8828125 -1.32422,0 -2.20313,-1.1601563 -2.20313,-2.9179688 0,-1.7460937 0.87891,-2.90625 2.17969,-2.90625 z m 11.85351,5.90625 c -0.1289,0.023437 -0.1875,0.023437 -0.25781,0.023437 -0.42187,0 -0.64453,-0.2109375 -0.64453,-0.5859375 V 3.36725 c 0,-1.3359375 -0.98437,-2.0507813 -2.82422,-2.0507813 -1.11328,0 -1.98047,0.3164063 -2.49609,0.8789063 -0.35156,0.3867187 -0.49219,0.8203125 -0.51563,1.5585937 h 1.19532 c 0.10546,-0.9140625 0.64453,-1.3242187 1.76953,-1.3242187 1.08984,0 1.67578,0.3984375 1.67578,1.1132812 v 0.3164063 c -0.0117,0.515625 -0.26953,0.703125 -1.24219,0.8320312 C 351.65281,4.9024062 351.395,4.961 350.93797,5.1485 c -0.87891,0.375 -1.32422,1.03125 -1.32422,2.0039062 0,1.3710938 0.94922,2.2265625 2.47266,2.2265625 0.94921,0 1.71093,-0.328125 2.55468,-1.1015625 0.082,0.7734375 0.45703,1.1015625 1.23047,1.1015625 0.25781,0 0.42188,-0.023437 0.82031,-0.1289062 z M 354.5942,6.6836562 c 0,0.3984375 -0.11719,0.6445313 -0.46875,0.9726563 C 353.63328,8.101625 353.04734,8.336 352.34422,8.336 c -0.9375,0 -1.47656,-0.4453125 -1.47656,-1.2070313 0,-0.7851562 0.51562,-1.1953125 1.80468,-1.3828125 C 353.94969,5.5820937 354.19578,5.5235 354.59422,5.336 Z m 6.04101,-5.1445312 h -1.23046 v -2.07421875 h -1.19532 V 1.539125 h -1.01953 v 0.9726562 h 1.01953 V 8.195375 c 0,0.7734375 0.51563,1.1835937 1.45313,1.1835937 0.3164,0 0.57422,-0.023437 0.97265,-0.09375 V 8.2774062 c -0.17578,0.046875 -0.32812,0.058594 -0.57421,0.058594 -0.51563,0 -0.65625,-0.140625 -0.65625,-0.6796875 V 2.5117812 h 1.23046 z m 7.70215,4.1601562 c 0,-1.1484375 -0.082,-1.8398437 -0.30468,-2.4023437 -0.48047,-1.2304688 -1.62891,-1.9804688 -3.03516,-1.9804688 -2.09766,0 -3.44531,1.59375 -3.44531,4.078125 0,2.484375 1.28906,3.984375 3.41015,3.984375 1.72266,0 2.91797,-0.9726562 3.21094,-2.6132812 h -1.19531 c -0.33985,0.9960937 -1.00781,1.5117187 -1.96875,1.5117187 -0.76172,0 -1.40625,-0.3398437 -1.80469,-0.9726562 -0.29297,-0.4335938 -0.38672,-0.8671875 -0.41016,-1.6054688 z m -5.50781,-0.984375 c 0.0937,-1.3828125 0.94922,-2.2851562 2.14453,-2.2851562 1.23047,0 2.07422,0.9375 2.07422,2.2851562 z m 14.00977,-3.3984375 c -2.1211,0 -3.38672,1.5117188 -3.38672,4.03125 0,2.5429688 1.26562,4.03125 3.39843,4.03125 2.1211,0 3.39844,-1.5 3.39844,-3.9726562 0,-2.6132813 -1.23047,-4.0898438 -3.41015,-4.0898438 z m 0.0117,1.1132813 c 1.34766,0 2.15625,1.1015625 2.15625,2.9648437 0,1.78125 -0.83203,2.8828125 -2.15625,2.8828125 -1.33593,0 -2.14453,-1.1015625 -2.14453,-2.9296875 0,-1.8164062 0.8086,-2.9179687 2.14453,-2.9179687 z m 4.83399,9.75 h 1.20703 V 8.2656875 c 0.63281,0.7734375 1.33594,1.1132812 2.30859,1.1132812 1.94532,0 3.21094,-1.5585937 3.21094,-3.9609375 0,-2.5195312 -1.23047,-4.1015625 -3.22265,-4.1015625 -1.01954,0 -1.83985,0.4570313 -2.40235,1.3476563 v -1.125 h -1.10156 z m 3.30469,-9.7382813 c 1.3125,0 2.17968,1.1601563 2.17968,2.953125 0,1.7109375 -0.8789,2.8710938 -2.17968,2.8710938 -1.27735,0 -2.09766,-1.1484375 -2.09766,-2.9179688 0,-1.7578125 0.82031,-2.90625 2.09766,-2.90625 z m 11.25293,3.2578125 c 0,-1.1484375 -0.082,-1.8398437 -0.30469,-2.4023437 -0.48047,-1.2304688 -1.62891,-1.9804688 -3.03516,-1.9804688 -2.09765,0 -3.44531,1.59375 -3.44531,4.078125 0,2.484375 1.28906,3.984375 3.41016,3.984375 1.72265,0 2.91796,-0.9726562 3.21093,-2.6132812 h -1.19531 c -0.33984,0.9960937 -1.00781,1.5117187 -1.96875,1.5117187 -0.76172,0 -1.40625,-0.3398437 -1.80469,-0.9726562 -0.29297,-0.4335938 -0.38672,-0.8671875 -0.41015,-1.6054688 z m -5.50782,-0.984375 c 0.0937,-1.3828125 0.94922,-2.2851562 2.14453,-2.2851562 1.23047,0 2.07422,0.9375 2.07422,2.2851562 z m 7.10743,-3.1757812 v 7.5117187 h 1.20703 V 5.1485 c 0.0117,-1.8046875 0.76172,-2.6132813 2.41406,-2.5664063 v -1.21875 c -0.19922,-0.035156 -0.31641,-0.046875 -0.45703,-0.046875 -0.77344,0 -1.3711,0.4570313 -2.05078,1.5820313 V 1.539125 Z m 11.46679,6.8085937 c -0.1289,0.023437 -0.1875,0.023437 -0.25781,0.023437 -0.42188,0 -0.64453,-0.2109375 -0.64453,-0.5859375 V 3.36725 c 0,-1.3359375 -0.98438,-2.0507813 -2.82422,-2.0507813 -1.11328,0 -1.98047,0.3164063 -2.49609,0.8789063 -0.35157,0.3867187 -0.49219,0.8203125 -0.51563,1.5585937 h 1.19531 c 0.10547,-0.9140625 0.64453,-1.3242187 1.76953,-1.3242187 1.08985,0 1.67579,0.3984375 1.67579,1.1132812 v 0.3164063 c -0.0117,0.515625 -0.26954,0.703125 -1.24219,0.8320312 C 404.27,4.9024062 404.01219,4.961 403.55516,5.1485 c -0.87891,0.375 -1.32422,1.03125 -1.32422,2.0039062 0,1.3710938 0.94922,2.2265625 2.47265,2.2265625 0.94922,0 1.71094,-0.328125 2.55469,-1.1015625 0.082,0.7734375 0.45703,1.1015625 1.23047,1.1015625 0.25781,0 0.42187,-0.023437 0.82031,-0.1289062 z m -2.09765,-1.6640625 c 0,0.3984375 -0.11719,0.6445313 -0.46875,0.9726563 C 406.25047,8.101625 405.66453,8.336 404.96141,8.336 c -0.9375,0 -1.47657,-0.4453125 -1.47657,-1.2070313 0,-0.7851562 0.51563,-1.1953125 1.80469,-1.3828125 C 406.56687,5.5820937 406.81297,5.5235 407.21141,5.336 Z m 6.04101,-5.1445312 h -1.23047 v -2.07421875 h -1.19531 V 1.539125 h -1.01953 v 0.9726562 h 1.01953 V 8.195375 c 0,0.7734375 0.51563,1.1835937 1.45313,1.1835937 0.3164,0 0.57421,-0.023437 0.97265,-0.09375 V 8.2774062 C 413.07664,8.3242812 412.9243,8.336 412.6782,8.336 c -0.51562,0 -0.65625,-0.140625 -0.65625,-0.6796875 V 2.5117812 h 1.23047 z m 4.24219,-0.2226563 c -2.12109,0 -3.38672,1.5117188 -3.38672,4.03125 0,2.5429688 1.26563,4.03125 3.39844,4.03125 2.12109,0 3.39844,-1.5 3.39844,-3.9726562 0,-2.6132813 -1.23047,-4.0898438 -3.41016,-4.0898438 z m 0.0117,1.1132813 c 1.34765,0 2.15625,1.1015625 2.15625,2.9648437 0,1.78125 -0.83203,2.8828125 -2.15625,2.8828125 -1.33594,0 -2.14453,-1.1015625 -2.14453,-2.9296875 0,-1.8164062 0.80859,-2.9179687 2.14453,-2.9179687 z m 5.04492,-0.890625 v 7.5117187 h 1.20703 V 5.1485 C 423.77,3.3438125 424.52,2.5352187 426.17234,2.5820937 v -1.21875 c -0.19922,-0.035156 -0.3164,-0.046875 -0.45703,-0.046875 -0.77344,0 -1.37109,0.4570313 -2.05078,1.5820313 V 1.539125 Z m 10.07227,2.0859375 c -0.0117,-1.4765625 -0.98433,-2.3085938 -2.7187,-2.3085938 -1.75782,0 -2.88282,0.9023438 -2.88282,2.296875 0,1.171875 0.59766,1.734375 2.37891,2.1679688 l 1.11328,0.2695312 c 0.83203,0.1992188 1.16016,0.5039063 1.16016,1.03125 0,0.7265625 -0.70313,1.1953125 -1.7461,1.1953125 -0.64453,0 -1.19531,-0.1875 -1.48828,-0.5039062 -0.1875,-0.2109375 -0.28125,-0.4335938 -0.35156,-0.9609375 h -1.25391 c 0.0586,1.734375 1.03125,2.5664062 2.98828,2.5664062 1.89844,0 3.10547,-0.9257812 3.10547,-2.3789062 0,-1.125 -0.63281,-1.734375 -2.12109,-2.0976563 L 429.65867,4.632875 C 428.68602,4.3985 428.26414,4.0820937 428.26414,3.55475 c 0,-0.703125 0.62109,-1.125 1.59375,-1.125 0.96094,0 1.47656,0.4101562 1.5,1.1953125 z M 219.88426,18.610414 h 0.67969 c 1.38281,0 2.10937,0.644531 2.10937,1.898438 0,1.300781 -0.78516,2.097656 -2.09766,2.097656 -1.38281,0 -2.0625,-0.703125 -2.14453,-2.226563 h -1.26562 c 0.0586,0.832032 0.19922,1.371094 0.44531,1.839844 0.52734,0.996094 1.52344,1.5 2.91797,1.5 2.08594,0 3.43359,-1.265625 3.43359,-3.222656 0,-1.324219 -0.49218,-2.039063 -1.72265,-2.472656 0.94922,-0.386719 1.42968,-1.101563 1.42968,-2.144532 0,-1.78125 -1.17187,-2.859375 -3.10546,-2.859375 -2.05079,0 -3.14063,1.148438 -3.17579,3.339844 h 1.25391 c 0.0117,-0.632812 0.0703,-0.984375 0.23438,-1.300781 0.28125,-0.585938 0.91406,-0.9375 1.69921,-0.9375 1.125,0 1.79297,0.679687 1.79297,1.792969 0,0.738281 -0.25781,1.183593 -0.80859,1.417968 -0.35156,0.152344 -0.80859,0.210938 -1.67578,0.222657 z m 7.53808,3.292969 h -1.5 v 1.488281 h 1.5 z m 13.78711,-5.894531 c 0,-0.726563 -0.0469,-0.925782 -0.28125,-1.40625 -0.57422,-1.207032 -1.79297,-1.839844 -3.55078,-1.839844 -2.29687,0 -3.71484,1.171875 -3.71484,3.070312 0,1.277344 0.66797,2.074219 2.05078,2.4375 l 2.58984,0.691407 c 1.33594,0.339843 1.92188,0.867187 1.92188,1.6875 0,0.5625 -0.29297,1.136718 -0.73828,1.453125 -0.42188,0.304687 -1.07813,0.445312 -1.92188,0.445312 -1.14844,0 -1.91015,-0.269531 -2.41406,-0.878906 -0.38672,-0.457031 -0.5625,-0.960938 -0.55078,-1.605469 h -1.25391 c 0.0117,0.960938 0.19922,1.59375 0.60938,2.167969 0.72656,0.984375 1.92187,1.488281 3.51562,1.488281 1.25391,0 2.27344,-0.28125 2.94141,-0.796875 0.70312,-0.5625 1.14844,-1.5 1.14844,-2.402344 0,-1.289062 -0.79688,-2.238281 -2.22657,-2.625 l -2.625,-0.703125 c -1.2539,-0.339843 -1.71093,-0.738281 -1.71093,-1.546875 0,-1.066406 0.92578,-1.769531 2.33203,-1.769531 1.66406,0 2.60156,0.75 2.61328,2.132813 z m 8.37012,4.03125 c 0,-1.148438 -0.082,-1.839844 -0.30469,-2.402344 -0.48047,-1.230469 -1.6289,-1.980469 -3.03515,-1.980469 -2.09766,0 -3.44532,1.59375 -3.44532,4.078125 0,2.484375 1.28907,3.984375 3.41016,3.984375 1.72266,0 2.91797,-0.972656 3.21094,-2.613281 h -1.19531 c -0.33985,0.996094 -1.00782,1.511719 -1.96875,1.511719 -0.76172,0 -1.40625,-0.339844 -1.80469,-0.972657 -0.29297,-0.433593 -0.38672,-0.867187 -0.41016,-1.605468 z m -5.50781,-0.984375 c 0.0937,-1.382813 0.94922,-2.285157 2.14453,-2.285157 1.23047,0 2.07422,0.9375 2.07422,2.285157 z m 8.2998,-6.117188 h -1.20703 v 10.453125 h 1.20703 z m 8.36426,7.101563 c 0,-1.148438 -0.082,-1.839844 -0.30469,-2.402344 -0.48047,-1.230469 -1.6289,-1.980469 -3.03515,-1.980469 -2.09766,0 -3.44532,1.59375 -3.44532,4.078125 0,2.484375 1.28907,3.984375 3.41016,3.984375 1.72266,0 2.91797,-0.972656 3.21094,-2.613281 h -1.19531 c -0.33985,0.996094 -1.00782,1.511719 -1.96875,1.511719 -0.76172,0 -1.40625,-0.339844 -1.80469,-0.972657 -0.29297,-0.433593 -0.38672,-0.867187 -0.41016,-1.605468 z m -5.50781,-0.984375 c 0.0937,-1.382813 0.94922,-2.285157 2.14453,-2.285157 1.23047,0 2.07422,0.9375 2.07422,2.285157 z m 12.88476,-0.65625 c -0.0586,-0.726563 -0.22265,-1.207032 -0.5039,-1.617188 -0.51563,-0.703125 -1.42969,-1.125 -2.47266,-1.125 -2.03906,0 -3.33984,1.605469 -3.33984,4.101563 0,2.425781 1.28906,3.960937 3.32812,3.960937 1.79297,0 2.92969,-1.078125 3.07031,-2.90625 h -1.20703 c -0.19922,1.195313 -0.82031,1.804688 -1.83984,1.804688 -1.3125,0 -2.10938,-1.078125 -2.10938,-2.859375 0,-1.875 0.78516,-2.988282 2.08594,-2.988282 1.00781,0 1.62891,0.585938 1.78125,1.628907 z m 4.05176,-2.519532 h -1.23047 v -2.074218 h -1.19531 v 2.074218 h -1.01953 v 0.972657 h 1.01953 v 5.683593 c 0,0.773438 0.51562,1.183594 1.45312,1.183594 0.31641,0 0.57422,-0.02344 0.97266,-0.09375 v -1.007812 c -0.17578,0.04687 -0.32812,0.05859 -0.57422,0.05859 -0.51562,0 -0.65625,-0.140625 -0.65625,-0.679687 v -5.144531 h 1.23047 z m 2.49902,0 h -1.19531 v 7.511719 h 1.19531 z m 0,-2.941406 h -1.20703 v 1.5 h 1.20703 z m 2.03614,2.941406 v 7.511719 h 1.19531 v -4.148437 c 0,-1.535157 0.80859,-2.53125 2.03906,-2.53125 0.94922,0 1.54688,0.574218 1.54688,1.476562 v 5.203125 h 1.19531 V 17.70807 c 0,-1.242187 -0.92578,-2.050781 -2.37891,-2.050781 -1.125,0 -1.83984,0.433594 -2.49609,1.476563 v -1.253907 z m 12.75293,0 v 1.089844 c -0.59766,-0.902344 -1.25391,-1.3125 -2.20313,-1.3125 -1.8164,0 -3.08203,1.699219 -3.08203,4.101563 0,1.265625 0.30469,2.179687 0.94922,2.941406 0.55078,0.667969 1.27734,1.019531 2.05078,1.019531 0.90234,0 1.54688,-0.398437 2.17969,-1.347656 v 0.386719 c 0,2.015625 -0.5625,2.753906 -2.05078,2.753906 -1.01953,0 -1.5586,-0.398438 -1.66407,-1.265625 h -1.21875 c 0.10547,1.394531 1.21875,2.273437 2.84766,2.273437 1.10156,0 2.02734,-0.363281 2.50781,-0.960937 0.57422,-0.703125 0.79688,-1.640625 0.79688,-3.398438 v -6.28125 z m -2.08594,0.890625 c 1.26562,0 1.98047,1.054688 1.98047,2.964844 0,1.816406 -0.73828,2.882813 -1.98047,2.882813 -1.23047,0 -1.95703,-1.078125 -1.95703,-2.929688 0,-1.828125 0.72656,-2.917969 1.95703,-2.917969 z m 15.93457,5.917969 c -0.12891,0.02344 -0.1875,0.02344 -0.25781,0.02344 -0.42188,0 -0.64453,-0.210938 -0.64453,-0.585938 V 17.70807 c 0,-1.335937 -0.98438,-2.050781 -2.82422,-2.050781 -1.11328,0 -1.98047,0.316406 -2.4961,0.878906 -0.35156,0.386719 -0.49218,0.820313 -0.51562,1.558594 h 1.19531 c 0.10547,-0.914062 0.64453,-1.324219 1.76953,-1.324219 1.08985,0 1.67578,0.398438 1.67578,1.113282 v 0.316406 c -0.0117,0.515625 -0.26953,0.703125 -1.24218,0.832031 -1.69922,0.210938 -1.95704,0.269531 -2.41407,0.457031 -0.8789,0.375 -1.32422,1.03125 -1.32422,2.003907 0,1.371093 0.94922,2.226562 2.47266,2.226562 0.94922,0 1.71094,-0.328125 2.55469,-1.101562 0.082,0.773437 0.45703,1.101562 1.23047,1.101562 0.25781,0 0.42187,-0.02344 0.82031,-0.128906 z m -2.09766,-1.664062 c 0,0.398437 -0.11718,0.644531 -0.46875,0.972656 -0.49218,0.445312 -1.07812,0.679687 -1.78125,0.679687 -0.9375,0 -1.47656,-0.445312 -1.47656,-1.207031 0,-0.785156 0.51563,-1.195312 1.80469,-1.382812 1.27734,-0.164063 1.52344,-0.222657 1.92187,-0.410157 z m 12.66211,-3.058594 c -0.0117,-1.476563 -0.98437,-2.308594 -2.71875,-2.308594 -1.75781,0 -2.88281,0.902344 -2.88281,2.296875 0,1.171875 0.59766,1.734375 2.37891,2.167969 l 1.11328,0.269531 c 0.83203,0.199219 1.16015,0.503906 1.16015,1.03125 0,0.726563 -0.70312,1.195313 -1.74609,1.195313 -0.64453,0 -1.19531,-0.1875 -1.48828,-0.503907 -0.1875,-0.210937 -0.28125,-0.433593 -0.35156,-0.960937 h -1.25391 c 0.0586,1.734375 1.03125,2.566406 2.98828,2.566406 1.89844,0 3.10547,-0.925781 3.10547,-2.378906 0,-1.125 -0.63281,-1.734375 -2.12109,-2.097656 l -1.14844,-0.269532 c -0.97266,-0.234375 -1.39453,-0.550781 -1.39453,-1.078125 0,-0.703125 0.62109,-1.125 1.59375,-1.125 0.96094,0 1.47656,0.410157 1.5,1.195313 z m 3.04688,-2.085938 h -1.19531 v 7.511719 h 1.19531 z m 0,-2.941406 h -1.20703 v 1.5 h 1.20703 z m 2.03613,2.941406 v 7.511719 h 1.19531 v -4.148437 c 0,-1.535157 0.8086,-2.53125 2.03907,-2.53125 0.94921,0 1.54687,0.574218 1.54687,1.476562 v 5.203125 h 1.19531 V 17.70807 c 0,-1.242187 -0.92578,-2.050781 -2.3789,-2.050781 -1.125,0 -1.83985,0.433594 -2.4961,1.476563 v -1.253907 z m 12.75293,0 v 1.089844 c -0.59766,-0.902344 -1.25391,-1.3125 -2.20312,-1.3125 -1.81641,0 -3.08204,1.699219 -3.08204,4.101563 0,1.265625 0.30469,2.179687 0.94922,2.941406 0.55078,0.667969 1.27735,1.019531 2.05078,1.019531 0.90235,0 1.54688,-0.398437 2.17969,-1.347656 v 0.386719 c 0,2.015625 -0.5625,2.753906 -2.05078,2.753906 -1.01953,0 -1.55859,-0.398438 -1.66406,-1.265625 h -1.21875 c 0.10547,1.394531 1.21875,2.273437 2.84765,2.273437 1.10157,0 2.02735,-0.363281 2.50782,-0.960937 0.57422,-0.703125 0.79687,-1.640625 0.79687,-3.398438 v -6.28125 z m -2.08594,0.890625 c 1.26563,0 1.98047,1.054688 1.98047,2.964844 0,1.816406 -0.73828,2.882813 -1.98047,2.882813 -1.23047,0 -1.95703,-1.078125 -1.95703,-2.929688 0,-1.828125 0.72656,-2.917969 1.95703,-2.917969 z m 6.45117,-3.832031 h -1.20703 v 10.453125 h 1.20703 z m 8.36133,7.101563 c 0,-1.148438 -0.082,-1.839844 -0.30468,-2.402344 -0.48047,-1.230469 -1.62891,-1.980469 -3.03516,-1.980469 -2.09766,0 -3.44531,1.59375 -3.44531,4.078125 0,2.484375 1.28906,3.984375 3.41015,3.984375 1.72266,0 2.91797,-0.972656 3.21094,-2.613281 h -1.19531 c -0.33985,0.996094 -1.00781,1.511719 -1.96875,1.511719 -0.76172,0 -1.40625,-0.339844 -1.80469,-0.972657 -0.29297,-0.433593 -0.38672,-0.867187 -0.41016,-1.605468 z m -5.50781,-0.984375 c 0.0937,-1.382813 0.94922,-2.285157 2.14453,-2.285157 1.23047,0 2.07422,0.9375 2.07422,2.285157 z m 14.0127,-3.398438 c -2.1211,0 -3.38672,1.511719 -3.38672,4.03125 0,2.542969 1.26562,4.03125 3.39843,4.03125 2.1211,0 3.39844,-1.5 3.39844,-3.972656 0,-2.613281 -1.23047,-4.089844 -3.41015,-4.089844 z m 0.0117,1.113281 c 1.34766,0 2.15625,1.101563 2.15625,2.964844 0,1.78125 -0.83203,2.882813 -2.15625,2.882813 -1.33593,0 -2.14453,-1.101563 -2.14453,-2.929688 0,-1.816406 0.8086,-2.917969 2.14453,-2.917969 z m 4.83399,9.75 h 1.20703 v -3.914062 c 0.63281,0.773437 1.33594,1.113281 2.30859,1.113281 1.94532,0 3.21094,-1.558594 3.21094,-3.960937 0,-2.519532 -1.23047,-4.101563 -3.22265,-4.101563 -1.01954,0 -1.83985,0.457031 -2.40235,1.347656 v -1.125 h -1.10156 z m 3.30469,-9.738281 c 1.3125,0 2.17968,1.160156 2.17968,2.953125 0,1.710938 -0.8789,2.871094 -2.17968,2.871094 -1.27735,0 -2.09766,-1.148438 -2.09766,-2.917969 0,-1.757812 0.82031,-2.90625 2.09766,-2.90625 z m 11.25293,3.257813 c 0,-1.148438 -0.082,-1.839844 -0.30469,-2.402344 -0.48047,-1.230469 -1.62891,-1.980469 -3.03516,-1.980469 -2.09765,0 -3.44531,1.59375 -3.44531,4.078125 0,2.484375 1.28906,3.984375 3.41016,3.984375 1.72265,0 2.91796,-0.972656 3.21093,-2.613281 h -1.19531 c -0.33984,0.996094 -1.00781,1.511719 -1.96875,1.511719 -0.76172,0 -1.40625,-0.339844 -1.80469,-0.972657 -0.29297,-0.433593 -0.38672,-0.867187 -0.41015,-1.605468 z m -5.50782,-0.984375 c 0.0937,-1.382813 0.94922,-2.285157 2.14453,-2.285157 1.23047,0 2.07422,0.9375 2.07422,2.285157 z m 7.10743,-3.175782 v 7.511719 h 1.20703 V 19.48932 c 0.0117,-1.804687 0.76172,-2.613281 2.41406,-2.566406 v -1.21875 c -0.19922,-0.03516 -0.31641,-0.04687 -0.45703,-0.04687 -0.77344,0 -1.3711,0.457031 -2.05078,1.582031 V 15.87995 Z m 11.46679,6.808594 c -0.1289,0.02344 -0.1875,0.02344 -0.25781,0.02344 -0.42188,0 -0.64453,-0.210938 -0.64453,-0.585938 V 17.70807 c 0,-1.335937 -0.98438,-2.050781 -2.82422,-2.050781 -1.11328,0 -1.98047,0.316406 -2.49609,0.878906 -0.35157,0.386719 -0.49219,0.820313 -0.51563,1.558594 h 1.19531 c 0.10547,-0.914062 0.64453,-1.324219 1.76953,-1.324219 1.08985,0 1.67579,0.398438 1.67579,1.113282 v 0.316406 c -0.0117,0.515625 -0.26954,0.703125 -1.24219,0.832031 -1.69922,0.210938 -1.95703,0.269531 -2.41406,0.457031 -0.87891,0.375 -1.32422,1.03125 -1.32422,2.003907 0,1.371093 0.94922,2.226562 2.47265,2.226562 0.94922,0 1.71094,-0.328125 2.55469,-1.101562 0.082,0.773437 0.45703,1.101562 1.23047,1.101562 0.25781,0 0.42187,-0.02344 0.82031,-0.128906 z m -2.09765,-1.664062 c 0,0.398437 -0.11719,0.644531 -0.46875,0.972656 -0.49219,0.445312 -1.07813,0.679687 -1.78125,0.679687 -0.9375,0 -1.47657,-0.445312 -1.47657,-1.207031 0,-0.785156 0.51563,-1.195312 1.80469,-1.382812 1.27734,-0.164063 1.52344,-0.222657 1.92188,-0.410157 z m 6.04101,-5.144532 h -1.23047 v -2.074218 h -1.19531 v 2.074218 h -1.01953 v 0.972657 h 1.01953 v 5.683593 c 0,0.773438 0.51563,1.183594 1.45313,1.183594 0.3164,0 0.57421,-0.02344 0.97265,-0.09375 v -1.007812 c -0.17578,0.04687 -0.32812,0.05859 -0.57422,0.05859 -0.51562,0 -0.65625,-0.140625 -0.65625,-0.679687 v -5.144531 h 1.23047 z m 4.24219,-0.222656 c -2.12109,0 -3.38672,1.511719 -3.38672,4.03125 0,2.542969 1.26563,4.03125 3.39844,4.03125 2.12109,0 3.39844,-1.5 3.39844,-3.972656 0,-2.613281 -1.23047,-4.089844 -3.41016,-4.089844 z m 0.0117,1.113281 c 1.34765,0 2.15625,1.101563 2.15625,2.964844 0,1.78125 -0.83203,2.882813 -2.15625,2.882813 -1.33594,0 -2.14453,-1.101563 -2.14453,-2.929688 0,-1.816406 0.80859,-2.917969 2.14453,-2.917969 z m 5.04492,-0.890625 v 7.511719 H 399.852 V 19.48932 c 0.0117,-1.804687 0.76172,-2.613281 2.41406,-2.566406 v -1.21875 c -0.19922,-0.03516 -0.3164,-0.04687 -0.45703,-0.04687 -0.77344,0 -1.37109,0.457031 -2.05078,1.582031 v -1.35938 z M 221.39598,35.221742 v 2.507813 h 1.26562 v -2.507813 h 1.5 v -1.136719 h -1.5 v -6.726562 h -0.9375 l -4.61719,6.527344 v 1.335937 z m 0,-1.136719 h -3.17578 l 3.17578,-4.570312 z m 6.02636,2.15625 h -1.5 v 1.488282 h 1.5 z m 12.0293,-1.652343 1.07813,3.140625 h 1.48828 L 238.35008,27.27643 h -1.72266 l -3.72656,10.453125 h 1.41797 l 1.10156,-3.140625 z m -0.375,-1.125 h -3.32812 l 1.72265,-4.757813 z m 3.91699,7.394531 h 1.20703 v -3.914063 c 0.63282,0.773438 1.33594,1.113282 2.3086,1.113282 1.94531,0 3.21094,-1.558594 3.21094,-3.960938 0,-2.519531 -1.23047,-4.101562 -3.22266,-4.101562 -1.01953,0 -1.83984,0.457031 -2.40234,1.347656 v -1.125 h -1.10157 z m 3.30469,-9.738281 c 1.3125,0 2.17969,1.160156 2.17969,2.953125 0,1.710937 -0.87891,2.871093 -2.17969,2.871093 -1.27734,0 -2.09766,-1.148437 -2.09766,-2.917968 0,-1.757813 0.82032,-2.90625 2.09766,-2.90625 z m 4.66699,9.738281 h 1.20703 v -3.914063 c 0.63282,0.773438 1.33594,1.113282 2.3086,1.113282 1.94531,0 3.21093,-1.558594 3.21093,-3.960938 0,-2.519531 -1.23046,-4.101562 -3.22265,-4.101562 -1.01953,0 -1.83985,0.457031 -2.40235,1.347656 v -1.125 h -1.10156 z M 254.27,31.12018 c 1.3125,0 2.17969,1.160156 2.17969,2.953125 0,1.710937 -0.87891,2.871093 -2.17969,2.871093 -1.27734,0 -2.09766,-1.148437 -2.09766,-2.917968 0,-1.757813 0.82032,-2.90625 2.09766,-2.90625 z m 6.07617,-3.84375 h -1.20703 v 10.453125 h 1.20703 z m 6.57129,2.941406 -2.08594,5.847656 -1.92187,-5.847656 h -1.27735 l 2.54297,7.535156 -0.45703,1.195313 c -0.19922,0.527343 -0.45703,0.726562 -0.96094,0.726562 -0.19921,0 -0.375,-0.02344 -0.63281,-0.08203 v 1.078125 c 0.2461,0.128906 0.49219,0.1875 0.8086,0.1875 0.38671,0 0.79687,-0.128906 1.11328,-0.363281 0.375,-0.269532 0.58593,-0.585938 0.82031,-1.183594 l 3.33984,-9.09375 z m 3.75879,0 h -1.19531 v 7.511719 h 1.19531 z m 0,-2.941406 h -1.20703 v 1.5 h 1.20703 z m 2.03613,2.941406 v 7.511719 h 1.19532 v -4.148438 c 0,-1.535156 0.80859,-2.53125 2.03906,-2.53125 0.94922,0 1.54687,0.574219 1.54687,1.476563 v 5.203125 h 1.19532 v -5.683594 c 0,-1.242188 -0.92579,-2.050781 -2.37891,-2.050781 -1.125,0 -1.83984,0.433593 -2.49609,1.476562 v -1.253906 z m 12.75586,0 v 1.089844 c -0.59765,-0.902344 -1.2539,-1.3125 -2.20312,-1.3125 -1.81641,0 -3.08203,1.699218 -3.08203,4.101562 0,1.265625 0.30468,2.179688 0.94921,2.941406 0.55079,0.667969 1.27735,1.019532 2.05079,1.019532 0.90234,0 1.54687,-0.398438 2.17968,-1.347657 v 0.386719 c 0,2.015625 -0.5625,2.753906 -2.05078,2.753906 -1.01953,0 -1.55859,-0.398437 -1.66406,-1.265625 h -1.21875 c 0.10547,1.394532 1.21875,2.273438 2.84766,2.273438 1.10156,0 2.02734,-0.363281 2.50781,-0.960938 0.57422,-0.703125 0.79687,-1.640625 0.79687,-3.398437 v -6.28125 z m -2.08594,0.890625 c 1.26563,0 1.98047,1.054687 1.98047,2.964844 0,1.816406 -0.73828,2.882812 -1.98047,2.882812 -1.23046,0 -1.95703,-1.078125 -1.95703,-2.929687 0,-1.828125 0.72657,-2.917969 1.95703,-2.917969 z m 11.9004,-0.890625 h -1.23047 v -2.074219 h -1.19532 v 2.074219 h -1.01953 v 0.972656 h 1.01953 v 5.683594 c 0,0.773437 0.51563,1.183594 1.45313,1.183594 0.31641,0 0.57422,-0.02344 0.97266,-0.09375 v -1.007813 c -0.17579,0.04687 -0.32813,0.05859 -0.57422,0.05859 -0.51563,0 -0.65625,-0.140625 -0.65625,-0.679688 v -5.144531 h 1.23047 z m 1.35058,-2.941406 v 10.453125 h 1.18359 v -4.148438 c 0,-1.535156 0.8086,-2.53125 2.03907,-2.53125 0.39843,0 0.77343,0.105469 1.0664,0.328125 0.33985,0.257813 0.48047,0.609375 0.48047,1.148438 v 5.203125 h 1.19531 v -5.683594 c 0,-1.253906 -0.90234,-2.050781 -2.36718,-2.050781 -1.06641,0 -1.71094,0.328125 -2.41407,1.253906 V 27.27643 Z m 14.32324,7.101562 c 0,-1.148437 -0.082,-1.839844 -0.30468,-2.402344 -0.48047,-1.230468 -1.62891,-1.980468 -3.03516,-1.980468 -2.09766,0 -3.44531,1.59375 -3.44531,4.078125 0,2.484375 1.28906,3.984375 3.41015,3.984375 1.72266,0 2.91797,-0.972657 3.21094,-2.613282 h -1.19531 c -0.33985,0.996094 -1.00781,1.511719 -1.96875,1.511719 -0.76172,0 -1.40625,-0.339844 -1.80469,-0.972656 -0.29297,-0.433594 -0.38672,-0.867188 -0.41016,-1.605469 z m -5.50781,-0.984375 c 0.0937,-1.382812 0.94922,-2.285156 2.14453,-2.285156 1.23047,0 2.07422,0.9375 2.07422,2.285156 z m 14.0127,-3.398437 c -2.1211,0 -3.38672,1.511718 -3.38672,4.03125 0,2.542968 1.26562,4.03125 3.39843,4.03125 2.1211,0 3.39844,-1.5 3.39844,-3.972657 0,-2.613281 -1.23047,-4.089843 -3.41015,-4.089843 z m 0.0117,1.113281 c 1.34766,0 2.15625,1.101562 2.15625,2.964844 0,1.78125 -0.83203,2.882812 -2.15625,2.882812 -1.33593,0 -2.14453,-1.101562 -2.14453,-2.929687 0,-1.816407 0.8086,-2.917969 2.14453,-2.917969 z m 4.83399,9.75 h 1.20703 v -3.914063 c 0.63281,0.773438 1.33594,1.113282 2.30859,1.113282 1.94532,0 3.21094,-1.558594 3.21094,-3.960938 0,-2.519531 -1.23047,-4.101562 -3.22265,-4.101562 -1.01954,0 -1.83985,0.457031 -2.40235,1.347656 v -1.125 h -1.10156 z m 3.30469,-9.738281 c 1.3125,0 2.17968,1.160156 2.17968,2.953125 0,1.710937 -0.8789,2.871093 -2.17968,2.871093 -1.27735,0 -2.09766,-1.148437 -2.09766,-2.917968 0,-1.757813 0.82031,-2.90625 2.09766,-2.90625 z m 11.25293,3.257812 c 0,-1.148437 -0.082,-1.839844 -0.30469,-2.402344 -0.48047,-1.230468 -1.62891,-1.980468 -3.03516,-1.980468 -2.09765,0 -3.44531,1.59375 -3.44531,4.078125 0,2.484375 1.28906,3.984375 3.41016,3.984375 1.72265,0 2.91797,-0.972657 3.21093,-2.613282 h -1.19531 c -0.33984,0.996094 -1.00781,1.511719 -1.96875,1.511719 -0.76172,0 -1.40625,-0.339844 -1.80469,-0.972656 -0.29296,-0.433594 -0.38671,-0.867188 -0.41015,-1.605469 z m -5.50782,-0.984375 c 0.0937,-1.382812 0.94922,-2.285156 2.14454,-2.285156 1.23046,0 2.07421,0.9375 2.07421,2.285156 z m 7.10743,-3.175781 v 7.511719 h 1.20703 v -3.902344 c 0.0117,-1.804688 0.76172,-2.613281 2.41406,-2.566406 v -1.21875 c -0.19922,-0.03516 -0.31641,-0.04687 -0.45703,-0.04687 -0.77344,0 -1.3711,0.457031 -2.05078,1.582031 v -1.359375 z m 11.46679,6.808594 c -0.1289,0.02344 -0.1875,0.02344 -0.25781,0.02344 -0.42187,0 -0.64453,-0.210937 -0.64453,-0.585937 v -4.417969 c 0,-1.335938 -0.98438,-2.050781 -2.82422,-2.050781 -1.11328,0 -1.98047,0.316406 -2.49609,0.878906 -0.35157,0.386719 -0.49219,0.820312 -0.51563,1.558594 h 1.19531 c 0.10547,-0.914063 0.64454,-1.324219 1.76954,-1.324219 1.08984,0 1.67578,0.398437 1.67578,1.113281 v 0.316406 c -0.0117,0.515625 -0.26953,0.703125 -1.24219,0.832032 -1.69922,0.210937 -1.95703,0.269531 -2.41406,0.457031 -0.87891,0.375 -1.32422,1.03125 -1.32422,2.003906 0,1.371094 0.94922,2.226563 2.47265,2.226563 0.94922,0 1.71094,-0.328125 2.55469,-1.101563 0.082,0.773438 0.45703,1.101563 1.23047,1.101563 0.25781,0 0.42188,-0.02344 0.82031,-0.128907 z m -2.09765,-1.664063 c 0,0.398438 -0.11719,0.644531 -0.46875,0.972656 -0.49219,0.445313 -1.07813,0.679688 -1.78125,0.679688 -0.9375,0 -1.47657,-0.445313 -1.47657,-1.207031 0,-0.785157 0.51563,-1.195313 1.80469,-1.382813 1.27735,-0.164062 1.52344,-0.222656 1.92188,-0.410156 z m 6.04101,-5.144531 h -1.23047 v -2.074219 h -1.19531 v 2.074219 h -1.01953 v 0.972656 h 1.01953 v 5.683594 c 0,0.773437 0.51563,1.183594 1.45313,1.183594 0.3164,0 0.57421,-0.02344 0.97265,-0.09375 v -1.007813 c -0.17578,0.04687 -0.32812,0.05859 -0.57422,0.05859 -0.51562,0 -0.65625,-0.140625 -0.65625,-0.679688 v -5.144531 h 1.23047 z m 4.24219,-0.222656 c -2.12109,0 -3.38672,1.511718 -3.38672,4.03125 0,2.542968 1.26563,4.03125 3.39844,4.03125 2.12109,0 3.39844,-1.5 3.39844,-3.972657 0,-2.613281 -1.23047,-4.089843 -3.41016,-4.089843 z m 0.0117,1.113281 c 1.34765,0 2.15625,1.101562 2.15625,2.964844 0,1.78125 -0.83203,2.882812 -2.15625,2.882812 -1.33594,0 -2.14453,-1.101562 -2.14453,-2.929687 0,-1.816407 0.80859,-2.917969 2.14453,-2.917969 z m 5.04492,-0.890625 v 7.511719 h 1.20703 v -3.902344 c 0.0117,-1.804688 0.76172,-2.613281 2.41406,-2.566406 v -1.21875 c -0.19921,-0.03516 -0.3164,-0.04687 -0.45703,-0.04687 -0.77343,0 -1.37109,0.457031 -2.05078,1.582031 v -1.35938 z M 223.54051,41.8985 h -5.25 l -0.76172,5.542969 h 1.16016 c 0.58593,-0.703125 1.07812,-0.949219 1.875,-0.949219 1.37109,0 2.21484,0.925781 2.21484,2.4375 0,1.464844 -0.84375,2.355469 -2.22656,2.355469 -1.10157,0 -1.78125,-0.5625 -2.07422,-1.710938 h -1.26563 c 0.17578,0.832031 0.31641,1.230469 0.60938,1.605469 0.57422,0.773437 1.61719,1.21875 2.7539,1.21875 2.0625,0 3.49219,-1.488281 3.49219,-3.644531 0,-2.003907 -1.33594,-3.386719 -3.28125,-3.386719 -0.72656,0 -1.30078,0.1875 -1.88672,0.621094 l 0.41016,-2.835938 h 4.23047 z m 3.88183,8.683594 h -1.5 v 1.488281 h 1.5 z m 10.30664,-7.792969 h 3.4336 V 41.61725 h -8.20313 v 1.171875 h 3.4336 v 9.28125 h 1.33593 z m 11.04786,5.929687 c 0,-1.148437 -0.082,-1.839843 -0.30469,-2.402343 C 247.99168,45.086 246.84324,44.336 245.43699,44.336 c -2.09765,0 -3.44531,1.59375 -3.44531,4.078125 0,2.484375 1.28906,3.984375 3.41016,3.984375 1.72265,0 2.91796,-0.972656 3.21093,-2.613281 h -1.19531 c -0.33984,0.996093 -1.00781,1.511718 -1.96875,1.511718 -0.76172,0 -1.40625,-0.339843 -1.80469,-0.972656 -0.29297,-0.433594 -0.38672,-0.867187 -0.41015,-1.605469 z m -5.50782,-0.984375 c 0.0937,-1.382812 0.94922,-2.285156 2.14453,-2.285156 1.23047,0 2.07422,0.9375 2.07422,2.285156 z m 7.1045,-3.175781 v 7.511719 h 1.20703 v -3.902344 c 0.0117,-1.804687 0.76172,-2.613281 2.41406,-2.566406 v -1.21875 c -0.19922,-0.03516 -0.31641,-0.04687 -0.45703,-0.04687 -0.77344,0 -1.3711,0.457031 -2.05078,1.582031 v -1.359375 z m 4.79882,0 v 7.511719 h 1.19532 v -4.722656 c 0,-1.089844 0.79687,-1.957032 1.76953,-1.957032 0.89062,0 1.39453,0.539063 1.39453,1.5 v 5.179688 h 1.20703 v -4.722656 c 0,-1.089844 0.78516,-1.957032 1.75781,-1.957032 0.87891,0 1.39453,0.550782 1.39453,1.5 v 5.179688 h 1.20703 v -5.636719 c 0,-1.347656 -0.77343,-2.097656 -2.17968,-2.097656 -1.00782,0 -1.60547,0.304687 -2.3086,1.148437 -0.44531,-0.796875 -1.05468,-1.148437 -2.02734,-1.148437 -1.00781,0 -1.67578,0.375 -2.30859,1.277344 v -1.054688 z m 13.09571,0 h -1.19532 v 7.511719 h 1.19532 z m 0,-2.941406 h -1.20703 v 1.5 h 1.20703 z m 2.03613,2.941406 v 7.511719 h 1.19531 v -4.148438 c 0,-1.535156 0.8086,-2.53125 2.03906,-2.53125 0.94922,0 1.54688,0.574219 1.54688,1.476563 v 5.203125 h 1.19531 v -5.683594 c 0,-1.242187 -0.92578,-2.050781 -2.3789,-2.050781 -1.125,0 -1.83985,0.433594 -2.4961,1.476562 v -1.253906 z m 14.63965,6.808594 c -0.12891,0.02344 -0.1875,0.02344 -0.25781,0.02344 -0.42188,0 -0.64454,-0.210937 -0.64454,-0.585937 v -4.417969 c 0,-1.335937 -0.98437,-2.050781 -2.82421,-2.050781 -1.11329,0 -1.98047,0.316406 -2.4961,0.878906 -0.35156,0.386719 -0.49219,0.820313 -0.51562,1.558594 h 1.19531 c 0.10547,-0.914063 0.64453,-1.324219 1.76953,-1.324219 1.08984,0 1.67578,0.398438 1.67578,1.113281 v 0.316407 c -0.0117,0.515625 -0.26953,0.703125 -1.24219,0.832031 -1.69921,0.210937 -1.95703,0.269531 -2.41406,0.457031 -0.8789,0.375 -1.32422,1.03125 -1.32422,2.003906 0,1.371094 0.94922,2.226563 2.47266,2.226563 0.94922,0 1.71094,-0.328125 2.55469,-1.101563 0.082,0.773438 0.45703,1.101563 1.23047,1.101563 0.25781,0 0.42187,-0.02344 0.82031,-0.128906 z m -2.09766,-1.664063 c 0,0.398438 -0.11719,0.644532 -0.46875,0.972657 -0.49219,0.445312 -1.07812,0.679687 -1.78125,0.679687 -0.9375,0 -1.47656,-0.445312 -1.47656,-1.207031 0,-0.785156 0.51562,-1.195313 1.80469,-1.382813 1.27734,-0.164062 1.52343,-0.222656 1.92187,-0.410156 z m 6.04102,-5.144531 h -1.23047 v -2.074219 h -1.19531 v 2.074219 h -1.01954 v 0.972656 h 1.01954 v 5.683594 c 0,0.773438 0.51562,1.183594 1.45312,1.183594 0.31641,0 0.57422,-0.02344 0.97266,-0.09375 v -1.007813 c -0.17578,0.04687 -0.32813,0.05859 -0.57422,0.05859 -0.51563,0 -0.65625,-0.140625 -0.65625,-0.679687 v -5.144532 h 1.23047 z m 2.49902,0 h -1.19531 v 7.511719 h 1.19531 z m 0,-2.941406 h -1.20703 v 1.5 h 1.20703 z m 2.0332,2.941406 v 7.511719 h 1.19532 v -4.148438 c 0,-1.535156 0.80859,-2.53125 2.03906,-2.53125 0.94922,0 1.54687,0.574219 1.54687,1.476563 v 5.203125 h 1.19532 v -5.683594 c 0,-1.242187 -0.92578,-2.050781 -2.37891,-2.050781 -1.125,0 -1.83984,0.433594 -2.49609,1.476562 v -1.253906 z m 12.75586,0 V 45.6485 c -0.59765,-0.902344 -1.2539,-1.3125 -2.20312,-1.3125 -1.81641,0 -3.08203,1.699219 -3.08203,4.101562 0,1.265625 0.30468,2.179688 0.94922,2.941407 0.55078,0.667968 1.27734,1.019531 2.05078,1.019531 0.90234,0 1.54687,-0.398438 2.17968,-1.347656 v 0.386718 c 0,2.015625 -0.5625,2.753907 -2.05078,2.753907 -1.01953,0 -1.55859,-0.398438 -1.66406,-1.265625 h -1.21875 c 0.10547,1.394531 1.21875,2.273437 2.84766,2.273437 1.10156,0 2.02734,-0.363281 2.50781,-0.960937 0.57422,-0.703125 0.79687,-1.640625 0.79687,-3.398438 v -6.28125 z m -2.08593,0.890625 c 1.26562,0 1.98046,1.054688 1.98046,2.964844 0,1.816406 -0.73828,2.882812 -1.98046,2.882812 -1.23047,0 -1.95704,-1.078125 -1.95704,-2.929687 0,-1.828125 0.72657,-2.917969 1.95704,-2.917969 z m 11.90039,-0.890625 h -1.23047 v -2.074219 h -1.19531 v 2.074219 h -1.01954 v 0.972656 h 1.01954 v 5.683594 c 0,0.773438 0.51562,1.183594 1.45312,1.183594 0.31641,0 0.57422,-0.02344 0.97266,-0.09375 v -1.007813 c -0.17578,0.04687 -0.32813,0.05859 -0.57422,0.05859 -0.51563,0 -0.65625,-0.140625 -0.65625,-0.679687 v -5.144532 h 1.23047 z m 1.35058,-2.941406 v 10.453125 h 1.1836 v -4.148438 c 0,-1.535156 0.80859,-2.53125 2.03906,-2.53125 0.39844,0 0.77344,0.105469 1.0664,0.328125 0.33985,0.257813 0.48047,0.609375 0.48047,1.148438 v 5.203125 h 1.19532 v -5.683594 c 0,-1.253906 -0.90235,-2.050781 -2.36719,-2.050781 -1.06641,0 -1.71094,0.328125 -2.41406,1.253906 V 41.61725 Z m 14.32617,7.101562 c 0,-1.148437 -0.082,-1.839843 -0.30468,-2.402343 C 330.88133,45.086 329.73289,44.336 328.32664,44.336 c -2.09766,0 -3.44531,1.59375 -3.44531,4.078125 0,2.484375 1.28906,3.984375 3.41015,3.984375 1.72266,0 2.91797,-0.972656 3.21094,-2.613281 h -1.19531 c -0.33984,0.996093 -1.00781,1.511718 -1.96875,1.511718 -0.76172,0 -1.40625,-0.339843 -1.80469,-0.972656 -0.29297,-0.433594 -0.38672,-0.867187 -0.41015,-1.605469 z m -5.50781,-0.984375 c 0.0937,-1.382812 0.94922,-2.285156 2.14453,-2.285156 1.23047,0 2.07422,0.9375 2.07422,2.285156 z M 340.16844,44.336 c -2.1211,0 -3.38672,1.511719 -3.38672,4.03125 0,2.542969 1.26562,4.03125 3.39844,4.03125 2.12109,0 3.39843,-1.5 3.39843,-3.972656 0,-2.613282 -1.23047,-4.089844 -3.41015,-4.089844 z m 0.0117,1.113281 c 1.34765,0 2.15625,1.101563 2.15625,2.964844 0,1.78125 -0.83204,2.882812 -2.15625,2.882812 -1.33594,0 -2.14454,-1.101562 -2.14454,-2.929687 0,-1.816406 0.8086,-2.917969 2.14454,-2.917969 z m 4.83398,9.75 h 1.20703 v -3.914062 c 0.63281,0.773437 1.33594,1.113281 2.3086,1.113281 1.94531,0 3.21093,-1.558594 3.21093,-3.960938 0,-2.519531 -1.23047,-4.101562 -3.22265,-4.101562 -1.01953,0 -1.83985,0.457031 -2.40235,1.347656 v -1.125 h -1.10156 z M 348.31883,45.461 c 1.3125,0 2.17969,1.160156 2.17969,2.953125 0,1.710937 -0.87891,2.871094 -2.17969,2.871094 -1.27735,0 -2.09766,-1.148438 -2.09766,-2.917969 0,-1.757813 0.82031,-2.90625 2.09766,-2.90625 z m 11.25586,3.257812 c 0,-1.148437 -0.082,-1.839843 -0.30469,-2.402343 C 358.78953,45.086 357.64109,44.336 356.23484,44.336 c -2.09765,0 -3.44531,1.59375 -3.44531,4.078125 0,2.484375 1.28906,3.984375 3.41016,3.984375 1.72265,0 2.91797,-0.972656 3.21093,-2.613281 h -1.19531 c -0.33984,0.996093 -1.00781,1.511718 -1.96875,1.511718 -0.76172,0 -1.40625,-0.339843 -1.80469,-0.972656 -0.29296,-0.433594 -0.38671,-0.867187 -0.41015,-1.605469 z m -5.50782,-0.984375 c 0.0937,-1.382812 0.94922,-2.285156 2.14454,-2.285156 1.23046,0 2.07421,0.9375 2.07421,2.285156 z m 7.1045,-3.175781 v 7.511719 h 1.20703 v -3.902344 c 0.0117,-1.804687 0.76172,-2.613281 2.41406,-2.566406 v -1.21875 c -0.19922,-0.03516 -0.31641,-0.04687 -0.45703,-0.04687 -0.77344,0 -1.37109,0.457031 -2.05078,1.582031 v -1.359375 z m 11.46679,6.808594 c -0.1289,0.02344 -0.1875,0.02344 -0.25781,0.02344 -0.42187,0 -0.64453,-0.210937 -0.64453,-0.585937 v -4.417969 c 0,-1.335937 -0.98437,-2.050781 -2.82422,-2.050781 -1.11328,0 -1.98047,0.316406 -2.49609,0.878906 -0.35156,0.386719 -0.49219,0.820313 -0.51563,1.558594 h 1.19532 c 0.10546,-0.914063 0.64453,-1.324219 1.76953,-1.324219 1.08984,0 1.67578,0.398438 1.67578,1.113281 v 0.316407 c -0.0117,0.515625 -0.26953,0.703125 -1.24219,0.832031 -1.69922,0.210937 -1.95703,0.269531 -2.41406,0.457031 -0.87891,0.375 -1.32422,1.03125 -1.32422,2.003906 0,1.371094 0.94922,2.226563 2.47266,2.226563 0.94921,0 1.71093,-0.328125 2.55468,-1.101563 0.082,0.773438 0.45703,1.101563 1.23047,1.101563 0.25781,0 0.42188,-0.02344 0.82031,-0.128906 z m -2.09765,-1.664063 c 0,0.398438 -0.11719,0.644532 -0.46875,0.972657 -0.49219,0.445312 -1.07813,0.679687 -1.78125,0.679687 -0.9375,0 -1.47656,-0.445312 -1.47656,-1.207031 0,-0.785156 0.51562,-1.195313 1.80468,-1.382813 1.27735,-0.164062 1.52344,-0.222656 1.92188,-0.410156 z m 6.04101,-5.144531 h -1.23047 v -2.074219 h -1.19531 v 2.074219 h -1.01953 v 0.972656 h 1.01953 v 5.683594 c 0,0.773438 0.51563,1.183594 1.45313,1.183594 0.3164,0 0.57422,-0.02344 0.97265,-0.09375 v -1.007813 c -0.17578,0.04687 -0.32812,0.05859 -0.57422,0.05859 -0.51562,0 -0.65625,-0.140625 -0.65625,-0.679687 v -5.144532 h 1.23047 z M 380.82664,44.336 c -2.12109,0 -3.38672,1.511719 -3.38672,4.03125 0,2.542969 1.26563,4.03125 3.39844,4.03125 2.12109,0 3.39844,-1.5 3.39844,-3.972656 0,-2.613282 -1.23047,-4.089844 -3.41016,-4.089844 z m 0.0117,1.113281 c 1.34766,0 2.15625,1.101563 2.15625,2.964844 0,1.78125 -0.83203,2.882812 -2.15625,2.882812 -1.33594,0 -2.14453,-1.101562 -2.14453,-2.929687 0,-1.816406 0.80859,-2.917969 2.14453,-2.917969 z m 5.04199,-0.890625 v 7.511719 h 1.20703 v -3.902344 c 0.0117,-1.804687 0.76172,-2.613281 2.41407,-2.566406 v -1.21875 c -0.19922,-0.03516 -0.31641,-0.04687 -0.45704,-0.04687 -0.77343,0 -1.37109,0.457031 -2.05078,1.582031 v -1.359375 z m 0,0"
         style="fill:#000000;fill-opacity:1;fill-rule:nonzero;stroke:none" />
    </g>
    <path
       id="path20"
       d="M 3123.13,6310 2422.02,6055.05"
       style="fill:none;stroke:#b3b3b3;stroke-width:15.9343;stroke-linecap:butt;stroke-linejoin:miter;stroke-miterlimit:10;stroke-dasharray:none;stroke-opacity:1"
       transform="matrix(0.13333333,0,0,-0.13333333,0,1056)" />
    <path
       id="path21"
       d="m 2503.7,6063.56 -81.68,-8.51 68.07,45.95"
       style="fill:none;stroke:#b3b3b3;stroke-width:15.9343;stroke-linecap:butt;stroke-linejoin:miter;stroke-miterlimit:10;stroke-dasharray:none;stroke-opacity:1"
       transform="matrix(0.13333333,0,0,-0.13333333,0,1056)" />
    <path
       id="path22"
       d="m 3123.13,6628.68 -701.11,-63.73"
       style="fill:none;stroke:#b3b3b3;stroke-width:15.9343;stroke-linecap:butt;stroke-linejoin:miter;stroke-miterlimit:10;stroke-dasharray:none;stroke-opacity:1"
       transform="matrix(0.13333333,0,0,-0.13333333,0,1056)" />
    <path
       id="path23"
       d="m 2503.17,6552.32 -81.15,12.63 77.54,27.05"
       style="fill:none;stroke:#b3b3b3;stroke-width:15.9343;stroke-linecap:butt;stroke-linejoin:miter;stroke-miterlimit:10;stroke-dasharray:none;stroke-opacity:1"
       transform="matrix(0.13333333,0,0,-0.13333333,0,1056)" />
    <path
       id="path24"
       d="m 3123.13,5991.31 -673.22,418.28"
       style="fill:none;stroke:#b3b3b3;stroke-width:15.9343;stroke-linecap:butt;stroke-linejoin:miter;stroke-miterlimit:10;stroke-dasharray:none;stroke-opacity:1"
       transform="matrix(0.13333333,0,0,-0.13333333,0,1056)" />
    <path
       id="path25"
       d="m 2507.07,6350.63 -57.16,58.96 78.18,-25.13"
       style="fill:none;stroke:#b3b3b3;stroke-width:15.9343;stroke-linecap:butt;stroke-linejoin:miter;stroke-miterlimit:10;stroke-dasharray:none;stroke-opacity:1"
       transform="matrix(0.13333333,0,0,-0.13333333,0,1056)" />
    <path
       id="path26"
       d="m 3123.13,6118.79 -677.21,354.53"
       style="fill:none;stroke:#b3b3b3;stroke-width:15.9343;stroke-linecap:butt;stroke-linejoin:miter;stroke-miterlimit:10;stroke-dasharray:none;stroke-opacity:1"
       transform="matrix(0.13333333,0,0,-0.13333333,0,1056)" />
    <path
       id="path27"
       d="m 2507.27,6418.73 -61.35,54.59 79.82,-19.3"
       style="fill:none;stroke:#b3b3b3;stroke-width:15.9343;stroke-linecap:butt;stroke-linejoin:miter;stroke-miterlimit:10;stroke-dasharray:none;stroke-opacity:1"
       transform="matrix(0.13333333,0,0,-0.13333333,0,1056)" />
    <path
       id="path28"
       d="m 3123.13,6437.47 -677.21,79.67"
       style="fill:none;stroke:#b3b3b3;stroke-width:15.9343;stroke-linecap:butt;stroke-linejoin:miter;stroke-miterlimit:10;stroke-dasharray:none;stroke-opacity:1"
       transform="matrix(0.13333333,0,0,-0.13333333,0,1056)" />
    <path
       id="path29"
       d="m 2522.72,6488.05 -76.8,29.09 81.46,10.48"
       style="fill:none;stroke:#b3b3b3;stroke-width:15.9343;stroke-linecap:butt;stroke-linejoin:miter;stroke-miterlimit:10;stroke-dasharray:none;stroke-opacity:1"
       transform="matrix(0.13333333,0,0,-0.13333333,0,1056)" />
  </g>
</svg>
