<?xml version="1.0" encoding="UTF-8" standalone="no"?>
<!-- Created with Inkscape (http://www.inkscape.org/) -->

<svg
   version="1.1"
   id="svg1"
   width="381.69922"
   height="311.98828"
   viewBox="0 0 381.69922 311.98828"
   xmlns="http://www.w3.org/2000/svg"
   xmlns:svg="http://www.w3.org/2000/svg">
  <defs
     id="defs1" />
  <g
     id="g1"
     transform="translate(-86.515625,-17.402344)">
    <path
       id="path1"
       d="m 3059.39,6564.95 c 0,528.01 -428.04,956.06 -956.06,956.06 -528.01,0 -956.06,-428.05 -956.06,-956.06 0,-528.02 428.05,-956.06 956.06,-956.06 528.02,0 956.06,428.04 956.06,956.06"
       style="fill:none;stroke:#000000;stroke-width:15.9343;stroke-linecap:butt;stroke-linejoin:miter;stroke-miterlimit:10;stroke-dasharray:39.8358, 39.8358, 7.96717, 39.8358;stroke-dashoffset:0;stroke-opacity:1"
       transform="matrix(0.13333333,0,0,-0.13333333,0,1056)" />
    <path
       id="path2"
       d="M 3059.39,6564.95 H 1147.27"
       style="fill:none;stroke:#000000;stroke-width:15.9343;stroke-linecap:butt;stroke-linejoin:miter;stroke-miterlimit:10;stroke-dasharray:31.8687, 31.8687, 31.8687, 31.8687;stroke-dashoffset:0;stroke-opacity:1"
       transform="matrix(0.13333333,0,0,-0.13333333,0,1056)" />
    <path
       id="path3"
       d="m 1083.54,6443.07 h 187.387 v 440.563 H 1083.54 Z"
       style="fill:#ffffff;fill-opacity:1;fill-rule:evenodd;stroke:none"
       transform="matrix(0.13333333,0,0,-0.13333333,0,1056)" />
    <path
       id="path4"
       d="M 1147.27,6437.47 1083.54,6310"
       style="fill:none;stroke:#000000;stroke-width:15.9343;stroke-linecap:butt;stroke-linejoin:miter;stroke-miterlimit:10;stroke-dasharray:none;stroke-opacity:1"
       transform="matrix(0.13333333,0,0,-0.13333333,0,1056)" />
    <path
       id="path5"
       d="m 1147.27,6437.47 127.48,-63.74"
       style="fill:none;stroke:#000000;stroke-width:15.9343;stroke-linecap:butt;stroke-linejoin:miter;stroke-miterlimit:10;stroke-dasharray:none;stroke-opacity:1"
       transform="matrix(0.13333333,0,0,-0.13333333,0,1056)" />
    <path
       id="path6"
       d="m 1211.01,6883.64 63.74,-127.48"
       style="fill:none;stroke:#000000;stroke-width:15.9343;stroke-linecap:butt;stroke-linejoin:miter;stroke-miterlimit:10;stroke-dasharray:none;stroke-opacity:1"
       transform="matrix(0.13333333,0,0,-0.13333333,0,1056)" />
    <path
       id="path7"
       d="M 1211.01,6883.64 1083.54,6819.9"
       style="fill:none;stroke:#000000;stroke-width:15.9343;stroke-linecap:butt;stroke-linejoin:miter;stroke-miterlimit:10;stroke-dasharray:none;stroke-opacity:1"
       transform="matrix(0.13333333,0,0,-0.13333333,0,1056)" />
    <path
       id="path8"
       d="m 2334.21,6065.31 96.29,24.07 -132.4,-337.02 84.26,300.91 -96.29,-24.07 120.36,264.8"
       style="fill:#000000;fill-opacity:1;fill-rule:evenodd;stroke:none"
       transform="matrix(0.13333333,0,0,-0.13333333,0,1056)" />
    <path
       id="path9"
       d="m 2334.21,6065.31 96.29,24.07 -132.4,-337.02 84.26,300.91 -96.29,-24.07 120.36,264.8 z"
       style="fill:none;stroke:#000000;stroke-width:7.96717;stroke-linecap:butt;stroke-linejoin:miter;stroke-miterlimit:10;stroke-dasharray:none;stroke-opacity:1"
       transform="matrix(0.13333333,0,0,-0.13333333,0,1056)" />
    <path
       id="path10"
       d="m 2294.34,7009.5 179,61.91 -179,61.91"
       style="fill:#000000;fill-opacity:1;fill-rule:evenodd;stroke:none"
       transform="matrix(0.13333333,0,0,-0.13333333,0,1056)" />
    <path
       id="path11"
       d="m 1802.09,7050.78 h 537 v 41.2695 h -537 z"
       style="fill:#000000;fill-opacity:1;fill-rule:evenodd;stroke:none"
       transform="matrix(0.13333333,0,0,-0.13333333,0,1056)" />
    <path
       id="path12"
       d="m 1917.35,6738.62 -179,61.91 179,61.91"
       style="fill:#000000;fill-opacity:1;fill-rule:evenodd;stroke:none"
       transform="matrix(0.13333333,0,0,-0.13333333,0,1056)" />
    <path
       id="path13"
       d="m 1872.6,6779.89 h 537 v 41.2734 h -537 z"
       style="fill:#000000;fill-opacity:1;fill-rule:evenodd;stroke:none"
       transform="matrix(0.13333333,0,0,-0.13333333,0,1056)" />
    <g
       id="g13"
       aria-label="Elaboration Cycle&#10;d&#10;Preference Phase&#10;Working Memory&#10;Phase&#10;MATCHFIRE &amp;&#10; RETRACT&#10;DECIDE&#10;p"
       transform="matrix(1.3333333,0,0,1.3333333,85.514,26.856)">
      <path
         id="path14"
         d="M 2.192625,-3.0003984 H 5.5324688 V -4.1957109 H 2.192625 V -5.7777422 H 5.7902813 V -6.9730547 H 0.75121875 V -3.984375e-4 H 5.9660625 V -1.1957109 H 2.192625 Z M 9.4201641,-6.9730547 H 8.0842266 v 6.9726562625 h 1.3359375 z m 6.1347659,6.80859376 c -0.234375,-0.22265625 -0.316407,-0.375 -0.316407,-0.6328125 V -3.6683672 c 0,-1.0429687 -0.714843,-1.5820312 -2.109375,-1.5820312 -1.394531,0 -2.121093,0.5976562 -2.203125,1.7929687 h 1.289063 c 0.07031,-0.5390625 0.28125,-0.7148437 0.949219,-0.7148437 0.515625,0 0.773437,0.1757812 0.773437,0.515625 0,0.1757812 -0.09375,0.3164062 -0.234375,0.4101562 -0.175781,0.09375 -0.175781,0.09375 -0.84375,0.1992188 l -0.527344,0.09375 c -1.03125,0.1757812 -1.523437,0.6914062 -1.523437,1.6289062 0,0.92578126 0.621094,1.54687501 1.570312,1.54687501 0.574219,0 1.089844,-0.24609375 1.558594,-0.73828125 0,0.26953125 0.03516,0.36328125 0.164063,0.5156250025 H 15.55493 Z M 13.937742,-2.0746172 c 0,0.7734375 -0.386719,1.21875001 -1.066406,1.21875001 -0.445313,0 -0.726563,-0.24609371 -0.726563,-0.62109371 0,-0.4101563 0.210938,-0.5976563 0.761719,-0.7148438 l 0.46875,-0.082031 c 0.351563,-0.070312 0.410156,-0.09375 0.5625,-0.1640625 z m 3.366211,-4.8984375 v 6.9726562625 h 1.335938 V -0.52774219 c 0.328125,0.50390625 0.773437,0.75 1.429687,0.75 1.230469,0 2.167969,-1.18359375 2.167969,-2.74218751 0,-0.6914062 -0.210938,-1.40625 -0.550781,-1.8984375 -0.351563,-0.5039062 -0.984375,-0.8320312 -1.617188,-0.8320312 -0.65625,0 -1.101562,0.234375 -1.429687,0.75 v -2.4726563 z m 2.472656,2.8359375 c 0.65625,0 1.125,0.6796875 1.125,1.6289063 0,0.9492187 -0.457031,1.60546871 -1.125,1.60546871 -0.679687,0 -1.136718,-0.63281251 -1.136718,-1.62890621 0,-0.9492188 0.46875,-1.6054688 1.136718,-1.6054688 z m 6.66211,-1.1132812 c -1.582031,0 -2.542969,1.0429687 -2.542969,2.7304687 0,1.71093751 0.960938,2.74218751 2.542969,2.74218751 1.582031,0 2.554687,-1.03125 2.554687,-2.69531251 0,-1.7578125 -0.9375,-2.7773437 -2.554687,-2.7773437 z m 0,1.078125 c 0.738281,0 1.21875,0.6679687 1.21875,1.6757812 0,0.9609375 -0.492188,1.64062501 -1.21875,1.64062501 -0.726563,0 -1.207031,-0.66796871 -1.207031,-1.66406251 0,-0.984375 0.480468,-1.6523437 1.207031,-1.6523437 z m 4.532226,-0.9960938 v 5.1679687625 h 1.347657 V -2.7425859 c 0,-0.7851563 0.386718,-1.1835938 1.171875,-1.1835938 0.140625,0 0.234375,0.011719 0.421875,0.046875 v -1.359375 c -0.08203,-0.011719 -0.105469,-0.011719 -0.164063,-0.011719 -0.609375,0 -1.136719,0.3984375 -1.429687,1.1015625 v -1.0195313 z m 8.756836,5.00390626 c -0.234375,-0.22265625 -0.316406,-0.375 -0.316406,-0.6328125 V -3.6683672 c 0,-1.0429687 -0.714844,-1.5820312 -2.109375,-1.5820312 -1.394531,0 -2.121094,0.5976562 -2.203125,1.7929687 h 1.289063 c 0.07031,-0.5390625 0.28125,-0.7148437 0.949218,-0.7148437 0.515625,0 0.773438,0.1757812 0.773438,0.515625 0,0.1757812 -0.09375,0.3164062 -0.234375,0.4101562 -0.175781,0.09375 -0.175781,0.09375 -0.84375,0.1992188 l -0.527344,0.09375 c -1.03125,0.1757812 -1.523437,0.6914062 -1.523437,1.6289062 0,0.92578126 0.621093,1.54687501 1.570312,1.54687501 0.574219,0 1.089844,-0.24609375 1.558594,-0.73828125 0,0.26953125 0.03516,0.36328125 0.164062,0.5156250025 h 1.453125 z M 38.110594,-2.0746172 c 0,0.7734375 -0.386719,1.21875001 -1.066406,1.21875001 -0.445313,0 -0.726563,-0.24609371 -0.726563,-0.62109371 0,-0.4101563 0.210938,-0.5976563 0.761719,-0.7148438 l 0.46875,-0.082031 c 0.351562,-0.070312 0.410156,-0.09375 0.5625,-0.1640625 z m 5.686523,-2.9882812 h -0.75 V -6.4457109 H 41.71118 v 1.3828125 h -0.667969 v 0.890625 h 0.667969 v 3.17578121 c 0,0.80859375 0.421875,1.21875 1.3125,1.21875 0.304687,0 0.515625,-0.0351563 0.773437,-0.10546875 v -0.9375 c -0.140625,0.0117188 -0.210937,0.0234375 -0.304687,0.0234375 -0.363282,0 -0.445313,-0.10546875 -0.445313,-0.56249996 v -2.8125 h 0.75 z m 2.809571,-0.1054688 H 45.27075 v 5.1679687625 h 1.335938 z m 0,-1.8046875 H 45.27075 v 1.1953125 h 1.335938 z m 4.004882,1.7226563 c -1.582031,0 -2.542968,1.0429687 -2.542968,2.7304687 0,1.71093751 0.960937,2.74218751 2.542968,2.74218751 1.582032,0 2.554688,-1.03125 2.554688,-2.69531251 0,-1.7578125 -0.9375,-2.7773437 -2.554688,-2.7773437 z m 0,1.078125 c 0.738282,0 1.21875,0.6679687 1.21875,1.6757812 0,0.9609375 -0.492187,1.64062501 -1.21875,1.64062501 -0.726562,0 -1.207031,-0.66796871 -1.207031,-1.66406251 0,-0.984375 0.480469,-1.6523437 1.207031,-1.6523437 z m 4.529297,-0.9960938 v 5.1679687625 h 1.347656 V -3.0941484 c 0,-0.6210938 0.421875,-1.0195313 1.078125,-1.0195313 0.574219,0 0.855469,0.3164063 0.855469,0.9257813 v 3.1874999625 h 1.347656 V -3.4574297 c 0,-1.1484375 -0.632812,-1.7929687 -1.734375,-1.7929687 -0.703125,0 -1.171875,0.2460937 -1.546875,0.8320312 v -0.75 z m 15.84668,0.5625 c -0.05859,-0.609375 -0.175781,-0.984375 -0.46875,-1.3828125 -0.539063,-0.703125 -1.40625,-1.1015625 -2.449219,-1.1015625 -1.96875,0 -3.1875,1.40625 -3.1875,3.6679688 0,2.25 1.21875,3.64453121 3.152344,3.64453121 1.746094,0 2.894531,-1.0078125 2.976562,-2.60156251 h -1.394531 c -0.09375,0.890625 -0.65625,1.39453126 -1.546875,1.39453126 -1.101562,0 -1.757812,-0.90234376 -1.757812,-2.41406246 0,-1.546875 0.679687,-2.4609375 1.816406,-2.4609375 0.832031,0 1.300781,0.3984375 1.488281,1.2539062 z m 5.296875,-0.5625 -1.078125,3.7617188 -1.136719,-3.7617188 h -1.476562 l 1.921875,5.37890626 c 0,0.5390625 -0.328125,0.90234374 -0.832032,0.90234374 -0.105468,0 -0.1875,-0.023437 -0.351562,-0.058594 v 0.9960937 c 0.199219,0.035156 0.316406,0.046875 0.480469,0.046875 0.339843,0 0.726562,-0.070312 0.960937,-0.1640625 0.375,-0.1523437 0.539063,-0.3632812 0.761719,-0.98437499 l 2.121094,-6.11718751 z m 7.420898,1.9335938 c -0.09375,-1.265625 -0.925781,-2.015625 -2.226562,-2.015625 -1.546875,0 -2.4375,1.0195312 -2.4375,2.7773437 0,1.69921876 0.890625,2.69531251 2.414062,2.69531251 1.253907,0 2.121094,-0.7734375 2.25,-2.01562501 h -1.277343 c -0.164063,0.6796875 -0.433594,0.93750001 -0.972657,0.93750001 -0.679687,0 -1.078125,-0.60937501 -1.078125,-1.61718751 0,-0.5039062 0.09375,-0.9492187 0.257813,-1.2539062 0.152344,-0.2929688 0.445312,-0.4453125 0.832031,-0.4453125 0.550781,0 0.808594,0.2578125 0.960938,0.9375 z m 3.19043,-3.7382813 h -1.335937 v 6.9726562625 h 1.335937 z m 6.134766,4.8164063 c 0,-0.1171875 0,-0.1640625 0,-0.234375 0,-0.515625 -0.07031,-0.9960938 -0.199219,-1.359375 -0.339844,-0.9375 -1.171875,-1.5 -2.214844,-1.5 -1.488281,0 -2.390625,1.0664062 -2.390625,2.8007812 0,1.65234376 0.902344,2.67187501 2.367188,2.67187501 1.148437,0 2.085937,-0.65625 2.390625,-1.67578121 h -1.324219 c -0.164063,0.4101562 -0.539063,0.64453121 -1.019531,0.64453121 -0.386719,0 -0.691407,-0.15234375 -0.878907,-0.44531251 -0.128906,-0.1875 -0.175781,-0.421875 -0.199218,-0.9023437 z m -3.445313,-0.890625 c 0.08203,-0.796875 0.421875,-1.1835938 1.007813,-1.1835938 0.621093,0 0.984375,0.4101563 1.042968,1.1835938 z M 166.88501,140.52499 h 1.34765 v -6.97265 h -1.34765 v 2.47265 c -0.32813,-0.51562 -0.77344,-0.75 -1.41797,-0.75 -1.23047,0 -2.16797,1.1836 -2.16797,2.74219 0,0.70312 0.21094,1.40625 0.55078,1.91016 0.35156,0.5039 0.98438,0.82031 1.61719,0.82031 0.64453,0 1.08984,-0.23438 1.41797,-0.75 z m -1.125,-4.13672 c 0.67969,0 1.125,0.65625 1.125,1.65235 0,0.9375 -0.45703,1.58203 -1.125,1.58203 -0.66797,0 -1.125,-0.65625 -1.125,-1.60547 0,-0.96094 0.45703,-1.62891 1.125,-1.62891 z M 104.5354,43.816008 h 1.79297 c 1.27734,0 2.10937,-0.914063 2.10937,-2.320313 0,-1.40625 -0.79687,-2.167968 -2.25,-2.167968 h -3.08203 v 6.972656 h 1.42969 z m 0,-1.195313 v -2.097656 h 1.34765 c 0.76172,0 1.11329,0.339844 1.11329,1.042969 0,0.714844 -0.35157,1.054687 -1.11329,1.054687 z m 4.8164,-1.488281 v 5.167969 h 1.34766 v -2.742188 c 0,-0.785156 0.38672,-1.183593 1.17188,-1.183593 0.14062,0 0.23437,0.01172 0.42187,0.04687 v -1.359375 c -0.082,-0.01172 -0.10547,-0.01172 -0.16406,-0.01172 -0.60938,0 -1.13672,0.398437 -1.42969,1.101562 v -1.019531 z m 8.13868,3.011719 c 0,-0.117188 0,-0.164063 0,-0.234375 0,-0.515625 -0.0703,-0.996094 -0.19922,-1.359375 -0.33985,-0.9375 -1.17188,-1.5 -2.21485,-1.5 -1.48828,0 -2.39062,1.066406 -2.39062,2.800781 0,1.652344 0.90234,2.671875 2.36719,2.671875 1.14843,0 2.08593,-0.65625 2.39062,-1.675781 h -1.32422 c -0.16406,0.410156 -0.53906,0.644531 -1.01953,0.644531 -0.38672,0 -0.6914,-0.152344 -0.8789,-0.445312 -0.12891,-0.1875 -0.17579,-0.421875 -0.19922,-0.902344 z m -3.44532,-0.890625 c 0.082,-0.796875 0.42188,-1.183594 1.00782,-1.183594 0.62109,0 0.98437,0.410156 1.04297,1.183594 z m 6.73243,-2.015625 h -0.78516 v -0.503906 c 0,-0.269532 0.10547,-0.398438 0.36328,-0.398438 0.11719,0 0.24609,0.01172 0.375,0.02344 v -0.996094 c -0.28125,-0.02344 -0.5625,-0.03516 -0.76172,-0.03516 -0.89062,0 -1.32422,0.421875 -1.32422,1.289062 v 0.621094 h -0.72656 v 0.890625 h 0.72656 v 4.171875 h 1.34766 v -4.171875 h 0.78516 z m 5.21191,2.90625 c 0,-0.117188 0,-0.164063 0,-0.234375 0,-0.515625 -0.0703,-0.996094 -0.19922,-1.359375 -0.33984,-0.9375 -1.17187,-1.5 -2.21484,-1.5 -1.48828,0 -2.39063,1.066406 -2.39063,2.800781 0,1.652344 0.90235,2.671875 2.36719,2.671875 1.14844,0 2.08594,-0.65625 2.39063,-1.675781 h -1.32422 c -0.16407,0.410156 -0.53907,0.644531 -1.01953,0.644531 -0.38672,0 -0.69141,-0.152344 -0.87891,-0.445312 -0.12891,-0.1875 -0.17578,-0.421875 -0.19922,-0.902344 z m -3.44531,-0.890625 c 0.082,-0.796875 0.42187,-1.183594 1.00781,-1.183594 0.62109,0 0.98438,0.410156 1.04297,1.183594 z m 4.34179,-2.121094 v 5.167969 h 1.34766 v -2.742188 c 0,-0.785156 0.38672,-1.183593 1.17188,-1.183593 0.14062,0 0.23437,0.01172 0.42187,0.04687 v -1.359375 c -0.082,-0.01172 -0.10547,-0.01172 -0.16406,-0.01172 -0.60938,0 -1.13672,0.398437 -1.42969,1.101562 v -1.019531 z m 8.13868,3.011719 c 0,-0.117188 0,-0.164063 0,-0.234375 0,-0.515625 -0.0703,-0.996094 -0.19922,-1.359375 -0.33985,-0.9375 -1.17188,-1.5 -2.21485,-1.5 -1.48828,0 -2.39062,1.066406 -2.39062,2.800781 0,1.652344 0.90234,2.671875 2.36719,2.671875 1.14843,0 2.08593,-0.65625 2.39062,-1.675781 h -1.32422 c -0.16406,0.410156 -0.53906,0.644531 -1.01953,0.644531 -0.38672,0 -0.6914,-0.152344 -0.8789,-0.445312 -0.12891,-0.1875 -0.17579,-0.421875 -0.19922,-0.902344 z m -3.44532,-0.890625 c 0.082,-0.796875 0.42188,-1.183594 1.00782,-1.183594 0.62109,0 0.98437,0.410156 1.04297,1.183594 z m 4.3418,-2.121094 v 5.167969 h 1.34766 v -3.09375 c 0,-0.621094 0.42187,-1.019531 1.07812,-1.019531 0.57422,0 0.85547,0.316406 0.85547,0.925781 v 3.1875 h 1.34766 v -3.457031 c 0,-1.148438 -0.63282,-1.792969 -1.73438,-1.792969 -0.70312,0 -1.17187,0.246094 -1.54687,0.832031 v -0.75 z m 10.23633,1.933594 c -0.0937,-1.265625 -0.92578,-2.015625 -2.22656,-2.015625 -1.54688,0 -2.4375,1.019531 -2.4375,2.777344 0,1.699218 0.89062,2.695312 2.41406,2.695312 1.25391,0 2.12109,-0.773437 2.25,-2.015625 h -1.27734 c -0.16407,0.679688 -0.4336,0.9375 -0.97266,0.9375 -0.67969,0 -1.07813,-0.609375 -1.07813,-1.617187 0,-0.503907 0.0937,-0.949219 0.25782,-1.253907 0.15234,-0.292968 0.44531,-0.445312 0.83203,-0.445312 0.55078,0 0.80859,0.257812 0.96094,0.9375 z m 5.33789,1.078125 c 0,-0.117188 0,-0.164063 0,-0.234375 0,-0.515625 -0.0703,-0.996094 -0.19922,-1.359375 -0.33984,-0.9375 -1.17187,-1.5 -2.21484,-1.5 -1.48828,0 -2.39063,1.066406 -2.39063,2.800781 0,1.652344 0.90235,2.671875 2.36719,2.671875 1.14844,0 2.08594,-0.65625 2.39062,-1.675781 h -1.32421 c -0.16407,0.410156 -0.53907,0.644531 -1.01954,0.644531 -0.38671,0 -0.6914,-0.152344 -0.8789,-0.445312 -0.12891,-0.1875 -0.17578,-0.421875 -0.19922,-0.902344 z m -3.44531,-0.890625 c 0.082,-0.796875 0.42187,-1.183594 1.00781,-1.183594 0.62109,0 0.98437,0.410156 1.04297,1.183594 z m 8.56054,0.5625 h 1.79297 c 1.27735,0 2.10938,-0.914063 2.10938,-2.320313 0,-1.40625 -0.79688,-2.167968 -2.25,-2.167968 h -3.08203 v 6.972656 h 1.42968 z m 0,-1.195313 v -2.097656 h 1.34766 c 0.76172,0 1.11328,0.339844 1.11328,1.042969 0,0.714844 -0.35156,1.054687 -1.11328,1.054687 z m 4.86621,-3.292968 v 6.972656 h 1.33594 v -3.09375 c 0,-0.597656 0.4336,-1.019531 1.03125,-1.019531 0.29297,0 0.51563,0.105468 0.66797,0.316406 0.12891,0.175781 0.15234,0.316406 0.15234,0.644531 v 3.152344 h 1.33594 v -3.457031 c 0,-0.644532 -0.16406,-1.101563 -0.51562,-1.40625 -0.30469,-0.246094 -0.72657,-0.386719 -1.16016,-0.386719 -0.65625,0 -1.13672,0.257812 -1.51172,0.832031 v -2.554687 z m 10.2129,6.808593 c -0.23438,-0.222656 -0.31641,-0.375 -0.31641,-0.632812 v -2.871094 c 0,-1.042969 -0.71484,-1.582031 -2.10938,-1.582031 -1.39453,0 -2.12109,0.597656 -2.20312,1.792969 h 1.28906 c 0.0703,-0.539063 0.28125,-0.714844 0.94922,-0.714844 0.51563,0 0.77344,0.175781 0.77344,0.515625 0,0.175781 -0.0937,0.316406 -0.23438,0.410156 -0.17578,0.09375 -0.17578,0.09375 -0.84375,0.199219 l -0.52734,0.09375 c -1.03125,0.175781 -1.52344,0.691406 -1.52344,1.628906 0,0.925781 0.6211,1.546875 1.57031,1.546875 0.57422,0 1.08985,-0.246094 1.5586,-0.738281 0,0.269531 0.0352,0.363281 0.16406,0.515625 h 1.45313 z m -1.61719,-1.910156 c 0,0.773438 -0.38672,1.21875 -1.06641,1.21875 -0.44531,0 -0.72656,-0.246094 -0.72656,-0.621094 0,-0.410156 0.21094,-0.597656 0.76172,-0.714843 l 0.46875,-0.08203 c 0.35156,-0.07031 0.41015,-0.09375 0.5625,-0.164062 z m 6.74414,-1.429687 c -0.0234,-1.089844 -0.85547,-1.746094 -2.25,-1.746094 -1.30078,0 -2.1211,0.65625 -2.1211,1.722656 0,0.339844 0.10547,0.644531 0.29297,0.84375 0.17578,0.175781 0.33985,0.269531 0.83203,0.421875 l 1.60547,0.503906 c 0.32813,0.105469 0.44532,0.210938 0.44532,0.421875 0,0.316407 -0.375,0.503907 -0.9961,0.503907 -0.35156,0 -0.62109,-0.05859 -0.79687,-0.175782 -0.14063,-0.105468 -0.19922,-0.210937 -0.25782,-0.492187 h -1.30078 c 0.0352,1.136719 0.86719,1.722656 2.4375,1.722656 0.71485,0 1.25391,-0.152344 1.64063,-0.457031 0.38672,-0.316406 0.60937,-0.785156 0.60937,-1.300781 0,-0.667969 -0.32812,-1.089844 -1.00781,-1.300782 l -1.69922,-0.480468 c -0.36328,-0.117188 -0.46875,-0.1875 -0.46875,-0.398438 0,-0.292969 0.31641,-0.480469 0.78516,-0.480469 0.63281,0 0.94922,0.222657 0.96094,0.691407 z m 5.50195,1.347656 c 0,-0.117188 0,-0.164063 0,-0.234375 0,-0.515625 -0.0703,-0.996094 -0.19922,-1.359375 -0.33984,-0.9375 -1.17187,-1.5 -2.21484,-1.5 -1.48828,0 -2.39063,1.066406 -2.39063,2.800781 0,1.652344 0.90235,2.671875 2.36719,2.671875 1.14844,0 2.08594,-0.65625 2.39063,-1.675781 h -1.32422 c -0.16406,0.410156 -0.53906,0.644531 -1.01953,0.644531 -0.38672,0 -0.69141,-0.152344 -0.87891,-0.445312 -0.12891,-0.1875 -0.17578,-0.421875 -0.19922,-0.902344 z m -3.44531,-0.890625 c 0.082,-0.796875 0.42187,-1.183594 1.00781,-1.183594 0.6211,0 0.98438,0.410156 1.04297,1.183594 z m -95.006837,111.401362 1.933594,-6.97265 h -1.523438 l -1.042968,5.22656 -1.125,-5.22656 h -1.417969 l -1.078125,5.22656 -1.089844,-5.22656 h -1.511719 l 1.96875,6.97265 h 1.289063 l 1.136719,-5.4375 1.171875,5.4375 z m 4.924805,-5.25 c -1.582031,0 -2.542969,1.04297 -2.542969,2.73047 0,1.71094 0.960938,2.74219 2.542969,2.74219 1.582031,0 2.554687,-1.03125 2.554687,-2.69531 0,-1.75781 -0.9375,-2.77735 -2.554687,-2.77735 z m 0,1.07813 c 0.738281,0 1.21875,0.66797 1.21875,1.67578 0,0.96094 -0.492188,1.64063 -1.21875,1.64063 -0.726563,0 -1.207031,-0.66797 -1.207031,-1.66407 0,-0.98437 0.480468,-1.65234 1.207031,-1.65234 z m 3.55664,-0.99609 v 5.16796 h 1.347657 v -2.74218 c 0,-0.78516 0.386718,-1.1836 1.171875,-1.1836 0.140625,0 0.234375,0.0117 0.421875,0.0469 v -1.35938 c -0.08203,-0.0117 -0.105469,-0.0117 -0.164063,-0.0117 -0.609375,0 -1.136719,0.39844 -1.429687,1.10157 v -1.01953 z m 5.018555,2.01562 v -3.82031 h -1.335937 v 6.97265 h 1.335937 v -1.6875 l 0.539063,-0.58593 1.230468,2.27343 h 1.570316 l -1.886722,-3.21093 1.769532,-1.95703 h -1.523438 z m 5.399417,-2.01562 h -1.33594 v 5.16796 h 1.33594 z m 0,-1.80469 h -1.33594 v 1.19531 h 1.33594 z m 1.27441,1.80469 v 5.16796 h 1.34766 v -3.09375 c 0,-0.62109 0.42187,-1.01953 1.07812,-1.01953 0.57422,0 0.85547,0.31641 0.85547,0.92578 v 3.1875 h 1.34766 v -3.45703 c 0,-1.14843 -0.63281,-1.79297 -1.73438,-1.79297 -0.70312,0 -1.17187,0.2461 -1.54687,0.83204 v -0.75 z m 9.06445,0 v 0.79687 c -0.36328,-0.59766 -0.78515,-0.87891 -1.32421,-0.87891 -0.45704,0 -0.96094,0.23438 -1.32422,0.59766 -0.51563,0.53906 -0.78516,1.28906 -0.78516,2.19141 0,1.59375 0.84375,2.68359 2.08594,2.68359 0.55078,0 0.8789,-0.1875 1.34765,-0.75 v 0.70313 c 0,0.62109 -0.43359,1.04296 -1.0664,1.04296 -0.48047,0 -0.77344,-0.21093 -0.87891,-0.59765 h -1.38281 c 0.0117,0.39844 0.15234,0.67969 0.51562,0.96094 0.41016,0.33984 0.97266,0.5039 1.69922,0.5039 1.48828,0 2.39063,-0.71484 2.39063,-1.91015 v -5.34375 z m -1.07812,1.03125 c 0.63281,0 1.10156,0.70312 1.10156,1.66406 0,0.9375 -0.44531,1.57031 -1.11328,1.57031 -0.58594,0 -0.99609,-0.63281 -0.99609,-1.57031 0,-0.98438 0.41015,-1.66406 1.00781,-1.66406 z m 7.81934,-1.28907 1.2539,5.42578 h 1.44141 l 1.23047,-5.42578 v 5.42578 h 1.42968 v -6.97265 h -2.15625 l -1.23046,5.54297 -1.25391,-5.54297 h -2.14453 v 6.97265 h 1.42969 z m 10.91601,3.26953 c 0,-0.11718 0,-0.16406 0,-0.23437 0,-0.51563 -0.0703,-0.99609 -0.19922,-1.35938 -0.33984,-0.9375 -1.17187,-1.5 -2.21484,-1.5 -1.48828,0 -2.39063,1.06641 -2.39063,2.80079 0,1.65234 0.90235,2.67187 2.36719,2.67187 1.14844,0 2.08594,-0.65625 2.39063,-1.67578 h -1.32422 c -0.16407,0.41016 -0.53907,0.64453 -1.01953,0.64453 -0.38672,0 -0.69141,-0.15234 -0.87891,-0.44531 -0.12891,-0.1875 -0.17578,-0.42188 -0.19922,-0.90235 z m -3.44531,-0.89062 c 0.082,-0.79688 0.42187,-1.18359 1.00781,-1.18359 0.62109,0 0.98438,0.41015 1.04297,1.18359 z m 4.32129,-2.12109 v 5.16796 h 1.33594 v -3.09375 c 0,-0.64453 0.35156,-1.01953 0.92578,-1.01953 0.44531,0 0.72656,0.25782 0.72656,0.66797 v 3.44531 h 1.33594 v -3.09375 c 0,-0.63281 0.33984,-1.01953 0.91406,-1.01953 0.44531,0 0.72656,0.25782 0.72656,0.66797 v 3.44531 h 1.33594 v -3.65625 c 0,-0.99609 -0.60938,-1.59375 -1.64063,-1.59375 -0.65625,0 -1.11328,0.23438 -1.51171,0.76172 -0.2461,-0.48047 -0.76172,-0.76172 -1.40625,-0.76172 -0.58594,0 -0.97266,0.1875 -1.41797,0.72657 v -0.64453 z m 10.80761,-0.082 c -1.58203,0 -2.54296,1.04297 -2.54296,2.73047 0,1.71094 0.96093,2.74219 2.54296,2.74219 1.58204,0 2.55469,-1.03125 2.55469,-2.69531 0,-1.75781 -0.9375,-2.77735 -2.55469,-2.77735 z m 0,1.07813 c 0.73829,0 1.21875,0.66797 1.21875,1.67578 0,0.96094 -0.49218,1.64063 -1.21875,1.64063 -0.72656,0 -1.20703,-0.66797 -1.20703,-1.66407 0,-0.98437 0.48047,-1.65234 1.20703,-1.65234 z m 3.55665,-0.99609 v 5.16796 h 1.34765 v -2.74218 c 0,-0.78516 0.38672,-1.1836 1.17188,-1.1836 0.14062,0 0.23437,0.0117 0.42187,0.0469 v -1.35938 c -0.082,-0.0117 -0.10547,-0.0117 -0.16406,-0.0117 -0.60938,0 -1.13672,0.39844 -1.42969,1.10157 v -1.01953 z m 6.89355,0 -1.07812,3.76171 -1.13672,-3.76171 h -1.47657 l 1.92188,5.3789 c 0,0.53906 -0.32813,0.90235 -0.83203,0.90235 -0.10547,0 -0.1875,-0.0234 -0.35156,-0.0586 v 0.9961 c 0.19921,0.0352 0.3164,0.0469 0.48046,0.0469 0.33985,0 0.72657,-0.0703 0.96094,-0.16406 0.375,-0.15235 0.53906,-0.36328 0.76172,-0.98438 l 2.12109,-6.11718 z m -73.857422,12.24316 h 1.792969 c 1.277344,0 2.109375,-0.91406 2.109375,-2.32031 0,-1.40625 -0.796875,-2.16797 -2.25,-2.16797 h -3.082031 v 6.97266 h 1.429687 z m 0,-1.19531 v -2.09766 h 1.347656 c 0.761719,0 1.113282,0.33985 1.113282,1.04297 0,0.71484 -0.351563,1.05469 -1.113282,1.05469 z m 4.866211,-3.29297 v 6.97266 h 1.335938 v -3.09375 c 0,-0.59766 0.433593,-1.01954 1.03125,-1.01954 0.292968,0 0.515625,0.10547 0.667968,0.31641 0.128907,0.17578 0.152344,0.31641 0.152344,0.64453 v 3.15235 h 1.335938 v -3.45704 c 0,-0.64453 -0.164063,-1.10156 -0.515625,-1.40625 -0.304688,-0.24609 -0.726563,-0.38671 -1.160157,-0.38671 -0.65625,0 -1.136718,0.25781 -1.511718,0.83203 v -2.55469 z m 10.212891,6.80859 c -0.234375,-0.22265 -0.316407,-0.375 -0.316407,-0.63281 v -2.87109 c 0,-1.04297 -0.714843,-1.58203 -2.109375,-1.58203 -1.394531,0 -2.121093,0.59765 -2.203125,1.79296 h 1.289063 c 0.07031,-0.53906 0.28125,-0.71484 0.949219,-0.71484 0.515625,0 0.773437,0.17578 0.773437,0.51563 0,0.17578 -0.09375,0.3164 -0.234375,0.41015 -0.175781,0.0937 -0.175781,0.0937 -0.84375,0.19922 l -0.527344,0.0937 c -1.03125,0.17578 -1.523437,0.69141 -1.523437,1.62891 0,0.92578 0.621094,1.54687 1.570312,1.54687 0.574219,0 1.089844,-0.24609 1.558594,-0.73828 0,0.26953 0.03516,0.36328 0.164063,0.51563 h 1.453125 z m -1.617188,-1.91015 c 0,0.77343 -0.386719,1.21875 -1.066406,1.21875 -0.445313,0 -0.726563,-0.2461 -0.726563,-0.6211 0,-0.41015 0.210938,-0.59765 0.761719,-0.71484 l 0.46875,-0.082 c 0.351563,-0.0703 0.410156,-0.0937 0.5625,-0.16406 z m 6.744141,-1.42969 c -0.02344,-1.08984 -0.855469,-1.74609 -2.25,-1.74609 -1.300781,0 -2.121094,0.65625 -2.121094,1.72265 0,0.33985 0.105469,0.64453 0.292969,0.84375 0.175781,0.17578 0.339844,0.26953 0.832031,0.42188 l 1.605469,0.5039 c 0.328125,0.10547 0.445312,0.21094 0.445312,0.42188 0,0.3164 -0.375,0.5039 -0.996093,0.5039 -0.351563,0 -0.621094,-0.0586 -0.796875,-0.17578 -0.140625,-0.10547 -0.199219,-0.21093 -0.257813,-0.49218 h -1.300781 c 0.03516,1.13671 0.867187,1.72265 2.4375,1.72265 0.714844,0 1.253906,-0.15234 1.640625,-0.45703 0.386719,-0.31641 0.609375,-0.78516 0.609375,-1.30078 0,-0.66797 -0.328125,-1.08984 -1.007813,-1.30078 l -1.699218,-0.48047 c -0.363282,-0.11719 -0.46875,-0.1875 -0.46875,-0.39844 0,-0.29297 0.316406,-0.48047 0.785156,-0.48047 0.632812,0 0.949219,0.22266 0.960937,0.69141 z m 5.504887,1.34766 c 0,-0.11719 0,-0.16407 0,-0.23438 0,-0.51562 -0.0703,-0.99609 -0.19922,-1.35937 -0.33985,-0.9375 -1.17188,-1.5 -2.21485,-1.5 -1.48828,0 -2.390622,1.0664 -2.390622,2.80078 0,1.65234 0.902342,2.67187 2.367192,2.67187 1.14843,0 2.08593,-0.65625 2.39062,-1.67578 h -1.32422 c -0.16406,0.41016 -0.53906,0.64453 -1.01953,0.64453 -0.38672,0 -0.69141,-0.15234 -0.87891,-0.44531 -0.1289,-0.1875 -0.17578,-0.42188 -0.19921,-0.90234 z m -3.44532,-0.89063 c 0.082,-0.79687 0.42188,-1.18359 1.00782,-1.18359 0.62109,0 0.98437,0.41015 1.04296,1.18359 z m 0,0"
         style="fill:#000000;fill-opacity:1;fill-rule:nonzero;stroke:none" />
      <path
         id="path15"
         d="m 37.011961,48.178312 3,-6.902343 -1.464844,6.902343 h 1.582031 L 41.851805,40.0455 h -2.4375 L 36.578367,46.291594 36.355711,40.0455 H 33.92993 l -1.722657,8.132812 h 1.582032 l 1.476562,-6.902343 0.07031,6.902343 z m 9.679687,-1.640625 0.210938,1.640625 h 1.699219 L 47.52368,40.0455 h -1.933594 l -4.535156,8.132812 h 1.699218 l 0.914063,-1.640625 z M 46.539305,45.143156 H 44.42993 l 1.722656,-3.152344 z m 8.006836,-3.703125 h 2.367187 L 57.218016,40.0455 h -6.515625 l -0.304688,1.394531 h 2.484375 l -1.441406,6.738281 h 1.675781 z m 9.884765,1.359375 c 0.03516,-0.304687 0.04687,-0.421875 0.04687,-0.550781 0,-1.007813 -0.65625,-1.851563 -1.6875,-2.15625 -0.375,-0.128906 -0.785156,-0.175781 -1.21875,-0.175781 -1.371093,0 -2.566406,0.585937 -3.480468,1.710937 -0.773438,0.984375 -1.265625,2.484375 -1.265625,3.925781 0,1.183594 0.5625,2.167969 1.488281,2.578125 0.457031,0.199219 0.996094,0.304688 1.582031,0.304688 2.027344,0 3.515625,-1.125 4.007813,-3.035156 h -1.59375 c -0.316407,1.03125 -1.113282,1.605468 -2.179688,1.605468 -0.714844,0 -1.277344,-0.316406 -1.476562,-0.808593 -0.117188,-0.269532 -0.164063,-0.609375 -0.164063,-0.960938 0,-0.925781 0.28125,-1.898437 0.785156,-2.683594 0.527344,-0.820312 1.207032,-1.21875 2.109375,-1.21875 0.609375,0 1.054688,0.210938 1.289063,0.597657 0.140625,0.222656 0.1875,0.433593 0.1875,0.867187 z m 5.686524,1.6875 -0.773438,3.691406 h 1.664063 L 72.74243,40.0455 h -1.6875 l -0.644532,3.046875 H 67.199461 L 67.843992,40.0455 h -1.675781 l -1.722656,8.132812 h 1.675781 l 0.773437,-3.691406 z m 162.18457,0.1875 h 3.5625 l 0.29297,-1.394531 h -3.5625 l 0.38672,-1.839844 h 4.04297 l 0.29297,-1.394531 h -5.70704 l -1.73437,8.132812 h 1.67578 z m 7.66992,-4.628906 h -1.66406 l -1.73438,8.132812 h 1.67579 z m 2.24414,4.910156 h 1.92188 c 0.42187,0 0.66797,0.08203 0.82031,0.257813 0.082,0.09375 0.12891,0.222656 0.12891,0.351562 0,0.140625 -0.0234,0.269531 -0.14063,0.679688 -0.21094,0.761718 -0.28125,1.183593 -0.28125,1.476562 0,0.140625 0.0117,0.257813 0.082,0.457031 h 1.78125 l 0.0586,-0.304687 c -0.0937,-0.07031 -0.14063,-0.128906 -0.17578,-0.234375 -0.0117,-0.04687 -0.0234,-0.08203 -0.0234,-0.140625 0,-0.08203 0.0117,-0.175781 0.0352,-0.292969 0.25782,-1.371094 0.31641,-1.757812 0.31641,-2.039062 0,-0.421875 -0.29297,-0.726563 -0.87891,-0.914063 0.59766,-0.292969 0.89063,-0.480469 1.14844,-0.761719 0.44531,-0.445312 0.71485,-1.148437 0.71485,-1.769531 0,-0.421875 -0.17579,-0.867187 -0.48047,-1.160156 C 246.89184,40.197844 246.44653,40.0455 245.802,40.0455 h -4.20703 l -1.73438,8.132812 h 1.67579 z m 0.30469,-1.394531 0.44531,-2.121094 h 1.875 c 0.73828,0 1.08985,0.175781 1.20703,0.585938 0.0117,0.05859 0.0117,0.128906 0.0117,0.199218 0,0.304688 -0.11718,0.65625 -0.32812,0.878907 -0.29297,0.316406 -0.63281,0.457031 -1.19531,0.457031 z m 7.80762,1.113281 h 3.89062 l 0.29297,-1.394531 h -3.89062 l 0.38671,-1.839844 h 4.21875 l 0.29297,-1.394531 h -5.88281 l -1.73437,8.132812 h 6.08203 l 0.30468,-1.394531 h -4.40625 z m 14.00976,-0.65625 c -0.1289,0.65625 -0.26953,0.9375 -0.66797,1.3125 l -0.91406,-1.523437 c 0.59766,-0.363282 0.9375,-0.609375 1.1836,-0.878907 0.36328,-0.421875 0.58593,-0.984375 0.58593,-1.511718 0,-0.785157 -0.6914,-1.300782 -1.71093,-1.300782 -1.19532,0 -2.23829,0.796875 -2.47266,1.898438 -0.0234,0.105469 -0.0352,0.222656 -0.0352,0.328125 0,0.351562 0.1875,0.785156 0.59766,1.359375 -1.125,0.503906 -1.64063,0.902344 -2.02734,1.535156 -0.21094,0.339844 -0.31641,0.761719 -0.31641,1.195313 0,0.9375 0.43359,1.59375 1.24219,1.863281 0.30468,0.08203 0.63281,0.140625 0.96093,0.140625 0.86719,0 1.33594,-0.175781 2.36719,-0.925781 l 0.41016,0.667968 h 1.79297 l -1.05469,-1.78125 c 0.71484,-0.679687 1.16016,-1.488281 1.3125,-2.378906 z m -2.90625,0.597656 1.11328,1.863282 c -0.75,0.515625 -1.08984,0.65625 -1.46484,0.65625 -0.48047,0 -0.90234,-0.363282 -0.98437,-0.878907 -0.0117,-0.05859 -0.0117,-0.105468 -0.0117,-0.164062 0,-0.515625 0.21093,-0.832031 0.77343,-1.148438 z m 0.8086,-1.675781 c -0.36328,-0.621094 -0.39844,-0.714844 -0.39844,-0.925781 0,-0.410156 0.29297,-0.691406 0.71484,-0.691406 0.23438,0 0.39844,0.05859 0.48047,0.175781 0.0586,0.07031 0.0937,0.175781 0.0937,0.28125 0,0.457031 -0.3164,0.855469 -0.89062,1.160156 z m -26.83887,13.168946 h 1.92187 c 0.42188,0 0.66797,0.08203 0.82032,0.257812 0.082,0.09375 0.1289,0.222656 0.1289,0.351563 0,0.140625 -0.0234,0.269531 -0.14062,0.679687 -0.21094,0.761719 -0.28125,1.183594 -0.28125,1.476563 0,0.140625 0.0117,0.257812 0.082,0.457031 h 1.78125 l 0.0586,-0.304688 c -0.0937,-0.07031 -0.14062,-0.128906 -0.17578,-0.234375 -0.0117,-0.04687 -0.0234,-0.08203 -0.0234,-0.140625 0,-0.08203 0.0117,-0.175781 0.0352,-0.292968 0.25781,-1.371094 0.31641,-1.757813 0.31641,-2.039063 0,-0.421875 -0.29297,-0.726562 -0.87891,-0.914062 0.59766,-0.292969 0.89063,-0.480469 1.14844,-0.761719 0.44531,-0.445313 0.71484,-1.148438 0.71484,-1.769531 0,-0.421875 -0.17578,-0.867188 -0.48047,-1.160157 -0.35156,-0.363281 -0.79687,-0.515625 -1.4414,-0.515625 h -4.20703 l -1.73438,8.132813 h 1.67578 z m 0.30469,-1.394532 0.44531,-2.121093 h 1.875 c 0.73828,0 1.08984,0.175781 1.20703,0.585937 0.0117,0.05859 0.0117,0.128906 0.0117,0.199219 0,0.304687 -0.11719,0.65625 -0.32813,0.878906 -0.29296,0.316406 -0.63281,0.457031 -1.19531,0.457031 z m 7.80761,1.113282 h 3.89063 l 0.29297,-1.394532 h -3.89063 l 0.38672,-1.839843 h 4.21875 l 0.29297,-1.394532 h -5.88281 l -1.73438,8.132813 h 6.08203 l 0.30469,-1.394531 h -4.40625 z m 9.86719,-3.234375 h 2.36719 l 0.30469,-1.394532 h -6.51563 l -0.30469,1.394532 h 2.48438 l -1.44141,6.738281 h 1.67578 z m 4.33008,3.515625 h 1.92187 c 0.42188,0 0.66797,0.08203 0.82032,0.257812 0.082,0.09375 0.1289,0.222656 0.1289,0.351563 0,0.140625 -0.0234,0.269531 -0.14062,0.679687 -0.21094,0.761719 -0.28125,1.183594 -0.28125,1.476563 0,0.140625 0.0117,0.257812 0.082,0.457031 h 1.78125 l 0.0586,-0.304688 c -0.0937,-0.07031 -0.14062,-0.128906 -0.17578,-0.234375 -0.0117,-0.04687 -0.0234,-0.08203 -0.0234,-0.140625 0,-0.08203 0.0117,-0.175781 0.0352,-0.292968 0.25781,-1.371094 0.31641,-1.757813 0.31641,-2.039063 0,-0.421875 -0.29297,-0.726562 -0.87891,-0.914062 0.59766,-0.292969 0.89063,-0.480469 1.14844,-0.761719 0.44531,-0.445313 0.71484,-1.148438 0.71484,-1.769531 0,-0.421875 -0.17578,-0.867188 -0.48047,-1.160157 -0.35156,-0.363281 -0.79687,-0.515625 -1.4414,-0.515625 h -4.20703 l -1.73438,8.132813 h 1.67578 z m 0.30469,-1.394532 0.44531,-2.121093 h 1.875 c 0.73828,0 1.08984,0.175781 1.20703,0.585937 0.0117,0.05859 0.0117,0.128906 0.0117,0.199219 0,0.304687 -0.11719,0.65625 -0.32813,0.878906 -0.29296,0.316406 -0.63281,0.457031 -1.19531,0.457031 z m 10.43261,2.976563 0.21094,1.640625 h 1.69922 l -1.07812,-8.132813 h -1.9336 l -4.53515,8.132813 h 1.69921 l 0.91407,-1.640625 z m -0.15234,-1.394531 h -2.10937 l 1.72265,-3.152344 z m 11.07715,-2.34375 c 0.0352,-0.304688 0.0469,-0.421875 0.0469,-0.550782 0,-1.007812 -0.65625,-1.851562 -1.6875,-2.15625 -0.375,-0.128906 -0.78515,-0.175781 -1.21875,-0.175781 -1.37109,0 -2.5664,0.585938 -3.48046,1.710938 -0.77344,0.984375 -1.26563,2.484375 -1.26563,3.925781 0,1.183594 0.5625,2.167969 1.48828,2.578125 0.45703,0.199219 0.9961,0.304687 1.58203,0.304687 2.02735,0 3.51563,-1.125 4.00782,-3.035156 h -1.59375 c -0.31641,1.03125 -1.11329,1.605469 -2.17969,1.605469 -0.71485,0 -1.27735,-0.316406 -1.47656,-0.808594 -0.11719,-0.269531 -0.16407,-0.609375 -0.16407,-0.960937 0,-0.925782 0.28125,-1.898438 0.78516,-2.683594 0.52734,-0.820313 1.20703,-1.21875 2.10937,-1.21875 0.60938,0 1.05469,0.210937 1.28907,0.597656 0.14062,0.222656 0.1875,0.433594 0.1875,0.867188 z m 4.98047,-1.359375 h 2.36719 l 0.30468,-1.394532 h -6.51562 l -0.30469,1.394532 h 2.48438 l -1.44141,6.738281 h 1.67578 z M 134.30688,226.64316 h 3.1875 c 1.61719,0 2.55469,-0.4336 3.36328,-1.5586 0.8086,-1.10156 1.25391,-2.47265 1.25391,-3.78515 0,-1.95704 -0.87891,-2.78907 -2.89453,-2.78907 h -3.17578 z m 1.98047,-1.39454 1.125,-5.34375 h 1.5 c 0.67969,0 1.13672,0.21094 1.33594,0.59766 0.12891,0.26953 0.19922,0.58594 0.19922,0.91406 0,0.87891 -0.29297,2.02735 -0.66797,2.6836 -0.48047,0.83203 -1.03125,1.14843 -2.00391,1.14843 z m 8.51953,-2.10937 h 3.89063 l 0.29297,-1.39453 h -3.89063 l 0.38672,-1.83985 h 4.21875 l 0.29297,-1.39453 h -5.88281 l -1.73438,8.13282 h 6.08203 l 0.30469,-1.39454 h -4.40625 z m 12.9375,-1.875 c 0.0352,-0.30469 0.0469,-0.42188 0.0469,-0.55078 0,-1.00781 -0.65625,-1.85156 -1.6875,-2.15625 -0.375,-0.12891 -0.78516,-0.17578 -1.21875,-0.17578 -1.3711,0 -2.56641,0.58593 -3.48047,1.71093 -0.77344,0.98438 -1.26563,2.48438 -1.26563,3.92579 0,1.18359 0.5625,2.16796 1.48829,2.57812 0.45703,0.19922 0.99609,0.30469 1.58203,0.30469 2.02734,0 3.51562,-1.125 4.00781,-3.03516 h -1.59375 c -0.31641,1.03125 -1.11328,1.60547 -2.17969,1.60547 -0.71484,0 -1.27734,-0.31641 -1.47656,-0.80859 -0.11719,-0.26953 -0.16406,-0.60938 -0.16406,-0.96094 0,-0.92578 0.28125,-1.89844 0.78515,-2.68359 0.52735,-0.82032 1.20703,-1.21875 2.10938,-1.21875 0.60937,0 1.05469,0.21093 1.28906,0.59765 0.14063,0.22266 0.1875,0.4336 0.1875,0.86719 z m 3.3545,-2.75391 h -1.66407 l -1.73437,8.13282 h 1.67578 z m -0.14649,8.13282 h 3.1875 c 1.61719,0 2.55469,-0.4336 3.36328,-1.5586 0.8086,-1.10156 1.25391,-2.47265 1.25391,-3.78515 0,-1.95704 -0.87891,-2.78907 -2.89453,-2.78907 h -3.17578 z m 1.98047,-1.39454 1.125,-5.34375 h 1.5 c 0.67969,0 1.13672,0.21094 1.33594,0.59766 0.1289,0.26953 0.19922,0.58594 0.19922,0.91406 0,0.87891 -0.29297,2.02735 -0.66797,2.6836 -0.48047,0.83203 -1.03125,1.14843 -2.00391,1.14843 z m 8.52246,-2.10937 h 3.89063 l 0.29296,-1.39453 h -3.89062 l 0.38672,-1.83985 h 4.21875 l 0.29297,-1.39453 h -5.88282 l -1.73437,8.13282 h 6.08203 l 0.30469,-1.39454 h -4.40625 z m 0,0"
         style="fill:#000000;fill-opacity:1;fill-rule:nonzero;stroke:none" />
      <path
         id="path16"
         d="m 140.99536,86.056242 h 1.83984 v -5.941406 c 0.96094,1.171875 2.02735,1.699219 3.50391,1.699219 2.96484,0 4.88672,-2.378907 4.88672,-6.023438 0,-3.832031 -1.875,-6.234375 -4.91016,-6.234375 -1.54687,0 -2.78906,0.703125 -3.63281,2.050781 v -1.722656 h -1.6875 z m 5.01562,-14.789062 c 2.00391,0 3.31641,1.757812 3.31641,4.488281 0,2.589844 -1.32422,4.359375 -3.31641,4.359375 -1.93359,0 -3.17578,-1.746094 -3.17578,-4.429688 0,-2.683593 1.24219,-4.417968 3.17578,-4.417968 z m 0,0"
         style="fill:#000000;fill-opacity:1;fill-rule:nonzero;stroke:none" />
    </g>
  </g>
</svg>
