<?xml version="1.0" encoding="UTF-8" standalone="no"?>
<!-- Created with Inkscape (http://www.inkscape.org/) -->

<svg
   version="1.1"
   id="svg1"
   width="728.74835"
   height="357.62759"
   viewBox="0 0 728.74835 357.62759"
   xmlns="http://www.w3.org/2000/svg"
   xmlns:svg="http://www.w3.org/2000/svg">
  <defs
     id="defs1" />
  <g
     id="g1"
     transform="translate(-21.485999,-11.433881)">
    <g
       id="g2">
      <g
         id="g3">
        <path
           id="path3"
           d="M 31.1145,441.4731 H 476.1326"
           style="fill:none;stroke:#000000;stroke-width:1;stroke-linecap:butt;stroke-linejoin:miter;stroke-miterlimit:10;stroke-dasharray:2.8345, 2.8345, 2.8345, 2.8345;stroke-dashoffset:0;stroke-opacity:1"
           transform="matrix(1.3333333,0,0,-1.3333333,-20,717.33333)" />
        <path
           id="path4"
           d="m 359.6548,383.4442 h 34.9917 v -34.9915 h -34.9917 z"
           style="fill:none;stroke:#000000;stroke-width:1;stroke-linecap:butt;stroke-linejoin:miter;stroke-miterlimit:10;stroke-dasharray:none;stroke-opacity:1"
           transform="matrix(1.3333333,0,0,-1.3333333,-20,717.33333)" />
        <path
           id="path5"
           d="m 272.1759,383.4442 h 34.9915 v -34.9915 h -34.9915 z"
           style="fill:none;stroke:#000000;stroke-width:1;stroke-linecap:butt;stroke-linejoin:miter;stroke-miterlimit:10;stroke-dasharray:none;stroke-opacity:1"
           transform="matrix(1.3333333,0,0,-1.3333333,-20,717.33333)" />
        <path
           id="path6"
           d="m 125.5512,350.4634 c -8.536,0 -15.4637,6.9277 -15.4637,15.4638 0,8.536 6.9277,15.4637 15.4637,15.4637 8.5361,0 15.4638,-6.9277 15.4638,-15.4637 0,-8.5361 -6.9277,-15.4638 -15.4638,-15.4638 z"
           style="fill:none;stroke:#000000;stroke-width:1;stroke-linecap:butt;stroke-linejoin:miter;stroke-miterlimit:10;stroke-dasharray:none;stroke-opacity:1"
           transform="matrix(1.3333333,0,0,-1.3333333,-20,717.33333)" />
        <path
           id="path7"
           d="m 219.746,365.9272 c 0,-8.5361 -6.9278,-15.4638 -15.4639,-15.4638 -8.536,0 -15.4637,6.9277 -15.4637,15.4638 0,8.536 6.9277,15.4637 15.4637,15.4637 8.5361,0 15.4639,-6.9277 15.4639,-15.4637 z"
           style="fill:none;stroke:#000000;stroke-width:1;stroke-linecap:butt;stroke-linejoin:miter;stroke-miterlimit:10;stroke-dasharray:none;stroke-opacity:1"
           transform="matrix(1.3333333,0,0,-1.3333333,-20,717.33333)" />
        <path
           id="path8"
           d="m 126.3787,382.1114 -7.0259,5.7481 4.8528,3.0653 z"
           style="fill:#000000;fill-opacity:1;fill-rule:nonzero;stroke:none"
           transform="matrix(1.3333333,0,0,-1.3333333,-20,717.33333)" />
        <path
           id="path9"
           d="M 79.7221,455.9829 121.781,389.3922"
           style="fill:none;stroke:#000000;stroke-width:1;stroke-linecap:butt;stroke-linejoin:miter;stroke-miterlimit:10;stroke-dasharray:none;stroke-opacity:1"
           transform="matrix(1.3333333,0,0,-1.3333333,-20,717.33333)" />
        <path
           id="path10"
           d="m 129.2925,383.0827 -0.441,9.0647 5.5278,-1.5464 z"
           style="fill:#000000;fill-opacity:1;fill-rule:nonzero;stroke:none"
           transform="matrix(1.3333333,0,0,-1.3333333,-20,717.33333)" />
        <path
           id="path11"
           d="M 149.7053,455.9829 131.6137,391.376"
           style="fill:none;stroke:#000000;stroke-width:1;stroke-linecap:butt;stroke-linejoin:miter;stroke-miterlimit:10;stroke-dasharray:none;stroke-opacity:1"
           transform="matrix(1.3333333,0,0,-1.3333333,-20,717.33333)" />
        <path
           id="path12"
           d="m 131.2383,380.169 5.0249,7.5562 3.5301,-4.5254 z"
           style="fill:#000000;fill-opacity:1;fill-rule:nonzero;stroke:none"
           transform="matrix(1.3333333,0,0,-1.3333333,-20,717.33333)" />
        <path
           id="path13"
           d="M 228.4364,455.9829 138.0265,385.4625"
           style="fill:none;stroke:#000000;stroke-width:1;stroke-linecap:butt;stroke-linejoin:miter;stroke-miterlimit:10;stroke-dasharray:none;stroke-opacity:1"
           transform="matrix(1.3333333,0,0,-1.3333333,-20,717.33333)" />
        <path
           id="path14"
           d="m 184.697,365.9485 -8.6103,-2.8724 v 5.7413 z"
           style="fill:#000000;fill-opacity:1;fill-rule:nonzero;stroke:none"
           transform="matrix(1.3333333,0,0,-1.3333333,-20,717.33333)" />
        <path
           id="path15"
           d="m 140.9574,365.9485 h 35.1293"
           style="fill:none;stroke:#000000;stroke-width:1;stroke-linecap:butt;stroke-linejoin:miter;stroke-miterlimit:10;stroke-dasharray:none;stroke-opacity:1"
           transform="matrix(1.3333333,0,0,-1.3333333,-20,717.33333)" />
        <path
           id="path16"
           d="m 272.1759,365.9485 -8.6102,-2.8724 v 5.7413 z"
           style="fill:#000000;fill-opacity:1;fill-rule:nonzero;stroke:none"
           transform="matrix(1.3333333,0,0,-1.3333333,-20,717.33333)" />
        <path
           id="path17"
           d="m 219.6885,365.9485 h 43.8772"
           style="fill:none;stroke:#000000;stroke-width:1;stroke-linecap:butt;stroke-linejoin:miter;stroke-miterlimit:10;stroke-dasharray:none;stroke-opacity:1"
           transform="matrix(1.3333333,0,0,-1.3333333,-20,717.33333)" />
        <path
           id="path18"
           d="m 359.6548,365.9485 -8.6101,-2.8724 v 5.7413 z"
           style="fill:#000000;fill-opacity:1;fill-rule:nonzero;stroke:none"
           transform="matrix(1.3333333,0,0,-1.3333333,-20,717.33333)" />
        <path
           id="path19"
           d="m 307.1674,365.9485 h 43.8773"
           style="fill:none;stroke:#000000;stroke-width:1;stroke-linecap:butt;stroke-linejoin:miter;stroke-miterlimit:10;stroke-dasharray:none;stroke-opacity:1"
           transform="matrix(1.3333333,0,0,-1.3333333,-20,717.33333)" />
        <path
           id="path20"
           d="m 359.6548,359.7561 -6.0788,-6.74 -2.8275,4.9938 z"
           style="fill:#000000;fill-opacity:1;fill-rule:nonzero;stroke:none"
           transform="matrix(1.3333333,0,0,-1.3333333,-20,717.33333)" />
        <path
           id="path21"
           d="M 220.6597,281.025 352.164,355.513"
           style="fill:none;stroke:#000000;stroke-width:1;stroke-linecap:butt;stroke-linejoin:miter;stroke-miterlimit:10;stroke-dasharray:none;stroke-opacity:1"
           transform="matrix(1.3333333,0,0,-1.3333333,-20,717.33333)" />
        <path
           id="path22"
           d="m 92.9017,471.4849 c 0,-8.536 -6.9278,-15.4637 -15.4637,-15.4637 -8.5361,0 -15.4639,6.9277 -15.4639,15.4637 0,8.5361 6.9278,15.4638 15.4639,15.4638 8.5359,0 15.4637,-6.9277 15.4637,-15.4638 z"
           style="fill:none;stroke:#000000;stroke-width:1;stroke-linecap:butt;stroke-linejoin:miter;stroke-miterlimit:10;stroke-dasharray:5.6691, 2.8345, 5.6691, 2.8345;stroke-dashoffset:0;stroke-opacity:1"
           transform="matrix(1.3333333,0,0,-1.3333333,-20,717.33333)" />
        <g
           id="g22">
          <g
             id="g23" />
          <path
             id="path23"
             d="m 11.718959,-0.42252031 c -0.75,0 -0.9375,-0.24609375 -1.8515621,-2.36718749 L 6.0705219,-11.731114 H 5.5900531 L 1.8166156,-2.4147078 C 1.1720844,-0.82095781 0.97286563,-0.57486406 0.15255313,-0.42252031 V -6.453125e-4 H 3.6095844 V -0.42252031 c -1.0195313,-0.0703125 -1.3945313,-0.2578125 -1.3945313,-0.70312499 0,-0.2226563 0.1171875,-0.6210938 0.4921875,-1.546875 l 0.2460938,-0.6796875 h 3.8320312 c 0.5742188,1.3476562 0.7851563,1.9453125 0.7851563,2.3085937 0,0.37500004 -0.2226563,0.52734379 -0.8203125,0.56250004 -0.082031,0.0234375 -0.3046875,0.0351563 -0.5390625,0.0585938 V -6.453125e-4 H 11.718959 Z M 3.2111469,-4.0084578 4.8166156,-8.1451766 6.5275531,-4.0084578 Z m 0,0"
             style="fill:#000000;fill-opacity:1;fill-rule:nonzero;stroke:none"
             aria-label="A"
             transform="matrix(1.3333333,0,0,1.3333333,74.632533,97.692267)" />
          <g
             id="g24" />
        </g>
        <path
           id="path24"
           d="m 170.7578,471.4849 c 0,-8.536 -6.9277,-15.4637 -15.4637,-15.4637 -8.5361,0 -15.4638,6.9277 -15.4638,15.4637 0,8.5361 6.9277,15.4638 15.4638,15.4638 8.536,0 15.4637,-6.9277 15.4637,-15.4638 z"
           style="fill:none;stroke:#000000;stroke-width:1;stroke-linecap:butt;stroke-linejoin:miter;stroke-miterlimit:10;stroke-dasharray:none;stroke-opacity:1"
           transform="matrix(1.3333333,0,0,-1.3333333,-20,717.33333)" />
        <g
           id="g25">
          <g
             id="g26" />
          <path
             id="path26"
             d="M 0.26833281,0.00137031 H 5.7409891 c 2.8828125,0 4.7812499,-1.27734371 4.7812499,-3.19921871 0,-0.7851563 -0.316406,-1.4648438 -0.9140624,-1.9921875 -0.5976563,-0.5039063 -1.171875,-0.7617188 -2.3671875,-1.0195313 1.96875,-0.5742187 2.7070312,-1.265625 2.7070312,-2.5664062 0,-1.7460936 -1.5703125,-2.7187496 -4.4179687,-2.7187496 H 0.26833281 v 0.421875 c 1.13671879,0.05859 1.46484379,0.316406 1.49999999,1.2070308 v 8.2382813 c -0.035156,0.87890621 -0.2929687,1.10156246 -1.49999999,1.20703121 z M 4.4870828,-5.8345672 h 0.515625 c 1.7460938,0 2.6015625,0.9257813 2.6015625,2.7890625 0,1.6523438 -0.703125,2.50781251 -2.0742187,2.50781251 -0.75,0 -1.0429688,-0.29296875 -1.0429688,-1.04296871 z m 0,-4.3124998 c 0,-0.609375 0.234375,-0.832031 0.9140625,-0.832031 1.1953125,0 1.734375,0.726562 1.734375,2.3203121 0,1.7929687 -0.5507812,2.2617187 -2.6484375,2.3203125 z m 0,0"
             style="fill:#000000;fill-opacity:1;fill-rule:nonzero;stroke:none"
             aria-label="B"
             transform="matrix(1.3333333,0,0,1.3333333,179.60707,96.994267)" />
          <g
             id="g27" />
        </g>
        <path
           id="path27"
           d="m 225.8292,490.9745 h 34.9916 v -34.9916 h -34.9916 z"
           style="fill:none;stroke:#000000;stroke-width:1;stroke-linecap:butt;stroke-linejoin:miter;stroke-miterlimit:10;stroke-dasharray:none;stroke-opacity:1"
           transform="matrix(1.3333333,0,0,-1.3333333,-20,717.33333)" />
        <g
           id="g28">
          <g
             id="g29" />
          <path
             id="path29"
             d="m 11.168139,-2.5895766 c -0.996094,1.0546875 -1.5468749,1.4648438 -2.3789062,1.79296879 -0.4921875,0.19921875 -1.0546875,0.3046875 -1.5234375,0.3046875 -1.125,0 -2.203125,-0.59765629 -2.6953125,-1.47656249 -0.4921875,-0.9023438 -0.7265625,-2.109375 -0.7265625,-3.8320313 0,-3.515625 1.0898438,-5.3906249 3.1289063,-5.3906249 0.796875,0 1.5117187,0.304687 2.2617187,0.949219 0.7265625,0.6562497 1.1367187,1.2421872 1.7109377,2.5195309 h 0.433594 v -3.9726559 h -0.457032 c -0.257812,0.609375 -0.410156,0.773437 -0.773437,0.773437 -0.1523439,0 -0.3867189,-0.05859 -0.7617189,-0.234375 -0.9726563,-0.410156 -1.8046875,-0.597656 -2.625,-0.597656 -3.3984375,0 -5.92968754,2.6015624 -5.92968754,6.0937499 0,3.515625 2.48437504,5.98828129 6.02343754,5.98828129 1.9570312,0 3.1054687,-0.59765625 4.8281249,-2.48437499 z m 0,0"
             style="fill:#000000;fill-opacity:1;fill-rule:nonzero;stroke:none"
             aria-label="C"
             transform="matrix(1.3333333,0,0,1.3333333,296.24587,94.2848)" />
          <g
             id="g30" />
        </g>
        <path
           id="path30"
           d="m 297.7548,490.9745 h 34.9917 v -34.9916 h -34.9917 z"
           style="fill:none;stroke:#000000;stroke-width:1;stroke-linecap:butt;stroke-linejoin:miter;stroke-miterlimit:10;stroke-dasharray:5.6691, 2.8345, 5.6691, 2.8345;stroke-dashoffset:0;stroke-opacity:1"
           transform="matrix(1.3333333,0,0,-1.3333333,-20,717.33333)" />
        <g
           id="g31">
          <g
             id="g32" />
          <path
             id="path32"
             d="M 0.23580312,2.671875e-4 H 5.6147094 c 3.6679687,0 6.1171876,-2.3437499875 6.1171876,-5.8710937875 0,-3.5039062 -2.3554689,-5.6250004 -6.3046876,-5.6250004 H 0.23580312 v 0.421875 c 1.07812498,0.09375 1.39453128,0.339844 1.41796878,1.1484379 v 8.3789063 c 0,0.74999999 -0.4570313,1.12499999 -1.41796878,1.12499999 z M 4.4076781,-10.323952 c 0,-0.386718 0.3398438,-0.597656 0.9960938,-0.597656 1.2304687,0 2.0742187,0.5625 2.671875,1.7343752 0.4570312,0.890625 0.703125,2.1328125 0.703125,3.5742187 0,1.6054688 -0.3398438,3.0820313 -0.890625,3.84375 -0.5742188,0.78515629 -1.3945313,1.17187504 -2.4960938,1.17187504 -0.7617187,0 -0.984375,-0.22265625 -0.984375,-0.98437504 z m 0,0"
             style="fill:#000000;fill-opacity:1;fill-rule:nonzero;stroke:none"
             aria-label="D"
             transform="matrix(1.3333333,0,0,1.3333333,392.14653,94.2848)" />
          <g
             id="g33" />
        </g>
        <path
           id="path33"
           d="m 416.5733,471.4849 c 0,-8.536 -6.9277,-15.4637 -15.4639,-15.4637 -8.5359,0 -15.4638,6.9277 -15.4638,15.4637 0,8.5361 6.9279,15.4638 15.4638,15.4638 8.5362,0 15.4639,-6.9277 15.4639,-15.4638 z"
           style="fill:none;stroke:#000000;stroke-width:1;stroke-linecap:butt;stroke-linejoin:miter;stroke-miterlimit:10;stroke-dasharray:5.6691, 2.8345, 5.6691, 2.8345;stroke-dashoffset:0;stroke-opacity:1"
           transform="matrix(1.3333333,0,0,-1.3333333,-20,717.33333)" />
        <g
           id="g34">
          <g
             id="g35" />
          <path
             id="path35"
             d="m 0.26951562,-11.074864 c 1.13671878,0.05859 1.46484378,0.328125 1.49999998,1.2070312 v 8.2382812 c -0.035156,0.90234379 -0.2695312,1.10156254 -1.49999998,1.20703129 V -6.453125e-4 H 10.218734 L 10.898422,-3.5397078 h -0.480469 c -0.5273436,1.1367187 -0.8671874,1.6171875 -1.4765624,2.109375 -0.7851562,0.63281249 -1.6992187,0.90234374 -3.0117187,0.90234374 -1.1015625,0 -1.40625,-0.22265625 -1.40625,-0.94921874 v -4.1132813 c 1.8515625,0 2.5546875,0.65625 2.7539062,2.6367188 H 7.7226406 V -8.7076766 H 7.2773281 c -0.2578125,1.9453125 -0.9140625,2.5546875 -2.7539062,2.53125 v -3.9375004 c 0,-0.644531 0.2226562,-0.808593 1.1015625,-0.808593 2.7773437,0 3.609375,0.585937 4.03125,2.8476559 H 10.078109 V -11.496739 H 0.26951562 Z m 0,0"
             style="fill:#000000;fill-opacity:1;fill-rule:nonzero;stroke:none"
             aria-label="E"
             transform="matrix(1.3333333,0,0,1.3333333,506.19533,97.692267)" />
          <g
             id="g36" />
        </g>
        <g
           id="g37">
          <g
             id="g38" />
          <path
             id="path38"
             d="m 7.5129094,-0.40893906 c -1.5234375,-0.0117188 -1.828125,-0.28125 -1.828125,-1.59375004 V -11.694095 H 5.3918156 l -4.2890625,1.8515622 v 0.4453125 c 0.1523438,-0.058594 0.28125,-0.1054688 0.3398438,-0.140625 0.46875,-0.1757813 0.890625,-0.2929688 1.1132812,-0.2929688 0.421875,0 0.609375,0.375 0.609375,1.171875 v 6.5507813 c 0.011719,1.38281249 -0.3398437,1.68749999 -2.0273437,1.69921874 v 0.41015625 h 6.375 z m 0,0"
             style="fill:#000000;fill-opacity:1;fill-rule:nonzero;stroke:none"
             aria-label="1"
             transform="matrix(1.3333333,0,0,1.3333333,144.6156,237.65853)" />
          <g
             id="g39" />
        </g>
        <g
           id="g40">
          <g
             id="g41" />
          <path
             id="path41"
             d="M 8.1324953,-3.5847203 H 7.7223391 c -0.4921875,1.2070312 -0.6796875,1.3125 -2.4375,1.3242187 H 2.7184328 l 2.7539063,-2.6132812 c 1.3476562,-1.2773438 1.9453125,-2.4140625 1.9453125,-3.7148438 0,-1.8164064 -1.3007813,-3.1054684 -3.1523438,-3.1054684 -0.84375,0 -1.6640625,0.339843 -2.2617187,0.949218 -0.65625,0.667969 -0.9960938,1.2421879 -1.47656254,2.5195317 H 1.0074953 c 0.5273438,-1.078125 1.1484375,-1.5351563 2.0742188,-1.5351563 0.7382812,0 1.3242187,0.328125 1.6757812,0.9375 0.2109375,0.3515625 0.3398438,0.8320313 0.3398438,1.21875 0,0.75 -0.3164063,1.6875 -0.8671875,2.5195313 -0.8671875,1.3125 -1.453125,2.0390625 -3.93750004,4.69921874 V 0.00121719 H 7.3590578 Z m 0,0"
             style="fill:#000000;fill-opacity:1;fill-rule:nonzero;stroke:none"
             aria-label="2"
             transform="matrix(1.3333333,0,0,1.3333333,249.59027,237.65853)" />
          <g
             id="g42" />
        </g>
        <g
           id="g43">
          <g
             id="g44" />
          <path
             id="path44"
             d="m 7.0068562,-4.3362937 v -7.3593753 h -1.359375 l -1.0078125,1.300782 C 2.4951375,-7.605825 1.3467,-5.9886375 0.32716875,-4.37145 v 1.921875 H 4.5342 V -3.5625e-4 H 7.0068562 V -2.449575 h 1.0664063 v -1.8867187 z m -2.4375,0 H 1.018575 L 4.5693562,-9.387075 Z m 0,0"
             style="fill:#000000;fill-opacity:1;fill-rule:nonzero;stroke:none"
             aria-label="4"
             transform="matrix(1.3333333,0,0,1.3333333,358.4544,238.9536)" />
          <g
             id="g45" />
        </g>
        <g
           id="g46">
          <g
             id="g47" />
          <path
             id="path47"
             d="m 0.98530156,-8.8943047 c 0.64453124,-1.03125 1.20703124,-1.4296873 2.09765624,-1.4296873 1.0664063,0 1.734375,0.6679686 1.734375,1.7578123 0,1.1132813 -0.5976562,1.7109375 -2.2148437,2.2265625 v 0.28125 c 1.40625,0.5039063 1.96875,0.7851563 2.5898437,1.3710938 0.5273438,0.4921875 0.8320313,1.2539062 0.8320313,2.0742187 0,1.21875 -0.6445313,2.00390626 -1.6757813,2.00390626 -0.3984375,0 -0.7265625,-0.1875 -1.2890625,-0.73828126 -0.65625,-0.65625 -1.1484375,-0.9257812 -1.6757812,-0.9257812 -0.65625004,0 -1.11328129,0.3984375 -1.11328129,0.984375 0,0.91406246 1.01953129,1.52343746 2.58984379,1.52343746 2.859375,0 5.0976562,-1.93359376 5.0976562,-4.41796876 0,-0.796875 -0.2578125,-1.5117187 -0.75,-2.109375 -0.3515625,-0.421875 -0.6445312,-0.609375 -1.3242187,-0.9140625 1.0898437,-0.6679687 1.40625,-1.1601562 1.40625,-2.1679687 0,-1.4531246 -1.03125,-2.3203126 -2.765625,-2.3203126 -1.6875,0 -2.9648438,0.84375 -3.89062504,2.6015626 z m 0,0"
             style="fill:#000000;fill-opacity:1;fill-rule:nonzero;stroke:none"
             aria-label="3"
             transform="matrix(1.3333333,0,0,1.3333333,248.29173,354.29267)" />
          <g
             id="g48" />
        </g>
        <g
           id="g49">
          <g
             id="g50" />
          <path
             id="path50"
             d="m 2.5302891,-9.3386266 h 4.734375 L 7.9912266,-11.494877 H 2.5185703 l -1.65234374,5.8710942 c 1.61718754,0.1171875 2.29687504,0.2226562 3.05859374,0.4570312 1.5117188,0.4804688 2.4140625,1.4296875 2.4140625,2.5664063 0,0.9492187 -0.75,1.69921874 -1.6992187,1.69921874 -0.3867188,0 -0.84375,-0.19921874 -1.5234375,-0.71484374 -0.7382813,-0.5390625 -1.2421875,-0.7617188 -1.6875,-0.7617188 -0.60937504,0 -1.05468754,0.421875 -1.05468754,1.0195313 0,0.90234374 0.98437504,1.49999999 2.49609374,1.49999999 2.8125,0 4.7929688,-1.69921879 4.7929688,-4.10156249 0,-1.7695313 -1.078125,-3.1289063 -2.9414063,-3.65625 -0.6445312,-0.1875 -1.171875,-0.2578125 -2.5664062,-0.3398438 z m 0,0"
             style="fill:#000000;fill-opacity:1;fill-rule:nonzero;stroke:none"
             aria-label="5"
             transform="matrix(1.3333333,0,0,1.3333333,476.388,237.65853)" />
          <g
             id="g51" />
        </g>
        <path
           id="path51"
           d="M 226.494,409.3263 V 263.5292"
           style="fill:none;stroke:#000000;stroke-width:1;stroke-linecap:butt;stroke-linejoin:miter;stroke-miterlimit:10;stroke-dasharray:2.8345, 2.8345, 2.8345, 2.8345;stroke-dashoffset:0;stroke-opacity:1"
           transform="matrix(1.3333333,0,0,-1.3333333,-20,717.33333)" />
        <path
           id="path52"
           d="M 331.4687,409.3263 V 263.5292"
           style="fill:none;stroke:#000000;stroke-width:1;stroke-linecap:butt;stroke-linejoin:miter;stroke-miterlimit:10;stroke-dasharray:2.8345, 2.8345, 2.8345, 2.8345;stroke-dashoffset:0;stroke-opacity:1"
           transform="matrix(1.3333333,0,0,-1.3333333,-20,717.33333)" />
        <path
           id="path53"
           d="m 394.6465,365.5869 h 49.5597"
           style="fill:none;stroke:#000000;stroke-width:1;stroke-linecap:butt;stroke-linejoin:miter;stroke-miterlimit:10;stroke-dasharray:2.8345, 2.8345, 2.8345, 2.8345;stroke-dashoffset:0;stroke-opacity:1"
           transform="matrix(1.3333333,0,0,-1.3333333,-20,717.33333)" />
        <path
           id="path54"
           d="M 421.8545,409.3263 V 263.5292"
           style="fill:none;stroke:#000000;stroke-width:1;stroke-linecap:butt;stroke-linejoin:miter;stroke-miterlimit:10;stroke-dasharray:2.8345, 2.8345, 2.8345, 2.8345;stroke-dashoffset:0;stroke-opacity:1"
           transform="matrix(1.3333333,0,0,-1.3333333,-20,717.33333)" />
        <path
           id="path55"
           d="m 472.2681,507.497 c 0,-8.536 -6.9277,-15.4639 -15.4638,-15.4639 -8.536,0 -15.4638,6.9279 -15.4638,15.4639 0,8.5361 6.9278,15.4638 15.4638,15.4638 8.5361,0 15.4638,-6.9277 15.4638,-15.4638 z"
           style="fill:none;stroke:#000000;stroke-width:1;stroke-linecap:butt;stroke-linejoin:miter;stroke-miterlimit:10;stroke-dasharray:none;stroke-opacity:1"
           transform="matrix(1.3333333,0,0,-1.3333333,-20,717.33333)" />
        <g
           id="g55">
          <g
             id="g56" />
          <path
             id="path56"
             d="m 0.2705,-11.075198 c 1.1367188,0.05859 1.4648438,0.328125 1.5,1.2070308 v 8.2382813 c -0.035156,0.90234371 -0.2695312,1.10156246 -1.5,1.20703121 v 0.4218750025 h 9.949219 L 10.899406,-3.5400422 h -0.480468 c -0.5273442,1.1367188 -0.867188,1.6171875 -1.476563,2.109375 -0.7851562,0.63281251 -1.6992187,0.90234376 -3.0117187,0.90234376 -1.1015625,0 -1.40625,-0.22265625 -1.40625,-0.94921876 v -4.1132812 c 1.8515625,0 2.5546875,0.65625 2.7539062,2.6367187 H 7.723625 V -8.7080109 H 7.2783125 C 7.0205,-6.7626984 6.36425,-6.1533234 4.5244063,-6.1767609 v -3.9375001 c 0,-0.644531 0.2226562,-0.808594 1.1015625,-0.808594 2.7773437,0 3.609375,0.585938 4.03125,2.8476566 H 10.079094 V -11.497073 H 0.2705 Z m 0,0"
             style="fill:#000000;fill-opacity:1;fill-rule:nonzero;stroke:none"
             aria-label="E"
             transform="matrix(1.3333333,0,0,1.3333333,580.38933,49.6224)" />
          <g
             id="g57" />
        </g>
        <g
           id="g58">
          <g
             id="g59">
            <path
               id="path59"
               d="m 0.455575,-8.2626984 1.734375,-3.5742186 0.1054688,-0.1875 c 0.1289062,-0.292969 0.3867187,-0.46875 0.6328125,-0.46875 0.4921875,0 0.9492187,0.363281 0.9492187,0.773437 0,0.246094 -0.070312,0.398438 -0.3398437,0.679688 l -2.8242188,2.9414061 z m 0,0"
               style="fill:#000000;fill-opacity:1;fill-rule:nonzero;stroke:none"
               aria-label="¢"
               transform="matrix(1.3333333,0,0,1.3333333,595.45507,49.6224)" />
          </g>
          <g
             id="g60" />
        </g>
        <g
           id="g61">
          <g
             id="g62" />
          <path
             id="path62"
             d="M 4.3367828,-7.6515297 H 2.6141266 v -1.96875 c 0,-0.1757812 -0.023437,-0.2226562 -0.1171875,-0.2226562 -0.984375,1.4296875 -1.4882813,2.0039062 -1.98046879,2.296875 -0.1875,0.1171875 -0.29296875,0.2226562 -0.29296875,0.3164062 0,0.058594 0.0117188,0.09375 0.0703125,0.1171875 H 1.1961578 v 5.1210938 c 0,1.42968746 0.5039063,2.16796871 1.5117188,2.16796871 0.8320312,0 1.4765625,-0.41015625 2.0390625,-1.30078121 l -0.2226563,-0.1875 c -0.375,0.44531246 -0.6445312,0.59765621 -1.0195312,0.59765621 -0.6328125,0 -0.890625,-0.45703121 -0.890625,-1.53515621 v -4.8632813 h 1.7226562 z m 0,0"
             style="fill:#000000;fill-opacity:1;fill-rule:nonzero;stroke:none"
             aria-label="t"
             transform="matrix(1.3333333,0,0,1.3333333,276.80747,169.19813)" />
          <g
             id="g63" />
        </g>
        <g
           id="g64">
          <g
             id="g65" />
          <path
             id="path65"
             d="M 1.4286141,8.140625e-4 H 4.7918953 V -0.18668594 c -0.9375,0 -1.1484375,-0.12890625 -1.1601562,-0.71484375 V -8.1905922 l -0.09375,-0.023437 -2.1914063,1.1015625 v 0.1757813 c 0.4804688,-0.1875 0.7617188,-0.2695313 0.8789063,-0.2695313 0.2578125,0 0.3632812,0.1875 0.3632812,0.5742188 v 5.5078125 c -0.023437,0.76171871 -0.234375,0.92578121 -1.1601562,0.93749996 z m 0,0"
             style="fill:#000000;fill-opacity:1;fill-rule:nonzero;stroke:none"
             aria-label="1"
             transform="matrix(1.3333333,0,0,1.3333333,283.0444,169.19813)" />
          <g
             id="g66" />
        </g>
        <g
           id="g67">
          <g
             id="g68" />
          <path
             id="path68"
             d="M 4.3357156,-7.6515297 H 2.6130594 v -1.96875 c 0,-0.1757812 -0.023437,-0.2226562 -0.1171875,-0.2226562 -0.984375,1.4296875 -1.4882813,2.0039062 -1.98046877,2.296875 -0.1875,0.1171875 -0.29296875,0.2226562 -0.29296875,0.3164062 0,0.058594 0.0117188,0.09375 0.0703125,0.1171875 H 1.1950906 v 5.1210938 c 0,1.42968746 0.5039063,2.16796871 1.5117188,2.16796871 0.8320312,0 1.4765625,-0.41015625 2.0390625,-1.30078121 l -0.2226563,-0.1875 c -0.375,0.44531246 -0.6445312,0.59765621 -1.0195312,0.59765621 -0.6328125,0 -0.890625,-0.45703121 -0.890625,-1.53515621 v -4.8632813 h 1.7226562 z m 0,0"
             style="fill:#000000;fill-opacity:1;fill-rule:nonzero;stroke:none"
             aria-label="t"
             transform="matrix(1.3333333,0,0,1.3333333,416.77373,169.19813)" />
          <g
             id="g69" />
        </g>
        <g
           id="g70">
          <g
             id="g71" />
          <path
             id="path71"
             d="m 5.7781328,-1.6632484 -0.1640625,-0.058594 c -0.4453125,0.703125 -0.5859375,0.78515626 -1.1484375,0.79687501 h -2.90625 L 3.5984453,-3.0577797 c 1.078125,-1.1367187 1.5585938,-2.0625 1.5585938,-3 0,-1.21875 -0.984375,-2.15625 -2.25,-2.15625 -0.6679688,0 -1.3007813,0.2695313 -1.7460938,0.75 -0.39843749,0.421875 -0.57421874,0.8085938 -0.78515624,1.6640625 l 0.2578125,0.070312 c 0.48046874,-1.195312 0.91406254,-1.5820307 1.75781254,-1.5820307 1.03125,0 1.7226562,0.6914062 1.7226562,1.7109375 0,0.9609375 -0.5625,2.0742187 -1.5820312,3.1640625 L 0.36407031,-0.13981094 V 8.140625e-4 H 5.1101641 Z m 0,0"
             style="fill:#000000;fill-opacity:1;fill-rule:nonzero;stroke:none"
             aria-label="2"
             transform="matrix(1.3333333,0,0,1.3333333,423.01067,169.19813)" />
          <g
             id="g72" />
        </g>
        <g
           id="g73">
          <g
             id="g74" />
          <path
             id="path74"
             d="M 4.3347422,-7.6515297 H 2.6120859 v -1.96875 c 0,-0.1757812 -0.023437,-0.2226562 -0.1171875,-0.2226562 -0.984375,1.4296875 -1.4882812,2.0039062 -1.98046871,2.296875 -0.1875,0.1171875 -0.29296875,0.2226562 -0.29296875,0.3164062 0,0.058594 0.0117188,0.09375 0.0703125,0.1171875 H 1.1941172 v 5.1210938 c 0,1.42968746 0.5039062,2.16796871 1.5117187,2.16796871 0.8320313,0 1.4765625,-0.41015625 2.0390625,-1.30078121 l -0.2226562,-0.1875 c -0.375,0.44531246 -0.6445313,0.59765621 -1.0195313,0.59765621 -0.6328125,0 -0.890625,-0.45703121 -0.890625,-1.53515621 v -4.8632813 h 1.7226563 z m 0,0"
             style="fill:#000000;fill-opacity:1;fill-rule:nonzero;stroke:none"
             aria-label="t"
             transform="matrix(1.3333333,0,0,1.3333333,530.818,169.19813)" />
          <g
             id="g75" />
        </g>
        <g
           id="g76">
          <g
             id="g77" />
          <path
             id="path77"
             d="m 1.8630969,-4.0069984 c 0.7148437,0 0.9960937,0.023437 1.2773437,0.1289062 0.7617188,0.28125 1.21875,0.9609375 1.21875,1.8046875 0,1.03125 -0.6796875,1.80468751 -1.5820312,1.80468751 -0.3398438,0 -0.5742188,-0.0820313 -1.03125,-0.375 -0.3515625,-0.22265625 -0.5507813,-0.3046875 -0.76171877,-0.3046875 -0.28125,0 -0.45703125,0.17578125 -0.45703125,0.421875 0,0.43359375 0.51562502,0.703125 1.37109372,0.703125 0.9257813,0 1.8867188,-0.31640625 2.4609375,-0.8203125 0.5742188,-0.49218751 0.8789063,-1.20703121 0.8789063,-2.01562501 0,-0.6328125 -0.1992188,-1.1953125 -0.5390625,-1.5703125 -0.2460938,-0.2695312 -0.4804688,-0.4101562 -1.0078125,-0.6445312 0.8320312,-0.5742188 1.1367187,-1.0195313 1.1367187,-1.6757813 0,-0.9960937 -0.7734375,-1.6640625 -1.8984375,-1.6640625 -0.609375,0 -1.1484375,0.2109375 -1.5820312,0.5976563 -0.36328127,0.3398437 -0.55078127,0.6445312 -0.79687502,1.3710937 l 0.17578125,0.046875 C 1.2185656,-7.1007484 1.7576281,-7.4874672 2.5310656,-7.4874672 c 0.796875,0 1.3359375,0.5273438 1.3359375,1.3007813 0,0.4335937 -0.1875,0.8671875 -0.4921875,1.1835937 -0.3632812,0.3632813 -0.703125,0.5390625 -1.5234375,0.8320313 z m 0,0"
             style="fill:#000000;fill-opacity:1;fill-rule:nonzero;stroke:none"
             aria-label="3"
             transform="matrix(1.3333333,0,0,1.3333333,537.05493,169.19813)" />
          <g
             id="g78" />
        </g>
        <path
           id="path78"
           d="m 141.8898,513.3289 c 0,-8.536 -6.9277,-15.4637 -15.4638,-15.4637 -8.536,0 -15.4637,6.9277 -15.4637,15.4637 0,8.5361 6.9277,15.4638 15.4637,15.4638 8.5361,0 15.4638,-6.9277 15.4638,-15.4638 z"
           style="fill:none;stroke:#000000;stroke-width:1;stroke-linecap:butt;stroke-linejoin:miter;stroke-miterlimit:10;stroke-dasharray:none;stroke-opacity:1"
           transform="matrix(1.3333333,0,0,-1.3333333,-20,717.33333)" />
        <g
           id="g79">
          <g
             id="g80" />
          <path
             id="path80"
             d="m 11.719309,-0.42223281 c -0.75,0 -0.9375,-0.24609375 -1.8515621,-2.36718749 L 6.0708719,-11.730827 H 5.5904031 L 1.8169656,-2.4144203 C 1.1724344,-0.82067031 0.97321562,-0.57457656 0.15290312,-0.42223281 V -3.578125e-4 H 3.6099344 V -0.42223281 c -1.0195313,-0.0703125 -1.3945313,-0.2578125 -1.3945313,-0.70312499 0,-0.2226563 0.1171875,-0.6210938 0.4921875,-1.546875 l 0.2460938,-0.6796875 h 3.8320312 c 0.5742188,1.3476562 0.7851563,1.9453125 0.7851563,2.3085937 0,0.37500004 -0.2226563,0.52734379 -0.8203125,0.56250004 -0.082031,0.0234375 -0.3046875,0.0351563 -0.5390625,0.0585938 V -3.578125e-4 H 11.719309 Z M 3.2114969,-4.0081703 4.8169656,-8.1448891 6.5279031,-4.0081703 Z m 0,0"
             style="fill:#000000;fill-opacity:1;fill-rule:nonzero;stroke:none"
             aria-label="A"
             transform="matrix(1.3333333,0,0,1.3333333,139.75707,41.848133)" />
          <g
             id="g81" />
        </g>
        <g
           id="g82">
          <g
             id="g83">
            <path
               id="path83"
               d="m 0.45582187,-8.2620766 1.73437503,-3.5742184 0.1054687,-0.1875 c 0.1289063,-0.292969 0.3867188,-0.46875 0.6328125,-0.46875 0.4921875,0 0.9492188,0.363281 0.9492188,0.773437 0,0.246094 -0.070312,0.398438 -0.3398438,0.679688 l -2.82421873,2.9414059 z m 0,0"
               style="fill:#000000;fill-opacity:1;fill-rule:nonzero;stroke:none"
               aria-label="¢"
               transform="matrix(1.3333333,0,0,1.3333333,156.1188,41.848133)" />
          </g>
          <g
             id="g84" />
        </g>
        <path
           id="path84"
           d="m 109.8542,510.4127 -9.0751,0.186 1.9287,5.4072 z"
           style="fill:#000000;fill-opacity:1;fill-rule:nonzero;stroke:none"
           transform="matrix(1.3333333,0,0,-1.3333333,-20,717.33333)" />
        <path
           id="path85"
           d="m 77.7797,487.0861 c 1.6187,10.0429 -0.489,26.2438 4.8596,30.1321 3.8746,2.8173 11.6582,-0.8301 19.1042,-3.9159"
           style="fill:none;stroke:#000000;stroke-width:1;stroke-linecap:butt;stroke-linejoin:miter;stroke-miterlimit:10;stroke-dasharray:none;stroke-opacity:1"
           transform="matrix(1.3333333,0,0,-1.3333333,-20,717.33333)" />
        <path
           id="path86"
           d="m 440.3145,511.3874 -9.0234,-0.9162 1.2743,5.6002 z"
           style="fill:#000000;fill-opacity:1;fill-rule:nonzero;stroke:none"
           transform="matrix(1.3333333,0,0,-1.3333333,-20,717.33333)" />
        <path
           id="path87"
           d="m 406.3217,486.115 c 3.8918,9.0716 5.9927,23.0028 11.6409,27.2149 3.6507,2.7104 8.7824,1.3948 13.9485,-0.0586"
           style="fill:none;stroke:#000000;stroke-width:1;stroke-linecap:butt;stroke-linejoin:miter;stroke-miterlimit:10;stroke-dasharray:none;stroke-opacity:1"
           transform="matrix(1.3333333,0,0,-1.3333333,-20,717.33333)" />
        <path
           id="path88"
           d="m 186.5705,296.7058 h 34.9916 v -35.0019 h -34.9916 z"
           style="fill:none;stroke:#000000;stroke-width:1;stroke-linecap:butt;stroke-linejoin:miter;stroke-miterlimit:10;stroke-dasharray:none;stroke-opacity:1"
           transform="matrix(1.3333333,0,0,-1.3333333,-20,717.33333)" />
        <path
           id="path89"
           d="m 185.6027,281.1628 -8.7307,-2.4797 0.2618,5.7171 z"
           style="fill:#000000;fill-opacity:1;fill-rule:nonzero;stroke:none"
           transform="matrix(1.3333333,0,0,-1.3333333,-20,717.33333)" />
        <path
           id="path90"
           d="M 70.9502,456.0484 C 68.0365,401.312 43.0985,320.9898 62.2057,291.8429 c 17.823,-27.1772 73.9507,-9.8536 114.7972,-10.3013"
           style="fill:none;stroke:#000000;stroke-width:1;stroke-linecap:butt;stroke-linejoin:miter;stroke-miterlimit:10;stroke-dasharray:none;stroke-opacity:1"
           transform="matrix(1.3333333,0,0,-1.3333333,-20,717.33333)" />
        <path
           id="path91"
           d="m 185.6027,286.0188 -8.7927,-2.2386 0.4134,5.7207 z"
           style="fill:#000000;fill-opacity:1;fill-rule:nonzero;stroke:none"
           transform="matrix(1.3333333,0,0,-1.3333333,-20,717.33333)" />
        <path
           id="path92"
           d="M 298.3127,457.0196 C 223.4976,404.5495 92.6511,328.1156 73.8672,299.616 56.3957,273.1037 135.8499,288.0612 177.0167,286.6353"
           style="fill:none;stroke:#000000;stroke-width:1;stroke-linecap:butt;stroke-linejoin:miter;stroke-miterlimit:10;stroke-dasharray:none;stroke-opacity:1"
           transform="matrix(1.3333333,0,0,-1.3333333,-20,717.33333)" />
        <path
           id="path93"
           d="M 153.5386,408.4652 V 262.6682"
           style="fill:none;stroke:#000000;stroke-width:1;stroke-linecap:butt;stroke-linejoin:miter;stroke-miterlimit:10;stroke-dasharray:2.8345, 2.8345, 2.8345, 2.8345;stroke-dashoffset:0;stroke-opacity:1"
           transform="matrix(1.3333333,0,0,-1.3333333,-20,717.33333)" />
        <g
           id="g93">
          <g
             id="g94" />
          <path
             id="path94"
             d="M 4.3355094,-7.6515297 H 2.6128531 v -1.96875 c 0,-0.1757812 -0.023437,-0.2226562 -0.1171875,-0.2226562 -0.984375,1.4296875 -1.4882812,2.0039062 -1.98046873,2.296875 -0.1875,0.1171875 -0.29296875,0.2226562 -0.29296875,0.3164062 0,0.058594 0.0117188,0.09375 0.0703125,0.1171875 H 1.1948844 v 5.1210938 c 0,1.42968746 0.5039062,2.16796871 1.5117187,2.16796871 0.8320313,0 1.4765625,-0.41015625 2.0390625,-1.30078121 l -0.2226562,-0.1875 c -0.375,0.44531246 -0.6445313,0.59765621 -1.0195313,0.59765621 -0.6328125,0 -0.890625,-0.45703121 -0.890625,-1.53515621 v -4.8632813 h 1.7226563 z m 0,0"
             style="fill:#000000;fill-opacity:1;fill-rule:nonzero;stroke:none"
             aria-label="t"
             transform="matrix(1.3333333,0,0,1.3333333,174.60213,169.19813)" />
          <g
             id="g95" />
        </g>
        <g
           id="g96">
          <g
             id="g97" />
          <path
             id="path97"
             d="m 3.0826141,-8.2140297 c -0.6679688,0 -1.171875,0.1992188 -1.6289063,0.6328125 -0.70312499,0.6796875 -1.16015624,2.0742188 -1.16015624,3.5039063 0,1.3359375 0.3984375,2.7421875 0.97265624,3.42187496 0.4453125,0.5390625 1.0664063,0.83203125 1.7695313,0.83203125 0.6210937,0 1.1484375,-0.2109375 1.5820312,-0.6328125 0.703125,-0.66796871 1.171875,-2.08593751 1.171875,-3.55078121 0,-2.4960938 -1.1132812,-4.2070313 -2.7070312,-4.2070313 z m -0.035156,0.3164063 c 1.0195313,0 1.5703125,1.3710937 1.5703125,3.9140625 0,2.5429687 -0.5390625,3.84374996 -1.5820312,3.84374996 -1.0429688,0 -1.5820313,-1.30078126 -1.5820313,-3.83203126 0,-2.5898437 0.5507813,-3.9257812 1.59375,-3.9257812 z m 0,0"
             style="fill:#000000;fill-opacity:1;fill-rule:nonzero;stroke:none"
             aria-label="0"
             transform="matrix(1.3333333,0,0,1.3333333,180.83907,169.19813)" />
          <g
             id="g98" />
        </g>
        <g
           id="g99">
          <g
             id="g100" />
          <path
             id="path100"
             d="M 0.23377813,9.78125e-4 H 5.6126844 c 3.6679687,0 6.1171876,-2.343750025 6.1171876,-5.871093725 0,-3.5039063 -2.3554689,-5.6250004 -6.3046876,-5.6250004 H 0.23377813 v 0.421875 c 1.07812497,0.09375 1.39453127,0.339844 1.41796877,1.1484379 v 8.3789062 c 0,0.75000002 -0.4570313,1.12500002 -1.41796877,1.12500002 z M 4.4056531,-10.323241 c 0,-0.386718 0.3398438,-0.597656 0.9960938,-0.597656 1.2304687,0 2.0742187,0.5625 2.671875,1.7343751 0.4570312,0.890625 0.703125,2.1328125 0.703125,3.5742188 0,1.6054687 -0.3398438,3.0820312 -0.890625,3.84375 -0.5742188,0.78515622 -1.3945313,1.17187497 -2.4960938,1.17187497 -0.7617187,0 -0.984375,-0.22265625 -0.984375,-0.98437497 z m 14.7070309,8.2031254 c -0.691406,0.8320312 -1.207031,1.13671872 -1.933593,1.13671872 -0.667969,0 -1.160157,-0.30468752 -1.511719,-0.90234372 -0.304688,-0.5390625 -0.445313,-1.1015625 -0.515625,-2.2734375 h 4.289062 c -0.105468,-1.4296875 -0.363281,-2.2382813 -0.902343,-2.8828125 -0.539063,-0.65625 -1.347657,-0.9960938 -2.296875,-0.9960938 -2.109375,0 -3.539063,1.6757813 -3.539063,4.1601563 0,2.484375 1.394531,4.11328122 3.503906,4.11328122 1.382813,0 2.214844,-0.52734375 3.316407,-2.12109372 z m -4.042968,-2.671875 c 0.04687,-2.0390625 0.351562,-2.71875 1.195312,-2.71875 0.796875,0 1.042969,0.5742187 1.078125,2.4609375 v 0.2578125 z m 9.732422,7.921875 C 23.782606,3.0947281 23.501356,2.7783219 23.477919,1.5947281 v -2.39062498 c 0.808594,0.796875005 1.230469,1.01953125 2.003906,1.01953125 1.921875,0 3.257813,-1.76953127 3.257813,-4.28906247 0,-2.3789063 -1.265625,-3.9726563 -3.164063,-3.9726563 -0.996094,0 -1.605469,0.3867188 -2.132812,1.3710938 v -1.171875 H 20.18495 v 0.4101562 c 0.75,0.1054688 0.925781,0.2929688 0.925781,1.0078125 v 8.5078125 c -0.02344,0.7148438 -0.152343,0.8554688 -0.949218,0.9960938 v 0.3984375 h 4.640625 z m -1.324219,-9.0117188 c 0,-0.1171875 0.152344,-0.3867187 0.351562,-0.609375 0.339844,-0.375 0.726563,-0.5859375 1.101563,-0.5859375 0.890625,0 1.300781,1.0195313 1.300781,3.2578125 0,2.0976563 -0.46875,3.10546877 -1.453125,3.10546877 -0.5625,0 -1.054687,-0.38671877 -1.300781,-1.03124997 z m 12.644531,3.7617188 c -0.691406,0.8320312 -1.207031,1.13671872 -1.933594,1.13671872 -0.667968,0 -1.160156,-0.30468752 -1.511718,-0.90234372 -0.304688,-0.5390625 -0.445313,-1.1015625 -0.515625,-2.2734375 h 4.289062 c -0.105469,-1.4296875 -0.363281,-2.2382813 -0.902344,-2.8828125 -0.539062,-0.65625 -1.347656,-0.9960938 -2.296875,-0.9960938 -2.109375,0 -3.539062,1.6757813 -3.539062,4.1601563 0,2.484375 1.394531,4.11328122 3.503906,4.11328122 1.382813,0 2.214844,-0.52734375 3.316406,-2.12109372 z m -4.042969,-2.671875 c 0.04687,-2.0390625 0.351563,-2.71875 1.195313,-2.71875 0.796875,0 1.042969,0.5742187 1.078125,2.4609375 v 0.2578125 z m 13.927735,4.38281247 c -0.632813,-0.0351563 -0.84375,-0.28125 -0.832032,-0.97265627 v -4.265625 c 0,-1.4648437 -0.902343,-2.390625 -2.296875,-2.390625 -1.019531,0 -1.804687,0.46875 -2.425781,1.4765625 v -1.2773437 h -3.257812 v 0.4101562 c 0.75,0.1171875 0.890625,0.2695313 0.902343,1.0078125 v 4.9921875 c -0.01172,0.73828127 -0.152343,0.89062502 -0.902343,1.01953127 V 9.78125e-4 h 4.101562 V -0.40917813 c -0.609375,-0.0703125 -0.832031,-0.33984375 -0.832031,-0.97265627 v -4.5351562 c 0,-0.046875 0.117187,-0.234375 0.292969,-0.4101563 0.375,-0.375 0.773437,-0.5742187 1.171875,-0.5742187 0.597656,0 0.878906,0.4570312 0.878906,1.40625 v 4.1132812 c -0.01172,0.65625002 -0.234375,0.92578127 -0.796875,0.97265627 V 9.78125e-4 h 3.996094 z m 9.375,-0.31640625 C 54.620497,-0.78417813 54.374403,-1.0068344 54.374403,-1.7216781 v -9.7734379 h -3.65625 v 0.410157 c 1.113281,0.07031 1.277344,0.1875 1.300781,0.984375 v 3.1171871 c -0.738281,-0.7851562 -1.242187,-1.0546875 -2.027343,-1.0546875 -1.875,0 -3.269532,1.8164063 -3.269532,4.2773438 0,2.3320312 1.300782,3.99609372 3.082032,3.99609372 0.902343,0 1.464843,-0.26953125 2.261718,-1.11328125 v 1.1015625 c 0.785157,-0.222656245 1.207032,-0.3046875 2.261719,-0.421875 l 1.054688,-0.140625 z M 52.018934,-1.9091781 c 0,0.1054687 -0.175781,0.3984375 -0.375,0.6210937 -0.339843,0.38671877 -0.703125,0.57421877 -1.078125,0.57421877 -0.902343,0 -1.324218,-1.00781247 -1.324218,-3.17578127 0,-2.1914062 0.457031,-3.1992187 1.441406,-3.1992187 0.5625,0 1.089844,0.4101562 1.335937,1.0546875 z m 10.570313,-0.2109375 c -0.691406,0.8320312 -1.207031,1.13671872 -1.933594,1.13671872 -0.667969,0 -1.160156,-0.30468752 -1.511719,-0.90234372 -0.304687,-0.5390625 -0.445312,-1.1015625 -0.515625,-2.2734375 h 4.289063 c -0.105469,-1.4296875 -0.363281,-2.2382813 -0.902344,-2.8828125 -0.539062,-0.65625 -1.347656,-0.9960938 -2.296875,-0.9960938 -2.109375,0 -3.539062,1.6757813 -3.539062,4.1601563 0,2.484375 1.394531,4.11328122 3.503906,4.11328122 1.382812,0 2.214844,-0.52734375 3.316406,-2.12109372 z m -4.042969,-2.671875 c 0.04687,-2.0390625 0.351563,-2.71875 1.195313,-2.71875 0.796875,0 1.042968,0.5742187 1.078125,2.4609375 v 0.2578125 z m 13.927735,4.38281247 c -0.632813,-0.0351563 -0.84375,-0.28125 -0.832032,-0.97265627 v -4.265625 c 0,-1.4648437 -0.902343,-2.390625 -2.296875,-2.390625 -1.019531,0 -1.804687,0.46875 -2.425781,1.4765625 v -1.2773437 h -3.257812 v 0.4101562 c 0.75,0.1171875 0.890625,0.2695313 0.902343,1.0078125 v 4.9921875 c -0.01172,0.73828127 -0.152343,0.89062502 -0.902343,1.01953127 V 9.78125e-4 h 4.101562 V -0.40917813 C 67.1537,-0.47949063 66.931044,-0.74902188 66.931044,-1.3818344 v -4.5351562 c 0,-0.046875 0.117187,-0.234375 0.292969,-0.4101563 0.375,-0.375 0.773437,-0.5742187 1.171875,-0.5742187 0.597656,0 0.878906,0.4570312 0.878906,1.40625 v 4.1132812 c -0.01172,0.65625002 -0.234375,0.92578127 -0.796875,0.97265627 V 9.78125e-4 h 3.996094 z m 7.300781,-1.44140627 c -0.632813,0.7148438 -1.078125,0.94921877 -1.769531,0.94921877 -1.476563,0 -2.414063,-1.47656247 -2.414063,-3.78515627 0,-1.7578125 0.539063,-2.8242187 1.429688,-2.8242187 0.269531,0 0.527343,0.1289062 0.621093,0.3164062 0.09375,0.1523438 0.09375,0.1523438 0.09375,0.8671875 0.01172,0.8554688 0.304688,1.2304688 0.949219,1.2304688 0.714844,0 1.160156,-0.4101563 1.160156,-1.078125 0,-1.0546875 -1.148437,-1.8632813 -2.636718,-1.8632813 -2.320313,0 -4.019532,1.7929688 -4.019532,4.2421875 0,2.3671875 1.511719,4.03125002 3.644532,4.03125002 1.3125,0 2.261718,-0.52734375 3.246093,-1.78125002 z m 8.701172,-5.9882812 h -2.566407 v 0.4101562 c 0.738282,0.035156 0.9375,0.1523438 0.9375,0.5625 0,0.1875 -0.03516,0.3398438 -0.1875,0.7617188 l -1.148437,3.2695312 -1.230469,-3.1523437 c -0.339844,-0.8671875 -0.339844,-0.8671875 -0.339844,-0.9960938 0,-0.2578125 0.199219,-0.375 0.632813,-0.4335937 l 0.269531,-0.011719 v -0.4101562 h -4.253906 v 0.4101562 c 0.398437,0.046875 0.492187,0.1054688 0.597656,0.2578125 0.04687,0.011719 0.832031,1.6757813 1.101563,2.3789063 l 2.039062,5.01562497 -0.304687,0.90234373 c -0.28125,0.84375 -0.714844,1.3945313 -1.113282,1.3945313 -0.164062,0 -0.292968,-0.140625 -0.292968,-0.2929688 0,-0.011719 0,-0.046875 0.01172,-0.1054687 0.02344,-0.082031 0.03516,-0.1640625 0.03516,-0.234375 0,-0.4921875 -0.386719,-0.8320313 -0.984375,-0.8320313 -0.644532,0 -1.089844,0.4453125 -1.089844,1.0898438 0,0.796875 0.679687,1.3359375 1.652344,1.3359375 0.574218,0 1.066406,-0.1875 1.429687,-0.5507813 0.351563,-0.3984375 0.691406,-1.078125 1.289063,-2.67187498 l 2.53125,-6.75000002 c 0.292968,-0.7148437 0.46875,-0.890625 0.984375,-0.9375 z m 12.829104,-0.234375 v -3.6914064 h -0.50391 c -0.14062,0.457031 -0.24609,0.574219 -0.55078,0.574219 -0.15234,0 -0.351563,-0.04687 -0.714844,-0.164063 -0.773438,-0.292968 -1.324219,-0.398437 -1.980469,-0.398437 -2.320312,0 -3.726562,1.3125 -3.726562,3.4687499 0,1.4882812 0.878906,2.5546875 2.90625,3.5273437 l 1.136718,0.5390625 c 1.5,0.7148438 1.910157,1.1601563 1.910157,2.0625 0,1.17187502 -0.832032,1.92187502 -2.144532,1.92187502 -1.007812,0 -1.839843,-0.43359375 -2.484375,-1.26562502 -0.457031,-0.6210937 -0.691406,-1.1835937 -0.984375,-2.3789062 h -0.492187 v 4.20703122 h 0.492187 c 0.105469,-0.4453125 0.234375,-0.5859375 0.503907,-0.5859375 0.140625,0 0.328125,0.0585937 0.703125,0.17578125 0.832031,0.28125 1.464843,0.41015625 2.214843,0.41015625 2.507817,0 4.207027,-1.45312502 4.207027,-3.59765622 0,-1.265625 -0.76171,-2.5429688 -1.863277,-3.09375 l -2.507812,-1.2421875 c -1.371094,-0.6796875 -1.746094,-1.1015625 -1.746094,-1.921875 0,-1.0546874 0.714844,-1.6992184 1.875,-1.6992184 0.761719,0 1.476563,0.328125 2.085938,0.960937 0.574215,0.5859376 0.855465,1.0781251 1.195315,2.1914064 z m 8.0625,5.953125 c -0.69141,0.8320312 -1.20703,1.13671872 -1.9336,1.13671872 -0.66797,0 -1.16015,-0.30468752 -1.51172,-0.90234372 -0.30468,-0.5390625 -0.44531,-1.1015625 -0.51562,-2.2734375 h 4.28906 c -0.10547,-1.4296875 -0.36328,-2.2382813 -0.90234,-2.8828125 -0.53906,-0.65625 -1.34766,-0.9960938 -2.29688,-0.9960938 -2.10937,0 -3.53906,1.6757813 -3.53906,4.1601563 0,2.484375 1.39453,4.11328122 3.50391,4.11328122 1.38281,0 2.21484,-0.52734375 3.3164,-2.12109372 z m -4.04297,-2.671875 c 0.0469,-2.0390625 0.35156,-2.71875 1.19531,-2.71875 0.79688,0 1.04297,0.5742187 1.07813,2.4609375 v 0.2578125 z m 9.95215,-3.046875 h -1.60547 v -2.8710934 h -0.42188 c -1.04297,1.4648434 -1.72265,2.2265621 -2.82422,3.1640621 v 0.4570313 h 0.87891 v 5.5078125 c 0,1.10156247 0.73828,1.78124997 1.91016,1.78124997 1.13672,0 1.8164,-0.50390625 2.51953,-1.89843747 l -0.4336,-0.1875 c -0.33984,0.6445312 -0.60937,0.8789062 -0.96093,0.8789062 -0.48047,0 -0.66797,-0.28125 -0.66797,-0.9609375 v -5.1210937 h 1.60547 z m 3.29883,5.1914062 c -0.78516,0 -1.42969,0.6445313 -1.42969,1.4296875 0,0.80859377 0.60937,1.44140627 1.40625,1.44140627 0.82031,0 1.46484,-0.609375 1.46484,-1.41796877 0,-0.8085937 -0.64453,-1.453125 -1.4414,-1.453125 z m 0,-5.3789062 c -0.78516,0 -1.42969,0.6445312 -1.42969,1.4179687 0,0.8320313 0.60937,1.453125 1.42969,1.453125 0.79687,0 1.4414,-0.6445312 1.4414,-1.4296875 0,-0.796875 -0.64453,-1.4414062 -1.4414,-1.4414062 z m 0,0"
             style="fill:#000000;fill-opacity:1;fill-rule:nonzero;stroke:none"
             aria-label="Dependency Set:"
             transform="matrix(1.3333333,0,0,1.3333333,590.21173,166.27213)" />
          <g
             id="g101" />
        </g>
        <g
           id="g102">
          <g
             id="g103" />
          <path
             id="path103"
             d="M 5.1908094,-7.839925 H 3.5853406 v -2.871094 H 3.1634656 C 2.1204969,-9.246175 1.4408094,-8.4844562 0.33924688,-7.5469562 V -7.089925 H 1.2181531 v 5.5078125 c 0,1.1015625 0.7382813,1.78125 1.9101563,1.78125 1.1367187,0 1.8164062,-0.50390625 2.5195312,-1.8984375 L 5.2142469,-1.8868 c -0.3398438,0.6445313 -0.609375,0.8789063 -0.9609375,0.8789063 -0.4804688,0 -0.6679688,-0.28125 -0.6679688,-0.9609375 V -7.089925 h 1.6054688 z m 0,0"
             style="fill:#000000;fill-opacity:1;fill-rule:nonzero;stroke:none"
             aria-label="t"
             transform="matrix(1.3333333,0,0,1.3333333,590.21173,192.51573)" />
          <g
             id="g104" />
        </g>
        <g
           id="g105">
          <g
             id="g106" />
          <path
             id="path106"
             d="m 3.0362266,-8.35555 c -0.7851563,0 -1.59375,0.5273438 -2.08593754,1.40625 -0.38671875,0.6679688 -0.65625,1.8046875 -0.65625,2.8125 0,2.5195313 1.13671874,4.2890625 2.75390624,4.2890625 1.5820313,0 2.7421875,-1.7929687 2.7421875,-4.2421875 0,-2.4375 -1.1835937,-4.265625 -2.7539062,-4.265625 z m 0.8320312,5.6601563 c 0,0.7148437 -0.1054687,1.6640625 -0.2109375,1.99218745 -0.1289062,0.3515625 -0.328125,0.515625 -0.609375,0.515625 -0.609375,0 -0.8320312,-0.703125 -0.8320312,-2.50781245 v -2.7890625 c 0,-1.8398438 0.2109375,-2.53125 0.8085937,-2.53125 0.5976563,0 0.84375,0.75 0.84375,2.53125 z m 0,0"
             style="fill:#000000;fill-opacity:1;fill-rule:nonzero;stroke:none"
             aria-label="0"
             transform="matrix(1.3333333,0,0,1.3333333,597.74467,192.51573)" />
          <g
             id="g107" />
        </g>
        <g
           id="g108">
          <g
             id="g109" />
          <path
             id="path109"
             d="M 9.1298,-6.7852375 H 0.56339375 v 1.5 H 9.1298 Z m 0,3.46875 H 0.56339375 v 1.5 H 9.1298 Z m 0,0"
             style="fill:#000000;fill-opacity:1;fill-rule:nonzero;stroke:none"
             aria-label=" = "
             transform="matrix(1.3333333,0,0,1.3333333,611.51443,192.51573)" />
          <g
             id="g110" />
        </g>
        <g
           id="g111">
          <g
             id="g112">
            <path
               id="path112"
               d="M 2.3782813,-1.933675 C 1.405625,-3.0469562 0.8665625,-4.4883625 0.8665625,-5.9883625 c 0,-3.4101562 2.7890625,-6.1992185 6.2109375,-6.1992185 1.4765625,0 2.8710938,0.503906 4.007813,1.476562 l 0.03516,0.03516 1.535156,-1.535157 0.621094,0.632813 -1.511719,1.523437 0.03516,0.03516 c 0.972657,1.1718745 1.476563,2.554687 1.476563,4.0312495 0,3.4335938 -2.765625,6.2109375 -6.199219,6.2109375 -1.5,0 -2.9414062,-0.55078125 -4.0898437,-1.5117187 L 1.2884375,0.410075 0.66734375,-0.2227375 Z M 3.04625,-2.6016437 10.4525,-10.019612 c -0.9140625,-0.773438 -2.1328125,-1.21875 -3.375,-1.21875 -2.9179687,0 -5.2734375,2.367187 -5.2734375,5.2499995 0,1.2421875 0.421875,2.4023438 1.2421875,3.3867188 z M 11.085313,-9.3868 3.6673438,-1.9688312 c 0.9375,0.796875 2.1679687,1.24218745 3.4101562,1.24218745 2.90625,0 5.261719,-2.35546875 5.261719,-5.26171875 0,-1.2539062 -0.457031,-2.484375 -1.253906,-3.3984375 z m 0,0"
               style="fill:#000000;fill-opacity:1;fill-rule:nonzero;stroke:none"
               aria-label="Æ"
               transform="matrix(1.3333333,0,0,1.3333333,630.06333,192.51573)" />
          </g>
          <g
             id="g113" />
        </g>
        <g
           id="g114">
          <g
             id="g115" />
          <path
             id="path115"
             d="M 5.1908094,-7.8402609 H 3.5853406 v -2.8710941 h -0.421875 c -1.0429687,1.4648441 -1.7226562,2.2265628 -2.82421872,3.1640628 v 0.4570313 H 1.2181531 v 5.5078125 c 0,1.10156246 0.7382813,1.78124996 1.9101563,1.78124996 1.1367187,0 1.8164062,-0.50390625 2.5195312,-1.89843746 l -0.4335937,-0.1875 c -0.3398438,0.6445312 -0.609375,0.8789062 -0.9609375,0.8789062 -0.4804688,0 -0.6679688,-0.28125 -0.6679688,-0.9609375 v -5.1210937 h 1.6054688 z m 0,0"
             style="fill:#000000;fill-opacity:1;fill-rule:nonzero;stroke:none"
             aria-label="t"
             transform="matrix(1.3333333,0,0,1.3333333,590.21173,218.8404)" />
          <g
             id="g116" />
        </g>
        <g
           id="g117">
          <g
             id="g118" />
          <path
             id="path118"
             d="m 5.3682578,-0.29338594 c -1.0898437,-0.0117188 -1.3125,-0.2109375 -1.3125,-1.13671876 V -8.3558859 H 3.8565391 l -3.07031254,1.3242187 v 0.3164063 c 0.1171875,-0.046875 0.19921875,-0.082031 0.24609374,-0.1054688 0.328125,-0.1171875 0.6328125,-0.1992187 0.796875,-0.1992187 0.2929688,0 0.4335938,0.2578125 0.4335938,0.8320312 v 4.6757813 c 0.011719,0.98437496 -0.2460938,1.20703121 -1.45312504,1.21874996 V -4.171875e-4 H 5.3682578 Z m 0,0"
             style="fill:#000000;fill-opacity:1;fill-rule:nonzero;stroke:none"
             aria-label="1"
             transform="matrix(1.3333333,0,0,1.3333333,597.74467,218.8404)" />
          <g
             id="g119" />
        </g>
        <g
           id="g120">
          <g
             id="g121" />
          <path
             id="path121"
             d="M 9.1298,-6.7855734 H 0.56339375 v 1.5 H 9.1298 Z m 0,3.46875 H 0.56339375 v 1.5 H 9.1298 Z m 10.022461,-8.4843746 c -1.054688,0.5625 -1.535156,0.914062 -2.191406,1.617187 -1.453125,1.5585938 -2.226563,3.5742188 -2.226563,5.7773438 0,1.5703125 0.421875,3.046875 1.242188,4.35937501 0.773437,1.21874999 1.511718,1.89843749 3.175781,2.90624999 V 2.3784891 C 18.179605,1.7456766 17.75773,1.3238016 17.406167,0.56208281 c -0.515625,-1.0546875 -0.75,-2.62500001 -0.75,-4.94531251 0,-2.3671875 0.234375,-4.0664062 0.714844,-5.0859375 0.339844,-0.7499998 0.761719,-1.1953128 1.78125,-1.8749998 z m 12.178711,11.37890581 c -0.75,0 -0.9375,-0.24609375 -1.851563,-2.36718751 l -3.796875,-8.9414063 h -0.480468 l -3.773438,9.3164063 c -0.644531,1.59375001 -0.84375,1.83984376 -1.664062,1.99218751 v 0.4218750025 h 3.457031 V -0.42229219 c -1.019531,-0.0703125 -1.394531,-0.2578125 -1.394531,-0.70312501 0,-0.2226562 0.117187,-0.6210937 0.492187,-1.546875 l 0.246094,-0.6796875 h 3.832031 c 0.574219,1.3476563 0.785156,1.9453125 0.785156,2.3085938 0,0.37499996 -0.222656,0.52734371 -0.820312,0.56249996 -0.08203,0.0234375 -0.304688,0.0351563 -0.539063,0.0585938 v 0.4218750025 h 5.507813 z m -8.507813,-3.58593751 1.605469,-4.1367187 1.710938,4.1367187 z m 10.042969,7.0664063 c 1.96875,-1.1367188 2.824219,-2.26171879 2.824219,-3.72656254 0,-1.17187496 -0.703125,-1.96874996 -1.722656,-1.96874996 -0.855469,0 -1.40625,0.5507812 -1.40625,1.4179687 0,0.77343751 0.492187,1.32421876 1.242187,1.32421876 0.08203,0 0.175781,0 0.28125,-0.0234375 0.05859,-0.01171875 0.08203,-0.01171875 0.117188,-0.01171875 0.1875,0 0.328125,0.15234375 0.328125,0.3515625 0,0.66796879 -0.574219,1.38281249 -1.851563,2.26171879 z M 40.63273,-4.171875e-4 h 5.378906 c 3.667969,0 6.117187,-2.3437500125 6.117187,-5.8710937125 0,-3.5039063 -2.355468,-5.6250001 -6.304687,-5.6250001 H 40.63273 v 0.421875 c 1.078125,0.09375 1.394531,0.339844 1.417968,1.1484376 v 8.3789062 c 0,0.75000001 -0.457031,1.12500001 -1.417968,1.12500001 z M 44.804605,-10.324636 c 0,-0.386719 0.339843,-0.597656 0.996093,-0.597656 1.230469,0 2.074219,0.5625 2.671875,1.7343748 0.457032,0.890625 0.703125,2.1328125 0.703125,3.5742188 0,1.6054687 -0.339843,3.0820312 -0.890625,3.84375 -0.574218,0.78515621 -1.394531,1.17187496 -2.496093,1.17187496 -0.761719,0 -0.984375,-0.22265625 -0.984375,-0.98437496 z m 8.332031,13.1835938 c 1.054687,-0.5625 1.535156,-0.9257812 2.191406,-1.640625 1.453125,-1.54687499 2.226563,-3.5625 2.226563,-5.7539062 0,-1.546875 -0.421875,-3.046875 -1.230469,-4.359375 -0.785156,-1.2187496 -1.523438,-1.8984376 -3.1875,-2.9062496 v 0.480468 c 0.972656,0.609375 1.394531,1.054688 1.757812,1.8164066 0.503907,1.0546875 0.738282,2.6132812 0.738282,4.9453125 0,2.34375 -0.234375,4.06640621 -0.703125,5.08593746 C 54.589761,1.2769266 54.156167,1.7222391 53.136636,2.4019266 Z m 0,0"
             style="fill:#000000;fill-opacity:1;fill-rule:nonzero;stroke:none"
             aria-label=" = (A, D)"
             transform="matrix(1.3333333,0,0,1.3333333,611.51443,218.8404)" />
          <g
             id="g122" />
        </g>
        <g
           id="g123">
          <g
             id="g124" />
          <path
             id="path124"
             d="M 5.1908094,-7.8405969 H 3.5853406 v -2.8710941 h -0.421875 c -1.0429687,1.4648441 -1.7226562,2.2265629 -2.82421872,3.1640629 v 0.4570312 H 1.2181531 v 5.5078125 c 0,1.10156253 0.7382813,1.78125003 1.9101563,1.78125003 1.1367187,0 1.8164062,-0.50390625 2.5195312,-1.89843753 l -0.4335937,-0.1875 c -0.3398438,0.6445313 -0.609375,0.8789063 -0.9609375,0.8789063 -0.4804688,0 -0.6679688,-0.28125 -0.6679688,-0.9609375 v -5.1210938 h 1.6054688 z m 0,0"
             style="fill:#000000;fill-opacity:1;fill-rule:nonzero;stroke:none"
             aria-label="t"
             transform="matrix(1.3333333,0,0,1.3333333,590.21173,245.16507)" />
          <g
             id="g125" />
        </g>
        <g
           id="g126">
          <g
             id="g127" />
          <path
             id="path127"
             d="M 5.8135703,-2.5671594 H 5.5206016 c -0.3515625,0.8671875 -0.4921875,0.9375 -1.734375,0.9492188 H 1.9463828 l 1.96875,-1.875 c 0.9609375,-0.9023438 1.3828125,-1.7226563 1.3828125,-2.6484375 0,-1.3007813 -0.9257812,-2.2148438 -2.25,-2.2148438 -0.609375,0 -1.1835937,0.234375 -1.6171875,0.6796875 -0.46874999,0.46875 -0.71484374,0.8789063 -1.05468749,1.7929688 H 0.71591406 C 1.0909141,-6.6452844 1.5479453,-6.9734094 2.2041953,-6.9734094 c 0.5273438,0 0.9492188,0.2226563 1.1953125,0.6679688 0.1523438,0.2578125 0.2460938,0.5976562 0.2460938,0.8671875 0,0.5390625 -0.234375,1.2070312 -0.6210938,1.8046875 -0.6210937,0.9375 -1.0429687,1.453125 -2.81249999,3.35156248 V -7.53125e-4 H 5.2627891 Z m 0,0"
             style="fill:#000000;fill-opacity:1;fill-rule:nonzero;stroke:none"
             aria-label="2"
             transform="matrix(1.3333333,0,0,1.3333333,597.74467,245.16507)" />
          <g
             id="g128" />
        </g>
        <g
           id="g129">
          <g
             id="g130" />
          <path
             id="path130"
             d="M 9.1298,-6.7859094 H 0.56339375 v 1.5 H 9.1298 Z m 0,3.46875 H 0.56339375 v 1.5 H 9.1298 Z m 10.022461,-8.4843746 c -1.054688,0.5625 -1.535156,0.914062 -2.191406,1.617187 -1.453125,1.5585939 -2.226563,3.5742189 -2.226563,5.7773439 0,1.5703125 0.421875,3.046875 1.242188,4.35937498 0.773437,1.21875002 1.511718,1.89843752 3.175781,2.90625002 V 2.3781531 C 18.179605,1.7453406 17.75773,1.3234656 17.406167,0.56174688 c -0.515625,-1.0546875 -0.75,-2.62499998 -0.75,-4.94531248 0,-2.3671875 0.234375,-4.0664063 0.714844,-5.0859375 0.339844,-0.7499999 0.761719,-1.1953129 1.78125,-1.8749999 z m 12.178711,11.37890588 c -0.75,0 -0.9375,-0.24609375 -1.851563,-2.36718748 l -3.796875,-8.9414064 h -0.480468 l -3.773438,9.3164064 c -0.644531,1.59374998 -0.84375,1.83984373 -1.664062,1.99218748 v 0.421874995 h 3.457031 V -0.42262812 c -1.019531,-0.0703125 -1.394531,-0.2578125 -1.394531,-0.70312498 0,-0.2226563 0.117187,-0.6210938 0.492187,-1.546875 l 0.246094,-0.6796875 h 3.832031 c 0.574219,1.3476562 0.785156,1.9453125 0.785156,2.3085937 0,0.37500003 -0.222656,0.52734378 -0.820312,0.56250003 -0.08203,0.0234375 -0.304688,0.0351563 -0.539063,0.0585938 v 0.421874995 h 5.507813 z m -8.507813,-3.58593748 1.605469,-4.1367188 1.710938,4.1367188 z m 10.042969,7.0664062 c 1.96875,-1.1367187 2.824219,-2.26171872 2.824219,-3.72656247 0,-1.17187503 -0.703125,-1.96875003 -1.722656,-1.96875003 -0.855469,0 -1.40625,0.5507813 -1.40625,1.4179688 0,0.77343748 0.492187,1.32421873 1.242187,1.32421873 0.08203,0 0.175781,0 0.28125,-0.0234375 0.05859,-0.01171875 0.08203,-0.01171875 0.117188,-0.01171875 0.1875,0 0.328125,0.15234375 0.328125,0.3515625 0,0.66796872 -0.574219,1.38281252 -1.851563,2.26171872 z m 7.801758,-3.058593725 h 5.472656 c 2.882813,0 4.78125,-1.277343775 4.78125,-3.199218775 0,-0.7851562 -0.316406,-1.4648437 -0.914062,-1.9921875 -0.597657,-0.5039062 -1.171875,-0.7617187 -2.367188,-1.0195312 1.96875,-0.5742188 2.707031,-1.265625 2.707031,-2.5664063 0,-1.7460941 -1.570312,-2.7187501 -4.417968,-2.7187501 h -5.261719 v 0.421875 c 1.136719,0.05859 1.464844,0.316406 1.5,1.2070314 v 8.2382812 c -0.03516,0.87890628 -0.292969,1.10156253 -1.5,1.20703128 z m 4.21875,-5.835937475 h 0.515625 c 1.746094,0 2.601562,0.9257812 2.601562,2.7890625 0,1.6523437 -0.703125,2.50781248 -2.074218,2.50781248 -0.75,0 -1.042969,-0.29296875 -1.042969,-1.04296878 z m 0,-4.3125004 c 0,-0.609375 0.234375,-0.832031 0.914062,-0.832031 1.195313,0 1.734375,0.726563 1.734375,2.3203126 0,1.7929688 -0.550781,2.2617188 -2.648437,2.3203125 z m 7.828125,13.2070316 c 1.96875,-1.1367187 2.824219,-2.26171872 2.824219,-3.72656247 0,-1.17187503 -0.703125,-1.96875003 -1.722657,-1.96875003 -0.855468,0 -1.40625,0.5507813 -1.40625,1.4179688 0,0.77343748 0.492188,1.32421873 1.242188,1.32421873 0.08203,0 0.175781,0 0.28125,-0.0234375 0.05859,-0.01171875 0.08203,-0.01171875 0.117187,-0.01171875 0.1875,0 0.328125,0.15234375 0.328125,0.3515625 0,0.66796872 -0.574218,1.38281252 -1.851562,2.26171872 z m 18.700195,-5.6484375 c -0.996093,1.0546875 -1.546875,1.4648438 -2.378906,1.79296878 -0.492187,0.19921875 -1.054687,0.3046875 -1.523437,0.3046875 -1.125,0 -2.203125,-0.59765628 -2.695313,-1.47656248 -0.492187,-0.9023438 -0.726562,-2.109375 -0.726562,-3.8320313 0,-3.515625 1.089843,-5.3906246 3.128906,-5.3906246 0.796875,0 1.511719,0.304687 2.261719,0.949218 0.726562,0.6562504 1.136718,1.2421879 1.710937,2.5195316 h 0.433594 v -3.9726566 h -0.457031 c -0.257813,0.609375 -0.410157,0.773438 -0.773438,0.773438 -0.152344,0 -0.386719,-0.05859 -0.761719,-0.234375 -0.972656,-0.410156 -1.804687,-0.597656 -2.625,-0.597656 -3.398437,0 -5.929687,2.6015621 -5.929687,6.0937496 0,3.515625 2.484375,5.98828128 6.023437,5.98828128 1.957032,0 3.105469,-0.59765625 4.828125,-2.48437498 z m 2.085938,5.6484375 c 1.96875,-1.1367187 2.824219,-2.26171872 2.824219,-3.72656247 0,-1.17187503 -0.703125,-1.96875003 -1.722657,-1.96875003 -0.855468,0 -1.40625,0.5507813 -1.40625,1.4179688 0,0.77343748 0.492188,1.32421873 1.242188,1.32421873 0.08203,0 0.175781,0 0.28125,-0.0234375 0.05859,-0.01171875 0.08203,-0.01171875 0.117187,-0.01171875 0.1875,0 0.328125,0.15234375 0.328125,0.3515625 0,0.66796872 -0.574218,1.38281252 -1.851562,2.26171872 z m 7.766601,-3.058593725 h 5.378907 c 3.667968,0 6.117187,-2.343749975 6.117187,-5.871093775 0,-3.5039062 -2.355469,-5.6250001 -6.304687,-5.6250001 h -5.191407 v 0.421875 c 1.078125,0.09375 1.394532,0.339844 1.417969,1.1484376 v 8.3789063 c 0,0.74999998 -0.457031,1.12499998 -1.417969,1.12499998 z M 85.43937,-10.324972 c 0,-0.386719 0.339844,-0.597656 0.996094,-0.597656 1.230469,0 2.074219,0.5625 2.671875,1.7343749 0.457031,0.890625 0.703125,2.1328125 0.703125,3.5742187 0,1.6054688 -0.339844,3.0820313 -0.890625,3.84375 -0.574219,0.78515628 -1.394531,1.17187503 -2.496094,1.17187503 -0.761718,0 -0.984375,-0.22265625 -0.984375,-0.98437503 z m 8.332032,13.1835939 c 1.054687,-0.5625 1.535156,-0.9257813 2.191406,-1.640625 1.453125,-1.54687502 2.226562,-3.5625 2.226562,-5.7539063 0,-1.546875 -0.421875,-3.046875 -1.230468,-4.359375 -0.785157,-1.2187496 -1.523438,-1.8984376 -3.1875,-2.9062496 v 0.480468 c 0.972656,0.609375 1.394531,1.054688 1.757812,1.8164066 0.503906,1.0546875 0.738281,2.6132813 0.738281,4.9453125 0,2.34375 -0.234375,4.06640628 -0.703125,5.08593753 C 95.224527,1.2765906 94.790933,1.7219031 93.771402,2.4015906 Z m 0,0"
             style="fill:#000000;fill-opacity:1;fill-rule:nonzero;stroke:none"
             aria-label=" = (A, B, C, D)"
             transform="matrix(1.3333333,0,0,1.3333333,611.51443,245.16507)" />
          <g
             id="g131" />
        </g>
        <g
           id="g132">
          <g
             id="g133" />
          <path
             id="path133"
             d="M 5.1908094,-7.8388266 H 3.5853406 V -10.70992 h -0.421875 c -1.0429687,1.4648434 -1.7226562,2.2265622 -2.82421872,3.1640622 v 0.4570312 H 1.2181531 v 5.5078125 c 0,1.10156254 0.7382813,1.78125004 1.9101563,1.78125004 1.1367187,0 1.8164062,-0.50390625 2.5195312,-1.89843754 l -0.4335937,-0.1875 c -0.3398438,0.6445313 -0.609375,0.8789063 -0.9609375,0.8789063 -0.4804688,0 -0.6679688,-0.28125 -0.6679688,-0.9609375 v -5.1210938 h 1.6054688 z m 0,0"
             style="fill:#000000;fill-opacity:1;fill-rule:nonzero;stroke:none"
             aria-label="t"
             transform="matrix(1.3333333,0,0,1.3333333,590.21173,271.4088)" />
          <g
             id="g134" />
        </g>
        <g
           id="g135">
          <g
             id="g136" />
          <path
             id="path136"
             d="m 0.70419531,-6.3505453 c 0.46874999,-0.75 0.86718749,-1.0195313 1.49999999,-1.0195313 0.7617188,0 1.2304688,0.46875 1.2304688,1.2421875 0,0.8085938 -0.421875,1.2304688 -1.5703125,1.59375 v 0.2109375 c 1.0078125,0.3515625 1.40625,0.5625 1.8398437,0.9726563 0.375,0.3515625 0.5976563,0.9023437 0.5976563,1.4765625 0,0.87890624 -0.4570313,1.44140624 -1.1953125,1.44140624 -0.28125,0 -0.515625,-0.140625 -0.9140625,-0.52734375 C 1.7120078,-1.4286703 1.3604453,-1.6278891 0.98544531,-1.6278891 c -0.45703125,0 -0.78515625,0.2929688 -0.78515625,0.70312504 0,0.65625 0.7265625,1.1015625 1.83984374,1.1015625 2.0390625,0 3.6445313,-1.39453124 3.6445313,-3.16406254 0,-0.5742187 -0.1757813,-1.078125 -0.5273438,-1.5117187 -0.2578125,-0.3046875 -0.46875,-0.4335938 -0.9492187,-0.65625 0.7734375,-0.46875 1.0078125,-0.8203125 1.0078125,-1.5351563 0,-1.0546875 -0.7382813,-1.6640625 -1.9804688,-1.6640625 -1.2070312,0 -2.1210937,0.5976563 -2.78906249,1.8515625 z m 0,0"
             style="fill:#000000;fill-opacity:1;fill-rule:nonzero;stroke:none"
             aria-label="3"
             transform="matrix(1.3333333,0,0,1.3333333,597.74467,271.4088)" />
          <g
             id="g137" />
        </g>
        <g
           id="g138">
          <g
             id="g139" />
          <path
             id="path139"
             d="M 9.1298,-6.7841391 H 0.56339375 v 1.5 H 9.1298 Z m 0,3.46875 H 0.56339375 v 1.5 H 9.1298 Z m 10.022461,-8.4843749 c -1.054688,0.5625 -1.535156,0.914062 -2.191406,1.617187 -1.453125,1.5585942 -2.226563,3.5742192 -2.226563,5.7773442 0,1.5703125 0.421875,3.046875 1.242188,4.35937499 0.773437,1.21875001 1.511718,1.89843751 3.175781,2.90625001 V 2.3799234 C 18.179605,1.7471109 17.75773,1.3252359 17.406167,0.56351719 c -0.515625,-1.0546875 -0.75,-2.62499999 -0.75,-4.94531249 0,-2.3671875 0.234375,-4.0664063 0.714844,-5.0859375 0.339844,-0.7500002 0.761719,-1.1953122 1.78125,-1.8750002 z m 12.178711,11.37890619 c -0.75,0 -0.9375,-0.24609375 -1.851563,-2.36718749 l -3.796875,-8.9414067 h -0.480468 l -3.773438,9.3164067 c -0.644531,1.59374999 -0.84375,1.83984374 -1.664062,1.99218749 v 0.421875 h 3.457031 v -0.421875 c -1.019531,-0.0703125 -1.394531,-0.2578125 -1.394531,-0.70312499 0,-0.2226563 0.117187,-0.6210938 0.492187,-1.546875 l 0.246094,-0.6796875 h 3.832031 c 0.574219,1.3476562 0.785156,1.9453125 0.785156,2.3085937 0,0.37500004 -0.222656,0.52734379 -0.820312,0.56250004 -0.08203,0.0234375 -0.304688,0.0351563 -0.539063,0.0585938 v 0.421875 h 5.507813 z m -8.507813,-3.58593749 1.605469,-4.1367188 1.710938,4.1367188 z m 10.042969,7.0664062 c 1.96875,-1.1367187 2.824219,-2.26171871 2.824219,-3.72656246 0,-1.17187504 -0.703125,-1.96875004 -1.722656,-1.96875004 -0.855469,0 -1.40625,0.5507813 -1.40625,1.4179688 0,0.77343749 0.492187,1.32421874 1.242187,1.32421874 0.08203,0 0.175781,0 0.28125,-0.0234375 0.05859,-0.01171875 0.08203,-0.01171875 0.117188,-0.01171875 0.1875,0 0.328125,0.15234375 0.328125,0.3515625 0,0.66796871 -0.574219,1.38281251 -1.851563,2.26171871 z m 7.801758,-3.05859371 h 5.472656 c 2.882813,0 4.78125,-1.27734379 4.78125,-3.19921879 0,-0.7851562 -0.316406,-1.4648437 -0.914062,-1.9921875 -0.597657,-0.5039062 -1.171875,-0.7617187 -2.367188,-1.0195312 1.96875,-0.5742188 2.707031,-1.265625 2.707031,-2.5664063 0,-1.7460934 -1.570312,-2.7187504 -4.417968,-2.7187504 h -5.261719 v 0.421875 c 1.136719,0.05859 1.464844,0.316407 1.5,1.2070317 v 8.2382812 c -0.03516,0.87890629 -0.292969,1.10156254 -1.5,1.20703129 z m 4.21875,-5.83593749 h 0.515625 c 1.746094,0 2.601562,0.9257812 2.601562,2.7890625 0,1.6523437 -0.703125,2.50781249 -2.074218,2.50781249 -0.75,0 -1.042969,-0.29296875 -1.042969,-1.04296879 z m 0,-4.3124997 c 0,-0.609375 0.234375,-0.832032 0.914062,-0.832032 1.195313,0 1.734375,0.726563 1.734375,2.3203129 0,1.7929688 -0.550781,2.2617188 -2.648437,2.3203125 z m 7.828125,13.2070309 c 1.96875,-1.1367187 2.824219,-2.26171871 2.824219,-3.72656246 0,-1.17187504 -0.703125,-1.96875004 -1.722657,-1.96875004 -0.855468,0 -1.40625,0.5507813 -1.40625,1.4179688 0,0.77343749 0.492188,1.32421874 1.242188,1.32421874 0.08203,0 0.175781,0 0.28125,-0.0234375 0.05859,-0.01171875 0.08203,-0.01171875 0.117187,-0.01171875 0.1875,0 0.328125,0.15234375 0.328125,0.3515625 0,0.66796871 -0.574218,1.38281251 -1.851562,2.26171871 z m 18.700195,-5.6484375 c -0.996093,1.0546875 -1.546875,1.4648438 -2.378906,1.79296879 -0.492187,0.19921875 -1.054687,0.3046875 -1.523437,0.3046875 -1.125,0 -2.203125,-0.59765629 -2.695313,-1.47656249 -0.492187,-0.9023438 -0.726562,-2.109375 -0.726562,-3.8320313 0,-3.515625 1.089843,-5.3906249 3.128906,-5.3906249 0.796875,0 1.511719,0.304687 2.261719,0.949219 0.726562,0.6562497 1.136718,1.2421872 1.710937,2.5195309 h 0.433594 v -3.9726559 h -0.457031 c -0.257813,0.609375 -0.410157,0.773437 -0.773438,0.773437 -0.152344,0 -0.386719,-0.05859 -0.761719,-0.234375 -0.972656,-0.410156 -1.804687,-0.597656 -2.625,-0.597656 -3.398437,0 -5.929687,2.6015624 -5.929687,6.0937499 0,3.515625 2.484375,5.98828129 6.023437,5.98828129 1.957032,0 3.105469,-0.59765625 4.828125,-2.48437499 z m 2.085938,5.6484375 c 1.96875,-1.1367187 2.824219,-2.26171871 2.824219,-3.72656246 0,-1.17187504 -0.703125,-1.96875004 -1.722657,-1.96875004 -0.855468,0 -1.40625,0.5507813 -1.40625,1.4179688 0,0.77343749 0.492188,1.32421874 1.242188,1.32421874 0.08203,0 0.175781,0 0.28125,-0.0234375 0.05859,-0.01171875 0.08203,-0.01171875 0.117187,-0.01171875 0.1875,0 0.328125,0.15234375 0.328125,0.3515625 0,0.66796871 -0.574218,1.38281251 -1.851562,2.26171871 z m 7.766601,-3.05859371 h 5.378907 c 3.667968,0 6.117187,-2.34374999 6.117187,-5.87109379 0,-3.5039062 -2.355469,-5.6250004 -6.304687,-5.6250004 h -5.191407 v 0.421875 c 1.078125,0.09375 1.394532,0.339844 1.417969,1.1484379 v 8.3789063 c 0,0.74999999 -0.457031,1.12499999 -1.417969,1.12499999 z M 85.43937,-10.323202 c 0,-0.386718 0.339844,-0.597656 0.996094,-0.597656 1.230469,0 2.074219,0.5625 2.671875,1.7343752 0.457031,0.890625 0.703125,2.1328125 0.703125,3.5742187 0,1.6054688 -0.339844,3.0820313 -0.890625,3.84375 -0.574219,0.78515629 -1.394531,1.17187504 -2.496094,1.17187504 -0.761718,0 -0.984375,-0.22265625 -0.984375,-0.98437504 z m 8.332032,13.1835942 c 1.054687,-0.5625 1.535156,-0.9257813 2.191406,-1.640625 1.453125,-1.54687501 2.226562,-3.5625 2.226562,-5.7539063 0,-1.546875 -0.421875,-3.046875 -1.230468,-4.359375 -0.785157,-1.2187499 -1.523438,-1.8984379 -3.1875,-2.9062499 v 0.480469 c 0.972656,0.609375 1.394531,1.054687 1.757812,1.8164059 0.503906,1.0546875 0.738281,2.6132813 0.738281,4.9453125 0,2.34375 -0.234375,4.06640629 -0.703125,5.08593754 C 95.224527,1.2783609 94.790933,1.7236734 93.771402,2.4033609 Z m 0,0"
             style="fill:#000000;fill-opacity:1;fill-rule:nonzero;stroke:none"
             aria-label=" = (A, B, C, D)"
             transform="matrix(1.3333333,0,0,1.3333333,611.51443,271.4088)" />
          <g
             id="g140" />
        </g>
        <path
           id="path140"
           d="m 355.6252,528.9246 h 34.9916 v -34.9917 h -34.9916 z"
           style="fill:none;stroke:#000000;stroke-width:1;stroke-linecap:butt;stroke-linejoin:miter;stroke-miterlimit:10;stroke-dasharray:none;stroke-opacity:1"
           transform="matrix(1.3333333,0,0,-1.3333333,-20,717.33333)" />
        <g
           id="g141">
          <g
             id="g142">
            <path
               id="path142"
               d="M 0.23447969,7.953125e-4 H 5.6133859 c 3.6679688,0 6.1171871,-2.3437500125 6.1171871,-5.8710937125 0,-3.5039063 -2.3554683,-5.6249996 -6.3046871,-5.6249996 H 0.23447969 v 0.421875 c 1.07812501,0.09375 1.39453121,0.339843 1.41796871,1.1484371 v 8.3789062 c 0,0.75000001 -0.4570312,1.12500001 -1.41796871,1.12500001 z M 4.4063547,-10.323423 c 0,-0.386719 0.3398437,-0.597657 0.9960937,-0.597657 1.2304688,0 2.0742188,0.5625 2.671875,1.7343753 0.4570313,0.890625 0.703125,2.1328125 0.703125,3.5742188 0,1.6054687 -0.3398437,3.0820312 -0.890625,3.84375 -0.5742187,0.78515621 -1.3945312,1.17187496 -2.4960937,1.17187496 -0.7617188,0 -0.984375,-0.22265625 -0.984375,-0.98437496 z m 0,0"
               style="fill:#000000;fill-opacity:1;fill-rule:nonzero;stroke:none"
               aria-label="D"
               transform="matrix(1.3333333,0,0,1.3333333,469.31627,43.682533)" />
            <path
               id="path143"
               d="m 1.4651984,-8.9757672 h 0.9492188 l 2.4140625,-1.4999998 c 0.5625,-0.339844 0.6796875,-0.503906 0.6796875,-0.902344 0,-0.433594 -0.3164063,-0.75 -0.8203125,-0.75 -0.3398438,0 -0.609375,0.152344 -0.890625,0.480469 z m 0,0"
               style="fill:#000000;fill-opacity:1;fill-rule:nonzero;stroke:none"
               aria-label="´"
               transform="matrix(1.3333333,0,0,1.3333333,485.69093,43.682533)" />
          </g>
          <g
             id="g143" />
        </g>
        <path
           id="path144"
           d="m 353.2144,514.5353 -9.0302,-0.9161 1.257,5.5999 z"
           style="fill:#000000;fill-opacity:1;fill-rule:nonzero;stroke:none"
           transform="matrix(1.3333333,0,0,-1.3333333,-20,717.33333)" />
        <path
           id="path145"
           d="m 319.1974,489.2628 c 3.8885,9.0716 5.9927,23.0029 11.6617,27.2149 3.6507,2.7105 8.7789,1.3949 13.9553,-0.0585"
           style="fill:none;stroke:#000000;stroke-width:1;stroke-linecap:butt;stroke-linejoin:miter;stroke-miterlimit:10;stroke-dasharray:none;stroke-opacity:1"
           transform="matrix(1.3333333,0,0,-1.3333333,-20,717.33333)" />
      </g>
    </g>
  </g>
</svg>
