<?xml version="1.0" encoding="UTF-8" standalone="no"?>
<!-- Created with Inkscape (http://www.inkscape.org/) -->

<svg
   version="1.1"
   id="svg1"
   width="297.0036"
   height="61.006908"
   viewBox="0 0 297.0036 61.006908"
   xmlns="http://www.w3.org/2000/svg"
   xmlns:svg="http://www.w3.org/2000/svg">
  <defs
     id="defs1" />
  <g
     id="g1"
     transform="translate(-264.41552,-332.65625)">
    <path
       id="path1"
       d="m 2294.54,5125.23 c 0,84.89 -68.83,153.72 -153.72,153.72 -84.89,0 -153.72,-68.83 -153.72,-153.72 0,-84.9 68.83,-153.72 153.72,-153.72 84.89,0 153.72,68.82 153.72,153.72"
       style="fill:none;stroke:#000000;stroke-width:7.96717;stroke-linecap:butt;stroke-linejoin:miter;stroke-miterlimit:10;stroke-dasharray:none;stroke-opacity:1"
       transform="matrix(0.13333333,0,0,-0.13333333,0,1056)" />
    <path
       id="path2"
       d="m 3250.6,5125.23 c 0,84.89 -68.82,153.72 -153.72,153.72 -84.89,0 -153.72,-68.83 -153.72,-153.72 0,-84.9 68.83,-153.72 153.72,-153.72 84.9,0 153.72,68.82 153.72,153.72"
       style="fill:none;stroke:#000000;stroke-width:7.96717;stroke-linecap:butt;stroke-linejoin:miter;stroke-miterlimit:10;stroke-dasharray:none;stroke-opacity:1"
       transform="matrix(0.13333333,0,0,-0.13333333,0,1056)" />
    <path
       id="path3"
       d="m 4206.66,5125.23 c 0,84.89 -68.82,153.72 -153.72,153.72 -84.89,0 -153.72,-68.83 -153.72,-153.72 0,-84.9 68.83,-153.72 153.72,-153.72 84.9,0 153.72,68.82 153.72,153.72"
       style="fill:none;stroke:#000000;stroke-width:7.96717;stroke-linecap:butt;stroke-linejoin:miter;stroke-miterlimit:10;stroke-dasharray:none;stroke-opacity:1"
       transform="matrix(0.13333333,0,0,-0.13333333,0,1056)" />
    <path
       id="path4"
       d="m 2294.55,5098.99 c 0,0 0,0 31.86,21.24 31.87,21.25 95.61,63.74 169.97,84.99 74.36,21.24 159.34,21.24 233.7,10.62 74.37,-10.62 138.1,-31.87 169.97,-42.49 31.87,-10.62 31.87,-10.62 31.87,-10.62"
       style="fill:none;stroke:#000000;stroke-width:7.96717;stroke-linecap:butt;stroke-linejoin:miter;stroke-miterlimit:10;stroke-dasharray:none;stroke-opacity:1"
       transform="matrix(0.13333333,0,0,-0.13333333,0,1056)" />
    <path
       id="path5"
       d="m 2862.63,5206.82 69.29,-44.09 -81.88,6.29"
       style="fill:none;stroke:#000000;stroke-width:7.96717;stroke-linecap:butt;stroke-linejoin:miter;stroke-miterlimit:10;stroke-dasharray:none;stroke-opacity:1"
       transform="matrix(0.13333333,0,0,-0.13333333,0,1056)" />
    <path
       id="path6"
       d="m 3250.61,5098.99 c 0,0 0,0 31.86,21.24 31.87,21.25 95.61,63.74 169.97,84.99 74.36,21.24 159.35,21.24 233.7,10.62 74.36,-10.62 138.1,-31.87 169.97,-42.49 31.87,-10.62 31.87,-10.62 31.87,-10.62"
       style="fill:none;stroke:#000000;stroke-width:7.96717;stroke-linecap:butt;stroke-linejoin:miter;stroke-miterlimit:10;stroke-dasharray:none;stroke-opacity:1"
       transform="matrix(0.13333333,0,0,-0.13333333,0,1056)" />
    <path
       id="path7"
       d="m 3818.7,5206.82 69.28,-44.09 -81.88,6.29"
       style="fill:none;stroke:#000000;stroke-width:7.96717;stroke-linecap:butt;stroke-linejoin:miter;stroke-miterlimit:10;stroke-dasharray:none;stroke-opacity:1"
       transform="matrix(0.13333333,0,0,-0.13333333,0,1056)" />
    <path
       id="path8"
       d="m 3.3868437,-10.453031 c -1.4414062,1.8749998 -2.34375,4.488281 -2.34375,6.738281 0,2.2617188 0.9023438,4.875 2.34375,6.75 H 4.172 c -1.265625,-2.05078125 -1.96875,-4.453125 -1.96875,-6.75 0,-2.2851562 0.703125,-4.6992187 1.96875,-6.738281 z m 9.2900393,3.2343748 c -0.410156,-2.296875 -1.734375,-3.4101558 -4.0312502,-3.4101558 -1.40625,0 -2.53125,0.445312 -3.3046875,1.3007808 -0.9492187,1.0429687 -1.4648437,2.53125 -1.4648437,4.21875 0,1.7226562 0.5273437,3.1992187 1.5,4.21874995 0.8203125,0.83203125 1.8515625,1.21875 3.2109375,1.21875 2.5546879,0 3.9960939,-1.37109375 4.3124999,-4.14843745 h -1.382812 c -0.117188,0.7265625 -0.257813,1.2070312 -0.46875,1.6289062 -0.433594,0.8554688 -1.3242192,1.34765625 -2.4375004,1.34765625 -2.0859375,0 -3.3984375,-1.66406245 -3.3984375,-4.27734375 0,-2.6835937 1.2421875,-4.3359375 3.28125,-4.3359375 0.84375,0 1.6289059,0.2460938 2.0624999,0.6679688 0.386719,0.3515625 0.609375,0.7851562 0.761719,1.5703125 z m 1.125,-0.1640625 V 9.375e-5 h 1.265625 V -10.371 h -0.832031 c -0.445313,1.59375 -0.738282,1.8046875 -2.683594,2.0625 v 0.9257813 z m 7.081054,-2.7890623 -2.191406,5.4492185 h 0.984375 l 1.734375,-4.3007812 1.757813,4.3007812 h 0.984375 l -2.226563,-5.4492185 z m 3.840821,-0.28125 H 23.516727 V 9.375e-5 h 1.207031 z m 2.097656,2.941406 H 25.626102 V 9.375e-5 h 1.195312 z m 0,-2.941406 h -1.207031 v 1.4999998 h 1.207031 z M 27.797,-7.511625 V 9.375e-5 h 1.195312 V -4.1483437 c 0,-1.5351563 0.808594,-2.53125 2.039063,-2.53125 0.949219,0 1.546875,0.5742187 1.546875,1.4765625 V 9.375e-5 h 1.195312 V -5.6835 c 0,-1.2421875 -0.925781,-2.0507812 -2.378906,-2.0507812 -1.125,0 -1.839844,0.4335937 -2.496094,1.4765625 V -7.511625 Z m 6.333984,-2.941406 H 32.935672 V 9.375e-5 h 1.195312 V -2.9295937 l 1.160157,-1.1484375 2.53125,4.07812495 h 1.476562 L 36.240359,-4.9217812 38.841922,-7.511625 h -1.535156 l -3.175782,3.1757813 z M 40.678836,9.375e-5 h 4.710937 c 0.996094,0 1.722657,-0.26953125 2.285157,-0.87890625 0.515625,-0.5390625 0.808593,-1.2890625 0.808593,-2.109375 0,-1.2539062 -0.574218,-2.015625 -1.910156,-2.53125 0.960938,-0.4453125 1.441406,-1.2070312 1.441406,-2.2851562 0,-0.7734375 -0.28125,-1.4296875 -0.832031,-1.921875 -0.550781,-0.5039063 -1.253906,-0.7265623 -2.261719,-0.7265623 h -4.242187 z m 1.335937,-5.95312495 v -3.328125 h 2.578125 c 0.738282,0 1.160157,0.1054687 1.523438,0.375 0.363281,0.28125 0.574219,0.7148437 0.574219,1.2890625 0,0.5742187 -0.210938,1.0078125 -0.574219,1.2890625 -0.363281,0.2695312 -0.785156,0.375 -1.523438,0.375 z m 0,4.78125 v -3.609375 h 3.246094 c 1.183594,0 1.886719,0.6796875 1.886719,1.8164062 0,1.1132813 -0.703125,1.7929688 -1.886719,1.7929688 z m 7.620118,-6.2109375 V 9.375e-5 h 1.265625 V -10.371 h -0.832032 c -0.445312,1.59375 -0.738281,1.8046875 -2.683593,2.0625 v 0.9257813 z M 52.570437,3.03525 c 1.429688,-1.875 2.332032,-4.4882812 2.332032,-6.7382812 0,-2.2617188 -0.902344,-4.875 -2.332032,-6.7499998 h -0.785156 c 1.253906,2.050781 1.957031,4.4531248 1.957031,6.7499998 0,2.2851562 -0.703125,4.7109375 -1.957031,6.7382812 z m 46.423829,-13.488281 c -1.441407,1.8749998 -2.34375,4.488281 -2.34375,6.738281 0,2.2617188 0.902343,4.875 2.34375,6.75 h 0.785156 c -1.265625,-2.05078125 -1.96875,-4.453125 -1.96875,-6.75 0,-2.2851562 0.703125,-4.6992187 1.96875,-6.738281 z M 99.925906,9.375e-5 h 4.710934 c 0.9961,0 1.72266,-0.26953125 2.28516,-0.87890625 0.51562,-0.5390625 0.80859,-1.2890625 0.80859,-2.109375 0,-1.2539062 -0.57422,-2.015625 -1.91015,-2.53125 0.96093,-0.4453125 1.4414,-1.2070312 1.4414,-2.2851562 0,-0.7734375 -0.28125,-1.4296875 -0.83203,-1.921875 -0.55078,-0.5039063 -1.2539,-0.7265623 -2.26172,-0.7265623 h -4.242184 z m 1.335934,-5.95312495 v -3.328125 h 2.57813 c 0.73828,0 1.16015,0.1054687 1.52344,0.375 0.36328,0.28125 0.57421,0.7148437 0.57421,1.2890625 0,0.5742187 -0.21093,1.0078125 -0.57421,1.2890625 -0.36329,0.2695312 -0.78516,0.375 -1.52344,0.375 z m 0,4.78125 v -3.609375 h 3.2461 c 1.18359,0 1.88672,0.6796875 1.88672,1.8164062 0,1.1132813 -0.70313,1.7929688 -1.88672,1.7929688 z m 7.62012,-6.2109375 V 9.375e-5 h 1.26563 V -10.371 h -0.83204 c -0.44531,1.59375 -0.73828,1.8046875 -2.68359,2.0625 v 0.9257813 z m 7.08399,-2.7890623 -2.19141,5.4492185 h 0.98437 l 1.73438,-4.3007812 1.75781,4.3007812 h 0.98438 l -2.22657,-5.4492185 z m 3.83789,-0.28125 H 118.5968 V 9.375e-5 h 1.20704 z m 2.09765,2.941406 h -1.19531 V 9.375e-5 h 1.19531 z m 0,-2.941406 h -1.20703 v 1.4999998 h 1.20703 z m 0.97559,2.941406 V 9.375e-5 h 1.19531 V -4.1483437 c 0,-1.5351563 0.80859,-2.53125 2.03906,-2.53125 0.94922,0 1.54688,0.5742187 1.54688,1.4765625 V 9.375e-5 h 1.19531 V -5.6835 c 0,-1.2421875 -0.92578,-2.0507812 -2.37891,-2.0507812 -1.125,0 -1.83984,0.4335937 -2.49609,1.4765625 V -7.511625 Z m 6.33398,-2.941406 h -1.19531 V 9.375e-5 h 1.19531 V -2.9295937 l 1.16016,-1.1484375 2.53125,4.07812495 h 1.47656 L 131.32044,-4.9217812 133.922,-7.511625 h -1.53516 l -3.17578,3.1757813 z m 12.20801,7.3124998 1.07813,3.14062495 h 1.48828 L 140.31751,-10.453031 h -1.72266 L 134.86829,9.375e-5 h 1.41797 l 1.10156,-3.14062495 z m -0.375,-1.125 h -3.32812 l 1.72265,-4.7578125 z m 3.6709,-3.1171875 V 9.375e-5 h 1.26562 V -10.371 h -0.83203 c -0.44531,1.59375 -0.73828,1.8046875 -2.68359,2.0625 v 0.9257813 z M 147.65052,3.03525 c 1.42968,-1.875 2.33203,-4.4882812 2.33203,-6.7382812 0,-2.2617188 -0.90235,-4.875 -2.33203,-6.7499998 h -0.78516 c 1.25391,2.050781 1.95703,4.4531248 1.95703,6.7499998 0,2.2851562 -0.70312,4.7109375 -1.95703,6.7382812 z M -22.376828,16.845797 c -0.410156,-2.296875 -1.734375,-3.410156 -4.03125,-3.410156 -1.40625,0 -2.53125,0.445312 -3.304688,1.300781 -0.949218,1.042969 -1.464843,2.53125 -1.464843,4.21875 0,1.722656 0.527343,3.199219 1.5,4.21875 0.820312,0.832031 1.851562,1.21875 3.210937,1.21875 2.554688,0 3.996094,-1.371094 4.3125,-4.148438 h -1.382812 c -0.117188,0.726563 -0.257813,1.207032 -0.46875,1.628907 -0.433594,0.855468 -1.324219,1.347656 -2.4375,1.347656 -2.085938,0 -3.398438,-1.664063 -3.398438,-4.277344 0,-2.683594 1.242188,-4.335937 3.28125,-4.335937 0.84375,0 1.628906,0.246093 2.0625,0.667968 0.386719,0.351563 0.609375,0.785157 0.761719,1.570313 z m 4.576172,-0.164063 v 7.382813 h 1.265625 V 13.693453 h -0.832032 c -0.445312,1.59375 -0.738281,1.804688 -2.683593,2.0625 v 0.925781 z m 82.675781,7.382813 h 4.710937 c 0.996094,0 1.722657,-0.269531 2.285157,-0.878906 0.515625,-0.539063 0.808593,-1.289063 0.808593,-2.109375 0,-1.253907 -0.574218,-2.015625 -1.910156,-2.53125 0.960938,-0.445313 1.441406,-1.207032 1.441406,-2.285157 0,-0.773437 -0.28125,-1.429687 -0.832031,-1.921875 -0.550781,-0.503906 -1.253906,-0.726562 -2.261719,-0.726562 h -4.242187 z m 1.335937,-5.953125 v -3.328125 h 2.578125 c 0.738282,0 1.160157,0.105469 1.523438,0.375 0.363281,0.28125 0.574219,0.714844 0.574219,1.289062 0,0.574219 -0.210938,1.007813 -0.574219,1.289063 -0.363281,0.269531 -0.785156,0.375 -1.523438,0.375 z m 0,4.78125 v -3.609375 h 3.246094 c 1.183594,0 1.886719,0.679687 1.886719,1.816406 0,1.113281 -0.703125,1.792969 -1.886719,1.792969 z M 77.01868,16.681734 v 7.382813 h 1.265625 V 13.693453 h -0.832032 c -0.445312,1.59375 -0.738281,1.804688 -2.683593,2.0625 v 0.925781 z m 89.12109,4.242188 1.07813,3.140625 h 1.48828 l -3.66797,-10.453125 h -1.72266 l -3.72656,10.453125 h 1.41797 l 1.10156,-3.140625 z m -0.375,-1.125 h -3.32812 l 1.72265,-4.757813 z m 6.8584,-3.117188 v 7.382813 h 1.26563 V 13.693453 h -0.83203 c -0.44532,1.59375 -0.73829,1.804688 -2.6836,2.0625 v 0.925781 z m 0,0"
       style="fill:#000000;fill-opacity:1;fill-rule:nonzero;stroke:none"
       aria-label="(C1 ^link B1)(B1 ^link A1)&#10;C1B1A1"
       transform="matrix(1.3333333,0,0,1.3333333,314.43733,346.828)" />
  </g>
</svg>
