<?xml version="1.0" encoding="UTF-8" standalone="no"?>
<!-- Created with Inkscape (http://www.inkscape.org/) -->

<svg
   version="1.1"
   id="svg1"
   width="749.24084"
   height="395.88281"
   viewBox="0 0 749.24084 395.88281"
   xmlns="http://www.w3.org/2000/svg"
   xmlns:svg="http://www.w3.org/2000/svg">
  <defs
     id="defs1" />
  <g
     id="g1"
     transform="translate(-25.699219,-101.37891)">
    <path
       id="path1"
       d="m 1211.01,6628.69 c 0,70.4 -57.08,127.47 -127.47,127.47 -70.4,0 -127.481,-57.07 -127.481,-127.47 0,-70.4 57.081,-127.48 127.481,-127.48 70.39,0 127.47,57.08 127.47,127.48"
       style="fill:none;stroke:#000000;stroke-width:23.9015;stroke-linecap:butt;stroke-linejoin:miter;stroke-miterlimit:10;stroke-dasharray:none;stroke-opacity:1"
       transform="matrix(0.13333333,0,0,-0.13333333,0,1056)" />
    <path
       id="path2"
       d="m 6.6440234,-5.7430156 c 0,-0.5625 -0.023437,-0.7148438 -0.2109375,-1.1015625 -0.4453125,-0.9375 -1.3945312,-1.4179688 -2.765625,-1.4179688 -1.78125,0 -2.88281246,0.9140625 -2.88281246,2.3789063 0,0.9960937 0.51562496,1.6171875 1.59374996,1.8984375 l 2.015625,0.5390625 c 1.0429688,0.2695312 1.5,0.6796875 1.5,1.3125 0,0.4335937 -0.234375,0.8789062 -0.5859375,1.125 -0.3164062,0.23437498 -0.8320312,0.35156248 -1.4882812,0.35156248 -0.9023438,0 -1.4882813,-0.2109375 -1.875,-0.67968748 -0.3046875,-0.3632813 -0.4335938,-0.75 -0.4335938,-1.2539063 H 0.53855469 c 0.0117188,0.75 0.15234375,1.2421875 0.48046871,1.68750003 0.5507813,0.7734375 1.4882813,1.16015625 2.7304688,1.16015625 0.9726562,0 1.7578125,-0.22265625 2.2851562,-0.62109375 0.5507813,-0.4453125 0.890625,-1.16015623 0.890625,-1.86328123 0,-1.0078125 -0.6210937,-1.7460938 -1.7226562,-2.0507813 L 3.1518359,-4.8172344 C 2.1791797,-5.0867656 1.8158984,-5.4031719 1.8158984,-6.0242656 c 0,-0.8320313 0.7265625,-1.3710938 1.8164063,-1.3710938 1.3007812,0 2.0273437,0.5742188 2.0390625,1.6523438 z m 3.6914066,0 v 5.742187475 h 0.972656 V -8.0633281 h -0.644531 c -0.339844,1.2304687 -0.5625,1.40625 -2.0859378,1.6054687 v 0.7148438 z m 0,0"
       style="fill:#000000;fill-opacity:1;fill-rule:nonzero;stroke:none"
       aria-label="S1"
       transform="matrix(1.3333333,0,0,1.3333333,135.97333,174.10267)" />
    <path
       id="path3"
       d="m 2167.07,4397.88 c 0,70.4 -57.08,127.47 -127.48,127.47 -70.39,0 -127.47,-57.07 -127.47,-127.47 0,-70.4 57.08,-127.48 127.47,-127.48 70.4,0 127.48,57.08 127.48,127.48"
       style="fill:none;stroke:#000000;stroke-width:23.9015;stroke-linecap:butt;stroke-linejoin:miter;stroke-miterlimit:10;stroke-dasharray:none;stroke-opacity:1"
       transform="matrix(0.13333333,0,0,-0.13333333,0,1056)" />
    <path
       id="path4"
       d="m 4.1842266,-3.6085 c 0,-0.984375 -0.65625,-1.546875 -1.8164063,-1.546875 -1.1601562,0 -1.92187499,0.609375 -1.92187499,1.5351563 0,0.7851562 0.41015625,1.1484375 1.59374999,1.4414062 l 0.7382813,0.1757813 c 0.5625,0.140625 0.7851562,0.3398437 0.7851562,0.6914062 0,0.48046875 -0.46875,0.796875 -1.171875,0.796875 -0.4335937,0 -0.796875,-0.12890625 -0.9960937,-0.33984375 C 1.2779766,-0.99521875 1.2193828,-1.1358437 1.1725078,-1.4874062 H 0.32875781 c 0.0351563,1.14843745 0.67968749,1.71093745 1.99218749,1.71093745 1.265625,0 2.0742188,-0.62109375 2.0742188,-1.59374995 0,-0.7382813 -0.421875,-1.1484375 -1.4179688,-1.3945313 L 2.2037578,-2.9405312 C 1.5592266,-3.092875 1.2779766,-3.3038125 1.2779766,-3.6670937 c 0,-0.46875 0.4101562,-0.75 1.0664062,-0.75 0.6445313,0 0.984375,0.28125 1.0078125,0.8085937 z M 9.3844219,8.75e-4 V -5.01475 H 8.5992656 v 2.8476563 c 0,1.0195312 -0.5390625,1.68749995 -1.3710937,1.68749995 -0.6328125,0 -1.03125,-0.375 -1.03125,-0.98437495 V -5.01475 h -0.796875 v 3.8671875 c 0,0.83203125 0.6210937,1.37109375 1.59375,1.37109375 0.7382812,0 1.2070312,-0.2578125 1.6757812,-0.92578125 V 8.75e-4 Z m 1.2275391,2.0859375 h 0.808594 v -2.61328125 c 0.421875,0.515625 0.878906,0.75 1.535156,0.75 1.300781,0 2.144531,-1.04296875 2.144531,-2.63671875 0,-1.6875 -0.820312,-2.7421875 -2.15625,-2.7421875 -0.679687,0 -1.21875,0.3046875 -1.59375,0.9023438 V -5.01475 h -0.738281 z m 2.203125,-6.4921875 c 0.878906,0 1.453125,0.7734375 1.453125,1.96875 0,1.1367188 -0.585938,1.91015625 -1.453125,1.91015625 -0.855469,0 -1.394531,-0.76171875 -1.394531,-1.94531245 0,-1.171875 0.539062,-1.9335938 1.394531,-1.9335938 z m 7.505859,2.1679688 c 0,-0.7617188 -0.05859,-1.21875 -0.210937,-1.59375 -0.316406,-0.8203125 -1.089844,-1.3242188 -2.027344,-1.3242188 -1.394531,0 -2.285156,1.0664063 -2.285156,2.71875 0,1.65234375 0.855469,2.66015625 2.273437,2.66015625 1.148438,0 1.933594,-0.65625 2.144532,-1.74609375 h -0.808594 c -0.222656,0.66796875 -0.667969,1.0078125 -1.3125,1.0078125 -0.503906,0 -0.9375,-0.234375 -1.207031,-0.65625 -0.1875,-0.28125 -0.257813,-0.5742187 -0.257813,-1.0664062 z m -3.679687,-0.6445313 c 0.07031,-0.9375 0.632812,-1.5351562 1.441406,-1.5351562 0.808594,0 1.371094,0.6328125 1.371094,1.5351562 z M 21.384422,-5.01475 V 8.75e-4 h 0.808594 v -2.6015625 c 0.01172,-1.2070312 0.503906,-1.734375 1.605468,-1.7109375 v -0.8085937 c -0.128906,-0.023437 -0.210937,-0.035156 -0.304687,-0.035156 -0.515625,0 -0.914063,0.3046875 -1.371094,1.0546875 V -5.01475 Z m 6.708984,1.40625 c 0,-0.984375 -0.65625,-1.546875 -1.816406,-1.546875 -1.160156,0 -1.921875,0.609375 -1.921875,1.5351563 0,0.7851562 0.410156,1.1484375 1.59375,1.4414062 l 0.738281,0.1757813 c 0.5625,0.140625 0.785156,0.3398437 0.785156,0.6914062 0,0.48046875 -0.46875,0.796875 -1.171875,0.796875 -0.433593,0 -0.796875,-0.12890625 -0.996093,-0.33984375 -0.117188,-0.140625 -0.175782,-0.28124995 -0.222657,-0.63281245 h -0.84375 c 0.03516,1.14843745 0.679688,1.71093745 1.992188,1.71093745 1.265625,0 2.074219,-0.62109375 2.074219,-1.59374995 0,-0.7382813 -0.421875,-1.1484375 -1.417969,-1.3945313 l -0.773438,-0.1757812 c -0.644531,-0.1523438 -0.925781,-0.3632813 -0.925781,-0.7265625 0,-0.46875 0.410156,-0.75 1.066406,-0.75 0.644532,0 0.984375,0.28125 1.007813,0.8085937 z m 3.023438,-1.40625 H 30.296531 V -6.3858437 H 29.499656 V -5.01475 h -0.679687 v 0.65625 h 0.679687 v 3.78515625 c 0,0.515625 0.351563,0.796875 0.972656,0.796875 0.210938,0 0.375,-0.0234375 0.644532,-0.0703125 V -0.51475 c -0.117188,0.0234375 -0.222657,0.0351563 -0.375,0.0351563 -0.351563,0 -0.445313,-0.09375 -0.445313,-0.4453125 V -4.3585 h 0.820313 z m 5.352539,4.546875 c -0.09375,0.0234375 -0.128906,0.0234375 -0.175781,0.0234375 -0.28125,0 -0.433594,-0.15234375 -0.433594,-0.3984375 v -2.9414062 c 0,-0.890625 -0.644531,-1.3710938 -1.886719,-1.3710938 -0.726562,0 -1.3125,0.2109375 -1.664062,0.5859375 -0.222657,0.2578125 -0.316407,0.5390625 -0.339844,1.0429688 h 0.808594 c 0.05859,-0.609375 0.421875,-0.890625 1.171875,-0.890625 0.726562,0 1.113281,0.2695312 1.113281,0.75 v 0.2109375 c 0,0.3398437 -0.175781,0.46875 -0.832031,0.5507812 -1.125,0.140625 -1.300782,0.1757813 -1.605469,0.3046875 -0.574219,0.2460938 -0.878906,0.6914063 -0.878906,1.3359375 0,0.9140625 0.632812,1.48828125 1.652343,1.48828125 0.621094,0 1.136719,-0.22265625 1.699219,-0.73828125 0.05859,0.515625 0.304688,0.73828125 0.820313,0.73828125 0.175781,0 0.28125,-0.0234375 0.550781,-0.09375 z m -1.40625,-1.1132812 c 0,0.2695312 -0.07031,0.4335937 -0.316406,0.65624995 -0.316407,0.29296875 -0.714844,0.4453125 -1.183594,0.4453125 -0.621094,0 -0.984375,-0.29296875 -0.984375,-0.79687495 0,-0.5273438 0.351562,-0.796875 1.207031,-0.9257813 0.855469,-0.1054687 1.019531,-0.1523437 1.277344,-0.2695312 z M 39.091453,-5.01475 H 38.271141 V -6.3858437 H 37.474266 V -5.01475 h -0.679688 v 0.65625 h 0.679688 v 3.78515625 c 0,0.515625 0.351562,0.796875 0.972656,0.796875 0.210937,0 0.375,-0.0234375 0.644531,-0.0703125 V -0.51475 c -0.117187,0.0234375 -0.222656,0.0351563 -0.375,0.0351563 -0.351562,0 -0.445312,-0.09375 -0.445312,-0.4453125 V -4.3585 h 0.820312 z m 5.141602,2.7773438 c 0,-0.7617188 -0.05859,-1.21875 -0.210938,-1.59375 -0.316406,-0.8203125 -1.089844,-1.3242188 -2.027344,-1.3242188 -1.394531,0 -2.285156,1.0664063 -2.285156,2.71875 0,1.65234375 0.855469,2.66015625 2.273438,2.66015625 1.148437,0 1.933593,-0.65625 2.144531,-1.74609375 h -0.808594 c -0.222656,0.66796875 -0.667969,1.0078125 -1.3125,1.0078125 -0.503906,0 -0.9375,-0.234375 -1.207031,-0.65625 -0.1875,-0.28125 -0.257813,-0.5742187 -0.257813,-1.0664062 z m -3.679688,-0.6445313 c 0.07031,-0.9375 0.632813,-1.5351562 1.441406,-1.5351562 0.808594,0 1.371094,0.6328125 1.371094,1.5351562 z m 0,0"
       style="fill:#000000;fill-opacity:1;fill-rule:nonzero;stroke:none"
       aria-label="superstate"
       transform="matrix(1.3333333,0,0,1.3333333,178.464,436.06133)" />
    <path
       id="path5"
       d="m 2167.07,4397.88 c 0,0 0,0 10.62,21.25 10.63,21.24 31.87,63.73 10.63,106.22 -21.25,42.49 -84.99,84.99 -180.59,127.48 -95.61,42.49 -223.09,84.98 -371.8,138.1 -148.72,53.11 -318.69,116.85 -467.41,244.32 -148.72,127.48 -276.196,318.69 -339.934,520.52 -63.738,201.84 -63.738,414.3 -31.867,584.26 31.867,169.97 95.605,297.44 127.472,361.18 31.868,63.74 31.868,63.74 31.868,63.74"
       style="fill:none;stroke:#000000;stroke-width:7.96717;stroke-linecap:butt;stroke-linejoin:miter;stroke-miterlimit:10;stroke-dasharray:none;stroke-opacity:1"
       transform="matrix(0.13333333,0,0,-0.13333333,0,1056)" />
    <path
       id="path6"
       d="m 902.613,6502.59 53.446,62.36 -17.813,-80.17"
       style="fill:none;stroke:#000000;stroke-width:7.96717;stroke-linecap:butt;stroke-linejoin:miter;stroke-miterlimit:10;stroke-dasharray:none;stroke-opacity:1"
       transform="matrix(0.13333333,0,0,-0.13333333,0,1056)" />
    <g
       id="g6"
       aria-label="S2&#10;Top−level&#10;state&#10;Subgoal&#10;level 1"
       transform="matrix(1.3333333,0,0,1.3333333,263.448,471.54267)">
      <path
         id="path7"
         d="m 6.6454453,-5.7419609 c 0,-0.5625 -0.023437,-0.7148438 -0.2109375,-1.1015625 -0.4453125,-0.9375 -1.3945312,-1.4179688 -2.765625,-1.4179688 -1.78125,0 -2.88281249,0.9140625 -2.88281249,2.3789063 0,0.9960937 0.51562499,1.6171875 1.59374999,1.8984375 l 2.015625,0.5390625 c 1.0429688,0.2695312 1.5,0.6796875 1.5,1.3125 0,0.4335937 -0.234375,0.8789062 -0.5859375,1.125 -0.3164062,0.23437496 -0.8320312,0.35156246 -1.4882812,0.35156246 -0.9023438,0 -1.4882813,-0.2109375 -1.875,-0.67968746 -0.3046875,-0.3632813 -0.4335938,-0.75 -0.4335938,-1.2539063 H 0.53997656 c 0.0117188,0.75 0.15234375,1.2421875 0.48046874,1.68750001 0.5507813,0.7734375 1.4882813,1.16015625 2.7304688,1.16015625 0.9726562,0 1.7578125,-0.22265625 2.2851562,-0.62109375 0.5507813,-0.4453125 0.890625,-1.16015621 0.890625,-1.86328121 0,-1.0078125 -0.6210937,-1.7460938 -1.7226562,-2.0507813 L 3.1532578,-4.8161797 C 2.1806016,-5.0857109 1.8173203,-5.4021172 1.8173203,-6.0232109 c 0,-0.8320313 0.7265625,-1.3710938 1.8164063,-1.3710938 1.3007812,0 2.0273437,0.5742188 2.0390625,1.6523438 z m 6.4423827,4.76953121 H 8.9276719 C 9.0214219,-1.6403984 9.3847031,-2.0622734 10.345641,-2.6599297 l 1.125,-0.6210937 c 1.101562,-0.609375 1.664062,-1.4414063 1.664062,-2.4257813 0,-0.6796875 -0.257812,-1.3007812 -0.726562,-1.734375 -0.46875,-0.421875 -1.054688,-0.6210937 -1.804688,-0.6210937 -0.9960936,0 -1.7460936,0.3515625 -2.1796874,1.0429687 -0.28125,0.421875 -0.3984375,0.9257813 -0.421875,1.7460938 h 0.9726563 c 0.035156,-0.5507813 0.1054687,-0.8789063 0.234375,-1.1367188 0.2578125,-0.4921875 0.7734375,-0.796875 1.3710941,-0.796875 0.890625,0 1.558593,0.6445313 1.558593,1.5117188 0,0.65625 -0.375,1.2070312 -1.078125,1.6171875 l -1.019531,0.5976562 c -1.6523436,0.9492188 -2.1328124,1.7109375 -2.2265624,3.46875001 h 5.2734374 z m 0,0"
         style="fill:#000000;fill-opacity:1;fill-rule:nonzero;stroke:none" />
      <path
         id="path8"
         d="m -174.16315,-221.94118 h 2.36719 v -1.39453 h -6.51563 v 1.39453 h 2.47266 v 6.73828 h 1.67578 z m 5.87695,0.60938 c -1.85156,0 -2.97656,1.21875 -2.97656,3.19921 0,1.98047 1.125,3.1875 2.98828,3.1875 1.83985,0 2.97657,-1.20703 2.97657,-3.15234 0,-2.03906 -1.11329,-3.23437 -2.98829,-3.23437 z m 0.0117,1.26562 c 0.85547,0 1.40625,0.77344 1.40625,1.95703 0,1.125 -0.57422,1.89844 -1.40625,1.89844 -0.85547,0 -1.41797,-0.76172 -1.41797,-1.92188 0,-1.16015 0.5625,-1.93359 1.41797,-1.93359 z m 5.64258,-1.16016 h -1.55859 v 8.46094 h 1.55859 v -3.15234 c 0.38672,0.66797 0.92578,0.98437 1.67578,0.98437 1.45313,0 2.51953,-1.35937 2.51953,-3.1875 0,-0.85547 -0.23437,-1.69922 -0.64453,-2.26172 -0.39843,-0.5625 -1.14843,-0.94921 -1.875,-0.94921 -0.75,0 -1.28906,0.32812 -1.67578,0.99609 z m 1.32422,1.20704 c 0.78516,0 1.3125,0.75 1.3125,1.91015 0,1.11328 -0.53906,1.86328 -1.3125,1.86328 -0.79687,0 -1.32422,-0.75 -1.32422,-1.875 0,-1.14843 0.52735,-1.89843 1.32422,-1.89843 z m 9.35742,1.57031 h -5.625 v 1.32422 h 5.625 z m 2.75391,-4.88672 h -1.5586 v 8.13281 h 1.5586 z m 6.63867,5.61328 c 0.0117,-0.14062 0.0117,-0.1875 0.0117,-0.26953 0,-0.59766 -0.0937,-1.16016 -0.23438,-1.58203 -0.39843,-1.08985 -1.37109,-1.75781 -2.58984,-1.75781 -1.73437,0 -2.78906,1.2539 -2.78906,3.26953 0,1.93359 1.04297,3.11718 2.7539,3.11718 1.34766,0 2.44922,-0.76171 2.78907,-1.95703 h -1.53516 c -0.1875,0.48047 -0.63281,0.76172 -1.19531,0.76172 -0.44531,0 -0.8086,-0.1875 -1.03125,-0.52734 -0.14063,-0.22266 -0.19922,-0.49219 -0.22266,-1.05469 z m -4.01953,-1.04297 c 0.10547,-0.92578 0.49219,-1.37109 1.18359,-1.37109 0.71485,0 1.13672,0.48047 1.21875,1.37109 z m 8.27637,3.5625 2.07422,-6.02344 h -1.65235 l -1.20703,4.40625 -1.3125,-4.40625 h -1.65234 l 2.10937,6.02344 z m 8.14746,-2.51953 c 0.0117,-0.14062 0.0117,-0.1875 0.0117,-0.26953 0,-0.59766 -0.0937,-1.16016 -0.23438,-1.58203 -0.39844,-1.08985 -1.37109,-1.75781 -2.58984,-1.75781 -1.73438,0 -2.78907,1.2539 -2.78907,3.26953 0,1.93359 1.04297,3.11718 2.75391,3.11718 1.34766,0 2.44922,-0.76171 2.78906,-1.95703 h -1.53515 c -0.1875,0.48047 -0.63282,0.76172 -1.19532,0.76172 -0.44531,0 -0.80859,-0.1875 -1.03125,-0.52734 -0.14062,-0.22266 -0.19921,-0.49219 -0.22265,-1.05469 z m -4.01953,-1.04297 c 0.10546,-0.92578 0.49218,-1.37109 1.18359,-1.37109 0.71484,0 1.13672,0.48047 1.21875,1.37109 z m 6.68261,-4.57031 h -1.55859 v 8.13281 h 1.55859 z m -45.33691,15.20801 c -0.0234,-1.27735 -1.00781,-2.05078 -2.625,-2.05078 -1.52344,0 -2.47266,0.77343 -2.47266,2.01562 0,0.39844 0.11719,0.73828 0.32813,0.97266 0.21094,0.22265 0.41015,0.3164 0.98437,0.5039 l 1.86328,0.58594 c 0.38672,0.11719 0.52735,0.24609 0.52735,0.49219 0,0.36328 -0.4336,0.58594 -1.16016,0.58594 -0.41015,0 -0.72656,-0.0703 -0.92578,-0.21094 -0.17578,-0.11719 -0.23437,-0.2461 -0.30469,-0.5625 h -1.52343 c 0.0351,1.32422 1.00781,2.0039 2.83593,2.0039 0.84375,0 1.47657,-0.17578 1.92188,-0.53906 0.44531,-0.35156 0.71484,-0.91406 0.71484,-1.5 0,-0.78515 -0.38672,-1.28906 -1.18359,-1.52344 l -1.96875,-0.5625 c -0.44531,-0.14062 -0.55078,-0.22265 -0.55078,-0.46875 0,-0.33984 0.35156,-0.5625 0.90234,-0.5625 0.75,0 1.11328,0.26954 1.125,0.82032 z m 3.92578,-1.82813 h -0.87891 v -1.61719 h -1.55859 v 1.61719 h -0.77344 v 1.04297 h 0.77344 v 3.70313 c 0,0.94921 0.50391,1.41796 1.52344,1.41796 0.36328,0 0.62109,-0.0351 0.91406,-0.1289 v -1.08985 c -0.16406,0.0234 -0.23437,0.0352 -0.36328,0.0352 -0.41016,0 -0.51563,-0.11719 -0.51563,-0.65625 v -3.28125 h 0.87891 z m 6.19922,5.71875 c -0.26953,-0.25781 -0.36328,-0.43359 -0.36328,-0.73828 v -3.35156 c 0,-1.21875 -0.83203,-1.85156 -2.46094,-1.85156 -1.62891,0 -2.47266,0.6914 -2.57812,2.08593 h 1.51171 c 0.0703,-0.62109 0.32813,-0.82031 1.10157,-0.82031 0.59765,0 0.90234,0.19922 0.90234,0.59766 0,0.19922 -0.10547,0.375 -0.26953,0.46875 -0.21094,0.11718 -0.21094,0.11718 -0.98438,0.23437 l -0.62109,0.11719 c -1.19531,0.19922 -1.76953,0.80859 -1.76953,1.89844 0,1.07812 0.72656,1.80468 1.82812,1.80468 0.66797,0 1.26563,-0.28125 1.82813,-0.85546 0,0.30468 0.0352,0.42187 0.17578,0.59765 h 1.69922 z m -1.88672,-2.23828 c 0,0.91406 -0.44531,1.41797 -1.24219,1.41797 -0.51562,0 -0.84375,-0.26953 -0.84375,-0.72656 0,-0.46875 0.2461,-0.69141 0.89063,-0.82032 l 0.53906,-0.10546 c 0.41016,-0.0703 0.48047,-0.0937 0.65625,-0.1875 z m 5.60449,-3.48047 h -0.8789 v -1.61719 h -1.5586 v 1.61719 h -0.77343 v 1.04297 h 0.77343 v 3.70313 c 0,0.94921 0.50391,1.41796 1.52344,1.41796 0.36328,0 0.62109,-0.0351 0.91406,-0.1289 v -1.08985 c -0.16406,0.0234 -0.23437,0.0352 -0.36328,0.0352 -0.41015,0 -0.51562,-0.11719 -0.51562,-0.65625 v -3.28125 h 0.8789 z m 6.19922,3.38672 c 0.0117,-0.14062 0.0117,-0.1875 0.0117,-0.26953 0,-0.59766 -0.0937,-1.16016 -0.23437,-1.58203 -0.39844,-1.08985 -1.3711,-1.75781 -2.58985,-1.75781 -1.73437,0 -2.78906,1.2539 -2.78906,3.26953 0,1.93359 1.04297,3.11718 2.75391,3.11718 1.34765,0 2.44921,-0.76171 2.78906,-1.95703 h -1.53516 c -0.1875,0.48047 -0.63281,0.76172 -1.19531,0.76172 -0.44531,0 -0.80859,-0.1875 -1.03125,-0.52734 -0.14063,-0.22266 -0.19922,-0.49219 -0.22266,-1.05469 z m -4.01953,-1.04297 c 0.10547,-0.92578 0.49219,-1.37109 1.18359,-1.37109 0.71485,0 1.13672,0.48047 1.21875,1.37109 z M -165.31842,2.218 c -0.0117,-1.67578125 -1.13672,-2.6015625 -3.1875,-2.6015625 -1.95703,0 -3.08203,0.9140625 -3.08203,2.4960937 0,1.2539063 0.63281,1.875 2.28515,2.1796875 l 1.13672,0.2226563 c 1.11328,0.2226562 1.53516,0.5273437 1.53516,1.1835937 0,0.6796875 -0.63281,1.1015625 -1.64063,1.1015625 -1.14843,0 -1.78125,-0.4804687 -1.83984,-1.359375 h -1.62891 c 0.10547,1.7460938 1.30078,2.6953125 3.375,2.6953125 2.09766,0 3.33985,-0.9726562 3.33985,-2.6367187 0,-1.2773438 -0.65625,-1.9453125 -2.15625,-2.2382813 l -1.27735,-0.2460937 c -1.19531,-0.234375 -1.53515,-0.46875 -1.53515,-1.0664063 0,-0.609375 0.53906,-0.9960937 1.40625,-0.9960937 1.05468,0 1.65234,0.4453125 1.71093,1.265625 z m 6.70312,5.6601562 V 1.8547187 h -1.55859 v 3.7734375 c 0,0.7148438 -0.49219,1.1835938 -1.26563,1.1835938 -0.66796,0 -1.00781,-0.3632813 -1.00781,-1.0898438 V 1.8547187 h -1.55859 v 4.1953125 c 0,1.3359375 0.72656,2.0859375 2.02734,2.0859375 0.8086,0 1.35938,-0.2929687 1.80469,-0.9726562 v 0.7148437 z m 1.43555,-8.13281245 V 7.8781562 h 1.55859 v -0.609375 c 0.38672,0.5859375 0.91407,0.8671875 1.66407,0.8671875 1.4414,0 2.53125,-1.3710937 2.53125,-3.1875 0,-0.8203125 -0.2461,-1.640625 -0.64453,-2.2265625 -0.41016,-0.5859375 -1.14844,-0.9726562 -1.88672,-0.9726562 -0.75,0 -1.27735,0.28125 -1.66407,0.890625 v -2.89453125 z m 2.88281,3.31640625 c 0.76172,0 1.3125,0.7734375 1.3125,1.8984375 0,1.1015625 -0.53906,1.875 -1.3125,1.875 -0.79687,0 -1.32422,-0.75 -1.32422,-1.9101563 0,-1.1132812 0.53907,-1.8632812 1.32422,-1.8632812 z m 7.74024,-1.2070313 V 2.7805 c -0.4336,-0.703125 -0.91407,-1.03125 -1.5586,-1.03125 -0.52734,0 -1.125,0.2695312 -1.53515,0.703125 -0.59766,0.6328125 -0.91407,1.5 -0.91407,2.5546875 0,1.8515625 0.98438,3.1289062 2.42579,3.1289062 0.64453,0 1.03125,-0.2109375 1.58203,-0.8671875 V 8.077375 c 0,0.7265625 -0.51563,1.2304687 -1.25391,1.2304687 -0.55078,0 -0.90234,-0.2460937 -1.01953,-0.703125 h -1.60547 c 0,0.46875 0.17578,0.7851563 0.58594,1.125 0.48047,0.3867183 1.13672,0.5859373 1.98047,0.5859373 1.74609,0 2.78906,-0.8437498 2.78906,-2.238281 V 1.8547187 Z m -1.26563,1.2070313 c 0.73828,0 1.28906,0.8085937 1.28906,1.921875 0,1.1015625 -0.52734,1.8515625 -1.3125,1.8515625 -0.67968,0 -1.16015,-0.75 -1.16015,-1.8515625 0,-1.1367188 0.48047,-1.921875 1.18359,-1.921875 z m 6.97852,-1.3125 c -1.85156,0 -2.97656,1.21875 -2.97656,3.1992187 0,1.9804688 1.125,3.1875 2.98828,3.1875 1.83984,0 2.97656,-1.2070312 2.97656,-3.1523437 0,-2.0390625 -1.11328,-3.234375 -2.98828,-3.234375 z m 0.0117,1.265625 c 0.85547,0 1.40625,0.7734375 1.40625,1.9570312 0,1.125 -0.57422,1.8984375 -1.40625,1.8984375 -0.85547,0 -1.41797,-0.7617187 -1.41797,-1.921875 0,-1.1601562 0.5625,-1.9335937 1.41797,-1.9335937 z m 9.29004,4.6757812 c -0.26954,-0.2578125 -0.36329,-0.4335937 -0.36329,-0.7382812 V 3.6008125 c 0,-1.21875 -0.83203,-1.8515625 -2.46093,-1.8515625 -1.62891,0 -2.47266,0.6914062 -2.57813,2.0859375 h 1.51172 c 0.0703,-0.6210938 0.32813,-0.8203125 1.10156,-0.8203125 0.59766,0 0.90235,0.1992187 0.90235,0.5976562 0,0.1992188 -0.10547,0.375 -0.26953,0.46875 -0.21094,0.1171875 -0.21094,0.1171875 -0.98438,0.234375 l -0.62109,0.1171875 c -1.19532,0.1992188 -1.76953,0.8085938 -1.76953,1.8984375 0,1.078125 0.72656,1.8046875 1.82812,1.8046875 0.66797,0 1.26563,-0.28125 1.82813,-0.8554687 0,0.3046875 0.0351,0.421875 0.17578,0.5976562 h 1.69922 z m -1.88672,-2.2382812 c 0,0.9140625 -0.44532,1.4179687 -1.24219,1.4179687 -0.51563,0 -0.84375,-0.2695312 -0.84375,-0.7265625 0,-0.46875 0.24609,-0.6914062 0.89062,-0.8203125 L -134.08502,5.218 c 0.41015,-0.070312 0.48047,-0.09375 0.65625,-0.1875 z m 4.54687,-5.70703125 h -1.55859 V 7.8781562 h 1.55859 z M -169.78327,10.898664 h -1.55859 v 8.132813 h 1.55859 z m 6.64161,5.613281 c 0.0117,-0.140625 0.0117,-0.1875 0.0117,-0.269531 0,-0.597656 -0.0937,-1.160156 -0.23437,-1.582031 -0.39844,-1.089844 -1.37109,-1.757813 -2.58984,-1.757813 -1.73438,0 -2.78907,1.253907 -2.78907,3.269532 0,1.933593 1.04297,3.117187 2.75391,3.117187 1.34766,0 2.44922,-0.761719 2.78906,-1.957031 h -1.53515 c -0.1875,0.480469 -0.63282,0.761719 -1.19532,0.761719 -0.44531,0 -0.80859,-0.1875 -1.03125,-0.527344 -0.14062,-0.222656 -0.19922,-0.492188 -0.22265,-1.054688 z m -4.01954,-1.042968 c 0.10547,-0.925782 0.49219,-1.371094 1.1836,-1.371094 0.71484,0 1.13672,0.480469 1.21875,1.371094 z m 8.27344,3.5625 2.07422,-6.023438 h -1.65234 l -1.20703,4.40625 -1.3125,-4.40625 h -1.65235 l 2.10938,6.023438 z m 8.14746,-2.519532 c 0.0117,-0.140625 0.0117,-0.1875 0.0117,-0.269531 0,-0.597656 -0.0937,-1.160156 -0.23437,-1.582031 -0.39844,-1.089844 -1.3711,-1.757813 -2.58985,-1.757813 -1.73437,0 -2.78906,1.253907 -2.78906,3.269532 0,1.933593 1.04297,3.117187 2.75391,3.117187 1.34765,0 2.44922,-0.761719 2.78906,-1.957031 h -1.53516 c -0.1875,0.480469 -0.63281,0.761719 -1.19531,0.761719 -0.44531,0 -0.80859,-0.1875 -1.03125,-0.527344 -0.14062,-0.222656 -0.19922,-0.492188 -0.22266,-1.054688 z m -4.01953,-1.042968 c 0.10547,-0.925782 0.49219,-1.371094 1.1836,-1.371094 0.71484,0 1.13671,0.480469 1.21875,1.371094 z m 6.68262,-4.570313 h -1.55859 v 8.132813 h 1.55859 z m 6.55371,2.671875 v 5.460938 h 1.55859 V 11.12132 h -1.04296 c -0.2461,0.9375 -1.05469,1.417969 -2.41407,1.417969 v 1.03125 z m 0,0"
         style="fill:#000000;fill-opacity:1;fill-rule:nonzero;stroke:none" />
    </g>
    <path
       id="path9"
       d="m 270.883,4804.2 c 0,0 0,0 173.949,-13.27 173.953,-13.28 521.852,-39.84 946.768,74.36 424.92,114.19 926.85,369.14 1407.53,507.24 480.69,138.1 940.13,159.34 1362.39,168.64 422.26,9.29 807.34,6.63 999.88,5.31 192.54,-1.33 192.54,-1.33 192.54,-1.33"
       style="fill:none;stroke:#cccccc;stroke-width:23.9015;stroke-linecap:butt;stroke-linejoin:miter;stroke-miterlimit:10;stroke-dasharray:63.7374, 63.7374;stroke-dashoffset:0;stroke-opacity:1"
       transform="matrix(0.13333333,0,0,-0.13333333,0,1056)" />
    <path
       id="path10"
       d="m 3824.24,6564.95 c 0,70.4 -57.08,127.47 -127.47,127.47 -70.4,0 -127.48,-57.07 -127.48,-127.47 0,-70.4 57.08,-127.48 127.48,-127.48 70.39,0 127.47,57.08 127.47,127.48"
       style="fill:none;stroke:#cccccc;stroke-width:23.9015;stroke-linecap:butt;stroke-linejoin:miter;stroke-miterlimit:10;stroke-dasharray:none;stroke-opacity:1"
       transform="matrix(0.13333333,0,0,-0.13333333,0,1056)" />
    <path
       id="path11"
       d="m 6.6432891,-5.7410156 c 0,-0.5625 -0.023437,-0.7148438 -0.2109375,-1.1015625 -0.4453125,-0.9375 -1.3945313,-1.4179688 -2.765625,-1.4179688 -1.78125,0 -2.88281254,0.9140625 -2.88281254,2.3789063 0,0.9960937 0.51562504,1.6171875 1.59375004,1.8984375 l 2.015625,0.5390625 c 1.0429687,0.2695312 1.5,0.6796875 1.5,1.3125 0,0.4335937 -0.234375,0.8789062 -0.5859375,1.125 -0.3164063,0.23437497 -0.8320313,0.35156247 -1.4882813,0.35156247 -0.9023437,0 -1.4882812,-0.2109375 -1.875,-0.67968747 -0.3046875,-0.3632813 -0.4335937,-0.75 -0.4335937,-1.2539063 H 0.53782031 c 0.0117188,0.75 0.15234375,1.2421875 0.48046879,1.68750002 0.5507812,0.7734375 1.4882812,1.16015625 2.7304687,1.16015625 0.9726563,0 1.7578125,-0.22265625 2.2851563,-0.62109375 0.5507812,-0.4453125 0.890625,-1.16015622 0.890625,-1.86328122 0,-1.0078125 -0.6210938,-1.7460938 -1.7226563,-2.0507813 L 3.1511016,-4.8152344 C 2.1784453,-5.0847656 1.8151641,-5.4011719 1.8151641,-6.0222656 c 0,-0.8320313 0.7265625,-1.3710938 1.8164062,-1.3710938 1.3007813,0 2.0273438,0.5742188 2.0390625,1.6523438 z m 3.6914059,0 v 5.74218747 h 0.972657 V -8.0613281 H 10.66282 c -0.339843,1.2304687 -0.5625,1.40625 -2.0859372,1.6054687 v 0.7148438 z m 0,0"
       style="fill:#cccccc;fill-opacity:1;fill-rule:nonzero;stroke:none"
       aria-label="S1"
       transform="matrix(1.3333333,0,0,1.3333333,484.404,182.6)" />
    <path
       id="path12"
       d="m 4780.3,4334.14 c 0,70.4 -57.07,127.48 -127.47,127.48 -70.4,0 -127.48,-57.08 -127.48,-127.48 0,-70.4 57.08,-127.47 127.48,-127.47 70.4,0 127.47,57.07 127.47,127.47"
       style="fill:none;stroke:#cccccc;stroke-width:23.9015;stroke-linecap:butt;stroke-linejoin:miter;stroke-miterlimit:10;stroke-dasharray:none;stroke-opacity:1"
       transform="matrix(0.13333333,0,0,-0.13333333,0,1056)" />
    <path
       id="path13"
       d="m 4.1834922,-3.6094297 c 0,-0.984375 -0.65625,-1.546875 -1.8164063,-1.546875 -1.1601562,0 -1.92187496,0.609375 -1.92187496,1.5351563 0,0.7851562 0.41015625,1.1484375 1.59374996,1.4414062 l 0.7382813,0.1757813 c 0.5625,0.140625 0.7851562,0.3398437 0.7851562,0.6914062 0,0.48046876 -0.46875,0.79687501 -1.171875,0.79687501 -0.4335937,0 -0.796875,-0.12890625 -0.9960937,-0.33984375 C 1.2772422,-0.99614844 1.2186484,-1.1367734 1.1717734,-1.4883359 H 0.32802344 c 0.0351563,1.14843746 0.67968746,1.71093746 1.99218746,1.71093746 1.265625,0 2.0742188,-0.62109375 2.0742188,-1.59374996 0,-0.7382813 -0.421875,-1.1484375 -1.4179688,-1.3945313 L 2.2030234,-2.9414609 C 1.5584922,-3.0938047 1.2772422,-3.3047422 1.2772422,-3.6680234 c 0,-0.46875 0.4101562,-0.75 1.0664062,-0.75 0.6445313,0 0.984375,0.28125 1.0078125,0.8085937 z M 9.3866172,-5.46875e-5 V -5.0156797 H 8.6014609 v 2.8476563 c 0,1.0195312 -0.5390625,1.68749996 -1.3710937,1.68749996 -0.6328125,0 -1.03125,-0.375 -1.03125,-0.98437496 v -3.5507813 h -0.796875 v 3.8671875 c 0,0.83203126 0.6210937,1.37109376 1.59375,1.37109376 0.7382812,0 1.2070312,-0.2578125 1.6757812,-0.92578125 V -5.46875e-5 Z M 10.611227,2.0858828 h 0.808593 v -2.61328124 c 0.421875,0.515625 0.878907,0.75 1.535157,0.75 1.300781,0 2.144531,-1.04296875 2.144531,-2.63671876 0,-1.6875 -0.820313,-2.7421875 -2.15625,-2.7421875 -0.679688,0 -1.21875,0.3046875 -1.59375,0.9023438 v -0.7617188 h -0.738281 z m 2.203125,-6.4921875 c 0.878906,0 1.453125,0.7734375 1.453125,1.96875 0,1.1367188 -0.585938,1.91015626 -1.453125,1.91015626 -0.855469,0 -1.394532,-0.76171876 -1.394532,-1.94531246 0,-1.171875 0.539063,-1.9335938 1.394532,-1.9335938 z m 7.508789,2.1679688 c 0,-0.7617188 -0.05859,-1.21875 -0.210938,-1.59375 -0.316406,-0.8203125 -1.089844,-1.3242188 -2.027344,-1.3242188 -1.394531,0 -2.285156,1.0664063 -2.285156,2.71875 0,1.65234376 0.855469,2.66015626 2.273438,2.66015626 1.148437,0 1.933593,-0.65625 2.144531,-1.74609376 h -0.808594 c -0.222656,0.66796876 -0.667969,1.00781251 -1.3125,1.00781251 -0.503906,0 -0.9375,-0.234375 -1.207031,-0.65625001 -0.1875,-0.28125 -0.257813,-0.5742187 -0.257813,-1.0664062 z m -3.679688,-0.6445313 c 0.07031,-0.9375 0.632813,-1.5351562 1.441406,-1.5351562 0.808594,0 1.371094,0.6328125 1.371094,1.5351562 z m 4.740235,-2.1328125 V -5.46875e-5 h 0.808593 V -2.6016172 c 0.01172,-1.2070312 0.503907,-1.734375 1.605469,-1.7109375 v -0.8085937 c -0.128906,-0.023437 -0.210937,-0.035156 -0.304687,-0.035156 -0.515625,0 -0.914063,0.3046875 -1.371094,1.0546875 v -0.9140625 z m 6.711914,1.40625 c 0,-0.984375 -0.65625,-1.546875 -1.816407,-1.546875 -1.160156,0 -1.921875,0.609375 -1.921875,1.5351563 0,0.7851562 0.410157,1.1484375 1.59375,1.4414062 l 0.738282,0.1757813 c 0.5625,0.140625 0.785156,0.3398437 0.785156,0.6914062 0,0.48046876 -0.46875,0.79687501 -1.171875,0.79687501 -0.433594,0 -0.796875,-0.12890625 -0.996094,-0.33984375 -0.117187,-0.140625 -0.175781,-0.28124996 -0.222656,-0.63281246 h -0.84375 c 0.03516,1.14843746 0.679687,1.71093746 1.992187,1.71093746 1.265625,0 2.074219,-0.62109375 2.074219,-1.59374996 0,-0.7382813 -0.421875,-1.1484375 -1.417969,-1.3945313 l -0.773437,-0.1757812 c -0.644531,-0.1523438 -0.925781,-0.3632813 -0.925781,-0.7265625 0,-0.46875 0.410156,-0.75 1.066406,-0.75 0.644531,0 0.984375,0.28125 1.007812,0.8085937 z m 3.020507,-1.40625 h -0.820312 v -1.3710937 h -0.796875 v 1.3710937 h -0.679688 v 0.65625 h 0.679688 v 3.78515626 c 0,0.515625 0.351562,0.796875 0.972656,0.796875 0.210938,0 0.375,-0.0234375 0.644531,-0.0703125 v -0.66796875 c -0.117187,0.0234375 -0.222656,0.0351563 -0.375,0.0351563 -0.351562,0 -0.445312,-0.09375 -0.445312,-0.4453125 V -4.3594297 h 0.820312 z m 5.355469,4.54687501 c -0.09375,0.0234375 -0.128906,0.0234375 -0.175781,0.0234375 -0.28125,0 -0.433594,-0.15234375 -0.433594,-0.3984375 V -3.7852109 c 0,-0.890625 -0.644531,-1.3710938 -1.886719,-1.3710938 -0.726562,0 -1.3125,0.2109375 -1.664062,0.5859375 -0.222656,0.2578125 -0.316406,0.5390625 -0.339844,1.0429688 h 0.808594 c 0.05859,-0.609375 0.421875,-0.890625 1.171875,-0.890625 0.726562,0 1.113281,0.2695312 1.113281,0.75 v 0.2109375 c 0,0.3398437 -0.175781,0.46875 -0.832031,0.5507812 -1.125,0.140625 -1.300781,0.1757813 -1.605469,0.3046875 -0.574219,0.2460938 -0.878906,0.6914063 -0.878906,1.3359375 0,0.91406251 0.632812,1.48828126 1.652344,1.48828126 0.621093,0 1.136718,-0.2226562475 1.699218,-0.73828125 0.05859,0.5156250025 0.304688,0.73828125 0.820313,0.73828125 0.175781,0 0.28125,-0.0234375 0.550781,-0.09375 z m -1.40625,-1.11328121 c 0,0.2695312 -0.07031,0.4335937 -0.316406,0.65624996 -0.316406,0.29296875 -0.714844,0.4453125 -1.183594,0.4453125 -0.621094,0 -0.984375,-0.29296875 -0.984375,-0.79687496 0,-0.5273438 0.351563,-0.796875 1.207031,-0.9257813 0.855469,-0.1054687 1.019532,-0.1523437 1.277344,-0.2695312 z m 4.025391,-3.4335938 h -0.820313 v -1.3710937 h -0.796875 v 1.3710937 h -0.679687 v 0.65625 h 0.679687 v 3.78515626 c 0,0.515625 0.351563,0.796875 0.972657,0.796875 0.210937,0 0.375,-0.0234375 0.644531,-0.0703125 v -0.66796875 c -0.117188,0.0234375 -0.222656,0.0351563 -0.375,0.0351563 -0.351563,0 -0.445313,-0.09375 -0.445313,-0.4453125 V -4.3594297 h 0.820313 z m 5.141601,2.7773438 c 0,-0.7617188 -0.05859,-1.21875 -0.210937,-1.59375 -0.316406,-0.8203125 -1.089844,-1.3242188 -2.027344,-1.3242188 -1.394531,0 -2.285156,1.0664063 -2.285156,2.71875 0,1.65234376 0.855469,2.66015626 2.273437,2.66015626 1.148438,0 1.933594,-0.65625 2.144532,-1.74609376 h -0.808594 c -0.222656,0.66796876 -0.667969,1.00781251 -1.3125,1.00781251 -0.503906,0 -0.9375,-0.234375 -1.207031,-0.65625001 -0.1875,-0.28125 -0.257813,-0.5742187 -0.257813,-1.0664062 z m -3.679687,-0.6445313 c 0.07031,-0.9375 0.632812,-1.5351562 1.441406,-1.5351562 0.808594,0 1.371094,0.6328125 1.371094,1.5351562 z m 0,0"
       style="fill:#cccccc;fill-opacity:1;fill-rule:nonzero;stroke:none"
       aria-label="superstate"
       transform="matrix(1.3333333,0,0,1.3333333,526.89467,444.55867)" />
    <path
       id="path14"
       d="m 4780.3,4334.14 c 0,0 0,0 10.63,21.25 10.62,21.24 31.86,63.74 10.62,106.23 -21.25,42.49 -84.98,84.98 -180.59,127.47 -95.61,42.49 -223.08,84.98 -371.8,138.1 -148.72,53.11 -318.69,116.85 -467.41,244.33 -148.72,127.47 -276.2,318.68 -339.93,520.52 -63.74,201.83 -63.74,414.29 -31.87,584.25 31.87,169.97 95.6,297.44 127.47,361.18 31.87,63.74 31.87,63.74 31.87,63.74"
       style="fill:none;stroke:#cccccc;stroke-width:7.96717;stroke-linecap:butt;stroke-linejoin:miter;stroke-miterlimit:10;stroke-dasharray:none;stroke-opacity:1"
       transform="matrix(0.13333333,0,0,-0.13333333,0,1056)" />
    <path
       id="path15"
       d="m 3515.85,6438.86 53.44,62.35 -17.81,-80.17"
       style="fill:none;stroke:#cccccc;stroke-width:7.96717;stroke-linecap:butt;stroke-linejoin:miter;stroke-miterlimit:10;stroke-dasharray:none;stroke-opacity:1"
       transform="matrix(0.13333333,0,0,-0.13333333,0,1056)" />
    <path
       id="path16"
       d="m 6.6447109,-5.7409609 c 0,-0.5625 -0.023437,-0.7148438 -0.2109375,-1.1015625 -0.4453125,-0.9375 -1.3945312,-1.4179688 -2.765625,-1.4179688 -1.78125,0 -2.88281246,0.9140625 -2.88281246,2.3789063 0,0.9960937 0.51562496,1.6171875 1.59374996,1.8984375 l 2.015625,0.5390625 c 1.0429688,0.2695312 1.5,0.6796875 1.5,1.3125 0,0.4335937 -0.234375,0.8789062 -0.5859375,1.125 -0.3164062,0.23437496 -0.8320312,0.35156246 -1.4882812,0.35156246 -0.9023438,0 -1.4882813,-0.2109375 -1.875,-0.67968746 -0.3046875,-0.3632813 -0.4335938,-0.75 -0.4335938,-1.2539063 H 0.53924219 c 0.0117188,0.75 0.15234375,1.2421875 0.48046871,1.68750001 0.5507813,0.7734375 1.4882813,1.16015625 2.7304688,1.16015625 0.9726562,0 1.7578125,-0.22265625 2.2851562,-0.62109375 0.5507813,-0.4453125 0.890625,-1.16015621 0.890625,-1.86328121 0,-1.0078125 -0.6210937,-1.7460938 -1.7226562,-2.0507813 L 3.1525234,-4.8151797 C 2.1798672,-5.0847109 1.8165859,-5.4011172 1.8165859,-6.0222109 c 0,-0.8320313 0.7265625,-1.3710938 1.8164063,-1.3710938 1.3007812,0 2.0273437,0.5742188 2.0390625,1.6523438 z m 6.4423831,4.76953121 H 8.9269375 C 9.0206875,-1.6393984 9.3839688,-2.0612734 10.344906,-2.6589297 l 1.125,-0.6210937 c 1.101563,-0.609375 1.664063,-1.4414063 1.664063,-2.4257813 0,-0.6796875 -0.257813,-1.3007812 -0.726563,-1.734375 -0.46875,-0.421875 -1.054687,-0.6210937 -1.804687,-0.6210937 -0.996094,0 -1.746094,0.3515625 -2.1796877,1.0429687 -0.28125,0.421875 -0.3984375,0.9257813 -0.421875,1.7460938 h 0.9726562 c 0.035156,-0.5507813 0.1054688,-0.8789063 0.234375,-1.1367188 0.2578125,-0.4921875 0.7734375,-0.796875 1.3710935,-0.796875 0.890625,0 1.558594,0.6445313 1.558594,1.5117188 0,0.65625 -0.375,1.2070312 -1.078125,1.6171875 l -1.019531,0.5976562 c -1.652344,0.9492188 -2.1328127,1.7109375 -2.2265627,3.46875001 h 5.2734377 z m 0,0"
       style="fill:#cccccc;fill-opacity:1;fill-rule:nonzero;stroke:none"
       aria-label="S2"
       transform="matrix(1.3333333,0,0,1.3333333,611.87867,480.04133)" />
    <path
       id="path17"
       d="m 2167.07,6118.79 h 637.38"
       style="fill:none;stroke:#000000;stroke-width:15.9343;stroke-linecap:butt;stroke-linejoin:miter;stroke-miterlimit:10;stroke-dasharray:none;stroke-opacity:1"
       transform="matrix(0.13333333,0,0,-0.13333333,0,1056)" />
    <path
       id="path18"
       d="m 2676.97,6182.52 127.48,-63.73"
       style="fill:none;stroke:#000000;stroke-width:15.9343;stroke-linecap:butt;stroke-linejoin:miter;stroke-miterlimit:10;stroke-dasharray:none;stroke-opacity:1"
       transform="matrix(0.13333333,0,0,-0.13333333,0,1056)" />
    <path
       id="path19"
       d="m 2676.97,6055.05 127.48,63.74"
       style="fill:none;stroke:#000000;stroke-width:15.9343;stroke-linecap:butt;stroke-linejoin:miter;stroke-miterlimit:10;stroke-dasharray:none;stroke-opacity:1"
       transform="matrix(0.13333333,0,0,-0.13333333,0,1056)" />
    <path
       id="path20"
       d="M 3.2466563,-3.7252578 H 5.93025 c 1.921875,0 3.1523438,-1.3710938 3.1523438,-3.4921875 0,-2.0859375 -1.1953125,-3.2343747 -3.375,-3.2343747 H 1.0904063 V 0.00130469 h 2.15625 z m 0,-1.7929688 v -3.140625 h 2.0039062 c 1.1484375,0 1.6757813,0.5039063 1.6757813,1.5585938 0,1.078125 -0.5273438,1.5820312 -1.6757813,1.5820312 z m 7.2216797,-2.2265625 v 7.74609379 h 2.003906 V -4.1119766 c 0,-1.1835937 0.597656,-1.7695312 1.769531,-1.7695312 0.210938,0 0.363282,0.011719 0.632813,0.058594 v -2.0390625 c -0.117188,-0.011719 -0.164063,-0.011719 -0.246094,-0.011719 -0.914062,0 -1.710937,0.5976562 -2.15625,1.6523437 v -1.5234375 z m 8.988281,-0.1289062 c -2.367187,0 -3.808594,1.5585937 -3.808594,4.1015625 0,2.5546875 1.441407,4.10156249 3.832032,4.10156249 2.367187,0 3.820312,-1.54687499 3.820312,-4.04296879 0,-2.625 -1.417969,-4.1601562 -3.84375,-4.1601562 z m 0.02344,1.6171875 c 1.101562,0 1.816406,0.9960937 1.816406,2.5195312 0,1.4414063 -0.75,2.4492188 -1.816406,2.4492188 -1.089844,0 -1.828125,-0.9960938 -1.828125,-2.484375 0,-1.4882813 0.738281,-2.484375 1.828125,-2.484375 z m 10.239257,6.25781249 h 2.003907 V -10.45182 h -2.003907 v 3.7148434 c -0.503906,-0.7734375 -1.160156,-1.1367187 -2.144531,-1.1367187 -1.851562,0 -3.257812,1.78125 -3.257812,4.1132812 0,1.0546875 0.316406,2.109375 0.832031,2.85937504 0.539062,0.76171875 1.488281,1.23046875 2.425781,1.23046875 0.984375,0 1.640625,-0.33984375 2.144531,-1.11328125 z m -1.69922,-6.19921879 c 1.019531,0 1.699218,0.9726563 1.699218,2.4726563 0,1.40625 -0.691406,2.3789062 -1.699218,2.3789062 -0.996094,0 -1.6875,-0.9960937 -1.6875,-2.4140625 0,-1.4414062 0.691406,-2.4375 1.6875,-2.4375 z M 40.42732,0.00130469 V -7.7447891 h -2.003906 v 4.8515625 c 0,0.9140625 -0.632812,1.5117188 -1.617187,1.5117188 -0.867188,0 -1.300782,-0.4570313 -1.300782,-1.3828125 v -4.9804688 h -2.003906 v 5.390625 c 0,1.72265629 0.9375,2.68359379 2.601563,2.68359379 1.042968,0 1.746093,-0.375 2.320312,-1.2421875 v 0.9140625 z m 8.493164,-4.85156249 c -0.140625,-1.8867188 -1.394531,-3.0234375 -3.339843,-3.0234375 -2.332032,0 -3.65625,1.5234375 -3.65625,4.1601562 0,2.5546875 1.324218,4.04296879 3.621093,4.04296879 1.886719,0 3.1875,-1.16015625 3.375,-3.01171879 h -1.921875 c -0.246093,1.0078125 -0.644531,1.3945313 -1.453125,1.3945313 -1.019531,0 -1.617187,-0.9023438 -1.617187,-2.4257813 0,-0.75 0.140625,-1.4179687 0.386719,-1.875 0.234375,-0.4335937 0.679687,-0.6679687 1.253906,-0.6679687 0.808594,0 1.195312,0.3867187 1.429687,1.40625 z m 4.795899,-2.7304688 h -1.113281 v -2.0859375 h -2.003907 v 2.0859375 h -0.996093 v 1.3242188 h 0.996093 v 4.7695312 c 0,1.21875004 0.644532,1.81640629 1.957032,1.81640629 0.457031,0 0.796875,-0.046875 1.160156,-0.15234375 V -1.2291641 c -0.199219,0.023437 -0.292969,0.035156 -0.457031,0.035156 -0.527344,0 -0.65625,-0.1523438 -0.65625,-0.84375 v -4.21875 h 1.113281 z m 3.427734,-0.1640625 h -2.003906 v 7.74609379 h 2.003906 z m 0,-2.7070309 h -2.003906 v 1.7929684 h 2.003906 z m 5.334961,2.5781247 c -2.367187,0 -3.808594,1.5585937 -3.808594,4.1015625 0,2.5546875 1.441407,4.10156249 3.832032,4.10156249 2.367187,0 3.820312,-1.54687499 3.820312,-4.04296879 0,-2.625 -1.417969,-4.1601562 -3.84375,-4.1601562 z m 0.02344,1.6171875 c 1.101562,0 1.816406,0.9960937 1.816406,2.5195312 0,1.4414063 -0.75,2.4492188 -1.816406,2.4492188 -1.089844,0 -1.828125,-0.9960938 -1.828125,-2.484375 0,-1.4882813 0.738281,-2.484375 1.828125,-2.484375 z m 5.329101,-1.4882813 v 7.74609379 h 2.003906 V -4.6510391 c 0,-0.9140625 0.632813,-1.5117187 1.628907,-1.5117187 0.855468,0 1.289062,0.46875 1.289062,1.3828125 V 0.00130469 H 74.7574 V -5.1901016 c 0,-1.7226562 -0.925781,-2.6835937 -2.589843,-2.6835937 -1.054688,0 -1.757813,0.375 -2.332032,1.2539062 v -1.125 z M 9.7857188,7.4280625 C 9.7154063,6.5257188 9.5279063,5.9515 9.0825938,5.3655625 8.274,4.2991563 6.9849375,3.7132188 5.4263438,3.7132188 c -2.953125,0 -4.7929688,2.109375 -4.7929688,5.4960937 0,3.3632815 1.8164063,5.4609375 4.734375,5.4609375 2.6132813,0 4.3242188,-1.5 4.453125,-3.902344 H 7.7349375 c -0.1523437,1.335938 -0.9726562,2.097657 -2.3085937,2.097657 -1.6640625,0 -2.6484375,-1.347657 -2.6484375,-3.632813 0,-2.3085937 1.0195312,-3.6796875 2.71875,-3.6796875 1.2421875,0 1.9453125,0.5976563 2.2382812,1.875 z M 14.666578,6.467125 c -2.367187,0 -3.808594,1.5585938 -3.808594,4.101563 0,2.554687 1.441407,4.101562 3.832032,4.101562 2.367187,0 3.820312,-1.546875 3.820312,-4.042969 0,-2.6249997 -1.417969,-4.160156 -3.84375,-4.160156 z m 0.02344,1.6171875 c 1.101562,0 1.816406,0.9960938 1.816406,2.5195315 0,1.441406 -0.75,2.449219 -1.816406,2.449219 -1.089844,0 -1.828125,-0.996094 -1.828125,-2.484375 0,-1.4882817 0.738281,-2.4843755 1.828125,-2.4843755 z m 5.329101,-1.4882812 v 7.7460937 h 2.003906 V 9.6897813 c 0,-0.9140625 0.632813,-1.5117188 1.628907,-1.5117188 0.855468,0 1.289062,0.46875 1.289062,1.3828125 v 4.78125 H 26.9449 V 9.1507188 c 0,-1.7226563 -0.925781,-2.6835938 -2.589843,-2.6835938 -1.054688,0 -1.757813,0.375 -2.332032,1.2539063 v -1.125 z m 13.672852,7.7460937 h 2.003906 V 3.889 H 33.691969 V 7.6038438 C 33.188062,6.8304063 32.531812,6.467125 31.547437,6.467125 c -1.851562,0 -3.257812,1.78125 -3.257812,4.113281 0,1.054688 0.316406,2.109375 0.832031,2.859375 0.539063,0.761719 1.488281,1.230469 2.425781,1.230469 0.984375,0 1.640625,-0.339844 2.144532,-1.113281 z M 31.99275,8.1429063 c 1.019531,0 1.699219,0.9726562 1.699219,2.4726567 0,1.40625 -0.691407,2.378906 -1.699219,2.378906 -0.996094,0 -1.6875,-0.996094 -1.6875,-2.414063 0,-1.441406 0.691406,-2.4374997 1.6875,-2.4374997 z m 7.614258,-1.546875 h -2.003906 v 7.7460937 h 2.003906 z m 0,-2.7070313 h -2.003906 v 1.7929688 h 2.003906 z m 5.332031,2.8710938 H 43.825758 V 4.6741563 h -2.003906 v 2.0859375 h -0.996094 v 1.3242187 h 0.996094 v 4.7695315 c 0,1.21875 0.644531,1.816406 1.957031,1.816406 0.457031,0 0.796875,-0.04687 1.160156,-0.152344 v -1.40625 c -0.199219,0.02344 -0.292969,0.03516 -0.457031,0.03516 -0.527344,0 -0.65625,-0.152344 -0.65625,-0.84375 V 8.0843125 h 1.113281 z m 3.427734,-0.1640625 h -2.003906 v 7.7460937 h 2.003906 z m 0,-2.7070313 h -2.003906 v 1.7929688 h 2.003906 z m 5.334961,2.578125 c -2.367187,0 -3.808593,1.5585938 -3.808593,4.101563 0,2.554687 1.441406,4.101562 3.832031,4.101562 2.367187,0 3.820312,-1.546875 3.820312,-4.042969 0,-2.6249997 -1.417968,-4.160156 -3.84375,-4.160156 z m 0.02344,1.6171875 c 1.101562,0 1.816406,0.9960938 1.816406,2.5195315 0,1.441406 -0.75,2.449219 -1.816406,2.449219 -1.089844,0 -1.828125,-0.996094 -1.828125,-2.484375 0,-1.4882817 0.738281,-2.4843755 1.828125,-2.4843755 z M 59.054273,6.5960313 V 14.342125 H 61.05818 V 9.6897813 c 0,-0.9140625 0.632812,-1.5117188 1.628906,-1.5117188 0.855469,0 1.289062,0.46875 1.289062,1.3828125 v 4.78125 h 2.003907 V 9.1507188 c 0,-1.7226563 -0.925782,-2.6835938 -2.589844,-2.6835938 -1.054688,0 -1.757813,0.375 -2.332031,1.2539063 v -1.125 z M 74.156812,9.092125 c -0.02344,-1.640625 -1.289062,-2.625 -3.375,-2.625 -1.957031,0 -3.175781,0.984375 -3.175781,2.578125 0,0.515625 0.152344,0.960938 0.421875,1.265625 0.28125,0.269531 0.527344,0.398438 1.265625,0.644531 l 2.402344,0.75 c 0.492187,0.152344 0.667969,0.316407 0.667969,0.632813 0,0.46875 -0.5625,0.761719 -1.488282,0.761719 -0.527343,0 -0.9375,-0.09375 -1.195312,-0.28125 -0.210938,-0.152344 -0.292969,-0.316407 -0.386719,-0.726563 h -1.96875 c 0.05859,1.699219 1.3125,2.578125 3.667969,2.578125 1.066406,0 1.886719,-0.222656 2.460937,-0.691406 0.574219,-0.457031 0.914063,-1.171875 0.914063,-1.933594 0,-1.007812 -0.492188,-1.652344 -1.511719,-1.945312 L 70.313062,9.3616563 C 69.750562,9.1975938 69.609937,9.0804063 69.609937,8.764 c 0,-0.4335937 0.457032,-0.7148437 1.160157,-0.7148437 0.960937,0 1.441406,0.3398437 1.453125,1.0429687 z M 251.82185,-3.7252578 h 2.6836 c 1.92187,0 3.15234,-1.3710938 3.15234,-3.4921875 0,-2.0859375 -1.19531,-3.2343747 -3.375,-3.2343747 H 249.6656 V 0.00130469 h 2.15625 z m 0,-1.7929688 v -3.140625 h 2.00391 c 1.14844,0 1.67578,0.5039063 1.67578,1.5585938 0,1.078125 -0.52734,1.5820312 -1.67578,1.5820312 z m 7.22168,-2.2265625 v 7.74609379 h 2.00391 V -4.1119766 c 0,-1.1835937 0.59765,-1.7695312 1.76953,-1.7695312 0.21094,0 0.36328,0.011719 0.63281,0.058594 v -2.0390625 c -0.11719,-0.011719 -0.16406,-0.011719 -0.24609,-0.011719 -0.91407,0 -1.71094,0.5976562 -2.15625,1.6523437 v -1.5234375 z m 8.98828,-0.1289062 c -2.36719,0 -3.80859,1.5585937 -3.80859,4.1015625 0,2.5546875 1.4414,4.10156249 3.83203,4.10156249 2.36719,0 3.82031,-1.54687499 3.82031,-4.04296879 0,-2.625 -1.41797,-4.1601562 -3.84375,-4.1601562 z m 0.0234,1.6171875 c 1.10156,0 1.81641,0.9960937 1.81641,2.5195312 0,1.4414063 -0.75,2.4492188 -1.81641,2.4492188 -1.08984,0 -1.82813,-0.9960938 -1.82813,-2.484375 0,-1.4882813 0.73829,-2.484375 1.82813,-2.484375 z m 10.23926,6.25781249 h 2.0039 V -10.45182 h -2.0039 v 3.7148434 c -0.50391,-0.7734375 -1.16016,-1.1367187 -2.14453,-1.1367187 -1.85157,0 -3.25782,1.78125 -3.25782,4.1132812 0,1.0546875 0.31641,2.109375 0.83204,2.85937504 0.53906,0.76171875 1.48828,1.23046875 2.42578,1.23046875 0.98437,0 1.64062,-0.33984375 2.14453,-1.11328125 z m -1.69922,-6.19921879 c 1.01953,0 1.69922,0.9726563 1.69922,2.4726563 0,1.40625 -0.69141,2.3789062 -1.69922,2.3789062 -0.99609,0 -1.6875,-0.9960937 -1.6875,-2.4140625 0,-1.4414062 0.69141,-2.4375 1.6875,-2.4375 z m 12.40723,6.19921879 V -7.7447891 h -2.00391 v 4.8515625 c 0,0.9140625 -0.63281,1.5117188 -1.61719,1.5117188 -0.86719,0 -1.30078,-0.4570313 -1.30078,-1.3828125 v -4.9804688 h -2.00391 v 5.390625 c 0,1.72265629 0.9375,2.68359379 2.60157,2.68359379 1.04297,0 1.74609,-0.375 2.32031,-1.2421875 v 0.9140625 z m 8.49023,-4.85156249 c -0.14063,-1.8867188 -1.39453,-3.0234375 -3.33984,-3.0234375 -2.33204,0 -3.65625,1.5234375 -3.65625,4.1601562 0,2.5546875 1.32421,4.04296879 3.62109,4.04296879 1.88672,0 3.1875,-1.16015625 3.375,-3.01171879 h -1.92188 c -0.24609,1.0078125 -0.64453,1.3945313 -1.45312,1.3945313 -1.01953,0 -1.61719,-0.9023438 -1.61719,-2.4257813 0,-0.75 0.14063,-1.4179687 0.38672,-1.875 0.23438,-0.4335937 0.67969,-0.6679687 1.25391,-0.6679687 0.80859,0 1.19531,0.3867187 1.42968,1.40625 z m 4.79883,-2.7304688 h -1.11328 v -2.0859375 h -2.00391 v 2.0859375 h -0.99609 v 1.3242188 h 0.99609 v 4.7695312 c 0,1.21875004 0.64453,1.81640629 1.95703,1.81640629 0.45703,0 0.79688,-0.046875 1.16016,-0.15234375 V -1.2291641 c -0.19922,0.023437 -0.29297,0.035156 -0.45703,0.035156 -0.52735,0 -0.65625,-0.1523438 -0.65625,-0.84375 v -4.21875 h 1.11328 z m 3.42773,-0.1640625 h -2.0039 v 7.74609379 h 2.0039 z m 0,-2.7070309 h -2.0039 v 1.7929684 h 2.0039 z m 5.33496,2.5781247 c -2.36718,0 -3.80859,1.5585937 -3.80859,4.1015625 0,2.5546875 1.44141,4.10156249 3.83203,4.10156249 2.36719,0 3.82031,-1.54687499 3.82031,-4.04296879 0,-2.625 -1.41797,-4.1601562 -3.84375,-4.1601562 z m 0.0234,1.6171875 c 1.10156,0 1.81641,0.9960937 1.81641,2.5195312 0,1.4414063 -0.75,2.4492188 -1.81641,2.4492188 -1.08984,0 -1.82812,-0.9960938 -1.82812,-2.484375 0,-1.4882813 0.73828,-2.484375 1.82812,-2.484375 z m 5.3291,-1.4882813 v 7.74609379 h 2.00391 V -4.6510391 c 0,-0.9140625 0.63281,-1.5117187 1.6289,-1.5117187 0.85547,0 1.28907,0.46875 1.28907,1.3828125 v 4.78124999 h 2.0039 V -5.1901016 c 0,-1.7226562 -0.92578,-2.6835937 -2.58984,-2.6835937 -1.05469,0 -1.75781,0.375 -2.33203,1.2539062 v -1.125 z m -60.64746,19.9775391 0.69141,2.109375 h 2.20312 L 255.04451,3.889 h -2.37891 l -3.71484,10.453125 h 2.1914 l 0.70313,-2.109375 z m -0.58594,-1.792969 h -2.73046 l 1.37109,-4.0898435 z m 11.24414,-0.9492185 c -0.14062,-1.8867187 -1.39453,-3.0234375 -3.33984,-3.0234375 -2.33203,0 -3.65625,1.5234375 -3.65625,4.160156 0,2.554688 1.32422,4.042969 3.62109,4.042969 1.88672,0 3.1875,-1.160156 3.375,-3.011719 h -1.92187 c -0.24609,1.007813 -0.64453,1.394532 -1.45313,1.394532 -1.01953,0 -1.61718,-0.902344 -1.61718,-2.425782 0,-0.7499997 0.14062,-1.4179685 0.38672,-1.8749997 0.23437,-0.4335938 0.67968,-0.6679688 1.2539,-0.6679688 0.8086,0 1.19531,0.3867188 1.42969,1.40625 z m 4.79883,-2.7304687 h -1.1132 V 4.6741563 h -2.0039 v 2.0859375 h -0.9961 v 1.3242187 h 0.9961 v 4.7695315 c 0,1.21875 0.64453,1.816406 1.95703,1.816406 0.45703,0 0.79687,-0.04687 1.16015,-0.152344 v -1.40625 c -0.19922,0.02344 -0.29297,0.03516 -0.45703,0.03516 -0.52734,0 -0.65625,-0.152344 -0.65625,-0.84375 V 8.0843125 h 1.11328 z m 3.42774,-0.1640625 h -2.00391 v 7.7460937 h 2.00391 z m 0,-2.7070313 h -2.00391 v 1.7929688 h 2.00391 z m 5.33203,2.578125 c -2.36719,0 -3.8086,1.5585938 -3.8086,4.101563 0,2.554687 1.44141,4.101562 3.83204,4.101562 2.36718,0 3.82031,-1.546875 3.82031,-4.042969 0,-2.6249997 -1.41797,-4.160156 -3.84375,-4.160156 z m 0.0234,1.6171875 c 1.10156,0 1.8164,0.9960938 1.8164,2.5195315 0,1.441406 -0.75,2.449219 -1.8164,2.449219 -1.08985,0 -1.82813,-0.996094 -1.82813,-2.484375 0,-1.4882817 0.73828,-2.4843755 1.82813,-2.4843755 z m 5.3291,-1.4882812 v 7.7460937 h 2.0039 V 9.6897813 c 0,-0.9140625 0.63282,-1.5117188 1.62891,-1.5117188 0.85547,0 1.28906,0.46875 1.28906,1.3828125 v 4.78125 h 2.00391 V 9.1507188 c 0,-1.7226563 -0.92578,-2.6835938 -2.58985,-2.6835938 -1.05468,0 -1.75781,0.375 -2.33203,1.2539063 v -1.125 z m 15.10254,2.4960937 c -0.0234,-1.640625 -1.28907,-2.625 -3.375,-2.625 -1.95703,0 -3.17578,0.984375 -3.17578,2.578125 0,0.515625 0.15234,0.960938 0.42187,1.265625 0.28125,0.269531 0.52734,0.398438 1.26563,0.644531 l 2.40234,0.75 c 0.49219,0.152344 0.66797,0.316407 0.66797,0.632813 0,0.46875 -0.5625,0.761719 -1.48828,0.761719 -0.52735,0 -0.9375,-0.09375 -1.19532,-0.28125 -0.21093,-0.152344 -0.29296,-0.316407 -0.38671,-0.726563 h -1.96875 c 0.0586,1.699219 1.3125,2.578125 3.66796,2.578125 1.06641,0 1.88672,-0.222656 2.46094,-0.691406 0.57422,-0.457031 0.91406,-1.171875 0.91406,-1.933594 0,-1.007812 -0.49218,-1.652344 -1.51171,-1.945312 l -2.54297,-0.7382817 c -0.5625,-0.1640625 -0.70313,-0.28125 -0.70313,-0.5976563 0,-0.4335937 0.45703,-0.7148437 1.16016,-0.7148437 0.96094,0 1.4414,0.3398437 1.45312,1.0429687 z m 0,0"
       style="fill:#000000;fill-opacity:1;fill-rule:nonzero;stroke:none"
       aria-label="Production&#10;Conditions&#10;Production&#10;Actions"
       transform="matrix(1.3333333,0,0,1.3333333,161.468,115.31467)" />
    <path
       id="path21"
       d="m 5800.1,4334.14 c 0,70.4 -57.08,127.48 -127.47,127.48 -70.4,0 -127.48,-57.08 -127.48,-127.48 0,-70.4 57.08,-127.47 127.48,-127.47 70.39,0 127.47,57.07 127.47,127.47"
       style="fill:none;stroke:#000000;stroke-width:23.9015;stroke-linecap:butt;stroke-linejoin:miter;stroke-miterlimit:10;stroke-dasharray:none;stroke-opacity:1"
       transform="matrix(0.13333333,0,0,-0.13333333,0,1056)" />
    <path
       id="path22"
       d="M 4.3590469,-4.1706484 7.1012344,-8.1315859 H 5.8707656 l -2.0976562,3.1875 -2.0859375,-3.1875 H 0.42154687 L 3.1285781,-4.1706484 0.24576562,0.00122656 H 1.5113906 L 3.7379531,-3.3854922 5.9527969,0.00122656 h 1.2890625 z m 5.9765621,-1.5703125 v 5.74218746 h 0.972657 V -8.0612734 h -0.644532 c -0.339843,1.2304687 -0.5625,1.40625 -2.0859371,1.6054687 v 0.7148438 z m 0,0"
       style="fill:#000000;fill-opacity:1;fill-rule:nonzero;stroke:none"
       aria-label="X1"
       transform="matrix(1.3333333,0,0,1.3333333,747.852,480.04133)" />
    <path
       id="path23"
       d="m 4780.3,4334.14 c 0,0 0,0 53.12,21.25 53.11,21.24 159.34,63.74 244.32,84.98 84.99,21.25 148.72,21.25 223.08,0 74.36,-21.24 159.35,-63.74 201.84,-84.98 42.49,-21.25 42.49,-21.25 42.49,-21.25"
       style="fill:none;stroke:#000000;stroke-width:15.9343;stroke-linecap:butt;stroke-linejoin:miter;stroke-miterlimit:10;stroke-dasharray:none;stroke-opacity:1"
       transform="matrix(0.13333333,0,0,-0.13333333,0,1056)" />
    <path
       id="path24"
       d="m 5482.8,4387.59 62.35,-53.45 -80.17,17.82"
       style="fill:none;stroke:#000000;stroke-width:15.9343;stroke-linecap:butt;stroke-linejoin:miter;stroke-miterlimit:10;stroke-dasharray:none;stroke-opacity:1"
       transform="matrix(0.13333333,0,0,-0.13333333,0,1056)" />
    <path
       id="path25"
       d="m 5669.04,4450.93 c 0,0 0,0 -21.25,53.11 -21.24,53.12 -63.73,159.34 -84.98,244.33 -21.24,84.98 -21.24,148.72 0,223.08 21.25,74.36 63.74,159.34 84.98,201.83 21.25,42.49 21.25,42.49 21.25,42.49"
       style="fill:none;stroke:#000000;stroke-width:15.9343;stroke-linecap:butt;stroke-linejoin:miter;stroke-miterlimit:10;stroke-dasharray:none;stroke-opacity:1"
       transform="matrix(0.13333333,0,0,-0.13333333,0,1056)" />
    <path
       id="path26"
       d="m 5615.59,5153.42 53.45,62.35 -17.82,-80.16"
       style="fill:none;stroke:#000000;stroke-width:15.9343;stroke-linecap:butt;stroke-linejoin:miter;stroke-miterlimit:10;stroke-dasharray:none;stroke-opacity:1"
       transform="matrix(0.13333333,0,0,-0.13333333,0,1056)" />
    <path
       id="path27"
       d="m 5800.1,5353.94 c 0,70.4 -57.08,127.47 -127.47,127.47 -70.4,0 -127.48,-57.07 -127.48,-127.47 0,-70.4 57.08,-127.48 127.48,-127.48 70.39,0 127.47,57.08 127.47,127.48"
       style="fill:none;stroke:#000000;stroke-width:23.9015;stroke-linecap:butt;stroke-linejoin:miter;stroke-miterlimit:10;stroke-dasharray:none;stroke-opacity:1"
       transform="matrix(0.13333333,0,0,-0.13333333,0,1056)" />
    <path
       id="path28"
       d="M 4.3590469,-4.1711406 7.1012344,-8.1320781 H 5.8707656 l -2.0976562,3.1875 -2.0859375,-3.1875 H 0.42154687 L 3.1285781,-4.1711406 0.24576562,7.34375e-4 H 1.5113906 L 3.7379531,-3.3859844 5.9527969,7.34375e-4 h 1.2890625 z m 8.7304691,3.19921872 H 8.9293594 C 9.0231094,-1.6398906 9.3863906,-2.0617656 10.347328,-2.6594219 l 1.125,-0.6210937 c 1.101563,-0.609375 1.664063,-1.4414063 1.664063,-2.4257813 0,-0.6796875 -0.257813,-1.3007812 -0.726563,-1.734375 -0.46875,-0.421875 -1.054687,-0.6210937 -1.804687,-0.6210937 -0.9960941,0 -1.7460941,0.3515625 -2.1796879,1.0429687 -0.28125,0.421875 -0.3984375,0.9257813 -0.421875,1.7460938 h 0.9726563 c 0.035156,-0.5507813 0.1054687,-0.8789063 0.234375,-1.1367188 0.2578125,-0.4921875 0.7734375,-0.796875 1.3710936,-0.796875 0.890625,0 1.558594,0.6445313 1.558594,1.5117188 0,0.65625 -0.375,1.2070312 -1.078125,1.6171875 l -1.019531,0.5976562 c -1.6523441,0.9492188 -2.1328129,1.7109375 -2.2265629,3.46875002 h 5.2734379 z m 0,0"
       style="fill:#000000;fill-opacity:1;fill-rule:nonzero;stroke:none"
       aria-label="X2"
       transform="matrix(1.3333333,0,0,1.3333333,747.852,344.06933)" />
    <path
       id="path29"
       d="m 3824.24,6564.95 c 0,0 0,0 53.12,21.25 53.11,21.24 159.34,63.73 339.93,74.35 180.59,10.63 435.54,-10.62 679.86,-212.45 244.33,-201.84 478.03,-584.26 594.89,-775.47 116.85,-191.22 116.85,-191.22 116.85,-191.22"
       style="fill:none;stroke:#000000;stroke-width:15.9343;stroke-linecap:butt;stroke-linejoin:miter;stroke-miterlimit:10;stroke-dasharray:31.8687, 31.8687, 31.8687, 31.8687;stroke-dashoffset:0;stroke-opacity:1"
       transform="matrix(0.13333333,0,0,-0.13333333,0,1056)" />
    <path
       id="path30"
       d="m 5584.34,5559.78 24.55,-78.37 -58.54,57.6"
       style="fill:none;stroke:#000000;stroke-width:15.9343;stroke-linecap:butt;stroke-linejoin:miter;stroke-miterlimit:10;stroke-dasharray:31.8687, 31.8687, 31.8687, 31.8687;stroke-dashoffset:0;stroke-opacity:1"
       transform="matrix(0.13333333,0,0,-0.13333333,0,1056)" />
    <g
       id="g30"
       aria-label="linked to&#10;subgoal&#10;   later&#10;new−attribute"
       transform="matrix(1.3333333,0,0,1.3333333,679.86533,200.13067)">
      <path
         id="path31"
         d="M 1.9818594,-6.9739766 H 0.64592187 v 6.97265629 H 1.9818594 Z m 2.6572265,1.8046875 H 3.3031484 v 5.16796879 h 1.3359375 z m 0,-1.8046875 H 3.3031484 v 1.1953125 H 4.6390859 Z M 5.9135,-5.1692891 v 5.16796879 H 7.2611562 V -3.0950703 c 0,-0.6210938 0.421875,-1.0195313 1.078125,-1.0195313 0.5742188,0 0.8554688,0.3164063 0.8554688,0.9257813 v 3.18749999 h 1.347656 V -3.4583516 c 0,-1.1484375 -0.6328123,-1.7929687 -1.7343748,-1.7929687 -0.703125,0 -1.171875,0.2460937 -1.546875,0.8320312 v -0.75 z m 7.142578,2.015625 v -3.8203125 h -1.335937 v 6.97265629 h 1.335937 V -1.6888203 l 0.539063,-0.5859375 1.230468,2.27343749 h 1.570313 l -1.886719,-3.21093749 1.769531,-1.9570313 h -1.523437 z m 8.431641,0.9960938 c 0,-0.1171875 0,-0.1640625 0,-0.234375 0,-0.515625 -0.07031,-0.9960938 -0.199219,-1.359375 -0.339844,-0.9375 -1.171875,-1.5 -2.214844,-1.5 -1.488281,0 -2.390625,1.0664062 -2.390625,2.8007812 0,1.65234379 0.902344,2.67187504 2.367188,2.67187504 1.148437,0 2.085937,-0.65625 2.390625,-1.67578124 h -1.324219 c -0.164063,0.4101562 -0.539063,0.64453124 -1.019531,0.64453124 -0.386719,0 -0.691407,-0.15234375 -0.878907,-0.44531254 -0.128906,-0.1875 -0.175781,-0.421875 -0.199218,-0.9023437 z m -3.445313,-0.890625 c 0.08203,-0.796875 0.421875,-1.1835938 1.007813,-1.1835938 0.621093,0 0.984375,0.4101563 1.042968,1.1835938 z m 7.614258,3.04687499 H 27.00432 V -6.9739766 h -1.347656 v 2.4726563 c -0.328125,-0.515625 -0.773437,-0.75 -1.417969,-0.75 -1.230468,0 -2.167968,1.1835937 -2.167968,2.7421875 0,0.703125 0.210937,1.40625 0.550781,1.91015624 0.351562,0.50390625 0.984375,0.8203125 1.617187,0.8203125 0.644532,0 1.089844,-0.234375 1.417969,-0.75 z m -1.125,-4.13671879 c 0.679688,0 1.125,0.65625 1.125,1.6523438 0,0.9375 -0.457031,1.58203124 -1.125,1.58203124 -0.667969,0 -1.125,-0.65625004 -1.125,-1.60546874 0,-0.9609375 0.457031,-1.6289063 1.125,-1.6289063 z m 8.639648,-0.9257812 h -0.75 v -1.3828125 h -1.335937 v 1.3828125 h -0.667969 v 0.890625 h 0.667969 v 3.17578124 c 0,0.80859375 0.421875,1.21875 1.3125,1.21875 0.304687,0 0.515625,-0.0351563 0.773437,-0.10546875 v -0.9375 c -0.140625,0.0117188 -0.210937,0.0234375 -0.304687,0.0234375 -0.363281,0 -0.445313,-0.10546875 -0.445313,-0.56249999 v -2.8125 h 0.75 z m 3.184571,-0.1875 c -1.582031,0 -2.542969,1.0429687 -2.542969,2.7304687 0,1.71093754 0.960938,2.74218754 2.542969,2.74218754 1.582031,0 2.554687,-1.03125 2.554687,-2.69531254 0,-1.7578125 -0.9375,-2.7773437 -2.554687,-2.7773437 z m 0,1.078125 c 0.738281,0 1.21875,0.6679687 1.21875,1.6757812 0,0.9609375 -0.492188,1.64062504 -1.21875,1.64062504 -0.726563,0 -1.207031,-0.66796874 -1.207031,-1.66406254 0,-0.984375 0.480468,-1.6523437 1.207031,-1.6523437 z M 4.8295156,6.0572734 c -0.023437,-1.0898437 -0.8554687,-1.7460937 -2.25,-1.7460937 -1.3007812,0 -2.12109373,0.65625 -2.12109373,1.7226562 0,0.3398438 0.10546875,0.6445313 0.29296875,0.84375 0.17578125,0.1757813 0.33984378,0.2695313 0.83203128,0.421875 l 1.6054687,0.5039063 c 0.328125,0.1054687 0.4453125,0.2109375 0.4453125,0.421875 0,0.3164062 -0.375,0.5039062 -0.9960937,0.5039062 -0.3515625,0 -0.6210938,-0.058594 -0.796875,-0.1757812 C 1.7006094,8.4478984 1.6420156,8.3424297 1.5834219,8.0611797 H 0.28264062 c 0.0351563,1.1367187 0.86718748,1.7226562 2.43749998,1.7226562 0.7148438,0 1.2539063,-0.1523437 1.640625,-0.4570312 0.3867188,-0.3164063 0.609375,-0.7851563 0.609375,-1.3007813 0,-0.6679687 -0.328125,-1.0898437 -1.0078125,-1.3007812 L 2.2631094,6.2447734 c -0.3632813,-0.1171875 -0.46875,-0.1875 -0.46875,-0.3984375 0,-0.2929687 0.3164062,-0.4804687 0.7851562,-0.4804687 0.6328125,0 0.9492188,0.2226562 0.9609375,0.6914062 z M 10.483812,9.5611797 V 4.3932109 H 9.147875 v 3.234375 c 0,0.609375 -0.421875,1.0195313 -1.078125,1.0195313 -0.5742188,0 -0.8554688,-0.3046875 -0.8554688,-0.9257813 V 4.3932109 H 5.866625 v 3.5976563 c 0,1.1484375 0.6210937,1.7929687 1.734375,1.7929687 0.703125,0 1.171875,-0.2460937 1.546875,-0.8320312 v 0.609375 z m 1.236329,-6.9726563 v 6.9726563 h 1.335937 V 9.0338359 c 0.328125,0.5039063 0.773438,0.75 1.429688,0.75 1.230468,0 2.167968,-1.1835937 2.167968,-2.7421875 0,-0.6914062 -0.210937,-1.40625 -0.550781,-1.8984375 -0.351562,-0.5039062 -0.984375,-0.8320312 -1.617187,-0.8320312 -0.65625,0 -1.101563,0.234375 -1.429688,0.75 V 2.5885234 Z m 2.472656,2.8359375 c 0.65625,0 1.125,0.6796875 1.125,1.6289063 0,0.9492187 -0.457031,1.6054687 -1.125,1.6054687 -0.679688,0 -1.136719,-0.6328125 -1.136719,-1.6289062 0,-0.9492188 0.46875,-1.6054688 1.136719,-1.6054688 z m 6.626953,-1.03125 v 0.796875 C 20.456469,4.5924297 20.034594,4.3111797 19.495531,4.3111797 c -0.457031,0 -0.960937,0.234375 -1.324219,0.5976562 -0.515625,0.5390625 -0.785156,1.2890625 -0.785156,2.1914063 0,1.59375 0.84375,2.6835937 2.085938,2.6835937 0.550781,0 0.878906,-0.1875 1.347656,-0.75 v 0.703125 c 0,0.6210941 -0.433594,1.0429691 -1.066406,1.0429691 -0.480469,0 -0.773438,-0.210938 -0.878907,-0.597657 h -1.382812 c 0.01172,0.398438 0.152344,0.679688 0.515625,0.960938 0.410156,0.339844 0.972656,0.503906 1.699219,0.503906 1.488281,0 2.390625,-0.714844 2.390625,-1.9101561 v -5.34375 z m -1.078125,1.03125 c 0.632812,0 1.101562,0.703125 1.101562,1.6640625 0,0.9375 -0.445312,1.5703125 -1.113281,1.5703125 -0.585937,0 -0.996094,-0.6328125 -0.996094,-1.5703125 0,-0.984375 0.410157,-1.6640625 1.007813,-1.6640625 z m 5.982422,-1.1132812 c -1.582031,0 -2.542969,1.0429687 -2.542969,2.7304687 0,1.7109375 0.960938,2.7421875 2.542969,2.7421875 1.582031,0 2.554687,-1.03125 2.554687,-2.6953125 0,-1.7578125 -0.9375,-2.7773437 -2.554687,-2.7773437 z m 0,1.078125 c 0.738281,0 1.21875,0.6679687 1.21875,1.6757812 0,0.9609375 -0.492188,1.640625 -1.21875,1.640625 -0.726563,0 -1.207031,-0.6679687 -1.207031,-1.6640625 0,-0.984375 0.480468,-1.6523437 1.207031,-1.6523437 z m 7.974609,4.0078125 C 33.464281,9.1744609 33.38225,9.0221172 33.38225,8.7643047 V 5.8932109 c 0,-1.0429687 -0.714844,-1.5820312 -2.109375,-1.5820312 -1.394531,0 -2.121094,0.5976562 -2.203125,1.7929687 h 1.289062 c 0.07031,-0.5390625 0.28125,-0.7148437 0.949219,-0.7148437 0.515625,0 0.773438,0.1757812 0.773438,0.515625 0,0.1757812 -0.09375,0.3164062 -0.234375,0.4101562 -0.175782,0.09375 -0.175782,0.09375 -0.84375,0.1992188 L 30.476,6.6080547 c -1.03125,0.1757812 -1.523438,0.6914062 -1.523438,1.6289062 0,0.9257813 0.621094,1.546875 1.570313,1.546875 0.574219,0 1.089844,-0.2460937 1.558594,-0.7382812 0,0.2695312 0.03516,0.3632812 0.164062,0.515625 h 1.453125 z M 32.081469,7.4869609 c 0,0.7734375 -0.386719,1.21875 -1.066407,1.21875 -0.445312,0 -0.726562,-0.2460937 -0.726562,-0.6210937 0,-0.4101563 0.210937,-0.5976563 0.761719,-0.7148438 l 0.46875,-0.082031 c 0.351562,-0.070312 0.410156,-0.09375 0.5625,-0.1640625 z m 3.896484,-4.8984375 h -1.335937 v 6.9726563 h 1.335937 z M 9.9535391,12.148094 H 8.6176016 v 6.972656 h 1.3359375 z m 5.6923829,6.808593 c -0.234375,-0.222656 -0.316406,-0.375 -0.316406,-0.632812 v -2.871094 c 0,-1.042969 -0.714844,-1.582031 -2.109375,-1.582031 -1.394532,0 -2.121094,0.597656 -2.203125,1.792969 h 1.289062 c 0.07031,-0.539063 0.28125,-0.714844 0.949219,-0.714844 0.515625,0 0.773437,0.175781 0.773437,0.515625 0,0.175781 -0.09375,0.316406 -0.234375,0.410156 -0.175781,0.09375 -0.175781,0.09375 -0.84375,0.199219 l -0.527343,0.09375 c -1.03125,0.175781 -1.523438,0.691406 -1.523438,1.628906 0,0.925781 0.621094,1.546875 1.570313,1.546875 0.574218,0 1.089843,-0.246094 1.558593,-0.738281 0,0.269531 0.03516,0.363281 0.164063,0.515625 h 1.453125 z m -1.617188,-1.910156 c 0,0.773438 -0.386718,1.21875 -1.066406,1.21875 -0.445312,0 -0.726562,-0.246094 -0.726562,-0.621094 0,-0.410156 0.210937,-0.597656 0.761718,-0.714843 l 0.46875,-0.08203 c 0.351563,-0.07031 0.410157,-0.09375 0.5625,-0.164062 z m 4.801758,-2.988281 h -0.75 v -1.382813 h -1.335937 v 1.382813 h -0.667969 v 0.890625 h 0.667969 v 3.175781 c 0,0.808594 0.421875,1.21875 1.3125,1.21875 0.304687,0 0.515625,-0.03516 0.773437,-0.105469 v -0.9375 c -0.140625,0.01172 -0.210937,0.02344 -0.304687,0.02344 -0.363282,0 -0.445313,-0.105469 -0.445313,-0.5625 v -2.8125 h 0.75 z m 5.314453,2.90625 c 0,-0.117188 0,-0.164063 0,-0.234375 0,-0.515625 -0.07031,-0.996094 -0.199218,-1.359375 -0.339844,-0.9375 -1.171875,-1.5 -2.214844,-1.5 -1.488281,0 -2.390625,1.066406 -2.390625,2.800781 0,1.652344 0.902344,2.671875 2.367187,2.671875 1.148438,0 2.085938,-0.65625 2.390625,-1.675781 h -1.324218 c -0.164063,0.410156 -0.539063,0.644531 -1.019532,0.644531 -0.386718,0 -0.691406,-0.152344 -0.878906,-0.445312 -0.128906,-0.1875 -0.175781,-0.421875 -0.199219,-0.902344 z m -3.445312,-0.890625 c 0.08203,-0.796875 0.421875,-1.183594 1.007812,-1.183594 0.621094,0 0.984375,0.410156 1.042969,1.183594 z m 4.344726,-2.121094 v 5.167969 h 1.347657 v -2.742188 c 0,-0.785156 0.386718,-1.183593 1.171875,-1.183593 0.140625,0 0.234375,0.01172 0.421875,0.04687 v -1.359375 c -0.08203,-0.01172 -0.105469,-0.01172 -0.164063,-0.01172 -0.609375,0 -1.136719,0.398437 -1.429687,1.101562 v -1.019531 z m 0,0"
         style="fill:#000000;fill-opacity:1;fill-rule:nonzero;stroke:none" />
      <path
         id="path32"
         d="m -107.68513,-16.091164 v 5.015625 h 0.80859 v -2.765625 c 0,-1.019531 0.52734,-1.6875 1.35938,-1.6875 0.62109,0 1.03125,0.375 1.03125,0.984375 v 3.46875 h 0.78515 v -3.785156 c 0,-0.832032 -0.62109,-1.371094 -1.58203,-1.371094 -0.75,0 -1.23047,0.292969 -1.66406,0.984375 v -0.84375 z m 9.556638,2.777344 c 0,-0.761719 -0.05859,-1.21875 -0.210938,-1.59375 -0.316406,-0.820313 -1.089843,-1.324219 -2.02734,-1.324219 -1.39453,0 -2.28516,1.066406 -2.28516,2.71875 0,1.652344 0.85547,2.660156 2.27344,2.660156 1.148435,0 1.933592,-0.65625 2.144529,-1.746094 h -0.808594 c -0.222656,0.667969 -0.667968,1.007813 -1.312495,1.007813 -0.50391,0 -0.9375,-0.234375 -1.20704,-0.65625 -0.1875,-0.28125 -0.25781,-0.574219 -0.25781,-1.066406 z m -3.679688,-0.644532 c 0.0703,-0.9375 0.63281,-1.535156 1.44141,-1.535156 0.80859,0 1.37109,0.632813 1.37109,1.535156 z m 9.383789,2.882813 1.476563,-5.015625 h -0.902344 l -0.996094,3.902344 -0.984375,-3.902344 h -0.972656 l -0.960937,3.902344 -1.019532,-3.902344 h -0.878906 l 1.453125,5.015625 h 0.902344 l 0.960937,-3.925781 1.019532,3.925781 z m 6.808594,-2.554688 h -4.816406 v 0.667969 h 4.816406 z m 5.499024,2.085938 c -0.09375,0.02344 -0.128907,0.02344 -0.175782,0.02344 -0.28125,0 -0.433593,-0.152343 -0.433593,-0.398437 v -2.941406 c 0,-0.890625 -0.644532,-1.371094 -1.886719,-1.371094 -0.726563,0 -1.3125,0.210937 -1.664063,0.585937 -0.222656,0.257813 -0.316406,0.539063 -0.339843,1.042969 h 0.808593 c 0.05859,-0.609375 0.421875,-0.890625 1.171875,-0.890625 0.726563,0 1.113282,0.269531 1.113282,0.75 v 0.210938 c 0,0.339843 -0.175782,0.46875 -0.832032,0.550781 -1.125,0.140625 -1.300781,0.175781 -1.605468,0.304687 -0.574219,0.246094 -0.878907,0.691407 -0.878907,1.335938 0,0.914062 0.632813,1.488281 1.652344,1.488281 0.621094,0 1.136719,-0.222656 1.699219,-0.738281 0.05859,0.515625 0.304687,0.738281 0.820312,0.738281 0.175782,0 0.28125,-0.02344 0.550782,-0.09375 z m -1.40625,-1.113281 c 0,0.269531 -0.07031,0.433593 -0.316407,0.65625 -0.316406,0.292968 -0.714843,0.445312 -1.183593,0.445312 -0.621094,0 -0.984375,-0.292969 -0.984375,-0.796875 0,-0.527344 0.351562,-0.796875 1.207031,-0.925781 0.855469,-0.105469 1.019531,-0.152344 1.277344,-0.269531 z m 4.02832,-3.433594 h -0.820313 v -1.371094 h -0.796875 v 1.371094 h -0.679687 v 0.65625 h 0.679687 v 3.785156 c 0,0.515625 0.351563,0.796875 0.972657,0.796875 0.210937,0 0.375,-0.02344 0.644531,-0.07031 v -0.667969 c -0.117188,0.02344 -0.222656,0.03516 -0.375,0.03516 -0.351563,0 -0.445313,-0.09375 -0.445313,-0.445312 v -3.433594 h 0.820313 z m 2.657226,0 h -0.820312 v -1.371094 h -0.796875 v 1.371094 h -0.679688 v 0.65625 h 0.679688 v 3.785156 c 0,0.515625 0.351562,0.796875 0.972656,0.796875 0.210938,0 0.375,-0.02344 0.644531,-0.07031 v -0.667969 c -0.117187,0.02344 -0.222656,0.03516 -0.375,0.03516 -0.351562,0 -0.445312,-0.09375 -0.445312,-0.445312 v -3.433594 h 0.820312 z m 0.887696,0 v 5.015625 h 0.808594 v -2.601563 c 0.01172,-1.207031 0.503906,-1.734375 1.605468,-1.710937 v -0.808594 c -0.128906,-0.02344 -0.210937,-0.03516 -0.304687,-0.03516 -0.515625,0 -0.914063,0.304687 -1.371094,1.054687 v -0.914062 z m 3.958008,0 h -0.785157 v 5.015625 h 0.785157 z m 0,-1.957031 h -0.796875 v 1.007812 h 0.796875 z m 1.207031,0 v 6.972656 h 0.714844 v -0.644531 c 0.386718,0.585937 0.890625,0.867187 1.59375,0.867187 1.3125,0 2.179687,-1.078125 2.179687,-2.742187 0,-1.628907 -0.820312,-2.636719 -2.144531,-2.636719 -0.691406,0 -1.171875,0.257812 -1.546875,0.820312 v -2.636718 z m 2.191406,2.566406 c 0.890625,0 1.464844,0.773437 1.464844,1.96875 0,1.136719 -0.597656,1.910156 -1.464844,1.910156 -0.855469,0 -1.394531,-0.761719 -1.394531,-1.945312 0,-1.171875 0.539062,-1.933594 1.394531,-1.933594 z m 7.21582,4.40625 v -5.015625 h -0.785156 v 2.847656 c 0,1.019531 -0.539062,1.6875 -1.371094,1.6875 -0.632812,0 -1.03125,-0.375 -1.03125,-0.984375 v -3.550781 h -0.796875 v 3.867187 c 0,0.832032 0.621094,1.371094 1.59375,1.371094 0.738282,0 1.207032,-0.257812 1.675782,-0.925781 v 0.703125 z m 3.134766,-5.015625 h -0.820312 v -1.371094 h -0.796875 v 1.371094 h -0.679688 v 0.65625 h 0.679688 v 3.785156 c 0,0.515625 0.351562,0.796875 0.972656,0.796875 0.210937,0 0.375,-0.02344 0.644531,-0.07031 v -0.667969 c -0.117187,0.02344 -0.222656,0.03516 -0.375,0.03516 -0.351562,0 -0.445312,-0.09375 -0.445312,-0.445312 v -3.433594 h 0.820312 z m 5.144531,2.777344 c 0,-0.761719 -0.05859,-1.21875 -0.210937,-1.59375 -0.316406,-0.820313 -1.089844,-1.324219 -2.027344,-1.324219 -1.394531,0 -2.285156,1.066406 -2.285156,2.71875 0,1.652344 0.855469,2.660156 2.273437,2.660156 1.148438,0 1.933594,-0.65625 2.144532,-1.746094 h -0.808594 c -0.222656,0.667969 -0.667969,1.007813 -1.3125,1.007813 -0.503906,0 -0.9375,-0.234375 -1.207031,-0.65625 -0.1875,-0.28125 -0.257813,-0.574219 -0.257813,-1.066406 z m -3.679687,-0.644532 c 0.07031,-0.9375 0.632812,-1.535156 1.441406,-1.535156 0.808594,0 1.371094,0.632813 1.371094,1.535156 z m 0,0"
         style="fill:#000000;fill-opacity:1;fill-rule:nonzero;stroke:none" />
    </g>
  </g>
</svg>
