<?xml version="1.0" encoding="UTF-8" standalone="no"?>
<!-- Created with Inkscape (http://www.inkscape.org/) -->

<svg
   version="1.1"
   id="svg1"
   width="723.74622"
   height="455.37109"
   viewBox="0 0 723.74622 455.37109"
   xmlns="http://www.w3.org/2000/svg"
   xmlns:svg="http://www.w3.org/2000/svg">
  <defs
     id="defs1" />
  <g
     id="g1"
     transform="translate(-25.699219,-41.890626)">
    <path
       id="path1"
       d="m 1211.01,6628.69 c 0,70.4 -57.08,127.47 -127.47,127.47 -70.4,0 -127.481,-57.07 -127.481,-127.47 0,-70.4 57.081,-127.48 127.481,-127.48 70.39,0 127.47,57.08 127.47,127.48"
       style="fill:none;stroke:#000000;stroke-width:23.9015;stroke-linecap:butt;stroke-linejoin:miter;stroke-miterlimit:10;stroke-dasharray:none;stroke-opacity:1"
       transform="matrix(0.13333333,0,0,-0.13333333,0,1056)" />
    <path
       id="path2"
       d="m 6.6440234,-5.7430156 c 0,-0.5625 -0.023437,-0.7148438 -0.2109375,-1.1015625 -0.4453125,-0.9375 -1.3945312,-1.4179688 -2.765625,-1.4179688 -1.78125,0 -2.88281246,0.9140625 -2.88281246,2.3789063 0,0.9960937 0.51562496,1.6171875 1.59374996,1.8984375 l 2.015625,0.5390625 c 1.0429688,0.2695312 1.5,0.6796875 1.5,1.3125 0,0.4335937 -0.234375,0.8789062 -0.5859375,1.125 -0.3164062,0.23437498 -0.8320312,0.35156248 -1.4882812,0.35156248 -0.9023438,0 -1.4882813,-0.2109375 -1.875,-0.67968748 -0.3046875,-0.3632813 -0.4335938,-0.75 -0.4335938,-1.2539063 H 0.53855469 c 0.0117188,0.75 0.15234375,1.2421875 0.48046871,1.68750003 0.5507813,0.7734375 1.4882813,1.16015625 2.7304688,1.16015625 0.9726562,0 1.7578125,-0.22265625 2.2851562,-0.62109375 0.5507813,-0.4453125 0.890625,-1.16015623 0.890625,-1.86328123 0,-1.0078125 -0.6210937,-1.7460938 -1.7226562,-2.0507813 L 3.1518359,-4.8172344 C 2.1791797,-5.0867656 1.8158984,-5.4031719 1.8158984,-6.0242656 c 0,-0.8320313 0.7265625,-1.3710938 1.8164063,-1.3710938 1.3007812,0 2.0273437,0.5742188 2.0390625,1.6523438 z m 3.6914066,0 v 5.742187475 h 0.972656 V -8.0633281 h -0.644531 c -0.339844,1.2304687 -0.5625,1.40625 -2.0859378,1.6054687 v 0.7148438 z m 0,0"
       style="fill:#000000;fill-opacity:1;fill-rule:nonzero;stroke:none"
       aria-label="S1"
       transform="matrix(1.3333333,0,0,1.3333333,135.97333,174.10267)" />
    <path
       id="path3"
       d="m 2167.07,4397.88 c 0,70.4 -57.08,127.47 -127.48,127.47 -70.39,0 -127.47,-57.07 -127.47,-127.47 0,-70.4 57.08,-127.48 127.47,-127.48 70.4,0 127.48,57.08 127.48,127.48"
       style="fill:none;stroke:#000000;stroke-width:23.9015;stroke-linecap:butt;stroke-linejoin:miter;stroke-miterlimit:10;stroke-dasharray:none;stroke-opacity:1"
       transform="matrix(0.13333333,0,0,-0.13333333,0,1056)" />
    <path
       id="path4"
       d="m 4.1842266,-3.6085 c 0,-0.984375 -0.65625,-1.546875 -1.8164063,-1.546875 -1.1601562,0 -1.92187499,0.609375 -1.92187499,1.5351563 0,0.7851562 0.41015625,1.1484375 1.59374999,1.4414062 l 0.7382813,0.1757813 c 0.5625,0.140625 0.7851562,0.3398437 0.7851562,0.6914062 0,0.48046875 -0.46875,0.796875 -1.171875,0.796875 -0.4335937,0 -0.796875,-0.12890625 -0.9960937,-0.33984375 C 1.2779766,-0.99521875 1.2193828,-1.1358437 1.1725078,-1.4874062 H 0.32875781 c 0.0351563,1.14843745 0.67968749,1.71093745 1.99218749,1.71093745 1.265625,0 2.0742188,-0.62109375 2.0742188,-1.59374995 0,-0.7382813 -0.421875,-1.1484375 -1.4179688,-1.3945313 L 2.2037578,-2.9405312 C 1.5592266,-3.092875 1.2779766,-3.3038125 1.2779766,-3.6670937 c 0,-0.46875 0.4101562,-0.75 1.0664062,-0.75 0.6445313,0 0.984375,0.28125 1.0078125,0.8085937 z M 9.3844219,8.75e-4 V -5.01475 H 8.5992656 v 2.8476563 c 0,1.0195312 -0.5390625,1.68749995 -1.3710937,1.68749995 -0.6328125,0 -1.03125,-0.375 -1.03125,-0.98437495 V -5.01475 h -0.796875 v 3.8671875 c 0,0.83203125 0.6210937,1.37109375 1.59375,1.37109375 0.7382812,0 1.2070312,-0.2578125 1.6757812,-0.92578125 V 8.75e-4 Z m 1.2275391,2.0859375 h 0.808594 v -2.61328125 c 0.421875,0.515625 0.878906,0.75 1.535156,0.75 1.300781,0 2.144531,-1.04296875 2.144531,-2.63671875 0,-1.6875 -0.820312,-2.7421875 -2.15625,-2.7421875 -0.679687,0 -1.21875,0.3046875 -1.59375,0.9023438 V -5.01475 h -0.738281 z m 2.203125,-6.4921875 c 0.878906,0 1.453125,0.7734375 1.453125,1.96875 0,1.1367188 -0.585938,1.91015625 -1.453125,1.91015625 -0.855469,0 -1.394531,-0.76171875 -1.394531,-1.94531245 0,-1.171875 0.539062,-1.9335938 1.394531,-1.9335938 z m 7.505859,2.1679688 c 0,-0.7617188 -0.05859,-1.21875 -0.210937,-1.59375 -0.316406,-0.8203125 -1.089844,-1.3242188 -2.027344,-1.3242188 -1.394531,0 -2.285156,1.0664063 -2.285156,2.71875 0,1.65234375 0.855469,2.66015625 2.273437,2.66015625 1.148438,0 1.933594,-0.65625 2.144532,-1.74609375 h -0.808594 c -0.222656,0.66796875 -0.667969,1.0078125 -1.3125,1.0078125 -0.503906,0 -0.9375,-0.234375 -1.207031,-0.65625 -0.1875,-0.28125 -0.257813,-0.5742187 -0.257813,-1.0664062 z m -3.679687,-0.6445313 c 0.07031,-0.9375 0.632812,-1.5351562 1.441406,-1.5351562 0.808594,0 1.371094,0.6328125 1.371094,1.5351562 z M 21.384422,-5.01475 V 8.75e-4 h 0.808594 v -2.6015625 c 0.01172,-1.2070312 0.503906,-1.734375 1.605468,-1.7109375 v -0.8085937 c -0.128906,-0.023437 -0.210937,-0.035156 -0.304687,-0.035156 -0.515625,0 -0.914063,0.3046875 -1.371094,1.0546875 V -5.01475 Z m 6.708984,1.40625 c 0,-0.984375 -0.65625,-1.546875 -1.816406,-1.546875 -1.160156,0 -1.921875,0.609375 -1.921875,1.5351563 0,0.7851562 0.410156,1.1484375 1.59375,1.4414062 l 0.738281,0.1757813 c 0.5625,0.140625 0.785156,0.3398437 0.785156,0.6914062 0,0.48046875 -0.46875,0.796875 -1.171875,0.796875 -0.433593,0 -0.796875,-0.12890625 -0.996093,-0.33984375 -0.117188,-0.140625 -0.175782,-0.28124995 -0.222657,-0.63281245 h -0.84375 c 0.03516,1.14843745 0.679688,1.71093745 1.992188,1.71093745 1.265625,0 2.074219,-0.62109375 2.074219,-1.59374995 0,-0.7382813 -0.421875,-1.1484375 -1.417969,-1.3945313 l -0.773438,-0.1757812 c -0.644531,-0.1523438 -0.925781,-0.3632813 -0.925781,-0.7265625 0,-0.46875 0.410156,-0.75 1.066406,-0.75 0.644532,0 0.984375,0.28125 1.007813,0.8085937 z m 3.023438,-1.40625 H 30.296531 V -6.3858437 H 29.499656 V -5.01475 h -0.679687 v 0.65625 h 0.679687 v 3.78515625 c 0,0.515625 0.351563,0.796875 0.972656,0.796875 0.210938,0 0.375,-0.0234375 0.644532,-0.0703125 V -0.51475 c -0.117188,0.0234375 -0.222657,0.0351563 -0.375,0.0351563 -0.351563,0 -0.445313,-0.09375 -0.445313,-0.4453125 V -4.3585 h 0.820313 z m 5.352539,4.546875 c -0.09375,0.0234375 -0.128906,0.0234375 -0.175781,0.0234375 -0.28125,0 -0.433594,-0.15234375 -0.433594,-0.3984375 v -2.9414062 c 0,-0.890625 -0.644531,-1.3710938 -1.886719,-1.3710938 -0.726562,0 -1.3125,0.2109375 -1.664062,0.5859375 -0.222657,0.2578125 -0.316407,0.5390625 -0.339844,1.0429688 h 0.808594 c 0.05859,-0.609375 0.421875,-0.890625 1.171875,-0.890625 0.726562,0 1.113281,0.2695312 1.113281,0.75 v 0.2109375 c 0,0.3398437 -0.175781,0.46875 -0.832031,0.5507812 -1.125,0.140625 -1.300782,0.1757813 -1.605469,0.3046875 -0.574219,0.2460938 -0.878906,0.6914063 -0.878906,1.3359375 0,0.9140625 0.632812,1.48828125 1.652343,1.48828125 0.621094,0 1.136719,-0.22265625 1.699219,-0.73828125 0.05859,0.515625 0.304688,0.73828125 0.820313,0.73828125 0.175781,0 0.28125,-0.0234375 0.550781,-0.09375 z m -1.40625,-1.1132812 c 0,0.2695312 -0.07031,0.4335937 -0.316406,0.65624995 -0.316407,0.29296875 -0.714844,0.4453125 -1.183594,0.4453125 -0.621094,0 -0.984375,-0.29296875 -0.984375,-0.79687495 0,-0.5273438 0.351562,-0.796875 1.207031,-0.9257813 0.855469,-0.1054687 1.019531,-0.1523437 1.277344,-0.2695312 z M 39.091453,-5.01475 H 38.271141 V -6.3858437 H 37.474266 V -5.01475 h -0.679688 v 0.65625 h 0.679688 v 3.78515625 c 0,0.515625 0.351562,0.796875 0.972656,0.796875 0.210937,0 0.375,-0.0234375 0.644531,-0.0703125 V -0.51475 c -0.117187,0.0234375 -0.222656,0.0351563 -0.375,0.0351563 -0.351562,0 -0.445312,-0.09375 -0.445312,-0.4453125 V -4.3585 h 0.820312 z m 5.141602,2.7773438 c 0,-0.7617188 -0.05859,-1.21875 -0.210938,-1.59375 -0.316406,-0.8203125 -1.089844,-1.3242188 -2.027344,-1.3242188 -1.394531,0 -2.285156,1.0664063 -2.285156,2.71875 0,1.65234375 0.855469,2.66015625 2.273438,2.66015625 1.148437,0 1.933593,-0.65625 2.144531,-1.74609375 h -0.808594 c -0.222656,0.66796875 -0.667969,1.0078125 -1.3125,1.0078125 -0.503906,0 -0.9375,-0.234375 -1.207031,-0.65625 -0.1875,-0.28125 -0.257813,-0.5742187 -0.257813,-1.0664062 z m -3.679688,-0.6445313 c 0.07031,-0.9375 0.632813,-1.5351562 1.441406,-1.5351562 0.808594,0 1.371094,0.6328125 1.371094,1.5351562 z m 0,0"
       style="fill:#000000;fill-opacity:1;fill-rule:nonzero;stroke:none"
       aria-label="superstate"
       transform="matrix(1.3333333,0,0,1.3333333,178.464,436.06133)" />
    <path
       id="path5"
       d="m 2167.07,4397.88 c 0,0 0,0 10.62,21.25 10.63,21.24 31.87,63.73 10.63,106.22 -21.25,42.49 -84.99,84.99 -180.59,127.48 -95.61,42.49 -223.09,84.98 -371.8,138.1 -148.72,53.11 -318.69,116.85 -467.41,244.32 -148.72,127.48 -276.196,318.69 -339.934,520.52 -63.738,201.84 -63.738,414.3 -31.867,584.26 31.867,169.97 95.605,297.44 127.472,361.18 31.868,63.74 31.868,63.74 31.868,63.74"
       style="fill:none;stroke:#000000;stroke-width:7.96717;stroke-linecap:butt;stroke-linejoin:miter;stroke-miterlimit:10;stroke-dasharray:none;stroke-opacity:1"
       transform="matrix(0.13333333,0,0,-0.13333333,0,1056)" />
    <path
       id="path6"
       d="m 902.613,6502.59 53.446,62.36 -17.813,-80.17"
       style="fill:none;stroke:#000000;stroke-width:7.96717;stroke-linecap:butt;stroke-linejoin:miter;stroke-miterlimit:10;stroke-dasharray:none;stroke-opacity:1"
       transform="matrix(0.13333333,0,0,-0.13333333,0,1056)" />
    <g
       id="g6"
       aria-label="S2&#10;Top−level&#10;state&#10;Subgoal&#10;level 1"
       transform="matrix(1.3333333,0,0,1.3333333,263.448,471.54267)">
      <path
         id="path7"
         d="m 6.6454453,-5.7419609 c 0,-0.5625 -0.023437,-0.7148438 -0.2109375,-1.1015625 -0.4453125,-0.9375 -1.3945312,-1.4179688 -2.765625,-1.4179688 -1.78125,0 -2.88281249,0.9140625 -2.88281249,2.3789063 0,0.9960937 0.51562499,1.6171875 1.59374999,1.8984375 l 2.015625,0.5390625 c 1.0429688,0.2695312 1.5,0.6796875 1.5,1.3125 0,0.4335937 -0.234375,0.8789062 -0.5859375,1.125 -0.3164062,0.23437496 -0.8320312,0.35156246 -1.4882812,0.35156246 -0.9023438,0 -1.4882813,-0.2109375 -1.875,-0.67968746 -0.3046875,-0.3632813 -0.4335938,-0.75 -0.4335938,-1.2539063 H 0.53997656 c 0.0117188,0.75 0.15234375,1.2421875 0.48046874,1.68750001 0.5507813,0.7734375 1.4882813,1.16015625 2.7304688,1.16015625 0.9726562,0 1.7578125,-0.22265625 2.2851562,-0.62109375 0.5507813,-0.4453125 0.890625,-1.16015621 0.890625,-1.86328121 0,-1.0078125 -0.6210937,-1.7460938 -1.7226562,-2.0507813 L 3.1532578,-4.8161797 C 2.1806016,-5.0857109 1.8173203,-5.4021172 1.8173203,-6.0232109 c 0,-0.8320313 0.7265625,-1.3710938 1.8164063,-1.3710938 1.3007812,0 2.0273437,0.5742188 2.0390625,1.6523438 z m 6.4423827,4.76953121 H 8.9276719 C 9.0214219,-1.6403984 9.3847031,-2.0622734 10.345641,-2.6599297 l 1.125,-0.6210937 c 1.101562,-0.609375 1.664062,-1.4414063 1.664062,-2.4257813 0,-0.6796875 -0.257812,-1.3007812 -0.726562,-1.734375 -0.46875,-0.421875 -1.054688,-0.6210937 -1.804688,-0.6210937 -0.9960936,0 -1.7460936,0.3515625 -2.1796874,1.0429687 -0.28125,0.421875 -0.3984375,0.9257813 -0.421875,1.7460938 h 0.9726563 c 0.035156,-0.5507813 0.1054687,-0.8789063 0.234375,-1.1367188 0.2578125,-0.4921875 0.7734375,-0.796875 1.3710941,-0.796875 0.890625,0 1.558593,0.6445313 1.558593,1.5117188 0,0.65625 -0.375,1.2070312 -1.078125,1.6171875 l -1.019531,0.5976562 c -1.6523436,0.9492188 -2.1328124,1.7109375 -2.2265624,3.46875001 h 5.2734374 z m 0,0"
         style="fill:#000000;fill-opacity:1;fill-rule:nonzero;stroke:none" />
      <path
         id="path8"
         d="m -174.16315,-221.94118 h 2.36719 v -1.39453 h -6.51563 v 1.39453 h 2.47266 v 6.73828 h 1.67578 z m 5.87695,0.60938 c -1.85156,0 -2.97656,1.21875 -2.97656,3.19921 0,1.98047 1.125,3.1875 2.98828,3.1875 1.83985,0 2.97657,-1.20703 2.97657,-3.15234 0,-2.03906 -1.11329,-3.23437 -2.98829,-3.23437 z m 0.0117,1.26562 c 0.85547,0 1.40625,0.77344 1.40625,1.95703 0,1.125 -0.57422,1.89844 -1.40625,1.89844 -0.85547,0 -1.41797,-0.76172 -1.41797,-1.92188 0,-1.16015 0.5625,-1.93359 1.41797,-1.93359 z m 5.64258,-1.16016 h -1.55859 v 8.46094 h 1.55859 v -3.15234 c 0.38672,0.66797 0.92578,0.98437 1.67578,0.98437 1.45313,0 2.51953,-1.35937 2.51953,-3.1875 0,-0.85547 -0.23437,-1.69922 -0.64453,-2.26172 -0.39843,-0.5625 -1.14843,-0.94921 -1.875,-0.94921 -0.75,0 -1.28906,0.32812 -1.67578,0.99609 z m 1.32422,1.20704 c 0.78516,0 1.3125,0.75 1.3125,1.91015 0,1.11328 -0.53906,1.86328 -1.3125,1.86328 -0.79687,0 -1.32422,-0.75 -1.32422,-1.875 0,-1.14843 0.52735,-1.89843 1.32422,-1.89843 z m 9.35742,1.57031 h -5.625 v 1.32422 h 5.625 z m 2.75391,-4.88672 h -1.5586 v 8.13281 h 1.5586 z m 6.63867,5.61328 c 0.0117,-0.14062 0.0117,-0.1875 0.0117,-0.26953 0,-0.59766 -0.0937,-1.16016 -0.23438,-1.58203 -0.39843,-1.08985 -1.37109,-1.75781 -2.58984,-1.75781 -1.73437,0 -2.78906,1.2539 -2.78906,3.26953 0,1.93359 1.04297,3.11718 2.7539,3.11718 1.34766,0 2.44922,-0.76171 2.78907,-1.95703 h -1.53516 c -0.1875,0.48047 -0.63281,0.76172 -1.19531,0.76172 -0.44531,0 -0.8086,-0.1875 -1.03125,-0.52734 -0.14063,-0.22266 -0.19922,-0.49219 -0.22266,-1.05469 z m -4.01953,-1.04297 c 0.10547,-0.92578 0.49219,-1.37109 1.18359,-1.37109 0.71485,0 1.13672,0.48047 1.21875,1.37109 z m 8.27637,3.5625 2.07422,-6.02344 h -1.65235 l -1.20703,4.40625 -1.3125,-4.40625 h -1.65234 l 2.10937,6.02344 z m 8.14746,-2.51953 c 0.0117,-0.14062 0.0117,-0.1875 0.0117,-0.26953 0,-0.59766 -0.0937,-1.16016 -0.23438,-1.58203 -0.39844,-1.08985 -1.37109,-1.75781 -2.58984,-1.75781 -1.73438,0 -2.78907,1.2539 -2.78907,3.26953 0,1.93359 1.04297,3.11718 2.75391,3.11718 1.34766,0 2.44922,-0.76171 2.78906,-1.95703 h -1.53515 c -0.1875,0.48047 -0.63282,0.76172 -1.19532,0.76172 -0.44531,0 -0.80859,-0.1875 -1.03125,-0.52734 -0.14062,-0.22266 -0.19921,-0.49219 -0.22265,-1.05469 z m -4.01953,-1.04297 c 0.10546,-0.92578 0.49218,-1.37109 1.18359,-1.37109 0.71484,0 1.13672,0.48047 1.21875,1.37109 z m 6.68261,-4.57031 h -1.55859 v 8.13281 h 1.55859 z m -45.33691,15.20801 c -0.0234,-1.27735 -1.00781,-2.05078 -2.625,-2.05078 -1.52344,0 -2.47266,0.77343 -2.47266,2.01562 0,0.39844 0.11719,0.73828 0.32813,0.97266 0.21094,0.22265 0.41015,0.3164 0.98437,0.5039 l 1.86328,0.58594 c 0.38672,0.11719 0.52735,0.24609 0.52735,0.49219 0,0.36328 -0.4336,0.58594 -1.16016,0.58594 -0.41015,0 -0.72656,-0.0703 -0.92578,-0.21094 -0.17578,-0.11719 -0.23437,-0.2461 -0.30469,-0.5625 h -1.52343 c 0.0351,1.32422 1.00781,2.0039 2.83593,2.0039 0.84375,0 1.47657,-0.17578 1.92188,-0.53906 0.44531,-0.35156 0.71484,-0.91406 0.71484,-1.5 0,-0.78515 -0.38672,-1.28906 -1.18359,-1.52344 l -1.96875,-0.5625 c -0.44531,-0.14062 -0.55078,-0.22265 -0.55078,-0.46875 0,-0.33984 0.35156,-0.5625 0.90234,-0.5625 0.75,0 1.11328,0.26954 1.125,0.82032 z m 3.92578,-1.82813 h -0.87891 v -1.61719 h -1.55859 v 1.61719 h -0.77344 v 1.04297 h 0.77344 v 3.70313 c 0,0.94921 0.50391,1.41796 1.52344,1.41796 0.36328,0 0.62109,-0.0351 0.91406,-0.1289 v -1.08985 c -0.16406,0.0234 -0.23437,0.0352 -0.36328,0.0352 -0.41016,0 -0.51563,-0.11719 -0.51563,-0.65625 v -3.28125 h 0.87891 z m 6.19922,5.71875 c -0.26953,-0.25781 -0.36328,-0.43359 -0.36328,-0.73828 v -3.35156 c 0,-1.21875 -0.83203,-1.85156 -2.46094,-1.85156 -1.62891,0 -2.47266,0.6914 -2.57812,2.08593 h 1.51171 c 0.0703,-0.62109 0.32813,-0.82031 1.10157,-0.82031 0.59765,0 0.90234,0.19922 0.90234,0.59766 0,0.19922 -0.10547,0.375 -0.26953,0.46875 -0.21094,0.11718 -0.21094,0.11718 -0.98438,0.23437 l -0.62109,0.11719 c -1.19531,0.19922 -1.76953,0.80859 -1.76953,1.89844 0,1.07812 0.72656,1.80468 1.82812,1.80468 0.66797,0 1.26563,-0.28125 1.82813,-0.85546 0,0.30468 0.0352,0.42187 0.17578,0.59765 h 1.69922 z m -1.88672,-2.23828 c 0,0.91406 -0.44531,1.41797 -1.24219,1.41797 -0.51562,0 -0.84375,-0.26953 -0.84375,-0.72656 0,-0.46875 0.2461,-0.69141 0.89063,-0.82032 l 0.53906,-0.10546 c 0.41016,-0.0703 0.48047,-0.0937 0.65625,-0.1875 z m 5.60449,-3.48047 h -0.8789 v -1.61719 h -1.5586 v 1.61719 h -0.77343 v 1.04297 h 0.77343 v 3.70313 c 0,0.94921 0.50391,1.41796 1.52344,1.41796 0.36328,0 0.62109,-0.0351 0.91406,-0.1289 v -1.08985 c -0.16406,0.0234 -0.23437,0.0352 -0.36328,0.0352 -0.41015,0 -0.51562,-0.11719 -0.51562,-0.65625 v -3.28125 h 0.8789 z m 6.19922,3.38672 c 0.0117,-0.14062 0.0117,-0.1875 0.0117,-0.26953 0,-0.59766 -0.0937,-1.16016 -0.23437,-1.58203 -0.39844,-1.08985 -1.3711,-1.75781 -2.58985,-1.75781 -1.73437,0 -2.78906,1.2539 -2.78906,3.26953 0,1.93359 1.04297,3.11718 2.75391,3.11718 1.34765,0 2.44921,-0.76171 2.78906,-1.95703 h -1.53516 c -0.1875,0.48047 -0.63281,0.76172 -1.19531,0.76172 -0.44531,0 -0.80859,-0.1875 -1.03125,-0.52734 -0.14063,-0.22266 -0.19922,-0.49219 -0.22266,-1.05469 z m -4.01953,-1.04297 c 0.10547,-0.92578 0.49219,-1.37109 1.18359,-1.37109 0.71485,0 1.13672,0.48047 1.21875,1.37109 z M -165.31842,2.218 c -0.0117,-1.67578125 -1.13672,-2.6015625 -3.1875,-2.6015625 -1.95703,0 -3.08203,0.9140625 -3.08203,2.4960937 0,1.2539063 0.63281,1.875 2.28515,2.1796875 l 1.13672,0.2226563 c 1.11328,0.2226562 1.53516,0.5273437 1.53516,1.1835937 0,0.6796875 -0.63281,1.1015625 -1.64063,1.1015625 -1.14843,0 -1.78125,-0.4804687 -1.83984,-1.359375 h -1.62891 c 0.10547,1.7460938 1.30078,2.6953125 3.375,2.6953125 2.09766,0 3.33985,-0.9726562 3.33985,-2.6367187 0,-1.2773438 -0.65625,-1.9453125 -2.15625,-2.2382813 l -1.27735,-0.2460937 c -1.19531,-0.234375 -1.53515,-0.46875 -1.53515,-1.0664063 0,-0.609375 0.53906,-0.9960937 1.40625,-0.9960937 1.05468,0 1.65234,0.4453125 1.71093,1.265625 z m 6.70312,5.6601562 V 1.8547187 h -1.55859 v 3.7734375 c 0,0.7148438 -0.49219,1.1835938 -1.26563,1.1835938 -0.66796,0 -1.00781,-0.3632813 -1.00781,-1.0898438 V 1.8547187 h -1.55859 v 4.1953125 c 0,1.3359375 0.72656,2.0859375 2.02734,2.0859375 0.8086,0 1.35938,-0.2929687 1.80469,-0.9726562 v 0.7148437 z m 1.43555,-8.13281245 V 7.8781562 h 1.55859 v -0.609375 c 0.38672,0.5859375 0.91407,0.8671875 1.66407,0.8671875 1.4414,0 2.53125,-1.3710937 2.53125,-3.1875 0,-0.8203125 -0.2461,-1.640625 -0.64453,-2.2265625 -0.41016,-0.5859375 -1.14844,-0.9726562 -1.88672,-0.9726562 -0.75,0 -1.27735,0.28125 -1.66407,0.890625 v -2.89453125 z m 2.88281,3.31640625 c 0.76172,0 1.3125,0.7734375 1.3125,1.8984375 0,1.1015625 -0.53906,1.875 -1.3125,1.875 -0.79687,0 -1.32422,-0.75 -1.32422,-1.9101563 0,-1.1132812 0.53907,-1.8632812 1.32422,-1.8632812 z m 7.74024,-1.2070313 V 2.7805 c -0.4336,-0.703125 -0.91407,-1.03125 -1.5586,-1.03125 -0.52734,0 -1.125,0.2695312 -1.53515,0.703125 -0.59766,0.6328125 -0.91407,1.5 -0.91407,2.5546875 0,1.8515625 0.98438,3.1289062 2.42579,3.1289062 0.64453,0 1.03125,-0.2109375 1.58203,-0.8671875 V 8.077375 c 0,0.7265625 -0.51563,1.2304687 -1.25391,1.2304687 -0.55078,0 -0.90234,-0.2460937 -1.01953,-0.703125 h -1.60547 c 0,0.46875 0.17578,0.7851563 0.58594,1.125 0.48047,0.3867183 1.13672,0.5859373 1.98047,0.5859373 1.74609,0 2.78906,-0.8437498 2.78906,-2.238281 V 1.8547187 Z m -1.26563,1.2070313 c 0.73828,0 1.28906,0.8085937 1.28906,1.921875 0,1.1015625 -0.52734,1.8515625 -1.3125,1.8515625 -0.67968,0 -1.16015,-0.75 -1.16015,-1.8515625 0,-1.1367188 0.48047,-1.921875 1.18359,-1.921875 z m 6.97852,-1.3125 c -1.85156,0 -2.97656,1.21875 -2.97656,3.1992187 0,1.9804688 1.125,3.1875 2.98828,3.1875 1.83984,0 2.97656,-1.2070312 2.97656,-3.1523437 0,-2.0390625 -1.11328,-3.234375 -2.98828,-3.234375 z m 0.0117,1.265625 c 0.85547,0 1.40625,0.7734375 1.40625,1.9570312 0,1.125 -0.57422,1.8984375 -1.40625,1.8984375 -0.85547,0 -1.41797,-0.7617187 -1.41797,-1.921875 0,-1.1601562 0.5625,-1.9335937 1.41797,-1.9335937 z m 9.29004,4.6757812 c -0.26954,-0.2578125 -0.36329,-0.4335937 -0.36329,-0.7382812 V 3.6008125 c 0,-1.21875 -0.83203,-1.8515625 -2.46093,-1.8515625 -1.62891,0 -2.47266,0.6914062 -2.57813,2.0859375 h 1.51172 c 0.0703,-0.6210938 0.32813,-0.8203125 1.10156,-0.8203125 0.59766,0 0.90235,0.1992187 0.90235,0.5976562 0,0.1992188 -0.10547,0.375 -0.26953,0.46875 -0.21094,0.1171875 -0.21094,0.1171875 -0.98438,0.234375 l -0.62109,0.1171875 c -1.19532,0.1992188 -1.76953,0.8085938 -1.76953,1.8984375 0,1.078125 0.72656,1.8046875 1.82812,1.8046875 0.66797,0 1.26563,-0.28125 1.82813,-0.8554687 0,0.3046875 0.0351,0.421875 0.17578,0.5976562 h 1.69922 z m -1.88672,-2.2382812 c 0,0.9140625 -0.44532,1.4179687 -1.24219,1.4179687 -0.51563,0 -0.84375,-0.2695312 -0.84375,-0.7265625 0,-0.46875 0.24609,-0.6914062 0.89062,-0.8203125 L -134.08502,5.218 c 0.41015,-0.070312 0.48047,-0.09375 0.65625,-0.1875 z m 4.54687,-5.70703125 h -1.55859 V 7.8781562 h 1.55859 z M -169.78327,10.898664 h -1.55859 v 8.132813 h 1.55859 z m 6.64161,5.613281 c 0.0117,-0.140625 0.0117,-0.1875 0.0117,-0.269531 0,-0.597656 -0.0937,-1.160156 -0.23437,-1.582031 -0.39844,-1.089844 -1.37109,-1.757813 -2.58984,-1.757813 -1.73438,0 -2.78907,1.253907 -2.78907,3.269532 0,1.933593 1.04297,3.117187 2.75391,3.117187 1.34766,0 2.44922,-0.761719 2.78906,-1.957031 h -1.53515 c -0.1875,0.480469 -0.63282,0.761719 -1.19532,0.761719 -0.44531,0 -0.80859,-0.1875 -1.03125,-0.527344 -0.14062,-0.222656 -0.19922,-0.492188 -0.22265,-1.054688 z m -4.01954,-1.042968 c 0.10547,-0.925782 0.49219,-1.371094 1.1836,-1.371094 0.71484,0 1.13672,0.480469 1.21875,1.371094 z m 8.27344,3.5625 2.07422,-6.023438 h -1.65234 l -1.20703,4.40625 -1.3125,-4.40625 h -1.65235 l 2.10938,6.023438 z m 8.14746,-2.519532 c 0.0117,-0.140625 0.0117,-0.1875 0.0117,-0.269531 0,-0.597656 -0.0937,-1.160156 -0.23437,-1.582031 -0.39844,-1.089844 -1.3711,-1.757813 -2.58985,-1.757813 -1.73437,0 -2.78906,1.253907 -2.78906,3.269532 0,1.933593 1.04297,3.117187 2.75391,3.117187 1.34765,0 2.44922,-0.761719 2.78906,-1.957031 h -1.53516 c -0.1875,0.480469 -0.63281,0.761719 -1.19531,0.761719 -0.44531,0 -0.80859,-0.1875 -1.03125,-0.527344 -0.14062,-0.222656 -0.19922,-0.492188 -0.22266,-1.054688 z m -4.01953,-1.042968 c 0.10547,-0.925782 0.49219,-1.371094 1.1836,-1.371094 0.71484,0 1.13671,0.480469 1.21875,1.371094 z m 6.68262,-4.570313 h -1.55859 v 8.132813 h 1.55859 z m 6.55371,2.671875 v 5.460938 h 1.55859 V 11.12132 h -1.04296 c -0.2461,0.9375 -1.05469,1.417969 -2.41407,1.417969 v 1.03125 z m 0,0"
         style="fill:#000000;fill-opacity:1;fill-rule:nonzero;stroke:none" />
    </g>
    <path
       id="path9"
       d="m 270.883,4804.2 c 0,0 0,0 173.949,-13.27 173.953,-13.28 521.852,-39.84 946.768,74.36 424.92,114.19 926.85,369.14 1407.53,507.24 480.69,138.1 940.13,159.34 1362.39,168.64 422.26,9.29 807.34,6.63 999.88,5.31 192.54,-1.33 192.54,-1.33 192.54,-1.33"
       style="fill:none;stroke:#cccccc;stroke-width:23.9015;stroke-linecap:butt;stroke-linejoin:miter;stroke-miterlimit:10;stroke-dasharray:63.7374, 63.7374;stroke-dashoffset:0;stroke-opacity:1"
       transform="matrix(0.13333333,0,0,-0.13333333,0,1056)" />
    <path
       id="path10"
       d="m 4589.09,6628.69 c 0,70.4 -57.07,127.47 -127.47,127.47 -70.4,0 -127.48,-57.07 -127.48,-127.47 0,-70.4 57.08,-127.48 127.48,-127.48 70.4,0 127.47,57.08 127.47,127.48"
       style="fill:none;stroke:#cccccc;stroke-width:23.9015;stroke-linecap:butt;stroke-linejoin:miter;stroke-miterlimit:10;stroke-dasharray:none;stroke-opacity:1"
       transform="matrix(0.13333333,0,0,-0.13333333,0,1056)" />
    <path
       id="path11"
       d="m 6.6436406,-5.7430156 c 0,-0.5625 -0.023437,-0.7148438 -0.2109375,-1.1015625 -0.4453125,-0.9375 -1.3945312,-1.4179688 -2.765625,-1.4179688 -1.78125,0 -2.88281247,0.9140625 -2.88281247,2.3789063 0,0.9960937 0.51562497,1.6171875 1.59374997,1.8984375 l 2.015625,0.5390625 c 1.0429688,0.2695312 1.5,0.6796875 1.5,1.3125 0,0.4335937 -0.234375,0.8789062 -0.5859375,1.125 -0.3164062,0.23437498 -0.8320312,0.35156248 -1.4882812,0.35156248 -0.9023438,0 -1.4882813,-0.2109375 -1.875,-0.67968748 -0.3046875,-0.3632813 -0.4335938,-0.75 -0.4335938,-1.2539063 H 0.53817188 c 0.0117188,0.75 0.15234375,1.2421875 0.48046872,1.68750003 0.5507813,0.7734375 1.4882813,1.16015625 2.7304688,1.16015625 0.9726562,0 1.7578125,-0.22265625 2.2851562,-0.62109375 0.5507813,-0.4453125 0.890625,-1.16015623 0.890625,-1.86328123 0,-1.0078125 -0.6210937,-1.7460938 -1.7226562,-2.0507813 L 3.1514531,-4.8172344 C 2.1787969,-5.0867656 1.8155156,-5.4031719 1.8155156,-6.0242656 c 0,-0.8320313 0.7265625,-1.3710938 1.8164063,-1.3710938 1.3007812,0 2.0273437,0.5742188 2.0390625,1.6523438 z m 3.6914064,0 v 5.742187475 h 0.972656 V -8.0633281 h -0.644531 c -0.339844,1.2304687 -0.5625,1.40625 -2.0859376,1.6054687 v 0.7148438 z m 0,0"
       style="fill:#cccccc;fill-opacity:1;fill-rule:nonzero;stroke:none"
       aria-label="S1"
       transform="matrix(1.3333333,0,0,1.3333333,586.384,174.10267)" />
    <path
       id="path12"
       d="m 5545.15,4397.88 c 0,70.4 -57.08,127.47 -127.47,127.47 -70.4,0 -127.48,-57.07 -127.48,-127.47 0,-70.4 57.08,-127.48 127.48,-127.48 70.39,0 127.47,57.08 127.47,127.48"
       style="fill:none;stroke:#cccccc;stroke-width:23.9015;stroke-linecap:butt;stroke-linejoin:miter;stroke-miterlimit:10;stroke-dasharray:none;stroke-opacity:1"
       transform="matrix(0.13333333,0,0,-0.13333333,0,1056)" />
    <path
       id="path13"
       d="m 4.1828438,-3.6085 c 0,-0.984375 -0.65625,-1.546875 -1.8164063,-1.546875 -1.1601562,0 -1.921875,0.609375 -1.921875,1.5351563 0,0.7851562 0.41015625,1.1484375 1.59375,1.4414062 l 0.7382813,0.1757813 c 0.5625,0.140625 0.7851562,0.3398437 0.7851562,0.6914062 0,0.48046875 -0.46875,0.796875 -1.171875,0.796875 -0.4335937,0 -0.796875,-0.12890625 -0.9960937,-0.33984375 C 1.2765938,-0.99521875 1.218,-1.1358437 1.171125,-1.4874062 h -0.84375 c 0.0351563,1.14843745 0.6796875,1.71093745 1.9921875,1.71093745 1.265625,0 2.0742188,-0.62109375 2.0742188,-1.59374995 0,-0.7382813 -0.421875,-1.1484375 -1.4179688,-1.3945313 L 2.202375,-2.9405312 C 1.5578438,-3.092875 1.2765938,-3.3038125 1.2765938,-3.6670937 c 0,-0.46875 0.4101562,-0.75 1.0664062,-0.75 0.6445313,0 0.984375,0.28125 1.0078125,0.8085937 z M 9.3859688,8.75e-4 V -5.01475 H 8.6008125 v 2.8476563 c 0,1.0195312 -0.5390625,1.68749995 -1.3710937,1.68749995 -0.6328125,0 -1.03125,-0.375 -1.03125,-0.98437495 V -5.01475 h -0.796875 v 3.8671875 c 0,0.83203125 0.6210937,1.37109375 1.59375,1.37109375 0.7382812,0 1.2070312,-0.2578125 1.6757812,-0.92578125 V 8.75e-4 Z m 1.2246092,2.0859375 h 0.808594 v -2.61328125 c 0.421875,0.515625 0.878906,0.75 1.535156,0.75 1.300781,0 2.144531,-1.04296875 2.144531,-2.63671875 0,-1.6875 -0.820312,-2.7421875 -2.15625,-2.7421875 -0.679687,0 -1.21875,0.3046875 -1.59375,0.9023438 V -5.01475 h -0.738281 z m 2.203125,-6.4921875 c 0.878906,0 1.453125,0.7734375 1.453125,1.96875 0,1.1367188 -0.585937,1.91015625 -1.453125,1.91015625 -0.855469,0 -1.394531,-0.76171875 -1.394531,-1.94531245 0,-1.171875 0.539062,-1.9335938 1.394531,-1.9335938 z m 7.508789,2.1679688 c 0,-0.7617188 -0.05859,-1.21875 -0.210937,-1.59375 -0.316407,-0.8203125 -1.089844,-1.3242188 -2.027344,-1.3242188 -1.394531,0 -2.285156,1.0664063 -2.285156,2.71875 0,1.65234375 0.855468,2.66015625 2.273437,2.66015625 1.148438,0 1.933594,-0.65625 2.144531,-1.74609375 H 19.40843 c -0.222657,0.66796875 -0.667969,1.0078125 -1.3125,1.0078125 -0.503907,0 -0.9375,-0.234375 -1.207032,-0.65625 -0.1875,-0.28125 -0.257812,-0.5742187 -0.257812,-1.0664062 z m -3.679687,-0.6445313 c 0.07031,-0.9375 0.632812,-1.5351562 1.441406,-1.5351562 0.808594,0 1.371094,0.6328125 1.371094,1.5351562 z M 21.383039,-5.01475 V 8.75e-4 h 0.808594 v -2.6015625 c 0.01172,-1.2070312 0.503906,-1.734375 1.605469,-1.7109375 v -0.8085937 c -0.128907,-0.023437 -0.210938,-0.035156 -0.304688,-0.035156 -0.515625,0 -0.914062,0.3046875 -1.371094,1.0546875 V -5.01475 Z m 6.711914,1.40625 c 0,-0.984375 -0.65625,-1.546875 -1.816406,-1.546875 -1.160156,0 -1.921875,0.609375 -1.921875,1.5351563 0,0.7851562 0.410156,1.1484375 1.59375,1.4414062 l 0.738281,0.1757813 c 0.5625,0.140625 0.785156,0.3398437 0.785156,0.6914062 0,0.48046875 -0.46875,0.796875 -1.171875,0.796875 -0.433593,0 -0.796875,-0.12890625 -0.996093,-0.33984375 -0.117188,-0.140625 -0.175782,-0.28124995 -0.222657,-0.63281245 h -0.84375 c 0.03516,1.14843745 0.679688,1.71093745 1.992188,1.71093745 1.265625,0 2.074219,-0.62109375 2.074219,-1.59374995 0,-0.7382813 -0.421875,-1.1484375 -1.417969,-1.3945313 l -0.773438,-0.1757812 c -0.644531,-0.1523438 -0.925781,-0.3632813 -0.925781,-0.7265625 0,-0.46875 0.410156,-0.75 1.066406,-0.75 0.644532,0 0.984375,0.28125 1.007813,0.8085937 z m 3.023438,-1.40625 H 30.298078 V -6.3858437 H 29.501203 V -5.01475 h -0.679687 v 0.65625 h 0.679687 v 3.78515625 c 0,0.515625 0.351563,0.796875 0.972656,0.796875 0.210938,0 0.375,-0.0234375 0.644532,-0.0703125 V -0.51475 c -0.117188,0.0234375 -0.222657,0.0351563 -0.375,0.0351563 -0.351563,0 -0.445313,-0.09375 -0.445313,-0.4453125 V -4.3585 h 0.820313 z m 5.352539,4.546875 c -0.09375,0.0234375 -0.128907,0.0234375 -0.175782,0.0234375 -0.28125,0 -0.433593,-0.15234375 -0.433593,-0.3984375 v -2.9414062 c 0,-0.890625 -0.644532,-1.3710938 -1.886719,-1.3710938 -0.726563,0 -1.3125,0.2109375 -1.664063,0.5859375 -0.222656,0.2578125 -0.316406,0.5390625 -0.339843,1.0429688 h 0.808593 c 0.05859,-0.609375 0.421875,-0.890625 1.171875,-0.890625 0.726563,0 1.113282,0.2695312 1.113282,0.75 v 0.2109375 c 0,0.3398437 -0.175782,0.46875 -0.832032,0.5507812 -1.125,0.140625 -1.300781,0.1757813 -1.605468,0.3046875 -0.574219,0.2460938 -0.878907,0.6914063 -0.878907,1.3359375 0,0.9140625 0.632813,1.48828125 1.652344,1.48828125 0.621094,0 1.136719,-0.22265625 1.699219,-0.73828125 0.05859,0.515625 0.304687,0.73828125 0.820312,0.73828125 0.175782,0 0.28125,-0.0234375 0.550782,-0.09375 z m -1.40625,-1.1132812 c 0,0.2695312 -0.07031,0.4335937 -0.316407,0.65624995 -0.316406,0.29296875 -0.714843,0.4453125 -1.183593,0.4453125 -0.621094,0 -0.984375,-0.29296875 -0.984375,-0.79687495 0,-0.5273438 0.351562,-0.796875 1.207031,-0.9257813 0.855469,-0.1054687 1.019531,-0.1523437 1.277344,-0.2695312 z M 39.09007,-5.01475 H 38.269758 V -6.3858437 H 37.472883 V -5.01475 h -0.679688 v 0.65625 h 0.679688 v 3.78515625 c 0,0.515625 0.351562,0.796875 0.972656,0.796875 0.210938,0 0.375,-0.0234375 0.644531,-0.0703125 V -0.51475 c -0.117187,0.0234375 -0.222656,0.0351563 -0.375,0.0351563 -0.351562,0 -0.445312,-0.09375 -0.445312,-0.4453125 V -4.3585 h 0.820312 z m 5.141602,2.7773438 c 0,-0.7617188 -0.05859,-1.21875 -0.210938,-1.59375 -0.316406,-0.8203125 -1.089843,-1.3242188 -2.027343,-1.3242188 -1.394532,0 -2.285157,1.0664063 -2.285157,2.71875 0,1.65234375 0.855469,2.66015625 2.273438,2.66015625 1.148437,0 1.933594,-0.65625 2.144531,-1.74609375 h -0.808594 c -0.222656,0.66796875 -0.667968,1.0078125 -1.3125,1.0078125 -0.503906,0 -0.9375,-0.234375 -1.207031,-0.65625 -0.1875,-0.28125 -0.257812,-0.5742187 -0.257812,-1.0664062 z m -3.679688,-0.6445313 c 0.07031,-0.9375 0.632813,-1.5351562 1.441407,-1.5351562 0.808593,0 1.371093,0.6328125 1.371093,1.5351562 z m 0,0"
       style="fill:#cccccc;fill-opacity:1;fill-rule:nonzero;stroke:none"
       aria-label="superstate"
       transform="matrix(1.3333333,0,0,1.3333333,628.876,436.06133)" />
    <path
       id="path14"
       d="m 5545.15,4397.88 c 0,0 0,0 10.62,21.25 10.62,21.24 31.87,63.73 10.63,106.22 -21.25,42.49 -84.99,84.99 -180.59,127.48 -95.61,42.49 -223.08,84.98 -371.8,138.1 -148.72,53.11 -318.69,116.85 -467.41,244.32 -148.72,127.48 -276.2,318.69 -339.94,520.52 -63.73,201.84 -63.73,414.3 -31.86,584.26 31.86,169.97 95.6,297.44 127.47,361.18 31.87,63.74 31.87,63.74 31.87,63.74"
       style="fill:none;stroke:#cccccc;stroke-width:7.96717;stroke-linecap:butt;stroke-linejoin:miter;stroke-miterlimit:10;stroke-dasharray:none;stroke-opacity:1"
       transform="matrix(0.13333333,0,0,-0.13333333,0,1056)" />
    <path
       id="path15"
       d="m 4280.7,6502.59 53.44,62.36 -17.82,-80.17"
       style="fill:none;stroke:#cccccc;stroke-width:7.96717;stroke-linecap:butt;stroke-linejoin:miter;stroke-miterlimit:10;stroke-dasharray:none;stroke-opacity:1"
       transform="matrix(0.13333333,0,0,-0.13333333,0,1056)" />
    <g
       id="g15"
       aria-label="S2&#10;Top−level&#10;state&#10;Subgoal&#10;level 1"
       transform="matrix(1.3333333,0,0,1.3333333,713.85867,471.54267)">
      <path
         id="path16"
         d="m 6.6450625,-5.7419609 c 0,-0.5625 -0.023437,-0.7148438 -0.2109375,-1.1015625 -0.4453125,-0.9375 -1.3945313,-1.4179688 -2.765625,-1.4179688 -1.78125,0 -2.8828125,0.9140625 -2.8828125,2.3789063 0,0.9960937 0.515625,1.6171875 1.59375,1.8984375 l 2.015625,0.5390625 c 1.0429687,0.2695312 1.5,0.6796875 1.5,1.3125 0,0.4335937 -0.234375,0.8789062 -0.5859375,1.125 -0.3164063,0.23437496 -0.8320313,0.35156246 -1.4882813,0.35156246 -0.9023437,0 -1.4882812,-0.2109375 -1.875,-0.67968746 C 1.6411562,-1.6989922 1.51225,-2.0857109 1.51225,-2.5896172 H 0.53959375 c 0.0117188,0.75 0.15234375,1.2421875 0.48046875,1.68750001 0.5507812,0.7734375 1.4882812,1.16015625 2.7304687,1.16015625 0.9726563,0 1.7578125,-0.22265625 2.2851563,-0.62109375 0.5507812,-0.4453125 0.890625,-1.16015621 0.890625,-1.86328121 0,-1.0078125 -0.6210938,-1.7460938 -1.7226563,-2.0507813 L 3.152875,-4.8161797 C 2.1802187,-5.0857109 1.8169375,-5.4021172 1.8169375,-6.0232109 c 0,-0.8320313 0.7265625,-1.3710938 1.8164062,-1.3710938 1.3007813,0 2.0273438,0.5742188 2.0390625,1.6523438 z m 6.4423825,4.76953121 H 8.9272891 C 9.0210391,-1.6403984 9.3843203,-2.0622734 10.345258,-2.6599297 l 1.125,-0.6210937 c 1.101562,-0.609375 1.664062,-1.4414063 1.664062,-2.4257813 0,-0.6796875 -0.257812,-1.3007812 -0.726562,-1.734375 -0.46875,-0.421875 -1.054688,-0.6210937 -1.804688,-0.6210937 -0.9960934,0 -1.7460934,0.3515625 -2.1796872,1.0429687 -0.28125,0.421875 -0.3984375,0.9257813 -0.421875,1.7460938 h 0.9726563 c 0.035156,-0.5507813 0.1054687,-0.8789063 0.234375,-1.1367188 0.2578125,-0.4921875 0.7734375,-0.796875 1.3710939,-0.796875 0.890625,0 1.558594,0.6445313 1.558594,1.5117188 0,0.65625 -0.375,1.2070312 -1.078125,1.6171875 l -1.019532,0.5976562 c -1.6523434,0.9492188 -2.1328122,1.7109375 -2.2265622,3.46875001 h 5.2734372 z m 0,0"
         style="fill:#cccccc;fill-opacity:1;fill-rule:nonzero;stroke:none" />
      <path
         id="path17"
         d="m -174.16353,-221.94118 h 2.36719 v -1.39453 h -6.51563 v 1.39453 h 2.47266 v 6.73828 h 1.67578 z m 5.87695,0.60938 c -1.85156,0 -2.97656,1.21875 -2.97656,3.19921 0,1.98047 1.125,3.1875 2.98828,3.1875 1.83984,0 2.97656,-1.20703 2.97656,-3.15234 0,-2.03906 -1.11328,-3.23437 -2.98828,-3.23437 z m 0.0117,1.26562 c 0.85547,0 1.40625,0.77344 1.40625,1.95703 0,1.125 -0.57422,1.89844 -1.40625,1.89844 -0.85547,0 -1.41797,-0.76172 -1.41797,-1.92188 0,-1.16015 0.5625,-1.93359 1.41797,-1.93359 z m 5.64551,-1.16016 h -1.5586 v 8.46094 h 1.5586 v -3.15234 c 0.38672,0.66797 0.92578,0.98437 1.67578,0.98437 1.45312,0 2.51953,-1.35937 2.51953,-3.1875 0,-0.85547 -0.23437,-1.69922 -0.64453,-2.26172 -0.39844,-0.5625 -1.14844,-0.94921 -1.875,-0.94921 -0.75,0 -1.28906,0.32812 -1.67578,0.99609 z m 1.32422,1.20704 c 0.78515,0 1.3125,0.75 1.3125,1.91015 0,1.11328 -0.53907,1.86328 -1.3125,1.86328 -0.79688,0 -1.32422,-0.75 -1.32422,-1.875 0,-1.14843 0.52734,-1.89843 1.32422,-1.89843 z m 9.35742,1.57031 h -5.625 v 1.32422 h 5.625 z m 2.75098,-4.88672 h -1.5586 v 8.13281 h 1.5586 z m 6.6416,5.61328 c 0.0117,-0.14062 0.0117,-0.1875 0.0117,-0.26953 0,-0.59766 -0.0937,-1.16016 -0.23438,-1.58203 -0.39844,-1.08985 -1.37109,-1.75781 -2.58984,-1.75781 -1.73438,0 -2.78907,1.2539 -2.78907,3.26953 0,1.93359 1.04297,3.11718 2.75391,3.11718 1.34766,0 2.44922,-0.76171 2.78906,-1.95703 h -1.53515 c -0.1875,0.48047 -0.63282,0.76172 -1.19532,0.76172 -0.44531,0 -0.80859,-0.1875 -1.03125,-0.52734 -0.14062,-0.22266 -0.19921,-0.49219 -0.22265,-1.05469 z m -4.01953,-1.04297 c 0.10546,-0.92578 0.49218,-1.37109 1.18359,-1.37109 0.71484,0 1.13672,0.48047 1.21875,1.37109 z m 8.27343,3.5625 2.07422,-6.02344 h -1.65234 l -1.20703,4.40625 -1.3125,-4.40625 h -1.65235 l 2.10938,6.02344 z m 8.14746,-2.51953 c 0.0117,-0.14062 0.0117,-0.1875 0.0117,-0.26953 0,-0.59766 -0.0937,-1.16016 -0.23437,-1.58203 -0.39844,-1.08985 -1.3711,-1.75781 -2.58985,-1.75781 -1.73437,0 -2.78906,1.2539 -2.78906,3.26953 0,1.93359 1.04297,3.11718 2.75391,3.11718 1.34765,0 2.44922,-0.76171 2.78906,-1.95703 h -1.53516 c -0.1875,0.48047 -0.63281,0.76172 -1.19531,0.76172 -0.44531,0 -0.80859,-0.1875 -1.03125,-0.52734 -0.14062,-0.22266 -0.19922,-0.49219 -0.22265,-1.05469 z m -4.01953,-1.04297 c 0.10547,-0.92578 0.49219,-1.37109 1.1836,-1.37109 0.71484,0 1.13672,0.48047 1.21875,1.37109 z m 6.68262,-4.57031 h -1.55859 v 8.13281 h 1.55859 z m -45.33691,15.20801 c -0.0234,-1.27735 -1.00782,-2.05078 -2.625,-2.05078 -1.52344,0 -2.47266,0.77343 -2.47266,2.01562 0,0.39844 0.11719,0.73828 0.32813,0.97266 0.21093,0.22265 0.41015,0.3164 0.98437,0.5039 l 1.86328,0.58594 c 0.38672,0.11719 0.52735,0.24609 0.52735,0.49219 0,0.36328 -0.4336,0.58594 -1.16016,0.58594 -0.41016,0 -0.72656,-0.0703 -0.92578,-0.21094 -0.17578,-0.11719 -0.23438,-0.2461 -0.30469,-0.5625 h -1.52344 c 0.0352,1.32422 1.00782,2.0039 2.83594,2.0039 0.84375,0 1.47656,-0.17578 1.92188,-0.53906 0.44531,-0.35156 0.71484,-0.91406 0.71484,-1.5 0,-0.78515 -0.38672,-1.28906 -1.18359,-1.52344 l -1.96875,-0.5625 c -0.44532,-0.14062 -0.55079,-0.22265 -0.55079,-0.46875 0,-0.33984 0.35157,-0.5625 0.90235,-0.5625 0.75,0 1.11328,0.26954 1.125,0.82032 z m 3.92871,-1.82813 h -0.87891 v -1.61719 h -1.55859 v 1.61719 h -0.77344 v 1.04297 h 0.77344 v 3.70313 c 0,0.94921 0.5039,1.41796 1.52343,1.41796 0.36329,0 0.6211,-0.0351 0.91407,-0.1289 v -1.08985 c -0.16407,0.0234 -0.23438,0.0352 -0.36328,0.0352 -0.41016,0 -0.51563,-0.11719 -0.51563,-0.65625 v -3.28125 h 0.87891 z m 6.19922,5.71875 c -0.26954,-0.25781 -0.36329,-0.43359 -0.36329,-0.73828 v -3.35156 c 0,-1.21875 -0.83203,-1.85156 -2.46093,-1.85156 -1.62891,0 -2.47266,0.6914 -2.57813,2.08593 h 1.51172 c 0.0703,-0.62109 0.32813,-0.82031 1.10156,-0.82031 0.59766,0 0.90235,0.19922 0.90235,0.59766 0,0.19922 -0.10547,0.375 -0.26953,0.46875 -0.21094,0.11718 -0.21094,0.11718 -0.98438,0.23437 l -0.62109,0.11719 c -1.19532,0.19922 -1.76953,0.80859 -1.76953,1.89844 0,1.07812 0.72656,1.80468 1.82812,1.80468 0.66797,0 1.26563,-0.28125 1.82813,-0.85546 0,0.30468 0.0351,0.42187 0.17578,0.59765 h 1.69922 z m -1.88672,-2.23828 c 0,0.91406 -0.44532,1.41797 -1.24219,1.41797 -0.51563,0 -0.84375,-0.26953 -0.84375,-0.72656 0,-0.46875 0.24609,-0.69141 0.89062,-0.82032 l 0.53907,-0.10546 c 0.41015,-0.0703 0.48047,-0.0937 0.65625,-0.1875 z m 5.60449,-3.48047 h -0.87891 v -1.61719 h -1.55859 v 1.61719 h -0.77344 v 1.04297 h 0.77344 v 3.70313 c 0,0.94921 0.50391,1.41796 1.52344,1.41796 0.36328,0 0.62109,-0.0351 0.91406,-0.1289 v -1.08985 c -0.16406,0.0234 -0.23438,0.0352 -0.36328,0.0352 -0.41016,0 -0.51563,-0.11719 -0.51563,-0.65625 v -3.28125 h 0.87891 z m 6.19629,3.38672 c 0.0117,-0.14062 0.0117,-0.1875 0.0117,-0.26953 0,-0.59766 -0.0937,-1.16016 -0.23438,-1.58203 -0.39844,-1.08985 -1.37109,-1.75781 -2.58984,-1.75781 -1.73438,0 -2.78906,1.2539 -2.78906,3.26953 0,1.93359 1.04296,3.11718 2.7539,3.11718 1.34766,0 2.44922,-0.76171 2.78906,-1.95703 h -1.53515 c -0.1875,0.48047 -0.63281,0.76172 -1.19531,0.76172 -0.44532,0 -0.8086,-0.1875 -1.03125,-0.52734 -0.14063,-0.22266 -0.19922,-0.49219 -0.22266,-1.05469 z m -4.01953,-1.04297 c 0.10547,-0.92578 0.49218,-1.37109 1.18359,-1.37109 0.71484,0 1.13672,0.48047 1.21875,1.37109 z M -165.31587,2.218 c -0.0117,-1.67578125 -1.13672,-2.6015625 -3.1875,-2.6015625 -1.95704,0 -3.08204,0.9140625 -3.08204,2.4960937 0,1.2539063 0.63282,1.875 2.28516,2.1796875 l 1.13672,0.2226563 c 1.11328,0.2226562 1.53516,0.5273437 1.53516,1.1835937 0,0.6796875 -0.63282,1.1015625 -1.64063,1.1015625 -1.14844,0 -1.78125,-0.4804687 -1.83984,-1.359375 h -1.62891 c 0.10547,1.7460938 1.30078,2.6953125 3.375,2.6953125 2.09766,0 3.33984,-0.9726562 3.33984,-2.6367187 0,-1.2773438 -0.65625,-1.9453125 -2.15625,-2.2382813 L -168.4565,3.014875 c -1.19531,-0.234375 -1.53516,-0.46875 -1.53516,-1.0664063 0,-0.609375 0.53907,-0.9960937 1.40625,-0.9960937 1.05469,0 1.65235,0.4453125 1.71094,1.265625 z m 6.70019,5.6601562 V 1.8547187 h -1.55859 v 3.7734375 c 0,0.7148438 -0.49219,1.1835938 -1.26563,1.1835938 -0.66797,0 -1.00781,-0.3632813 -1.00781,-1.0898438 V 1.8547187 h -1.55859 v 4.1953125 c 0,1.3359375 0.72656,2.0859375 2.02734,2.0859375 0.80859,0 1.35937,-0.2929687 1.80469,-0.9726562 v 0.7148437 z m 1.43555,-8.13281245 V 7.8781562 h 1.55859 v -0.609375 c 0.38672,0.5859375 0.91406,0.8671875 1.66406,0.8671875 1.44141,0 2.53125,-1.3710937 2.53125,-3.1875 0,-0.8203125 -0.24609,-1.640625 -0.64453,-2.2265625 -0.41015,-0.5859375 -1.14844,-0.9726562 -1.88672,-0.9726562 -0.75,0 -1.27734,0.28125 -1.66406,0.890625 v -2.89453125 z m 2.88281,3.31640625 c 0.76172,0 1.3125,0.7734375 1.3125,1.8984375 0,1.1015625 -0.53906,1.875 -1.3125,1.875 -0.79688,0 -1.32422,-0.75 -1.32422,-1.9101563 0,-1.1132812 0.53906,-1.8632812 1.32422,-1.8632812 z m 7.74316,-1.2070313 V 2.7805 c -0.43359,-0.703125 -0.91406,-1.03125 -1.55859,-1.03125 -0.52734,0 -1.125,0.2695312 -1.53516,0.703125 -0.59765,0.6328125 -0.91406,1.5 -0.91406,2.5546875 0,1.8515625 0.98438,3.1289062 2.42578,3.1289062 0.64453,0 1.03125,-0.2109375 1.58203,-0.8671875 V 8.077375 c 0,0.7265625 -0.51562,1.2304687 -1.2539,1.2304687 -0.55078,0 -0.90235,-0.2460937 -1.01953,-0.703125 h -1.60547 c 0,0.46875 0.17578,0.7851563 0.58594,1.125 0.48046,0.3867183 1.13671,0.5859373 1.98046,0.5859373 1.7461,0 2.78907,-0.8437498 2.78907,-2.238281 V 1.8547187 Z m -1.26562,1.2070313 c 0.73828,0 1.28906,0.8085937 1.28906,1.921875 0,1.1015625 -0.52734,1.8515625 -1.3125,1.8515625 -0.67969,0 -1.16015,-0.75 -1.16015,-1.8515625 0,-1.1367188 0.48046,-1.921875 1.18359,-1.921875 z m 6.97851,-1.3125 c -1.85156,0 -2.97656,1.21875 -2.97656,3.1992187 0,1.9804688 1.125,3.1875 2.98828,3.1875 1.83985,0 2.97657,-1.2070312 2.97657,-3.1523437 0,-2.0390625 -1.11329,-3.234375 -2.98829,-3.234375 z m 0.0117,1.265625 c 0.85547,0 1.40625,0.7734375 1.40625,1.9570312 0,1.125 -0.57422,1.8984375 -1.40625,1.8984375 -0.85547,0 -1.41797,-0.7617187 -1.41797,-1.921875 0,-1.1601562 0.5625,-1.9335937 1.41797,-1.9335937 z m 9.28711,4.6757812 c -0.26953,-0.2578125 -0.36328,-0.4335937 -0.36328,-0.7382812 V 3.6008125 c 0,-1.21875 -0.83203,-1.8515625 -2.46094,-1.8515625 -1.6289,0 -2.47265,0.6914062 -2.57812,2.0859375 h 1.51172 c 0.0703,-0.6210938 0.32812,-0.8203125 1.10156,-0.8203125 0.59766,0 0.90234,0.1992187 0.90234,0.5976562 0,0.1992188 -0.10546,0.375 -0.26953,0.46875 -0.21093,0.1171875 -0.21093,0.1171875 -0.98437,0.234375 l -0.6211,0.1171875 c -1.19531,0.1992188 -1.76953,0.8085938 -1.76953,1.8984375 0,1.078125 0.72657,1.8046875 1.82813,1.8046875 0.66797,0 1.26562,-0.28125 1.82812,-0.8554687 0,0.3046875 0.0352,0.421875 0.17578,0.5976562 h 1.69922 z m -1.88672,-2.2382812 c 0,0.9140625 -0.44531,1.4179687 -1.24218,1.4179687 -0.51563,0 -0.84375,-0.2695312 -0.84375,-0.7265625 0,-0.46875 0.24609,-0.6914062 0.89062,-0.8203125 L -134.08541,5.218 c 0.41016,-0.070312 0.48047,-0.09375 0.65625,-0.1875 z m 4.54981,-5.70703125 h -1.5586 V 7.8781562 h 1.5586 z M -169.78072,10.898664 h -1.55859 v 8.132813 h 1.55859 z m 6.63867,5.613281 c 0.0117,-0.140625 0.0117,-0.1875 0.0117,-0.269531 0,-0.597656 -0.0937,-1.160156 -0.23437,-1.582031 -0.39844,-1.089844 -1.3711,-1.757813 -2.58985,-1.757813 -1.73437,0 -2.78906,1.253907 -2.78906,3.269532 0,1.933593 1.04297,3.117187 2.75391,3.117187 1.34765,0 2.44922,-0.761719 2.78906,-1.957031 h -1.53516 c -0.1875,0.480469 -0.63281,0.761719 -1.19531,0.761719 -0.44531,0 -0.80859,-0.1875 -1.03125,-0.527344 -0.14062,-0.222656 -0.19922,-0.492188 -0.22266,-1.054688 z m -4.01953,-1.042968 c 0.10547,-0.925782 0.49219,-1.371094 1.1836,-1.371094 0.71484,0 1.13671,0.480469 1.21875,1.371094 z m 8.27637,3.5625 2.07422,-6.023438 h -1.65235 l -1.20703,4.40625 -1.3125,-4.40625 h -1.65234 l 2.10937,6.023438 z m 8.14746,-2.519532 c 0.0117,-0.140625 0.0117,-0.1875 0.0117,-0.269531 0,-0.597656 -0.0937,-1.160156 -0.23438,-1.582031 -0.39843,-1.089844 -1.37109,-1.757813 -2.58984,-1.757813 -1.73437,0 -2.78906,1.253907 -2.78906,3.269532 0,1.933593 1.04297,3.117187 2.7539,3.117187 1.34766,0 2.44922,-0.761719 2.78907,-1.957031 h -1.53516 c -0.1875,0.480469 -0.63281,0.761719 -1.19531,0.761719 -0.44531,0 -0.8086,-0.1875 -1.03125,-0.527344 -0.14063,-0.222656 -0.19922,-0.492188 -0.22266,-1.054688 z m -4.01953,-1.042968 c 0.10547,-0.925782 0.49219,-1.371094 1.18359,-1.371094 0.71485,0 1.13672,0.480469 1.21875,1.371094 z m 6.68262,-4.570313 h -1.5586 v 8.132813 h 1.5586 z m 6.55078,2.671875 v 5.460938 h 1.55859 V 11.12132 h -1.04297 c -0.24609,0.9375 -1.05469,1.417969 -2.41406,1.417969 v 1.03125 z m 0,0"
         style="fill:#cccccc;fill-opacity:1;fill-rule:nonzero;stroke:none" />
    </g>
    <path
       id="path18"
       d="m 2422.02,6118.79 h 637.37"
       style="fill:none;stroke:#000000;stroke-width:15.9343;stroke-linecap:butt;stroke-linejoin:miter;stroke-miterlimit:10;stroke-dasharray:none;stroke-opacity:1"
       transform="matrix(0.13333333,0,0,-0.13333333,0,1056)" />
    <path
       id="path19"
       d="m 2931.92,6182.52 127.47,-63.73"
       style="fill:none;stroke:#000000;stroke-width:15.9343;stroke-linecap:butt;stroke-linejoin:miter;stroke-miterlimit:10;stroke-dasharray:none;stroke-opacity:1"
       transform="matrix(0.13333333,0,0,-0.13333333,0,1056)" />
    <path
       id="path20"
       d="m 2931.92,6055.05 127.47,63.74"
       style="fill:none;stroke:#000000;stroke-width:15.9343;stroke-linecap:butt;stroke-linejoin:miter;stroke-miterlimit:10;stroke-dasharray:none;stroke-opacity:1"
       transform="matrix(0.13333333,0,0,-0.13333333,0,1056)" />
    <path
       id="path21"
       d="M 3.2466563,-3.7254688 H 5.93025 c 1.921875,0 3.1523438,-1.3710937 3.1523438,-3.4921875 0,-2.0859375 -1.1953125,-3.2343747 -3.375,-3.2343747 H 1.0904063 V 0.00109375 h 2.15625 z m 0,-1.7929687 v -3.140625 h 2.0039062 c 1.1484375,0 1.6757813,0.5039062 1.6757813,1.5585937 0,1.078125 -0.5273438,1.5820313 -1.6757813,1.5820313 z M 10.468336,-7.745 v 7.74609375 h 2.003906 V -4.1121875 c 0,-1.1835938 0.597656,-1.7695313 1.769531,-1.7695313 0.210938,0 0.363282,0.011719 0.632813,0.058594 v -2.0390625 c -0.117188,-0.011719 -0.164063,-0.011719 -0.246094,-0.011719 -0.914062,0 -1.710937,0.5976563 -2.15625,1.6523438 V -7.745 Z m 8.988281,-0.1289063 c -2.367187,0 -3.808594,1.5585938 -3.808594,4.1015625 0,2.5546875 1.441407,4.10156255 3.832032,4.10156255 2.367187,0 3.820312,-1.54687505 3.820312,-4.04296875 0,-2.625 -1.417969,-4.1601563 -3.84375,-4.1601563 z m 0.02344,1.6171875 c 1.101562,0 1.816406,0.9960938 1.816406,2.5195313 0,1.4414062 -0.75,2.4492187 -1.816406,2.4492187 -1.089844,0 -1.828125,-0.9960937 -1.828125,-2.484375 0,-1.4882812 0.738281,-2.484375 1.828125,-2.484375 z m 10.239257,6.25781255 h 2.003907 V -10.452031 h -2.003907 v 3.7148435 c -0.503906,-0.7734375 -1.160156,-1.1367188 -2.144531,-1.1367188 -1.851562,0 -3.257812,1.78125 -3.257812,4.1132813 0,1.0546875 0.316406,2.109375 0.832031,2.859375 0.539062,0.76171875 1.488281,1.23046875 2.425781,1.23046875 0.984375,0 1.640625,-0.33984375 2.144531,-1.11328125 z M 28.020094,-6.198125 c 1.019531,0 1.699218,0.9726562 1.699218,2.4726562 0,1.40625 -0.691406,2.3789063 -1.699218,2.3789063 -0.996094,0 -1.6875,-0.9960938 -1.6875,-2.4140625 0,-1.4414063 0.691406,-2.4375 1.6875,-2.4375 z M 40.42732,0.00109375 V -7.745 h -2.003906 v 4.8515625 c 0,0.9140625 -0.632812,1.5117187 -1.617187,1.5117187 -0.867188,0 -1.300782,-0.4570312 -1.300782,-1.3828125 V -7.745 h -2.003906 v 5.390625 c 0,1.72265625 0.9375,2.68359375 2.601563,2.68359375 1.042968,0 1.746093,-0.375 2.320312,-1.2421875 v 0.9140625 z m 8.493164,-4.85156255 c -0.140625,-1.8867187 -1.394531,-3.0234375 -3.339843,-3.0234375 -2.332032,0 -3.65625,1.5234375 -3.65625,4.1601563 0,2.5546875 1.324218,4.04296875 3.621093,4.04296875 1.886719,0 3.1875,-1.16015625 3.375,-3.01171875 h -1.921875 c -0.246093,1.0078125 -0.644531,1.3945312 -1.453125,1.3945312 -1.019531,0 -1.617187,-0.9023437 -1.617187,-2.4257812 0,-0.75 0.140625,-1.4179688 0.386719,-1.875 0.234375,-0.4335938 0.679687,-0.6679688 1.253906,-0.6679688 0.808594,0 1.195312,0.3867188 1.429687,1.40625 z m 4.795899,-2.7304687 H 52.603102 V -9.666875 h -2.003907 v 2.0859375 h -0.996093 v 1.3242187 h 0.996093 v 4.7695313 c 0,1.21875 0.644532,1.81640625 1.957032,1.81640625 0.457031,0 0.796875,-0.046875 1.160156,-0.15234375 v -1.40625 c -0.199219,0.023437 -0.292969,0.035156 -0.457031,0.035156 -0.527344,0 -0.65625,-0.1523437 -0.65625,-0.84375 v -4.21875 h 1.113281 z M 57.144117,-7.745 h -2.003906 v 7.74609375 h 2.003906 z m 0,-2.707031 h -2.003906 v 1.7929685 h 2.003906 z m 5.334961,2.5781247 c -2.367187,0 -3.808594,1.5585938 -3.808594,4.1015625 0,2.5546875 1.441407,4.10156255 3.832032,4.10156255 2.367187,0 3.820312,-1.54687505 3.820312,-4.04296875 0,-2.625 -1.417969,-4.1601563 -3.84375,-4.1601563 z m 0.02344,1.6171875 c 1.101562,0 1.816406,0.9960938 1.816406,2.5195313 0,1.4414062 -0.75,2.4492187 -1.816406,2.4492187 -1.089844,0 -1.828125,-0.9960937 -1.828125,-2.484375 0,-1.4882812 0.738281,-2.484375 1.828125,-2.484375 z M 67.831617,-7.745 v 7.74609375 h 2.003906 V -4.65125 c 0,-0.9140625 0.632813,-1.5117188 1.628907,-1.5117188 0.855468,0 1.289062,0.46875 1.289062,1.3828125 v 4.78125005 h 2.003906 V -5.1903125 c 0,-1.7226563 -0.925781,-2.6835938 -2.589843,-2.6835938 -1.054688,0 -1.757813,0.375 -2.332032,1.2539063 V -7.745 Z M 9.7857188,7.4278516 C 9.7154063,6.5255078 9.5279063,5.9512891 9.0825938,5.3653516 8.274,4.2989453 6.9849375,3.7130078 5.4263438,3.7130078 c -2.953125,0 -4.7929688,2.109375 -4.7929688,5.4960938 0,3.3632814 1.8164063,5.4609374 4.734375,5.4609374 2.6132813,0 4.3242188,-1.5 4.453125,-3.902344 H 7.7349375 c -0.1523437,1.335938 -0.9726562,2.097657 -2.3085937,2.097657 -1.6640625,0 -2.6484375,-1.347657 -2.6484375,-3.6328129 0,-2.3085938 1.0195312,-3.6796875 2.71875,-3.6796875 1.2421875,0 1.9453125,0.5976562 2.2382812,1.875 z M 14.666578,6.4669141 c -2.367187,0 -3.808594,1.5585937 -3.808594,4.1015629 0,2.554687 1.441407,4.101562 3.832032,4.101562 2.367187,0 3.820312,-1.546875 3.820312,-4.042969 0,-2.6249997 -1.417969,-4.1601559 -3.84375,-4.1601559 z m 0.02344,1.6171875 c 1.101562,0 1.816406,0.9960937 1.816406,2.5195314 0,1.441406 -0.75,2.449219 -1.816406,2.449219 -1.089844,0 -1.828125,-0.996094 -1.828125,-2.484375 0,-1.4882817 0.738281,-2.4843754 1.828125,-2.4843754 z m 5.329101,-1.4882813 v 7.7460937 h 2.003906 V 9.6895703 c 0,-0.9140625 0.632813,-1.5117187 1.628907,-1.5117187 0.855468,0 1.289062,0.46875 1.289062,1.3828125 V 14.341914 H 26.9449 V 9.1505078 c 0,-1.7226562 -0.925781,-2.6835937 -2.589843,-2.6835937 -1.054688,0 -1.757813,0.375 -2.332032,1.2539062 v -1.125 z m 13.672852,7.7460937 h 2.003906 V 3.8887891 H 33.691969 V 7.6036328 C 33.188062,6.8301953 32.531812,6.4669141 31.547437,6.4669141 c -1.851562,0 -3.257812,1.78125 -3.257812,4.1132809 0,1.054688 0.316406,2.109375 0.832031,2.859375 0.539063,0.761719 1.488281,1.230469 2.425781,1.230469 0.984375,0 1.640625,-0.339844 2.144532,-1.113281 z M 31.99275,8.1426953 c 1.019531,0 1.699219,0.9726563 1.699219,2.4726567 0,1.40625 -0.691407,2.378906 -1.699219,2.378906 -0.996094,0 -1.6875,-0.996094 -1.6875,-2.414063 0,-1.4414059 0.691406,-2.4374997 1.6875,-2.4374997 z m 7.614258,-1.546875 h -2.003906 v 7.7460937 h 2.003906 z m 0,-2.7070312 h -2.003906 v 1.7929687 h 2.003906 z m 5.332031,2.8710937 H 43.825758 V 4.6739453 h -2.003906 v 2.0859375 h -0.996094 v 1.3242188 h 0.996094 v 4.7695314 c 0,1.21875 0.644531,1.816406 1.957031,1.816406 0.457031,0 0.796875,-0.04687 1.160156,-0.152344 v -1.40625 c -0.199219,0.02344 -0.292969,0.03516 -0.457031,0.03516 -0.527344,0 -0.65625,-0.152344 -0.65625,-0.84375 V 8.0841016 h 1.113281 z m 3.427734,-0.1640625 h -2.003906 v 7.7460937 h 2.003906 z m 0,-2.7070312 h -2.003906 v 1.7929687 h 2.003906 z m 5.334961,2.578125 c -2.367187,0 -3.808593,1.5585937 -3.808593,4.1015629 0,2.554687 1.441406,4.101562 3.832031,4.101562 2.367187,0 3.820312,-1.546875 3.820312,-4.042969 0,-2.6249997 -1.417968,-4.1601559 -3.84375,-4.1601559 z m 0.02344,1.6171875 c 1.101562,0 1.816406,0.9960937 1.816406,2.5195314 0,1.441406 -0.75,2.449219 -1.816406,2.449219 -1.089844,0 -1.828125,-0.996094 -1.828125,-2.484375 0,-1.4882817 0.738281,-2.4843754 1.828125,-2.4843754 z M 59.054273,6.5958203 V 14.341914 H 61.05818 V 9.6895703 c 0,-0.9140625 0.632812,-1.5117187 1.628906,-1.5117187 0.855469,0 1.289062,0.46875 1.289062,1.3828125 v 4.7812499 h 2.003907 V 9.1505078 c 0,-1.7226562 -0.925782,-2.6835937 -2.589844,-2.6835937 -1.054688,0 -1.757813,0.375 -2.332031,1.2539062 v -1.125 z m 15.102539,2.4960938 c -0.02344,-1.640625 -1.289062,-2.625 -3.375,-2.625 -1.957031,0 -3.175781,0.984375 -3.175781,2.578125 0,0.515625 0.152344,0.9609379 0.421875,1.2656249 0.28125,0.269531 0.527344,0.398438 1.265625,0.644531 l 2.402344,0.75 c 0.492187,0.152344 0.667969,0.316407 0.667969,0.632813 0,0.46875 -0.5625,0.761719 -1.488282,0.761719 -0.527343,0 -0.9375,-0.09375 -1.195312,-0.28125 -0.210938,-0.152344 -0.292969,-0.316407 -0.386719,-0.726563 h -1.96875 c 0.05859,1.699219 1.3125,2.578125 3.667969,2.578125 1.066406,0 1.886719,-0.222656 2.460937,-0.691406 0.574219,-0.457031 0.914063,-1.171875 0.914063,-1.933594 0,-1.007812 -0.492188,-1.652344 -1.511719,-1.945312 L 70.313062,9.3614453 c -0.5625,-0.1640625 -0.703125,-0.28125 -0.703125,-0.5976562 0,-0.4335938 0.457032,-0.7148438 1.160157,-0.7148438 0.960937,0 1.441406,0.3398438 1.453125,1.0429688 z M 226.32478,-3.7254688 h 2.68359 c 1.92188,0 3.15235,-1.3710937 3.15235,-3.4921875 0,-2.0859375 -1.19531,-3.2343747 -3.375,-3.2343747 h -4.61719 V 0.00109375 h 2.15625 z m 0,-1.7929687 v -3.140625 h 2.00391 c 1.14843,0 1.67578,0.5039062 1.67578,1.5585937 0,1.078125 -0.52735,1.5820313 -1.67578,1.5820313 z M 233.54646,-7.745 v 7.74609375 h 2.00391 V -4.1121875 c 0,-1.1835938 0.59765,-1.7695313 1.76953,-1.7695313 0.21094,0 0.36328,0.011719 0.63281,0.058594 v -2.0390625 c -0.11719,-0.011719 -0.16406,-0.011719 -0.24609,-0.011719 -0.91407,0 -1.71094,0.5976563 -2.15625,1.6523438 V -7.745 Z m 8.99121,-0.1289063 c -2.36719,0 -3.80859,1.5585938 -3.80859,4.1015625 0,2.5546875 1.4414,4.10156255 3.83203,4.10156255 2.36719,0 3.82031,-1.54687505 3.82031,-4.04296875 0,-2.625 -1.41797,-4.1601563 -3.84375,-4.1601563 z m 0.0234,1.6171875 c 1.10156,0 1.81641,0.9960938 1.81641,2.5195313 0,1.4414062 -0.75,2.4492187 -1.81641,2.4492187 -1.08984,0 -1.82813,-0.9960937 -1.82813,-2.484375 0,-1.4882812 0.73829,-2.484375 1.82813,-2.484375 z m 10.23633,6.25781255 h 2.0039 V -10.452031 h -2.0039 v 3.7148435 c -0.50391,-0.7734375 -1.16016,-1.1367188 -2.14453,-1.1367188 -1.85157,0 -3.25782,1.78125 -3.25782,4.1132813 0,1.0546875 0.31641,2.109375 0.83203,2.859375 0.53907,0.76171875 1.48829,1.23046875 2.42579,1.23046875 0.98437,0 1.64062,-0.33984375 2.14453,-1.11328125 z M 251.09822,-6.198125 c 1.01953,0 1.69922,0.9726562 1.69922,2.4726562 0,1.40625 -0.69141,2.3789063 -1.69922,2.3789063 -0.9961,0 -1.6875,-0.9960938 -1.6875,-2.4140625 0,-1.4414063 0.6914,-2.4375 1.6875,-2.4375 z m 12.40723,6.19921875 V -7.745 h -2.00391 v 4.8515625 c 0,0.9140625 -0.63281,1.5117187 -1.61719,1.5117187 -0.86719,0 -1.30078,-0.4570312 -1.30078,-1.3828125 V -7.745 h -2.00391 v 5.390625 c 0,1.72265625 0.9375,2.68359375 2.60157,2.68359375 1.04297,0 1.74609,-0.375 2.32031,-1.2421875 v 0.9140625 z m 8.49316,-4.85156255 c -0.14063,-1.8867187 -1.39453,-3.0234375 -3.33984,-3.0234375 -2.33204,0 -3.65625,1.5234375 -3.65625,4.1601563 0,2.5546875 1.32421,4.04296875 3.62109,4.04296875 1.88672,0 3.1875,-1.16015625 3.375,-3.01171875 h -1.92188 c -0.24609,1.0078125 -0.64453,1.3945312 -1.45312,1.3945312 -1.01953,0 -1.61719,-0.9023437 -1.61719,-2.4257812 0,-0.75 0.14063,-1.4179688 0.38672,-1.875 0.23438,-0.4335938 0.67969,-0.6679688 1.25391,-0.6679688 0.80859,0 1.19531,0.3867188 1.42968,1.40625 z m 4.79883,-2.7304687 h -1.11328 V -9.666875 h -2.00391 v 2.0859375 h -0.99609 v 1.3242187 h 0.99609 v 4.7695313 c 0,1.21875 0.64453,1.81640625 1.95703,1.81640625 0.45703,0 0.79688,-0.046875 1.16016,-0.15234375 v -1.40625 c -0.19922,0.023437 -0.29297,0.035156 -0.45703,0.035156 -0.52735,0 -0.65625,-0.1523437 -0.65625,-0.84375 v -4.21875 h 1.11328 z M 280.22517,-7.745 h -2.0039 v 7.74609375 h 2.0039 z m 0,-2.707031 h -2.0039 v 1.7929685 h 2.0039 z m 5.33496,2.5781247 c -2.36718,0 -3.80859,1.5585938 -3.80859,4.1015625 0,2.5546875 1.44141,4.10156255 3.83203,4.10156255 2.36719,0 3.82031,-1.54687505 3.82031,-4.04296875 0,-2.625 -1.41797,-4.1601563 -3.84375,-4.1601563 z m 0.0234,1.6171875 c 1.10156,0 1.81641,0.9960938 1.81641,2.5195313 0,1.4414062 -0.75,2.4492187 -1.81641,2.4492187 -1.08984,0 -1.82812,-0.9960937 -1.82812,-2.484375 0,-1.4882812 0.73828,-2.484375 1.82812,-2.484375 z M 290.91267,-7.745 v 7.74609375 h 2.00391 V -4.65125 c 0,-0.9140625 0.63281,-1.5117188 1.6289,-1.5117188 0.85547,0 1.28907,0.46875 1.28907,1.3828125 v 4.78125005 h 2.0039 V -5.1903125 c 0,-1.7226563 -0.92578,-2.6835938 -2.58984,-2.6835938 -1.05469,0 -1.75781,0.375 -2.33203,1.2539063 v -1.125 z m -60.65039,19.977539 0.69141,2.109375 h 2.20312 L 229.54744,3.8887891 h -2.37891 l -3.71484,10.4531249 h 2.1914 l 0.70313,-2.109375 z m -0.58594,-1.792969 h -2.73047 l 1.3711,-4.0898434 z m 11.24707,-0.9492184 c -0.14062,-1.8867188 -1.39453,-3.0234375 -3.33984,-3.0234375 -2.33203,0 -3.65625,1.5234375 -3.65625,4.1601559 0,2.554688 1.32422,4.042969 3.62109,4.042969 1.88672,0 3.1875,-1.160156 3.375,-3.011719 h -1.92187 c -0.24609,1.007813 -0.64453,1.394532 -1.45313,1.394532 -1.01953,0 -1.61718,-0.902344 -1.61718,-2.425782 0,-0.7499997 0.14062,-1.4179684 0.38672,-1.8749997 0.23437,-0.4335937 0.67968,-0.6679687 1.2539,-0.6679687 0.8086,0 1.19531,0.3867187 1.42969,1.40625 z m 4.7959,-2.7304688 h -1.11328 V 4.6739453 h -2.00391 v 2.0859375 h -0.99609 v 1.3242188 h 0.99609 v 4.7695314 c 0,1.21875 0.64454,1.816406 1.95704,1.816406 0.45703,0 0.79687,-0.04687 1.16015,-0.152344 v -1.40625 c -0.19922,0.02344 -0.29297,0.03516 -0.45703,0.03516 -0.52734,0 -0.65625,-0.152344 -0.65625,-0.84375 V 8.0841016 h 1.11328 z m 3.42774,-0.1640625 h -2.00391 v 7.7460937 h 2.00391 z m 0,-2.7070312 h -2.00391 v 1.7929687 h 2.00391 z m 5.33496,2.578125 c -2.36719,0 -3.8086,1.5585937 -3.8086,4.1015629 0,2.554687 1.44141,4.101562 3.83204,4.101562 2.36718,0 3.82031,-1.546875 3.82031,-4.042969 0,-2.6249997 -1.41797,-4.1601559 -3.84375,-4.1601559 z m 0.0234,1.6171875 c 1.10156,0 1.8164,0.9960937 1.8164,2.5195314 0,1.441406 -0.75,2.449219 -1.8164,2.449219 -1.08985,0 -1.82813,-0.996094 -1.82813,-2.484375 0,-1.4882817 0.73828,-2.4843754 1.82813,-2.4843754 z m 5.3291,-1.4882813 v 7.7460937 h 2.0039 V 9.6895703 c 0,-0.9140625 0.63282,-1.5117187 1.62891,-1.5117187 0.85547,0 1.28906,0.46875 1.28906,1.3828125 v 4.7812499 h 2.00391 V 9.1505078 c 0,-1.7226562 -0.92578,-2.6835937 -2.58985,-2.6835937 -1.05468,0 -1.75781,0.375 -2.33203,1.2539062 v -1.125 z m 15.10254,2.4960938 c -0.0234,-1.640625 -1.28907,-2.625 -3.375,-2.625 -1.95704,0 -3.17579,0.984375 -3.17579,2.578125 0,0.515625 0.15235,0.9609379 0.42188,1.2656249 0.28125,0.269531 0.52734,0.398438 1.26562,0.644531 l 2.40235,0.75 c 0.49219,0.152344 0.66797,0.316407 0.66797,0.632813 0,0.46875 -0.5625,0.761719 -1.48828,0.761719 -0.52735,0 -0.9375,-0.09375 -1.19532,-0.28125 -0.21093,-0.152344 -0.29297,-0.316407 -0.38672,-0.726563 h -1.96875 c 0.0586,1.699219 1.3125,2.578125 3.66797,2.578125 1.06641,0 1.88672,-0.222656 2.46094,-0.691406 0.57422,-0.457031 0.91406,-1.171875 0.91406,-1.933594 0,-1.007812 -0.49218,-1.652344 -1.51172,-1.945312 L 271.0933,9.3614453 c -0.5625,-0.1640625 -0.70313,-0.28125 -0.70313,-0.5976562 0,-0.4335938 0.45703,-0.7148438 1.16016,-0.7148438 0.96093,0 1.4414,0.3398438 1.45312,1.0429688 z m 0,0"
       style="fill:#000000;fill-opacity:1;fill-rule:nonzero;stroke:none"
       aria-label="Production&#10;Conditions&#10;Production&#10;Actions"
       transform="matrix(1.3333333,0,0,1.3333333,161.468,55.826667)" />
    <path
       id="path22"
       d="m 5608.89,6628.69 c 0,70.4 -57.08,127.47 -127.48,127.47 -70.39,0 -127.47,-57.07 -127.47,-127.47 0,-70.4 57.08,-127.48 127.47,-127.48 70.4,0 127.48,57.08 127.48,127.48"
       style="fill:none;stroke:#000000;stroke-width:23.9015;stroke-linecap:butt;stroke-linejoin:miter;stroke-miterlimit:10;stroke-dasharray:none;stroke-opacity:1"
       transform="matrix(0.13333333,0,0,-0.13333333,0,1056)" />
    <path
       id="path23"
       d="M 4.3579766,-4.1727031 7.1001641,-8.1336406 H 5.8696953 l -2.0976562,3.1875 -2.0859375,-3.1875 H 0.42047656 L 3.1275078,-4.1727031 0.24469531,-8.28125e-4 H 1.5103203 L 3.7368828,-3.3875469 5.9517266,-8.28125e-4 h 1.2890625 z m 5.9765624,-1.5703125 v 5.742187475 h 0.972656 V -8.0633281 h -0.644531 c -0.339844,1.2304687 -0.5625,1.40625 -2.0859374,1.6054687 v 0.7148438 z m 0,0"
       style="fill:#000000;fill-opacity:1;fill-rule:nonzero;stroke:none"
       aria-label="X1"
       transform="matrix(1.3333333,0,0,1.3333333,722.35733,174.10267)" />
    <path
       id="path24"
       d="m 4589.09,6628.69 c 0,0 0,0 53.11,21.24 53.12,21.25 159.35,63.74 244.33,84.98 84.99,21.25 148.72,21.25 223.08,0 74.36,-21.24 159.35,-63.73 201.84,-84.98 42.49,-21.24 42.49,-21.24 42.49,-21.24"
       style="fill:none;stroke:#000000;stroke-width:15.9343;stroke-linecap:butt;stroke-linejoin:miter;stroke-miterlimit:10;stroke-dasharray:none;stroke-opacity:1"
       transform="matrix(0.13333333,0,0,-0.13333333,0,1056)" />
    <path
       id="path25"
       d="m 5291.59,6682.13 62.35,-53.44 -80.17,17.81"
       style="fill:none;stroke:#000000;stroke-width:15.9343;stroke-linecap:butt;stroke-linejoin:miter;stroke-miterlimit:10;stroke-dasharray:none;stroke-opacity:1"
       transform="matrix(0.13333333,0,0,-0.13333333,0,1056)" />
    <path
       id="path26"
       d="M 0.66914844,-5.0152344 V 3.90625e-4 H 1.4777422 V -2.7652344 c 0,-1.0195312 0.5273437,-1.6875 1.359375,-1.6875 0.6210937,0 1.03125,0.375 1.03125,0.984375 V 3.90625e-4 H 4.6535234 V -3.7847656 c 0,-0.8320313 -0.6210937,-1.3710938 -1.5820312,-1.3710938 -0.75,0 -1.2304688,0.2929688 -1.6640625,0.984375 v -0.84375 z m 9.55664056,2.7773438 c 0,-0.7617188 -0.05859,-1.21875 -0.210937,-1.59375 -0.3164067,-0.8203125 -1.0898442,-1.3242188 -2.0273442,-1.3242188 -1.3945312,0 -2.2851562,1.0664063 -2.2851562,2.71875 0,1.65234377 0.8554687,2.66015627 2.2734375,2.66015627 1.1484375,0 1.9335937,-0.65625 2.1445309,-1.74609377 H 9.3117266 c -0.2226563,0.66796877 -0.6679688,1.00781252 -1.3125,1.00781252 -0.5039063,0 -0.9375,-0.234375 -1.2070313,-0.65625002 -0.1875,-0.28125 -0.2578125,-0.5742187 -0.2578125,-1.0664062 z M 6.5461016,-2.8824219 c 0.070312,-0.9375 0.6328125,-1.5351562 1.4414062,-1.5351562 0.8085938,0 1.3710938,0.6328125 1.3710938,1.5351562 z M 15.926961,3.90625e-4 17.403523,-5.0152344 H 16.50118 l -0.996094,3.9023438 -0.984375,-3.9023438 h -0.972656 l -0.960938,3.9023438 -1.019531,-3.9023438 H 10.68868 l 1.453125,5.015625025 h 0.902343 L 14.005086,-3.9253906 15.024617,3.90625e-4 Z M 22.738484,-2.5542969 h -4.816406 v 0.6679688 h 4.816406 z m 5.499024,2.08593752 c -0.09375,0.0234375 -0.128906,0.0234375 -0.175781,0.0234375 -0.28125,0 -0.433594,-0.15234375 -0.433594,-0.3984375 V -3.7847656 c 0,-0.890625 -0.644531,-1.3710938 -1.886719,-1.3710938 -0.726562,0 -1.3125,0.2109375 -1.664062,0.5859375 -0.222657,0.2578125 -0.316407,0.5390625 -0.339844,1.0429688 h 0.808594 c 0.05859,-0.609375 0.421875,-0.890625 1.171875,-0.890625 0.726562,0 1.113281,0.2695312 1.113281,0.75 v 0.2109375 c 0,0.3398437 -0.175781,0.46875 -0.832031,0.5507812 -1.125,0.140625 -1.300782,0.1757813 -1.605469,0.3046875 -0.574219,0.2460938 -0.878906,0.6914063 -0.878906,1.3359375 0,0.91406252 0.632812,1.48828127 1.652343,1.48828127 0.621094,0 1.136719,-0.222656245 1.699219,-0.73828125 0.05859,0.515625005 0.304688,0.73828125 0.820313,0.73828125 0.175781,0 0.28125,-0.0234375 0.550781,-0.09375 z m -1.40625,-1.11328122 c 0,0.2695312 -0.07031,0.4335937 -0.316406,0.65624997 -0.316407,0.29296875 -0.714844,0.4453125 -1.183594,0.4453125 -0.621094,0 -0.984375,-0.29296875 -0.984375,-0.79687497 0,-0.5273438 0.351562,-0.796875 1.207031,-0.9257813 0.855469,-0.1054687 1.019531,-0.1523437 1.277344,-0.2695312 z m 4.02832,-3.4335938 h -0.820312 v -1.3710937 h -0.796875 v 1.3710937 h -0.679688 v 0.65625 h 0.679688 v 3.78515627 c 0,0.515625 0.351562,0.796875 0.972656,0.796875 0.210937,0 0.375,-0.0234375 0.644531,-0.0703125 v -0.66796875 c -0.117187,0.0234375 -0.222656,0.0351563 -0.375,0.0351563 -0.351562,0 -0.445312,-0.09375 -0.445312,-0.4453125 V -4.3589844 h 0.820312 z m 2.657227,0 h -0.820313 v -1.3710937 h -0.796875 v 1.3710937 H 31.21993 v 0.65625 h 0.679687 v 3.78515627 c 0,0.515625 0.351563,0.796875 0.972656,0.796875 0.210938,0 0.375,-0.0234375 0.644532,-0.0703125 v -0.66796875 c -0.117188,0.0234375 -0.222657,0.0351563 -0.375,0.0351563 -0.351563,0 -0.445313,-0.09375 -0.445313,-0.4453125 V -4.3589844 h 0.820313 z m 0.887695,0 V 3.90625e-4 h 0.808594 V -2.6011719 c 0.01172,-1.2070312 0.503906,-1.734375 1.605469,-1.7109375 v -0.8085937 c -0.128907,-0.023437 -0.210938,-0.035156 -0.304688,-0.035156 -0.515625,0 -0.914062,0.3046875 -1.371094,1.0546875 v -0.9140625 z m 3.958008,0 H 37.577352 V 3.90625e-4 h 0.785156 z m 0,-1.9570312 h -0.796875 v 1.0078125 h 0.796875 z m 1.207031,0 V 3.90625e-4 h 0.714844 V -0.64414063 c 0.386719,0.5859375 0.890625,0.8671875 1.59375,0.8671875 1.3125,0 2.179687,-1.078125 2.179687,-2.74218747 0,-1.6289063 -0.820312,-2.6367188 -2.144531,-2.6367188 -0.691406,0 -1.171875,0.2578125 -1.546875,0.8203125 v -2.6367187 z m 2.191406,2.5664062 c 0.890625,0 1.464844,0.7734375 1.464844,1.96875 0,1.1367188 -0.597656,1.91015627 -1.464844,1.91015627 -0.855468,0 -1.394531,-0.76171877 -1.394531,-1.94531247 0,-1.171875 0.539063,-1.9335938 1.394531,-1.9335938 z M 48.976766,3.90625e-4 V -5.0152344 h -0.785157 v 2.8476563 c 0,1.0195312 -0.539062,1.68749997 -1.371093,1.68749997 -0.632813,0 -1.03125,-0.375 -1.03125,-0.98437497 v -3.5507813 h -0.796875 v 3.8671875 c 0,0.83203127 0.621093,1.37109377 1.59375,1.37109377 0.738281,0 1.207031,-0.2578125 1.675781,-0.92578125 V 3.90625e-4 Z M 52.111531,-5.0152344 h -0.820312 v -1.3710937 h -0.796875 v 1.3710937 h -0.679688 v 0.65625 h 0.679688 v 3.78515627 c 0,0.515625 0.351562,0.796875 0.972656,0.796875 0.210938,0 0.375,-0.0234375 0.644531,-0.0703125 v -0.66796875 c -0.117187,0.0234375 -0.222656,0.0351563 -0.375,0.0351563 -0.351562,0 -0.445312,-0.09375 -0.445312,-0.4453125 V -4.3589844 h 0.820312 z m 5.141602,2.7773438 c 0,-0.7617188 -0.05859,-1.21875 -0.210938,-1.59375 -0.316406,-0.8203125 -1.089843,-1.3242188 -2.027343,-1.3242188 -1.394532,0 -2.285157,1.0664063 -2.285157,2.71875 0,1.65234377 0.855469,2.66015627 2.273438,2.66015627 1.148437,0 1.933594,-0.65625 2.144531,-1.74609377 H 56.33907 c -0.222656,0.66796877 -0.667968,1.00781252 -1.3125,1.00781252 -0.503906,0 -0.9375,-0.234375 -1.207031,-0.65625002 -0.1875,-0.28125 -0.257812,-0.5742187 -0.257812,-1.0664062 z m -3.679688,-0.6445313 c 0.07031,-0.9375 0.632813,-1.5351562 1.441407,-1.5351562 0.808593,0 1.371093,0.6328125 1.371093,1.5351562 z m 0,0"
       style="fill:#000000;fill-opacity:1;fill-rule:nonzero;stroke:none"
       aria-label="new−attribute"
       transform="matrix(1.3333333,0,0,1.3333333,620.37733,151.36667)" />
  </g>
</svg>
