<?xml version="1.0" encoding="UTF-8" standalone="no"?>
<!-- Created with Inkscape (http://www.inkscape.org/) -->

<svg
   version="1.1"
   id="svg1"
   width="711.23987"
   height="273.05746"
   viewBox="0 0 711.23987 273.05746"
   xmlns="http://www.w3.org/2000/svg"
   xmlns:svg="http://www.w3.org/2000/svg">
  <defs
     id="defs1" />
  <g
     id="g1"
     transform="translate(-34.721065,-58.957747)">
    <g
       id="g2">
      <path
         id="path2"
         d="M 37.0408,431.6631 H 425.0701"
         style="fill:none;stroke:#000000;stroke-width:1;stroke-linecap:butt;stroke-linejoin:miter;stroke-miterlimit:10;stroke-dasharray:2.8345, 2.8345, 2.8345, 2.8345;stroke-dashoffset:0;stroke-opacity:1"
         transform="matrix(1.3333333,0,0,-1.3333333,-14.666667,721.33333)" />
      <path
         id="path3"
         d="m 104.6946,459.9965 c 0,-9.4694 -7.6852,-17.1546 -17.1546,-17.1546 -9.4695,0 -17.1547,7.6852 -17.1547,17.1546 0,9.4695 7.6852,17.1547 17.1547,17.1547 9.4694,0 17.1546,-7.6852 17.1546,-17.1547 z"
         style="fill:none;stroke:#000000;stroke-width:1;stroke-linecap:butt;stroke-linejoin:miter;stroke-miterlimit:10;stroke-dasharray:2.8345, 2.8345, 2.8345, 2.8345;stroke-dashoffset:0;stroke-opacity:1"
         transform="matrix(1.3333333,0,0,-1.3333333,-14.666667,721.33333)" />
      <path
         id="path4"
         d="m 170.0274,442.8419 c -9.4693,0 -17.1546,7.6852 -17.1546,17.1546 0,9.4695 7.6853,17.1547 17.1546,17.1547 9.4695,0 17.1547,-7.6852 17.1547,-17.1547 0,-9.4694 -7.6852,-17.1546 -17.1547,-17.1546 z"
         style="fill:none;stroke:#000000;stroke-width:1;stroke-linecap:butt;stroke-linejoin:miter;stroke-miterlimit:10;stroke-dasharray:none;stroke-opacity:1"
         transform="matrix(1.3333333,0,0,-1.3333333,-14.666667,721.33333)" />
      <path
         id="path5"
         d="m 334.3554,440.5774 c -9.4693,0 -17.1545,7.6854 -17.1545,17.1547 0,9.4695 7.6852,17.1547 17.1545,17.1547 9.4696,0 17.1547,-7.6852 17.1547,-17.1547 0,-9.4693 -7.6851,-17.1547 -17.1547,-17.1547 z"
         style="fill:none;stroke:#000000;stroke-width:1;stroke-linecap:butt;stroke-linejoin:miter;stroke-miterlimit:10;stroke-dasharray:none;stroke-opacity:1"
         transform="matrix(1.3333333,0,0,-1.3333333,-14.666667,721.33333)" />
      <path
         id="path6"
         d="m 118.9986,399.2374 h 38.8177 v -38.8178 h -38.8177 z"
         style="fill:none;stroke:#000000;stroke-width:1;stroke-linecap:butt;stroke-linejoin:miter;stroke-miterlimit:10;stroke-dasharray:none;stroke-opacity:1"
         transform="matrix(1.3333333,0,0,-1.3333333,-14.666667,721.33333)" />
      <path
         id="path7"
         d="m 196.6341,399.2374 h 38.8176 v -38.8178 h -38.8176 z"
         style="fill:none;stroke:#000000;stroke-width:1;stroke-linecap:butt;stroke-linejoin:miter;stroke-miterlimit:10;stroke-dasharray:none;stroke-opacity:1"
         transform="matrix(1.3333333,0,0,-1.3333333,-14.666667,721.33333)" />
      <path
         id="path8"
         d="m 317.4198,397.0825 h 38.8176 v -38.8176 h -38.8176 z"
         style="fill:none;stroke:#000000;stroke-width:1;stroke-linecap:butt;stroke-linejoin:miter;stroke-miterlimit:10;stroke-dasharray:none;stroke-opacity:1"
         transform="matrix(1.3333333,0,0,-1.3333333,-14.666667,721.33333)" />
      <path
         id="path9"
         d="m 118.9986,399.2374 -6.5028,7.6871 5.9106,2.3649 z"
         style="fill:#000000;fill-opacity:1;fill-rule:nonzero;stroke:none"
         transform="matrix(1.3333333,0,0,-1.3333333,-14.666667,721.33333)" />
      <path
         id="path10"
         d="M 99.5897,447.7595 115.453,408.1051"
         style="fill:none;stroke:#000000;stroke-width:1;stroke-linecap:butt;stroke-linejoin:miter;stroke-miterlimit:10;stroke-dasharray:none;stroke-opacity:1"
         transform="matrix(1.3333333,0,0,-1.3333333,-14.666667,721.33333)" />
      <path
         id="path11"
         d="m 196.6341,399.2374 -6.5028,7.6871 5.9105,2.3649 z"
         style="fill:#000000;fill-opacity:1;fill-rule:nonzero;stroke:none"
         transform="matrix(1.3333333,0,0,-1.3333333,-14.666667,721.33333)" />
      <path
         id="path12"
         d="m 177.2251,447.7595 15.8633,-39.6544"
         style="fill:none;stroke:#000000;stroke-width:1;stroke-linecap:butt;stroke-linejoin:miter;stroke-miterlimit:10;stroke-dasharray:none;stroke-opacity:1"
         transform="matrix(1.3333333,0,0,-1.3333333,-14.666667,721.33333)" />
      <path
         id="path13"
         d="m 336.8286,445.6047 3.1827,-9.5517 h -6.3653 z"
         style="fill:#000000;fill-opacity:1;fill-rule:nonzero;stroke:none"
         transform="matrix(1.3333333,0,0,-1.3333333,-14.666667,721.33333)" />
      <path
         id="path14"
         d="M 336.8286,397.0825 V 436.053"
         style="fill:none;stroke:#000000;stroke-width:1;stroke-linecap:butt;stroke-linejoin:miter;stroke-miterlimit:10;stroke-dasharray:none;stroke-opacity:1"
         transform="matrix(1.3333333,0,0,-1.3333333,-14.666667,721.33333)" />
      <path
         id="path15"
         d="m 341.0007,357.2906 -7.6413,-6.5562 -2.4069,5.8951 z"
         style="fill:#000000;fill-opacity:1;fill-rule:nonzero;stroke:none"
         transform="matrix(1.3333333,0,0,-1.3333333,-14.666667,721.33333)" />
      <path
         id="path16"
         d="m 138.4075,357.2906 c 12.9863,-21.602 5.1922,-64.802 38.959,-64.802 31.975,0 101.2203,38.7414 154.7933,61.1914"
         style="fill:none;stroke:#000000;stroke-width:1;stroke-linecap:butt;stroke-linejoin:miter;stroke-miterlimit:10;stroke-dasharray:none;stroke-opacity:1"
         transform="matrix(1.3333333,0,0,-1.3333333,-14.666667,721.33333)" />
      <path
         id="path17"
         d="m 338.8459,359.4454 -7.9049,-6.2353 -2.1587,5.9908 z"
         style="fill:#000000;fill-opacity:1;fill-rule:nonzero;stroke:none"
         transform="matrix(1.3333333,0,0,-1.3333333,-14.666667,721.33333)" />
      <path
         id="path18"
         d="m 216.0429,359.4454 c 4.5465,-12.6159 -6.8237,-37.8434 13.6435,-37.8434 18.8357,0 64.6338,21.3649 100.1733,34.6035"
         style="fill:none;stroke:#000000;stroke-width:1;stroke-linecap:butt;stroke-linejoin:miter;stroke-miterlimit:10;stroke-dasharray:none;stroke-opacity:1"
         transform="matrix(1.3333333,0,0,-1.3333333,-14.666667,721.33333)" />
      <path
         id="path19"
         d="m 167.5207,476.8729 -9.693,2.7279 3.5763,5.2686 z"
         style="fill:#000000;fill-opacity:1;fill-rule:nonzero;stroke:none"
         transform="matrix(1.3333333,0,0,-1.3333333,-14.666667,721.33333)" />
      <path
         id="path20"
         d="m 89.8853,476.8729 c 14.3771,6.4682 30.1906,19.4088 43.1312,19.4088 9.9069,0 18.129,-7.5879 26.5993,-14.0448"
         style="fill:none;stroke:#000000;stroke-width:1;stroke-linecap:butt;stroke-linejoin:miter;stroke-miterlimit:10;stroke-dasharray:none;stroke-opacity:1"
         transform="matrix(1.3333333,0,0,-1.3333333,-14.666667,721.33333)" />
      <g
         id="g20">
        <g
           id="g21" />
        <path
           id="path21"
           d="M 17.121542,-0.45780937 C 16.031698,-0.53984062 15.797323,-0.77421562 14.941855,-2.5671844 L 8.9066984,-16.348434 H 8.4145109 L 3.3754484,-4.4421844 C 1.8168547,-0.90312187 1.5238859,-0.50468437 0.36372969,-0.45780937 V -7.78125e-4 H 5.1684172 V -0.45780937 c -1.1601563,0 -1.6523438,-0.29296875 -1.6523438,-0.99609373 0,-0.2929688 0.070312,-0.6328125 0.1992188,-0.9492188 l 1.1132812,-2.8359375 h 6.3515626 l 0.996094,2.3320313 c 0.292968,0.6445312 0.457031,1.2773437 0.457031,1.6171875 0,0.60937498 -0.410156,0.80859373 -1.6875,0.83203123 v 0.457031245 h 6.175781 z M 5.2387297,-6.2351531 8.0277922,-12.903122 10.840292,-6.2351531 Z m 0,0"
           style="fill:#000000;fill-opacity:1;fill-rule:nonzero;stroke:none"
           aria-label="A"
           transform="matrix(1.3333333,0,0,1.3333333,90.768933,118.4776)" />
        <g
           id="g22" />
      </g>
      <g
         id="g23">
        <g
           id="g24" />
        <path
           id="path24"
           d="M 17.122098,-0.45610156 C 16.032255,-0.53813281 15.79788,-0.77250781 14.942411,-2.5654766 L 8.9072547,-16.346727 H 8.4150672 L 3.3760047,-4.4404766 C 1.8174109,-0.90141406 1.5244422,-0.50297656 0.36428594,-0.45610156 V 9.296875e-4 H 5.1689734 V -0.45610156 c -1.1601562,0 -1.6523437,-0.29296875 -1.6523437,-0.99609374 0,-0.2929688 0.070312,-0.6328125 0.1992187,-0.9492188 l 1.1132813,-2.8359375 h 6.3515623 l 0.996094,2.3320313 c 0.292969,0.6445312 0.457031,1.2773437 0.457031,1.6171875 0,0.60937499 -0.410156,0.80859374 -1.6875,0.83203124 V 9.296875e-4 h 6.175781 z M 5.2392859,-6.2334453 8.0283484,-12.901414 10.840848,-6.2334453 Z m 0,0"
           style="fill:#000000;fill-opacity:1;fill-rule:nonzero;stroke:none"
           aria-label="A"
           transform="matrix(1.3333333,0,0,1.3333333,199.81507,118.75267)" />
        <g
           id="g25" />
      </g>
      <g
         id="g26">
        <g
           id="g27">
          <path
             id="path27"
             d="m 2.5650594,-10.49907 c 1.6289062,-0.808594 2.71875,-2.285157 2.71875,-3.738282 0,-1.21875 -0.84375,-2.15625 -1.9335938,-2.15625 -0.8554687,0 -1.4296875,0.550782 -1.4296875,1.382813 0,0.773437 0.5273438,1.230469 1.453125,1.230469 0.1640625,0 0.3164063,-0.02344 0.4570313,-0.04687 0.1171875,-0.04687 0.1171875,-0.04687 0.1757812,-0.04687 0.1875,0 0.3398438,0.140625 0.3398438,0.339843 0,0.796875 -0.6796875,1.675782 -1.9921875,2.566407 z m 0,0"
             style="fill:#000000;fill-opacity:1;fill-rule:nonzero;stroke:none"
             aria-label="’"
             transform="matrix(1.3333333,0,0,1.3333333,223.08773,118.75267)" />
        </g>
        <g
           id="g28" />
      </g>
      <g
         id="g29">
        <g
           id="g30" />
        <path
           id="path30"
           d="m 2.8607391,9e-4 h 6.703125 v -0.36328125 c -1.875,0 -2.2851563,-0.26953125 -2.3085938,-1.42968745 V -16.346756 l -0.1992187,-0.04687 -4.359375,2.203125 v 0.339844 c 0.9492187,-0.363282 1.5234375,-0.539063 1.7460937,-0.539063 0.5039063,0 0.7265625,0.375 0.7265625,1.148438 v 10.9804683 c -0.046875,1.5351562 -0.4570312,1.87499995 -2.3085937,1.89843745 z m 0,0"
           style="fill:#000000;fill-opacity:1;fill-rule:nonzero;stroke:none"
           aria-label="1"
           transform="matrix(1.3333333,0,0,1.3333333,165.3224,227.2488)" />
        <g
           id="g31" />
      </g>
      <g
         id="g32">
        <g
           id="g33" />
        <path
           id="path33"
           d="m 11.519137,-3.3294297 -0.316406,-0.1171875 c -0.890625,1.40625 -1.160156,1.5820313 -2.2968748,1.6054688 H 3.105075 L 7.1832,-6.1184922 c 2.15625,-2.25 3.105469,-4.0898438 3.105469,-5.9882808 0,-2.425782 -1.9687503,-4.289063 -4.4882815,-4.289063 -1.3359375,0 -2.6015625,0.527344 -3.4921875,1.5 -0.7851563,0.820313 -1.1484375,1.605469 -1.55859375,3.328125 l 0.51562495,0.117188 c 0.9609375,-2.378907 1.8164063,-3.152344 3.515625,-3.152344 2.0625,0 3.421875,1.382812 3.421875,3.421875 0,1.9101561 -1.125,4.1484373 -3.1523437,6.3046873 l -4.32421875,4.58203126 v 0.29296875 H 10.1832 Z m 0,0"
           style="fill:#000000;fill-opacity:1;fill-rule:nonzero;stroke:none"
           aria-label="2"
           transform="matrix(1.3333333,0,0,1.3333333,265.9224,228.68533)" />
        <g
           id="g34" />
      </g>
      <g
         id="g35">
        <g
           id="g36" />
        <path
           id="path36"
           d="m 3.7147328,-8.0052109 c 1.4296875,0 1.9804688,0.046875 2.5429688,0.2695312 1.5234375,0.5507813 2.4492187,1.9101563 2.4492187,3.5859375 0,2.0625 -1.359375,3.60937501 -3.1523437,3.60937501 -0.6796875,0 -1.1601563,-0.1640625 -2.0625,-0.75000001 -0.703125,-0.4335937 -1.1132813,-0.5976562 -1.5234375,-0.5976562 -0.5625,0 -0.9257813,0.3398437 -0.9257813,0.84375 0,0.84374996 1.0429688,1.38281246 2.7421875,1.38281246 1.8398438,0 3.7617188,-0.6328125 4.921875,-1.62890626 1.1367188,-0.9960937 1.7460937,-2.4023437 1.7460937,-4.0195312 0,-1.265625 -0.386719,-2.3789063 -1.0664062,-3.1289063 -0.5039062,-0.5390625 -0.9726562,-0.8320312 -2.015625,-1.2890625 1.6523438,-1.1367188 2.2617188,-2.0390628 2.2617188,-3.3515628 0,-1.980468 -1.5351563,-3.316406 -3.7851563,-3.316406 -1.21875,0 -2.2851562,0.410156 -3.1523437,1.183594 -0.7265625,0.679687 -1.0898438,1.289062 -1.6054688,2.742187 l 0.3632813,0.09375 c 0.9726562,-1.792968 2.0625,-2.566406 3.5976562,-2.566406 1.59375,0 2.6601563,1.042969 2.6601563,2.589844 0,0.878906 -0.3632813,1.722656 -0.9726563,2.3554686 -0.7265625,0.7265625 -1.40625,1.0898437 -3.046875,1.6757812 z m 0,0"
           style="fill:#000000;fill-opacity:1;fill-rule:nonzero;stroke:none"
           aria-label="3"
           transform="matrix(1.3333333,0,0,1.3333333,429.76187,228.68533)" />
        <g
           id="g37" />
      </g>
      <g
         id="g38">
        <g
           id="g39" />
        <path
           id="path39"
           d="m 3.7149016,-8.0025594 c 1.4296875,0 1.9804687,0.046875 2.5429687,0.2695313 1.5234375,0.5507812 2.4492188,1.9101562 2.4492188,3.5859375 0,2.0625 -1.359375,3.60937498 -3.1523438,3.60937498 -0.6796875,0 -1.1601562,-0.1640625 -2.0625,-0.74999998 -0.703125,-0.4335938 -1.1132812,-0.5976563 -1.5234375,-0.5976563 -0.5625,0 -0.9257812,0.3398438 -0.9257812,0.84375 0,0.84375003 1.0429687,1.38281253 2.7421875,1.38281253 1.8398437,0 3.7617187,-0.6328125 4.921875,-1.62890623 1.1367187,-0.9960938 1.7460939,-2.4023438 1.7460939,-4.0195313 0,-1.265625 -0.386719,-2.3789062 -1.0664064,-3.1289062 -0.5039063,-0.5390625 -0.9726563,-0.8320313 -2.015625,-1.2890625 1.6523437,-1.1367184 2.2617187,-2.0390624 2.2617187,-3.3515624 0,-1.980469 -1.5351562,-3.316406 -3.7851562,-3.316406 -1.21875,0 -2.2851563,0.410156 -3.1523438,1.183593 -0.7265625,0.679688 -1.0898437,1.289063 -1.6054687,2.742188 l 0.3632812,0.09375 c 0.9726563,-1.792969 2.0625,-2.566406 3.5976563,-2.566406 1.59375,0 2.6601562,1.042968 2.6601562,2.589843 0,0.878907 -0.3632812,1.722657 -0.9726562,2.3554691 -0.7265625,0.7265625 -1.40625,1.0898438 -3.046875,1.6757813 z m 0,0"
           style="fill:#000000;fill-opacity:1;fill-rule:nonzero;stroke:none"
           aria-label="3"
           transform="matrix(1.3333333,0,0,1.3333333,424.65227,124.41227)" />
        <g
           id="g40" />
      </g>
      <path
         id="path40"
         d="m 132.8374,333.5157 c 0,-9.4694 -7.6852,-17.1548 -17.1547,-17.1548 -9.4693,0 -17.1546,7.6854 -17.1546,17.1548 0,9.4694 7.6853,17.1546 17.1546,17.1546 9.4695,0 17.1547,-7.6852 17.1547,-17.1546 z"
         style="fill:none;stroke:#000000;stroke-width:1;stroke-linecap:butt;stroke-linejoin:miter;stroke-miterlimit:10;stroke-dasharray:2.8345, 2.8345, 2.8345, 2.8345;stroke-dashoffset:0;stroke-opacity:1"
         transform="matrix(1.3333333,0,0,-1.3333333,-14.666667,721.33333)" />
      <g
         id="g41">
        <g
           id="g42" />
        <path
           id="path42"
           d="M 17.121317,-0.45635313 C 16.031473,-0.53838438 15.797098,-0.77275938 14.94163,-2.5657281 L 8.9064734,-16.346978 H 8.4142859 L 3.3752234,-4.4407281 C 1.8166297,-0.90166563 1.5236609,-0.50322813 0.36350469,-0.45635313 V 6.78125e-4 H 5.1681922 V -0.45635313 c -1.1601563,0 -1.6523438,-0.29296875 -1.6523438,-0.99609377 0,-0.2929687 0.070312,-0.6328125 0.1992188,-0.9492187 l 1.1132812,-2.8359375 h 6.3515626 l 0.996094,2.3320312 c 0.292968,0.6445313 0.457031,1.2773438 0.457031,1.6171875 0,0.60937502 -0.410156,0.80859377 -1.6875,0.83203127 V 6.78125e-4 h 6.175781 z M 5.2385047,-6.2336969 8.0275672,-12.901666 10.840067,-6.2336969 Z m 0,0"
           style="fill:#000000;fill-opacity:1;fill-rule:nonzero;stroke:none"
           aria-label="A"
           transform="matrix(1.3333333,0,0,1.3333333,125.58173,284.02253)" />
        <g
           id="g43" />
      </g>
      <g
         id="g44">
        <g
           id="g45" />
        <path
           id="path45"
           d="M 4.2429891,-4.2297906 4.1961141,-6.0813531 H 4.0437703 c -0.070313,0.1171875 -0.140625,0.1523437 -0.2109375,0.1523437 -0.082031,0 -0.2226562,-0.023437 -0.3632812,-0.09375 -0.3164063,-0.1054687 -0.6210938,-0.1757812 -0.9492188,-0.1757812 -1.0664062,0 -1.82812499,0.703125 -1.82812499,1.6757812 0,0.75 0.42187499,1.2890625 1.57031249,1.9335938 l 0.7851563,0.4453125 c 0.46875,0.2695312 0.703125,0.5976562 0.703125,1.0078125 0,0.59765622 -0.4335938,0.97265622 -1.125,0.97265622 -0.9257813,0 -1.3945313,-0.50390625 -1.71093754,-1.88671872 h -0.2109375 v 2.10937497 h 0.17578125 c 0.09375,-0.140625 0.14062499,-0.1640625 0.30468749,-0.1640625 0.1523438,0 0.3164063,0.0234375 0.6210938,0.105468755 0.3632812,0.082031245 0.7148437,0.128906245 0.984375,0.128906245 1.0546875,0 1.8984375,-0.7734375 1.8984375,-1.72265627 0,-0.6679687 -0.3164063,-1.1132812 -1.125,-1.6054687 L 2.0984578,-4.0540094 c -0.375,-0.234375 -0.5742187,-0.5507812 -0.5742187,-0.9140625 0,-0.5507812 0.421875,-0.9257812 1.03125,-0.9257812 0.7734375,0 1.1835937,0.4453125 1.4882812,1.6640625 z m 0,0"
           style="fill:#000000;fill-opacity:1;fill-rule:nonzero;stroke:none"
           aria-label="s"
           transform="matrix(1.3333333,0,0,1.3333333,148.8544,284.02253)" />
        <g
           id="g46" />
      </g>
      <path
         id="path46"
         d="m 206.9144,332.5452 c 0,-9.4694 -7.6852,-17.1546 -17.1547,-17.1546 -9.4693,0 -17.1546,7.6852 -17.1546,17.1546 0,9.4695 7.6853,17.1547 17.1546,17.1547 9.4695,0 17.1547,-7.6852 17.1547,-17.1547 z"
         style="fill:none;stroke:#000000;stroke-width:1;stroke-linecap:butt;stroke-linejoin:miter;stroke-miterlimit:10;stroke-dasharray:none;stroke-opacity:1"
         transform="matrix(1.3333333,0,0,-1.3333333,-14.666667,721.33333)" />
      <g
         id="g47">
        <g
           id="g48" />
        <path
           id="path48"
           d="M 17.119692,-0.45675 C 16.029848,-0.5387813 15.795473,-0.77315625 14.940005,-2.566125 L 8.9048484,-16.347375 H 8.4126609 l -5.0390625,11.90625 c -1.5585937,3.5390625 -1.8515625,3.9375 -3.01171871,3.984375 V 2.8125e-4 H 5.1665672 V -0.45675 c -1.1601563,0 -1.6523438,-0.29296875 -1.6523438,-0.9960937 0,-0.2929688 0.070312,-0.6328125 0.1992188,-0.9492188 L 4.8267234,-5.238 h 6.3515626 l 0.996094,2.3320313 c 0.292968,0.6445312 0.457031,1.2773437 0.457031,1.6171875 0,0.60937495 -0.410156,0.8085937 -1.6875,0.8320312 V 2.8125e-4 h 6.175781 z M 5.2368797,-6.2340937 8.0259422,-12.902062 10.838442,-6.2340937 Z m 0,0"
           style="fill:#000000;fill-opacity:1;fill-rule:nonzero;stroke:none"
           aria-label="A"
           transform="matrix(1.3333333,0,0,1.3333333,221.8964,285.734)" />
        <g
           id="g49" />
      </g>
      <g
         id="g50">
        <g
           id="g51">
          <path
             id="path51"
             d="m 2.5655828,-10.499719 c 1.6289063,-0.808593 2.71875,-2.285156 2.71875,-3.738281 0,-1.21875 -0.84375,-2.15625 -1.9335937,-2.15625 -0.8554688,0 -1.4296875,0.550781 -1.4296875,1.382813 0,0.773437 0.5273437,1.230468 1.453125,1.230468 0.1640625,0 0.3164062,-0.02344 0.4570312,-0.04687 0.1171875,-0.04687 0.1171875,-0.04687 0.1757813,-0.04687 0.1875,0 0.3398437,0.140625 0.3398437,0.339844 0,0.796875 -0.6796875,1.675781 -1.9921875,2.566406 z m 0,0"
             style="fill:#000000;fill-opacity:1;fill-rule:nonzero;stroke:none"
             aria-label="’"
             transform="matrix(1.3333333,0,0,1.3333333,245.16907,285.734)" />
        </g>
        <g
           id="g52" />
      </g>
      <path
         id="path52"
         d="m 113.5694,350.8222 -4.8407,8.8296 6.2659,1.1384 z"
         style="fill:#000000;fill-opacity:1;fill-rule:nonzero;stroke:none"
         transform="matrix(1.3333333,0,0,-1.3333333,-14.666667,721.33333)" />
      <path
         id="path53"
         d="m 96.3231,445.6772 15.5385,-85.4563"
         style="fill:none;stroke:#000000;stroke-width:1;stroke-linecap:butt;stroke-linejoin:miter;stroke-miterlimit:10;stroke-dasharray:none;stroke-opacity:1"
         transform="matrix(1.3333333,0,0,-1.3333333,-14.666667,721.33333)" />
      <path
         id="path54"
         d="m 190.0969,349.7448 -4.5581,8.9746 6.2964,0.9437 z"
         style="fill:#000000;fill-opacity:1;fill-rule:nonzero;stroke:none"
         transform="matrix(1.3333333,0,0,-1.3333333,-14.666667,721.33333)" />
      <path
         id="path55"
         d="m 176.0866,443.5185 12.6005,-84.3253"
         style="fill:none;stroke:#000000;stroke-width:1;stroke-linecap:butt;stroke-linejoin:miter;stroke-miterlimit:10;stroke-dasharray:none;stroke-opacity:1"
         transform="matrix(1.3333333,0,0,-1.3333333,-14.666667,721.33333)" />
      <path
         id="path56"
         d="m 385.1865,391.7871 h 20.4748 v -20.4863 h -20.4748 z"
         style="fill:none;stroke:#000000;stroke-width:1;stroke-linecap:butt;stroke-linejoin:miter;stroke-miterlimit:10;stroke-dasharray:none;stroke-opacity:1"
         transform="matrix(1.3333333,0,0,-1.3333333,-14.666667,721.33333)" />
      <path
         id="path57"
         d="m 404.5011,411.1509 c 0,-5.3293 -4.3253,-9.6547 -9.6548,-9.6547 -5.3293,0 -9.6547,4.3254 -9.6547,9.6547 0,5.3295 4.3254,9.6549 9.6547,9.6549 5.3295,0 9.6548,-4.3254 9.6548,-9.6549 z"
         style="fill:none;stroke:#000000;stroke-width:1;stroke-linecap:butt;stroke-linejoin:miter;stroke-miterlimit:10;stroke-dasharray:none;stroke-opacity:1"
         transform="matrix(1.3333333,0,0,-1.3333333,-14.666667,721.33333)" />
      <g
         id="g57">
        <g
           id="g58" />
        <path
           id="path58"
           d="M 0.34069531,1.28125e-4 H 5.9422578 V -0.36315312 C 4.3953828,-0.39830937 4.1375703,-0.65612187 4.0906953,-2.0506531 v -8.3789059 c 0.046875,-1.417969 0.2929688,-1.640625 1.8515625,-1.699219 v -0.363281 H 0.34069531 v 0.363281 c 1.60546879,0.09375 1.81640629,0.28125 1.82812499,1.699219 v 8.3789059 c -0.011719,1.42968748 -0.2460937,1.64062498 -1.82812499,1.68749998 z M 7.0233125,-4.8514344 v 1.1953125 H 11.663937 V -4.8514344 Z M 21.003781,-12.749872 h -0.398437 c -0.08203,0.410156 -0.28125,0.632813 -0.609375,0.632813 -0.1875,0 -0.503907,-0.07031 -0.820313,-0.222657 -0.703125,-0.257812 -1.40625,-0.410156 -2.027344,-0.410156 -0.785156,0 -1.617187,0.316406 -2.238281,0.867188 -0.667969,0.585937 -1.007812,1.371093 -1.007812,2.3554684 0,1.5117187 0.832031,2.5664062 2.941406,3.6796875 1.359375,0.7382812 2.34375,1.4882812 2.8125,2.203125 0.175781,0.2460937 0.269531,0.6445312 0.269531,1.1132812 0,1.2539063 -0.949219,2.12109378 -2.320312,2.12109378 -1.699219,0 -2.871094,-1.04296878 -3.808594,-3.33984378 h -0.433594 l 0.5625,3.99609378 h 0.410156 c 0.02344,-0.36328125 0.246094,-0.62109375 0.527344,-0.62109375 0.210938,0 0.539063,0.0703125 0.890625,0.2109375 0.714844,0.28125 1.488281,0.43359375 2.226563,0.43359375 2.191406,0 3.855468,-1.49999998 3.855468,-3.45703128 0,-1.546875 -1.042968,-2.7539062 -3.539062,-4.1132812 -1.980469,-1.078125 -2.765625,-1.9101563 -2.765625,-2.9414059 0,-1.042969 0.785156,-1.734375 1.957031,-1.734375 0.855469,0 1.640625,0.351562 2.308594,1.03125 0.585937,0.609375 0.84375,1.1015621 1.148437,2.2148434 h 0.46875 z m 11.088867,11.80078138 h -0.09375 C 31.073117,-0.98424687 30.944211,-1.1365906 30.920773,-2.0154969 v -6.4804687 h -2.976562 v 0.328125 c 1.171875,0.058594 1.394531,0.2460937 1.394531,1.1835937 v 4.4414063 c 0,0.5273437 -0.09375,0.7851562 -0.351562,0.9960937 -0.515625,0.4101563 -1.101563,0.64453128 -1.664063,0.64453128 -0.738281,0 -1.335937,-0.64453128 -1.335937,-1.44140628 v -6.1523437 h -2.765625 v 0.2695312 c 0.890625,0.035156 1.160156,0.3046875 1.171875,1.2070313 v 4.7578125 c 0,1.48828123 0.914062,2.44921873 2.285156,2.44921873 0.703125,0 1.429687,-0.3046875 1.945312,-0.80859375 l 0.808594,-0.80859378 v 1.55859378 l 0.08203,0.0351563 c 0.9375,-0.375 1.617188,-0.57421875 2.578125,-0.84375 z m 0.495118,5.03906252 h 4.570312 V 3.7501281 c -1.417969,-0.011719 -1.640625,-0.1992187 -1.664062,-1.40625 v -2.96484372 c 0.679687,0.621093745 1.113281,0.80859375 1.910156,0.80859375 2.238281,0 3.960937,-2.10937503 3.960937,-4.85156253 0,-2.3320312 -1.324218,-4.0195312 -3.152343,-4.0195312 -1.054688,0 -1.886719,0.4570312 -2.71875,1.5 v -1.453125 l -0.117188,-0.046875 c -1.019531,0.3984375 -1.675781,0.6445312 -2.71875,0.9726562 v 0.2929688 c 0.175781,-0.011719 0.292969,-0.011719 0.480469,-0.011719 0.632812,0 0.773437,0.1875 0.773437,1.0664063 v 8.8359375 c 0,0.9960937 -0.210937,1.1835937 -1.324218,1.3007812 z m 2.90625,-10.3945313 c 0,-0.5625 1.054687,-1.2421875 1.921875,-1.2421875 1.394531,0 2.320312,1.4296875 2.320312,3.6445313 0,2.0742187 -0.925781,3.49218748 -2.285156,3.49218748 -0.878906,0 -1.957031,-0.67968748 -1.957031,-1.25390628 z m 6.527343,10.3945313 h 4.570313 V 3.7501281 c -1.417969,-0.011719 -1.640625,-0.1992187 -1.664063,-1.40625 v -2.96484372 c 0.679688,0.621093745 1.113282,0.80859375 1.910157,0.80859375 2.238281,0 3.960937,-2.10937503 3.960937,-4.85156253 0,-2.3320312 -1.324219,-4.0195312 -3.152344,-4.0195312 -1.054687,0 -1.886718,0.4570312 -2.71875,1.5 v -1.453125 l -0.117187,-0.046875 c -1.019531,0.3984375 -1.675781,0.6445312 -2.71875,0.9726562 v 0.2929688 c 0.175781,-0.011719 0.292969,-0.011719 0.480469,-0.011719 0.632812,0 0.773437,0.1875 0.773437,1.0664063 v 8.8359375 c 0,0.9960937 -0.210937,1.1835937 -1.324219,1.3007812 z m 2.90625,-10.3945313 c 0,-0.5625 1.054688,-1.2421875 1.921875,-1.2421875 1.394532,0 2.320313,1.4296875 2.320313,3.6445313 0,2.0742187 -0.925781,3.49218748 -2.285156,3.49218748 -0.878907,0 -1.957032,-0.67968748 -1.957032,-1.25390628 z m 11.15918,-2.3789062 c -2.472656,0 -4.171875,1.8164062 -4.171875,4.4179687 0,2.5664063 1.746094,4.45312503 4.125,4.45312503 2.378906,0 4.195313,-1.98046873 4.195313,-4.60546873 0,-2.484375 -1.734375,-4.265625 -4.148438,-4.265625 z m -0.246094,0.5273437 c 1.582032,0 2.695313,1.8164063 2.695313,4.40625 0,2.1445313 -0.855469,3.41015628 -2.261719,3.41015628 -0.738281,0 -1.441406,-0.45703125 -1.839844,-1.20703128 -0.527343,-0.984375 -0.820312,-2.296875 -0.820312,-3.6445312 0,-1.7929688 0.867187,-2.9648438 2.226562,-2.9648438 z m 5.050782,8.156250025 h 4.523437 V -0.28112187 c -1.253906,-0.0351563 -1.558594,-0.3046875 -1.59375,-1.41796873 v -4.2421875 c 0,-0.609375 0.785156,-1.546875 1.3125,-1.546875 0.117188,0 0.28125,0.09375 0.492188,0.28125 0.28125,0.28125 0.515625,0.375 0.761718,0.375 0.445313,0 0.726563,-0.3164063 0.726563,-0.84375 0,-0.6210938 -0.386719,-1.0078125 -1.03125,-1.0078125 -0.796875,0 -1.324219,0.421875 -2.261719,1.78125 v -1.734375 l -0.09375,-0.046875 c -1.066406,0.421875 -1.746094,0.6796875 -2.800781,1.0195312 v 0.3046875 c 0.269531,-0.058594 0.433594,-0.070312 0.667969,-0.070312 0.46875,0 0.632812,0.2929688 0.632812,1.125 v 4.7226563 c -0.03516,0.97265623 -0.152344,1.08984373 -1.335937,1.30078123 z M 71.898312,-8.4959656 h -1.910156 v -2.1796874 c 0,-0.1875 -0.03516,-0.246094 -0.128906,-0.246094 -1.101563,1.5820314 -1.664063,2.2265626 -2.214844,2.5429689 -0.199219,0.1289062 -0.316406,0.2460937 -0.316406,0.3632812 0,0.058594 0.02344,0.09375 0.07031,0.1289063 h 1.007813 v 5.6835937 c 0,1.58203128 0.5625,2.39062503 1.675781,2.39062503 0.925781,0 1.640625,-0.45703125 2.261719,-1.42968753 l -0.246094,-0.2109375 c -0.410156,0.49218753 -0.714844,0.65625003 -1.125,0.65625003 -0.703125,0 -0.984375,-0.50390623 -0.984375,-1.69921873 v -5.390625 h 1.910156 z m 8.129883,5.4023437 c -0.902343,1.4296875 -1.722656,1.9804688 -2.929687,1.9804688 -1.066406,0 -1.886719,-0.5507813 -2.425781,-1.6171875 -0.339844,-0.7265625 -0.480469,-1.3242188 -0.515625,-2.4960938 h 5.8125 c -0.152344,-1.2304687 -0.339844,-1.7695312 -0.808594,-2.3789062 -0.5625,-0.6796875 -1.441406,-1.078125 -2.414063,-1.078125 -0.949218,0 -1.828125,0.3398437 -2.554687,0.984375 -0.878906,0.7734375 -1.394531,2.109375 -1.394531,3.65625 0,2.6132812 1.359375,4.23046873 3.527343,4.23046873 1.792969,0 3.210938,-1.11328125 4.007813,-3.15234373 z m -5.835937,-2.7304687 c 0.210937,-1.4765625 0.855469,-2.1796875 2.003906,-2.1796875 1.148438,0 1.605469,0.5273437 1.851563,2.1796875 z m 15.782226,4.734375 c -0.246093,0.011719 -0.363281,0.011719 -0.445312,0.011719 -0.65625,0 -0.820313,-0.1992187 -0.820313,-1.078125 V -12.843622 l -0.09375,-0.04687 c -0.890625,0.304688 -1.535156,0.515625 -2.777343,0.832031 v 0.304688 c 0.152343,-0.02344 0.246093,-0.02344 0.410156,-0.02344 0.703125,0 0.867187,0.1875 0.867187,0.960938 v 2.9531249 c -0.714843,-0.609375 -1.21875,-0.8203125 -1.980468,-0.8203125 -2.167969,0 -3.925782,2.1328125 -3.925782,4.8164062 0,2.4140625 1.40625,4.05468753 3.492188,4.05468753 1.054687,0 1.78125,-0.375 2.414062,-1.26562503 v 1.20703128 l 0.08203,0.0585938 2.777343,-0.984375 z m -2.859375,-0.8320313 c 0,0.1289063 -0.128906,0.3515625 -0.316406,0.5625 -0.316406,0.37500003 -0.808594,0.56250003 -1.359375,0.56250003 -1.582031,0 -2.601562,-1.50000003 -2.601562,-3.84375003 0,-2.109375 0.925781,-3.515625 2.355468,-3.515625 1.019532,0 1.921875,0.890625 1.921875,1.8867188 z m 16.778321,-2.4375 v -4.3710937 h -0.43359 c -0.21094,1.4882812 -0.52735,1.7460937 -2.07422,1.7929687 h -2.730472 v -4.1953121 c 0.01172,-0.5625 0.07031,-0.621094 0.597657,-0.644532 h 2.566405 c 2.19141,0.04687 2.56641,0.304688 2.87109,1.9804691 h 0.46875 l -0.0586,-2.6953121 H 95.08093 v 0.363281 c 1.382812,0.09375 1.605468,0.339844 1.640625,1.699219 v 8.1679684 c -0.01172,1.60546873 -0.199219,1.80468748 -1.640625,1.89843748 V 1.28125e-4 h 5.28516 V -0.36315312 c -1.429692,-0.046875 -1.699223,-0.31640625 -1.710942,-1.68749998 v -4.1132813 h 2.730472 c 1.54687,0.011719 1.85156,0.28125 2.07422,1.8046875 z m 9.15527,1.265625 c -0.90234,1.4296875 -1.72265,1.9804688 -2.92968,1.9804688 -1.06641,0 -1.88672,-0.5507813 -2.42579,-1.6171875 -0.33984,-0.7265625 -0.48046,-1.3242188 -0.51562,-2.4960938 h 5.8125 c -0.15234,-1.2304687 -0.33984,-1.7695312 -0.80859,-2.3789062 -0.5625,-0.6796875 -1.44141,-1.078125 -2.41407,-1.078125 -0.94922,0 -1.82812,0.3398437 -2.55468,0.984375 -0.87891,0.7734375 -1.39454,2.109375 -1.39454,3.65625 0,2.6132812 1.35938,4.23046873 3.52735,4.23046873 1.79297,0 3.21094,-1.11328125 4.00781,-3.15234373 z m -5.83593,-2.7304687 c 0.21093,-1.4765625 0.85546,-2.1796875 2.0039,-2.1796875 1.14844,0 1.60547,0.5273437 1.85156,2.1796875 z m 14.85937,4.5820312 c -0.32812,0.25781253 -0.55078,0.35156253 -0.83203,0.35156253 -0.43359,0 -0.57422,-0.25781253 -0.57422,-1.08984373 v -3.6796875 c 0,-0.984375 -0.0937,-1.5234375 -0.375,-1.9804688 -0.41016,-0.6796875 -1.21875,-1.0429687 -2.33203,-1.0429687 -1.78125,0 -3.17578,0.9257812 -3.17578,2.1210937 0,0.4335938 0.36328,0.8085938 0.80859,0.8085938 0.45703,0 0.85547,-0.375 0.85547,-0.796875 0,-0.070312 -0.0234,-0.1640625 -0.0352,-0.2929688 -0.0469,-0.1757812 -0.0586,-0.328125 -0.0586,-0.4570312 0,-0.515625 0.59766,-0.9257813 1.35938,-0.9257813 0.92578,0 1.42968,0.5507813 1.42968,1.5703125 v 1.1484375 c -2.88281,1.1484375 -3.22265,1.3242188 -4.03125,2.0390625 -0.42187,0.375 -0.67968,1.0195313 -0.67968,1.640625 0,1.18359378 0.82031,2.01562503 1.98046,2.01562503 0.82032,0 1.59375,-0.3984375 2.75391,-1.37109373 0.0937,0.99609373 0.43359,1.37109373 1.20703,1.37109373 0.63281,0 1.03125,-0.22265625 1.69922,-0.9375 z m -2.92969,-1.078125 c 0,0.5625 -0.0937,0.7734375 -0.49218,0.9960938 -0.46875,0.2695312 -0.98438,0.42187498 -1.3711,0.42187498 -0.66797,0 -1.19531,-0.64453128 -1.19531,-1.45312498 v -0.082031 c 0.0234,-1.125 0.85547,-1.8398437 3.05859,-2.6132812 z m 7.77832,-6.1757812 h -1.91015 v -2.1796874 c 0,-0.1875 -0.0352,-0.246094 -0.12891,-0.246094 -1.10156,1.5820314 -1.66406,2.2265626 -2.21484,2.5429689 -0.19922,0.1289062 -0.31641,0.2460937 -0.31641,0.3632812 0,0.058594 0.0234,0.09375 0.0703,0.1289063 h 1.00782 v 5.6835937 c 0,1.58203128 0.5625,2.39062503 1.67578,2.39062503 0.92578,0 1.64062,-0.45703125 2.26172,-1.42968753 l -0.2461,-0.2109375 c -0.41015,0.49218753 -0.71484,0.65625003 -1.125,0.65625003 -0.70312,0 -0.98437,-0.50390623 -0.98437,-1.69921873 v -5.390625 h 1.91015 z m 9.46582,7.54687498 h -0.0937 c -0.92578,-0.0351563 -1.05468,-0.18749998 -1.07812,-1.06640628 v -6.4804687 h -2.97656 v 0.328125 c 1.17187,0.058594 1.39453,0.2460937 1.39453,1.1835937 v 4.4414063 c 0,0.5273437 -0.0937,0.7851562 -0.35157,0.9960937 -0.51562,0.4101563 -1.10156,0.64453128 -1.66406,0.64453128 -0.73828,0 -1.33594,-0.64453128 -1.33594,-1.44140628 v -6.1523437 h -2.76562 v 0.2695312 c 0.89062,0.035156 1.16016,0.3046875 1.17187,1.2070313 v 4.7578125 c 0,1.48828123 0.91407,2.44921873 2.28516,2.44921873 0.70313,0 1.42969,-0.3046875 1.94531,-0.80859375 l 0.8086,-0.80859378 v 1.55859378 l 0.082,0.0351563 c 0.9375,-0.375 1.61719,-0.57421875 2.57812,-0.84375 z m 0.49219,0.949218745 h 4.52344 V -0.28112187 c -1.25391,-0.0351563 -1.5586,-0.3046875 -1.59375,-1.41796873 v -4.2421875 c 0,-0.609375 0.78515,-1.546875 1.3125,-1.546875 0.11719,0 0.28125,0.09375 0.49219,0.28125 0.28125,0.28125 0.51562,0.375 0.76171,0.375 0.44532,0 0.72657,-0.3164063 0.72657,-0.84375 0,-0.6210938 -0.38672,-1.0078125 -1.03125,-1.0078125 -0.79688,0 -1.32422,0.421875 -2.26172,1.78125 v -1.734375 l -0.0937,-0.046875 c -1.06641,0.421875 -1.7461,0.6796875 -2.80078,1.0195312 v 0.3046875 c 0.26953,-0.058594 0.43359,-0.070312 0.66797,-0.070312 0.46875,0 0.63281,0.2929688 0.63281,1.125 v 4.7226563 c -0.0352,0.97265623 -0.15235,1.08984373 -1.33594,1.30078123 z M 150.76843,-3.0936219 c -0.90234,1.4296875 -1.72266,1.9804688 -2.92969,1.9804688 -1.0664,0 -1.88672,-0.5507813 -2.42578,-1.6171875 -0.33984,-0.7265625 -0.48047,-1.3242188 -0.51562,-2.4960938 h 5.8125 c -0.15235,-1.2304687 -0.33985,-1.7695312 -0.8086,-2.3789062 -0.5625,-0.6796875 -1.4414,-1.078125 -2.41406,-1.078125 -0.94922,0 -1.82813,0.3398437 -2.55469,0.984375 -0.8789,0.7734375 -1.39453,2.109375 -1.39453,3.65625 0,2.6132812 1.35938,4.23046873 3.52734,4.23046873 1.79297,0 3.21094,-1.11328125 4.00782,-3.15234373 z m -5.83594,-2.7304687 c 0.21094,-1.4765625 0.85547,-2.1796875 2.00391,-2.1796875 1.14844,0 1.60547,0.5273437 1.85156,2.1796875 z m 0,0"
           style="fill:#000000;fill-opacity:1;fill-rule:nonzero;stroke:none"
           aria-label="I-Supported Feature"
           transform="matrix(1.3333333,0,0,1.3333333,543.47933,183.14827)" />
        <g
           id="g59" />
      </g>
      <g
         id="g60">
        <g
           id="g61" />
        <path
           id="path61"
           d="m 6.8075234,-12.751141 c -3.5976562,0 -6.16406246,2.695313 -6.16406246,6.5039066 0,1.7695313 0.59765626,3.515625 1.61718746,4.5820313 1.1015625,1.19531248 2.7773438,1.93359373 4.4414063,1.93359373 3.7148433,0 6.2812503,-2.62500003 6.2812503,-6.43359373 0,-1.875 -0.550782,-3.4921875 -1.59375,-4.6054689 -1.183594,-1.300781 -2.7656253,-1.980469 -4.5820316,-1.980469 z m 0,0.679688 c 0.8671875,0 1.734375,0.339844 2.4140625,0.9375 1.0195311,0.925781 1.6054691,2.6953124 1.6054691,4.9453124 0,1.1132812 -0.222657,2.4140625 -0.621094,3.3984375 -0.164063,0.46875 -0.4921876,0.9375 -0.9257813,1.3710937 -0.65625,0.66796878 -1.5117188,1.00781253 -2.5078125,1.00781253 -0.8671875,0 -1.7226563,-0.33984375 -2.390625,-0.92578123 -0.9726563,-0.8671875 -1.59375,-2.7773438 -1.59375,-4.875 0,-1.921875 0.5273437,-3.75 1.3242187,-4.6406249 0.7382813,-0.808594 1.6640625,-1.21875 2.6953125,-1.21875 z m 7.2128906,7.2187499 v 1.1953125 h 4.640625 v -1.1953125 z m 13.828125,-7.8984379 h -0.398437 c -0.08203,0.410157 -0.28125,0.632813 -0.609375,0.632813 -0.1875,0 -0.503907,-0.07031 -0.820313,-0.222656 -0.703125,-0.257813 -1.40625,-0.410157 -2.027344,-0.410157 -0.785156,0 -1.617187,0.316407 -2.238281,0.867188 -0.667969,0.585937 -1.007812,1.371094 -1.007812,2.3554686 0,1.5117188 0.832031,2.5664063 2.941406,3.6796875 1.359375,0.7382813 2.34375,1.4882813 2.8125,2.203125 0.175781,0.2460938 0.269531,0.6445313 0.269531,1.1132813 0,1.2539062 -0.949219,2.12109373 -2.320312,2.12109373 -1.699219,0 -2.871094,-1.04296873 -3.808594,-3.33984373 h -0.433594 l 0.5625,3.99609373 h 0.410156 c 0.02344,-0.36328125 0.246094,-0.62109375 0.527344,-0.62109375 0.210938,0 0.539063,0.0703125 0.890625,0.2109375 0.714844,0.28125 1.488281,0.43359375 2.226563,0.43359375 2.191406,0 3.855468,-1.50000003 3.855468,-3.45703123 0,-1.546875 -1.042968,-2.7539063 -3.539062,-4.1132813 -1.980469,-1.078125 -2.765625,-1.9101562 -2.765625,-2.9414061 0,-1.042969 0.785156,-1.734375 1.957031,-1.734375 0.855469,0 1.640625,0.351562 2.308594,1.03125 0.585937,0.609375 0.84375,1.1015624 1.148437,2.2148436 h 0.46875 z m 10.825195,11.80078163 h -0.09375 C 37.654203,-0.98551562 37.525297,-1.1378594 37.501859,-2.0167656 v -6.4804688 h -2.976562 v 0.328125 c 1.171875,0.058594 1.394531,0.2460938 1.394531,1.1835938 v 4.4414062 c 0,0.5273438 -0.09375,0.7851563 -0.351562,0.9960938 -0.515625,0.4101562 -1.101563,0.64453123 -1.664063,0.64453123 -0.738281,0 -1.335937,-0.64453123 -1.335937,-1.44140623 v -6.1523438 h -2.765625 v 0.2695313 c 0.890625,0.035156 1.160156,0.3046875 1.171875,1.2070312 v 4.7578125 c 0,1.48828128 0.914062,2.44921878 2.285156,2.44921878 0.703125,0 1.429687,-0.3046875 1.945312,-0.80859375 l 0.808594,-0.80859373 v 1.55859373 l 0.08203,0.0351563 c 0.9375,-0.375 1.617188,-0.57421875 2.578125,-0.84375 z m 0.257813,5.03906247 h 4.570312 V 3.7488594 c -1.417968,-0.011719 -1.640625,-0.1992188 -1.664062,-1.40625 v -2.96484377 c 0.679687,0.62109375 1.113281,0.80859375 1.910156,0.80859375 2.238281,0 3.960938,-2.10937498 3.960938,-4.85156248 0,-2.3320313 -1.324219,-4.0195313 -3.152344,-4.0195313 -1.054688,0 -1.886719,0.4570313 -2.71875,1.5 v -1.453125 l -0.117188,-0.046875 c -1.019531,0.3984375 -1.675781,0.6445313 -2.71875,0.9726563 v 0.2929687 c 0.175782,-0.011719 0.292969,-0.011719 0.480469,-0.011719 0.632813,0 0.773438,0.1875 0.773438,1.0664062 v 8.8359375 c 0,0.9960938 -0.210938,1.1835938 -1.324219,1.3007813 z m 2.90625,-10.3945312 c 0,-0.5625 1.054687,-1.2421875 1.921875,-1.2421875 1.394531,0 2.320312,1.4296875 2.320312,3.6445312 0,2.0742188 -0.925781,3.49218753 -2.285156,3.49218753 -0.878906,0 -1.957031,-0.67968753 -1.957031,-1.25390623 z m 6.292969,10.3945312 h 4.570312 V 3.7488594 c -1.417969,-0.011719 -1.640625,-0.1992188 -1.664062,-1.40625 v -2.96484377 c 0.679687,0.62109375 1.113281,0.80859375 1.910156,0.80859375 2.238281,0 3.960937,-2.10937498 3.960937,-4.85156248 0,-2.3320313 -1.324218,-4.0195313 -3.152343,-4.0195313 -1.054688,0 -1.886719,0.4570313 -2.71875,1.5 v -1.453125 l -0.117188,-0.046875 c -1.019531,0.3984375 -1.675781,0.6445313 -2.71875,0.9726563 v 0.2929687 c 0.175781,-0.011719 0.292969,-0.011719 0.480469,-0.011719 0.632812,0 0.773437,0.1875 0.773437,1.0664062 v 8.8359375 c 0,0.9960938 -0.210937,1.1835938 -1.324218,1.3007813 z m 2.90625,-10.3945312 c 0,-0.5625 1.054687,-1.2421875 1.921875,-1.2421875 1.394531,0 2.320312,1.4296875 2.320312,3.6445312 0,2.0742188 -0.925781,3.49218753 -2.285156,3.49218753 -0.878906,0 -1.957031,-0.67968753 -1.957031,-1.25390623 z m 10.921875,-2.3789063 c -2.472657,0 -4.171875,1.8164063 -4.171875,4.4179688 0,2.5664062 1.746093,4.45312498 4.125,4.45312498 2.378906,0 4.195312,-1.98046878 4.195312,-4.60546878 0,-2.484375 -1.734375,-4.265625 -4.148437,-4.265625 z m -0.246094,0.5273438 c 1.582031,0 2.695312,1.8164062 2.695312,4.40625 0,2.1445312 -0.855468,3.41015623 -2.261718,3.41015623 -0.738282,0 -1.441407,-0.45703125 -1.839844,-1.20703123 -0.527344,-0.984375 -0.820313,-2.296875 -0.820313,-3.6445313 0,-1.7929687 0.867188,-2.9648437 2.226563,-2.9648437 z m 4.816406,8.15624998 h 4.523438 v -0.28125 c -1.253907,-0.0351563 -1.558594,-0.3046875 -1.59375,-1.41796878 v -4.2421875 c 0,-0.609375 0.785156,-1.546875 1.3125,-1.546875 0.117187,0 0.28125,0.09375 0.492187,0.28125 0.28125,0.28125 0.515625,0.375 0.761719,0.375 0.445312,0 0.726562,-0.3164062 0.726562,-0.84375 0,-0.6210937 -0.386718,-1.0078125 -1.03125,-1.0078125 -0.796875,0 -1.324218,0.421875 -2.261718,1.78125 v -1.734375 l -0.09375,-0.046875 c -1.066407,0.421875 -1.746094,0.6796875 -2.800782,1.0195313 v 0.3046875 c 0.269532,-0.058594 0.433594,-0.070312 0.667969,-0.070312 0.46875,0 0.632813,0.2929687 0.632813,1.125 v 4.7226562 c -0.03516,0.97265628 -0.152344,1.08984378 -1.335938,1.30078128 z M 77.377836,-8.4972344 H 75.46768 v -2.1796876 c 0,-0.1875 -0.03516,-0.246094 -0.128907,-0.246094 -1.101562,1.5820316 -1.664062,2.2265629 -2.214843,2.5429691 -0.199219,0.1289063 -0.316407,0.2460938 -0.316407,0.3632813 0,0.058594 0.02344,0.09375 0.07031,0.1289062 h 1.007812 v 5.6835938 c 0,1.58203123 0.5625,2.39062498 1.675782,2.39062498 0.925781,0 1.640625,-0.45703125 2.261718,-1.42968748 l -0.246093,-0.2109375 c -0.410157,0.49218748 -0.714844,0.65624998 -1.125,0.65624998 -0.703125,0 -0.984375,-0.50390628 -0.984375,-1.69921878 v -5.390625 h 1.910156 z m 7.998047,5.4023438 c -0.902344,1.4296875 -1.722656,1.9804687 -2.929688,1.9804687 -1.066406,0 -1.886718,-0.5507812 -2.425781,-1.6171875 -0.339844,-0.7265625 -0.480469,-1.3242187 -0.515625,-2.4960937 h 5.8125 c -0.152344,-1.2304688 -0.339844,-1.7695313 -0.808594,-2.3789063 -0.5625,-0.6796875 -1.441406,-1.078125 -2.414062,-1.078125 -0.949219,0 -1.828125,0.3398438 -2.554688,0.984375 -0.878906,0.7734375 -1.394531,2.109375 -1.394531,3.65625 0,2.6132813 1.359375,4.23046878 3.527344,4.23046878 1.792969,0 3.210937,-1.11328125 4.007812,-3.15234378 z m -5.835938,-2.7304688 c 0.210938,-1.4765625 0.855469,-2.1796875 2.003907,-2.1796875 1.148437,0 1.605468,0.5273438 1.851562,2.1796875 z m 15.574219,4.734375 c -0.246094,0.011719 -0.363281,0.011719 -0.445312,0.011719 -0.65625,0 -0.820313,-0.1992188 -0.820313,-1.078125 V -12.844891 l -0.09375,-0.04687 c -0.890625,0.304688 -1.535156,0.515625 -2.777344,0.832032 v 0.304687 c 0.152344,-0.02344 0.246094,-0.02344 0.410157,-0.02344 0.703125,0 0.867187,0.1875 0.867187,0.960937 v 2.9531251 c -0.714844,-0.609375 -1.21875,-0.8203125 -1.980469,-0.8203125 -2.167968,0 -3.925781,2.1328125 -3.925781,4.8164063 0,2.4140625 1.40625,4.05468748 3.492188,4.05468748 1.054687,0 1.78125,-0.375 2.414062,-1.26562498 v 1.20703123 l 0.08203,0.0585938 2.777344,-0.984375 z m -2.859375,-0.8320312 c 0,0.1289062 -0.128906,0.3515625 -0.316406,0.5625 -0.316406,0.37499998 -0.808594,0.56249998 -1.359375,0.56249998 -1.582031,0 -2.601563,-1.49999998 -2.601563,-3.84374998 0,-2.109375 0.925782,-3.515625 2.355469,-3.515625 1.019531,0 1.921875,0.890625 1.921875,1.8867187 z m 16.423831,-2.4375 v -4.3710938 h -0.4336 c -0.21093,1.4882813 -0.52734,1.7460938 -2.07422,1.7929688 h -2.73046 v -4.1953124 c 0.0117,-0.5625 0.0703,-0.621094 0.59765,-0.644531 h 2.56641 c 2.1914,0.04687 2.5664,0.304687 2.87109,1.9804684 h 0.46875 l -0.0586,-2.6953124 H 99.866117 v 0.363281 c 1.382813,0.09375 1.605473,0.339844 1.640623,1.699219 v 8.1679686 c -0.0117,1.60546878 -0.19922,1.80468753 -1.640623,1.89843753 v 0.36328125 h 5.285153 v -0.36328125 c -1.42968,-0.046875 -1.69922,-0.31640625 -1.71093,-1.68750003 v -4.1132812 h 2.73046 c 1.54688,0.011719 1.85157,0.28125 2.07422,1.8046875 z m 8.89453,1.265625 c -0.90235,1.4296875 -1.72266,1.9804687 -2.92969,1.9804687 -1.06641,0 -1.88672,-0.5507812 -2.42578,-1.6171875 -0.33984,-0.7265625 -0.48047,-1.3242187 -0.51563,-2.4960937 h 5.8125 c -0.15234,-1.2304688 -0.33984,-1.7695313 -0.80859,-2.3789063 -0.5625,-0.6796875 -1.44141,-1.078125 -2.41406,-1.078125 -0.94922,0 -1.82813,0.3398438 -2.55469,0.984375 -0.87891,0.7734375 -1.39453,2.109375 -1.39453,3.65625 0,2.6132813 1.35937,4.23046878 3.52734,4.23046878 1.79297,0 3.21094,-1.11328125 4.00782,-3.15234378 z m -5.83594,-2.7304688 c 0.21094,-1.4765625 0.85547,-2.1796875 2.00391,-2.1796875 1.14843,0 1.60547,0.5273438 1.85156,2.1796875 z m 14.64844,4.5820313 c -0.32813,0.25781248 -0.55078,0.35156248 -0.83203,0.35156248 -0.4336,0 -0.57422,-0.25781248 -0.57422,-1.08984378 v -3.6796875 c 0,-0.984375 -0.0937,-1.5234375 -0.375,-1.9804687 -0.41016,-0.6796875 -1.21875,-1.0429688 -2.33203,-1.0429688 -1.78125,0 -3.17578,0.9257813 -3.17578,2.1210938 0,0.4335937 0.36328,0.8085937 0.80859,0.8085937 0.45703,0 0.85547,-0.375 0.85547,-0.796875 0,-0.070312 -0.0234,-0.1640625 -0.0352,-0.2929687 -0.0469,-0.1757813 -0.0586,-0.328125 -0.0586,-0.4570313 0,-0.515625 0.59765,-0.9257812 1.35937,-0.9257812 0.92578,0 1.42969,0.5507812 1.42969,1.5703125 v 1.1484375 c -2.88281,1.1484375 -3.22266,1.3242187 -4.03125,2.0390625 -0.42187,0.375 -0.67969,1.0195312 -0.67969,1.640625 0,1.18359373 0.82032,2.01562498 1.98047,2.01562498 0.82031,0 1.59375,-0.3984375 2.75391,-1.37109378 0.0937,0.99609378 0.43359,1.37109378 1.20703,1.37109378 0.63281,0 1.03125,-0.22265625 1.69922,-0.9375 z m -2.92969,-1.078125 c 0,0.5625 -0.0937,0.7734375 -0.49219,0.9960937 -0.46875,0.2695313 -0.98437,0.42187503 -1.37109,0.42187503 -0.66797,0 -1.19531,-0.64453123 -1.19531,-1.45312503 v -0.082031 c 0.0234,-1.125 0.85547,-1.8398438 3.05859,-2.6132813 z m 7.57031,-6.1757813 h -1.91015 v -2.1796876 c 0,-0.1875 -0.0352,-0.246094 -0.12891,-0.246094 -1.10156,1.5820316 -1.66406,2.2265629 -2.21484,2.5429691 -0.19922,0.1289063 -0.31641,0.2460938 -0.31641,0.3632813 0,0.058594 0.0234,0.09375 0.0703,0.1289062 h 1.00782 v 5.6835938 c 0,1.58203123 0.5625,2.39062498 1.67578,2.39062498 0.92578,0 1.64062,-0.45703125 2.26172,-1.42968748 l -0.2461,-0.2109375 c -0.41015,0.49218748 -0.71484,0.65624998 -1.125,0.65624998 -0.70312,0 -0.98437,-0.50390628 -0.98437,-1.69921878 v -5.390625 h 1.91015 z m 9.33399,7.54687503 h -0.0937 c -0.92578,-0.0351563 -1.05469,-0.18750003 -1.07813,-1.06640623 v -6.4804688 h -2.97656 v 0.328125 c 1.17188,0.058594 1.39453,0.2460938 1.39453,1.1835938 v 4.4414062 c 0,0.5273438 -0.0937,0.7851563 -0.35156,0.9960938 -0.51563,0.4101562 -1.10156,0.64453123 -1.66406,0.64453123 -0.73828,0 -1.33594,-0.64453123 -1.33594,-1.44140623 v -6.1523438 h -2.76563 v 0.2695313 c 0.89063,0.035156 1.16016,0.3046875 1.17188,1.2070312 v 4.7578125 c 0,1.48828128 0.91406,2.44921878 2.28516,2.44921878 0.70312,0 1.42968,-0.3046875 1.94531,-0.80859375 l 0.80859,-0.80859373 v 1.55859373 l 0.082,0.0351563 c 0.9375,-0.375 1.61719,-0.57421875 2.57813,-0.84375 z m 0.25781,0.94921875 h 4.52344 v -0.28125 c -1.25391,-0.0351563 -1.5586,-0.3046875 -1.59375,-1.41796878 v -4.2421875 c 0,-0.609375 0.78515,-1.546875 1.3125,-1.546875 0.11719,0 0.28125,0.09375 0.49219,0.28125 0.28125,0.28125 0.51562,0.375 0.76171,0.375 0.44532,0 0.72657,-0.3164062 0.72657,-0.84375 0,-0.6210937 -0.38672,-1.0078125 -1.03125,-1.0078125 -0.79688,0 -1.32422,0.421875 -2.26172,1.78125 v -1.734375 l -0.0937,-0.046875 c -1.06641,0.421875 -1.7461,0.6796875 -2.80078,1.0195313 v 0.3046875 c 0.26953,-0.058594 0.43359,-0.070312 0.66797,-0.070312 0.46875,0 0.63281,0.2929687 0.63281,1.125 v 4.7226562 c -0.0352,0.97265628 -0.15235,1.08984378 -1.33594,1.30078128 z m 13.73145,-3.09374998 c -0.90235,1.4296875 -1.72266,1.9804687 -2.92969,1.9804687 -1.06641,0 -1.88672,-0.5507812 -2.42578,-1.6171875 -0.33985,-0.7265625 -0.48047,-1.3242187 -0.51563,-2.4960937 h 5.8125 c -0.15234,-1.2304688 -0.33984,-1.7695313 -0.80859,-2.3789063 -0.5625,-0.6796875 -1.44141,-1.078125 -2.41406,-1.078125 -0.94922,0 -1.82813,0.3398438 -2.55469,0.984375 -0.87891,0.7734375 -1.39453,2.109375 -1.39453,3.65625 0,2.6132813 1.35937,4.23046878 3.52734,4.23046878 1.79297,0 3.21094,-1.11328125 4.00781,-3.15234378 z m -5.83594,-2.7304688 c 0.21094,-1.4765625 0.85547,-2.1796875 2.0039,-2.1796875 1.14844,0 1.60547,0.5273438 1.85157,2.1796875 z m 0,0"
           style="fill:#000000;fill-opacity:1;fill-rule:nonzero;stroke:none"
           aria-label="O-Supported Feature"
           transform="matrix(1.3333333,0,0,1.3333333,539.75533,223.75933)" />
        <g
           id="g62" />
      </g>
      <g
         id="g63">
        <g
           id="g64" />
        <path
           id="path64"
           d="M 4.2419437,-4.2307687 4.1950687,-6.0823312 H 4.042725 c -0.070312,0.1171875 -0.140625,0.1523437 -0.2109375,0.1523437 -0.082031,0 -0.2226563,-0.023437 -0.3632813,-0.09375 C 3.1521,-6.1292062 2.8474125,-6.1995187 2.5192875,-6.1995187 c -1.0664063,0 -1.828125,0.703125 -1.828125,1.6757812 0,0.75 0.421875,1.2890625 1.5703125,1.9335938 l 0.7851562,0.4453125 c 0.46875,0.2695312 0.703125,0.5976562 0.703125,1.0078125 0,0.5976562 -0.4335937,0.9726562 -1.125,0.9726562 -0.9257812,0 -1.3945312,-0.50390625 -1.71093745,-1.8867187 H 0.70288125 V 0.05829375 H 0.8786625 c 0.09375,-0.140625 0.140625,-0.1640625 0.3046875,-0.1640625 0.1523437,0 0.3164062,0.0234375 0.6210937,0.10546875 0.3632813,0.08203125 0.7148438,0.12890625 0.984375,0.12890625 1.0546875,0 1.8984375,-0.7734375 1.8984375,-1.72265625 0,-0.6679687 -0.3164062,-1.1132812 -1.125,-1.6054687 L 2.0974125,-4.0549875 c -0.375,-0.234375 -0.5742188,-0.5507812 -0.5742188,-0.9140625 0,-0.5507812 0.421875,-0.9257812 1.03125,-0.9257812 0.7734375,0 1.1835938,0.4453125 1.4882813,1.6640625 z m 0,0"
           style="fill:#000000;fill-opacity:1;fill-rule:nonzero;stroke:none"
           aria-label="s"
           transform="matrix(1.3333333,0,0,1.3333333,244.5472,283.7504)" />
        <g
           id="g65" />
      </g>
    </g>
  </g>
</svg>
