<?xml version="1.0" encoding="UTF-8" standalone="no"?>
<!DOCTYPE svg PUBLIC "-//W3C//DTD SVG 1.1//EN" "http://www.w3.org/Graphics/SVG/1.1/DTD/svg11.dtd">
<!-- Generated by graphviz version 2.43.0 (0)
 -->
<!-- Title: %3 Pages: 1 -->
<svg width="301pt" height="150pt"
    viewBox="0.00 0.00 301.00 149.80" xmlns="http://www.w3.org/2000/svg"
    xmlns:xlink="http://www.w3.org/1999/xlink">
    <defs>
        <style> 
            .line {stroke: black}
            .text { fill: black; }
            /* Dark mode styles */
            <!-- @media (prefers-color-scheme: dark) { -->
            <!-- check user's site setting (slate is dark mode) -->
            [data-md-color-scheme="slate"] {
                .line {stroke: white}
                .text { fill: white; }}
        </style>
    </defs>
    <g id="graph0" class="graph" transform="scale(1 1) rotate(0) translate(4 145.8)">
        <title>%3</title>
        <polygon fill="None" stroke="transparent" points="-4,4 -4,-145.8 297,-145.8 297,4 -4,4" />
        <!-- temp1 -->
        <g id="node1" class="node">
            <title>temp1</title>
            <polygon fill="none" class="line" points="54,-36 0,-36 0,0 54,0 54,-36" />
            <text class="text" text-anchor="middle" x="27" y="-14.3" font-family="Times,serif"
                font-size="14.00">
                6</text>
        </g>
        <!-- @1 -->
        <g id="node2" class="node">
            <title>@1</title>
            <ellipse fill="none" class="line" cx="146" cy="-114.4" rx="23.31" ry="23.31" />
            <ellipse fill="none" class="line" cx="146" cy="-114.4" rx="27.3" ry="27.3" />
            <text class="text" text-anchor="middle" x="146" y="-110.7" font-family="Times,serif"
                font-size="14.00">@1</text>
        </g>
        <!-- @1&#45;&gt;temp1 -->
        <g id="edge3" class="edge">
            <title>@1&#45;&gt;temp1</title>
            <path fill="none" class="line"
                d="M120.2,-104.16C101.92,-96.69 77.62,-84.83 60,-69 52.5,-62.26 45.95,-53.46 40.7,-45.12" />
            <polygon fill="black" class="line"
                points="43.64,-43.2 35.54,-36.37 37.61,-46.76 43.64,-43.2" />
            <text class="text" text-anchor="middle" x="76" y="-57.8" font-family="Times,serif"
                font-size="14.00">
                digit1</text>
        </g>
        <!-- temp0 -->
        <g id="node3" class="node">
            <title>temp0</title>
            <polygon fill="none" class="line" points="126,-36 72,-36 72,0 126,0 126,-36" />
            <text class="text" text-anchor="middle" x="99" y="-14.3" font-family="Times,serif"
                font-size="14.00">
                1</text>
        </g>
        <!-- @1&#45;&gt;temp0 -->
        <g id="edge1" class="edge">
            <title>@1&#45;&gt;temp0</title>
            <path fill="none" class="line"
                d="M123.43,-97.87C114.4,-90.32 104.97,-80.39 100,-69 96.98,-62.08 95.89,-54.08 95.78,-46.55" />
            <polygon fill="black" class="line"
                points="99.29,-46.49 96.17,-36.36 92.29,-46.22 99.29,-46.49" />
            <text class="text" text-anchor="middle" x="136" y="-57.8" font-family="Times,serif"
                font-size="14.00">
                carry&#45;borrow</text>
        </g>
        <!-- temp3 -->
        <g id="node4" class="node">
            <title>temp3</title>
            <polygon fill="none" class="line" points="221,-36 167,-36 167,0 221,0 221,-36" />
            <text class="text" text-anchor="middle" x="194" y="-14.3" font-family="Times,serif"
                font-size="14.00">
                3</text>
        </g>
        <!-- @1&#45;&gt;temp3 -->
        <g id="edge2" class="edge">
            <title>@1&#45;&gt;temp3</title>
            <path fill="none" class="line"
                d="M160.01,-90.64C164.04,-83.77 168.34,-76.16 172,-69 175.82,-61.52 179.63,-53.23 182.98,-45.58" />
            <polygon fill="black" class="line"
                points="186.22,-46.92 186.95,-36.35 179.78,-44.16 186.22,-46.92" />
            <text class="text" text-anchor="middle" x="191" y="-57.8" font-family="Times,serif"
                font-size="14.00">
                sum</text>
        </g>
        <!-- temp2 -->
        <g id="node5" class="node">
            <title>temp2</title>
            <polygon fill="none" class="line" points="293,-36 239,-36 239,0 293,0 293,-36" />
            <text class="text" text-anchor="middle" x="266" y="-14.3" font-family="Times,serif"
                font-size="14.00">
                7</text>
        </g>
        <!-- @1&#45;&gt;temp2 -->
        <g id="edge4" class="edge">
            <title>@1&#45;&gt;temp2</title>
            <path fill="none" class="line"
                d="M168.03,-97.96C179.76,-89.59 194.33,-78.96 207,-69 217.66,-60.62 229.09,-51.07 239.03,-42.58" />
            <polygon fill="black" class="line"
                points="241.34,-45.21 246.63,-36.04 236.77,-39.9 241.34,-45.21" />
            <text class="text" text-anchor="middle" x="241" y="-57.8" font-family="Times,serif"
                font-size="14.00">
                digit2</text>
        </g>
    </g>
</svg>
