<?xml version="1.0" encoding="UTF-8" standalone="no"?>
<!-- Created with Inkscape (http://www.inkscape.org/) -->

<svg
   version="1.1"
   id="svg1"
   width="563.01312"
   height="566.31683"
   viewBox="0 0 563.01312 566.31683"
   xmlns="http://www.w3.org/2000/svg"
   xmlns:svg="http://www.w3.org/2000/svg">
  <defs
     id="defs1" />
  <g
     id="g1"
     transform="translate(-49.927845,-119.75337)">
    <path
       id="path1"
       d="m 4589.09,4589.09 c 0,880.03 -941.7,1593.43 -2103.33,1593.43 -1161.64,0 -2103.334,-713.4 -2103.334,-1593.43 0,-880.03 941.694,-1593.43 2103.334,-1593.43 1161.63,0 2103.33,713.4 2103.33,1593.43"
       style="fill:none;stroke:#000000;stroke-width:15.9343;stroke-linecap:butt;stroke-linejoin:miter;stroke-miterlimit:10;stroke-dasharray:none;stroke-opacity:1"
       transform="matrix(0.13333333,0,0,-0.13333333,0,1056)" />
    <path
       id="path2"
       d="M 701.109,6182.52 1975.86,7011.11 2740.71,5991.31 1975.86,5736.36 701.109,6182.52"
       style="fill:#ffffff;fill-opacity:1;fill-rule:evenodd;stroke:#000000;stroke-width:15.9343;stroke-linecap:butt;stroke-linejoin:miter;stroke-miterlimit:10;stroke-dasharray:63.7374, 63.7374;stroke-dashoffset:0;stroke-opacity:1"
       transform="matrix(0.13333333,0,0,-0.13333333,0,1056)" />
    <path
       id="path3"
       d="m 701.012,6206.06 h 1259.2 v 807.801 h -1259.2 z"
       style="fill:#ffffff;fill-opacity:1;fill-rule:evenodd;stroke:#000000;stroke-width:15.9343;stroke-linecap:butt;stroke-linejoin:miter;stroke-miterlimit:10;stroke-dasharray:none;stroke-opacity:1"
       transform="matrix(0.13333333,0,0,-0.13333333,0,1056)" />
    <g
       id="g3"
       aria-label="condition1&#10;(maybe some more conditions)&#10;production−name"
       transform="matrix(1.3333333,0,0,1.3333333,101.97973,151.472)">
      <path
         id="path4"
         d="m 3.7505516,-2.7768516 c -0.023437,-0.3984375 -0.1171875,-0.6679687 -0.28125,-0.890625 -0.28125,-0.3984375 -0.7851563,-0.6328125 -1.359375,-0.6328125 -1.13671879,0 -1.86328129,0.9023438 -1.86328129,2.2851563 0,1.34765624 0.71484375,2.20312499 1.85156249,2.20312499 0.9960938,0 1.6289063,-0.59765625 1.6992188,-1.61718749 H 3.1294578 c -0.1054687,0.66796874 -0.4570312,0.99609374 -1.0195312,0.99609374 -0.7265625,0 -1.17187504,-0.59765624 -1.17187504,-1.58203124 0,-1.0429688 0.43359374,-1.6640625 1.16015624,-1.6640625 0.5507813,0 0.9023438,0.328125 0.984375,0.9023437 z m 2.4023437,-1.5234375 c -1.1835937,0 -1.8867187,0.84375 -1.8867187,2.25 0,1.40625004 0.703125,2.23828129 1.8984375,2.23828129 1.171875,0 1.8867187,-0.84375 1.8867187,-2.21484379 0,-1.4414062 -0.6914062,-2.2734375 -1.8984375,-2.2734375 z m 0.011719,0.6210938 c 0.75,0 1.1953125,0.609375 1.1953125,1.6523437 0,0.984375 -0.46875,1.59375004 -1.1953125,1.59375004 -0.75,0 -1.1953125,-0.60937504 -1.1953125,-1.61718754 0,-1.0195312 0.4453125,-1.6289062 1.1953125,-1.6289062 z m 2.8125,-0.4921875 V 4.921875e-4 H 9.6450828 V -2.3081016 c 0,-0.84375 0.4453122,-1.40625 1.1250002,-1.40625 0.527344,0 0.867187,0.3164063 0.867187,0.8203125 V 4.921875e-4 h 0.65625 V -3.1518516 c 0,-0.6914062 -0.515625,-1.1484375 -1.324218,-1.1484375 -0.621094,0 -1.0195317,0.2460938 -1.3828129,0.8320313 v -0.703125 z m 7.8164057,-1.640625 h -0.667968 v 2.1679687 c -0.28125,-0.421875 -0.726563,-0.65625 -1.277344,-0.65625 -1.089844,0 -1.792969,0.8789063 -1.792969,2.203125 0,1.41796879 0.679688,2.28515629 1.816406,2.28515629 0.574219,0 0.972657,-0.22265625 1.324219,-0.73828125 V 4.921875e-4 h 0.597656 z m -1.839843,2.1445312 c 0.714843,0 1.171875,0.6210938 1.171875,1.6289063 0,0.9609375 -0.457032,1.60546874 -1.160157,1.60546874 -0.738281,0 -1.21875,-0.64453124 -1.21875,-1.61718754 0,-0.9726562 0.480469,-1.6171875 1.207032,-1.6171875 z m 3.515625,-0.5039062 h -0.65625 V 4.921875e-4 h 0.65625 z m 0,-1.640625 h -0.667969 v 0.84375 h 0.667969 z m 2.598632,1.640625 h -0.691406 v -1.1484375 h -0.65625 v 1.1484375 h -0.5625 v 0.5390625 h 0.5625 v 3.15234374 c 0,0.43359375 0.28125,0.66796875 0.796875,0.66796875 0.175781,0 0.328125,-0.0234375 0.550781,-0.0585938 v -0.5625 c -0.09375,0.0234375 -0.1875,0.0351563 -0.316406,0.0351563 -0.292969,0 -0.375,-0.0820313 -0.375,-0.375 V -3.6323203 h 0.691406 z m 1.382813,0 h -0.65625 V 4.921875e-4 h 0.65625 z m 0,-1.640625 h -0.667969 v 0.84375 h 0.667969 z m 2.742187,1.5117187 c -1.183593,0 -1.886718,0.84375 -1.886718,2.25 0,1.40625004 0.703125,2.23828129 1.898437,2.23828129 1.171875,0 1.886719,-0.84375 1.886719,-2.21484379 0,-1.4414062 -0.691406,-2.2734375 -1.898438,-2.2734375 z m 0.01172,0.6210938 c 0.75,0 1.195313,0.609375 1.195313,1.6523437 0,0.984375 -0.46875,1.59375004 -1.195313,1.59375004 -0.75,0 -1.195312,-0.60937504 -1.195312,-1.61718754 0,-1.0195312 0.445312,-1.6289062 1.195312,-1.6289062 z m 2.8125,-0.4921875 V 4.921875e-4 h 0.667969 V -2.3081016 c 0,-0.84375 0.445312,-1.40625 1.125,-1.40625 0.527344,0 0.867187,0.3164063 0.867187,0.8203125 V 4.921875e-4 h 0.65625 V -3.1518516 c 0,-0.6914062 -0.515625,-1.1484375 -1.324218,-1.1484375 -0.621094,0 -1.019532,0.2460938 -1.382813,0.8320313 v -0.703125 z m 5.929688,0.070312 V 4.921875e-4 h 0.703125 V -5.7651328 h -0.457032 c -0.257812,0.890625 -0.410156,1.0078125 -1.5,1.1484375 v 0.515625 z M 1.8755516,6.9350625 c -0.796875,1.0429687 -1.28906254,2.4960937 -1.28906254,3.7499995 0,1.253907 0.49218754,2.707032 1.28906254,3.75 h 0.4453125 c -0.703125,-1.136718 -1.0898438,-2.472656 -1.0898438,-3.75 0,-1.2656245 0.3867188,-2.6132808 1.0898438,-3.7499995 z m 1.3388671,1.640625 v 4.1718745 h 0.6679688 v -2.625 c 0,-0.5976558 0.4335937,-1.0898433 0.9726562,-1.0898433 0.5039063,0 0.7734375,0.3046875 0.7734375,0.84375 V 12.747562 H 6.29645 v -2.625 c 0,-0.5976558 0.4453125,-1.0898433 0.984375,-1.0898433 0.4921875,0 0.7734375,0.3164063 0.7734375,0.84375 V 12.747562 H 8.7222312 V 9.6186562 c 0,-0.75 -0.4335937,-1.171875 -1.2070312,-1.171875 -0.5625,0 -0.890625,0.1757813 -1.2890625,0.6445313 C 5.9800437,8.646 5.6519187,8.4467812 5.1011375,8.4467812 c -0.5507813,0 -0.9257813,0.2109375 -1.2773438,0.7148438 V 8.5756875 Z M 13.556216,12.360844 c -0.07031,0.01172 -0.105469,0.01172 -0.140625,0.01172 -0.234375,0 -0.363282,-0.117187 -0.363282,-0.328125 V 9.5952187 c 0,-0.75 -0.539062,-1.1484375 -1.570312,-1.1484375 -0.609375,0 -1.101563,0.1757813 -1.382813,0.4921875 C 9.8999656,9.1499062 9.8296531,9.396 9.8062156,9.8061562 H 10.474184 C 10.532778,9.30225 10.837466,9.067875 11.458559,9.067875 c 0.609375,0 0.9375,0.2226562 0.9375,0.6210937 V 9.86475 c -0.01172,0.28125 -0.152343,0.386719 -0.703125,0.457031 -0.9375,0.117188 -1.078125,0.152344 -1.335937,0.257813 -0.4804689,0.210937 -0.7265626,0.574218 -0.7265626,1.113281 0,0.761719 0.5156246,1.242187 1.3710936,1.242187 0.515625,0 0.9375,-0.1875 1.417969,-0.621093 0.04687,0.433593 0.246094,0.621093 0.679687,0.621093 0.140625,0 0.234375,-0.02344 0.457032,-0.07031 z m -1.160157,-0.925782 c 0,0.222657 -0.07031,0.351563 -0.269531,0.539063 -0.269531,0.246094 -0.597656,0.375 -0.984375,0.375 -0.515625,0 -0.820312,-0.246094 -0.820312,-0.667969 0,-0.445312 0.28125,-0.667969 0.996093,-0.761719 0.714844,-0.105468 0.84375,-0.128906 1.078125,-0.234375 z M 16.814028,8.5756875 15.653872,11.821781 14.587466,8.5756875 h -0.703125 l 1.40625,4.1835935 -0.257813,0.667969 c -0.105469,0.292969 -0.257812,0.398437 -0.527344,0.398437 -0.117187,0 -0.210937,-0.01172 -0.351562,-0.04687 v 0.597657 c 0.128906,0.08203 0.269531,0.105468 0.445312,0.105468 0.210938,0 0.445313,-0.07031 0.621094,-0.199218 0.210938,-0.152344 0.328125,-0.328125 0.457031,-0.65625 l 1.851563,-5.0507815 z m 1.321289,-1.640625 v 5.8124995 h 0.597656 V 12.2085 c 0.316407,0.492187 0.738282,0.726562 1.324219,0.726562 1.089844,0 1.816406,-0.902343 1.816406,-2.296875 0,-1.3476558 -0.679687,-2.1914058 -1.792968,-2.1914058 -0.574219,0 -0.972657,0.2226563 -1.289063,0.6914063 v -2.203125 z m 1.816406,2.1445312 c 0.75,0 1.21875,0.6445313 1.21875,1.6406253 0,0.949218 -0.492187,1.59375 -1.21875,1.59375 -0.703125,0 -1.160156,-0.644532 -1.160156,-1.617188 0,-0.9843748 0.457031,-1.6171873 1.160156,-1.6171873 z m 6.269532,1.8046873 c 0,-0.644531 -0.04687,-1.019531 -0.164063,-1.3359373 -0.28125,-0.6796875 -0.914062,-1.1015625 -1.699219,-1.1015625 -1.160156,0 -1.910156,0.890625 -1.910156,2.2734378 0,1.371093 0.714844,2.214843 1.898438,2.214843 0.960937,0 1.617187,-0.550781 1.78125,-1.453125 h -0.667969 c -0.175781,0.550782 -0.550781,0.832032 -1.089844,0.832032 -0.421875,0 -0.785156,-0.1875 -1.007812,-0.539063 -0.152344,-0.234375 -0.210938,-0.480469 -0.222657,-0.890625 z m -3.058594,-0.539062 c 0.04687,-0.7734378 0.527344,-1.277344 1.195312,-1.277344 0.679688,0 1.148438,0.5273437 1.148438,1.277344 z m 9.108398,-0.6093753 c -0.01172,-0.8203125 -0.550781,-1.2890625 -1.511718,-1.2890625 -0.972657,0 -1.605469,0.5039063 -1.605469,1.2773438 0,0.65625 0.339844,0.972656 1.324219,1.207031 l 0.621093,0.152344 c 0.457032,0.105469 0.644532,0.28125 0.644532,0.574219 0,0.398437 -0.386719,0.65625 -0.972657,0.65625 -0.363281,0 -0.65625,-0.105469 -0.832031,-0.28125 -0.105469,-0.117188 -0.152344,-0.234375 -0.1875,-0.527344 h -0.703125 c 0.03516,0.960937 0.574219,1.429687 1.664063,1.429687 1.054687,0 1.722656,-0.527343 1.722656,-1.324218 0,-0.621094 -0.351563,-0.972657 -1.183594,-1.171875 l -0.632812,-0.140625 c -0.539063,-0.128907 -0.773438,-0.3046878 -0.773438,-0.5976565 0,-0.3984375 0.339844,-0.6328125 0.890625,-0.6328125 0.527344,0 0.820313,0.234375 0.832031,0.6679687 z m 2.657227,-1.2890625 c -1.183594,0 -1.886719,0.84375 -1.886719,2.2499998 0,1.40625 0.703125,2.238281 1.898438,2.238281 1.171875,0 1.886718,-0.84375 1.886718,-2.214843 0,-1.4414065 -0.691406,-2.2734378 -1.898437,-2.2734378 z m 0.01172,0.6210938 c 0.75,0 1.195312,0.609375 1.195312,1.652344 0,0.984375 -0.46875,1.59375 -1.195312,1.59375 -0.75,0 -1.195313,-0.609375 -1.195313,-1.617188 0,-1.019531 0.445313,-1.628906 1.195313,-1.628906 z m 2.8125,-0.4921875 v 4.1718745 h 0.667968 v -2.625 c 0,-0.5976558 0.433594,-1.0898433 0.972657,-1.0898433 0.503906,0 0.773437,0.3046875 0.773437,0.84375 v 2.8710933 h 0.667969 v -2.625 c 0,-0.5976558 0.445312,-1.0898433 0.984375,-1.0898433 0.492187,0 0.773437,0.3164063 0.773437,0.84375 v 2.8710933 h 0.667969 V 9.6186562 c 0,-0.75 -0.433594,-1.171875 -1.207031,-1.171875 -0.5625,0 -0.890625,0.1757813 -1.289063,0.6445313 C 40.51813,8.646 40.190005,8.4467812 39.639223,8.4467812 c -0.550781,0 -0.925781,0.2109375 -1.277343,0.7148438 V 8.5756875 Z M 47.91852,10.884281 c 0,-0.644531 -0.04687,-1.019531 -0.164062,-1.3359373 -0.28125,-0.6796875 -0.914063,-1.1015625 -1.699219,-1.1015625 -1.160156,0 -1.910156,0.890625 -1.910156,2.2734378 0,1.371093 0.714844,2.214843 1.898437,2.214843 0.960938,0 1.617188,-0.550781 1.78125,-1.453125 h -0.667968 c -0.175782,0.550782 -0.550782,0.832032 -1.089844,0.832032 -0.421875,0 -0.785156,-0.1875 -1.007813,-0.539063 -0.152343,-0.234375 -0.210937,-0.480469 -0.222656,-0.890625 z m -3.058593,-0.539062 c 0.04687,-0.7734378 0.527343,-1.277344 1.195312,-1.277344 0.679688,0 1.148438,0.5273437 1.148438,1.277344 z m 6.175781,-1.7695315 v 4.1718745 h 0.667969 v -2.625 c 0,-0.5976558 0.433593,-1.0898433 0.972656,-1.0898433 0.503906,0 0.773437,0.3046875 0.773437,0.84375 v 2.8710933 h 0.667969 v -2.625 c 0,-0.5976558 0.445313,-1.0898433 0.984375,-1.0898433 0.492188,0 0.773438,0.3164063 0.773438,0.84375 V 12.747562 H 56.54352 V 9.6186562 c 0,-0.75 -0.433593,-1.171875 -1.207031,-1.171875 -0.5625,0 -0.890625,0.1757813 -1.289062,0.6445313 -0.246094,-0.4453125 -0.574219,-0.6445313 -1.125,-0.6445313 -0.550782,0 -0.925782,0.2109375 -1.277344,0.7148438 V 8.5756875 Z m 8.241211,-0.1289063 c -1.183594,0 -1.886719,0.84375 -1.886719,2.2499998 0,1.40625 0.703125,2.238281 1.898437,2.238281 1.171875,0 1.886719,-0.84375 1.886719,-2.214843 0,-1.4414065 -0.691406,-2.2734378 -1.898437,-2.2734378 z m 0.01172,0.6210938 c 0.75,0 1.195313,0.609375 1.195313,1.652344 0,0.984375 -0.46875,1.59375 -1.195313,1.59375 -0.75,0 -1.195312,-0.609375 -1.195312,-1.617188 0,-1.019531 0.445312,-1.628906 1.195312,-1.628906 z m 2.800782,-0.4921875 v 4.1718745 h 0.667968 v -2.167968 c 0.01172,-1.0078128 0.421875,-1.4531253 1.335938,-1.4296878 V 8.4819375 C 63.987856,8.4585 63.917544,8.4467812 63.847231,8.4467812 c -0.433594,0 -0.761719,0.2578125 -1.148437,0.8789063 v -0.75 z m 6.193359,2.3085935 c 0,-0.644531 -0.04687,-1.019531 -0.164062,-1.3359373 -0.28125,-0.6796875 -0.914063,-1.1015625 -1.699219,-1.1015625 -1.160156,0 -1.910156,0.890625 -1.910156,2.2734378 0,1.371093 0.714843,2.214843 1.898437,2.214843 0.960938,0 1.617188,-0.550781 1.78125,-1.453125 h -0.667969 c -0.175781,0.550782 -0.550781,0.832032 -1.089843,0.832032 -0.421875,0 -0.785157,-0.1875 -1.007813,-0.539063 -0.152344,-0.234375 -0.210937,-0.480469 -0.222656,-0.890625 z m -3.058594,-0.539062 c 0.04687,-0.7734378 0.527344,-1.277344 1.195313,-1.277344 0.679687,0 1.148437,0.5273437 1.148437,1.277344 z m 9.36328,-0.3750003 C 74.564028,9.5717812 74.470278,9.30225 74.306216,9.0795937 74.024966,8.6811562 73.521059,8.4467812 72.946841,8.4467812 c -1.136719,0 -1.863282,0.9023438 -1.863282,2.2851558 0,1.347657 0.714844,2.203125 1.851563,2.203125 0.996094,0 1.628906,-0.597656 1.699219,-1.617187 h -0.667969 c -0.105469,0.667969 -0.457031,0.996094 -1.019531,0.996094 -0.726563,0 -1.171875,-0.597657 -1.171875,-1.582032 0,-1.0429683 0.433593,-1.664062 1.160156,-1.664062 0.550781,0 0.902344,0.328125 0.984375,0.9023437 z M 76.98688,8.4467812 c -1.183594,0 -1.886719,0.84375 -1.886719,2.2499998 0,1.40625 0.703125,2.238281 1.898437,2.238281 1.171875,0 1.886719,-0.84375 1.886719,-2.214843 0,-1.4414065 -0.691406,-2.2734378 -1.898437,-2.2734378 z M 76.9986,9.067875 c 0.75,0 1.195313,0.609375 1.195313,1.652344 0,0.984375 -0.46875,1.59375 -1.195313,1.59375 -0.75,0 -1.195312,-0.609375 -1.195312,-1.617188 0,-1.019531 0.445312,-1.628906 1.195312,-1.628906 z m 2.8125,-0.4921875 v 4.1718745 h 0.667969 v -2.308593 c 0,-0.8437503 0.445313,-1.4062503 1.125,-1.4062503 0.527344,0 0.867188,0.3164063 0.867188,0.8203125 v 2.8945308 h 0.65625 V 9.5952187 c 0,-0.6914062 -0.515625,-1.1484375 -1.324219,-1.1484375 -0.621094,0 -1.019531,0.2460938 -1.382813,0.8320313 v -0.703125 z m 7.816407,-1.640625 h -0.667969 v 2.1679687 c -0.28125,-0.421875 -0.726563,-0.65625 -1.277344,-0.65625 -1.089844,0 -1.792969,0.8789063 -1.792969,2.2031248 0,1.417969 0.679688,2.285156 1.816407,2.285156 0.574218,0 0.972656,-0.222656 1.324218,-0.738281 v 0.550781 h 0.597657 z m -1.839844,2.1445312 c 0.714844,0 1.171875,0.6210938 1.171875,1.6289063 0,0.960937 -0.457031,1.605469 -1.160156,1.605469 -0.738282,0 -1.21875,-0.644532 -1.21875,-1.617188 0,-0.972656 0.480468,-1.6171873 1.207031,-1.6171873 z m 3.515625,-0.5039062 h -0.65625 v 4.1718745 h 0.65625 z m 0,-1.640625 h -0.667969 v 0.84375 h 0.667969 z m 2.601562,1.640625 H 91.213442 V 7.42725 h -0.65625 v 1.1484375 h -0.5625 V 9.11475 h 0.5625 v 3.152344 c 0,0.433593 0.28125,0.667968 0.796875,0.667968 0.175781,0 0.328125,-0.02344 0.550781,-0.05859 v -0.5625 c -0.09375,0.02344 -0.1875,0.03516 -0.316406,0.03516 -0.292969,0 -0.375,-0.08203 -0.375,-0.375 V 9.11475 h 0.691406 z m 1.382813,0 h -0.65625 v 4.1718745 h 0.65625 z m 0,-1.640625 h -0.667969 v 0.84375 h 0.667969 z m 2.742187,1.5117187 c -1.183593,0 -1.886718,0.84375 -1.886718,2.2499998 0,1.40625 0.703125,2.238281 1.898437,2.238281 1.171875,0 1.886719,-0.84375 1.886719,-2.214843 0,-1.4414065 -0.691406,-2.2734378 -1.898438,-2.2734378 z m 0.01172,0.6210938 c 0.75,0 1.195313,0.609375 1.195313,1.652344 0,0.984375 -0.46875,1.59375 -1.195313,1.59375 -0.75,0 -1.195312,-0.609375 -1.195312,-1.617188 0,-1.019531 0.445312,-1.628906 1.195312,-1.628906 z m 2.8125,-0.4921875 v 4.1718745 h 0.667969 v -2.308593 c 0,-0.8437503 0.445312,-1.4062503 1.125001,-1.4062503 0.52734,0 0.86718,0.3164063 0.86718,0.8203125 v 2.8945308 h 0.65625 V 9.5952187 c 0,-0.6914062 -0.51562,-1.1484375 -1.32422,-1.1484375 -0.62109,0 -1.019524,0.2460938 -1.382805,0.8320313 v -0.703125 z m 7.35937,1.1601562 c -0.0117,-0.8203125 -0.55078,-1.2890625 -1.51172,-1.2890625 -0.97265,0 -1.60547,0.5039063 -1.60547,1.2773438 0,0.65625 0.33985,0.972656 1.32422,1.207031 l 0.6211,0.152344 c 0.45703,0.105469 0.64453,0.28125 0.64453,0.574219 0,0.398437 -0.38672,0.65625 -0.97266,0.65625 -0.36328,0 -0.65625,-0.105469 -0.83203,-0.28125 -0.10547,-0.117188 -0.15234,-0.234375 -0.1875,-0.527344 h -0.70312 c 0.0352,0.960937 0.57421,1.429687 1.66406,1.429687 1.05469,0 1.72265,-0.527343 1.72265,-1.324218 0,-0.621094 -0.35156,-0.972657 -1.18359,-1.171875 l -0.63281,-0.140625 c -0.53906,-0.128907 -0.77344,-0.3046878 -0.77344,-0.5976565 0,-0.3984375 0.33984,-0.6328125 0.89063,-0.6328125 0.52734,0 0.82031,0.234375 0.83203,0.6679687 z m 1.23047,4.6992183 c 0.79688,-1.042968 1.30078,-2.496093 1.30078,-3.738281 0,-1.2656248 -0.5039,-2.7187498 -1.30078,-3.7617185 h -0.43359 c 0.70312,1.1484375 1.08984,2.484375 1.08984,3.7617185 0,1.265625 -0.38672,2.613281 -1.08984,3.738281 z m 0,0"
         style="fill:#000000;fill-opacity:1;fill-rule:nonzero;stroke:none" />
      <path
         id="path5"
         d="M 2.4849266,-18.720211 H 1.3716453 l -1.28906249,6.035156 H 1.2075828 l 0.46875,-2.25 c 0.1757813,0.480469 0.5039063,0.703125 1.0664063,0.703125 1.2773437,0 2.3320312,-1.324218 2.3320312,-2.917968 0,-1.007813 -0.5273437,-1.640625 -1.3828125,-1.640625 -0.5390625,0 -0.9726562,0.222656 -1.3359375,0.703125 z m 0.75,0.820313 c 0.4335937,0 0.703125,0.351562 0.703125,0.902343 0,0.761719 -0.3632813,1.5 -0.8671875,1.769532 -0.1171875,0.07031 -0.2578125,0.09375 -0.421875,0.09375 -0.4101563,0 -0.6914063,-0.351563 -0.6914063,-0.890625 0,-0.761719 0.3515625,-1.488282 0.8671875,-1.769532 0.1289063,-0.07031 0.2460938,-0.105468 0.4101563,-0.105468 z m 3.0498046,-0.820313 -0.9140625,4.300781 H 6.48395 l 0.4921875,-2.285156 c 0.09375,-0.480469 0.3867187,-0.832031 0.7617187,-0.9375 0.1289063,-0.02344 0.2695313,-0.04687 0.4335938,-0.04687 0.1171875,0 0.1992187,0.01172 0.3398437,0.03516 l 0.234375,-1.136718 c -0.058594,0 -0.082031,0 -0.1289062,0 -0.5273438,0 -1.0195313,0.328125 -1.3945313,0.914062 l 0.1757813,-0.84375 z m 4.9746098,-0.07031 c -0.832032,0 -1.5351566,0.351562 -2.0156254,0.972656 -0.375,0.515625 -0.6210937,1.300781 -0.6210937,1.992187 0,0.972657 0.6679687,1.59375 1.7226561,1.59375 0.867188,0 1.558594,-0.339843 2.039063,-0.984375 0.386718,-0.503906 0.632812,-1.289062 0.632812,-1.980468 0,-0.679688 -0.304687,-1.195313 -0.878906,-1.429688 -0.269531,-0.117187 -0.550781,-0.164062 -0.878906,-0.164062 z m -0.175782,0.890625 c 0.292969,0 0.574219,0.164062 0.691407,0.410156 0.07031,0.140625 0.105468,0.316406 0.105468,0.515625 0,0.75 -0.363281,1.476562 -0.867187,1.734375 -0.140625,0.07031 -0.304688,0.105469 -0.46875,0.105469 -0.46875,0 -0.7851564,-0.351563 -0.7851564,-0.914063 0,-0.761719 0.3632814,-1.476562 0.8671874,-1.746094 0.152344,-0.07031 0.292969,-0.105468 0.457031,-0.105468 z m 4.97461,3.480468 h 1.125 l 1.230468,-5.8125 h -1.113281 l -0.445312,2.0625 c -0.175782,-0.421875 -0.515625,-0.621093 -1.054688,-0.621093 -0.644531,0 -1.300781,0.363281 -1.710937,0.960937 -0.398438,0.5625 -0.621094,1.277344 -0.621094,1.933594 0,0.679687 0.246094,1.21875 0.667969,1.464844 0.210937,0.128906 0.445312,0.199218 0.703125,0.199218 0.539062,0 0.949218,-0.199218 1.324218,-0.621093 z m -0.199219,-3.480468 c 0.433594,0 0.703125,0.351562 0.703125,0.902343 0,0.761719 -0.351563,1.5 -0.855469,1.769532 -0.117187,0.07031 -0.257812,0.09375 -0.410156,0.09375 -0.269531,0 -0.480469,-0.140625 -0.585938,-0.375 -0.07031,-0.164063 -0.105468,-0.351563 -0.105468,-0.550782 0,-0.726562 0.363281,-1.464843 0.855468,-1.734375 0.128907,-0.07031 0.246094,-0.105468 0.398438,-0.105468 z m 6.155273,3.480468 0.914063,-4.300781 h -1.113281 l -0.539063,2.53125 c -0.140625,0.644531 -0.550781,1.054688 -1.066406,1.054688 -0.410156,0 -0.609375,-0.199219 -0.609375,-0.597657 0,-0.117187 0.01172,-0.199218 0.04687,-0.386718 l 0.5625,-2.601563 h -1.125 l -0.632813,2.988281 c -0.03516,0.152344 -0.04687,0.304688 -0.04687,0.445313 0,0.480469 0.269532,0.855469 0.714844,0.984375 0.140625,0.04687 0.292969,0.07031 0.445313,0.07031 0.585937,0 1.019531,-0.222656 1.453125,-0.726562 l -0.117188,0.539062 z m 5.279297,-2.695312 c 0.02344,-0.1875 0.03516,-0.257813 0.03516,-0.339844 0,-0.527344 -0.363282,-1.042969 -0.867188,-1.230469 -0.210937,-0.07031 -0.445312,-0.105468 -0.714844,-0.105468 -0.75,0 -1.347656,0.246093 -1.757812,0.75 -0.46875,0.5625 -0.808594,1.488281 -0.808594,2.25 0,0.398437 0.152344,0.785156 0.398438,1.066406 0.28125,0.328125 0.726562,0.492187 1.3125,0.492187 1.03125,0 1.816406,-0.609375 2.144531,-1.675781 h -1.066406 c -0.246094,0.5625 -0.503907,0.773438 -0.9375,0.773438 -0.257813,0 -0.503907,-0.105469 -0.585938,-0.257813 -0.08203,-0.140625 -0.117187,-0.339844 -0.117187,-0.5625 0,-0.351562 0.05859,-0.691406 0.199218,-1.042969 0.152344,-0.445312 0.363282,-0.703125 0.644532,-0.820312 0.117187,-0.05859 0.257812,-0.08203 0.398437,-0.08203 0.269531,0 0.46875,0.09375 0.574219,0.257812 0.05859,0.117188 0.07031,0.222656 0.08203,0.527344 z m 3.011719,-1.523438 h -0.632812 l 0.257812,-1.148437 h -1.125 l -0.246094,1.148437 h -0.550781 l -0.152344,0.75 h 0.550782 l -0.5625,2.636719 c -0.02344,0.117188 -0.03516,0.222656 -0.03516,0.328125 0,0.316406 0.1875,0.5625 0.492188,0.644531 0.128906,0.02344 0.257812,0.04687 0.410156,0.04687 0.257813,0 0.445313,-0.02344 0.667969,-0.09375 l 0.164062,-0.773437 c -0.117187,0.01172 -0.175781,0.02344 -0.269531,0.02344 -0.164062,0 -0.257812,-0.05859 -0.292969,-0.152343 0,-0.02344 0,-0.03516 0,-0.04687 0,-0.03516 0.01172,-0.140625 0.04687,-0.28125 l 0.492188,-2.332032 h 0.621094 z m 1.916016,-0.08203 h -1.113282 l -0.914062,4.300781 h 1.113281 z m 0.316406,-1.511719 H 31.42438 l -0.210938,0.996094 h 1.113281 z m 2.625,1.441407 c -0.832031,0 -1.535156,0.351562 -2.015625,0.972656 -0.375,0.515625 -0.621094,1.300781 -0.621094,1.992187 0,0.972657 0.667969,1.59375 1.722656,1.59375 0.867188,0 1.558594,-0.339843 2.039063,-0.984375 0.386719,-0.503906 0.632812,-1.289062 0.632812,-1.980468 0,-0.679688 -0.304687,-1.195313 -0.878906,-1.429688 -0.269531,-0.117187 -0.550781,-0.164062 -0.878906,-0.164062 z m -0.175781,0.890625 c 0.292968,0 0.574218,0.164062 0.691406,0.410156 0.07031,0.140625 0.105469,0.316406 0.105469,0.515625 0,0.75 -0.363282,1.476562 -0.867188,1.734375 -0.140625,0.07031 -0.304687,0.105469 -0.46875,0.105469 -0.46875,0 -0.785156,-0.351563 -0.785156,-0.914063 0,-0.761719 0.363281,-1.476562 0.867187,-1.746094 0.152344,-0.07031 0.292969,-0.105468 0.457032,-0.105468 z m 3.166992,-0.820313 -0.914063,4.300781 h 1.113282 l 0.515625,-2.425781 c 0.140625,-0.65625 0.550781,-1.054687 1.089843,-1.054687 0.292969,0 0.480469,0.105468 0.550782,0.328125 0.02344,0.08203 0.04687,0.175781 0.04687,0.269531 0,0.105469 -0.02344,0.210937 -0.04687,0.386719 l -0.539063,2.496093 h 1.113281 l 0.621094,-2.882812 c 0.02344,-0.152344 0.04687,-0.292969 0.04687,-0.445313 0,-0.46875 -0.269531,-0.84375 -0.714844,-0.984375 -0.152343,-0.03516 -0.304687,-0.05859 -0.457031,-0.05859 -0.597656,0 -1.019531,0.210937 -1.453125,0.726562 l 0.140625,-0.65625 z m 8.279297,1.96875 h -4.019532 l -0.199218,0.960938 h 4.019531 z m 1.242187,-1.96875 -0.914062,4.300781 h 1.113281 l 0.515625,-2.425781 c 0.140625,-0.65625 0.550781,-1.054687 1.089844,-1.054687 0.292968,0 0.480468,0.105468 0.550781,0.328125 0.02344,0.08203 0.04687,0.175781 0.04687,0.269531 0,0.105469 -0.02344,0.210937 -0.04687,0.386719 l -0.539063,2.496093 h 1.113282 l 0.621093,-2.882812 c 0.02344,-0.152344 0.04687,-0.292969 0.04687,-0.445313 0,-0.46875 -0.269531,-0.84375 -0.714843,-0.984375 -0.152344,-0.03516 -0.304688,-0.05859 -0.457032,-0.05859 -0.597656,0 -1.019531,0.210937 -1.453125,0.726562 l 0.140625,-0.65625 z m 7.646485,4.160156 c -0.07031,-0.08203 -0.09375,-0.128906 -0.128907,-0.199218 -0.02344,-0.04687 -0.03516,-0.105469 -0.03516,-0.152344 0,-0.04687 0.01172,-0.105469 0.02344,-0.164063 l 0.503906,-2.390625 c 0.03516,-0.152343 0.04687,-0.269531 0.04687,-0.363281 0,-0.433594 -0.363281,-0.808594 -0.878906,-0.914062 -0.199219,-0.03516 -0.421875,-0.04687 -0.65625,-0.04687 -1.242188,0 -1.886719,0.445312 -2.109375,1.488281 h 1.042968 c 0.117188,-0.375 0.28125,-0.527344 0.644532,-0.585938 0.08203,0 0.164062,-0.01172 0.246093,-0.01172 0.316407,0 0.480469,0.05859 0.550782,0.1875 0.02344,0.04687 0.02344,0.09375 0.02344,0.152343 0,0.164063 -0.105469,0.339844 -0.269531,0.421875 -0.152344,0.09375 -0.152344,0.09375 -0.726563,0.164063 l -0.46875,0.08203 c -0.375,0.05859 -0.667968,0.164063 -0.925781,0.339844 -0.421875,0.304687 -0.679687,0.796875 -0.679687,1.277344 0,0.421875 0.269531,0.820312 0.65625,0.949218 0.152343,0.05859 0.339843,0.09375 0.539062,0.09375 0.457031,0 0.84375,-0.175781 1.324219,-0.621093 -0.02344,0.117187 -0.02344,0.164062 -0.02344,0.222656 0,0.07031 0.01172,0.128906 0.05859,0.210937 h 1.21875 z m -1.007813,-1.59375 c -0.140625,0.65625 -0.527344,1.019532 -1.066406,1.019532 -0.386719,0 -0.585938,-0.128907 -0.585938,-0.398438 0,-0.363281 0.292969,-0.632812 0.820313,-0.714844 l 0.398437,-0.07031 c 0.375,-0.05859 0.375,-0.05859 0.492188,-0.128906 z m 2.636719,-2.566406 -0.914063,4.300781 h 1.113282 l 0.550781,-2.578125 c 0.08203,-0.421875 0.304687,-0.726562 0.621094,-0.84375 0.105468,-0.03516 0.210937,-0.05859 0.316406,-0.05859 0.316406,0 0.503906,0.175781 0.503906,0.457031 0,0.09375 -0.01172,0.175781 -0.02344,0.269531 l -0.585938,2.753906 h 1.113281 l 0.550782,-2.578125 c 0.117187,-0.574218 0.480468,-0.902343 0.972656,-0.902343 0.246094,0 0.375,0.08203 0.445312,0.269531 0.01172,0.05859 0.02344,0.117187 0.02344,0.175781 0,0.09375 -0.02344,0.210938 -0.04687,0.328125 l -0.574219,2.707031 h 1.125 l 0.609375,-2.882812 c 0.04687,-0.246094 0.05859,-0.339844 0.05859,-0.492188 0,-0.421875 -0.234375,-0.796875 -0.597656,-0.925781 -0.152344,-0.04687 -0.328125,-0.07031 -0.527344,-0.07031 -0.539063,0 -0.972656,0.199218 -1.40625,0.644531 -0.09375,-0.316406 -0.375,-0.550781 -0.726563,-0.621094 -0.08203,-0.02344 -0.175781,-0.02344 -0.269531,-0.02344 -0.527344,0 -0.890625,0.1875 -1.359375,0.714843 l 0.140625,-0.644531 z m 10.256836,2.496094 c 0.09375,-0.351563 0.140625,-0.691406 0.140625,-0.996094 0,-0.550781 -0.292969,-1.101562 -0.714844,-1.335937 -0.269531,-0.164063 -0.597656,-0.234375 -0.972656,-0.234375 -0.621094,0 -1.265625,0.246093 -1.640625,0.632812 -0.503906,0.539063 -0.867188,1.464844 -0.867188,2.273438 0,0.984375 0.667969,1.652343 1.675782,1.652343 0.960937,0 1.769531,-0.503906 2.203125,-1.394531 h -1.089844 c -0.128906,0.246094 -0.363281,0.410156 -0.679688,0.46875 -0.07031,0.02344 -0.152343,0.02344 -0.222656,0.02344 -0.398437,0 -0.691406,-0.246094 -0.75,-0.597657 0,-0.04687 0,-0.08203 0,-0.128906 0,-0.08203 0,-0.164062 0.02344,-0.363281 z m -0.996094,-0.738281 h -1.757812 c 0.140625,-0.503907 0.351562,-0.761719 0.726562,-0.878907 0.105469,-0.04687 0.222656,-0.05859 0.328125,-0.05859 0.433594,0 0.703125,0.269531 0.703125,0.703125 z m 0,0"
         style="fill:#000000;fill-opacity:1;fill-rule:nonzero;stroke:none" />
    </g>
    <path
       id="path6"
       d="M 772.816,6537.06 H 964.027"
       style="fill:none;stroke:#000000;stroke-width:15.9343;stroke-linecap:butt;stroke-linejoin:miter;stroke-miterlimit:10;stroke-dasharray:none;stroke-opacity:1"
       transform="matrix(0.13333333,0,0,-0.13333333,0,1056)" />
    <path
       id="path7"
       d="m 876.391,6567.18 120.488,-30.12 -120.488,-30.12"
       style="fill:#000000;fill-opacity:1;fill-rule:evenodd;stroke:none"
       transform="matrix(0.13333333,0,0,-0.13333333,0,1056)" />
    <path
       id="path8"
       d="m 884.355,6556.98 79.672,-19.92 -79.672,-19.92"
       style="fill:none;stroke:#000000;stroke-width:15.9343;stroke-linecap:butt;stroke-linejoin:miter;stroke-miterlimit:10;stroke-dasharray:none;stroke-opacity:1"
       transform="matrix(0.13333333,0,0,-0.13333333,0,1056)" />
    <path
       id="path9"
       d="m 1214.99,5357.92 h 764.848 v 254.949 H 1214.99 Z"
       style="fill:#ffffff;fill-opacity:1;fill-rule:evenodd;stroke:#000000;stroke-width:7.96717;stroke-linecap:butt;stroke-linejoin:miter;stroke-miterlimit:10;stroke-dasharray:none;stroke-opacity:1"
       transform="matrix(0.13333333,0,0,-0.13333333,0,1056)" />
    <path
       id="path10"
       d="M 12.654883,-9.6209453 C 12.104102,-12.679539 10.346289,-14.16782 7.2876953,-14.16782 c -1.875,0 -3.3867187,0.585937 -4.4179687,1.734375 -1.265625,1.382812 -1.95703129,3.3632809 -1.95703129,5.6249997 0,2.296875 0.71484379,4.265625 2.01562499,5.625 1.0898438,1.10156249 2.4609375,1.62890624 4.2773438,1.62890624 3.4101559,0 5.3203129,-1.83984374 5.7421879,-5.53125004 h -1.839844 c -0.152344,0.9492188 -0.339844,1.6054688 -0.632813,2.15625 -0.5742184,1.1484375 -1.7578122,1.8046875 -3.2460934,1.8046875 -2.7773438,0 -4.5351563,-2.2265625 -4.5351563,-5.7070312 0,-3.5742192 1.6640625,-5.7656252 4.3828125,-5.7656252 1.125,0 2.1796875,0.316406 2.7539063,0.878906 0.5156249,0.46875 0.7968749,1.042969 1.0078129,2.0976567 z m 47.405273,5.4375 1.429688,4.1835937375 h 1.992187 L 58.583594,-13.945164 H 56.286719 L 51.317969,1.484375e-4 h 1.886719 L 54.68125,-4.1834453 Z m -0.503906,-1.5 h -4.429687 l 2.285156,-6.3515627 z m 0,0"
       style="fill:#000000;fill-opacity:1;fill-rule:nonzero;stroke:none"
       aria-label="CA"
       transform="matrix(1.3333333,0,0,1.3333333,169.96667,330.26933)" />
    <path
       id="path11"
       d="m 1465.96,5485.4 h 254.95"
       style="fill:none;stroke:#000000;stroke-width:15.9343;stroke-linecap:butt;stroke-linejoin:miter;stroke-miterlimit:10;stroke-dasharray:none;stroke-opacity:1"
       transform="matrix(0.13333333,0,0,-0.13333333,0,1056)" />
    <path
       id="path12"
       d="m 1633.27,5515.52 120.49,-30.12 -120.49,-30.13"
       style="fill:#000000;fill-opacity:1;fill-rule:evenodd;stroke:none"
       transform="matrix(0.13333333,0,0,-0.13333333,0,1056)" />
    <path
       id="path13"
       d="m 1641.24,5505.32 79.67,-19.92 -79.67,-19.92"
       style="fill:none;stroke:#000000;stroke-width:15.9343;stroke-linecap:butt;stroke-linejoin:miter;stroke-miterlimit:10;stroke-dasharray:none;stroke-opacity:1"
       transform="matrix(0.13333333,0,0,-0.13333333,0,1056)" />
    <path
       id="path14"
       d="m 3127.11,4210.65 h 764.848 v 254.949 H 3127.11 Z"
       style="fill:#ffffff;fill-opacity:1;fill-rule:evenodd;stroke:#000000;stroke-width:7.96717;stroke-linecap:butt;stroke-linejoin:miter;stroke-miterlimit:10;stroke-dasharray:none;stroke-opacity:1"
       transform="matrix(0.13333333,0,0,-0.13333333,0,1056)" />
    <path
       id="path15"
       d="m 12.654797,-9.6213828 c -0.550781,-3.0585942 -2.308594,-4.5468752 -5.3671876,-4.5468752 -1.875,0 -3.3867188,0.585938 -4.4179688,1.734375 -1.265625,1.382813 -1.95703123,3.3632814 -1.95703123,5.6250002 0,2.296875 0.71484373,4.265625 2.01562503,5.625 1.0898437,1.10156249 2.4609375,1.62890624 4.2773437,1.62890624 3.4101559,0 5.3203129,-1.83984374 5.7421879,-5.53125004 h -1.839844 c -0.152344,0.9492188 -0.339844,1.6054688 -0.632813,2.15625 -0.5742184,1.1484375 -1.7578121,1.8046875 -3.2460934,1.8046875 -2.7773437,0 -4.5351562,-2.2265625 -4.5351562,-5.7070312 0,-3.5742187 1.6640625,-5.7656247 4.3828125,-5.7656247 1.125,0 2.1796875,0.316406 2.7539062,0.878906 0.5156249,0.46875 0.7968749,1.042969 1.0078129,2.0976562 z m 47.405273,5.4375 1.429688,4.1835937375 h 1.992187 L 58.583508,-13.945602 h -2.296875 l -4.96875,13.9453129375 h 1.886719 L 54.681164,-4.1838828 Z m -0.503906,-1.5 h -4.429687 l 2.285156,-6.3515622 z m 0,0"
       style="fill:#000000;fill-opacity:1;fill-rule:nonzero;stroke:none"
       aria-label="CA"
       transform="matrix(1.3333333,0,0,1.3333333,424.916,483.23867)" />
    <path
       id="path16"
       d="m 3378.08,4338.13 h 254.95"
       style="fill:none;stroke:#000000;stroke-width:15.9343;stroke-linecap:butt;stroke-linejoin:miter;stroke-miterlimit:10;stroke-dasharray:none;stroke-opacity:1"
       transform="matrix(0.13333333,0,0,-0.13333333,0,1056)" />
    <path
       id="path17"
       d="M 3545.39,4368.25 3665.88,4338.13 3545.39,4308"
       style="fill:#000000;fill-opacity:1;fill-rule:evenodd;stroke:none"
       transform="matrix(0.13333333,0,0,-0.13333333,0,1056)" />
    <path
       id="path18"
       d="m 3553.36,4358.04 79.67,-19.91 -79.67,-19.92"
       style="fill:none;stroke:#000000;stroke-width:15.9343;stroke-linecap:butt;stroke-linejoin:miter;stroke-miterlimit:10;stroke-dasharray:none;stroke-opacity:1"
       transform="matrix(0.13333333,0,0,-0.13333333,0,1056)" />
    <path
       id="path19"
       d="m 513.883,4529.34 h 764.848 v 254.949 H 513.883 Z"
       style="fill:#ffffff;fill-opacity:1;fill-rule:evenodd;stroke:#000000;stroke-width:7.96717;stroke-linecap:butt;stroke-linejoin:miter;stroke-miterlimit:10;stroke-dasharray:none;stroke-opacity:1"
       transform="matrix(0.13333333,0,0,-0.13333333,0,1056)" />
    <path
       id="path20"
       d="m 12.655831,-9.6225234 c -0.550781,-3.0585936 -2.308593,-4.5468746 -5.3671872,-4.5468746 -1.875,0 -3.3867188,0.585937 -4.4179688,1.734375 -1.265625,1.382812 -1.95703125,3.3632808 -1.95703125,5.6249996 0,2.296875 0.71484375,4.265625 2.01562505,5.625 1.0898437,1.10156246 2.4609375,1.62890621 4.2773437,1.62890621 3.4101565,0 5.3203125,-1.83984371 5.7421875,-5.53125001 h -1.839844 c -0.152343,0.9492188 -0.339843,1.6054688 -0.632812,2.15625 -0.574219,1.1484375 -1.7578127,1.8046875 -3.246094,1.8046875 -2.7773437,0 -4.5351562,-2.2265625 -4.5351562,-5.7070312 0,-3.5742191 1.6640625,-5.7656251 4.3828125,-5.7656251 1.125,0 2.1796875,0.316406 2.7539062,0.878906 0.5156255,0.46875 0.7968755,1.042969 1.0078125,2.0976566 z m 47.405274,5.4375 1.429687,4.18359371 H 63.48298 L 58.584542,-13.946742 h -2.296875 l -4.96875,13.94531231 h 1.886719 l 1.476562,-4.18359371 z m -0.503907,-1.5 h -4.429687 l 2.285156,-6.3515626 z m 0,0"
       style="fill:#000000;fill-opacity:1;fill-rule:nonzero;stroke:none"
       aria-label="CA"
       transform="matrix(1.3333333,0,0,1.3333333,76.484933,440.748)" />
    <path
       id="path21"
       d="M 764.848,4656.81 H 1019.8"
       style="fill:none;stroke:#000000;stroke-width:15.9343;stroke-linecap:butt;stroke-linejoin:miter;stroke-miterlimit:10;stroke-dasharray:none;stroke-opacity:1"
       transform="matrix(0.13333333,0,0,-0.13333333,0,1056)" />
    <path
       id="path22"
       d="m 932.16,4686.93 120.49,-30.12 -120.49,-30.12"
       style="fill:#000000;fill-opacity:1;fill-rule:evenodd;stroke:none"
       transform="matrix(0.13333333,0,0,-0.13333333,0,1056)" />
    <path
       id="path23"
       d="m 940.125,4676.73 79.675,-19.92 -79.675,-19.92"
       style="fill:none;stroke:#000000;stroke-width:15.9343;stroke-linecap:butt;stroke-linejoin:miter;stroke-miterlimit:10;stroke-dasharray:none;stroke-opacity:1"
       transform="matrix(0.13333333,0,0,-0.13333333,0,1056)" />
    <path
       id="path24"
       d="m 2872.16,5421.66 h 764.848 v 254.949 H 2872.16 Z"
       style="fill:#ffffff;fill-opacity:1;fill-rule:evenodd;stroke:#000000;stroke-width:7.96717;stroke-linecap:butt;stroke-linejoin:miter;stroke-miterlimit:10;stroke-dasharray:none;stroke-opacity:1"
       transform="matrix(0.13333333,0,0,-0.13333333,0,1056)" />
    <path
       id="path25"
       d="M 12.655656,-9.6219453 C 12.104875,-12.680539 10.347062,-14.16882 7.2884687,-14.16882 c -1.875,0 -3.3867187,0.585937 -4.4179687,1.734375 -1.265625,1.382812 -1.95703125,3.3632809 -1.95703125,5.6249997 0,2.296875 0.71484375,4.265625 2.01562495,5.625 1.0898438,1.10156249 2.4609375,1.62890624 4.2773438,1.62890624 3.4101565,0 5.3203125,-1.83984374 5.7421875,-5.53125004 h -1.839844 c -0.152344,0.9492188 -0.339844,1.6054688 -0.632812,2.15625 -0.574219,1.1484375 -1.7578128,1.8046875 -3.246094,1.8046875 -2.7773438,0 -4.5351563,-2.2265625 -4.5351563,-5.7070312 0,-3.5742192 1.6640625,-5.7656252 4.3828125,-5.7656252 1.125,0 2.1796875,0.316406 2.7539063,0.878906 0.5156245,0.46875 0.7968745,1.042969 1.0078125,2.0976567 z m 47.405274,5.4375 1.429687,4.1835937375 h 1.992188 L 58.584367,-13.946164 h -2.296875 l -4.96875,13.9453124375 h 1.886719 L 54.682023,-4.1844453 Z m -0.503907,-1.5 h -4.429687 l 2.285156,-6.3515627 z m 0,0"
       style="fill:#000000;fill-opacity:1;fill-rule:nonzero;stroke:none"
       aria-label="CA"
       transform="matrix(1.3333333,0,0,1.3333333,390.92267,321.77067)" />
    <path
       id="path26"
       d="m 3123.13,5549.13 h 254.95"
       style="fill:none;stroke:#000000;stroke-width:15.9343;stroke-linecap:butt;stroke-linejoin:miter;stroke-miterlimit:10;stroke-dasharray:none;stroke-opacity:1"
       transform="matrix(0.13333333,0,0,-0.13333333,0,1056)" />
    <path
       id="path27"
       d="m 3290.44,5579.26 120.49,-30.13 -120.49,-30.12"
       style="fill:#000000;fill-opacity:1;fill-rule:evenodd;stroke:none"
       transform="matrix(0.13333333,0,0,-0.13333333,0,1056)" />
    <path
       id="path28"
       d="m 3298.41,5569.05 79.67,-19.92 -79.67,-19.92"
       style="fill:none;stroke:#000000;stroke-width:15.9343;stroke-linecap:butt;stroke-linejoin:miter;stroke-miterlimit:10;stroke-dasharray:none;stroke-opacity:1"
       transform="matrix(0.13333333,0,0,-0.13333333,0,1056)" />
    <path
       id="path29"
       d="m 1979.84,5039.23 h 764.848 v 254.949 H 1979.84 Z"
       style="fill:#ffffff;fill-opacity:1;fill-rule:evenodd;stroke:#000000;stroke-width:7.96717;stroke-linecap:butt;stroke-linejoin:miter;stroke-miterlimit:10;stroke-dasharray:none;stroke-opacity:1"
       transform="matrix(0.13333333,0,0,-0.13333333,0,1056)" />
    <path
       id="path30"
       d="M 12.656234,-9.6208047 C 12.105453,-12.679398 10.347641,-14.16768 7.2890469,-14.16768 c -1.875,0 -3.3867188,0.585938 -4.4179688,1.734375 -1.265625,1.382813 -1.95703123,3.3632816 -1.95703123,5.6250003 0,2.296875 0.71484373,4.265625 2.01562503,5.625 1.0898437,1.10156251 2.4609375,1.62890626 4.2773437,1.62890626 3.4101564,0 5.3203124,-1.83984376 5.7421874,-5.53124996 h -1.839844 c -0.152343,0.9492187 -0.339843,1.6054687 -0.632812,2.15625 -0.5742189,1.1484375 -1.7578126,1.8046875 -3.2460939,1.8046875 -2.7773437,0 -4.5351562,-2.2265625 -4.5351562,-5.7070313 0,-3.5742188 1.6640625,-5.7656248 4.3828125,-5.7656248 1.125,0 2.1796875,0.316406 2.7539062,0.878906 0.5156254,0.46875 0.7968754,1.042969 1.0078124,2.0976563 z m 47.405274,5.4375 1.429687,4.1835937625 h 1.992188 L 58.584945,-13.945023 H 56.28807 L 51.31932,2.890625e-4 h 1.886719 L 54.682602,-4.1833047 Z m -0.503906,-1.5 h -4.429688 l 2.285156,-6.3515623 z m 0,0"
       style="fill:#000000;fill-opacity:1;fill-rule:nonzero;stroke:none"
       aria-label="CA"
       transform="matrix(1.3333333,0,0,1.3333333,271.94533,372.76133)" />
    <path
       id="path31"
       d="m 2230.81,5166.71 h 254.95"
       style="fill:none;stroke:#000000;stroke-width:15.9343;stroke-linecap:butt;stroke-linejoin:miter;stroke-miterlimit:10;stroke-dasharray:none;stroke-opacity:1"
       transform="matrix(0.13333333,0,0,-0.13333333,0,1056)" />
    <path
       id="path32"
       d="m 2398.12,5196.83 120.49,-30.12 -120.49,-30.12"
       style="fill:#000000;fill-opacity:1;fill-rule:evenodd;stroke:none"
       transform="matrix(0.13333333,0,0,-0.13333333,0,1056)" />
    <path
       id="path33"
       d="m 2406.09,5186.63 79.67,-19.92 -79.67,-19.92"
       style="fill:none;stroke:#000000;stroke-width:15.9343;stroke-linecap:butt;stroke-linejoin:miter;stroke-miterlimit:10;stroke-dasharray:none;stroke-opacity:1"
       transform="matrix(0.13333333,0,0,-0.13333333,0,1056)" />
    <path
       id="path34"
       d="m 3063.38,5039.23 h 764.848 v 254.949 H 3063.38 Z"
       style="fill:#ffffff;fill-opacity:1;fill-rule:evenodd;stroke:#000000;stroke-width:7.96717;stroke-linecap:butt;stroke-linejoin:miter;stroke-miterlimit:10;stroke-dasharray:none;stroke-opacity:1"
       transform="matrix(0.13333333,0,0,-0.13333333,0,1056)" />
    <path
       id="path35"
       d="M 12.656727,-9.6208047 C 12.105945,-12.679398 10.348133,-14.16768 7.2895391,-14.16768 c -1.875,0 -3.3867188,0.585938 -4.4179688,1.734375 -1.265625,1.382813 -1.95703124,3.3632816 -1.95703124,5.6250003 0,2.296875 0.71484374,4.265625 2.01562504,5.625 1.0898437,1.10156251 2.4609375,1.62890626 4.2773437,1.62890626 3.4101562,0 5.3203122,-1.83984376 5.7421872,-5.53124996 h -1.839843 c -0.152344,0.9492187 -0.339844,1.6054687 -0.632813,2.15625 -0.5742187,1.1484375 -1.7578124,1.8046875 -3.2460937,1.8046875 -2.7773437,0 -4.5351562,-2.2265625 -4.5351562,-5.7070313 0,-3.5742188 1.6640625,-5.7656248 4.3828125,-5.7656248 1.125,0 2.1796875,0.316406 2.7539062,0.878906 0.5156252,0.46875 0.7968752,1.042969 1.0078122,2.0976563 z m 47.402343,5.4375 1.429688,4.1835937625 h 1.992187 L 58.582508,-13.945023 H 56.285633 L 51.316883,2.890625e-4 h 1.886719 L 54.680164,-4.1833047 Z m -0.503906,-1.5 h -4.429687 l 2.285156,-6.3515623 z m 0,0"
       style="fill:#000000;fill-opacity:1;fill-rule:nonzero;stroke:none"
       aria-label="CA"
       transform="matrix(1.3333333,0,0,1.3333333,416.41733,372.76133)" />
    <path
       id="path36"
       d="m 3314.34,5166.71 h 254.95"
       style="fill:none;stroke:#000000;stroke-width:15.9343;stroke-linecap:butt;stroke-linejoin:miter;stroke-miterlimit:10;stroke-dasharray:none;stroke-opacity:1"
       transform="matrix(0.13333333,0,0,-0.13333333,0,1056)" />
    <path
       id="path37"
       d="m 3481.65,5196.83 120.49,-30.12 -120.49,-30.12"
       style="fill:#000000;fill-opacity:1;fill-rule:evenodd;stroke:none"
       transform="matrix(0.13333333,0,0,-0.13333333,0,1056)" />
    <path
       id="path38"
       d="m 3489.62,5186.63 79.67,-19.92 -79.67,-19.92"
       style="fill:none;stroke:#000000;stroke-width:15.9343;stroke-linecap:butt;stroke-linejoin:miter;stroke-miterlimit:10;stroke-dasharray:none;stroke-opacity:1"
       transform="matrix(0.13333333,0,0,-0.13333333,0,1056)" />
    <path
       id="path39"
       d="m 641.355,4975.5 h 764.852 v 254.949 H 641.355 Z"
       style="fill:#ffffff;fill-opacity:1;fill-rule:evenodd;stroke:#000000;stroke-width:7.96717;stroke-linecap:butt;stroke-linejoin:miter;stroke-miterlimit:10;stroke-dasharray:none;stroke-opacity:1"
       transform="matrix(0.13333333,0,0,-0.13333333,0,1056)" />
    <path
       id="path40"
       d="M 12.655702,-9.6198047 C 12.10492,-12.678398 10.347108,-14.16668 7.2885141,-14.16668 c -1.875,0 -3.3867188,0.585938 -4.4179688,1.734375 -1.265625,1.382813 -1.95703124,3.3632816 -1.95703124,5.6250003 0,2.296875 0.71484374,4.265625 2.01562504,5.625 1.0898437,1.10156251 2.4609375,1.62890626 4.2773437,1.62890626 3.4101562,0 5.3203122,-1.83984376 5.7421872,-5.53124996 h -1.839843 c -0.152344,0.9492187 -0.339844,1.6054687 -0.632813,2.15625 -0.5742187,1.1484375 -1.7578124,1.8046875 -3.2460937,1.8046875 -2.7773437,0 -4.5351562,-2.2265625 -4.5351562,-5.7070313 0,-3.5742188 1.6640625,-5.7656248 4.3828125,-5.7656248 1.125,0 2.1796875,0.316406 2.7539062,0.878906 0.5156252,0.46875 0.7968752,1.042969 1.0078122,2.0976563 z m 47.405273,5.4375 1.429687,4.18359376 H 63.48285 L 58.584412,-13.944023 h -2.296875 l -4.96875,13.94531206 h 1.886719 l 1.476563,-4.18359376 z m -0.503906,-1.5 h -4.429688 l 2.285156,-6.3515623 z m 0,0"
       style="fill:#000000;fill-opacity:1;fill-rule:nonzero;stroke:none"
       aria-label="CA"
       transform="matrix(1.3333333,0,0,1.3333333,93.4812,381.26)" />
    <path
       id="path41"
       d="M 892.324,5102.97 H 1147.27"
       style="fill:none;stroke:#000000;stroke-width:15.9343;stroke-linecap:butt;stroke-linejoin:miter;stroke-miterlimit:10;stroke-dasharray:none;stroke-opacity:1"
       transform="matrix(0.13333333,0,0,-0.13333333,0,1056)" />
    <path
       id="path42"
       d="m 1059.63,5133.09 120.49,-30.12 -120.49,-30.12"
       style="fill:#000000;fill-opacity:1;fill-rule:evenodd;stroke:none"
       transform="matrix(0.13333333,0,0,-0.13333333,0,1056)" />
    <path
       id="path43"
       d="m 1067.6,5122.89 79.67,-19.92 -79.67,-19.92"
       style="fill:none;stroke:#000000;stroke-width:15.9343;stroke-linecap:butt;stroke-linejoin:miter;stroke-miterlimit:10;stroke-dasharray:none;stroke-opacity:1"
       transform="matrix(0.13333333,0,0,-0.13333333,0,1056)" />
    <path
       id="path44"
       d="m 1979.84,5740.35 h 764.848 v 254.949 H 1979.84 Z"
       style="fill:#ffffff;fill-opacity:1;fill-rule:evenodd;stroke:#000000;stroke-width:15.9343;stroke-linecap:butt;stroke-linejoin:miter;stroke-miterlimit:10;stroke-dasharray:none;stroke-opacity:1"
       transform="matrix(0.13333333,0,0,-0.13333333,0,1056)" />
    <path
       id="path45"
       d="m 12.656234,-9.6201563 c -0.550781,-3.0585937 -2.308593,-4.5468747 -5.3671871,-4.5468747 -1.875,0 -3.3867188,0.585937 -4.4179688,1.734375 -1.265625,1.382812 -1.95703123,3.363281 -1.95703123,5.6249997 0,2.296875 0.71484373,4.265625 2.01562503,5.625 1.0898437,1.10156255 2.4609375,1.6289063 4.2773437,1.6289063 3.4101564,0 5.3203124,-1.8398438 5.7421874,-5.53125 h -1.839844 c -0.152343,0.9492187 -0.339843,1.6054687 -0.632812,2.15625 -0.5742189,1.1484375 -1.7578126,1.8046875 -3.2460939,1.8046875 -2.7773437,0 -4.5351562,-2.2265625 -4.5351562,-5.7070313 0,-3.5742192 1.6640625,-5.7656252 4.3828125,-5.7656252 1.125,0 2.1796875,0.316406 2.7539062,0.878906 0.5156254,0.46875 0.7968754,1.042969 1.0078124,2.0976567 z m 47.405274,5.4375 1.429687,4.1835938 h 1.992188 L 58.584945,-13.944375 H 56.28807 L 51.31932,9.375e-4 h 1.886719 l 1.476563,-4.1835938 z m -0.503906,-1.5 h -4.429688 l 2.285156,-6.3515627 z m 0,0"
       style="fill:#000000;fill-opacity:1;fill-rule:nonzero;stroke:none"
       aria-label="CA"
       transform="matrix(1.3333333,0,0,1.3333333,271.94533,279.28)" />
    <path
       id="path46"
       d="m 2230.81,5867.82 h 254.95"
       style="fill:none;stroke:#000000;stroke-width:15.9343;stroke-linecap:butt;stroke-linejoin:miter;stroke-miterlimit:10;stroke-dasharray:none;stroke-opacity:1"
       transform="matrix(0.13333333,0,0,-0.13333333,0,1056)" />
    <path
       id="path47"
       d="m 2398.12,5897.94 120.49,-30.12 -120.49,-30.12"
       style="fill:#000000;fill-opacity:1;fill-rule:evenodd;stroke:none"
       transform="matrix(0.13333333,0,0,-0.13333333,0,1056)" />
    <path
       id="path48"
       d="m 2406.09,5887.74 79.67,-19.92 -79.67,-19.92"
       style="fill:none;stroke:#000000;stroke-width:15.9343;stroke-linecap:butt;stroke-linejoin:miter;stroke-miterlimit:10;stroke-dasharray:none;stroke-opacity:1"
       transform="matrix(0.13333333,0,0,-0.13333333,0,1056)" />
    <path
       id="path49"
       d="m 3509.54,4656.81 h 764.848 v 254.949 H 3509.54 Z"
       style="fill:#ffffff;fill-opacity:1;fill-rule:evenodd;stroke:#000000;stroke-width:7.96717;stroke-linecap:butt;stroke-linejoin:miter;stroke-miterlimit:10;stroke-dasharray:none;stroke-opacity:1"
       transform="matrix(0.13333333,0,0,-0.13333333,0,1056)" />
    <path
       id="path50"
       d="m 12.656938,-9.6215937 c -0.550782,-3.0585933 -2.308594,-4.5468753 -5.367188,-4.5468753 -1.875,0 -3.3867187,0.585938 -4.4179687,1.734375 -1.265625,1.382813 -1.9570313,3.3632815 -1.9570313,5.6250003 0,2.296875 0.7148438,4.265625 2.015625,5.625 1.0898438,1.10156245 2.4609375,1.6289062 4.2773438,1.6289062 3.4101562,0 5.3203122,-1.8398437 5.7421872,-5.53125 h -1.839843 c -0.152344,0.9492188 -0.339844,1.6054688 -0.632813,2.15625 C 9.9030313,-1.78175 8.7194375,-1.1255 7.2311563,-1.1255 4.4538125,-1.1255 2.696,-3.3520625 2.696,-6.8325312 c 0,-3.5742188 1.6640625,-5.7656248 4.3828125,-5.7656248 1.125,0 2.1796875,0.316406 2.7539063,0.878906 0.5156252,0.46875 0.7968752,1.042969 1.0078122,2.0976563 z m 47.402343,5.4375 L 61.488969,-5e-4 h 1.992187 L 58.582719,-13.945812 H 56.285844 L 51.317094,-5e-4 h 1.886719 l 1.476562,-4.1835937 z m -0.503906,-1.5 h -4.429687 l 2.285156,-6.3515623 z m 0,0"
       style="fill:#000000;fill-opacity:1;fill-rule:nonzero;stroke:none"
       aria-label="CA"
       transform="matrix(1.3333333,0,0,1.3333333,475.90533,423.75067)" />
    <path
       id="path51"
       d="m 3760.5,4784.29 h 254.95"
       style="fill:none;stroke:#000000;stroke-width:15.9343;stroke-linecap:butt;stroke-linejoin:miter;stroke-miterlimit:10;stroke-dasharray:none;stroke-opacity:1"
       transform="matrix(0.13333333,0,0,-0.13333333,0,1056)" />
    <path
       id="path52"
       d="m 3927.82,4814.41 120.48,-30.12 -120.48,-30.13"
       style="fill:#000000;fill-opacity:1;fill-rule:evenodd;stroke:none"
       transform="matrix(0.13333333,0,0,-0.13333333,0,1056)" />
    <path
       id="path53"
       d="m 3935.78,4804.2 79.67,-19.91 -79.67,-19.92"
       style="fill:none;stroke:#000000;stroke-width:15.9343;stroke-linecap:butt;stroke-linejoin:miter;stroke-miterlimit:10;stroke-dasharray:none;stroke-opacity:1"
       transform="matrix(0.13333333,0,0,-0.13333333,0,1056)" />
    <path
       id="path54"
       d="m 3318.33,3828.23 h 764.848 v 254.949 H 3318.33 Z"
       style="fill:#ffffff;fill-opacity:1;fill-rule:evenodd;stroke:#000000;stroke-width:7.96717;stroke-linecap:butt;stroke-linejoin:miter;stroke-miterlimit:10;stroke-dasharray:none;stroke-opacity:1"
       transform="matrix(0.13333333,0,0,-0.13333333,0,1056)" />
    <path
       id="path55"
       d="m 12.655867,-9.6202422 c -0.550781,-3.0585938 -2.308594,-4.5468748 -5.3671873,-4.5468748 -1.875,0 -3.3867188,0.585937 -4.4179688,1.734375 -1.265625,1.382812 -1.95703121,3.3632811 -1.95703121,5.6249998 0,2.296875 0.71484371,4.265625 2.01562501,5.625 1.0898437,1.10156251 2.4609375,1.62890626 4.2773437,1.62890626 3.4101566,0 5.3203126,-1.83984376 5.7421876,-5.53124996 h -1.839844 c -0.152344,0.9492187 -0.339844,1.6054687 -0.632812,2.15625 -0.5742191,1.1484375 -1.7578128,1.8046875 -3.2460941,1.8046875 -2.7773437,0 -4.5351562,-2.2265625 -4.5351562,-5.7070313 0,-3.5742183 1.6640625,-5.7656253 4.3828125,-5.7656253 1.125,0 2.1796875,0.316407 2.7539062,0.878907 0.5156246,0.46875 0.7968746,1.042968 1.0078126,2.0976558 z m 47.405274,5.4375 1.429687,4.1835937625 h 1.992188 L 58.584578,-13.944461 H 56.287703 L 51.318953,8.515625e-4 h 1.886719 L 54.682234,-4.1827422 Z m -0.503907,-1.5 h -4.429687 l 2.285156,-6.3515628 z m 0,0"
       style="fill:#000000;fill-opacity:1;fill-rule:nonzero;stroke:none"
       aria-label="CA"
       transform="matrix(1.3333333,0,0,1.3333333,450.41067,534.22933)" />
    <path
       id="path56"
       d="m 3569.29,3955.7 h 254.95"
       style="fill:none;stroke:#000000;stroke-width:15.9343;stroke-linecap:butt;stroke-linejoin:miter;stroke-miterlimit:10;stroke-dasharray:none;stroke-opacity:1"
       transform="matrix(0.13333333,0,0,-0.13333333,0,1056)" />
    <path
       id="path57"
       d="m 3736.6,3985.82 120.49,-30.12 -120.49,-30.12"
       style="fill:#000000;fill-opacity:1;fill-rule:evenodd;stroke:none"
       transform="matrix(0.13333333,0,0,-0.13333333,0,1056)" />
    <path
       id="path58"
       d="m 3744.57,3975.62 79.67,-19.92 -79.67,-19.92"
       style="fill:none;stroke:#000000;stroke-width:15.9343;stroke-linecap:butt;stroke-linejoin:miter;stroke-miterlimit:10;stroke-dasharray:none;stroke-opacity:1"
       transform="matrix(0.13333333,0,0,-0.13333333,0,1056)" />
    <path
       id="path59"
       d="m 2298.53,3828.23 h 764.848 v 254.949 H 2298.53 Z"
       style="fill:#ffffff;fill-opacity:1;fill-rule:evenodd;stroke:#000000;stroke-width:7.96717;stroke-linecap:butt;stroke-linejoin:miter;stroke-miterlimit:10;stroke-dasharray:none;stroke-opacity:1"
       transform="matrix(0.13333333,0,0,-0.13333333,0,1056)" />
    <path
       id="path60"
       d="m 12.656375,-9.6202422 c -0.550781,-3.0585938 -2.308594,-4.5468748 -5.3671875,-4.5468748 -1.875,0 -3.3867188,0.585937 -4.4179688,1.734375 -1.265625,1.382812 -1.9570312,3.3632811 -1.9570312,5.6249998 0,2.296875 0.7148437,4.265625 2.015625,5.625 1.0898437,1.10156251 2.4609375,1.62890626 4.2773437,1.62890626 3.4101558,0 5.3203128,-1.83984376 5.7421878,-5.53124996 H 11.1095 c -0.152344,0.9492187 -0.339844,1.6054687 -0.632813,2.15625 -0.5742183,1.1484375 -1.757812,1.8046875 -3.2460933,1.8046875 -2.7773437,0 -4.5351562,-2.2265625 -4.5351562,-5.7070313 0,-3.5742183 1.6640625,-5.7656253 4.3828125,-5.7656253 1.125,0 2.1796875,0.316407 2.7539062,0.878907 0.5156248,0.46875 0.7968748,1.042968 1.0078128,2.0976558 z m 47.402344,5.4375 1.429687,4.1835937625 h 1.992188 L 58.582156,-13.944461 H 56.285281 L 51.316531,8.515625e-4 H 53.20325 L 54.679812,-4.1827422 Z m -0.503907,-1.5 h -4.429687 l 2.285156,-6.3515628 z m 0,0"
       style="fill:#000000;fill-opacity:1;fill-rule:nonzero;stroke:none"
       aria-label="CA"
       transform="matrix(1.3333333,0,0,1.3333333,314.43733,534.22933)" />
    <path
       id="path61"
       d="m 2549.5,3955.7 h 254.95"
       style="fill:none;stroke:#000000;stroke-width:15.9343;stroke-linecap:butt;stroke-linejoin:miter;stroke-miterlimit:10;stroke-dasharray:none;stroke-opacity:1"
       transform="matrix(0.13333333,0,0,-0.13333333,0,1056)" />
    <path
       id="path62"
       d="m 2716.8,3985.82 120.49,-30.12 -120.49,-30.12"
       style="fill:#000000;fill-opacity:1;fill-rule:evenodd;stroke:none"
       transform="matrix(0.13333333,0,0,-0.13333333,0,1056)" />
    <path
       id="path63"
       d="m 2724.77,3975.62 79.68,-19.92 -79.68,-19.92"
       style="fill:none;stroke:#000000;stroke-width:15.9343;stroke-linecap:butt;stroke-linejoin:miter;stroke-miterlimit:10;stroke-dasharray:none;stroke-opacity:1"
       transform="matrix(0.13333333,0,0,-0.13333333,0,1056)" />
    <path
       id="path64"
       d="m 1916.11,4274.39 h 764.848 v 254.949 H 1916.11 Z"
       style="fill:#ffffff;fill-opacity:1;fill-rule:evenodd;stroke:#000000;stroke-width:7.96717;stroke-linecap:butt;stroke-linejoin:miter;stroke-miterlimit:10;stroke-dasharray:none;stroke-opacity:1"
       transform="matrix(0.13333333,0,0,-0.13333333,0,1056)" />
    <path
       id="path65"
       d="m 12.657164,-9.6223828 c -0.550781,-3.0585942 -2.308594,-4.5468752 -5.3671874,-4.5468752 -1.875,0 -3.3867188,0.585938 -4.4179688,1.734375 -1.265625,1.382813 -1.95703124,3.3632814 -1.95703124,5.6250002 0,2.296875 0.71484374,4.265625 2.01562504,5.625 1.0898437,1.10156249 2.4609375,1.62890624 4.2773437,1.62890624 3.4101567,0 5.3203127,-1.83984374 5.7421877,-5.53125004 h -1.839844 c -0.152344,0.9492188 -0.339844,1.6054688 -0.632812,2.15625 -0.5742192,1.1484375 -1.7578129,1.8046875 -3.2460942,1.8046875 -2.7773437,0 -4.5351562,-2.2265625 -4.5351562,-5.7070312 0,-3.5742187 1.6640625,-5.7656247 4.3828125,-5.7656247 1.125,0 2.1796875,0.316406 2.7539062,0.878906 0.5156247,0.46875 0.7968747,1.042969 1.0078127,2.0976562 z m 47.402344,5.4375 1.429687,4.18359374 h 1.992188 L 58.582945,-13.946602 H 56.28607 l -4.96875,13.94531294 h 1.886719 l 1.476563,-4.18359374 z m -0.503906,-1.5 h -4.429688 l 2.285156,-6.3515622 z m 0,0"
       style="fill:#000000;fill-opacity:1;fill-rule:nonzero;stroke:none"
       aria-label="CA"
       transform="matrix(1.3333333,0,0,1.3333333,263.448,474.74)" />
    <path
       id="path66"
       d="m 2167.07,4401.86 h 254.95"
       style="fill:none;stroke:#000000;stroke-width:15.9343;stroke-linecap:butt;stroke-linejoin:miter;stroke-miterlimit:10;stroke-dasharray:none;stroke-opacity:1"
       transform="matrix(0.13333333,0,0,-0.13333333,0,1056)" />
    <path
       id="path67"
       d="m 2334.38,4431.98 120.49,-30.12 -120.49,-30.12"
       style="fill:#000000;fill-opacity:1;fill-rule:evenodd;stroke:none"
       transform="matrix(0.13333333,0,0,-0.13333333,0,1056)" />
    <path
       id="path68"
       d="m 2342.35,4421.78 79.67,-19.92 -79.67,-19.91"
       style="fill:none;stroke:#000000;stroke-width:15.9343;stroke-linecap:butt;stroke-linejoin:miter;stroke-miterlimit:10;stroke-dasharray:none;stroke-opacity:1"
       transform="matrix(0.13333333,0,0,-0.13333333,0,1056)" />
    <path
       id="path69"
       d="m 2107.32,3190.85 h 764.848 v 254.949 H 2107.32 Z"
       style="fill:#ffffff;fill-opacity:1;fill-rule:evenodd;stroke:#000000;stroke-width:7.96717;stroke-linecap:butt;stroke-linejoin:miter;stroke-miterlimit:10;stroke-dasharray:none;stroke-opacity:1"
       transform="matrix(0.13333333,0,0,-0.13333333,0,1056)" />
    <path
       id="path70"
       d="m 12.655305,-9.6218906 c -0.550782,-3.0585934 -2.308594,-4.5468754 -5.3671878,-4.5468754 -1.875,0 -3.3867188,0.585938 -4.4179688,1.734375 -1.265625,1.382813 -1.95703121,3.3632816 -1.95703121,5.6250004 0,2.296875 0.71484371,4.265625 2.01562501,5.625 1.0898437,1.10156247 2.4609375,1.62890622 4.2773437,1.62890622 3.4101561,0 5.3203121,-1.83984372 5.7421871,-5.53125002 H 11.10843 c -0.152344,0.9492188 -0.339844,1.6054688 -0.632813,2.15625 -0.5742186,1.1484375 -1.7578123,1.8046875 -3.2460936,1.8046875 -2.7773437,0 -4.5351562,-2.2265625 -4.5351562,-5.7070312 0,-3.5742189 1.6640625,-5.7656249 4.3828125,-5.7656249 1.125,0 2.1796875,0.316406 2.7539062,0.878906 0.5156251,0.46875 0.7968751,1.042969 1.0078121,2.0976564 z m 47.405273,5.4375 1.429688,4.183593725 h 1.992187 L 58.584016,-13.946109 h -2.296875 l -4.96875,13.945312125 h 1.886718 L 54.681672,-4.1843906 Z m -0.503906,-1.5 h -4.429688 l 2.285157,-6.3515624 z m 0,0"
       style="fill:#000000;fill-opacity:1;fill-rule:nonzero;stroke:none"
       aria-label="CA"
       transform="matrix(1.3333333,0,0,1.3333333,288.94267,619.212)" />
    <path
       id="path71"
       d="m 2358.28,3318.32 h 254.95"
       style="fill:none;stroke:#000000;stroke-width:15.9343;stroke-linecap:butt;stroke-linejoin:miter;stroke-miterlimit:10;stroke-dasharray:none;stroke-opacity:1"
       transform="matrix(0.13333333,0,0,-0.13333333,0,1056)" />
    <path
       id="path72"
       d="m 2525.59,3348.45 120.49,-30.13 -120.49,-30.12"
       style="fill:#000000;fill-opacity:1;fill-rule:evenodd;stroke:none"
       transform="matrix(0.13333333,0,0,-0.13333333,0,1056)" />
    <path
       id="path73"
       d="m 2533.56,3338.24 79.67,-19.92 -79.67,-19.91"
       style="fill:none;stroke:#000000;stroke-width:15.9343;stroke-linecap:butt;stroke-linejoin:miter;stroke-miterlimit:10;stroke-dasharray:none;stroke-opacity:1"
       transform="matrix(0.13333333,0,0,-0.13333333,0,1056)" />
    <path
       id="path74"
       d="m 1469.94,3700.75 h 764.852 v 254.949 H 1469.94 Z"
       style="fill:#ffffff;fill-opacity:1;fill-rule:evenodd;stroke:#000000;stroke-width:7.96717;stroke-linecap:butt;stroke-linejoin:miter;stroke-miterlimit:10;stroke-dasharray:none;stroke-opacity:1"
       transform="matrix(0.13333333,0,0,-0.13333333,0,1056)" />
    <path
       id="path75"
       d="m 12.656953,-9.6201719 c -0.550781,-3.0585941 -2.308594,-4.5468751 -5.3671874,-4.5468751 -1.875,0 -3.3867187,0.585938 -4.4179687,1.734375 -1.265625,1.382813 -1.95703127,3.3632814 -1.95703127,5.6250001 0,2.296875 0.71484377,4.265625 2.01562497,5.625 1.0898438,1.10156252 2.4609375,1.62890627 4.2773438,1.62890627 3.4101566,0 5.3203126,-1.83984377 5.7421876,-5.53124997 h -1.839844 c -0.152344,0.9492187 -0.339844,1.6054687 -0.632812,2.15625 -0.5742191,1.1484375 -1.7578129,1.8046875 -3.2460941,1.8046875 -2.7773438,0 -4.5351563,-2.2265625 -4.5351563,-5.7070313 0,-3.5742186 1.6640625,-5.7656246 4.3828125,-5.7656246 1.125,0 2.1796875,0.316406 2.7539063,0.878906 0.5156246,0.46875 0.7968746,1.042969 1.0078126,2.0976561 z m 47.402344,5.4375 1.429687,4.183593775 h 1.992188 L 58.582734,-13.944391 H 56.285859 L 51.317109,9.21875e-4 h 1.886719 L 54.680391,-4.1826719 Z m -0.503906,-1.5 h -4.429688 l 2.285156,-6.3515621 z m 0,0"
       style="fill:#000000;fill-opacity:1;fill-rule:nonzero;stroke:none"
       aria-label="CA"
       transform="matrix(1.3333333,0,0,1.3333333,203.96,551.22533)" />
    <path
       id="path76"
       d="m 1720.91,3828.23 h 254.95"
       style="fill:none;stroke:#000000;stroke-width:15.9343;stroke-linecap:butt;stroke-linejoin:miter;stroke-miterlimit:10;stroke-dasharray:none;stroke-opacity:1"
       transform="matrix(0.13333333,0,0,-0.13333333,0,1056)" />
    <path
       id="path77"
       d="m 1888.22,3858.35 120.49,-30.12 -120.49,-30.13"
       style="fill:#000000;fill-opacity:1;fill-rule:evenodd;stroke:none"
       transform="matrix(0.13333333,0,0,-0.13333333,0,1056)" />
    <path
       id="path78"
       d="m 1896.19,3848.14 79.67,-19.91 -79.67,-19.92"
       style="fill:none;stroke:#000000;stroke-width:15.9343;stroke-linecap:butt;stroke-linejoin:miter;stroke-miterlimit:10;stroke-dasharray:none;stroke-opacity:1"
       transform="matrix(0.13333333,0,0,-0.13333333,0,1056)" />
    <path
       id="path79"
       d="m 768.832,4146.91 h 764.848 v 254.949 H 768.832 Z"
       style="fill:#ffffff;fill-opacity:1;fill-rule:evenodd;stroke:#000000;stroke-width:7.96717;stroke-linecap:butt;stroke-linejoin:miter;stroke-miterlimit:10;stroke-dasharray:none;stroke-opacity:1"
       transform="matrix(0.13333333,0,0,-0.13333333,0,1056)" />
    <path
       id="path80"
       d="m 12.655072,-9.6203828 c -0.550781,-3.0585942 -2.308594,-4.5468752 -5.3671876,-4.5468752 -1.875,0 -3.3867188,0.585938 -4.4179688,1.734375 -1.265625,1.382813 -1.95703122,3.3632814 -1.95703122,5.6250002 0,2.296875 0.71484372,4.265625 2.01562502,5.625 1.0898437,1.10156249 2.4609375,1.62890624 4.2773437,1.62890624 3.4101559,0 5.3203129,-1.83984374 5.7421879,-5.53125004 h -1.839844 c -0.152344,0.9492188 -0.339844,1.6054688 -0.632813,2.15625 -0.5742184,1.1484375 -1.7578121,1.8046875 -3.2460934,1.8046875 -2.7773437,0 -4.5351562,-2.2265625 -4.5351562,-5.7070312 0,-3.5742187 1.6640625,-5.7656247 4.3828125,-5.7656247 1.125,0 2.1796875,0.316406 2.7539062,0.878906 0.5156249,0.46875 0.7968749,1.042969 1.0078129,2.0976562 z m 47.405273,5.4375 1.429688,4.1835937375 H 63.48222 L 58.583783,-13.944602 H 56.286908 L 51.318158,7.109375e-4 h 1.886719 L 54.681439,-4.1828828 Z m -0.503906,-1.5 h -4.429687 l 2.285156,-6.3515622 z m 0,0"
       style="fill:#000000;fill-opacity:1;fill-rule:nonzero;stroke:none"
       aria-label="CA"
       transform="matrix(1.3333333,0,0,1.3333333,110.47813,491.73733)" />
    <path
       id="path81"
       d="m 1019.8,4274.39 h 254.95"
       style="fill:none;stroke:#000000;stroke-width:15.9343;stroke-linecap:butt;stroke-linejoin:miter;stroke-miterlimit:10;stroke-dasharray:none;stroke-opacity:1"
       transform="matrix(0.13333333,0,0,-0.13333333,0,1056)" />
    <path
       id="path82"
       d="m 1187.11,4304.51 120.49,-30.12 -120.49,-30.12"
       style="fill:#000000;fill-opacity:1;fill-rule:evenodd;stroke:none"
       transform="matrix(0.13333333,0,0,-0.13333333,0,1056)" />
    <path
       id="path83"
       d="m 1195.07,4294.3 79.68,-19.91 -79.68,-19.92"
       style="fill:none;stroke:#000000;stroke-width:15.9343;stroke-linecap:butt;stroke-linejoin:miter;stroke-miterlimit:10;stroke-dasharray:none;stroke-opacity:1"
       transform="matrix(0.13333333,0,0,-0.13333333,0,1056)" />
    <path
       id="path84"
       d="m 1151.26,3382.06 h 764.848 v 254.949 H 1151.26 Z"
       style="fill:#ffffff;fill-opacity:1;fill-rule:evenodd;stroke:#000000;stroke-width:7.96717;stroke-linecap:butt;stroke-linejoin:miter;stroke-miterlimit:10;stroke-dasharray:none;stroke-opacity:1"
       transform="matrix(0.13333333,0,0,-0.13333333,0,1056)" />
    <path
       id="path85"
       d="m 12.656813,-9.6200313 c -0.550782,-3.0585937 -2.308594,-4.5468747 -5.367188,-4.5468747 -1.875,0 -3.3867187,0.585937 -4.4179687,1.734375 -1.265625,1.382812 -1.9570313,3.363281 -1.9570313,5.6249997 0,2.296875 0.7148438,4.265625 2.015625,5.625 1.0898438,1.10156255 2.4609375,1.6289063 4.2773438,1.6289063 3.4101562,0 5.3203122,-1.8398438 5.7421872,-5.53125 h -1.839843 c -0.152344,0.9492187 -0.339844,1.6054687 -0.632813,2.15625 -0.5742187,1.1484375 -1.7578125,1.8046875 -3.2460937,1.8046875 -2.7773438,0 -4.5351563,-2.2265625 -4.5351563,-5.7070313 0,-3.5742192 1.6640625,-5.7656252 4.3828125,-5.7656252 1.125,0 2.1796875,0.316406 2.7539063,0.878906 0.5156252,0.46875 0.7968752,1.042969 1.0078122,2.0976567 z m 47.402343,5.4375 1.429688,4.1835938 h 1.992187 L 58.582594,-13.94425 h -2.296875 l -4.96875,13.9453125 h 1.886718 l 1.476563,-4.1835938 z m -0.503906,-1.5 h -4.429688 l 2.285157,-6.3515627 z m 0,0"
       style="fill:#000000;fill-opacity:1;fill-rule:nonzero;stroke:none"
       aria-label="CA"
       transform="matrix(1.3333333,0,0,1.3333333,161.468,593.71733)" />
    <path
       id="path86"
       d="m 1402.22,3509.54 h 254.95"
       style="fill:none;stroke:#000000;stroke-width:15.9343;stroke-linecap:butt;stroke-linejoin:miter;stroke-miterlimit:10;stroke-dasharray:none;stroke-opacity:1"
       transform="matrix(0.13333333,0,0,-0.13333333,0,1056)" />
    <path
       id="path87"
       d="m 1569.53,3539.66 120.49,-30.12 -120.49,-30.12"
       style="fill:#000000;fill-opacity:1;fill-rule:evenodd;stroke:none"
       transform="matrix(0.13333333,0,0,-0.13333333,0,1056)" />
    <path
       id="path88"
       d="m 1577.5,3529.46 79.67,-19.92 -79.67,-19.92"
       style="fill:none;stroke:#000000;stroke-width:15.9343;stroke-linecap:butt;stroke-linejoin:miter;stroke-miterlimit:10;stroke-dasharray:none;stroke-opacity:1"
       transform="matrix(0.13333333,0,0,-0.13333333,0,1056)" />
    <path
       id="path89"
       d="m 2553.48,4593.07 h 764.852 v 254.949 H 2553.48 Z"
       style="fill:#ffffff;fill-opacity:1;fill-rule:evenodd;stroke:#000000;stroke-width:7.96717;stroke-linecap:butt;stroke-linejoin:miter;stroke-miterlimit:10;stroke-dasharray:none;stroke-opacity:1"
       transform="matrix(0.13333333,0,0,-0.13333333,0,1056)" />
    <path
       id="path90"
       d="m 12.655516,-9.6205938 c -0.550782,-3.0585942 -2.308594,-4.5468752 -5.3671879,-4.5468752 -1.875,0 -3.3867187,0.585938 -4.4179687,1.734375 -1.265625,1.382813 -1.95703127,3.3632815 -1.95703127,5.6250002 0,2.296875 0.71484377,4.265625 2.01562497,5.625 1.0898438,1.10156255 2.4609375,1.6289063 4.2773438,1.6289063 3.4101561,0 5.3203121,-1.8398438 5.7421871,-5.53125 h -1.839843 c -0.152344,0.9492187 -0.339844,1.6054687 -0.632813,2.15625 C 9.9016094,-1.78075 8.7180156,-1.1245 7.2297344,-1.1245 c -2.7773438,0 -4.5351563,-2.2265625 -4.5351563,-5.7070313 0,-3.5742187 1.6640625,-5.7656247 4.3828125,-5.7656247 1.125,0 2.1796875,0.316406 2.7539063,0.878906 0.5156251,0.46875 0.7968751,1.042969 1.0078121,2.0976562 z m 47.405273,5.4375 L 61.490477,5e-4 h 1.992187 L 58.584227,-13.944813 H 56.287352 L 51.318602,5e-4 h 1.886718 l 1.476563,-4.1835938 z m -0.503906,-1.5 h -4.429688 l 2.285157,-6.3515622 z m 0,0"
       style="fill:#000000;fill-opacity:1;fill-rule:nonzero;stroke:none"
       aria-label="CA"
       transform="matrix(1.3333333,0,0,1.3333333,348.43067,432.24933)" />
    <path
       id="path91"
       d="m 2804.45,4720.55 h 254.94"
       style="fill:none;stroke:#000000;stroke-width:15.9343;stroke-linecap:butt;stroke-linejoin:miter;stroke-miterlimit:10;stroke-dasharray:none;stroke-opacity:1"
       transform="matrix(0.13333333,0,0,-0.13333333,0,1056)" />
    <path
       id="path92"
       d="m 2971.75,4750.67 120.49,-30.12 -120.49,-30.12"
       style="fill:#000000;fill-opacity:1;fill-rule:evenodd;stroke:none"
       transform="matrix(0.13333333,0,0,-0.13333333,0,1056)" />
    <path
       id="path93"
       d="m 2979.72,4740.46 79.67,-19.91 -79.67,-19.92"
       style="fill:none;stroke:#000000;stroke-width:15.9343;stroke-linecap:butt;stroke-linejoin:miter;stroke-miterlimit:10;stroke-dasharray:none;stroke-opacity:1"
       transform="matrix(0.13333333,0,0,-0.13333333,0,1056)" />
    <path
       id="path94"
       d="m 1533.68,4656.81 h 764.848 v 254.949 H 1533.68 Z"
       style="fill:#ffffff;fill-opacity:1;fill-rule:evenodd;stroke:#000000;stroke-width:7.96717;stroke-linecap:butt;stroke-linejoin:miter;stroke-miterlimit:10;stroke-dasharray:none;stroke-opacity:1"
       transform="matrix(0.13333333,0,0,-0.13333333,0,1056)" />
    <path
       id="path95"
       d="m 12.656023,-9.6215937 c -0.550781,-3.0585933 -2.308593,-4.5468753 -5.3671871,-4.5468753 -1.875,0 -3.3867187,0.585938 -4.4179687,1.734375 -1.265625,1.382813 -1.95703126,3.3632815 -1.95703126,5.6250003 0,2.296875 0.71484376,4.265625 2.01562496,5.625 1.0898438,1.10156245 2.4609375,1.6289062 4.2773438,1.6289062 3.4101563,0 5.3203123,-1.8398437 5.7421873,-5.53125 h -1.839844 c -0.152343,0.9492188 -0.339843,1.6054688 -0.632812,2.15625 C 9.9021172,-1.78175 8.7185234,-1.1255 7.2302422,-1.1255 c -2.7773438,0 -4.5351563,-2.2265625 -4.5351563,-5.7070312 0,-3.5742188 1.6640625,-5.7656248 4.3828125,-5.7656248 1.125,0 2.1796875,0.316406 2.7539063,0.878906 0.5156253,0.46875 0.7968753,1.042969 1.0078123,2.0976563 z m 47.405274,5.4375 L 61.490984,-5e-4 h 1.992188 L 58.584734,-13.945812 H 56.287859 L 51.319109,-5e-4 h 1.886719 l 1.476563,-4.1835937 z m -0.503906,-1.5 h -4.429688 l 2.285156,-6.3515623 z m 0,0"
       style="fill:#000000;fill-opacity:1;fill-rule:nonzero;stroke:none"
       aria-label="CA"
       transform="matrix(1.3333333,0,0,1.3333333,212.45733,423.75067)" />
    <path
       id="path96"
       d="m 1784.64,4784.29 h 254.95"
       style="fill:none;stroke:#000000;stroke-width:15.9343;stroke-linecap:butt;stroke-linejoin:miter;stroke-miterlimit:10;stroke-dasharray:none;stroke-opacity:1"
       transform="matrix(0.13333333,0,0,-0.13333333,0,1056)" />
    <path
       id="path97"
       d="m 1951.96,4814.41 120.49,-30.12 -120.49,-30.13"
       style="fill:#000000;fill-opacity:1;fill-rule:evenodd;stroke:none"
       transform="matrix(0.13333333,0,0,-0.13333333,0,1056)" />
    <path
       id="path98"
       d="m 1959.93,4804.2 79.67,-19.91 -79.67,-19.92"
       style="fill:none;stroke:#000000;stroke-width:15.9343;stroke-linecap:butt;stroke-linejoin:miter;stroke-miterlimit:10;stroke-dasharray:none;stroke-opacity:1"
       transform="matrix(0.13333333,0,0,-0.13333333,0,1056)" />
    <path
       id="path99"
       d="m 1453.01,5974.38 c 0,0 0,0 19.42,8.14 19.42,8.13 58.26,24.39 106.89,42.49 48.64,18.09 107.06,38.01 178.11,57.26 71.03,19.25 154.69,37.84 233.03,51.79 78.35,13.94 151.38,23.23 231.05,30.54 79.67,7.3 165.99,12.61 231.05,14.6 65.07,2 108.89,0.67 130.8,0 21.91,-0.66 21.91,-0.66 21.91,-0.66"
       style="fill:#ffffff;fill-opacity:1;fill-rule:evenodd;stroke:#cccccc;stroke-width:15.9343;stroke-linecap:butt;stroke-linejoin:miter;stroke-miterlimit:10;stroke-dasharray:none;stroke-opacity:1"
       transform="matrix(0.13333333,0,0,-0.13333333,0,1056)" />
    <path
       id="path100"
       d="m 2999.64,3509.54 h 764.848 v 254.949 H 2999.64 Z"
       style="fill:#ffffff;fill-opacity:1;fill-rule:evenodd;stroke:#000000;stroke-width:7.96717;stroke-linecap:butt;stroke-linejoin:miter;stroke-miterlimit:10;stroke-dasharray:none;stroke-opacity:1"
       transform="matrix(0.13333333,0,0,-0.13333333,0,1056)" />
    <path
       id="path101"
       d="m 12.655727,-9.6220313 c -0.550782,-3.0585937 -2.308594,-4.5468747 -5.3671879,-4.5468747 -1.875,0 -3.3867188,0.585937 -4.4179688,1.734375 -1.265625,1.382812 -1.95703124,3.363281 -1.95703124,5.6249997 0,2.296875 0.71484374,4.265625 2.01562504,5.625 1.0898437,1.10156255 2.4609375,1.6289063 4.2773437,1.6289063 3.4101562,0 5.3203122,-1.8398438 5.7421872,-5.53125 h -1.839843 c -0.152344,0.9492187 -0.339844,1.6054687 -0.632813,2.15625 -0.5742187,1.1484375 -1.7578124,1.8046875 -3.2460937,1.8046875 -2.7773437,0 -4.5351562,-2.2265625 -4.5351562,-5.7070313 0,-3.5742192 1.6640625,-5.7656252 4.3828125,-5.7656252 1.125,0 2.1796875,0.316406 2.7539062,0.878906 0.5156252,0.46875 0.7968752,1.042969 1.0078122,2.0976567 z m 47.405273,5.4375 1.429688,4.1835938 h 1.992187 L 58.584438,-13.94625 h -2.296875 l -4.96875,13.9453125 h 1.886718 l 1.476563,-4.1835938 z m -0.503906,-1.5 h -4.429688 l 2.285157,-6.3515627 z m 0,0"
       style="fill:#000000;fill-opacity:1;fill-rule:nonzero;stroke:none"
       aria-label="CA"
       transform="matrix(1.3333333,0,0,1.3333333,407.91867,576.72)" />
    <path
       id="path102"
       d="m 3250.61,3637.01 h 254.94"
       style="fill:none;stroke:#000000;stroke-width:15.9343;stroke-linecap:butt;stroke-linejoin:miter;stroke-miterlimit:10;stroke-dasharray:none;stroke-opacity:1"
       transform="matrix(0.13333333,0,0,-0.13333333,0,1056)" />
    <path
       id="path103"
       d="m 3417.92,3667.14 120.49,-30.13 -120.49,-30.12"
       style="fill:#000000;fill-opacity:1;fill-rule:evenodd;stroke:none"
       transform="matrix(0.13333333,0,0,-0.13333333,0,1056)" />
    <path
       id="path104"
       d="m 3425.88,3656.93 79.67,-19.92 -79.67,-19.92"
       style="fill:none;stroke:#000000;stroke-width:15.9343;stroke-linecap:butt;stroke-linejoin:miter;stroke-miterlimit:10;stroke-dasharray:none;stroke-opacity:1"
       transform="matrix(0.13333333,0,0,-0.13333333,0,1056)" />
    <g
       id="g104"
       aria-label="action1&#10;(Maybe some more actions)&#10;An Abstract View of Production Memory"
       transform="matrix(1.3333333,0,0,1.3333333,101.97973,202.46133)">
      <path
         id="path105"
         d="m 4.2661766,-0.38701563 c -0.070312,0.0117188 -0.1054688,0.0117188 -0.140625,0.0117188 -0.234375,0 -0.3632813,-0.1171875 -0.3632813,-0.328125 V -3.1526406 c 0,-0.75 -0.5390625,-1.1484375 -1.5703125,-1.1484375 -0.609375,0 -1.1015625,0.1757812 -1.38281249,0.4921875 -0.19921875,0.2109375 -0.26953125,0.4570312 -0.29296875,0.8671875 H 1.1841453 c 0.058594,-0.5039063 0.3632813,-0.7382813 0.984375,-0.7382813 0.609375,0 0.9375,0.2226563 0.9375,0.6210938 v 0.1757812 c -0.011719,0.28125 -0.1523437,0.3867188 -0.703125,0.4570313 -0.9375,0.1171875 -1.078125,0.1523437 -1.3359375,0.2578125 -0.48046874,0.2109375 -0.72656249,0.5742187 -0.72656249,1.1132812 0,0.76171877 0.515625,1.24218752 1.37109379,1.24218752 0.515625,0 0.9375,-0.187499995 1.4179687,-0.62109375 0.046875,0.433593755 0.2460938,0.62109375 0.6796875,0.62109375 0.140625,0 0.234375,-0.0234375 0.4570313,-0.0703125 z M 3.1060203,-1.3127969 c 0,0.2226563 -0.070312,0.35156252 -0.2695312,0.53906252 -0.2695313,0.24609375 -0.5976563,0.375 -0.984375,0.375 -0.515625,0 -0.8203125,-0.24609375 -0.8203125,-0.66796872 0,-0.4453125 0.28125,-0.6679688 0.9960937,-0.7617188 0.7148438,-0.1054687 0.84375,-0.1289062 1.078125,-0.234375 z m 5.0742188,-1.4648437 c -0.023437,-0.3984375 -0.1171875,-0.6679688 -0.28125,-0.890625 -0.28125,-0.3984375 -0.7851563,-0.6328125 -1.359375,-0.6328125 -1.1367188,0 -1.8632813,0.9023437 -1.8632813,2.2851562 0,1.34765627 0.7148438,2.20312502 1.8515625,2.20312502 0.9960938,0 1.6289063,-0.59765625 1.6992188,-1.61718752 H 7.5591453 c -0.1054687,0.66796877 -0.4570312,0.99609377 -1.0195312,0.99609377 -0.7265625,0 -1.171875,-0.59765627 -1.171875,-1.58203127 0,-1.0429687 0.4335937,-1.6640625 1.1601562,-1.6640625 0.5507813,0 0.9023438,0.328125 0.984375,0.9023438 z M 10.441958,-4.1721719 H 9.7505516 v -1.1484375 h -0.65625 v 1.1484375 h -0.5625 v 0.5390625 h 0.5625 v 3.15234377 c 0,0.43359375 0.28125,0.66796875 0.796875,0.66796875 0.1757814,0 0.3281254,-0.0234375 0.5507814,-0.0585938 v -0.5625 c -0.09375,0.0234375 -0.1875,0.0351563 -0.316406,0.0351563 -0.2929692,0 -0.3750004,-0.0820313 -0.3750004,-0.375 V -3.6331094 h 0.6914064 z m 1.382812,0 h -0.65625 v 4.171875025 h 0.65625 z m 0,-1.640625 h -0.667968 v 0.84375 h 0.667968 z m 2.739258,1.5117188 c -1.183594,0 -1.886719,0.84375 -1.886719,2.25 0,1.40624997 0.703125,2.23828122 1.898438,2.23828122 1.171875,0 1.886719,-0.84375 1.886719,-2.21484372 0,-1.4414063 -0.691407,-2.2734375 -1.898438,-2.2734375 z m 0.01172,0.6210937 c 0.75,0 1.195312,0.609375 1.195312,1.6523438 0,0.984375 -0.46875,1.59374997 -1.195312,1.59374997 -0.75,0 -1.195313,-0.60937497 -1.195313,-1.61718747 0,-1.0195313 0.445313,-1.6289063 1.195313,-1.6289063 z m 2.8125,-0.4921875 v 4.171875025 h 0.667969 V -2.3088906 c 0,-0.84375 0.445312,-1.40625 1.125,-1.40625 0.527343,0 0.867187,0.3164062 0.867187,0.8203125 v 2.894531225 h 0.65625 V -3.1526406 c 0,-0.6914063 -0.515625,-1.1484375 -1.324219,-1.1484375 -0.621093,0 -1.019531,0.2460937 -1.382812,0.8320312 v -0.703125 z m 5.929687,0.070312 V -2.97375e-4 H 24.02106 V -5.7659219 h -0.457031 c -0.257812,0.890625 -0.410156,1.0078125 -1.5,1.1484375 v 0.515625 z M 1.8755516,5.7389609 c -0.796875,1.0429688 -1.28906254,2.4960938 -1.28906254,3.75 0,1.2539061 0.49218754,2.7070311 1.28906254,3.7500001 H 2.3208641 C 1.6177391,12.102242 1.2310203,10.766305 1.2310203,9.4889609 c 0,-1.265625 0.3867188,-2.6132812 1.0898438,-3.75 z M 6.3784812,11.551461 8.0191062,6.6881797 V 11.551461 H 8.7105125 V 5.7389609 H 7.6909812 L 6.0034812,10.801461 4.280825,5.7389609 H 3.249575 V 11.551461 H 3.9527 V 6.6881797 l 1.6523437,4.8632813 z m 7.1777348,-0.386719 c -0.07031,0.01172 -0.105469,0.01172 -0.140625,0.01172 -0.234375,0 -0.363282,-0.117188 -0.363282,-0.328125 V 8.3991172 c 0,-0.75 -0.539062,-1.1484375 -1.570312,-1.1484375 -0.609375,0 -1.101563,0.1757812 -1.382813,0.4921875 C 9.8999656,7.9538047 9.8296531,8.1998984 9.8062156,8.6100547 h 0.6679684 c 0.05859,-0.5039063 0.363282,-0.7382813 0.984375,-0.7382813 0.609375,0 0.9375,0.2226563 0.9375,0.6210938 v 0.1757812 c -0.01172,0.28125 -0.152343,0.3867188 -0.703125,0.4570313 -0.9375,0.1171875 -1.078125,0.1523437 -1.335937,0.2578125 -0.4804689,0.2109375 -0.7265626,0.5742187 -0.7265626,1.1132808 0,0.761719 0.5156246,1.242188 1.3710936,1.242188 0.515625,0 0.9375,-0.1875 1.417969,-0.621094 0.04687,0.433594 0.246094,0.621094 0.679687,0.621094 0.140625,0 0.234375,-0.02344 0.457032,-0.07031 z m -1.160157,-0.925781 c 0,0.222656 -0.07031,0.351562 -0.269531,0.539062 -0.269531,0.246094 -0.597656,0.375 -0.984375,0.375 -0.515625,0 -0.820312,-0.246093 -0.820312,-0.667968 0,-0.445313 0.28125,-0.6679691 0.996093,-0.7617191 0.714844,-0.1054687 0.84375,-0.1289062 1.078125,-0.234375 z M 16.814028,7.3795859 15.653872,10.62568 14.587466,7.3795859 h -0.703125 l 1.40625,4.1835941 -0.257813,0.667968 c -0.105469,0.292969 -0.257812,0.398438 -0.527344,0.398438 -0.117187,0 -0.210937,-0.01172 -0.351562,-0.04687 v 0.597656 c 0.128906,0.08203 0.269531,0.105469 0.445312,0.105469 0.210938,0 0.445313,-0.07031 0.621094,-0.199219 0.210938,-0.152344 0.328125,-0.328125 0.457031,-0.65625 l 1.851563,-5.0507811 z m 1.321289,-1.640625 v 5.8125001 h 0.597656 v -0.539063 c 0.316407,0.492188 0.738282,0.726563 1.324219,0.726563 1.089844,0 1.816406,-0.902344 1.816406,-2.2968751 0,-1.3476562 -0.679687,-2.1914062 -1.792968,-2.1914062 -0.574219,0 -0.972657,0.2226562 -1.289063,0.6914062 v -2.203125 z m 1.816406,2.1445313 c 0.75,0 1.21875,0.6445312 1.21875,1.640625 0,0.9492188 -0.492187,1.5937498 -1.21875,1.5937498 -0.703125,0 -1.160156,-0.644531 -1.160156,-1.6171873 0,-0.984375 0.457031,-1.6171875 1.160156,-1.6171875 z m 6.269532,1.8046875 c 0,-0.6445313 -0.04687,-1.0195313 -0.164063,-1.3359375 -0.28125,-0.6796875 -0.914062,-1.1015625 -1.699219,-1.1015625 -1.160156,0 -1.910156,0.890625 -1.910156,2.2734375 0,1.3710938 0.714844,2.2148438 1.898438,2.2148438 0.960937,0 1.617187,-0.550781 1.78125,-1.453125 h -0.667969 c -0.175781,0.550781 -0.550781,0.832031 -1.089844,0.832031 -0.421875,0 -0.785156,-0.1875 -1.007812,-0.539062 C 23.209536,10.34443 23.150942,10.098336 23.139223,9.6881797 Z M 23.162661,9.1491172 c 0.04687,-0.7734375 0.527344,-1.2773438 1.195312,-1.2773438 0.679688,0 1.148438,0.5273438 1.148438,1.2773438 z m 9.108398,-0.609375 c -0.01172,-0.8203125 -0.550781,-1.2890625 -1.511718,-1.2890625 -0.972657,0 -1.605469,0.5039062 -1.605469,1.2773437 0,0.65625 0.339844,0.9726563 1.324219,1.2070313 l 0.621093,0.1523437 c 0.457032,0.1054688 0.644532,0.2812496 0.644532,0.5742186 0,0.398438 -0.386719,0.65625 -0.972657,0.65625 -0.363281,0 -0.65625,-0.105469 -0.832031,-0.28125 -0.105469,-0.117187 -0.152344,-0.234375 -0.1875,-0.527344 h -0.703125 c 0.03516,0.960938 0.574219,1.429688 1.664063,1.429688 1.054687,0 1.722656,-0.527344 1.722656,-1.324219 0,-0.6210936 -0.351563,-0.9726561 -1.183594,-1.1718748 L 30.618716,9.1022422 C 30.079653,8.9733359 29.845278,8.7975547 29.845278,8.5045859 c 0,-0.3984375 0.339844,-0.6328125 0.890625,-0.6328125 0.527344,0 0.820313,0.234375 0.832031,0.6679688 z m 2.657227,-1.2890625 c -1.183594,0 -1.886719,0.84375 -1.886719,2.25 0,1.4062503 0.703125,2.2382813 1.898438,2.2382813 1.171875,0 1.886718,-0.84375 1.886718,-2.2148438 0,-1.4414063 -0.691406,-2.2734375 -1.898437,-2.2734375 z m 0.01172,0.6210937 c 0.75,0 1.195312,0.609375 1.195312,1.6523438 0,0.9843748 -0.46875,1.5937498 -1.195312,1.5937498 -0.75,0 -1.195313,-0.609375 -1.195313,-1.6171873 0,-1.0195313 0.445313,-1.6289063 1.195313,-1.6289063 z m 2.8125,-0.4921875 v 4.1718751 h 0.667968 V 8.9264609 c 0,-0.5976562 0.433594,-1.0898437 0.972657,-1.0898437 0.503906,0 0.773437,0.3046875 0.773437,0.84375 v 2.8710938 h 0.667969 V 8.9264609 c 0,-0.5976562 0.445312,-1.0898437 0.984375,-1.0898437 0.492187,0 0.773437,0.3164062 0.773437,0.84375 v 2.8710938 h 0.667969 V 8.4225547 c 0,-0.75 -0.433594,-1.171875 -1.207031,-1.171875 -0.5625,0 -0.890625,0.1757812 -1.289063,0.6445312 -0.246093,-0.4453125 -0.574218,-0.6445312 -1.125,-0.6445312 -0.550781,0 -0.925781,0.2109375 -1.277343,0.7148437 V 7.3795859 Z M 47.91852,9.6881797 c 0,-0.6445313 -0.04687,-1.0195313 -0.164062,-1.3359375 -0.28125,-0.6796875 -0.914063,-1.1015625 -1.699219,-1.1015625 -1.160156,0 -1.910156,0.890625 -1.910156,2.2734375 0,1.3710938 0.714844,2.2148438 1.898437,2.2148438 0.960938,0 1.617188,-0.550781 1.78125,-1.453125 h -0.667968 c -0.175782,0.550781 -0.550782,0.832031 -1.089844,0.832031 -0.421875,0 -0.785156,-0.1875 -1.007813,-0.539062 C 44.906802,10.34443 44.848208,10.098336 44.836489,9.6881797 Z M 44.859927,9.1491172 c 0.04687,-0.7734375 0.527343,-1.2773438 1.195312,-1.2773438 0.679688,0 1.148438,0.5273438 1.148438,1.2773438 z m 6.175781,-1.7695313 v 4.1718751 h 0.667969 V 8.9264609 c 0,-0.5976562 0.433593,-1.0898437 0.972656,-1.0898437 0.503906,0 0.773437,0.3046875 0.773437,0.84375 v 2.8710938 h 0.667969 V 8.9264609 c 0,-0.5976562 0.445313,-1.0898437 0.984375,-1.0898437 0.492188,0 0.773438,0.3164062 0.773438,0.84375 V 11.551461 H 56.54352 V 8.4225547 c 0,-0.75 -0.433593,-1.171875 -1.207031,-1.171875 -0.5625,0 -0.890625,0.1757812 -1.289062,0.6445312 -0.246094,-0.4453125 -0.574219,-0.6445312 -1.125,-0.6445312 -0.550782,0 -0.925782,0.2109375 -1.277344,0.7148437 V 7.3795859 Z m 8.241211,-0.1289062 c -1.183594,0 -1.886719,0.84375 -1.886719,2.25 0,1.4062503 0.703125,2.2382813 1.898437,2.2382813 1.171875,0 1.886719,-0.84375 1.886719,-2.2148438 0,-1.4414063 -0.691406,-2.2734375 -1.898437,-2.2734375 z m 0.01172,0.6210937 c 0.75,0 1.195313,0.609375 1.195313,1.6523438 0,0.9843748 -0.46875,1.5937498 -1.195313,1.5937498 -0.75,0 -1.195312,-0.609375 -1.195312,-1.6171873 0,-1.0195313 0.445312,-1.6289063 1.195312,-1.6289063 z m 2.800782,-0.4921875 v 4.1718751 h 0.667968 V 9.3834922 c 0.01172,-1.0078125 0.421875,-1.453125 1.335938,-1.4296875 V 7.2858359 c -0.105469,-0.023437 -0.175781,-0.035156 -0.246094,-0.035156 -0.433594,0 -0.761719,0.2578125 -1.148437,0.8789062 v -0.75 z m 6.193359,2.3085938 c 0,-0.6445313 -0.04687,-1.0195313 -0.164062,-1.3359375 -0.28125,-0.6796875 -0.914063,-1.1015625 -1.699219,-1.1015625 -1.160156,0 -1.910156,0.890625 -1.910156,2.2734375 0,1.3710938 0.714843,2.2148438 1.898437,2.2148438 0.960938,0 1.617188,-0.550781 1.78125,-1.453125 h -0.667969 c -0.175781,0.550781 -0.550781,0.832031 -1.089843,0.832031 -0.421875,0 -0.785157,-0.1875 -1.007813,-0.539062 C 65.271059,10.34443 65.212466,10.098336 65.200747,9.6881797 Z M 65.224184,9.1491172 c 0.04687,-0.7734375 0.527344,-1.2773438 1.195313,-1.2773438 0.679687,0 1.148437,0.5273438 1.148437,1.2773438 z m 9.878907,2.0156248 c -0.07031,0.01172 -0.105469,0.01172 -0.140625,0.01172 -0.234375,0 -0.363282,-0.117188 -0.363282,-0.328125 V 8.3991172 c 0,-0.75 -0.539062,-1.1484375 -1.570312,-1.1484375 -0.609375,0 -1.101563,0.1757812 -1.382813,0.4921875 -0.199218,0.2109375 -0.269531,0.4570312 -0.292968,0.8671875 h 0.667968 c 0.05859,-0.5039063 0.363282,-0.7382813 0.984375,-0.7382813 0.609375,0 0.9375,0.2226563 0.9375,0.6210938 v 0.1757812 c -0.01172,0.28125 -0.152343,0.3867188 -0.703125,0.4570313 -0.9375,0.1171875 -1.078125,0.1523437 -1.335937,0.2578125 -0.480469,0.2109375 -0.726563,0.5742187 -0.726563,1.1132808 0,0.761719 0.515625,1.242188 1.371094,1.242188 0.515625,0 0.9375,-0.1875 1.417969,-0.621094 0.04687,0.433594 0.246094,0.621094 0.679687,0.621094 0.140625,0 0.234375,-0.02344 0.457032,-0.07031 z m -1.160157,-0.925781 c 0,0.222656 -0.07031,0.351562 -0.269531,0.539062 -0.269531,0.246094 -0.597656,0.375 -0.984375,0.375 -0.515625,0 -0.820312,-0.246093 -0.820312,-0.667968 0,-0.445313 0.28125,-0.6679691 0.996093,-0.7617191 0.714844,-0.1054687 0.84375,-0.1289062 1.078125,-0.234375 z m 5.074219,-1.4648438 c -0.02344,-0.3984375 -0.117187,-0.6679688 -0.28125,-0.890625 -0.28125,-0.3984375 -0.785156,-0.6328125 -1.359375,-0.6328125 -1.136719,0 -1.863281,0.9023437 -1.863281,2.2851562 0,1.3476561 0.714844,2.2031251 1.851562,2.2031251 0.996094,0 1.628907,-0.597656 1.699219,-1.617188 h -0.667969 c -0.105468,0.667969 -0.457031,0.996094 -1.019531,0.996094 -0.726562,0 -1.171875,-0.597656 -1.171875,-1.5820311 0,-1.0429687 0.433594,-1.6640625 1.160156,-1.6640625 0.550782,0 0.902344,0.328125 0.984375,0.9023438 z M 81.275942,7.3795859 H 80.584536 V 6.2311484 h -0.65625 v 1.1484375 h -0.5625 v 0.5390625 h 0.5625 v 3.1523436 c 0,0.433594 0.28125,0.667969 0.796875,0.667969 0.175781,0 0.328125,-0.02344 0.550781,-0.05859 v -0.5625 c -0.09375,0.02344 -0.1875,0.03516 -0.316406,0.03516 -0.292969,0 -0.375,-0.08203 -0.375,-0.375 V 7.9186484 h 0.691406 z m 1.382813,0 h -0.65625 v 4.1718751 h 0.65625 z m 0,-1.640625 h -0.667969 v 0.84375 h 0.667969 z m 2.742187,1.5117188 c -1.183594,0 -1.886719,0.84375 -1.886719,2.25 0,1.4062503 0.703125,2.2382813 1.898438,2.2382813 1.171875,0 1.886719,-0.84375 1.886719,-2.2148438 0,-1.4414063 -0.691407,-2.2734375 -1.898438,-2.2734375 z m 0.01172,0.6210937 c 0.75,0 1.195312,0.609375 1.195312,1.6523438 0,0.9843748 -0.46875,1.5937498 -1.195312,1.5937498 -0.75,0 -1.195313,-0.609375 -1.195313,-1.6171873 0,-1.0195313 0.445313,-1.6289063 1.195313,-1.6289063 z m 2.8125,-0.4921875 V 11.551461 H 88.89313 V 9.2428672 c 0,-0.84375 0.445312,-1.40625 1.125,-1.40625 0.527343,0 0.867187,0.3164062 0.867187,0.8203125 v 2.8945313 h 0.65625 V 8.3991172 c 0,-0.6914063 -0.515625,-1.1484375 -1.324219,-1.1484375 -0.621093,0 -1.019531,0.2460937 -1.382812,0.8320312 v -0.703125 z m 7.359375,1.1601563 c -0.01172,-0.8203125 -0.550781,-1.2890625 -1.511719,-1.2890625 -0.972656,0 -1.605469,0.5039062 -1.605469,1.2773437 0,0.65625 0.339844,0.9726563 1.324219,1.2070313 l 0.621094,0.1523437 c 0.457031,0.1054688 0.644531,0.2812496 0.644531,0.5742186 0,0.398438 -0.386719,0.65625 -0.972656,0.65625 -0.363281,0 -0.65625,-0.105469 -0.832031,-0.28125 -0.105469,-0.117187 -0.152344,-0.234375 -0.1875,-0.527344 H 92.36188 c 0.03516,0.960938 0.574218,1.429688 1.664062,1.429688 1.054688,0 1.722656,-0.527344 1.722656,-1.324219 0,-0.6210936 -0.351562,-0.9726561 -1.183593,-1.1718748 L 93.932192,9.1022422 C 93.39313,8.9733359 93.158755,8.7975547 93.158755,8.5045859 c 0,-0.3984375 0.339843,-0.6328125 0.890625,-0.6328125 0.527343,0 0.820312,0.234375 0.832031,0.6679688 z m 1.230469,4.6992188 c 0.796875,-1.042969 1.300781,-2.496094 1.300781,-3.7382813 0,-1.265625 -0.503906,-2.71875 -1.300781,-3.7617188 h -0.433594 c 0.703125,1.1484375 1.089844,2.484375 1.089844,3.7617188 0,1.2656253 -0.386719,2.6132813 -1.089844,3.7382813 z m 0,0"
         style="fill:#000000;fill-opacity:1;fill-rule:nonzero;stroke:none" />
      <path
         id="path106"
         d="m 76.497622,358.62861 0.539062,1.64062 h 1.710938 l -2.8125,-8.13281 h -1.851563 l -2.882812,8.13281 h 1.699219 l 0.550781,-1.64062 z m -0.457031,-1.39453 h -2.121094 l 1.054687,-3.17578 z m 3.624023,-2.98828 v 6.02343 h 1.558594 v -3.60937 c 0,-0.71484 0.492187,-1.18359 1.265625,-1.18359 0.667969,0 1.007812,0.36328 1.007812,1.07812 v 3.71484 h 1.558594 v -4.04296 c 0,-1.33594 -0.726562,-2.08594 -2.027344,-2.08594 -0.808593,0 -1.359375,0.29297 -1.804687,0.97265 v -0.86718 z m 14.800781,4.38281 0.539063,1.64062 h 1.710937 l -2.8125,-8.13281 h -1.851562 l -2.882813,8.13281 h 1.699219 l 0.550781,-1.64062 z m -0.457031,-1.39453 H 91.88727 l 1.054688,-3.17578 z m 3.577148,-5.09766 v 8.13281 h 1.558594 v -0.60937 c 0.386719,0.58594 0.914064,0.86719 1.664064,0.86719 1.4414,0 2.53125,-1.3711 2.53125,-3.1875 0,-0.82032 -0.2461,-1.64063 -0.64453,-2.22657 -0.41016,-0.58593 -1.14844,-0.97265 -1.88672,-0.97265 -0.75,0 -1.277345,0.28125 -1.664064,0.89062 v -2.89453 z m 2.882808,3.31641 c 0.76172,0 1.3125,0.77344 1.3125,1.89844 0,1.10156 -0.53906,1.875 -1.3125,1.875 -0.79687,0 -1.324214,-0.75 -1.324214,-1.91016 0,-1.11328 0.539063,-1.86328 1.324214,-1.86328 z m 8.91211,0.73828 c -0.0234,-1.27734 -1.00781,-2.05078 -2.625,-2.05078 -1.52343,0 -2.47265,0.77344 -2.47265,2.01562 0,0.39844 0.11719,0.73828 0.32812,0.97266 0.21094,0.22266 0.41016,0.31641 0.98438,0.50391 l 1.86328,0.58593 c 0.38672,0.11719 0.52734,0.2461 0.52734,0.49219 0,0.36328 -0.43359,0.58594 -1.16015,0.58594 -0.41016,0 -0.72657,-0.0703 -0.92578,-0.21094 -0.17579,-0.11719 -0.23438,-0.24609 -0.30469,-0.5625 h -1.52344 c 0.0352,1.32422 1.00781,2.00391 2.83594,2.00391 0.84375,0 1.47656,-0.17578 1.92187,-0.53907 0.44532,-0.35156 0.71485,-0.91406 0.71485,-1.5 0,-0.78515 -0.38672,-1.28906 -1.1836,-1.52343 l -1.96875,-0.5625 c -0.44531,-0.14063 -0.55078,-0.22266 -0.55078,-0.46875 0,-0.33985 0.35156,-0.5625 0.90235,-0.5625 0.75,0 1.11328,0.26953 1.125,0.82031 z m 3.92872,-1.82813 h -0.87891 v -1.61718 h -1.55859 v 1.61718 h -0.77344 v 1.04297 h 0.77344 v 3.70313 c 0,0.94922 0.5039,1.41797 1.52343,1.41797 0.36328,0 0.6211,-0.0352 0.91407,-0.12891 v -1.08984 c -0.16407,0.0234 -0.23438,0.0352 -0.36329,0.0352 -0.41015,0 -0.51562,-0.11718 -0.51562,-0.65625 V 355.406 h 0.87891 z m 1.05468,-0.11718 v 6.02343 h 1.5586 v -3.19921 c 0,-0.91407 0.45703,-1.3711 1.37109,-1.3711 0.17578,0 0.28125,0.0117 0.49219,0.0352 v -1.58203 c -0.082,-0.0117 -0.11719,-0.0117 -0.1875,-0.0117 -0.71485,0 -1.32422,0.46875 -1.67578,1.28906 v -1.18359 z m 9.4834,5.83593 c -0.26953,-0.25781 -0.36328,-0.43359 -0.36328,-0.73828 v -3.35156 c 0,-1.21875 -0.83203,-1.85156 -2.46094,-1.85156 -1.6289,0 -2.47265,0.6914 -2.57812,2.08594 h 1.51172 c 0.0703,-0.6211 0.32812,-0.82032 1.10156,-0.82032 0.59765,0 0.90234,0.19922 0.90234,0.59766 0,0.19922 -0.10547,0.375 -0.26953,0.46875 -0.21094,0.11719 -0.21094,0.11719 -0.98437,0.23437 l -0.6211,0.11719 c -1.19531,0.19922 -1.76953,0.8086 -1.76953,1.89844 0,1.07812 0.72656,1.80469 1.82813,1.80469 0.66796,0 1.26562,-0.28125 1.82812,-0.85547 0,0.30469 0.0352,0.42187 0.17578,0.59765 h 1.69922 z m -1.88672,-2.23828 c 0,0.91407 -0.44531,1.41797 -1.24219,1.41797 -0.51562,0 -0.84375,-0.26953 -0.84375,-0.72656 0,-0.46875 0.2461,-0.69141 0.89063,-0.82031 l 0.53906,-0.10547 c 0.41016,-0.0703 0.48047,-0.0937 0.65625,-0.1875 z m 8.06543,-1.34765 c -0.11719,-1.46485 -1.07812,-2.35547 -2.60156,-2.35547 -1.80469,0 -2.84766,1.18359 -2.84766,3.23437 0,1.99219 1.04297,3.15235 2.82422,3.15235 1.46485,0 2.48438,-0.90235 2.625,-2.34375 h -1.5 c -0.1875,0.78515 -0.49219,1.07812 -1.125,1.07812 -0.78515,0 -1.2539,-0.70312 -1.2539,-1.88672 0,-0.57422 0.10546,-1.10156 0.29296,-1.45312 0.1875,-0.33985 0.52735,-0.51563 0.97266,-0.51563 0.63281,0 0.9375,0.30469 1.11328,1.08985 z m 3.74121,-2.13282 h -0.8789 v -1.61718 h -1.5586 v 1.61718 h -0.77343 v 1.04297 h 0.77343 v 3.70313 c 0,0.94922 0.50391,1.41797 1.52344,1.41797 0.36328,0 0.62109,-0.0352 0.91406,-0.12891 v -1.08984 c -0.16406,0.0234 -0.23437,0.0352 -0.36328,0.0352 -0.41015,0 -0.51562,-0.11718 -0.51562,-0.65625 V 355.406 h 0.8789 z m 7.88086,5.90625 2.78906,-8.13281 h -1.6875 l -1.76953,6.12891 -1.80468,-6.12891 h -1.6875 l 2.74218,8.13281 z m 5.31739,-6.02343 h -1.5586 v 6.02343 h 1.5586 z m 0,-2.10938 h -1.5586 v 1.39453 h 1.5586 z m 6.6416,5.61328 c 0.0117,-0.14062 0.0117,-0.1875 0.0117,-0.26953 0,-0.59765 -0.0937,-1.16015 -0.23438,-1.58203 -0.39844,-1.08984 -1.37109,-1.75781 -2.58984,-1.75781 -1.73438,0 -2.78907,1.2539 -2.78907,3.26953 0,1.93359 1.04297,3.11719 2.75391,3.11719 1.34766,0 2.44922,-0.76172 2.78906,-1.95703 h -1.53515 c -0.1875,0.48046 -0.63282,0.76171 -1.19532,0.76171 -0.44531,0 -0.80859,-0.1875 -1.03125,-0.52734 -0.14062,-0.22266 -0.19921,-0.49219 -0.22265,-1.05469 z m -4.01953,-1.04297 c 0.10546,-0.92578 0.49218,-1.37109 1.18359,-1.37109 0.71484,0 1.13672,0.48047 1.21875,1.37109 z m 11.21777,3.5625 1.69922,-6.02343 h -1.61719 l -0.91406,4.21875 -0.90235,-4.21875 h -1.55859 l -0.91406,4.21875 -0.96094,-4.21875 h -1.61719 l 1.6875,6.02343 h 1.61719 l 0.94922,-4.2539 0.91406,4.2539 z m 8.29687,-6.1289 c -1.85156,0 -2.97656,1.21875 -2.97656,3.19922 0,1.98047 1.125,3.1875 2.98828,3.1875 1.83985,0 2.97657,-1.20703 2.97657,-3.15235 0,-2.03906 -1.11329,-3.23437 -2.98829,-3.23437 z m 0.0117,1.26562 c 0.85547,0 1.40625,0.77344 1.40625,1.95703 0,1.125 -0.57422,1.89844 -1.40625,1.89844 -0.85547,0 -1.41797,-0.76172 -1.41797,-1.92187 0,-1.16016 0.5625,-1.9336 1.41797,-1.9336 z m 6.93164,-1.04297 h -0.92578 v -0.58593 c 0,-0.31641 0.12891,-0.46875 0.42188,-0.46875 0.15234,0 0.29297,0.0117 0.44531,0.0352 v -1.17187 c -0.32813,-0.0234 -0.65625,-0.0352 -0.89063,-0.0352 -1.03125,0 -1.53515,0.49219 -1.53515,1.51172 v 0.71484 h -0.85547 v 1.04297 h 0.85547 v 4.86328 h 1.55859 v -4.86328 h 0.92578 z m 5.84473,3 h 2.08594 c 1.5,0 2.46093,-1.05468 2.46093,-2.70703 0,-1.6289 -0.92578,-2.51953 -2.625,-2.51953 h -3.59765 v 8.13281 h 1.67578 z m 0,-1.39453 v -2.4375 h 1.55859 c 0.90235,0 1.3125,0.38672 1.3125,1.21875 0,0.83203 -0.41015,1.21875 -1.3125,1.21875 z m 5.62207,-1.72265 v 6.02343 h 1.55859 v -3.19921 c 0,-0.91407 0.45704,-1.3711 1.3711,-1.3711 0.17578,0 0.28125,0.0117 0.49219,0.0352 v -1.58203 c -0.082,-0.0117 -0.11719,-0.0117 -0.1875,-0.0117 -0.71485,0 -1.32422,0.46875 -1.67579,1.28906 v -1.18359 z m 6.99902,-0.10547 c -1.85156,0 -2.97656,1.21875 -2.97656,3.19922 0,1.98047 1.125,3.1875 2.98828,3.1875 1.83985,0 2.97656,-1.20703 2.97656,-3.15235 0,-2.03906 -1.11328,-3.23437 -2.98828,-3.23437 z m 0.0117,1.26562 c 0.85547,0 1.40625,0.77344 1.40625,1.95703 0,1.125 -0.57422,1.89844 -1.40625,1.89844 -0.85547,0 -1.41797,-0.76172 -1.41797,-1.92187 0,-1.16016 0.5625,-1.9336 1.41797,-1.9336 z m 7.96289,4.86328 h 1.5586 v -8.13281 h -1.5586 v 2.89453 c -0.39843,-0.60937 -0.91406,-0.89062 -1.66406,-0.89062 -1.44141,0 -2.53125,1.38281 -2.53125,3.21094 0,0.80859 0.24609,1.64062 0.64453,2.21484 0.41016,0.58594 1.14844,0.96094 1.88672,0.96094 0.75,0 1.26563,-0.26953 1.66406,-0.86719 z m -1.32422,-4.8164 c 0.79688,0 1.32422,0.75 1.32422,1.91015 0,1.10157 -0.53906,1.86329 -1.32422,1.86329 -0.77343,0 -1.3125,-0.77344 -1.3125,-1.875 0,-1.13672 0.53907,-1.89844 1.3125,-1.89844 z m 9.65039,4.8164 v -6.02343 h -1.55859 v 3.77343 c 0,0.71485 -0.49219,1.1836 -1.26562,1.1836 -0.66797,0 -1.00782,-0.36328 -1.00782,-1.08985 v -3.86718 h -1.55859 v 4.19531 c 0,1.33594 0.72656,2.08594 2.02734,2.08594 0.8086,0 1.35938,-0.29297 1.80469,-0.97266 v 0.71484 z m 6.60645,-3.77343 c -0.11719,-1.46485 -1.07812,-2.35547 -2.60156,-2.35547 -1.80469,0 -2.84766,1.18359 -2.84766,3.23437 0,1.99219 1.04297,3.15235 2.82422,3.15235 1.46484,0 2.48438,-0.90235 2.625,-2.34375 h -1.5 c -0.1875,0.78515 -0.49219,1.07812 -1.125,1.07812 -0.78516,0 -1.25391,-0.70312 -1.25391,-1.88672 0,-0.57422 0.10547,-1.10156 0.29297,-1.45312 0.1875,-0.33985 0.52735,-0.51563 0.97266,-0.51563 0.63281,0 0.9375,0.30469 1.11328,1.08985 z m 3.73828,-2.13282 h -0.8789 v -1.61718 h -1.5586 v 1.61718 h -0.77344 v 1.04297 h 0.77344 v 3.70313 c 0,0.94922 0.50391,1.41797 1.52344,1.41797 0.36328,0 0.62109,-0.0352 0.91406,-0.12891 v -1.08984 c -0.16406,0.0234 -0.23437,0.0352 -0.36328,0.0352 -0.41016,0 -0.51562,-0.11718 -0.51562,-0.65625 V 355.406 h 0.8789 z m 2.66016,-0.11718 h -1.5586 v 6.02343 h 1.5586 z m 0,-2.10938 h -1.5586 v 1.39453 h 1.5586 z m 4.15722,2.00391 c -1.85156,0 -2.97656,1.21875 -2.97656,3.19922 0,1.98047 1.125,3.1875 2.98828,3.1875 1.83985,0 2.97657,-1.20703 2.97657,-3.15235 0,-2.03906 -1.11329,-3.23437 -2.98829,-3.23437 z m 0.0117,1.26562 c 0.85547,0 1.40625,0.77344 1.40625,1.95703 0,1.125 -0.57422,1.89844 -1.40625,1.89844 -0.85547,0 -1.41797,-0.76172 -1.41797,-1.92187 0,-1.16016 0.5625,-1.9336 1.41797,-1.9336 z m 4.14258,-1.16015 v 6.02343 h 1.55859 v -3.60937 c 0,-0.71484 0.49219,-1.18359 1.26563,-1.18359 0.66797,0 1.00781,0.36328 1.00781,1.07812 v 3.71484 h 1.5586 v -4.04296 c 0,-1.33594 -0.72657,-2.08594 -2.02735,-2.08594 -0.80859,0 -1.35937,0.29297 -1.80469,0.97265 v -0.86718 z m 11.62793,-0.31641 1.45313,6.33984 h 1.67578 l 1.4414,-6.33984 v 6.33984 h 1.67578 v -8.13281 h -2.51953 l -1.42968,6.46875 -1.47657,-6.46875 h -2.49609 v 8.13281 h 1.67578 z m 12.72363,3.82031 c 0.0117,-0.14062 0.0117,-0.1875 0.0117,-0.26953 0,-0.59765 -0.0937,-1.16015 -0.23437,-1.58203 -0.39844,-1.08984 -1.3711,-1.75781 -2.58985,-1.75781 -1.73437,0 -2.78906,1.2539 -2.78906,3.26953 0,1.93359 1.04297,3.11719 2.75391,3.11719 1.34765,0 2.44922,-0.76172 2.78906,-1.95703 h -1.53516 c -0.1875,0.48046 -0.63281,0.76171 -1.19531,0.76171 -0.44531,0 -0.80859,-0.1875 -1.03125,-0.52734 -0.14062,-0.22266 -0.19922,-0.49219 -0.22266,-1.05469 z m -4.01953,-1.04297 c 0.10547,-0.92578 0.49219,-1.37109 1.1836,-1.37109 0.71484,0 1.13671,0.48047 1.21875,1.37109 z m 5.04199,-2.46093 v 6.02343 h 1.5586 v -3.60937 c 0,-0.75 0.41015,-1.18359 1.07812,-1.18359 0.52735,0 0.84375,0.29296 0.84375,0.77343 v 4.01953 h 1.5586 v -3.60937 c 0,-0.73828 0.41015,-1.18359 1.07812,-1.18359 0.52735,0 0.84375,0.29296 0.84375,0.77343 v 4.01953 h 1.5586 v -4.26562 c 0,-1.17188 -0.70313,-1.86328 -1.91016,-1.86328 -0.77344,0 -1.30078,0.26953 -1.76953,0.90234 -0.28125,-0.57422 -0.89063,-0.90234 -1.64063,-0.90234 -0.6914,0 -1.13672,0.22265 -1.65234,0.85547 v -0.75 z m 12.60938,-0.10547 c -1.85156,0 -2.97656,1.21875 -2.97656,3.19922 0,1.98047 1.125,3.1875 2.98828,3.1875 1.83984,0 2.97656,-1.20703 2.97656,-3.15235 0,-2.03906 -1.11328,-3.23437 -2.98828,-3.23437 z m 0.0117,1.26562 c 0.85547,0 1.40625,0.77344 1.40625,1.95703 0,1.125 -0.57422,1.89844 -1.40625,1.89844 -0.85547,0 -1.41797,-0.76172 -1.41797,-1.92187 0,-1.16016 0.5625,-1.9336 1.41797,-1.9336 z m 4.14551,-1.16015 v 6.02343 h 1.55859 v -3.19921 c 0,-0.91407 0.45703,-1.3711 1.37109,-1.3711 0.17578,0 0.28125,0.0117 0.49219,0.0352 v -1.58203 c -0.082,-0.0117 -0.11719,-0.0117 -0.1875,-0.0117 -0.71484,0 -1.32422,0.46875 -1.67578,1.28906 v -1.18359 z m 8.03027,0 -1.25391,4.38281 -1.32422,-4.38281 h -1.71093 l 2.23828,6.26953 c 0,0.62109 -0.38672,1.04297 -0.97266,1.04297 -0.11719,0 -0.22265,-0.0117 -0.41015,-0.0586 v 1.17188 c 0.23437,0.0351 0.36328,0.0351 0.55078,0.0351 0.41015,0 0.85547,-0.0703 1.13672,-0.1875 0.43359,-0.17578 0.62109,-0.42187 0.8789,-1.14843 l 2.47266,-7.125 z m 0,0"
         style="fill:#000000;fill-opacity:1;fill-rule:nonzero;stroke:none" />
    </g>
  </g>
</svg>
