<?xml version="1.0" encoding="UTF-8" standalone="no"?>
<!-- Created with Inkscape (http://www.inkscape.org/) -->

<svg
   version="1.1"
   id="svg1"
   width="647.99884"
   height="207.70908"
   viewBox="0 0 647.99884 207.70908"
   xmlns="http://www.w3.org/2000/svg"
   xmlns:svg="http://www.w3.org/2000/svg">
  <defs
     id="defs1" />
  <g
     id="g1"
     transform="translate(-15.862918,-120.65421)">
    <path
       id="path1"
       d="m 3505.55,6055.05 -318.68,-382.42 h 1529.7 l 254.95,382.42 h -637.38"
       style="fill:#bfbfbf;fill-opacity:1;fill-rule:evenodd;stroke:#000000;stroke-width:7.96717;stroke-linecap:butt;stroke-linejoin:miter;stroke-miterlimit:10;stroke-dasharray:none;stroke-opacity:1"
       transform="matrix(0.13333333,0,0,-0.13333333,0,1056)" />
    <path
       id="path2"
       d="m 4270.4,6182.52 h -382.42 l 63.73,63.74 h 382.43 l -63.74,-63.74 V 5800.1 l 63.74,63.74 v 382.42"
       style="fill:#ffffff;fill-opacity:1;fill-rule:evenodd;stroke:#000000;stroke-width:7.96717;stroke-linecap:butt;stroke-linejoin:miter;stroke-miterlimit:10;stroke-dasharray:none;stroke-opacity:1"
       transform="matrix(0.13333333,0,0,-0.13333333,0,1056)" />
    <path
       id="path3"
       d="m 4270.4,6564.95 h -382.42 l 63.73,63.74 h 382.43 l -63.74,-63.74 v -382.43 l 63.74,63.74 v 382.43"
       style="fill:#ffffff;fill-opacity:1;fill-rule:evenodd;stroke:#000000;stroke-width:7.96717;stroke-linecap:butt;stroke-linejoin:miter;stroke-miterlimit:10;stroke-dasharray:none;stroke-opacity:1"
       transform="matrix(0.13333333,0,0,-0.13333333,0,1056)" />
    <path
       id="path4"
       d="m 3887.98,6564.95 h 382.422 v 382.422 H 3887.98 Z"
       style="fill:#ffffff;fill-opacity:1;fill-rule:evenodd;stroke:#000000;stroke-width:7.96717;stroke-linecap:butt;stroke-linejoin:miter;stroke-miterlimit:10;stroke-dasharray:none;stroke-opacity:1"
       transform="matrix(0.13333333,0,0,-0.13333333,0,1056)" />
    <path
       id="path5"
       d="m 3887.98,5800.1 h 382.422 v 382.422 H 3887.98 Z"
       style="fill:#ffffff;fill-opacity:1;fill-rule:evenodd;stroke:#000000;stroke-width:7.96717;stroke-linecap:butt;stroke-linejoin:miter;stroke-miterlimit:10;stroke-dasharray:none;stroke-opacity:1"
       transform="matrix(0.13333333,0,0,-0.13333333,0,1056)" />
    <path
       id="path6"
       d="m 9.4930859,-7.2193125 c -0.4101562,-2.296875 -1.734375,-3.4101565 -4.03125,-3.4101565 -1.40625,0 -2.53125,0.445313 -3.3046875,1.3007815 -0.9492187,1.0429687 -1.46484371,2.53125 -1.46484371,4.21875 0,1.7226562 0.52734371,3.1992187 1.50000001,4.21875 0.8203125,0.83203125 1.8515625,1.21875 3.2109375,1.21875 2.5546875,0 3.9960937,-1.3710938 4.3125,-4.1484375 H 8.3329297 c -0.1171875,0.7265625 -0.2578125,1.2070312 -0.46875,1.6289062 -0.4335938,0.8554688 -1.3242188,1.3476563 -2.4375,1.3476563 -2.0859375,0 -3.3984375,-1.6640625 -3.3984375,-4.2773438 0,-2.6835937 1.2421875,-4.3359375 3.28125,-4.3359375 0.84375,0 1.6289062,0.2460938 2.0625,0.6679688 0.3867187,0.3515625 0.609375,0.7851562 0.7617187,1.5703125 z M 3.7977734,40.525805 H -0.56160156 V 41.69768 H 2.6141797 v 0.292968 c 0,1.863282 -1.3710938,3.210938 -3.28125001,3.210938 -1.05468749,0 -2.01562499,-0.386719 -2.63671879,-1.066406 -0.6914062,-0.738282 -1.1015625,-1.992188 -1.1015625,-3.28125 0,-2.566407 1.4648438,-4.265625 3.66796879,-4.265625 1.59375,0 2.74218751,0.820312 3.02343751,2.167968 h 1.3710937 c -0.375,-2.121093 -1.9804687,-3.339843 -4.38281246,-3.339843 -1.27734374,0 -2.30859374,0.328125 -3.12890624,1.007812 -1.21875,0.996094 -1.8867188,2.625 -1.8867188,4.5 0,3.210938 1.96875,5.449219 4.79296879,5.449219 1.41796875,0 2.53125001,-0.527344 3.56250001,-1.664063 l 0.3398437,1.394532 h 0.84375 z m 4.8867188,-2.214844 c -2.1210938,0 -3.3867188,1.511719 -3.3867188,4.03125 0,2.542969 1.265625,4.03125 3.3984375,4.03125 2.1210941,0 3.3984371,-1.5 3.3984371,-3.972656 0,-2.613282 -1.230468,-4.089844 -3.4101558,-4.089844 z m 0.011719,1.113281 c 1.3476558,0 2.1562498,1.101563 2.1562498,2.964844 0,1.78125 -0.832031,2.882812 -2.1562498,2.882812 -1.3359375,0 -2.1445312,-1.101562 -2.1445312,-2.929687 0,-1.816406 0.8085937,-2.917969 2.1445312,-2.917969 z m 11.7363278,5.917969 c -0.128906,0.02344 -0.1875,0.02344 -0.257812,0.02344 -0.421875,0 -0.644532,-0.210937 -0.644532,-0.585937 v -4.417969 c 0,-1.335937 -0.984375,-2.050781 -2.824218,-2.050781 -1.113282,0 -1.980469,0.316406 -2.496094,0.878906 -0.351563,0.386719 -0.492188,0.820313 -0.515625,1.558594 h 1.195312 c 0.105469,-0.914063 0.644532,-1.324219 1.769532,-1.324219 1.089843,0 1.675781,0.398438 1.675781,1.113281 v 0.316407 c -0.01172,0.515625 -0.269531,0.703125 -1.242188,0.832031 -1.699218,0.210937 -1.957031,0.269531 -2.414062,0.457031 -0.878906,0.375 -1.324219,1.03125 -1.324219,2.003906 0,1.371094 0.949219,2.226563 2.472656,2.226563 0.949219,0 1.710938,-0.328125 2.554688,-1.101563 0.08203,0.773438 0.457031,1.101563 1.230469,1.101563 0.257812,0 0.421875,-0.02344 0.820312,-0.128906 z m -2.097656,-1.664063 c 0,0.398438 -0.117188,0.644532 -0.46875,0.972657 -0.492188,0.445312 -1.078125,0.679687 -1.78125,0.679687 -0.9375,0 -1.476563,-0.445312 -1.476563,-1.207031 0,-0.785156 0.515625,-1.195313 1.804688,-1.382813 1.277344,-0.164062 1.523437,-0.222656 1.921875,-0.410156 z m 4.576172,-8.085937 h -1.207032 v 10.453125 h 1.207032 z m 0,0"
       style="fill:#000000;fill-opacity:1;fill-rule:nonzero;stroke:none"
       aria-label="C&#10;Goal"
       transform="matrix(1.3333333,0,0,1.3333333,535.39333,266.532)" />
    <path
       id="path7"
       d="M 4334.14,5863.84 4270.4,5800.1"
       style="fill:none;stroke:#000000;stroke-width:7.96717;stroke-linecap:butt;stroke-linejoin:miter;stroke-miterlimit:10;stroke-dasharray:none;stroke-opacity:1"
       transform="matrix(0.13333333,0,0,-0.13333333,0,1056)" />
    <path
       id="path8"
       d="m 4270.4,6182.52 63.74,63.74"
       style="fill:none;stroke:#000000;stroke-width:7.96717;stroke-linecap:butt;stroke-linejoin:miter;stroke-miterlimit:10;stroke-dasharray:none;stroke-opacity:1"
       transform="matrix(0.13333333,0,0,-0.13333333,0,1056)" />
    <path
       id="path9"
       d="m 3505.55,6055.05 h 382.43"
       style="fill:none;stroke:#000000;stroke-width:7.96717;stroke-linecap:butt;stroke-linejoin:miter;stroke-miterlimit:10;stroke-dasharray:none;stroke-opacity:1"
       transform="matrix(0.13333333,0,0,-0.13333333,0,1056)" />
    <path
       id="path10"
       d="M 446.16,6055.05 127.477,5672.63 H 2358.28 l 254.95,382.42 h -446.16"
       style="fill:#bfbfbf;fill-opacity:1;fill-rule:evenodd;stroke:#000000;stroke-width:7.96717;stroke-linecap:butt;stroke-linejoin:miter;stroke-miterlimit:10;stroke-dasharray:none;stroke-opacity:1"
       transform="matrix(0.13333333,0,0,-0.13333333,0,1056)" />
    <path
       id="path11"
       d="m 1720.91,5800.1 h 382.422 v 382.422 H 1720.91 Z"
       style="fill:#ffffff;fill-opacity:1;fill-rule:evenodd;stroke:#000000;stroke-width:7.96717;stroke-linecap:butt;stroke-linejoin:miter;stroke-miterlimit:10;stroke-dasharray:none;stroke-opacity:1"
       transform="matrix(0.13333333,0,0,-0.13333333,0,1056)" />
    <path
       id="path12"
       d="m 9.4911016,-7.2193125 c -0.4101563,-2.296875 -1.734375,-3.4101565 -4.03125,-3.4101565 -1.40625,0 -2.53125,0.445313 -3.3046875,1.3007815 -0.9492188,1.0429687 -1.46484379,2.53125 -1.46484379,4.21875 0,1.7226562 0.52734379,3.1992187 1.49999999,4.21875 0.8203125,0.83203125 1.8515625,1.21875 3.2109375,1.21875 2.5546875,0 3.9960938,-1.3710938 4.3125,-4.1484375 H 8.3309453 c -0.1171875,0.7265625 -0.2578125,1.2070312 -0.46875,1.6289062 -0.4335937,0.8554688 -1.3242187,1.3476563 -2.4375,1.3476563 -2.0859375,0 -3.3984375,-1.6640625 -3.3984375,-4.2773438 0,-2.6835937 1.2421875,-4.3359375 3.28125,-4.3359375 0.84375,0 1.6289063,0.2460938 2.0625,0.6679688 0.3867188,0.3515625 0.609375,0.7851562 0.7617188,1.5703125 z M -86.456164,33.998461 h -1.347656 v 10.453125 h 1.347656 z m 2.217773,2.941406 v 7.511719 h 1.195313 v -4.148438 c 0,-1.535156 0.808594,-2.53125 2.039062,-2.53125 0.949219,0 1.546875,0.574219 1.546875,1.476563 v 5.203125 h 1.195313 v -5.683594 c 0,-1.242187 -0.925781,-2.050781 -2.378906,-2.050781 -1.125,0 -1.839844,0.433594 -2.496094,1.476562 v -1.253906 z m 9.123047,0 h -1.195312 v 7.511719 h 1.195312 z m 0,-2.941406 h -1.207031 v 1.5 h 1.207031 z m 4.672852,2.941406 h -1.230469 v -2.074219 h -1.195312 v 2.074219 h -1.019532 v 0.972656 h 1.019532 v 5.683594 c 0,0.773438 0.515625,1.183594 1.453125,1.183594 0.316406,0 0.574218,-0.02344 0.972656,-0.09375 v -1.007813 c -0.175781,0.04687 -0.328125,0.05859 -0.574219,0.05859 -0.515625,0 -0.65625,-0.140625 -0.65625,-0.679687 v -5.144532 h 1.230469 z m 2.496094,0 h -1.195313 v 7.511719 h 1.195313 z m 0,-2.941406 h -1.207032 v 1.5 h 1.207032 z m 8.704101,9.75 c -0.128906,0.02344 -0.1875,0.02344 -0.257812,0.02344 -0.421875,0 -0.644532,-0.210937 -0.644532,-0.585937 v -4.417969 c 0,-1.335937 -0.984375,-2.050781 -2.824218,-2.050781 -1.113282,0 -1.980469,0.316406 -2.496094,0.878906 -0.351563,0.386719 -0.492188,0.820313 -0.515625,1.558594 h 1.195312 c 0.105469,-0.914063 0.644532,-1.324219 1.769532,-1.324219 1.089843,0 1.675781,0.398438 1.675781,1.113281 v 0.316407 c -0.01172,0.515625 -0.269531,0.703125 -1.242188,0.832031 -1.699218,0.210937 -1.957031,0.269531 -2.414062,0.457031 -0.878906,0.375 -1.324219,1.03125 -1.324219,2.003906 0,1.371094 0.949219,2.226563 2.472656,2.226563 0.949219,0 1.710938,-0.328125 2.554688,-1.101563 0.08203,0.773438 0.457031,1.101563 1.230469,1.101563 0.257812,0 0.421875,-0.02344 0.820312,-0.128906 z m -2.097656,-1.664063 c 0,0.398438 -0.117188,0.644532 -0.46875,0.972657 -0.492188,0.445312 -1.078125,0.679687 -1.78125,0.679687 -0.9375,0 -1.476563,-0.445312 -1.476563,-1.207031 0,-0.785156 0.515625,-1.195313 1.804688,-1.382813 1.277344,-0.164062 1.523437,-0.222656 1.921875,-0.410156 z m 4.576172,-8.085937 h -1.207032 v 10.453125 h 1.207032 z m 13.543945,3.070312 c 0,-0.726562 -0.04687,-0.925781 -0.28125,-1.40625 -0.574219,-1.207031 -1.792969,-1.839843 -3.550781,-1.839843 -2.296875,0 -3.714844,1.171875 -3.714844,3.070312 0,1.277344 0.667969,2.074219 2.050781,2.4375 l 2.589844,0.691406 c 1.335938,0.339844 1.921875,0.867188 1.921875,1.6875 0,0.5625 -0.292969,1.136719 -0.738281,1.453125 -0.421875,0.304688 -1.078125,0.445313 -1.921875,0.445313 -1.148438,0 -1.910156,-0.269531 -2.414063,-0.878906 -0.386718,-0.457032 -0.5625,-0.960938 -0.550781,-1.605469 h -1.253906 c 0.01172,0.960937 0.199219,1.59375 0.609375,2.167969 0.726562,0.984375 1.921875,1.488281 3.515625,1.488281 1.253906,0 2.273437,-0.28125 2.941406,-0.796875 0.703125,-0.5625 1.148438,-1.5 1.148438,-2.402344 0,-1.289062 -0.796875,-2.238281 -2.226563,-2.625 l -2.625,-0.703125 c -1.253906,-0.339844 -1.710937,-0.738281 -1.710937,-1.546875 0,-1.066406 0.925781,-1.769531 2.332031,-1.769531 1.664062,0 2.601562,0.75 2.613281,2.132812 z m 4.655273,-0.128906 h -1.230468 v -2.074219 h -1.195313 v 2.074219 h -1.019531 v 0.972656 h 1.019531 v 5.683594 c 0,0.773438 0.515625,1.183594 1.453125,1.183594 0.316406,0 0.574219,-0.02344 0.972656,-0.09375 v -1.007813 c -0.175781,0.04687 -0.328125,0.05859 -0.574218,0.05859 -0.515625,0 -0.65625,-0.140625 -0.65625,-0.679687 v -5.144532 h 1.230468 z m 8.018555,6.808594 c -0.128906,0.02344 -0.1875,0.02344 -0.257812,0.02344 -0.421875,0 -0.644532,-0.210937 -0.644532,-0.585937 v -4.417969 c 0,-1.335937 -0.984375,-2.050781 -2.824218,-2.050781 -1.113282,0 -1.980469,0.316406 -2.496094,0.878906 -0.351563,0.386719 -0.492188,0.820313 -0.515625,1.558594 h 1.195312 c 0.105469,-0.914063 0.644532,-1.324219 1.769532,-1.324219 1.089843,0 1.675781,0.398438 1.675781,1.113281 v 0.316407 c -0.01172,0.515625 -0.269531,0.703125 -1.242188,0.832031 -1.699218,0.210937 -1.957031,0.269531 -2.414062,0.457031 -0.878906,0.375 -1.324219,1.03125 -1.324219,2.003906 0,1.371094 0.949219,2.226563 2.472656,2.226563 0.949219,0 1.710938,-0.328125 2.554688,-1.101563 0.08203,0.773438 0.457031,1.101563 1.230469,1.101563 0.257812,0 0.421875,-0.02344 0.820312,-0.128906 z m -2.097656,-1.664063 c 0,0.398438 -0.117188,0.644532 -0.46875,0.972657 -0.492188,0.445312 -1.078125,0.679687 -1.78125,0.679687 -0.9375,0 -1.476563,-0.445312 -1.476563,-1.207031 0,-0.785156 0.515625,-1.195313 1.804688,-1.382813 1.277344,-0.164062 1.523437,-0.222656 1.921875,-0.410156 z m 6.041016,-5.144531 h -1.230469 v -2.074219 h -1.195313 v 2.074219 h -1.019531 v 0.972656 h 1.019531 v 5.683594 c 0,0.773438 0.515625,1.183594 1.453125,1.183594 0.316407,0 0.574219,-0.02344 0.972657,-0.09375 v -1.007813 c -0.175782,0.04687 -0.328125,0.05859 -0.574219,0.05859 -0.515625,0 -0.65625,-0.140625 -0.65625,-0.679687 v -5.144532 h 1.230469 z m 7.699218,4.160156 c 0,-1.148437 -0.08203,-1.839843 -0.304687,-2.402343 -0.480469,-1.230469 -1.628906,-1.980469 -3.035156,-1.980469 -2.097657,0 -3.445313,1.59375 -3.445313,4.078125 0,2.484375 1.289063,3.984375 3.410156,3.984375 1.722657,0 2.917969,-0.972656 3.210938,-2.613281 h -1.195313 c -0.339843,0.996093 -1.007812,1.511718 -1.96875,1.511718 -0.761718,0 -1.40625,-0.339843 -1.804687,-0.972656 -0.292969,-0.433594 -0.386719,-0.867187 -0.410156,-1.605469 z m -5.507812,-0.984375 c 0.09375,-1.382812 0.949219,-2.285156 2.144531,-2.285156 1.230469,0 2.074219,0.9375 2.074219,2.285156 z m 0,0"
       style="fill:#000000;fill-opacity:1;fill-rule:nonzero;stroke:none"
       aria-label="C&#10;Initial State"
       transform="matrix(1.3333333,0,0,1.3333333,246.45067,266.532)" />
    <path
       id="path13"
       d="m 573.637,5800.1 h 382.422 v 382.422 H 573.637 Z"
       style="fill:#ffffff;fill-opacity:1;fill-rule:evenodd;stroke:#000000;stroke-width:7.96717;stroke-linecap:butt;stroke-linejoin:miter;stroke-miterlimit:10;stroke-dasharray:none;stroke-opacity:1"
       transform="matrix(0.13333333,0,0,-0.13333333,0,1056)" />
    <path
       id="path14"
       d="m 9.0697641,-4.1841563 1.4296879,4.1835938 h 1.992187 L 7.5932016,-13.945875 H 5.2963266 L 0.32757656,-5.625e-4 H 2.2142953 l 1.4765625,-4.1835938 z m -0.5039063,-1.5 H 4.1361703 l 2.2851563,-6.3515627 z m 0,0"
       style="fill:#000000;fill-opacity:1;fill-rule:nonzero;stroke:none"
       aria-label="A"
       transform="matrix(1.3333333,0,0,1.3333333,93.4812,266.532)" />
    <path
       id="path15"
       d="m 1019.8,6055.05 h 127.47"
       style="fill:none;stroke:#000000;stroke-width:7.96717;stroke-linecap:butt;stroke-linejoin:miter;stroke-miterlimit:10;stroke-dasharray:none;stroke-opacity:1"
       transform="matrix(0.13333333,0,0,-0.13333333,0,1056)" />
    <path
       id="path16"
       d="m 1593.43,6055.05 h 127.48"
       style="fill:none;stroke:#000000;stroke-width:7.96717;stroke-linecap:butt;stroke-linejoin:miter;stroke-miterlimit:10;stroke-dasharray:none;stroke-opacity:1"
       transform="matrix(0.13333333,0,0,-0.13333333,0,1056)" />
    <path
       id="path17"
       d="M 446.16,6055.05 H 573.637"
       style="fill:none;stroke:#000000;stroke-width:7.96717;stroke-linecap:butt;stroke-linejoin:miter;stroke-miterlimit:10;stroke-dasharray:none;stroke-opacity:1"
       transform="matrix(0.13333333,0,0,-0.13333333,0,1056)" />
    <path
       id="path18"
       d="M 956.059,6182.52 H 573.637 l 63.738,63.74 H 1019.8 l -63.741,-63.74 V 5800.1 l 63.741,63.74 v 382.42"
       style="fill:#ffffff;fill-opacity:1;fill-rule:evenodd;stroke:#000000;stroke-width:7.96717;stroke-linecap:butt;stroke-linejoin:miter;stroke-miterlimit:10;stroke-dasharray:none;stroke-opacity:1"
       transform="matrix(0.13333333,0,0,-0.13333333,0,1056)" />
    <path
       id="path19"
       d="m 1529.7,6182.52 h -382.43 l 63.74,63.74 h 382.42 l -63.73,-63.74 V 5800.1 l 63.73,63.74 v 382.42"
       style="fill:#ffffff;fill-opacity:1;fill-rule:evenodd;stroke:#000000;stroke-width:7.96717;stroke-linecap:butt;stroke-linejoin:miter;stroke-miterlimit:10;stroke-dasharray:none;stroke-opacity:1"
       transform="matrix(0.13333333,0,0,-0.13333333,0,1056)" />
    <path
       id="path20"
       d="m 2103.33,6182.52 h -382.42 l 63.73,63.74 h 382.43 l -63.74,-63.74 V 5800.1 l 63.74,63.74 v 382.42"
       style="fill:#ffffff;fill-opacity:1;fill-rule:evenodd;stroke:#000000;stroke-width:7.96717;stroke-linecap:butt;stroke-linejoin:miter;stroke-miterlimit:10;stroke-dasharray:none;stroke-opacity:1"
       transform="matrix(0.13333333,0,0,-0.13333333,0,1056)" />
    <path
       id="path21"
       d="m 1147.27,5800.1 h 382.422 v 382.422 H 1147.27 Z"
       style="fill:#ffffff;fill-opacity:1;fill-rule:evenodd;stroke:#000000;stroke-width:7.96717;stroke-linecap:butt;stroke-linejoin:miter;stroke-miterlimit:10;stroke-dasharray:none;stroke-opacity:1"
       transform="matrix(0.13333333,0,0,-0.13333333,0,1056)" />
    <path
       id="path22"
       d="m 1.5103516,-5.625e-4 h 6.2929687 c 1.3125,0 2.2968747,-0.36328125 3.0351567,-1.171875 0.691406,-0.7265625 1.078125,-1.7109375 1.078125,-2.8007813 0,-1.6875 -0.773438,-2.7070312 -2.5429692,-3.3867187 1.2773442,-0.5976563 1.9335942,-1.6054688 1.9335942,-3.0468755 0,-1.03125 -0.386719,-1.910156 -1.113282,-2.554687 -0.7499997,-0.679688 -1.6874997,-0.984375 -3.0234372,-0.984375 H 1.5103516 Z m 1.78125,-7.9335938 v -4.4414067 h 3.4335937 c 0.9960938,0 1.5585938,0.140625 2.0273438,0.503907 0.5039062,0.375 0.7734375,0.949218 0.7734375,1.710937 0,0.7734377 -0.2695313,1.3476565 -0.7734375,1.7226565 -0.46875,0.3632812 -1.03125,0.5039062 -2.0273438,0.5039062 z m 0,6.3632813 v -4.7929688 h 4.3359375 c 1.5703125,0 2.5078129,0.890625 2.5078129,2.4023438 0,1.4882812 -0.9375004,2.390625 -2.5078129,2.390625 z m 0,0"
       style="fill:#000000;fill-opacity:1;fill-rule:nonzero;stroke:none"
       aria-label="B"
       transform="matrix(1.3333333,0,0,1.3333333,169.96667,266.532)" />
    <path
       id="path23"
       d="m 3887.98,6182.52 h 382.422 v 382.426 H 3887.98 Z"
       style="fill:#ffffff;fill-opacity:1;fill-rule:evenodd;stroke:#000000;stroke-width:7.96717;stroke-linecap:butt;stroke-linejoin:miter;stroke-miterlimit:10;stroke-dasharray:none;stroke-opacity:1"
       transform="matrix(0.13333333,0,0,-0.13333333,0,1056)" />
    <path
       id="path24"
       d="m 1.5126172,2.265625e-4 h 6.2929687 c 1.3125,0 2.2968751,-0.3632812525 3.0351561,-1.1718749625 0.691406,-0.7265625 1.078125,-1.7109375 1.078125,-2.8007813 0,-1.6875 -0.773437,-2.7070312 -2.5429686,-3.3867187 1.2773436,-0.5976563 1.9335936,-1.6054688 1.9335936,-3.0468746 0,-1.03125 -0.386719,-1.910157 -1.113281,-2.554688 -0.7500001,-0.679687 -1.6875001,-0.984375 -3.0234376,-0.984375 H 1.5126172 Z M 3.2938672,-7.9333672 v -4.4414058 h 3.4335937 c 0.9960938,0 1.5585938,0.140625 2.0273438,0.503906 0.5039062,0.375 0.7734375,0.949219 0.7734375,1.710937 0,0.7734378 -0.2695313,1.3476566 -0.7734375,1.7226566 -0.46875,0.3632812 -1.03125,0.5039062 -2.0273438,0.5039062 z m 0,6.3632813 v -4.7929688 h 4.3359375 c 1.5703125,0 2.5078123,0.890625 2.5078123,2.4023438 0,1.4882812 -0.9374998,2.390625 -2.5078123,2.390625 z m 5.7773437,-40.8574221 1.4296871,4.183594 h 1.992188 L 7.5946484,-52.189227 H 5.2977734 L 0.32902344,-38.243914 H 2.2157422 l 1.4765625,-4.183594 z m -0.5039062,-1.5 H 4.1376172 l 2.2851562,-6.351562 z m 0,0"
       style="fill:#000000;fill-opacity:1;fill-rule:nonzero;stroke:none"
       aria-label="B&#10;A"
       transform="matrix(1.3333333,0,0,1.3333333,535.39333,215.54267)" />
    <path
       id="path25"
       d="m 4270.4,6947.37 h -382.42 l 63.73,63.74 h 382.43 l -63.74,-63.74 v -382.42 l 63.74,63.73 v 382.43"
       style="fill:#ffffff;fill-opacity:1;fill-rule:evenodd;stroke:#000000;stroke-width:7.96717;stroke-linecap:butt;stroke-linejoin:miter;stroke-miterlimit:10;stroke-dasharray:none;stroke-opacity:1"
       transform="matrix(0.13333333,0,0,-0.13333333,0,1056)" />
  </g>
</svg>
