<?xml version="1.0" encoding="UTF-8" standalone="no"?>
<!-- Created with Inkscape (http://www.inkscape.org/) -->

<svg
   version="1.1"
   id="svg1"
   width="615.13147"
   height="155.0939"
   viewBox="0 0 615.13147 155.0939"
   xmlns="http://www.w3.org/2000/svg"
   xmlns:svg="http://www.w3.org/2000/svg">
  <defs
     id="defs1" />
  <g
     id="g1"
     transform="translate(-24.432513,-111.62574)">
    <path
       id="path1"
       d="m 191.211,5927.57 h 1274.75 V 7074.84 H 191.211 Z"
       style="fill:none;stroke:#b3b3b3;stroke-width:15.9343;stroke-linecap:butt;stroke-linejoin:miter;stroke-miterlimit:10;stroke-dasharray:none;stroke-opacity:1"
       transform="matrix(0.13333333,0,0,-0.13333333,0,1056)" />
    <path
       id="path2"
       d="M 7.1008031,-10.45307 H 5.9054906 v 3.8789059 c -0.5039062,-0.75 -1.3007812,-1.1601562 -2.3085937,-1.1601562 -1.9453125,0 -3.22265628,1.5703125 -3.22265628,3.9609375 0,2.5429687 1.23046878,4.10156249 3.26953128,4.10156249 1.03125,0 1.7460937,-0.38671875 2.390625,-1.3125 V 5.46875e-5 h 1.0664062 z m -3.3046875,3.8437497 c 1.3007813,0 2.109375,1.125 2.109375,2.9414062 0,1.734375 -0.8320312,2.88281254 -2.0859375,2.88281254 -1.3242187,0 -2.203125,-1.16015624 -2.203125,-2.91796874 0,-1.7460938 0.8789063,-2.90625 2.1796875,-2.90625 z m 11.5371094,3.2578125 c 0,-1.1484375 -0.08203,-1.8398438 -0.304688,-2.4023438 -0.480468,-1.2304687 -1.628906,-1.9804687 -3.035156,-1.9804687 -2.097656,0 -3.4453123,1.59375 -3.4453123,4.078125 0,2.484375 1.2890625,3.98437499 3.4101563,3.98437499 1.722656,0 2.917969,-0.97265625 3.210937,-2.61328129 H 13.97385 c -0.339844,0.9960938 -1.007813,1.51171879 -1.96875,1.51171879 -0.761719,0 -1.40625,-0.33984379 -1.804688,-0.97265629 C 9.9074437,-2.1796328 9.8136937,-2.6132266 9.7902562,-3.3515078 Z m -5.5078125,-0.984375 c 0.09375,-1.3828125 0.9492185,-2.2851563 2.1445315,-2.2851563 1.230468,0 2.074218,0.9375 2.074218,2.2851563 z m 12.8847655,-0.65625 c -0.05859,-0.7265625 -0.222656,-1.2070313 -0.503906,-1.6171875 -0.515625,-0.703125 -1.429688,-1.125 -2.472656,-1.125 -2.039063,0 -3.339844,1.6054687 -3.339844,4.1015625 0,2.4257812 1.289062,3.96093749 3.328125,3.96093749 1.792969,0 2.929687,-1.078125 3.070312,-2.90624999 h -1.207031 c -0.199219,1.1953125 -0.820312,1.80468749 -1.839844,1.80468749 -1.3125,0 -2.109375,-1.07812499 -2.109375,-2.85937499 0,-1.875 0.785157,-2.9882813 2.085938,-2.9882813 1.007812,0 1.628906,0.5859375 1.78125,1.6289063 z m 2.563477,-2.5195313 H 24.078342 V 5.46875e-5 h 1.195313 z m 0,-2.9414059 h -1.207032 v 1.4999997 h 1.207032 z m 7.30957,5.0273434 c -0.01172,-1.4765625 -0.984375,-2.3085937 -2.71875,-2.3085937 -1.757813,0 -2.882813,0.9023437 -2.882813,2.296875 0,1.171875 0.597657,1.734375 2.378907,2.1679687 l 1.113281,0.2695313 c 0.832031,0.1992187 1.160156,0.5039062 1.160156,1.03125 0,0.7265625 -0.703125,1.19531249 -1.746094,1.19531249 -0.644531,0 -1.195312,-0.1875 -1.488281,-0.50390629 -0.1875,-0.2109375 -0.28125,-0.4335937 -0.351562,-0.9609375 h -1.253907 c 0.05859,1.73437504 1.03125,2.56640629 2.988282,2.56640629 1.898437,0 3.105468,-0.92578125 3.105468,-2.37890629 0,-1.125 -0.632812,-1.734375 -2.121093,-2.0976562 l -1.148438,-0.2695313 c -0.972656,-0.234375 -1.394531,-0.5507812 -1.394531,-1.078125 0,-0.703125 0.621094,-1.125 1.59375,-1.125 0.960937,0 1.476562,0.4101563 1.5,1.1953125 z M 35.62717,-7.5116641 H 34.431858 V 5.46875e-5 h 1.195312 z m 0,-2.9414059 h -1.207031 v 1.4999997 h 1.207031 z m 4.930664,2.7187497 c -2.121093,0 -3.386718,1.5117187 -3.386718,4.03125 0,2.5429687 1.265625,4.03124999 3.398437,4.03124999 2.121094,0 3.398438,-1.49999999 3.398438,-3.97265629 0,-2.6132812 -1.230469,-4.0898437 -3.410157,-4.0898437 z m 0.01172,1.1132812 c 1.347656,0 2.15625,1.1015625 2.15625,2.9648438 0,1.78125 -0.832031,2.88281249 -2.15625,2.88281249 -1.335937,0 -2.144531,-1.10156249 -2.144531,-2.92968749 0,-1.8164063 0.808594,-2.9179688 2.144531,-2.9179688 z m 5.068359,-0.890625 V 5.46875e-5 h 1.195313 V -4.1483828 c 0,-1.5351563 0.808594,-2.53125 2.039062,-2.53125 0.949219,0 1.546875,0.5742187 1.546875,1.4765625 V 5.46875e-5 h 1.195313 V -5.6835391 c 0,-1.2421875 -0.925781,-2.0507812 -2.378906,-2.0507812 -1.125,0 -1.839844,0.4335937 -2.496094,1.4765625 v -1.2539063 z m 17.712891,2.5195313 c -0.05859,-0.7265625 -0.222656,-1.2070313 -0.503906,-1.6171875 -0.515625,-0.703125 -1.429688,-1.125 -2.472656,-1.125 -2.039063,0 -3.339844,1.6054687 -3.339844,4.1015625 0,2.4257812 1.289062,3.96093749 3.328125,3.96093749 1.792969,0 2.929687,-1.078125 3.070312,-2.90624999 h -1.207031 c -0.199219,1.1953125 -0.820312,1.80468749 -1.839844,1.80468749 -1.3125,0 -2.109375,-1.07812499 -2.109375,-2.85937499 0,-1.875 0.785157,-2.9882813 2.085938,-2.9882813 1.007812,0 1.628906,0.5859375 1.78125,1.6289063 z m 5.976563,-2.5195313 -2.085938,5.8476563 -1.921875,-5.8476563 H 64.04221 l 2.542969,7.53515629 -0.457031,1.19531251 c -0.199219,0.5273437 -0.457031,0.7265625 -0.960938,0.7265625 -0.199218,0 -0.375,-0.023437 -0.632812,-0.082031 v 1.078125 c 0.246094,0.1289063 0.492187,0.1875 0.808594,0.1875 0.386718,0 0.796875,-0.1289062 1.113281,-0.3632812 0.375,-0.2695313 0.585937,-0.5859375 0.820312,-1.1835938 l 3.339844,-9.09375 z m 8.364257,2.5195313 c -0.05859,-0.7265625 -0.222656,-1.2070313 -0.503906,-1.6171875 -0.515625,-0.703125 -1.429687,-1.125 -2.472656,-1.125 -2.039063,0 -3.339844,1.6054687 -3.339844,4.1015625 0,2.4257812 1.289063,3.96093749 3.328125,3.96093749 1.792969,0 2.929688,-1.078125 3.070313,-2.90624999 h -1.207032 c -0.199218,1.1953125 -0.820312,1.80468749 -1.839843,1.80468749 -1.3125,0 -2.109375,-1.07812499 -2.109375,-2.85937499 0,-1.875 0.785156,-2.9882813 2.085937,-2.9882813 1.007813,0 1.628906,0.5859375 1.78125,1.6289063 z M 80.281467,-10.45307 H 79.074436 V 5.46875e-5 h 1.207031 z m 8.361328,7.1015622 c 0,-1.1484375 -0.08203,-1.8398438 -0.304687,-2.4023438 -0.480469,-1.2304687 -1.628906,-1.9804687 -3.035156,-1.9804687 -2.097657,0 -3.445313,1.59375 -3.445313,4.078125 0,2.484375 1.289063,3.98437499 3.410156,3.98437499 1.722657,0 2.917969,-0.97265625 3.210938,-2.61328129 H 87.28342 c -0.339843,0.9960938 -1.007812,1.51171879 -1.96875,1.51171879 -0.761718,0 -1.40625,-0.33984379 -1.804687,-0.97265629 -0.292969,-0.4335937 -0.386719,-0.8671875 -0.410156,-1.6054687 z m -5.507812,-0.984375 c 0.09375,-1.3828125 0.949219,-2.2851563 2.144531,-2.2851563 1.230469,0 2.074219,0.9375 2.074219,2.2851563 z m 13.825195,-3.046875 V 5.46875e-5 h 1.265625 V -10.371039 h -0.832031 c -0.445313,1.5937499 -0.738281,1.8046874 -2.683594,2.0624999 v 0.9257813 z M 134.57737,-10.45307 h -1.19532 v 3.8789059 c -0.5039,-0.75 -1.30078,-1.1601562 -2.30859,-1.1601562 -1.94531,0 -3.22266,1.5703125 -3.22266,3.9609375 0,2.5429687 1.23047,4.10156249 3.26953,4.10156249 1.03125,0 1.7461,-0.38671875 2.39063,-1.3125 V 5.46875e-5 h 1.06641 z m -3.30469,3.8437497 c 1.30078,0 2.10937,1.125 2.10937,2.9414062 0,1.734375 -0.83203,2.88281254 -2.08593,2.88281254 -1.32422,0 -2.20313,-1.16015624 -2.20313,-2.91796874 0,-1.7460938 0.87891,-2.90625 2.17969,-2.90625 z m 11.53418,3.2578125 c 0,-1.1484375 -0.082,-1.8398438 -0.30469,-2.4023438 -0.48047,-1.2304687 -1.62891,-1.9804687 -3.03516,-1.9804687 -2.09765,0 -3.44531,1.59375 -3.44531,4.078125 0,2.484375 1.28906,3.98437499 3.41016,3.98437499 1.72265,0 2.91797,-0.97265625 3.21094,-2.61328129 h -1.19532 c -0.33984,0.9960938 -1.00781,1.51171879 -1.96875,1.51171879 -0.76172,0 -1.40625,-0.33984379 -1.80468,-0.97265629 -0.29297,-0.4335937 -0.38672,-0.8671875 -0.41016,-1.6054687 z m -5.50781,-0.984375 c 0.0937,-1.3828125 0.94921,-2.2851563 2.14453,-2.2851563 1.23047,0 2.07422,0.9375 2.07422,2.2851563 z m 12.88476,-0.65625 c -0.0586,-0.7265625 -0.22266,-1.2070313 -0.50391,-1.6171875 -0.51562,-0.703125 -1.42968,-1.125 -2.47265,-1.125 -2.03906,0 -3.33985,1.6054687 -3.33985,4.1015625 0,2.4257812 1.28907,3.96093749 3.32813,3.96093749 1.79297,0 2.92969,-1.078125 3.07031,-2.90624999 h -1.20703 c -0.19922,1.1953125 -0.82031,1.80468749 -1.83984,1.80468749 -1.3125,0 -2.10938,-1.07812499 -2.10938,-2.85937499 0,-1.875 0.78516,-2.9882813 2.08594,-2.9882813 1.00781,0 1.62891,0.5859375 1.78125,1.6289063 z m 2.56348,-2.5195313 h -1.19532 V 5.46875e-5 h 1.19532 z m 0,-2.9414059 h -1.20703 v 1.4999997 h 1.20703 z m 7.30957,5.0273434 c -0.0117,-1.4765625 -0.98438,-2.3085937 -2.71875,-2.3085937 -1.75781,0 -2.88281,0.9023437 -2.88281,2.296875 0,1.171875 0.59765,1.734375 2.3789,2.1679687 l 1.11328,0.2695313 c 0.83203,0.1992187 1.16016,0.5039062 1.16016,1.03125 0,0.7265625 -0.70313,1.19531249 -1.74609,1.19531249 -0.64454,0 -1.19532,-0.1875 -1.48829,-0.50390629 -0.1875,-0.2109375 -0.28125,-0.4335937 -0.35156,-0.9609375 h -1.2539 c 0.0586,1.73437504 1.03125,2.56640629 2.98828,2.56640629 1.89843,0 3.10547,-0.92578125 3.10547,-2.37890629 0,-1.125 -0.63282,-1.734375 -2.1211,-2.0976562 l -1.14844,-0.2695313 c -0.97265,-0.234375 -1.39453,-0.5507812 -1.39453,-1.078125 0,-0.703125 0.6211,-1.125 1.59375,-1.125 0.96094,0 1.47657,0.4101563 1.5,1.1953125 z m 3.04687,-2.0859375 h -1.19531 V 5.46875e-5 h 1.19531 z m 0,-2.9414059 h -1.20703 v 1.4999997 h 1.20703 z m 4.92774,2.7187497 c -2.1211,0 -3.38672,1.5117187 -3.38672,4.03125 0,2.5429687 1.26562,4.03124999 3.39844,4.03124999 2.12109,0 3.39843,-1.49999999 3.39843,-3.97265629 0,-2.6132812 -1.23047,-4.0898437 -3.41015,-4.0898437 z m 0.0117,1.1132812 c 1.34765,0 2.15625,1.1015625 2.15625,2.9648438 0,1.78125 -0.83204,2.88281249 -2.15625,2.88281249 -1.33594,0 -2.14454,-1.10156249 -2.14454,-2.92968749 0,-1.8164063 0.8086,-2.9179688 2.14454,-2.9179688 z m 5.06836,-0.890625 V 5.46875e-5 h 1.19531 V -4.1483828 c 0,-1.5351563 0.80859,-2.53125 2.03906,-2.53125 0.94922,0 1.54688,0.5742187 1.54688,1.4765625 V 5.46875e-5 h 1.19531 V -5.6835391 c 0,-1.2421875 -0.92578,-2.0507812 -2.37891,-2.0507812 -1.125,0 -1.83984,0.4335937 -2.49609,1.4765625 v -1.2539063 z m 17.71289,2.5195313 c -0.0586,-0.7265625 -0.22266,-1.2070313 -0.50391,-1.6171875 -0.51563,-0.703125 -1.42969,-1.125 -2.47266,-1.125 -2.03906,0 -3.33984,1.6054687 -3.33984,4.1015625 0,2.4257812 1.28906,3.96093749 3.32812,3.96093749 1.79297,0 2.92969,-1.078125 3.07032,-2.90624999 h -1.20703 c -0.19922,1.1953125 -0.82032,1.80468749 -1.83985,1.80468749 -1.3125,0 -2.10937,-1.07812499 -2.10937,-2.85937499 0,-1.875 0.78515,-2.9882813 2.08593,-2.9882813 1.00782,0 1.62891,0.5859375 1.78125,1.6289063 z m 5.97656,-2.5195313 -2.08594,5.8476563 -1.92187,-5.8476563 h -1.27735 l 2.54297,7.53515629 -0.45703,1.19531251 c -0.19922,0.5273437 -0.45703,0.7265625 -0.96094,0.7265625 -0.19922,0 -0.375,-0.023437 -0.63281,-0.082031 v 1.078125 c 0.24609,0.1289063 0.49219,0.1875 0.80859,0.1875 0.38672,0 0.79688,-0.1289062 1.11328,-0.3632812 0.375,-0.2695313 0.58594,-0.5859375 0.82032,-1.1835938 l 3.33984,-9.09375 z m 8.36426,2.5195313 c -0.0586,-0.7265625 -0.22266,-1.2070313 -0.50391,-1.6171875 -0.51563,-0.703125 -1.42969,-1.125 -2.47266,-1.125 -2.03906,0 -3.33984,1.6054687 -3.33984,4.1015625 0,2.4257812 1.28906,3.96093749 3.32812,3.96093749 1.79297,0 2.92969,-1.078125 3.07032,-2.90624999 h -1.20703 c -0.19922,1.1953125 -0.82032,1.80468749 -1.83985,1.80468749 -1.3125,0 -2.10937,-1.07812499 -2.10937,-2.85937499 0,-1.875 0.78515,-2.9882813 2.08593,-2.9882813 1.00782,0 1.62891,0.5859375 1.78125,1.6289063 z m 2.58984,-5.4609372 h -1.20703 V 5.46875e-5 h 1.20703 z m 8.36426,7.1015622 c 0,-1.1484375 -0.082,-1.8398438 -0.30469,-2.4023438 -0.48047,-1.2304687 -1.62891,-1.9804687 -3.03516,-1.9804687 -2.09765,0 -3.44531,1.59375 -3.44531,4.078125 0,2.484375 1.28906,3.98437499 3.41016,3.98437499 1.72265,0 2.91797,-0.97265625 3.21094,-2.61328129 h -1.19532 c -0.33984,0.9960938 -1.00781,1.51171879 -1.96875,1.51171879 -0.76172,0 -1.40625,-0.33984379 -1.80468,-0.97265629 -0.29297,-0.4335937 -0.38672,-0.8671875 -0.41016,-1.6054687 z m -5.50781,-0.984375 c 0.0937,-1.3828125 0.94921,-2.2851563 2.14453,-2.2851563 1.23047,0 2.07422,0.9375 2.07422,2.2851563 z m 17.36132,3.09375 h -5.34375 c 0.12891,-0.8671875 0.58594,-1.40625 1.82813,-2.1679688 l 1.4414,-0.8085937 c 1.41797,-0.7851563 2.14454,-1.8515625 2.14454,-3.1289063 0,-0.8554687 -0.33985,-1.6640625 -0.9375,-2.2148437 -0.60938,-0.5507817 -1.34766,-0.8085937 -2.3086,-0.8085937 -1.30078,0 -2.26172,0.4570312 -2.8125,1.3476562 -0.36328,0.5507812 -0.51562,1.1953125 -0.55078,2.2382812 h 1.26563 c 0.0469,-0.703125 0.1289,-1.1132812 0.30468,-1.4648437 0.32813,-0.6328125 0.98438,-1.0195313 1.7461,-1.0195313 1.14843,0 2.0039,0.8320313 2.0039,1.9570313 0,0.8320312 -0.46875,1.546875 -1.37109,2.0625 l -1.32422,0.7734375 c -2.12109,1.21875 -2.74219,2.1914062 -2.84766,4.46484374 h 6.76172 z M 262.051,-10.45307 h -1.19531 v 3.8789059 c -0.50391,-0.75 -1.30079,-1.1601562 -2.3086,-1.1601562 -1.94531,0 -3.22265,1.5703125 -3.22265,3.9609375 0,2.5429687 1.23046,4.10156249 3.26953,4.10156249 1.03125,0 1.74609,-0.38671875 2.39062,-1.3125 V 5.46875e-5 h 1.06641 z m -3.30469,3.8437497 c 1.30078,0 2.10938,1.125 2.10938,2.9414062 0,1.734375 -0.83204,2.88281254 -2.08594,2.88281254 -1.32422,0 -2.20313,-1.16015624 -2.20313,-2.91796874 0,-1.7460938 0.87891,-2.90625 2.17969,-2.90625 z m 11.53711,3.2578125 c 0,-1.1484375 -0.082,-1.8398438 -0.30469,-2.4023438 -0.48047,-1.2304687 -1.6289,-1.9804687 -3.03515,-1.9804687 -2.09766,0 -3.44532,1.59375 -3.44532,4.078125 0,2.484375 1.28907,3.98437499 3.41016,3.98437499 1.72266,0 2.91797,-0.97265625 3.21094,-2.61328129 h -1.19531 c -0.33985,0.9960938 -1.00782,1.51171879 -1.96875,1.51171879 -0.76172,0 -1.40625,-0.33984379 -1.80469,-0.97265629 -0.29297,-0.4335937 -0.38672,-0.8671875 -0.41016,-1.6054687 z m -5.50781,-0.984375 c 0.0937,-1.3828125 0.94922,-2.2851563 2.14453,-2.2851563 1.23047,0 2.07422,0.9375 2.07422,2.2851563 z m 12.88183,-0.65625 c -0.0586,-0.7265625 -0.22265,-1.2070313 -0.5039,-1.6171875 -0.51563,-0.703125 -1.42969,-1.125 -2.47266,-1.125 -2.03906,0 -3.33984,1.6054687 -3.33984,4.1015625 0,2.4257812 1.28906,3.96093749 3.32812,3.96093749 1.79297,0 2.92969,-1.078125 3.07031,-2.90624999 h -1.20703 c -0.19922,1.1953125 -0.82031,1.80468749 -1.83984,1.80468749 -1.3125,0 -2.10938,-1.07812499 -2.10938,-2.85937499 0,-1.875 0.78516,-2.9882813 2.08594,-2.9882813 1.00781,0 1.62891,0.5859375 1.78125,1.6289063 z m 2.56641,-2.5195313 h -1.19531 V 5.46875e-5 h 1.19531 z m 0,-2.9414059 h -1.20703 v 1.4999997 h 1.20703 z m 7.30957,5.0273434 c -0.0117,-1.4765625 -0.98437,-2.3085937 -2.71875,-2.3085937 -1.75781,0 -2.88281,0.9023437 -2.88281,2.296875 0,1.171875 0.59765,1.734375 2.3789,2.1679687 l 1.11329,0.2695313 c 0.83203,0.1992187 1.16015,0.5039062 1.16015,1.03125 0,0.7265625 -0.70312,1.19531249 -1.74609,1.19531249 -0.64453,0 -1.19531,-0.1875 -1.48828,-0.50390629 -0.1875,-0.2109375 -0.28125,-0.4335937 -0.35157,-0.9609375 h -1.2539 c 0.0586,1.73437504 1.03125,2.56640629 2.98828,2.56640629 1.89844,0 3.10547,-0.92578125 3.10547,-2.37890629 0,-1.125 -0.63281,-1.734375 -2.1211,-2.0976562 l -1.14843,-0.2695313 c -0.97266,-0.234375 -1.39453,-0.5507812 -1.39453,-1.078125 0,-0.703125 0.62109,-1.125 1.59375,-1.125 0.96093,0 1.47656,0.4101563 1.5,1.1953125 z m 3.04395,-2.0859375 h -1.19532 V 5.46875e-5 h 1.19532 z m 0,-2.9414059 h -1.20704 v 1.4999997 h 1.20704 z m 4.93066,2.7187497 c -2.12109,0 -3.38672,1.5117187 -3.38672,4.03125 0,2.5429687 1.26563,4.03124999 3.39844,4.03124999 2.12109,0 3.39844,-1.49999999 3.39844,-3.97265629 0,-2.6132812 -1.23047,-4.0898437 -3.41016,-4.0898437 z m 0.0117,1.1132812 c 1.34765,0 2.15625,1.1015625 2.15625,2.9648438 0,1.78125 -0.83203,2.88281249 -2.15625,2.88281249 -1.33594,0 -2.14453,-1.10156249 -2.14453,-2.92968749 0,-1.8164063 0.80859,-2.9179688 2.14453,-2.9179688 z m 5.06543,-0.890625 V 5.46875e-5 h 1.19531 V -4.1483828 c 0,-1.5351563 0.80859,-2.53125 2.03906,-2.53125 0.94922,0 1.54688,0.5742187 1.54688,1.4765625 V 5.46875e-5 h 1.19531 V -5.6835391 c 0,-1.2421875 -0.92578,-2.0507812 -2.37891,-2.0507812 -1.125,0 -1.83984,0.4335937 -2.49609,1.4765625 v -1.2539063 z m 17.71582,2.5195313 c -0.0586,-0.7265625 -0.22266,-1.2070313 -0.50391,-1.6171875 -0.51562,-0.703125 -1.42969,-1.125 -2.47265,-1.125 -2.03907,0 -3.33985,1.6054687 -3.33985,4.1015625 0,2.4257812 1.28906,3.96093749 3.32813,3.96093749 1.79297,0 2.92968,-1.078125 3.07031,-2.90624999 H 317.176 c -0.19922,1.1953125 -0.82031,1.80468749 -1.83985,1.80468749 -1.3125,0 -2.10937,-1.07812499 -2.10937,-2.85937499 0,-1.875 0.78516,-2.9882813 2.08594,-2.9882813 1.00781,0 1.6289,0.5859375 1.78125,1.6289063 z m 5.97363,-2.5195313 -2.08594,5.8476563 -1.92187,-5.8476563 h -1.27735 l 2.54297,7.53515629 -0.45703,1.19531251 c -0.19922,0.5273437 -0.45703,0.7265625 -0.96094,0.7265625 -0.19921,0 -0.375,-0.023437 -0.63281,-0.082031 v 1.078125 c 0.2461,0.1289063 0.49219,0.1875 0.8086,0.1875 0.38671,0 0.79687,-0.1289062 1.11328,-0.3632812 0.375,-0.2695313 0.58593,-0.5859375 0.82031,-1.1835938 l 3.33984,-9.09375 z m 8.36719,2.5195313 c -0.0586,-0.7265625 -0.22266,-1.2070313 -0.50391,-1.6171875 -0.51562,-0.703125 -1.42969,-1.125 -2.47265,-1.125 -2.03907,0 -3.33985,1.6054687 -3.33985,4.1015625 0,2.4257812 1.28906,3.96093749 3.32813,3.96093749 1.79297,0 2.92968,-1.078125 3.07031,-2.90624999 h -1.20703 c -0.19922,1.1953125 -0.82031,1.80468749 -1.83985,1.80468749 -1.3125,0 -2.10937,-1.07812499 -2.10937,-2.85937499 0,-1.875 0.78516,-2.9882813 2.08594,-2.9882813 1.00781,0 1.6289,0.5859375 1.78125,1.6289063 z m 2.58691,-5.4609372 H 334.0217 V 5.46875e-5 h 1.20703 z m 8.36426,7.1015622 c 0,-1.1484375 -0.082,-1.8398438 -0.30469,-2.4023438 -0.48047,-1.2304687 -1.6289,-1.9804687 -3.03515,-1.9804687 -2.09766,0 -3.44532,1.59375 -3.44532,4.078125 0,2.484375 1.28907,3.98437499 3.41016,3.98437499 1.72266,0 2.91797,-0.97265625 3.21094,-2.61328129 h -1.19531 c -0.33985,0.9960938 -1.00782,1.51171879 -1.96875,1.51171879 -0.76172,0 -1.40625,-0.33984379 -1.80469,-0.97265629 -0.29297,-0.4335937 -0.38672,-0.8671875 -0.41016,-1.6054687 z m -5.50781,-0.984375 c 0.0937,-1.3828125 0.94922,-2.2851563 2.14453,-2.2851563 1.23047,0 2.07422,0.9375 2.07422,2.2851563 z m 13.2832,-0.4453125 h 0.67969 c 1.38281,0 2.10937,0.6445312 2.10937,1.8984375 0,1.3007812 -0.78515,2.09765624 -2.09765,2.09765624 -1.38282,0 -2.0625,-0.70312504 -2.14453,-2.22656254 h -1.26563 c 0.0586,0.8320313 0.19922,1.3710938 0.44531,1.8398438 0.52735,0.99609374 1.52344,1.49999999 2.91797,1.49999999 2.08594,0 3.4336,-1.265625 3.4336,-3.22265629 0,-1.3242187 -0.49219,-2.0390625 -1.72266,-2.4726562 0.94922,-0.3867188 1.42969,-1.1015625 1.42969,-2.1445313 0,-1.78125 -1.17188,-2.8593749 -3.10547,-2.8593749 -2.05078,0 -3.14063,1.1484374 -3.17578,3.3398437 h 1.2539 c 0.0117,-0.6328125 0.0703,-0.984375 0.23438,-1.3007813 0.28125,-0.5859375 0.91406,-0.9375 1.69922,-0.9375 1.125,0 1.79297,0.6796875 1.79297,1.7929688 0,0.7382812 -0.25782,1.1835937 -0.8086,1.4179687 -0.35156,0.1523438 -0.80859,0.2109375 -1.67578,0.2226563 z m 0,0"
       style="fill:#000000;fill-opacity:1;fill-rule:nonzero;stroke:none"
       aria-label="decision cycle 1decision cycle 2decision cycle 3"
       transform="matrix(1.3333333,0,0,1.3333333,33.9932,251.44133)" />
    <path
       id="path3"
       d="M 4.0888828,-2.7896641 H 1.2177891 v 2.7890625375 h 2.8710937 z m 10.6318362,0 h -2.871094 v 2.7890625375 h 2.871094 z m 10.631836,0 h -2.871094 v 2.7890625375 h 2.871094 z m 0,0"
       style="fill:#cccccc;fill-opacity:1;fill-rule:nonzero;stroke:none"
       aria-label=". . ."
       transform="matrix(1.3333333,0,0,1.3333333,560.888,246.14533)" />
    <path
       id="path4"
       d="m 3.4922094,-3.011875 c -0.011719,-0.8203125 -0.5507813,-1.2890625 -1.5117188,-1.2890625 -0.9726562,0 -1.60546872,0.5039062 -1.60546872,1.2773437 0,0.65625 0.33984375,0.9726563 1.32421872,1.2070313 l 0.6210938,0.1523437 c 0.4570312,0.1054688 0.6445312,0.28125 0.6445312,0.5742188 0,0.3984375 -0.3867187,0.65625 -0.9726562,0.65625 -0.3632813,0 -0.65625,-0.10546875 -0.8320313,-0.28125 C 1.0547094,-0.8321875 1.0078344,-0.949375 0.97267813,-1.2423438 h -0.703125 c 0.0351563,0.96093755 0.57421875,1.42968755 1.66406247,1.42968755 1.0546875,0 1.7226563,-0.52734375 1.7226563,-1.32421875 0,-0.6210938 -0.3515625,-0.9726563 -1.1835938,-1.171875 L 1.8398656,-2.449375 C 1.3008031,-2.5782813 1.0664281,-2.7540625 1.0664281,-3.0470313 c 0,-0.3984375 0.3398438,-0.6328125 0.890625,-0.6328125 0.5273438,0 0.8203125,0.234375 0.8320313,0.6679688 z m 7.7695316,1.1484375 c 0,-0.6445313 -0.04687,-1.0195313 -0.164063,-1.3359375 -0.28125,-0.6796875 -0.914062,-1.1015625 -1.6992186,-1.1015625 -1.1601563,0 -1.9101563,0.890625 -1.9101563,2.2734375 0,1.37109375 0.7148438,2.21484375 1.8984375,2.21484375 0.9609374,0 1.6171874,-0.55078125 1.7812504,-1.45312505 H 10.500022 C 10.324241,-0.715 9.9492406,-0.43375 9.4101781,-0.43375 c -0.421875,0 -0.7851562,-0.1875 -1.0078125,-0.5390625 -0.1523437,-0.234375 -0.2109375,-0.4804688 -0.2226562,-0.890625 z M 8.2031469,-2.4025 c 0.046875,-0.7734375 0.5273437,-1.2773438 1.1953125,-1.2773438 0.6796876,0 1.1484376,0.5273438 1.1484376,1.2773438 z m 8.1474611,-3.4101563 h -0.667969 v 5.81250005 h 0.667969 z m 6.067383,3.9492188 c 0,-0.6445313 -0.04687,-1.0195313 -0.164063,-1.3359375 -0.28125,-0.6796875 -0.914062,-1.1015625 -1.699219,-1.1015625 -1.160156,0 -1.910156,0.890625 -1.910156,2.2734375 0,1.37109375 0.714844,2.21484375 1.898438,2.21484375 0.960937,0 1.617187,-0.55078125 1.78125,-1.45312505 H 21.656272 C 21.480491,-0.715 21.105491,-0.43375 20.566428,-0.43375 c -0.421875,0 -0.785156,-0.1875 -1.007812,-0.5390625 -0.152344,-0.234375 -0.210938,-0.4804688 -0.222657,-0.890625 z M 19.359397,-2.4025 c 0.04687,-0.7734375 0.527344,-1.2773438 1.195312,-1.2773438 0.679688,0 1.148438,0.5273438 1.148438,1.2773438 z m 10.69043,-0.375 c -0.02344,-0.3984375 -0.117188,-0.6679688 -0.28125,-0.890625 -0.28125,-0.3984375 -0.785157,-0.6328125 -1.359375,-0.6328125 -1.136719,0 -1.863282,0.9023437 -1.863282,2.2851562 0,1.3476563 0.714844,2.20312505 1.851563,2.20312505 0.996094,0 1.628906,-0.59765625 1.699219,-1.61718755 h -0.667969 c -0.105469,0.6679688 -0.457031,0.9960938 -1.019531,0.9960938 -0.726563,0 -1.171875,-0.5976563 -1.171875,-1.5820313 0,-1.0429687 0.433593,-1.6640625 1.160156,-1.6640625 0.550781,0 0.902344,0.328125 0.984375,0.9023438 z m 5.449218,-1.3945313 h -0.691406 v -1.1484375 h -0.65625 v 1.1484375 h -0.5625 v 0.5390625 h 0.5625 v 3.1523438 c 0,0.43359375 0.28125,0.66796875 0.796875,0.66796875 0.175781,0 0.328125,-0.0234375 0.550781,-0.0585938 v -0.5625 c -0.09375,0.0234375 -0.1875,0.0351563 -0.316406,0.0351563 -0.292969,0 -0.375,-0.0820313 -0.375,-0.375 V -3.6329688 h 0.691406 z M 2.1679906,3.9783594 c -1.18359372,0 -1.88671872,0.84375 -1.88671872,2.25 0,1.40625 0.703125,2.2382812 1.89843752,2.2382812 1.171875,0 1.8867187,-0.84375 1.8867187,-2.2148437 0,-1.4414063 -0.6914062,-2.2734375 -1.8984375,-2.2734375 z m 0.011719,0.6210937 c 0.75,0 1.1953125,0.609375 1.1953125,1.6523438 0,0.984375 -0.46875,1.59375 -1.1953125,1.59375 -0.75,0 -1.19531252,-0.609375 -1.19531252,-1.6171875 0,-1.0195313 0.44531252,-1.6289063 1.19531252,-1.6289063 z M 4.8633031,10.013516 H 5.5312719 V 7.8455469 c 0.3515625,0.421875 0.7382812,0.6210937 1.2773437,0.6210937 1.0898438,0 1.7929688,-0.8671875 1.7929688,-2.203125 0,-1.40625 -0.6914063,-2.2851562 -1.7929688,-2.2851562 -0.5742187,0 -1.0195312,0.2578125 -1.3359375,0.75 V 4.1072656 h -0.609375 z m 1.828125,-5.4023441 c 0.7382813,0 1.2070313,0.6445312 1.2070313,1.640625 0,0.9492187 -0.4804688,1.59375 -1.2070313,1.59375 -0.703125,0 -1.1601562,-0.6445313 -1.1601562,-1.6171875 0,-0.984375 0.4570312,-1.6171875 1.1601562,-1.6171875 z m 6.2578129,1.8046875 c 0,-0.6445313 -0.04687,-1.0195313 -0.164063,-1.3359375 -0.28125,-0.6796875 -0.914062,-1.1015625 -1.699219,-1.1015625 -1.1601559,0 -1.9101559,0.890625 -1.9101559,2.2734375 0,1.3710937 0.7148438,2.2148437 1.8984379,2.2148437 0.960937,0 1.617187,-0.5507812 1.78125,-1.453125 h -0.667969 c -0.175781,0.5507813 -0.550781,0.8320313 -1.089844,0.8320313 -0.421875,0 -0.785156,-0.1875 -1.007812,-0.5390625 C 9.9375219,7.0721094 9.8789281,6.8260156 9.8672094,6.4158594 Z M 9.8906469,5.8767969 c 0.046875,-0.7734375 0.5273441,-1.2773438 1.1953121,-1.2773438 0.679688,0 1.148438,0.5273438 1.148438,1.2773438 z M 13.839866,4.1072656 v 4.171875 h 0.667968 V 6.1111719 c 0.01172,-1.0078125 0.421875,-1.453125 1.335938,-1.4296875 V 4.0135156 c -0.105469,-0.023437 -0.175781,-0.035156 -0.246094,-0.035156 -0.433594,0 -0.761719,0.2578125 -1.148437,0.8789062 v -0.75 z m 6.36914,3.7851563 c -0.07031,0.011719 -0.105468,0.011719 -0.140625,0.011719 -0.234375,0 -0.363281,-0.1171875 -0.363281,-0.328125 v -2.449219 c 0,-0.75 -0.539062,-1.1484375 -1.570312,-1.1484375 -0.609375,0 -1.101563,0.1757812 -1.382813,0.4921875 -0.199219,0.2109375 -0.269531,0.4570312 -0.292969,0.8671875 h 0.667969 c 0.05859,-0.5039063 0.363281,-0.7382813 0.984375,-0.7382813 0.609375,0 0.9375,0.2226563 0.9375,0.6210938 v 0.1757812 c -0.01172,0.28125 -0.152344,0.3867188 -0.703125,0.4570313 -0.9375,0.1171875 -1.078125,0.1523437 -1.335937,0.2578125 -0.480469,0.2109375 -0.726563,0.5742187 -0.726563,1.1132812 0,0.7617188 0.515625,1.2421875 1.371094,1.2421875 0.515625,0 0.9375,-0.1875 1.417969,-0.6210937 0.04687,0.4335937 0.246093,0.6210937 0.679687,0.6210937 0.140625,0 0.234375,-0.023437 0.457031,-0.070312 z M 19.04885,6.9666406 c 0,0.2226563 -0.07031,0.3515625 -0.269531,0.5390625 -0.269531,0.2460938 -0.597656,0.375 -0.984375,0.375 -0.515625,0 -0.820313,-0.2460937 -0.820313,-0.6679687 0,-0.4453125 0.28125,-0.6679688 0.996094,-0.7617188 0.714844,-0.1054687 0.84375,-0.1289062 1.078125,-0.234375 z m 3.351563,-2.859375 H 21.709006 V 2.9588281 h -0.65625 v 1.1484375 h -0.5625 v 0.5390625 h 0.5625 v 3.1523438 c 0,0.4335937 0.28125,0.6679687 0.796875,0.6679687 0.175782,0 0.328125,-0.023437 0.550782,-0.058594 v -0.5625 c -0.09375,0.023437 -0.1875,0.035156 -0.316407,0.035156 -0.292968,0 -0.375,-0.082031 -0.375,-0.375 v -2.859375 h 0.691407 z m 2.355468,-0.1289062 c -1.183593,0 -1.886718,0.84375 -1.886718,2.25 0,1.40625 0.703125,2.2382812 1.898437,2.2382812 1.171875,0 1.886719,-0.84375 1.886719,-2.2148437 0,-1.4414063 -0.691406,-2.2734375 -1.898438,-2.2734375 z m 0.01172,0.6210937 c 0.75,0 1.195313,0.609375 1.195313,1.6523438 0,0.984375 -0.46875,1.59375 -1.195313,1.59375 -0.75,0 -1.195312,-0.609375 -1.195312,-1.6171875 0,-1.0195313 0.445312,-1.6289063 1.195312,-1.6289063 z m 2.800781,-0.4921875 v 4.171875 H 28.23635 V 6.1111719 c 0.01172,-1.0078125 0.421875,-1.453125 1.335938,-1.4296875 V 4.0135156 c -0.105469,-0.023437 -0.175782,-0.035156 -0.246094,-0.035156 -0.433594,0 -0.761719,0.2578125 -1.148438,0.8789062 v -0.75 z m 6.37793,0.070312 v 4.1015625 h 0.703125 v -5.765625 h -0.457031 c -0.257813,0.890625 -0.410157,1.0078125 -1.5,1.1484375 v 0.515625 z M 68.003928,-0.386875 c -0.07031,0.0117188 -0.105469,0.0117188 -0.140625,0.0117188 -0.234375,0 -0.363281,-0.1171875 -0.363281,-0.328125 V -3.1525 c 0,-0.75 -0.539063,-1.1484375 -1.570313,-1.1484375 -0.609375,0 -1.101562,0.1757812 -1.382812,0.4921875 -0.199219,0.2109375 -0.269531,0.4570312 -0.292969,0.8671875 h 0.667969 c 0.05859,-0.5039063 0.363281,-0.7382813 0.984375,-0.7382813 0.609375,0 0.9375,0.2226563 0.9375,0.6210938 v 0.1757812 c -0.01172,0.28125 -0.152344,0.3867188 -0.703125,0.4570313 -0.9375,0.1171875 -1.078125,0.1523437 -1.335938,0.2578125 -0.480468,0.2109375 -0.726562,0.5742187 -0.726562,1.1132812 0,0.7617188 0.515625,1.24218755 1.371094,1.24218755 0.515625,0 0.9375,-0.1875 1.417968,-0.62109375 0.04687,0.43359375 0.246094,0.62109375 0.679688,0.62109375 0.140625,0 0.234375,-0.0234375 0.457031,-0.0703125 z m -1.160156,-0.9257813 c 0,0.2226563 -0.07031,0.35156255 -0.269531,0.53906255 -0.269532,0.24609375 -0.597657,0.375 -0.984375,0.375 -0.515625,0 -0.820313,-0.24609375 -0.820313,-0.66796875 0,-0.4453125 0.28125,-0.6679688 0.996094,-0.7617188 0.714844,-0.1054687 0.84375,-0.1289062 1.078125,-0.234375 z m 5.299805,3.046875 h 0.667968 V -0.43375 c 0.351563,0.421875 0.738282,0.62109375 1.277344,0.62109375 1.089844,0 1.792969,-0.8671875 1.792969,-2.20312505 0,-1.40625 -0.691406,-2.2851562 -1.792969,-2.2851562 -0.574219,0 -1.019531,0.2578125 -1.335937,0.75 v -0.6210938 h -0.609375 z m 1.828125,-5.4023437 c 0.738281,0 1.207031,0.6445312 1.207031,1.640625 0,0.9492187 -0.480469,1.59375 -1.207031,1.59375 -0.703125,0 -1.160157,-0.6445313 -1.160157,-1.6171875 0,-0.984375 0.457032,-1.6171875 1.160157,-1.6171875 z m 6.146484,5.4023437 h 0.667969 V -0.43375 c 0.351562,0.421875 0.738281,0.62109375 1.277343,0.62109375 1.089844,0 1.792969,-0.8671875 1.792969,-2.20312505 0,-1.40625 -0.691406,-2.2851562 -1.792969,-2.2851562 -0.574218,0 -1.019531,0.2578125 -1.335937,0.75 v -0.6210938 h -0.609375 z m 1.828125,-5.4023437 c 0.738281,0 1.207031,0.6445312 1.207031,1.640625 0,0.9492187 -0.480469,1.59375 -1.207031,1.59375 -0.703125,0 -1.160156,-0.6445313 -1.160156,-1.6171875 0,-0.984375 0.457031,-1.6171875 1.160156,-1.6171875 z m 6.916992,-2.1445313 h -0.667969 v 5.81250005 h 0.667969 z m 5.071289,1.640625 -1.160156,3.2460938 -1.066406,-3.2460938 h -0.703125 l 1.40625,4.1835938 -0.257813,0.66796875 C 92.047873,0.9725 91.89553,1.0779687 91.625998,1.0779687 c -0.117187,0 -0.210937,-0.011719 -0.351562,-0.046875 V 1.62875 c 0.128906,0.082031 0.269531,0.1054687 0.445312,0.1054687 0.210938,0 0.445313,-0.070312 0.621094,-0.1992187 0.210938,-0.1523438 0.328125,-0.328125 0.457031,-0.65625 l 1.851563,-5.0507813 z m -28.02832,8.1503907 c -1.183594,0 -1.886719,0.84375 -1.886719,2.25 0,1.40625 0.703125,2.2382812 1.898438,2.2382812 1.171875,0 1.886718,-0.84375 1.886718,-2.2148437 0,-1.4414063 -0.691406,-2.2734375 -1.898437,-2.2734375 z m 0.01172,0.6210937 c 0.75,0 1.195312,0.609375 1.195312,1.6523438 0,0.984375 -0.46875,1.59375 -1.195312,1.59375 -0.75,0 -1.195313,-0.609375 -1.195313,-1.6171875 0,-1.0195313 0.445313,-1.6289063 1.195313,-1.6289063 z m 2.683593,5.4140629 h 0.667969 V 7.8455469 c 0.351563,0.421875 0.738281,0.6210937 1.277344,0.6210937 1.089844,0 1.792969,-0.8671875 1.792969,-2.203125 0,-1.40625 -0.691407,-2.2851562 -1.792969,-2.2851562 -0.574219,0 -1.019531,0.2578125 -1.335938,0.75 V 4.1072656 H 68.601585 Z M 70.42971,4.6111719 c 0.738282,0 1.207032,0.6445312 1.207032,1.640625 0,0.9492187 -0.480469,1.59375 -1.207032,1.59375 -0.703125,0 -1.160156,-0.6445313 -1.160156,-1.6171875 0,-0.984375 0.457031,-1.6171875 1.160156,-1.6171875 z m 6.257813,1.8046875 c 0,-0.6445313 -0.04687,-1.0195313 -0.164063,-1.3359375 -0.28125,-0.6796875 -0.914062,-1.1015625 -1.699218,-1.1015625 -1.160157,0 -1.910157,0.890625 -1.910157,2.2734375 0,1.3710937 0.714844,2.2148437 1.898438,2.2148437 0.960937,0 1.617187,-0.5507812 1.78125,-1.453125 h -0.667969 c -0.175781,0.5507813 -0.550781,0.8320313 -1.089844,0.8320313 -0.421875,0 -0.785156,-0.1875 -1.007812,-0.5390625 C 73.675804,7.0721094 73.61721,6.8260156 73.605492,6.4158594 Z M 73.628928,5.8767969 c 0.04687,-0.7734375 0.527344,-1.2773438 1.195313,-1.2773438 0.679687,0 1.148437,0.5273438 1.148437,1.2773438 z m 3.949219,-1.7695313 v 4.171875 h 0.667969 V 6.1111719 c 0.01172,-1.0078125 0.421875,-1.453125 1.335937,-1.4296875 V 4.0135156 c -0.105469,-0.023437 -0.175781,-0.035156 -0.246094,-0.035156 -0.433593,0 -0.761718,0.2578125 -1.148437,0.8789062 v -0.75 z m 6.366211,3.7851563 c -0.07031,0.011719 -0.105469,0.011719 -0.140625,0.011719 -0.234375,0 -0.363281,-0.1171875 -0.363281,-0.328125 v -2.449219 c 0,-0.75 -0.539063,-1.1484375 -1.570313,-1.1484375 -0.609375,0 -1.101562,0.1757812 -1.382812,0.4921875 -0.199219,0.2109375 -0.269532,0.4570312 -0.292969,0.8671875 h 0.667969 c 0.05859,-0.5039063 0.363281,-0.7382813 0.984375,-0.7382813 0.609375,0 0.9375,0.2226563 0.9375,0.6210938 v 0.1757812 c -0.01172,0.28125 -0.152344,0.3867188 -0.703125,0.4570313 -0.9375,0.1171875 -1.078125,0.1523437 -1.335938,0.2578125 -0.480469,0.2109375 -0.726562,0.5742187 -0.726562,1.1132812 0,0.7617188 0.515625,1.2421875 1.371093,1.2421875 0.515625,0 0.9375,-0.1875 1.417969,-0.6210937 0.04687,0.4335937 0.246094,0.6210937 0.679688,0.6210937 0.140625,0 0.234375,-0.023437 0.457031,-0.070312 z M 82.784202,6.9666406 c 0,0.2226563 -0.07031,0.3515625 -0.269532,0.5390625 -0.269531,0.2460938 -0.597656,0.375 -0.984375,0.375 -0.515625,0 -0.820312,-0.2460937 -0.820312,-0.6679687 0,-0.4453125 0.28125,-0.6679688 0.996094,-0.7617188 0.714843,-0.1054687 0.84375,-0.1289062 1.078125,-0.234375 z m 3.351562,-2.859375 H 85.444358 V 2.9588281 h -0.65625 v 1.1484375 h -0.5625 v 0.5390625 h 0.5625 v 3.1523438 c 0,0.4335937 0.28125,0.6679687 0.796875,0.6679687 0.175781,0 0.328125,-0.023437 0.550781,-0.058594 v -0.5625 c -0.09375,0.023437 -0.1875,0.035156 -0.316406,0.035156 -0.292969,0 -0.375,-0.082031 -0.375,-0.375 v -2.859375 h 0.691406 z m 2.355469,-0.1289062 c -1.183594,0 -1.886719,0.84375 -1.886719,2.25 0,1.40625 0.703125,2.2382812 1.898438,2.2382812 1.171875,0 1.886718,-0.84375 1.886718,-2.2148437 0,-1.4414063 -0.691406,-2.2734375 -1.898437,-2.2734375 z m 0.01172,0.6210937 c 0.75,0 1.195312,0.609375 1.195312,1.6523438 0,0.984375 -0.46875,1.59375 -1.195312,1.59375 -0.75,0 -1.195313,-0.609375 -1.195313,-1.6171875 0,-1.0195313 0.445313,-1.6289063 1.195313,-1.6289063 z m 2.800781,-0.4921875 v 4.171875 h 0.667969 V 6.1111719 c 0.01172,-1.0078125 0.421875,-1.453125 1.335937,-1.4296875 V 4.0135156 c -0.105469,-0.023437 -0.175781,-0.035156 -0.246094,-0.035156 -0.433593,0 -0.761718,0.2578125 -1.148437,0.8789062 v -0.75 z m 6.380859,0.070312 v 4.1015625 h 0.703125 v -5.765625 h -0.457031 c -0.257813,0.890625 -0.410156,1.0078125 -1.5,1.1484375 v 0.515625 z M 130.96584,-3.011875 c -0.0117,-0.8203125 -0.55078,-1.2890625 -1.51172,-1.2890625 -0.97265,0 -1.60547,0.5039062 -1.60547,1.2773437 0,0.65625 0.33985,0.9726563 1.32422,1.2070313 l 0.6211,0.1523437 c 0.45703,0.1054688 0.64453,0.28125 0.64453,0.5742188 0,0.3984375 -0.38672,0.65625 -0.97266,0.65625 -0.36328,0 -0.65625,-0.10546875 -0.83203,-0.28125 -0.10547,-0.1171875 -0.15234,-0.234375 -0.1875,-0.5273438 h -0.70312 c 0.0352,0.96093755 0.57421,1.42968755 1.66406,1.42968755 1.05469,0 1.72265,-0.52734375 1.72265,-1.32421875 0,-0.6210938 -0.35156,-0.9726563 -1.18359,-1.171875 l -0.63281,-0.140625 c -0.53906,-0.1289063 -0.77344,-0.3046875 -0.77344,-0.5976563 0,-0.3984375 0.33984,-0.6328125 0.89063,-0.6328125 0.52734,0 0.82031,0.234375 0.83203,0.6679688 z m 7.76953,1.1484375 c 0,-0.6445313 -0.0469,-1.0195313 -0.16406,-1.3359375 -0.28125,-0.6796875 -0.91406,-1.1015625 -1.69922,-1.1015625 -1.16015,0 -1.91015,0.890625 -1.91015,2.2734375 0,1.37109375 0.71484,2.21484375 1.89843,2.21484375 0.96094,0 1.61719,-0.55078125 1.78125,-1.45312505 h -0.66797 c -0.17578,0.5507813 -0.55078,0.8320313 -1.08984,0.8320313 -0.42187,0 -0.78516,-0.1875 -1.00781,-0.5390625 -0.15235,-0.234375 -0.21094,-0.4804688 -0.22266,-0.890625 z M 135.67678,-2.4025 c 0.0469,-0.7734375 0.52734,-1.2773438 1.19531,-1.2773438 0.67969,0 1.14844,0.5273438 1.14844,1.2773438 z m 8.14746,-3.4101563 h -0.66797 v 5.81250005 h 0.66797 z m 6.06738,3.9492188 c 0,-0.6445313 -0.0469,-1.0195313 -0.16406,-1.3359375 -0.28125,-0.6796875 -0.91406,-1.1015625 -1.69922,-1.1015625 -1.16015,0 -1.91015,0.890625 -1.91015,2.2734375 0,1.37109375 0.71484,2.21484375 1.89843,2.21484375 0.96094,0 1.61719,-0.55078125 1.78125,-1.45312505 h -0.66797 c -0.17578,0.5507813 -0.55078,0.8320313 -1.08984,0.8320313 -0.42187,0 -0.78516,-0.1875 -1.00781,-0.5390625 -0.15235,-0.234375 -0.21094,-0.4804688 -0.22266,-0.890625 z M 146.83303,-2.4025 c 0.0469,-0.7734375 0.52734,-1.2773438 1.19531,-1.2773438 0.67969,0 1.14844,0.5273438 1.14844,1.2773438 z m 10.69336,-0.375 c -0.0234,-0.3984375 -0.11719,-0.6679688 -0.28125,-0.890625 -0.28125,-0.3984375 -0.78516,-0.6328125 -1.35938,-0.6328125 -1.13671,0 -1.86328,0.9023437 -1.86328,2.2851562 0,1.3476563 0.71485,2.20312505 1.85157,2.20312505 0.99609,0 1.6289,-0.59765625 1.69921,-1.61718755 h -0.66796 c -0.10547,0.6679688 -0.45704,0.9960938 -1.01954,0.9960938 -0.72656,0 -1.17187,-0.5976563 -1.17187,-1.5820313 0,-1.0429687 0.43359,-1.6640625 1.16016,-1.6640625 0.55078,0 0.90234,0.328125 0.98437,0.9023438 z m 5.44629,-1.3945313 h -0.69141 v -1.1484375 h -0.65625 v 1.1484375 h -0.5625 v 0.5390625 h 0.5625 v 3.1523438 c 0,0.43359375 0.28125,0.66796875 0.79688,0.66796875 0.17578,0 0.32812,-0.0234375 0.55078,-0.0585938 v -0.5625 c -0.0937,0.0234375 -0.1875,0.0351563 -0.31641,0.0351563 -0.29297,0 -0.375,-0.0820313 -0.375,-0.375 V -3.6329688 h 0.69141 z m -33.33106,8.1503907 c -1.18359,0 -1.88672,0.84375 -1.88672,2.25 0,1.40625 0.70313,2.2382812 1.89844,2.2382812 1.17188,0 1.88672,-0.84375 1.88672,-2.2148437 0,-1.4414063 -0.69141,-2.2734375 -1.89844,-2.2734375 z m 0.0117,0.6210937 c 0.75,0 1.19531,0.609375 1.19531,1.6523438 0,0.984375 -0.46875,1.59375 -1.19531,1.59375 -0.75,0 -1.19531,-0.609375 -1.19531,-1.6171875 0,-1.0195313 0.44531,-1.6289063 1.19531,-1.6289063 z m 2.6836,5.4140629 h 0.66796 V 7.8455469 c 0.35157,0.421875 0.73829,0.6210937 1.27735,0.6210937 1.08984,0 1.79297,-0.8671875 1.79297,-2.203125 0,-1.40625 -0.69141,-2.2851562 -1.79297,-2.2851562 -0.57422,0 -1.01953,0.2578125 -1.33594,0.75 V 4.1072656 h -0.60937 z m 1.82812,-5.4023441 c 0.73828,0 1.20703,0.6445312 1.20703,1.640625 0,0.9492187 -0.48047,1.59375 -1.20703,1.59375 -0.70312,0 -1.16016,-0.6445313 -1.16016,-1.6171875 0,-0.984375 0.45704,-1.6171875 1.16016,-1.6171875 z m 6.25781,1.8046875 c 0,-0.6445313 -0.0469,-1.0195313 -0.16406,-1.3359375 -0.28125,-0.6796875 -0.91406,-1.1015625 -1.69922,-1.1015625 -1.16015,0 -1.91015,0.890625 -1.91015,2.2734375 0,1.3710937 0.71484,2.2148437 1.89843,2.2148437 0.96094,0 1.61719,-0.5507812 1.78125,-1.453125 h -0.66797 c -0.17578,0.5507813 -0.55078,0.8320313 -1.08984,0.8320313 -0.42187,0 -0.78516,-0.1875 -1.00781,-0.5390625 -0.15235,-0.234375 -0.21094,-0.4804688 -0.22266,-0.890625 z m -3.05859,-0.5390625 c 0.0469,-0.7734375 0.52734,-1.2773438 1.19531,-1.2773438 0.67969,0 1.14844,0.5273438 1.14844,1.2773438 z m 3.94922,-1.7695313 v 4.171875 h 0.66797 V 6.1111719 c 0.0117,-1.0078125 0.42187,-1.453125 1.33593,-1.4296875 V 4.0135156 c -0.10546,-0.023437 -0.17578,-0.035156 -0.24609,-0.035156 -0.43359,0 -0.76172,0.2578125 -1.14844,0.8789062 v -0.75 z m 6.36914,3.7851563 c -0.0703,0.011719 -0.10547,0.011719 -0.14063,0.011719 -0.23437,0 -0.36328,-0.1171875 -0.36328,-0.328125 v -2.449219 c 0,-0.75 -0.53906,-1.1484375 -1.57031,-1.1484375 -0.60937,0 -1.10156,0.1757812 -1.38281,0.4921875 -0.19922,0.2109375 -0.26953,0.4570312 -0.29297,0.8671875 h 0.66797 c 0.0586,-0.5039063 0.36328,-0.7382813 0.98437,-0.7382813 0.60938,0 0.9375,0.2226563 0.9375,0.6210938 v 0.1757812 c -0.0117,0.28125 -0.15234,0.3867188 -0.70312,0.4570313 -0.9375,0.1171875 -1.07813,0.1523437 -1.33594,0.2578125 -0.48047,0.2109375 -0.72656,0.5742187 -0.72656,1.1132812 0,0.7617188 0.51562,1.2421875 1.37109,1.2421875 0.51563,0 0.9375,-0.1875 1.41797,-0.6210937 0.0469,0.4335937 0.24609,0.6210937 0.67969,0.6210937 0.14062,0 0.23437,-0.023437 0.45703,-0.070312 z m -1.16016,-0.9257813 c 0,0.2226563 -0.0703,0.3515625 -0.26953,0.5390625 -0.26953,0.2460938 -0.59765,0.375 -0.98437,0.375 -0.51563,0 -0.82032,-0.2460937 -0.82032,-0.6679687 0,-0.4453125 0.28125,-0.6679688 0.9961,-0.7617188 0.71484,-0.1054687 0.84375,-0.1289062 1.07812,-0.234375 z m 3.35157,-2.859375 h -0.69141 V 2.9588281 h -0.65625 v 1.1484375 h -0.5625 v 0.5390625 h 0.5625 v 3.1523438 c 0,0.4335937 0.28125,0.6679687 0.79687,0.6679687 0.17579,0 0.32813,-0.023437 0.55079,-0.058594 v -0.5625 c -0.0937,0.023437 -0.1875,0.035156 -0.31641,0.035156 -0.29297,0 -0.375,-0.082031 -0.375,-0.375 v -2.859375 h 0.69141 z m 2.35546,-0.1289062 c -1.18359,0 -1.88671,0.84375 -1.88671,2.25 0,1.40625 0.70312,2.2382812 1.89843,2.2382812 1.17188,0 1.88672,-0.84375 1.88672,-2.2148437 0,-1.4414063 -0.6914,-2.2734375 -1.89844,-2.2734375 z m 0.0117,0.6210937 c 0.75,0 1.19532,0.609375 1.19532,1.6523438 0,0.984375 -0.46875,1.59375 -1.19532,1.59375 -0.75,0 -1.19531,-0.609375 -1.19531,-1.6171875 0,-1.0195313 0.44531,-1.6289063 1.19531,-1.6289063 z m 2.80078,-0.4921875 v 4.171875 h 0.66797 V 6.1111719 c 0.0117,-1.0078125 0.42188,-1.453125 1.33594,-1.4296875 V 4.0135156 c -0.10547,-0.023437 -0.17578,-0.035156 -0.24609,-0.035156 -0.4336,0 -0.76172,0.2578125 -1.14844,0.8789062 v -0.75 z m 8.34961,3.4804688 h -2.97656 c 0.082,-0.4804688 0.32813,-0.7851563 1.01953,-1.2070313 l 0.79688,-0.4453125 c 0.79687,-0.4335937 1.19531,-1.03125 1.19531,-1.734375 0,-0.4804687 -0.1875,-0.9257812 -0.51563,-1.2421875 -0.33984,-0.2929687 -0.75,-0.4453125 -1.28906,-0.4453125 -0.71484,0 -1.2539,0.2578125 -1.55859,0.75 -0.19922,0.3046875 -0.29297,0.6679688 -0.30469,1.2421875 h 0.70313 c 0.0234,-0.3867187 0.0703,-0.6210937 0.16406,-0.8085937 0.1875,-0.3515625 0.55078,-0.5625 0.97265,-0.5625 0.63282,0 1.11329,0.4570312 1.11329,1.078125 0,0.46875 -0.25782,0.8671875 -0.76172,1.1484375 l -0.73828,0.4335937 c -1.17188,0.6796875 -1.51172,1.21875 -1.58204,2.4726563 h 3.76172 z m 32.08594,-7.9746094 c -0.0703,0.0117188 -0.10547,0.0117188 -0.14062,0.0117188 -0.23438,0 -0.36329,-0.1171875 -0.36329,-0.328125 V -3.1525 c 0,-0.75 -0.53906,-1.1484375 -1.57031,-1.1484375 -0.60937,0 -1.10156,0.1757812 -1.38281,0.4921875 -0.19922,0.2109375 -0.26953,0.4570312 -0.29297,0.8671875 h 0.66797 c 0.0586,-0.5039063 0.36328,-0.7382813 0.98437,-0.7382813 0.60938,0 0.9375,0.2226563 0.9375,0.6210938 v 0.1757812 c -0.0117,0.28125 -0.15234,0.3867188 -0.70312,0.4570313 -0.9375,0.1171875 -1.07813,0.1523437 -1.33594,0.2578125 -0.48047,0.2109375 -0.72656,0.5742187 -0.72656,1.1132812 0,0.7617188 0.51562,1.24218755 1.37109,1.24218755 0.51563,0 0.9375,-0.1875 1.41797,-0.62109375 0.0469,0.43359375 0.2461,0.62109375 0.67969,0.62109375 0.14062,0 0.23437,-0.0234375 0.45703,-0.0703125 z m -1.16016,-0.9257813 c 0,0.2226563 -0.0703,0.35156255 -0.26953,0.53906255 -0.26953,0.24609375 -0.59765,0.375 -0.98437,0.375 -0.51563,0 -0.82031,-0.24609375 -0.82031,-0.66796875 0,-0.4453125 0.28125,-0.6679688 0.99609,-0.7617188 0.71484,-0.1054687 0.84375,-0.1289062 1.07812,-0.234375 z m 5.30274,3.046875 h 0.66797 V -0.43375 c 0.35156,0.421875 0.73828,0.62109375 1.27734,0.62109375 1.08985,0 1.79297,-0.8671875 1.79297,-2.20312505 0,-1.40625 -0.69141,-2.2851562 -1.79297,-2.2851562 -0.57422,0 -1.01953,0.2578125 -1.33594,0.75 v -0.6210938 h -0.60937 z m 1.82812,-5.4023437 c 0.73829,0 1.20704,0.6445312 1.20704,1.640625 0,0.9492187 -0.48047,1.59375 -1.20704,1.59375 -0.70312,0 -1.16015,-0.6445313 -1.16015,-1.6171875 0,-0.984375 0.45703,-1.6171875 1.16015,-1.6171875 z m 6.14356,5.4023437 h 0.66797 V -0.43375 c 0.35156,0.421875 0.73828,0.62109375 1.27734,0.62109375 1.08985,0 1.79297,-0.8671875 1.79297,-2.20312505 0,-1.40625 -0.69141,-2.2851562 -1.79297,-2.2851562 -0.57422,0 -1.01953,0.2578125 -1.33594,0.75 v -0.6210938 h -0.60937 z m 1.82812,-5.4023437 c 0.73829,0 1.20704,0.6445312 1.20704,1.640625 0,0.9492187 -0.48047,1.59375 -1.20704,1.59375 -0.70312,0 -1.16015,-0.6445313 -1.16015,-1.6171875 0,-0.984375 0.45703,-1.6171875 1.16015,-1.6171875 z m 6.91993,-2.1445313 h -0.66797 v 5.81250005 h 0.66797 z m 5.07128,1.640625 -1.16015,3.2460938 -1.06641,-3.2460938 h -0.70312 l 1.40625,4.1835938 -0.25782,0.66796875 c -0.10542,0.29296875 -0.25777,0.39843745 -0.5273,0.39843745 -0.11719,0 -0.21094,-0.011719 -0.35156,-0.046875 V 1.62875 c 0.1289,0.082031 0.26953,0.1054687 0.44531,0.1054687 0.21094,0 0.44531,-0.070312 0.62109,-0.1992187 0.21094,-0.1523438 0.32813,-0.328125 0.45704,-0.65625 L 222.126,-4.1720313 Z M 193.3799,3.9783594 c -1.18359,0 -1.88671,0.84375 -1.88671,2.25 0,1.40625 0.70312,2.2382812 1.89843,2.2382812 1.17188,0 1.88672,-0.84375 1.88672,-2.2148437 0,-1.4414063 -0.6914,-2.2734375 -1.89844,-2.2734375 z m 0.0117,0.6210937 c 0.75,0 1.19532,0.609375 1.19532,1.6523438 0,0.984375 -0.46875,1.59375 -1.19532,1.59375 -0.75,0 -1.19531,-0.609375 -1.19531,-1.6171875 0,-1.0195313 0.44531,-1.6289063 1.19531,-1.6289063 z m 2.6836,5.4140629 h 0.66797 V 7.8455469 c 0.35156,0.421875 0.73828,0.6210937 1.27734,0.6210937 1.08984,0 1.79297,-0.8671875 1.79297,-2.203125 0,-1.40625 -0.69141,-2.2851562 -1.79297,-2.2851562 -0.57422,0 -1.01953,0.2578125 -1.33594,0.75 V 4.1072656 h -0.60937 z m 1.82812,-5.4023441 c 0.73828,0 1.20703,0.6445312 1.20703,1.640625 0,0.9492187 -0.48047,1.59375 -1.20703,1.59375 -0.70312,0 -1.16015,-0.6445313 -1.16015,-1.6171875 0,-0.984375 0.45703,-1.6171875 1.16015,-1.6171875 z m 6.25781,1.8046875 c 0,-0.6445313 -0.0469,-1.0195313 -0.16406,-1.3359375 -0.28125,-0.6796875 -0.91406,-1.1015625 -1.69922,-1.1015625 -1.16015,0 -1.91015,0.890625 -1.91015,2.2734375 0,1.3710937 0.71484,2.2148437 1.89843,2.2148437 0.96094,0 1.61719,-0.5507812 1.78125,-1.453125 h -0.66796 c -0.17579,0.5507813 -0.55079,0.8320313 -1.08985,0.8320313 -0.42187,0 -0.78515,-0.1875 -1.00781,-0.5390625 -0.15234,-0.234375 -0.21094,-0.4804688 -0.22266,-0.890625 z m -3.05859,-0.5390625 c 0.0469,-0.7734375 0.52734,-1.2773438 1.19531,-1.2773438 0.67969,0 1.14844,0.5273438 1.14844,1.2773438 z m 3.94922,-1.7695313 v 4.171875 h 0.66797 V 6.1111719 c 0.0117,-1.0078125 0.42187,-1.453125 1.33594,-1.4296875 V 4.0135156 c -0.10547,-0.023437 -0.17579,-0.035156 -0.2461,-0.035156 -0.43359,0 -0.76172,0.2578125 -1.14844,0.8789062 v -0.75 z m 6.36914,3.7851563 c -0.0703,0.011719 -0.10547,0.011719 -0.14062,0.011719 -0.23438,0 -0.36329,-0.1171875 -0.36329,-0.328125 v -2.449219 c 0,-0.75 -0.53906,-1.1484375 -1.57031,-1.1484375 -0.60937,0 -1.10156,0.1757812 -1.38281,0.4921875 -0.19922,0.2109375 -0.26953,0.4570312 -0.29297,0.8671875 h 0.66797 c 0.0586,-0.5039063 0.36328,-0.7382813 0.98437,-0.7382813 0.60938,0 0.9375,0.2226563 0.9375,0.6210938 v 0.1757812 c -0.0117,0.28125 -0.15234,0.3867188 -0.70312,0.4570313 -0.9375,0.1171875 -1.07813,0.1523437 -1.33594,0.2578125 -0.48047,0.2109375 -0.72656,0.5742187 -0.72656,1.1132812 0,0.7617188 0.51562,1.2421875 1.37109,1.2421875 0.51563,0 0.9375,-0.1875 1.41797,-0.6210937 0.0469,0.4335937 0.2461,0.6210937 0.67969,0.6210937 0.14062,0 0.23437,-0.023437 0.45703,-0.070312 z m -1.16016,-0.9257813 c 0,0.2226563 -0.0703,0.3515625 -0.26953,0.5390625 -0.26953,0.2460938 -0.59765,0.375 -0.98437,0.375 -0.51563,0 -0.82031,-0.2460937 -0.82031,-0.6679687 0,-0.4453125 0.28125,-0.6679688 0.99609,-0.7617188 0.71484,-0.1054687 0.84375,-0.1289062 1.07812,-0.234375 z m 3.35157,-2.859375 H 212.9209 V 2.9588281 h -0.65625 v 1.1484375 h -0.5625 v 0.5390625 h 0.5625 v 3.1523438 c 0,0.4335937 0.28125,0.6679687 0.79688,0.6679687 0.17578,0 0.32812,-0.023437 0.55078,-0.058594 v -0.5625 c -0.0937,0.023437 -0.1875,0.035156 -0.31641,0.035156 -0.29297,0 -0.375,-0.082031 -0.375,-0.375 v -2.859375 h 0.69141 z m 2.35547,-0.1289062 c -1.1836,0 -1.88672,0.84375 -1.88672,2.25 0,1.40625 0.70312,2.2382812 1.89843,2.2382812 1.17188,0 1.88672,-0.84375 1.88672,-2.2148437 0,-1.4414063 -0.6914,-2.2734375 -1.89843,-2.2734375 z m 0.0117,0.6210937 c 0.75,0 1.19532,0.609375 1.19532,1.6523438 0,0.984375 -0.46875,1.59375 -1.19532,1.59375 -0.75,0 -1.19531,-0.609375 -1.19531,-1.6171875 0,-1.0195313 0.44531,-1.6289063 1.19531,-1.6289063 z m 2.80079,-0.4921875 v 4.171875 h 0.66796 V 6.1111719 c 0.0117,-1.0078125 0.42188,-1.453125 1.33594,-1.4296875 V 4.0135156 c -0.10547,-0.023437 -0.17578,-0.035156 -0.24609,-0.035156 -0.4336,0 -0.76172,0.2578125 -1.14844,0.8789062 v -0.75 z m 8.34668,3.4804688 h -2.97657 c 0.082,-0.4804688 0.32813,-0.7851563 1.01953,-1.2070313 l 0.79688,-0.4453125 c 0.79687,-0.4335937 1.19531,-1.03125 1.19531,-1.734375 0,-0.4804687 -0.1875,-0.9257812 -0.51562,-1.2421875 -0.33985,-0.2929687 -0.75,-0.4453125 -1.28907,-0.4453125 -0.71484,0 -1.2539,0.2578125 -1.55859,0.75 -0.19922,0.3046875 -0.29297,0.6679688 -0.30469,1.2421875 h 0.70313 c 0.0234,-0.3867187 0.0703,-0.6210937 0.16406,-0.8085937 0.1875,-0.3515625 0.55078,-0.5625 0.97266,-0.5625 0.63281,0 1.11328,0.4570312 1.11328,1.078125 0,0.46875 -0.25781,0.8671875 -0.76172,1.1484375 l -0.73828,0.4335937 c -1.17188,0.6796875 -1.51172,1.21875 -1.58203,2.4726563 h 3.76172 z M 258.4424,-3.011875 c -0.0117,-0.8203125 -0.55078,-1.2890625 -1.51171,-1.2890625 -0.97266,0 -1.60547,0.5039062 -1.60547,1.2773437 0,0.65625 0.33984,0.9726563 1.32422,1.2070313 l 0.62109,0.1523437 c 0.45703,0.1054688 0.64453,0.28125 0.64453,0.5742188 0,0.3984375 -0.38672,0.65625 -0.97266,0.65625 -0.36328,0 -0.65625,-0.10546875 -0.83203,-0.28125 -0.10547,-0.1171875 -0.15234,-0.234375 -0.1875,-0.5273438 h -0.70312 c 0.0351,0.96093755 0.57422,1.42968755 1.66406,1.42968755 1.05469,0 1.72266,-0.52734375 1.72266,-1.32421875 0,-0.6210938 -0.35157,-0.9726563 -1.1836,-1.171875 l -0.63281,-0.140625 c -0.53906,-0.1289063 -0.77344,-0.3046875 -0.77344,-0.5976563 0,-0.3984375 0.33985,-0.6328125 0.89063,-0.6328125 0.52734,0 0.82031,0.234375 0.83203,0.6679688 z m 7.76661,1.1484375 c 0,-0.6445313 -0.0469,-1.0195313 -0.16407,-1.3359375 -0.28125,-0.6796875 -0.91406,-1.1015625 -1.69921,-1.1015625 -1.16016,0 -1.91016,0.890625 -1.91016,2.2734375 0,1.37109375 0.71484,2.21484375 1.89844,2.21484375 0.96093,0 1.61718,-0.55078125 1.78125,-1.45312505 h -0.66797 c -0.17578,0.5507813 -0.55078,0.8320313 -1.08985,0.8320313 -0.42187,0 -0.78515,-0.1875 -1.00781,-0.5390625 -0.15234,-0.234375 -0.21094,-0.4804688 -0.22265,-0.890625 z M 263.15041,-2.4025 c 0.0469,-0.7734375 0.52735,-1.2773438 1.19532,-1.2773438 0.67968,0 1.14843,0.5273438 1.14843,1.2773438 z m 8.15039,-3.4101563 h -0.66797 v 5.81250005 h 0.66797 z m 6.06446,3.9492188 c 0,-0.6445313 -0.0469,-1.0195313 -0.16407,-1.3359375 -0.28125,-0.6796875 -0.91406,-1.1015625 -1.69921,-1.1015625 -1.16016,0 -1.91016,0.890625 -1.91016,2.2734375 0,1.37109375 0.71484,2.21484375 1.89844,2.21484375 0.96093,0 1.61718,-0.55078125 1.78125,-1.45312505 h -0.66797 c -0.17578,0.5507813 -0.55078,0.8320313 -1.08985,0.8320313 -0.42187,0 -0.78515,-0.1875 -1.00781,-0.5390625 -0.15234,-0.234375 -0.21094,-0.4804688 -0.22265,-0.890625 z M 274.30666,-2.4025 c 0.0469,-0.7734375 0.52735,-1.2773438 1.19532,-1.2773438 0.67968,0 1.14843,0.5273438 1.14843,1.2773438 z m 10.69336,-0.375 c -0.0234,-0.3984375 -0.11719,-0.6679688 -0.28125,-0.890625 -0.28125,-0.3984375 -0.78515,-0.6328125 -1.35937,-0.6328125 -1.13672,0 -1.86328,0.9023437 -1.86328,2.2851562 0,1.3476563 0.71484,2.20312505 1.85156,2.20312505 0.99609,0 1.6289,-0.59765625 1.69922,-1.61718755 h -0.66797 c -0.10547,0.6679688 -0.45703,0.9960938 -1.01953,0.9960938 -0.72657,0 -1.17188,-0.5976563 -1.17188,-1.5820313 0,-1.0429687 0.4336,-1.6640625 1.16016,-1.6640625 0.55078,0 0.90234,0.328125 0.98437,0.9023438 z m 5.44922,-1.3945313 h -0.69141 v -1.1484375 h -0.65625 v 1.1484375 h -0.5625 v 0.5390625 h 0.5625 v 3.1523438 c 0,0.43359375 0.28125,0.66796875 0.79688,0.66796875 0.17578,0 0.32812,-0.0234375 0.55078,-0.0585938 v -0.5625 c -0.0937,0.0234375 -0.1875,0.0351563 -0.31641,0.0351563 -0.29296,0 -0.375,-0.0820313 -0.375,-0.375 V -3.6329688 h 0.69141 z m -33.33105,8.1503907 c -1.1836,0 -1.88672,0.84375 -1.88672,2.25 0,1.40625 0.70312,2.2382812 1.89843,2.2382812 1.17188,0 1.88672,-0.84375 1.88672,-2.2148437 0,-1.4414063 -0.6914,-2.2734375 -1.89843,-2.2734375 z m 0.0117,0.6210937 c 0.75,0 1.19532,0.609375 1.19532,1.6523438 0,0.984375 -0.46875,1.59375 -1.19532,1.59375 -0.75,0 -1.19531,-0.609375 -1.19531,-1.6171875 0,-1.0195313 0.44531,-1.6289063 1.19531,-1.6289063 z m 2.6836,5.4140629 h 0.66797 V 7.8455469 c 0.35156,0.421875 0.73828,0.6210937 1.27734,0.6210937 1.08984,0 1.79297,-0.8671875 1.79297,-2.203125 0,-1.40625 -0.69141,-2.2851562 -1.79297,-2.2851562 -0.57422,0 -1.01953,0.2578125 -1.33594,0.75 V 4.1072656 h -0.60937 z m 1.82812,-5.4023441 c 0.73828,0 1.20703,0.6445312 1.20703,1.640625 0,0.9492187 -0.48046,1.59375 -1.20703,1.59375 -0.70312,0 -1.16015,-0.6445313 -1.16015,-1.6171875 0,-0.984375 0.45703,-1.6171875 1.16015,-1.6171875 z m 6.25782,1.8046875 c 0,-0.6445313 -0.0469,-1.0195313 -0.16407,-1.3359375 -0.28125,-0.6796875 -0.91406,-1.1015625 -1.69922,-1.1015625 -1.16015,0 -1.91015,0.890625 -1.91015,2.2734375 0,1.3710937 0.71484,2.2148437 1.89844,2.2148437 0.96093,0 1.61718,-0.5507812 1.78125,-1.453125 h -0.66797 c -0.17578,0.5507813 -0.55078,0.8320313 -1.08985,0.8320313 -0.42187,0 -0.78515,-0.1875 -1.00781,-0.5390625 -0.15234,-0.234375 -0.21094,-0.4804688 -0.22266,-0.890625 z m -3.0586,-0.5390625 c 0.0469,-0.7734375 0.52735,-1.2773438 1.19531,-1.2773438 0.67969,0 1.14844,0.5273438 1.14844,1.2773438 z m 3.94922,-1.7695313 v 4.171875 h 0.66797 V 6.1111719 c 0.0117,-1.0078125 0.42187,-1.453125 1.33594,-1.4296875 V 4.0135156 c -0.10547,-0.023437 -0.17578,-0.035156 -0.2461,-0.035156 -0.43359,0 -0.76172,0.2578125 -1.14843,0.8789062 v -0.75 z m 6.36621,3.7851563 c -0.0703,0.011719 -0.10547,0.011719 -0.14062,0.011719 -0.23438,0 -0.36328,-0.1171875 -0.36328,-0.328125 v -2.449219 c 0,-0.75 -0.53907,-1.1484375 -1.57032,-1.1484375 -0.60937,0 -1.10156,0.1757812 -1.38281,0.4921875 -0.19922,0.2109375 -0.26953,0.4570312 -0.29297,0.8671875 h 0.66797 c 0.0586,-0.5039063 0.36328,-0.7382813 0.98438,-0.7382813 0.60937,0 0.9375,0.2226563 0.9375,0.6210938 v 0.1757812 c -0.0117,0.28125 -0.15235,0.3867188 -0.70313,0.4570313 -0.9375,0.1171875 -1.07812,0.1523437 -1.33594,0.2578125 -0.48047,0.2109375 -0.72656,0.5742187 -0.72656,1.1132812 0,0.7617188 0.51563,1.2421875 1.37109,1.2421875 0.51563,0 0.9375,-0.1875 1.41797,-0.6210937 0.0469,0.4335937 0.2461,0.6210937 0.67969,0.6210937 0.14063,0 0.23438,-0.023437 0.45703,-0.070312 z m -1.16015,-0.9257813 c 0,0.2226563 -0.0703,0.3515625 -0.26954,0.5390625 -0.26953,0.2460938 -0.59765,0.375 -0.98437,0.375 -0.51563,0 -0.82031,-0.2460937 -0.82031,-0.6679687 0,-0.4453125 0.28125,-0.6679688 0.99609,-0.7617188 0.71484,-0.1054687 0.84375,-0.1289062 1.07813,-0.234375 z m 3.35156,-2.859375 h -0.69141 V 2.9588281 h -0.65625 v 1.1484375 h -0.5625 v 0.5390625 h 0.5625 v 3.1523438 c 0,0.4335937 0.28125,0.6679687 0.79688,0.6679687 0.17578,0 0.32812,-0.023437 0.55078,-0.058594 v -0.5625 c -0.0937,0.023437 -0.1875,0.035156 -0.31641,0.035156 -0.29297,0 -0.375,-0.082031 -0.375,-0.375 v -2.859375 h 0.69141 z m 2.35547,-0.1289062 c -1.1836,0 -1.88672,0.84375 -1.88672,2.25 0,1.40625 0.70312,2.2382812 1.89844,2.2382812 1.17187,0 1.88671,-0.84375 1.88671,-2.2148437 0,-1.4414063 -0.6914,-2.2734375 -1.89843,-2.2734375 z m 0.0117,0.6210937 c 0.75,0 1.19531,0.609375 1.19531,1.6523438 0,0.984375 -0.46875,1.59375 -1.19531,1.59375 -0.75,0 -1.19532,-0.609375 -1.19532,-1.6171875 0,-1.0195313 0.44532,-1.6289063 1.19532,-1.6289063 z m 2.80078,-0.4921875 v 4.171875 h 0.66797 V 6.1111719 c 0.0117,-1.0078125 0.42187,-1.453125 1.33593,-1.4296875 V 4.0135156 c -0.10547,-0.023437 -0.17578,-0.035156 -0.24609,-0.035156 -0.43359,0 -0.76172,0.2578125 -1.14844,0.8789062 v -0.75 z m 6.07617,1.5234375 h 0.38672 c 0.76172,0 1.17187,0.3515625 1.17187,1.0429688 0,0.7265625 -0.44531,1.171875 -1.16015,1.171875 -0.77344,0 -1.14844,-0.3984375 -1.19532,-1.2421875 h -0.70312 c 0.0234,0.46875 0.10547,0.7617187 0.24609,1.0195312 0.29297,0.5625 0.84375,0.84375 1.61719,0.84375 1.16016,0 1.91016,-0.703125 1.91016,-1.7929687 0,-0.7382813 -0.28125,-1.1367188 -0.96094,-1.3710938 0.52734,-0.2226562 0.79687,-0.6210937 0.79687,-1.1953125 0,-0.9960937 -0.64453,-1.59375 -1.72265,-1.59375 -1.13672,0 -1.7461,0.6445313 -1.76953,1.8632813 h 0.70312 c 0,-0.3515625 0.0352,-0.5507813 0.12891,-0.7265625 0.15234,-0.328125 0.5039,-0.515625 0.94922,-0.515625 0.62109,0 0.99609,0.375 0.99609,0.9960937 0,0.3984375 -0.15234,0.6445313 -0.45703,0.7851563 -0.1875,0.082031 -0.44531,0.1171875 -0.9375,0.1171875 z m 34.35937,-6.0175781 c -0.0703,0.0117188 -0.10546,0.0117188 -0.14062,0.0117188 -0.23438,0 -0.36328,-0.1171875 -0.36328,-0.328125 V -3.1525 c 0,-0.75 -0.53906,-1.1484375 -1.57031,-1.1484375 -0.60938,0 -1.10157,0.1757812 -1.38282,0.4921875 -0.19922,0.2109375 -0.26953,0.4570312 -0.29297,0.8671875 h 0.66797 c 0.0586,-0.5039063 0.36328,-0.7382813 0.98438,-0.7382813 0.60937,0 0.9375,0.2226563 0.9375,0.6210938 v 0.1757812 c -0.0117,0.28125 -0.15235,0.3867188 -0.70313,0.4570313 -0.9375,0.1171875 -1.07812,0.1523437 -1.33593,0.2578125 -0.48047,0.2109375 -0.72657,0.5742187 -0.72657,1.1132812 0,0.7617188 0.51563,1.24218755 1.3711,1.24218755 0.51562,0 0.9375,-0.1875 1.41797,-0.62109375 0.0469,0.43359375 0.24609,0.62109375 0.67968,0.62109375 0.14063,0 0.23438,-0.0234375 0.45703,-0.0703125 z m -1.16015,-0.9257813 c 0,0.2226563 -0.0703,0.35156255 -0.26953,0.53906255 -0.26953,0.24609375 -0.59766,0.375 -0.98438,0.375 -0.51562,0 -0.82031,-0.24609375 -0.82031,-0.66796875 0,-0.4453125 0.28125,-0.6679688 0.99609,-0.7617188 0.71485,-0.1054687 0.84375,-0.1289062 1.07813,-0.234375 z m 5.30273,3.046875 h 0.66797 V -0.43375 c 0.35156,0.421875 0.73828,0.62109375 1.27734,0.62109375 1.08985,0 1.79297,-0.8671875 1.79297,-2.20312505 0,-1.40625 -0.6914,-2.2851562 -1.79297,-2.2851562 -0.57421,0 -1.01953,0.2578125 -1.33593,0.75 v -0.6210938 h -0.60938 z m 1.82813,-5.4023437 c 0.73828,0 1.20703,0.6445312 1.20703,1.640625 0,0.9492187 -0.48047,1.59375 -1.20703,1.59375 -0.70313,0 -1.16016,-0.6445313 -1.16016,-1.6171875 0,-0.984375 0.45703,-1.6171875 1.16016,-1.6171875 z m 6.14648,5.4023437 h 0.66797 V -0.43375 c 0.35156,0.421875 0.73828,0.62109375 1.27734,0.62109375 1.08985,0 1.79297,-0.8671875 1.79297,-2.20312505 0,-1.40625 -0.6914,-2.2851562 -1.79297,-2.2851562 -0.57421,0 -1.01953,0.2578125 -1.33593,0.75 v -0.6210938 h -0.60938 z m 1.82813,-5.4023437 c 0.73828,0 1.20703,0.6445312 1.20703,1.640625 0,0.9492187 -0.48047,1.59375 -1.20703,1.59375 -0.70313,0 -1.16016,-0.6445313 -1.16016,-1.6171875 0,-0.984375 0.45703,-1.6171875 1.16016,-1.6171875 z m 6.91699,-2.1445313 h -0.66797 v 5.81250005 h 0.66797 z m 5.07129,1.640625 -1.16016,3.2460938 -1.0664,-3.2460938 h -0.70313 l 1.40625,4.1835938 -0.25781,0.66796875 C 346.99807,0.9725 346.84573,1.0779687 346.57619,1.0779687 c -0.11718,0 -0.21093,-0.011719 -0.35156,-0.046875 V 1.62875 c 0.12891,0.082031 0.26953,0.1054687 0.44531,0.1054687 0.21094,0 0.44532,-0.070312 0.6211,-0.1992187 0.21094,-0.1523438 0.32812,-0.328125 0.45703,-0.65625 l 1.85156,-5.0507813 z m -28.03125,8.1503907 c -1.1836,0 -1.88672,0.84375 -1.88672,2.25 0,1.40625 0.70312,2.2382812 1.89844,2.2382812 1.17187,0 1.88672,-0.84375 1.88672,-2.2148437 0,-1.4414063 -0.69141,-2.2734375 -1.89844,-2.2734375 z m 0.0117,0.6210937 c 0.75,0 1.19531,0.609375 1.19531,1.6523438 0,0.984375 -0.46875,1.59375 -1.19531,1.59375 -0.75,0 -1.19532,-0.609375 -1.19532,-1.6171875 0,-1.0195313 0.44532,-1.6289063 1.19532,-1.6289063 z m 2.68359,5.4140629 h 0.66797 V 7.8455469 c 0.35156,0.421875 0.73828,0.6210937 1.27734,0.6210937 1.08985,0 1.79297,-0.8671875 1.79297,-2.203125 0,-1.40625 -0.6914,-2.2851562 -1.79297,-2.2851562 -0.57422,0 -1.01953,0.2578125 -1.33593,0.75 V 4.1072656 h -0.60938 z m 1.82813,-5.4023441 c 0.73828,0 1.20703,0.6445312 1.20703,1.640625 0,0.9492187 -0.48047,1.59375 -1.20703,1.59375 -0.70313,0 -1.16016,-0.6445313 -1.16016,-1.6171875 0,-0.984375 0.45703,-1.6171875 1.16016,-1.6171875 z m 6.25781,1.8046875 c 0,-0.6445313 -0.0469,-1.0195313 -0.16406,-1.3359375 -0.28125,-0.6796875 -0.91407,-1.1015625 -1.69922,-1.1015625 -1.16016,0 -1.91016,0.890625 -1.91016,2.2734375 0,1.3710937 0.71484,2.2148437 1.89844,2.2148437 0.96094,0 1.61719,-0.5507812 1.78125,-1.453125 h -0.66797 c -0.17578,0.5507813 -0.55078,0.8320313 -1.08984,0.8320313 -0.42188,0 -0.78516,-0.1875 -1.00782,-0.5390625 -0.15234,-0.234375 -0.21093,-0.4804688 -0.22265,-0.890625 z m -3.0586,-0.5390625 c 0.0469,-0.7734375 0.52735,-1.2773438 1.19532,-1.2773438 0.67968,0 1.14843,0.5273438 1.14843,1.2773438 z m 3.94922,-1.7695313 v 4.171875 h 0.66797 V 6.1111719 c 0.0117,-1.0078125 0.42188,-1.453125 1.33594,-1.4296875 V 4.0135156 c -0.10547,-0.023437 -0.17578,-0.035156 -0.24609,-0.035156 -0.4336,0 -0.76172,0.2578125 -1.14844,0.8789062 v -0.75 z m 6.36914,3.7851563 c -0.0703,0.011719 -0.10547,0.011719 -0.14062,0.011719 -0.23438,0 -0.36328,-0.1171875 -0.36328,-0.328125 v -2.449219 c 0,-0.75 -0.53907,-1.1484375 -1.57032,-1.1484375 -0.60937,0 -1.10156,0.1757812 -1.38281,0.4921875 -0.19922,0.2109375 -0.26953,0.4570312 -0.29297,0.8671875 h 0.66797 c 0.0586,-0.5039063 0.36328,-0.7382813 0.98438,-0.7382813 0.60937,0 0.9375,0.2226563 0.9375,0.6210938 v 0.1757812 c -0.0117,0.28125 -0.15235,0.3867188 -0.70313,0.4570313 -0.9375,0.1171875 -1.07812,0.1523437 -1.33594,0.2578125 -0.48046,0.2109375 -0.72656,0.5742187 -0.72656,1.1132812 0,0.7617188 0.51563,1.2421875 1.3711,1.2421875 0.51562,0 0.9375,-0.1875 1.41796,-0.6210937 0.0469,0.4335937 0.2461,0.6210937 0.67969,0.6210937 0.14063,0 0.23438,-0.023437 0.45703,-0.070312 z m -1.1601,-0.9257813 c 0,0.2226563 -0.0703,0.3515625 -0.26953,0.5390625 -0.26954,0.2460938 -0.59766,0.375 -0.98438,0.375 -0.51562,0 -0.82031,-0.2460937 -0.82031,-0.6679687 0,-0.4453125 0.28125,-0.6679688 0.99609,-0.7617188 0.71485,-0.1054687 0.84375,-0.1289062 1.07813,-0.234375 z m 3.35156,-2.859375 h -0.69141 V 2.9588281 h -0.65625 v 1.1484375 h -0.5625 v 0.5390625 h 0.5625 v 3.1523438 c 0,0.4335937 0.28125,0.6679687 0.79688,0.6679687 0.17578,0 0.32812,-0.023437 0.55078,-0.058594 v -0.5625 c -0.0937,0.023437 -0.1875,0.035156 -0.31641,0.035156 -0.29297,0 -0.375,-0.082031 -0.375,-0.375 v -2.859375 h 0.69141 z m 2.35547,-0.1289062 c -1.1836,0 -1.88672,0.84375 -1.88672,2.25 0,1.40625 0.70312,2.2382812 1.89844,2.2382812 1.17187,0 1.88672,-0.84375 1.88672,-2.2148437 0,-1.4414063 -0.69141,-2.2734375 -1.89844,-2.2734375 z m 0.0117,0.6210937 c 0.75,0 1.19531,0.609375 1.19531,1.6523438 0,0.984375 -0.46875,1.59375 -1.19531,1.59375 -0.75,0 -1.19532,-0.609375 -1.19532,-1.6171875 0,-1.0195313 0.44532,-1.6289063 1.19532,-1.6289063 z m 2.80078,-0.4921875 v 4.171875 h 0.66797 V 6.1111719 c 0.0117,-1.0078125 0.42187,-1.453125 1.33593,-1.4296875 V 4.0135156 c -0.10546,-0.023437 -0.17578,-0.035156 -0.24609,-0.035156 -0.43359,0 -0.76172,0.2578125 -1.14844,0.8789062 v -0.75 z m 6.07617,1.5234375 h 0.38672 c 0.76172,0 1.17187,0.3515625 1.17187,1.0429688 0,0.7265625 -0.44531,1.171875 -1.16015,1.171875 -0.77344,0 -1.14844,-0.3984375 -1.19531,-1.2421875 h -0.70313 c 0.0234,0.46875 0.10547,0.7617187 0.24609,1.0195312 0.29297,0.5625 0.84375,0.84375 1.61719,0.84375 1.16016,0 1.91016,-0.703125 1.91016,-1.7929687 0,-0.7382813 -0.28125,-1.1367188 -0.96094,-1.3710938 0.52734,-0.2226562 0.79688,-0.6210937 0.79688,-1.1953125 0,-0.9960937 -0.64454,-1.59375 -1.72266,-1.59375 -1.13672,0 -1.74609,0.6445313 -1.76953,1.8632813 h 0.70312 c 0,-0.3515625 0.0352,-0.5507813 0.12891,-0.7265625 0.15234,-0.328125 0.50391,-0.515625 0.94922,-0.515625 0.62109,0 0.99609,0.375 0.99609,0.9960937 0,0.3984375 -0.15234,0.6445313 -0.45703,0.7851563 -0.1875,0.082031 -0.44531,0.1171875 -0.9375,0.1171875 z m 0,0"
       style="fill:#000000;fill-opacity:1;fill-rule:nonzero;stroke:none"
       aria-label="select&#10;operator 1&#10;apply&#10;operator 1&#10;select&#10;operator 2&#10;apply&#10;operator 2&#10;select&#10;operator 3&#10;apply&#10;operator 3"
       transform="matrix(1.3333333,0,0,1.3333333,118.97653,191.95333)" />
    <path
       id="path5"
       d="m 318.688,6692.42 h 63.738"
       style="fill:none;stroke:#000000;stroke-width:7.96717;stroke-linecap:butt;stroke-linejoin:miter;stroke-miterlimit:10;stroke-dasharray:none;stroke-opacity:1"
       transform="matrix(0.13333333,0,0,-0.13333333,0,1056)" />
    <path
       id="path6"
       d="m 302.754,6712.34 79.672,-19.92 -79.672,-19.92"
       style="fill:none;stroke:#000000;stroke-width:7.96717;stroke-linecap:butt;stroke-linejoin:miter;stroke-miterlimit:10;stroke-dasharray:none;stroke-opacity:1"
       transform="matrix(0.13333333,0,0,-0.13333333,0,1056)" />
    <path
       id="path7"
       d="m 4.7475047,-4.1023125 c 0,-0.3984375 -0.023437,-0.515625 -0.1523438,-0.7851562 C 4.2787547,-5.5554375 3.5990672,-5.907 2.6264109,-5.907 c -1.2773437,0 -2.06249996,0.65625 -2.06249996,1.7109375 0,0.703125 0.375,1.1484375 1.13671876,1.3476563 l 1.4414062,0.3867187 c 0.7382813,0.1875 1.0664063,0.4804688 1.0664063,0.9375 0,0.3164063 -0.1640625,0.6328125 -0.4101563,0.80859375 C 3.5639109,-0.55153125 3.2006297,-0.4695 2.7318797,-0.4695 2.0873484,-0.4695 1.6654734,-0.62184375 1.3842234,-0.9616875 1.1732859,-1.2077812 1.0795359,-1.4890312 1.0795359,-1.8523125 H 0.38812969 c 0,0.5390625 0.10546875,0.890625 0.33984375,1.20703125 C 1.1264109,-0.0945 1.7943797,0.18675 2.6732859,0.18675 c 0.703125,0 1.265625,-0.1640625 1.640625,-0.4453125 0.3867188,-0.31640625 0.6328125,-0.8320312 0.6328125,-1.3359375 0,-0.7148437 -0.4453125,-1.2421875 -1.2304687,-1.453125 L 2.2514109,-3.4460625 c -0.6914062,-0.1875 -0.9492187,-0.4101562 -0.9492187,-0.8554687 0,-0.5976563 0.515625,-0.984375 1.3007812,-0.984375 0.9257813,0 1.4414063,0.421875 1.4414063,1.1835937 z m 2.7333984,-0.1992187 c -1.1835937,0 -1.8867187,0.84375 -1.8867187,2.25 0,1.40624995 0.703125,2.2382812 1.8984375,2.2382812 1.171875,0 1.8867187,-0.84375 1.8867187,-2.2148437 0,-1.4414063 -0.6914062,-2.2734375 -1.8984375,-2.2734375 z m 0.011719,0.6210937 c 0.75,0 1.1953125,0.609375 1.1953125,1.6523438 0,0.984375 -0.46875,1.59374995 -1.1953125,1.59374995 -0.75,0 -1.1953125,-0.60937495 -1.1953125,-1.61718745 0,-1.0195313 0.4453125,-1.6289063 1.1953125,-1.6289063 z m 6.5156249,3.29296875 c -0.07031,0.0117188 -0.105469,0.0117188 -0.140625,0.0117188 -0.234375,0 -0.363281,-0.1171875 -0.363281,-0.328125 V -3.1530937 c 0,-0.75 -0.539063,-1.1484375 -1.570313,-1.1484375 -0.609375,0 -1.101562,0.1757812 -1.382812,0.4921875 -0.199219,0.2109375 -0.269532,0.4570312 -0.292969,0.8671875 h 0.667969 c 0.05859,-0.5039063 0.363281,-0.7382813 0.984375,-0.7382813 0.609375,0 0.9375,0.2226563 0.9375,0.6210938 v 0.1757812 c -0.01172,0.28125 -0.152344,0.3867188 -0.703125,0.4570313 -0.9375,0.1171875 -1.078125,0.1523437 -1.335938,0.2578125 -0.480469,0.2109375 -0.726562,0.5742187 -0.726562,1.1132812 0,0.7617188 0.515625,1.24218755 1.371093,1.24218755 0.515625,0 0.9375,-0.1875 1.417969,-0.62109375 0.04687,0.4335937 0.246094,0.6210937 0.679688,0.6210937 0.140625,0 0.234375,-0.0234375 0.457031,-0.0703125 z M 12.848091,-1.31325 c 0,0.2226563 -0.07031,0.3515625 -0.269532,0.5390625 -0.269531,0.24609375 -0.597656,0.375 -0.984375,0.375 -0.515625,0 -0.820312,-0.24609375 -0.820312,-0.6679687 0,-0.4453125 0.28125,-0.6679688 0.996094,-0.7617188 0.714843,-0.1054687 0.84375,-0.1289062 1.078125,-0.234375 z m 1.875,-2.859375 V -7.5e-4 h 0.667968 v -2.1679687 c 0.01172,-1.0078125 0.421875,-1.453125 1.335938,-1.4296875 V -4.266375 c -0.105469,-0.023437 -0.175781,-0.035156 -0.246094,-0.035156 -0.433594,0 -0.761719,0.2578125 -1.148437,0.8789062 v -0.75 z m 8.408203,2.3085938 c 0,-0.6445313 -0.04687,-1.0195313 -0.164063,-1.3359375 -0.28125,-0.6796875 -0.914062,-1.1015625 -1.699218,-1.1015625 -1.160157,0 -1.910157,0.890625 -1.910157,2.2734375 0,1.3710937 0.714844,2.2148437 1.898438,2.2148437 0.960937,0 1.617187,-0.55078125 1.78125,-1.453125 h -0.667969 c -0.175781,0.55078125 -0.550781,0.83203125 -1.089844,0.83203125 -0.421875,0 -0.785156,-0.1875 -1.007812,-0.5390625 C 20.119575,-1.2077812 20.060981,-1.453875 20.049263,-1.8640312 Z M 20.0727,-2.4030937 c 0.04687,-0.7734375 0.527344,-1.2773438 1.195313,-1.2773438 0.679687,0 1.148437,0.5273438 1.148437,1.2773438 z M 25.803169,-2.157 27.1977,-4.172625 h -0.75 l -0.996094,1.5117188 -1.007812,-1.5117188 h -0.761719 l 1.394531,2.0390625 -1.464843,2.1328125 h 0.75 l 1.066406,-1.6054687 1.042969,1.6054687 h 0.773437 z m 5.742187,0.2929688 c 0,-0.6445313 -0.04687,-1.0195313 -0.164062,-1.3359375 -0.28125,-0.6796875 -0.914063,-1.1015625 -1.699219,-1.1015625 -1.160156,0 -1.910156,0.890625 -1.910156,2.2734375 0,1.3710937 0.714844,2.2148437 1.898437,2.2148437 0.960938,0 1.617188,-0.55078125 1.78125,-1.453125 h -0.667968 c -0.175782,0.55078125 -0.550782,0.83203125 -1.089844,0.83203125 -0.421875,0 -0.785156,-0.1875 -1.007813,-0.5390625 C 28.533638,-1.2077812 28.475044,-1.453875 28.463325,-1.8640312 Z m -3.058593,-0.5390625 c 0.04687,-0.7734375 0.527343,-1.2773438 1.195312,-1.2773438 0.679688,0 1.148438,0.5273438 1.148438,1.2773438 z m 7.148437,-0.375 c -0.02344,-0.3984375 -0.117187,-0.6679688 -0.28125,-0.890625 -0.28125,-0.3984375 -0.785156,-0.6328125 -1.359375,-0.6328125 -1.136719,0 -1.863281,0.9023437 -1.863281,2.2851562 0,1.34765625 0.714844,2.203125 1.851562,2.203125 0.996094,0 1.628907,-0.59765625 1.699219,-1.6171875 h -0.667969 c -0.105468,0.66796875 -0.457031,0.99609375 -1.019531,0.99609375 -0.726562,0 -1.171875,-0.59765625 -1.171875,-1.58203125 0,-1.0429687 0.433594,-1.6640625 1.160156,-1.6640625 0.550782,0 0.902344,0.328125 0.984375,0.9023438 z M 39.713325,-7.5e-4 v -4.171875 h -0.667969 v 2.3671875 c 0,0.84375 -0.445312,1.40625 -1.136718,1.40625 -0.527344,0 -0.855469,-0.31640625 -0.855469,-0.8203125 V -4.172625 H 36.3852 v 3.2109375 c 0,0.703125 0.515625,1.1484375 1.335938,1.1484375 0.609375,0 0.996093,-0.22265625 1.394531,-0.7734375 V -7.5e-4 Z m 2.613281,-4.171875 H 41.6352 v -1.1484375 h -0.65625 v 1.1484375 h -0.5625 v 0.5390625 h 0.5625 v 3.15234375 c 0,0.43359375 0.28125,0.66796875 0.796875,0.66796875 0.175781,0 0.328125,-0.0234375 0.550781,-0.0585938 v -0.5625 c -0.09375,0.0234375 -0.1875,0.0351563 -0.316406,0.0351563 -0.292969,0 -0.375,-0.0820313 -0.375,-0.375 v -2.859375 h 0.691406 z m 1.382813,0 h -0.65625 V -7.5e-4 h 0.65625 z m 0,-1.640625 H 43.04145 v 0.84375 h 0.667969 z m 2.739258,1.5117188 c -1.183594,0 -1.886719,0.84375 -1.886719,2.25 0,1.40624995 0.703125,2.2382812 1.898437,2.2382812 1.171875,0 1.886719,-0.84375 1.886719,-2.2148437 0,-1.4414063 -0.691406,-2.2734375 -1.898437,-2.2734375 z m 0.01172,0.6210937 c 0.75,0 1.195313,0.609375 1.195313,1.6523438 0,0.984375 -0.46875,1.59374995 -1.195313,1.59374995 -0.75,0 -1.195312,-0.60937495 -1.195312,-1.61718745 0,-1.0195313 0.445312,-1.6289063 1.195312,-1.6289063 z m 2.8125,-0.4921875 V -7.5e-4 h 0.667969 v -2.3085937 c 0,-0.84375 0.445313,-1.40625 1.125,-1.40625 0.527344,0 0.867188,0.3164062 0.867188,0.8203125 V -7.5e-4 h 0.65625 v -3.1523437 c 0,-0.6914063 -0.515625,-1.1484375 -1.324219,-1.1484375 -0.621094,0 -1.019531,0.2460937 -1.382813,0.8320312 v -0.703125 z m 0,0"
       style="fill:#000000;fill-opacity:1;fill-rule:nonzero;stroke:none"
       aria-label="Soar execution"
       transform="matrix(1.3333333,0,0,1.3333333,67.9864,158.376)" />
    <path
       id="path8"
       d="M 382.426,6692.42 H 4780.3"
       style="fill:none;stroke:#000000;stroke-width:7.96717;stroke-linecap:butt;stroke-linejoin:miter;stroke-miterlimit:10;stroke-dasharray:none;stroke-opacity:1"
       transform="matrix(0.13333333,0,0,-0.13333333,0,1056)" />
    <path
       id="path9"
       d="m 4696.65,6717.44 100.08,-25.02 -100.08,-25.02"
       style="fill:#bfbfbf;fill-opacity:1;fill-rule:evenodd;stroke:none"
       transform="matrix(0.13333333,0,0,-0.13333333,0,1056)" />
    <path
       id="path10"
       d="m 4700.63,6712.34 79.67,-19.92 -79.67,-19.92"
       style="fill:none;stroke:#000000;stroke-width:7.96717;stroke-linecap:butt;stroke-linejoin:miter;stroke-miterlimit:10;stroke-dasharray:none;stroke-opacity:1"
       transform="matrix(0.13333333,0,0,-0.13333333,0,1056)" />
    <path
       id="path11"
       d="M 1465.96,5927.57 H 2740.71 V 7074.84 H 1465.96 Z"
       style="fill:none;stroke:#b3b3b3;stroke-width:15.9343;stroke-linecap:butt;stroke-linejoin:miter;stroke-miterlimit:10;stroke-dasharray:none;stroke-opacity:1"
       transform="matrix(0.13333333,0,0,-0.13333333,0,1056)" />
    <path
       id="path12"
       d="M 2740.71,5927.57 H 4015.46 V 7074.84 H 2740.71 Z"
       style="fill:none;stroke:#b3b3b3;stroke-width:15.9343;stroke-linecap:butt;stroke-linejoin:miter;stroke-miterlimit:10;stroke-dasharray:none;stroke-opacity:1"
       transform="matrix(0.13333333,0,0,-0.13333333,0,1056)" />
  </g>
</svg>
