<?xml version="1.0" encoding="UTF-8" standalone="no"?>
<!-- Created with Inkscape (http://www.inkscape.org/) -->

<svg
   version="1.1"
   id="svg1"
   width="613.94135"
   height="45.624996"
   viewBox="0 0 613.94135 45.624996"
   xmlns="http://www.w3.org/2000/svg"
   xmlns:svg="http://www.w3.org/2000/svg">
  <defs
     id="defs1" />
  <g
     id="g1"
     transform="translate(-40.238365,-150.5)">
    <path
       id="path1"
       d="m 6.2812719,-5.4259375 c -0.011719,-1.4765625 -0.984375,-2.3085938 -2.71875,-2.3085938 -1.7578125,0 -2.88281252,0.9023438 -2.88281252,2.296875 0,1.171875 0.59765622,1.734375 2.37890622,2.1679688 l 1.1132813,0.2695312 c 0.8320312,0.1992188 1.1601562,0.5039063 1.1601562,1.03125 0,0.7265625 -0.703125,1.19531255 -1.7460937,1.19531255 -0.6445313,0 -1.1953125,-0.1875 -1.4882813,-0.50390625 -0.1875,-0.2109375 -0.28125,-0.4335938 -0.3515625,-0.9609375 H 0.49220938 c 0.0585938,1.734375 1.03125002,2.56640625 2.98828122,2.56640625 1.8984375,0 3.1054688,-0.92578125 3.1054688,-2.37890625 0,-1.125 -0.6328125,-1.734375 -2.1210938,-2.0976563 L 3.3164281,-4.418125 C 2.3437719,-4.6525 1.9218969,-4.9689063 1.9218969,-5.49625 c 0,-0.703125 0.6210937,-1.125 1.59375,-1.125 0.9609375,0 1.4765625,0.4101562 1.5,1.1953125 z m 8.2500001,2.0742187 c 0,-1.1484375 -0.08203,-1.8398437 -0.304688,-2.4023437 -0.480468,-1.2304688 -1.628906,-1.9804688 -3.035156,-1.9804688 -2.0976561,0 -3.4453124,1.59375 -3.4453124,4.078125 0,2.484375 1.2890625,3.98437505 3.4101564,3.98437505 1.722656,0 2.917969,-0.97265625 3.210937,-2.61328125 h -1.195312 c -0.339844,0.9960937 -1.007813,1.51171875 -1.96875,1.51171875 -0.761719,0 -1.4062501,-0.33984375 -1.8046876,-0.97265625 C 9.1054906,-2.1798438 9.0117406,-2.6134375 8.9883031,-3.3517188 Z m -5.5078126,-0.984375 c 0.09375,-1.3828125 0.9492187,-2.2851562 2.1445316,-2.2851562 1.230468,0 2.074218,0.9375 2.074218,2.2851562 z M 17.323264,-10.453281 H 16.116233 V -1.5625e-4 h 1.207031 z m 8.364258,7.1015622 c 0,-1.1484375 -0.08203,-1.8398437 -0.304688,-2.4023437 -0.480468,-1.2304688 -1.628906,-1.9804688 -3.035156,-1.9804688 -2.097656,0 -3.445312,1.59375 -3.445312,4.078125 0,2.484375 1.289062,3.98437505 3.410156,3.98437505 1.722656,0 2.917969,-0.97265625 3.210937,-2.61328125 h -1.195312 c -0.339844,0.9960937 -1.007813,1.51171875 -1.96875,1.51171875 -0.761719,0 -1.40625,-0.33984375 -1.804688,-0.97265625 -0.292968,-0.4335938 -0.386718,-0.8671875 -0.410156,-1.6054688 z m -5.507813,-0.984375 c 0.09375,-1.3828125 0.949219,-2.2851562 2.144532,-2.2851562 1.230468,0 2.074218,0.9375 2.074218,2.2851562 z m 12.881836,-0.65625 c -0.05859,-0.7265625 -0.222656,-1.2070312 -0.503906,-1.6171875 -0.515625,-0.703125 -1.429687,-1.125 -2.472656,-1.125 -2.039063,0 -3.339844,1.6054688 -3.339844,4.1015625 0,2.4257813 1.289063,3.96093755 3.328125,3.96093755 1.792969,0 2.929688,-1.078125 3.070313,-2.90625005 h -1.207032 c -0.199218,1.1953125 -0.820312,1.80468755 -1.839843,1.80468755 -1.3125,0 -2.109375,-1.07812505 -2.109375,-2.85937505 0,-1.875 0.785156,-2.9882812 2.085937,-2.9882812 1.007813,0 1.628906,0.5859375 1.78125,1.6289062 z M 37.116233,-7.511875 H 35.885764 V -9.5860938 H 34.690452 V -7.511875 H 33.67092 v 0.9726562 h 1.019532 v 5.6835938 c 0,0.7734375 0.515625,1.18359375 1.453125,1.18359375 0.316406,0 0.574218,-0.0234375 0.972656,-0.09375 v -1.0078125 C 36.940452,-0.72671875 36.788108,-0.715 36.542014,-0.715 c -0.515625,0 -0.65625,-0.140625 -0.65625,-0.6796875 v -5.1445313 h 1.230469 z m 34.297851,6.80859375 c -0.128906,0.0234375 -0.1875,0.0234375 -0.257812,0.0234375 -0.421875,0 -0.644531,-0.2109375 -0.644531,-0.58593755 V -5.68375 c 0,-1.3359375 -0.984375,-2.0507813 -2.824219,-2.0507813 -1.113281,0 -1.980469,0.3164063 -2.496094,0.8789063 -0.351562,0.3867187 -0.492187,0.8203125 -0.515625,1.5585937 h 1.195313 c 0.105468,-0.9140625 0.644531,-1.3242187 1.769531,-1.3242187 1.089844,0 1.675781,0.3984375 1.675781,1.1132812 v 0.3164063 c -0.01172,0.515625 -0.269531,0.703125 -1.242187,0.8320312 C 66.375022,-4.1485938 66.117209,-4.09 65.660178,-3.9025 c -0.878906,0.375 -1.324219,1.03125 -1.324219,2.0039062 0,1.3710938 0.949219,2.22656255 2.472657,2.22656255 0.949218,0 1.710937,-0.328125 2.554687,-1.1015625 0.08203,0.7734375 0.457031,1.1015625 1.230469,1.1015625 0.257812,0 0.421875,-0.0234375 0.820312,-0.12890625 z M 69.316428,-2.3673438 c 0,0.3984375 -0.117187,0.6445313 -0.46875,0.9726563 C 68.355491,-0.949375 67.769553,-0.715 67.066428,-0.715 c -0.9375,0 -1.476562,-0.4453125 -1.476562,-1.2070313 0,-0.7851562 0.515625,-1.1953125 1.804687,-1.3828125 C 68.671897,-3.4689063 68.917991,-3.5275 69.316428,-3.715 Z M 72.48342,3.12875 h 1.207032 v -3.9140625 c 0.632812,0.7734375 1.335937,1.11328125 2.308593,1.11328125 1.945313,0 3.210938,-1.55859375 3.210938,-3.96093755 0,-2.5195312 -1.230469,-4.1015625 -3.222656,-4.1015625 -1.019532,0 -1.839844,0.4570313 -2.402344,1.3476563 v -1.125 H 72.48342 Z m 3.304688,-9.7382813 c 1.3125,0 2.179687,1.1601563 2.179687,2.953125 0,1.7109375 -0.878906,2.8710938 -2.179687,2.8710938 -1.277344,0 -2.097656,-1.1484375 -2.097656,-2.9179688 0,-1.7578125 0.820312,-2.90625 2.097656,-2.90625 z M 80.45803,3.12875 h 1.207031 v -3.9140625 c 0.632812,0.7734375 1.335937,1.11328125 2.308594,1.11328125 1.945312,0 3.210937,-1.55859375 3.210937,-3.96093755 0,-2.5195312 -1.230469,-4.1015625 -3.222656,-4.1015625 -1.019531,0 -1.839844,0.4570313 -2.402344,1.3476563 v -1.125 H 80.45803 Z m 3.304687,-9.7382813 c 1.3125,0 2.179688,1.1601563 2.179688,2.953125 0,1.7109375 -0.878907,2.8710938 -2.179688,2.8710938 -1.277344,0 -2.097656,-1.1484375 -2.097656,-2.9179688 0,-1.7578125 0.820312,-2.90625 2.097656,-2.90625 z m 6.076172,-3.8437497 H 88.631858 V -1.5625e-4 h 1.207031 z m 6.568359,2.941406 -2.085937,5.8476562 -1.921875,-5.8476562 H 91.122092 L 93.665061,0.02328125 93.20803,1.2185937 c -0.199219,0.5273438 -0.457032,0.7265625 -0.960938,0.7265625 -0.199219,0 -0.375,-0.023437 -0.632812,-0.082031 V 2.94125 c 0.246093,0.1289062 0.492187,0.1875 0.808593,0.1875 0.386719,0 0.796875,-0.1289063 1.113282,-0.3632813 0.375,-0.2695312 0.585937,-0.5859375 0.820312,-1.1835937 l 3.339844,-9.09375 z m 37.347652,2.0859375 c -0.0117,-1.4765625 -0.98437,-2.3085938 -2.71875,-2.3085938 -1.75781,0 -2.88281,0.9023438 -2.88281,2.296875 0,1.171875 0.59766,1.734375 2.37891,2.1679688 l 1.11328,0.2695312 c 0.83203,0.1992188 1.16016,0.5039063 1.16016,1.03125 0,0.7265625 -0.70313,1.19531255 -1.7461,1.19531255 -0.64453,0 -1.19531,-0.1875 -1.48828,-0.50390625 -0.1875,-0.2109375 -0.28125,-0.4335938 -0.35156,-0.9609375 h -1.25391 c 0.0586,1.734375 1.03125,2.56640625 2.98828,2.56640625 1.89844,0 3.10547,-0.92578125 3.10547,-2.37890625 0,-1.125 -0.63281,-1.734375 -2.12109,-2.0976563 l -1.14844,-0.2695312 c -0.97266,-0.234375 -1.39453,-0.5507813 -1.39453,-1.078125 0,-0.703125 0.62109,-1.125 1.59375,-1.125 0.96094,0 1.47656,0.4101562 1.5,1.1953125 z m 8.25,2.0742187 c 0,-1.1484375 -0.082,-1.8398437 -0.30468,-2.4023437 -0.48047,-1.2304688 -1.62891,-1.9804688 -3.03516,-1.9804688 -2.09766,0 -3.44531,1.59375 -3.44531,4.078125 0,2.484375 1.28906,3.98437505 3.41015,3.98437505 1.72266,0 2.91797,-0.97265625 3.21094,-2.61328125 h -1.19531 c -0.33984,0.9960937 -1.00781,1.51171875 -1.96875,1.51171875 -0.76172,0 -1.40625,-0.33984375 -1.80469,-0.97265625 -0.29297,-0.4335938 -0.38672,-0.8671875 -0.41015,-1.6054688 z m -5.50781,-0.984375 c 0.0937,-1.3828125 0.94922,-2.2851562 2.14453,-2.2851562 1.23047,0 2.07422,0.9375 2.07422,2.2851562 z m 8.29981,-6.1171872 h -1.20703 V -1.5625e-4 h 1.20703 z m 8.36425,7.1015622 c 0,-1.1484375 -0.082,-1.8398437 -0.30468,-2.4023437 -0.48047,-1.2304688 -1.62891,-1.9804688 -3.03516,-1.9804688 -2.09766,0 -3.44531,1.59375 -3.44531,4.078125 0,2.484375 1.28906,3.98437505 3.41015,3.98437505 1.72266,0 2.91797,-0.97265625 3.21094,-2.61328125 h -1.19531 c -0.33984,0.9960937 -1.00781,1.51171875 -1.96875,1.51171875 -0.76172,0 -1.40625,-0.33984375 -1.80469,-0.97265625 -0.29297,-0.4335938 -0.38672,-0.8671875 -0.41015,-1.6054688 z m -5.50781,-0.984375 c 0.0937,-1.3828125 0.94922,-2.2851562 2.14453,-2.2851562 1.23047,0 2.07422,0.9375 2.07422,2.2851562 z m 12.88477,-0.65625 c -0.0586,-0.7265625 -0.22266,-1.2070312 -0.50391,-1.6171875 -0.51562,-0.703125 -1.42969,-1.125 -2.47265,-1.125 -2.03907,0 -3.33985,1.6054688 -3.33985,4.1015625 0,2.4257813 1.28906,3.96093755 3.32813,3.96093755 1.79297,0 2.92968,-1.078125 3.07031,-2.90625005 h -1.20703 c -0.19922,1.1953125 -0.82031,1.80468755 -1.83985,1.80468755 -1.3125,0 -2.10937,-1.07812505 -2.10937,-2.85937505 0,-1.875 0.78516,-2.9882812 2.08594,-2.9882812 1.00781,0 1.6289,0.5859375 1.78125,1.6289062 z m 4.05176,-2.5195312 h -1.23047 v -2.0742188 h -1.19532 v 2.0742188 h -1.01953 v 0.9726562 h 1.01953 v 5.6835938 c 0,0.7734375 0.51563,1.18359375 1.45313,1.18359375 0.31641,0 0.57422,-0.0234375 0.97266,-0.09375 v -1.0078125 c -0.17579,0.046875 -0.32813,0.0585938 -0.57422,0.0585938 -0.51563,0 -0.65625,-0.140625 -0.65625,-0.67968745 v -5.1445313 h 1.23047 z m 34.29785,6.80859375 c -0.12891,0.0234375 -0.1875,0.0234375 -0.25782,0.0234375 -0.42187,0 -0.64453,-0.2109375 -0.64453,-0.58593755 V -5.68375 c 0,-1.3359375 -0.98437,-2.0507813 -2.82422,-2.0507813 -1.11328,0 -1.98046,0.3164063 -2.49609,0.8789063 -0.35156,0.3867187 -0.49219,0.8203125 -0.51562,1.5585937 h 1.19531 c 0.10547,-0.9140625 0.64453,-1.3242187 1.76953,-1.3242187 1.08984,0 1.67578,0.3984375 1.67578,1.1132812 v 0.3164063 c -0.0117,0.515625 -0.26953,0.703125 -1.24219,0.8320312 -1.69922,0.2109375 -1.95703,0.2695313 -2.41406,0.4570313 -0.87891,0.375 -1.32422,1.03125 -1.32422,2.0039062 0,1.3710938 0.94922,2.22656255 2.47266,2.22656255 0.94922,0 1.71094,-0.328125 2.55469,-1.1015625 0.082,0.7734375 0.45703,1.1015625 1.23046,1.1015625 0.25782,0 0.42188,-0.0234375 0.82032,-0.12890625 z m -2.09766,-1.66406255 c 0,0.3984375 -0.11719,0.6445313 -0.46875,0.9726563 -0.49219,0.4453125 -1.07812,0.6796875 -1.78125,0.6796875 -0.9375,0 -1.47656,-0.4453125 -1.47656,-1.2070313 0,-0.7851562 0.51562,-1.1953125 1.80469,-1.3828125 1.27734,-0.1640625 1.52343,-0.2226562 1.92187,-0.4101562 z m 3.16992,5.4960938 h 1.20703 v -3.9140625 c 0.63282,0.7734375 1.33594,1.11328125 2.3086,1.11328125 1.94531,0 3.21094,-1.55859375 3.21094,-3.96093755 0,-2.5195312 -1.23047,-4.1015625 -3.22266,-4.1015625 -1.01953,0 -1.83984,0.4570313 -2.40234,1.3476563 v -1.125 h -1.10157 z m 3.30469,-9.7382813 c 1.3125,0 2.17969,1.1601563 2.17969,2.953125 0,1.7109375 -0.87891,2.8710938 -2.17969,2.8710938 -1.27734,0 -2.09766,-1.1484375 -2.09766,-2.9179688 0,-1.7578125 0.82032,-2.90625 2.09766,-2.90625 z m 4.66699,9.7382813 h 1.20703 v -3.9140625 c 0.63282,0.7734375 1.33594,1.11328125 2.3086,1.11328125 1.94531,0 3.21094,-1.55859375 3.21094,-3.96093755 0,-2.5195312 -1.23047,-4.1015625 -3.22266,-4.1015625 -1.01953,0 -1.83984,0.4570313 -2.40234,1.3476563 v -1.125 h -1.10157 z m 3.30469,-9.7382813 c 1.3125,0 2.17969,1.1601563 2.17969,2.953125 0,1.7109375 -0.87891,2.8710938 -2.17969,2.8710938 -1.27734,0 -2.09766,-1.1484375 -2.09766,-2.9179688 0,-1.7578125 0.82032,-2.90625 2.09766,-2.90625 z m 6.07617,-3.8437497 h -1.20703 V -1.5625e-4 h 1.20703 z m 6.57129,2.941406 -2.08594,5.8476562 -1.92187,-5.8476562 h -1.27735 l 2.54297,7.53515625 -0.45703,1.19531245 c -0.19922,0.5273438 -0.45703,0.7265625 -0.96094,0.7265625 -0.19921,0 -0.375,-0.023437 -0.63281,-0.082031 V 2.94125 c 0.2461,0.1289062 0.49219,0.1875 0.8086,0.1875 0.38671,0 0.79687,-0.1289063 1.11328,-0.3632813 0.375,-0.2695312 0.58593,-0.5859375 0.82031,-1.1835937 l 3.33984,-9.09375 z m 37.34766,2.0859375 c -0.0117,-1.4765625 -0.98438,-2.3085938 -2.71875,-2.3085938 -1.75782,0 -2.88282,0.9023438 -2.88282,2.296875 0,1.171875 0.59766,1.734375 2.37891,2.1679688 l 1.11328,0.2695312 c 0.83203,0.1992188 1.16016,0.5039063 1.16016,1.03125 0,0.7265625 -0.70313,1.19531255 -1.7461,1.19531255 -0.64453,0 -1.19531,-0.1875 -1.48828,-0.50390625 -0.1875,-0.2109375 -0.28125,-0.4335938 -0.35156,-0.9609375 h -1.25391 c 0.0586,1.734375 1.03125,2.56640625 2.98829,2.56640625 1.89843,0 3.10546,-0.92578125 3.10546,-2.37890625 0,-1.125 -0.63281,-1.734375 -2.12109,-2.0976563 l -1.14844,-0.2695312 c -0.97265,-0.234375 -1.39453,-0.5507813 -1.39453,-1.078125 0,-0.703125 0.6211,-1.125 1.59375,-1.125 0.96094,0 1.47656,0.4101562 1.5,1.1953125 z m 8.24707,2.0742187 c 0,-1.1484375 -0.082,-1.8398437 -0.30469,-2.4023437 -0.48047,-1.2304688 -1.62891,-1.9804688 -3.03516,-1.9804688 -2.09765,0 -3.44531,1.59375 -3.44531,4.078125 0,2.484375 1.28906,3.98437505 3.41016,3.98437505 1.72265,0 2.91797,-0.97265625 3.21094,-2.61328125 h -1.19532 c -0.33984,0.9960937 -1.00781,1.51171875 -1.96875,1.51171875 -0.76172,0 -1.40625,-0.33984375 -1.80468,-0.97265625 -0.29297,-0.4335938 -0.38672,-0.8671875 -0.41016,-1.6054688 z m -5.50781,-0.984375 c 0.0937,-1.3828125 0.94921,-2.2851562 2.14453,-2.2851562 1.23047,0 2.07422,0.9375 2.07422,2.2851562 z m 8.30273,-6.1171872 h -1.20703 V -1.5625e-4 h 1.20703 z m 8.36133,7.1015622 c 0,-1.1484375 -0.082,-1.8398437 -0.30469,-2.4023437 -0.48047,-1.2304688 -1.62891,-1.9804688 -3.03516,-1.9804688 -2.09765,0 -3.44531,1.59375 -3.44531,4.078125 0,2.484375 1.28906,3.98437505 3.41016,3.98437505 1.72265,0 2.91797,-0.97265625 3.21094,-2.61328125 h -1.19532 c -0.33984,0.9960937 -1.00781,1.51171875 -1.96875,1.51171875 -0.76172,0 -1.40625,-0.33984375 -1.80468,-0.97265625 -0.29297,-0.4335938 -0.38672,-0.8671875 -0.41016,-1.6054688 z m -5.50781,-0.984375 c 0.0937,-1.3828125 0.94921,-2.2851562 2.14453,-2.2851562 1.23047,0 2.07422,0.9375 2.07422,2.2851562 z m 12.88476,-0.65625 c -0.0586,-0.7265625 -0.22266,-1.2070312 -0.50391,-1.6171875 -0.51562,-0.703125 -1.42968,-1.125 -2.47265,-1.125 -2.03906,0 -3.33985,1.6054688 -3.33985,4.1015625 0,2.4257813 1.28907,3.96093755 3.32813,3.96093755 1.79297,0 2.92969,-1.078125 3.07031,-2.90625005 h -1.20703 c -0.19922,1.1953125 -0.82031,1.80468755 -1.83984,1.80468755 -1.3125,0 -2.10938,-1.07812505 -2.10938,-2.85937505 0,-1.875 0.78516,-2.9882812 2.08594,-2.9882812 1.00781,0 1.62891,0.5859375 1.78125,1.6289062 z m 4.05469,-2.5195312 h -1.23047 v -2.0742188 h -1.19531 v 2.0742188 h -1.01953 v 0.9726562 h 1.01953 v 5.6835938 c 0,0.7734375 0.51562,1.18359375 1.45312,1.18359375 0.31641,0 0.57422,-0.0234375 0.97266,-0.09375 v -1.0078125 c -0.17578,0.046875 -0.32813,0.0585938 -0.57422,0.0585938 -0.51563,0 -0.65625,-0.140625 -0.65625,-0.67968745 v -5.1445313 h 1.23047 z m 34.29492,6.80859375 c -0.12891,0.0234375 -0.1875,0.0234375 -0.25781,0.0234375 -0.42188,0 -0.64453,-0.2109375 -0.64453,-0.58593755 V -5.68375 c 0,-1.3359375 -0.98438,-2.0507813 -2.82422,-2.0507813 -1.11328,0 -1.98047,0.3164063 -2.4961,0.8789063 -0.35156,0.3867187 -0.49218,0.8203125 -0.51562,1.5585937 h 1.19531 c 0.10547,-0.9140625 0.64453,-1.3242187 1.76953,-1.3242187 1.08985,0 1.67578,0.3984375 1.67578,1.1132812 v 0.3164063 c -0.0117,0.515625 -0.26953,0.703125 -1.24218,0.8320312 -1.69922,0.2109375 -1.95703,0.2695313 -2.41407,0.4570313 -0.8789,0.375 -1.32421,1.03125 -1.32421,2.0039062 0,1.3710938 0.94921,2.22656255 2.47265,2.22656255 0.94922,0 1.71094,-0.328125 2.55469,-1.1015625 0.082,0.7734375 0.45703,1.1015625 1.23047,1.1015625 0.25781,0 0.42187,-0.0234375 0.82031,-0.12890625 z m -2.09766,-1.66406255 c 0,0.3984375 -0.11718,0.6445313 -0.46875,0.9726563 -0.49218,0.4453125 -1.07812,0.6796875 -1.78125,0.6796875 -0.9375,0 -1.47656,-0.4453125 -1.47656,-1.2070313 0,-0.7851562 0.51563,-1.1953125 1.80469,-1.3828125 1.27734,-0.1640625 1.52344,-0.2226562 1.92187,-0.4101562 z m 3.16993,5.4960938 h 1.20703 v -3.9140625 c 0.63281,0.7734375 1.33593,1.11328125 2.30859,1.11328125 1.94531,0 3.21094,-1.55859375 3.21094,-3.96093755 0,-2.5195312 -1.23047,-4.1015625 -3.22266,-4.1015625 -1.01953,0 -1.83984,0.4570313 -2.40234,1.3476563 v -1.125 h -1.10156 z m 3.30468,-9.7382813 c 1.3125,0 2.17969,1.1601563 2.17969,2.953125 0,1.7109375 -0.87891,2.8710938 -2.17969,2.8710938 -1.27734,0 -2.09765,-1.1484375 -2.09765,-2.9179688 0,-1.7578125 0.82031,-2.90625 2.09765,-2.90625 z m 4.66993,9.7382813 h 1.20703 v -3.9140625 c 0.63281,0.7734375 1.33593,1.11328125 2.30859,1.11328125 1.94531,0 3.21094,-1.55859375 3.21094,-3.96093755 0,-2.5195312 -1.23047,-4.1015625 -3.22266,-4.1015625 -1.01953,0 -1.83984,0.4570313 -2.40234,1.3476563 v -1.125 h -1.10156 z m 3.30468,-9.7382813 c 1.3125,0 2.17969,1.1601563 2.17969,2.953125 0,1.7109375 -0.87891,2.8710938 -2.17969,2.8710938 -1.27734,0 -2.09765,-1.1484375 -2.09765,-2.9179688 0,-1.7578125 0.82031,-2.90625 2.09765,-2.90625 z m 6.07324,-3.8437497 h -1.20703 V -1.5625e-4 h 1.20703 z m 6.57129,2.941406 -2.08593,5.8476562 -1.92188,-5.8476562 h -1.27734 l 2.54297,7.53515625 -0.45703,1.19531245 c -0.19922,0.5273438 -0.45704,0.7265625 -0.96094,0.7265625 -0.19922,0 -0.375,-0.023437 -0.63281,-0.082031 V 2.94125 c 0.24609,0.1289062 0.49218,0.1875 0.80859,0.1875 0.38672,0 0.79687,-0.1289063 1.11328,-0.3632813 0.375,-0.2695312 0.58594,-0.5859375 0.82031,-1.1835937 l 3.33985,-9.09375 z m 0,0"
       style="fill:#000000;fill-opacity:1;fill-rule:nonzero;stroke:none"
       aria-label="selectapplyselectapplyselectapply"
       transform="matrix(1.3333333,0,0,1.3333333,118.97653,191.95333)" />
    <path
       id="path2"
       d="m 318.688,6692.42 h 63.738"
       style="fill:none;stroke:#000000;stroke-width:7.96717;stroke-linecap:butt;stroke-linejoin:miter;stroke-miterlimit:10;stroke-dasharray:none;stroke-opacity:1"
       transform="matrix(0.13333333,0,0,-0.13333333,0,1056)" />
    <path
       id="path3"
       d="m 302.754,6712.34 79.672,-19.92 -79.672,-19.92"
       style="fill:none;stroke:#000000;stroke-width:7.96717;stroke-linecap:butt;stroke-linejoin:miter;stroke-miterlimit:10;stroke-dasharray:none;stroke-opacity:1"
       transform="matrix(0.13333333,0,0,-0.13333333,0,1056)" />
    <path
       id="path4"
       d="m 4.7475047,-4.1023125 c 0,-0.3984375 -0.023437,-0.515625 -0.1523438,-0.7851562 C 4.2787547,-5.5554375 3.5990672,-5.907 2.6264109,-5.907 c -1.2773437,0 -2.06249996,0.65625 -2.06249996,1.7109375 0,0.703125 0.375,1.1484375 1.13671876,1.3476563 l 1.4414062,0.3867187 c 0.7382813,0.1875 1.0664063,0.4804688 1.0664063,0.9375 0,0.3164063 -0.1640625,0.6328125 -0.4101563,0.80859375 C 3.5639109,-0.55153125 3.2006297,-0.4695 2.7318797,-0.4695 2.0873484,-0.4695 1.6654734,-0.62184375 1.3842234,-0.9616875 1.1732859,-1.2077812 1.0795359,-1.4890312 1.0795359,-1.8523125 H 0.38812969 c 0,0.5390625 0.10546875,0.890625 0.33984375,1.20703125 C 1.1264109,-0.0945 1.7943797,0.18675 2.6732859,0.18675 c 0.703125,0 1.265625,-0.1640625 1.640625,-0.4453125 0.3867188,-0.31640625 0.6328125,-0.8320312 0.6328125,-1.3359375 0,-0.7148437 -0.4453125,-1.2421875 -1.2304687,-1.453125 L 2.2514109,-3.4460625 c -0.6914062,-0.1875 -0.9492187,-0.4101562 -0.9492187,-0.8554687 0,-0.5976563 0.515625,-0.984375 1.3007812,-0.984375 0.9257813,0 1.4414063,0.421875 1.4414063,1.1835937 z m 2.7333984,-0.1992187 c -1.1835937,0 -1.8867187,0.84375 -1.8867187,2.25 0,1.40624995 0.703125,2.2382812 1.8984375,2.2382812 1.171875,0 1.8867187,-0.84375 1.8867187,-2.2148437 0,-1.4414063 -0.6914062,-2.2734375 -1.8984375,-2.2734375 z m 0.011719,0.6210937 c 0.75,0 1.1953125,0.609375 1.1953125,1.6523438 0,0.984375 -0.46875,1.59374995 -1.1953125,1.59374995 -0.75,0 -1.1953125,-0.60937495 -1.1953125,-1.61718745 0,-1.0195313 0.4453125,-1.6289063 1.1953125,-1.6289063 z m 6.5156249,3.29296875 c -0.07031,0.0117188 -0.105469,0.0117188 -0.140625,0.0117188 -0.234375,0 -0.363281,-0.1171875 -0.363281,-0.328125 V -3.1530937 c 0,-0.75 -0.539063,-1.1484375 -1.570313,-1.1484375 -0.609375,0 -1.101562,0.1757812 -1.382812,0.4921875 -0.199219,0.2109375 -0.269532,0.4570312 -0.292969,0.8671875 h 0.667969 c 0.05859,-0.5039063 0.363281,-0.7382813 0.984375,-0.7382813 0.609375,0 0.9375,0.2226563 0.9375,0.6210938 v 0.1757812 c -0.01172,0.28125 -0.152344,0.3867188 -0.703125,0.4570313 -0.9375,0.1171875 -1.078125,0.1523437 -1.335938,0.2578125 -0.480469,0.2109375 -0.726562,0.5742187 -0.726562,1.1132812 0,0.7617188 0.515625,1.24218755 1.371093,1.24218755 0.515625,0 0.9375,-0.1875 1.417969,-0.62109375 0.04687,0.4335937 0.246094,0.6210937 0.679688,0.6210937 0.140625,0 0.234375,-0.0234375 0.457031,-0.0703125 z M 12.848091,-1.31325 c 0,0.2226563 -0.07031,0.3515625 -0.269532,0.5390625 -0.269531,0.24609375 -0.597656,0.375 -0.984375,0.375 -0.515625,0 -0.820312,-0.24609375 -0.820312,-0.6679687 0,-0.4453125 0.28125,-0.6679688 0.996094,-0.7617188 0.714843,-0.1054687 0.84375,-0.1289062 1.078125,-0.234375 z m 1.875,-2.859375 V -7.5e-4 h 0.667968 v -2.1679687 c 0.01172,-1.0078125 0.421875,-1.453125 1.335938,-1.4296875 V -4.266375 c -0.105469,-0.023437 -0.175781,-0.035156 -0.246094,-0.035156 -0.433594,0 -0.761719,0.2578125 -1.148437,0.8789062 v -0.75 z m 8.408203,2.3085938 c 0,-0.6445313 -0.04687,-1.0195313 -0.164063,-1.3359375 -0.28125,-0.6796875 -0.914062,-1.1015625 -1.699218,-1.1015625 -1.160157,0 -1.910157,0.890625 -1.910157,2.2734375 0,1.3710937 0.714844,2.2148437 1.898438,2.2148437 0.960937,0 1.617187,-0.55078125 1.78125,-1.453125 h -0.667969 c -0.175781,0.55078125 -0.550781,0.83203125 -1.089844,0.83203125 -0.421875,0 -0.785156,-0.1875 -1.007812,-0.5390625 C 20.119575,-1.2077812 20.060981,-1.453875 20.049263,-1.8640312 Z M 20.0727,-2.4030937 c 0.04687,-0.7734375 0.527344,-1.2773438 1.195313,-1.2773438 0.679687,0 1.148437,0.5273438 1.148437,1.2773438 z M 25.803169,-2.157 27.1977,-4.172625 h -0.75 l -0.996094,1.5117188 -1.007812,-1.5117188 h -0.761719 l 1.394531,2.0390625 -1.464843,2.1328125 h 0.75 l 1.066406,-1.6054687 1.042969,1.6054687 h 0.773437 z m 5.742187,0.2929688 c 0,-0.6445313 -0.04687,-1.0195313 -0.164062,-1.3359375 -0.28125,-0.6796875 -0.914063,-1.1015625 -1.699219,-1.1015625 -1.160156,0 -1.910156,0.890625 -1.910156,2.2734375 0,1.3710937 0.714844,2.2148437 1.898437,2.2148437 0.960938,0 1.617188,-0.55078125 1.78125,-1.453125 h -0.667968 c -0.175782,0.55078125 -0.550782,0.83203125 -1.089844,0.83203125 -0.421875,0 -0.785156,-0.1875 -1.007813,-0.5390625 C 28.533638,-1.2077812 28.475044,-1.453875 28.463325,-1.8640312 Z m -3.058593,-0.5390625 c 0.04687,-0.7734375 0.527343,-1.2773438 1.195312,-1.2773438 0.679688,0 1.148438,0.5273438 1.148438,1.2773438 z m 7.148437,-0.375 c -0.02344,-0.3984375 -0.117187,-0.6679688 -0.28125,-0.890625 -0.28125,-0.3984375 -0.785156,-0.6328125 -1.359375,-0.6328125 -1.136719,0 -1.863281,0.9023437 -1.863281,2.2851562 0,1.34765625 0.714844,2.203125 1.851562,2.203125 0.996094,0 1.628907,-0.59765625 1.699219,-1.6171875 h -0.667969 c -0.105468,0.66796875 -0.457031,0.99609375 -1.019531,0.99609375 -0.726562,0 -1.171875,-0.59765625 -1.171875,-1.58203125 0,-1.0429687 0.433594,-1.6640625 1.160156,-1.6640625 0.550782,0 0.902344,0.328125 0.984375,0.9023438 z M 39.713325,-7.5e-4 v -4.171875 h -0.667969 v 2.3671875 c 0,0.84375 -0.445312,1.40625 -1.136718,1.40625 -0.527344,0 -0.855469,-0.31640625 -0.855469,-0.8203125 V -4.172625 H 36.3852 v 3.2109375 c 0,0.703125 0.515625,1.1484375 1.335938,1.1484375 0.609375,0 0.996093,-0.22265625 1.394531,-0.7734375 V -7.5e-4 Z m 2.613281,-4.171875 H 41.6352 v -1.1484375 h -0.65625 v 1.1484375 h -0.5625 v 0.5390625 h 0.5625 v 3.15234375 c 0,0.43359375 0.28125,0.66796875 0.796875,0.66796875 0.175781,0 0.328125,-0.0234375 0.550781,-0.0585938 v -0.5625 c -0.09375,0.0234375 -0.1875,0.0351563 -0.316406,0.0351563 -0.292969,0 -0.375,-0.0820313 -0.375,-0.375 v -2.859375 h 0.691406 z m 1.382813,0 h -0.65625 V -7.5e-4 h 0.65625 z m 0,-1.640625 H 43.04145 v 0.84375 h 0.667969 z m 2.739258,1.5117188 c -1.183594,0 -1.886719,0.84375 -1.886719,2.25 0,1.40624995 0.703125,2.2382812 1.898437,2.2382812 1.171875,0 1.886719,-0.84375 1.886719,-2.2148437 0,-1.4414063 -0.691406,-2.2734375 -1.898437,-2.2734375 z m 0.01172,0.6210937 c 0.75,0 1.195313,0.609375 1.195313,1.6523438 0,0.984375 -0.46875,1.59374995 -1.195313,1.59374995 -0.75,0 -1.195312,-0.60937495 -1.195312,-1.61718745 0,-1.0195313 0.445312,-1.6289063 1.195312,-1.6289063 z m 2.8125,-0.4921875 V -7.5e-4 h 0.667969 v -2.3085937 c 0,-0.84375 0.445313,-1.40625 1.125,-1.40625 0.527344,0 0.867188,0.3164062 0.867188,0.8203125 V -7.5e-4 h 0.65625 v -3.1523437 c 0,-0.6914063 -0.515625,-1.1484375 -1.324219,-1.1484375 -0.621094,0 -1.019531,0.2460937 -1.382813,0.8320312 v -0.703125 z m 0,0"
       style="fill:#000000;fill-opacity:1;fill-rule:nonzero;stroke:none"
       aria-label="Soar execution"
       transform="matrix(1.3333333,0,0,1.3333333,67.9864,158.376)" />
    <path
       id="path5"
       d="M 382.426,6692.42 H 4780.3"
       style="fill:none;stroke:#000000;stroke-width:7.96717;stroke-linecap:butt;stroke-linejoin:miter;stroke-miterlimit:10;stroke-dasharray:none;stroke-opacity:1"
       transform="matrix(0.13333333,0,0,-0.13333333,0,1056)" />
    <path
       id="path6"
       d="m 4696.65,6717.44 100.08,-25.02 -100.08,-25.02"
       style="fill:#bfbfbf;fill-opacity:1;fill-rule:evenodd;stroke:none"
       transform="matrix(0.13333333,0,0,-0.13333333,0,1056)" />
    <path
       id="path7"
       d="m 4700.63,6712.34 79.67,-19.92 -79.67,-19.92"
       style="fill:none;stroke:#000000;stroke-width:7.96717;stroke-linecap:butt;stroke-linejoin:miter;stroke-miterlimit:10;stroke-dasharray:none;stroke-opacity:1"
       transform="matrix(0.13333333,0,0,-0.13333333,0,1056)" />
    <path
       id="path8"
       d="M 4.0910234,-2.788875 H 1.2199297 V 1.875e-4 h 2.8710937 z m 10.6289066,0 H 11.848836 V 1.875e-4 h 2.871094 z m 10.631836,0 H 22.480672 V 1.875e-4 h 2.871094 z m 0,0"
       style="fill:#000000;fill-opacity:1;fill-rule:nonzero;stroke:none"
       aria-label=". . ."
       transform="matrix(1.3333333,0,0,1.3333333,620.37733,186.656)" />
  </g>
</svg>
