<?xml version="1.0" encoding="UTF-8" standalone="no"?>
<!DOCTYPE svg PUBLIC "-//W3C//DTD SVG 1.1//EN" "http://www.w3.org/Graphics/SVG/1.1/DTD/svg11.dtd">
<svg xmlns="http://www.w3.org/2000/svg" xmlns:xlink="http://www.w3.org/1999/xlink" version="1.1" width="991.99996pt" height="638pt" viewBox="0 0 991.99996 638">
<g enable-background="new">
<g>
<path transform="matrix(2.7777777,0,0,-2.7777777,0,0)" stroke-width="1" stroke-linecap="butt" stroke-miterlimit="1" stroke-linejoin="miter" fill="none" stroke="#000000" d="M 198.66 -69.867 C 198.66 -55.152 186.926 -43.219 172.449 -43.219 C 157.973 -43.219 146.238 -55.152 146.238 -69.867 C 146.238 -84.586 157.973 -96.516 172.449 -96.516 C 186.926 -96.516 198.66 -84.586 198.66 -69.867 Z M 198.66 -69.867 "/>
<path transform="matrix(2.7777777,0,0,-2.7777777,0,0)" stroke-width="1" stroke-linecap="butt" stroke-miterlimit="1" stroke-linejoin="miter" fill="none" stroke="#000000" d="M 202.594 -69.867 C 202.594 -52.941 189.098 -39.219 172.449 -39.219 C 155.801 -39.219 142.305 -52.941 142.305 -69.867 C 142.305 -86.793 155.801 -100.516 172.449 -100.516 C 189.098 -100.516 202.594 -86.793 202.594 -69.867 Z M 202.594 -69.867 "/>
<symbol id="font_0_1">
<path d="M .6401367 .68359377 L .5830078 .48876954 C .56184896 .41585288 .5489909 .3696289 .5444336 .35009767 C .5398763 .3305664 .53759768 .3149414 .53759768 .30322267 C .53759768 .292806 .5410156 .28401695 .54785159 .27685548 C .555013 .269694 .56380209 .26611329 .57421877 .26611329 C .59798178 .26611329 .62646487 .27799479 .65966799 .3017578 C .6931966 .32552085 .72184249 .36409507 .74560549 .41748048 C .76936849 .47086589 .78125 .52652999 .78125 .58447268 C .78125 .6401367 .7677409 .69156906 .74072268 .73876956 C .71402999 .78597006 .67610678 .82210287 .6269531 .84716799 C .578125 .8725586 .52408859 .8852539 .46484376 .8852539 C .38964845 .8852539 .31982423 .8652344 .2553711 .8251953 C .19091797 .78548178 .1398112 .7281901 .10205078 .6533203 C .06461588 .5784505 .045898439 .50065109 .045898439 .41992188 C .045898439 .3450521 .06233724 .27701823 .095214847 .21582031 C .12841797 .15462239 .17496746 .10839844 .23486328 .07714844 C .29475913 .045572919 .35921226 .029785157 .42822267 .029785157 C .51383468 .029785157 .5911458 .052734376 .66015627 .09863281 C .7294922 .14453125 .78304037 .21158855 .8208008 .2998047 L .8491211 .2998047 C .8198242 .21061199 .76660159 .13834636 .6894531 .08300781 C .6123047 .027669272 .52441409 0 .42578126 0 C .34830729 0 .2763672 .018391928 .20996094 .05517578 C .14355469 .09163412 .09195963 .14355469 .05517578 .2109375 C .018391928 .27799479 0 .35188804 0 .4326172 C 0 .5185547 .020182291 .5986328 .060546876 .67285159 C .10091146 .7473958 .15738933 .8055013 .22998047 .84716799 C .30289714 .88916018 .38020835 .91015627 .46191407 .91015627 C .5292969 .91015627 .59000656 .8961589 .64404299 .86816409 C .69840499 .8404948 .7397461 .7998047 .7680664 .74609377 C .7963867 .6927083 .8105469 .63590499 .8105469 .5756836 C .8105469 .5161133 .7972005 .45703126 .7705078 .3984375 C .7441406 .34016929 .7104492 .2976888 .6694336 .2709961 C .62841799 .24430339 .585612 .23095703 .5410156 .23095703 C .51627609 .23095703 .4975586 .2368164 .48486329 .24853516 C .4724935 .2602539 .4663086 .27669273 .4663086 .29785157 C .4663086 .31608073 .46923829 .3400065 .47509767 .3696289 C .42692057 .3113607 .38834635 .27360026 .359375 .25634767 C .33040367 .23909505 .30485026 .23046875 .28271485 .23046875 C .25960288 .23046875 .23909505 .24072266 .2211914 .26123048 C .20328777 .2820638 .19433594 .30973307 .19433594 .34423829 C .19433594 .3914388 .20963542 .44433595 .24023438 .5029297 C .27115885 .56152346 .31201173 .6092122 .36279298 .6459961 C .40022788 .67301437 .4337565 .68652346 .4633789 .68652346 C .4851888 .68652346 .5032552 .68082687 .5175781 .6694336 C .53222659 .6583659 .54215499 .64160159 .5473633 .6191406 L .56347659 .67285159 L .6401367 .68359377 M .46875 .6635742 C .44433595 .6635742 .41959635 .6507161 .39453126 .625 C .3577474 .58723959 .32633464 .5362956 .30029298 .47216798 C .28108726 .42529298 .27148438 .38753257 .27148438 .35888673 C .27148438 .3383789 .277181 .3216146 .28857423 .30859376 C .30029298 .29589845 .3133138 .28955079 .32763673 .28955079 C .34651695 .28955079 .3663737 .29671226 .38720704 .31103517 C .40804038 .32535807 .42985026 .34733073 .45263673 .37695313 C .4754232 .40690104 .49202476 .43684898 .5024414 .46679688 C .5206706 .5185547 .52978518 .56070968 .52978518 .5932617 C .52978518 .6147461 .523763 .63183596 .51171877 .64453127 C .5 .65722659 .4856771 .6635742 .46875 .6635742 Z "/>
</symbol>
<symbol id="font_0_2">
<path d="M .40527345 .6875 L .40527345 .6694336 C .3623047 .66520187 .32714845 .6565755 .2998047 .6435547 C .27278648 .6308594 .24593099 .6113281 .21923828 .58496096 C .1928711 .55859377 .17089844 .5291341 .15332031 .49658204 C .1360677 .46435548 .12158203 .425944 .10986328 .38134767 C .15673828 .41357423 .20377605 .4296875 .25097657 .4296875 C .29622398 .4296875 .33544923 .41145835 .36865235 .375 C .40185548 .33854167 .41845704 .29166667 .41845704 .234375 C .41845704 .17903646 .40169273 .12858074 .36816407 .08300781 C .32779948 .027669272 .27441407 0 .20800781 0 C .16276042 0 .12434896 .014973958 .09277344 .044921876 C .030924479 .1031901 0 .17871094 0 .27148438 C 0 .33072917 .011881511 .38704429 .03564453 .4404297 C .05940755 .4938151 .09326172 .5411784 .13720703 .58251956 C .18147786 .62386068 .22379558 .6516927 .26416017 .6660156 C .30452476 .68033859 .3421224 .6875 .37695313 .6875 L .40527345 .6875 M .1015625 .34570313 C .095703128 .3017578 .09277344 .26627604 .09277344 .23925781 C .09277344 .20800781 .098470058 .17399089 .10986328 .13720703 C .12158203 .100748699 .13883464 .071777347 .1616211 .05029297 C .17822266 .03499349 .19840496 .02734375 .22216797 .02734375 C .25048829 .02734375 .27571617 .040690107 .29785157 .06738281 C .3203125 .09407552 .33154298 .13216146 .33154298 .18164063 C .33154298 .23730469 .32047526 .28548179 .29833985 .32617188 C .27620445 .36686198 .24479167 .38720704 .20410156 .38720704 C .19173177 .38720704 .17838542 .38460288 .1640625 .37939454 C .15006511 .3741862 .12923177 .36295573 .1015625 .34570313 Z "/>
</symbol>
<symbol id="font_0_3">
<path d="M .13134766 .34521485 C .078938808 .3881836 .045084638 .4226888 .029785157 .44873048 C .014811198 .47477214 .0073242189 .50179037 .0073242189 .52978518 C .0073242189 .5727539 .023925782 .6097005 .057128908 .640625 C .09033203 .671875 .13444011 .6875 .18945313 .6875 C .24283855 .6875 .28580729 .67301437 .31835938 .64404299 C .35091148 .6150716 .3671875 .58203127 .3671875 .5449219 C .3671875 .5201823 .35839845 .49495445 .3408203 .46923829 C .3232422 .44352214 .2866211 .4132487 .23095703 .37841798 C .2882487 .33414714 .32617188 .2993164 .34472657 .27392579 C .36946617 .24072266 .38183595 .20572917 .38183595 .16894531 C .38183595 .122395839 .36409507 .08251953 .32861329 .049316408 C .2931315 .016438803 .24658203 0 .18896485 0 C .12613933 0 .07714844 .01969401 .041992189 .05908203 C .0139973959 .090657558 0 .12516277 0 .16259766 C 0 .19189453 .009765625 .22086589 .029296875 .24951172 C .049153646 .27848307 .08317057 .31038413 .13134766 .34521485 M .20800781 .39746095 C .24707031 .4326172 .2718099 .46028648 .28222657 .48046876 C .29264323 .50097659 .29785157 .52408859 .29785157 .5498047 C .29785157 .5839844 .2882487 .61067709 .26904298 .6298828 C .24983724 .64941409 .22363281 .6591797 .19042969 .6591797 C .15722656 .6591797 .13020833 .64957687 .109375 .6303711 C .088541667 .61116537 .078125 .5887044 .078125 .5629883 C .078125 .5460612 .08235677 .5291341 .09082031 .51220706 C .099609378 .49527995 .111979167 .47916667 .12792969 .4638672 L .20800781 .39746095 M .15429688 .32666017 C .12727864 .3038737 .10725912 .27897135 .09423828 .25195313 C .081217449 .22526042 .07470703 .19628906 .07470703 .16503906 C .07470703 .123046878 .08610026 .08935547 .10888672 .063964847 C .1319987 .03889974 .16129558 .026367188 .19677735 .026367188 C .2319336 .026367188 .26009117 .036295576 .28125 .056152345 C .30240885 .07600912 .31298829 .100097659 .31298829 .12841797 C .31298829 .15185547 .30680339 .17285156 .2944336 .19140625 C .27132163 .22591146 .22460938 .2709961 .15429688 .32666017 Z "/>
</symbol>
<use xlink:href="#font_0_1" transform="matrix(38.888887,0,0,-38.888887,442.77839,212.14774)"/>
<use xlink:href="#font_0_2" transform="matrix(38.888887,0,0,-38.888887,478.38529,204.21047)"/>
<use xlink:href="#font_0_3" transform="matrix(38.888887,0,0,-38.888887,498.51335,204.21047)"/>
<use xlink:href="#font_0_2" transform="matrix(38.888887,0,0,-38.88888,169.58579,489.25553)"/>
<path transform="matrix(2.7777777,0,0,-2.7777777,0,0)" stroke-width="1" stroke-linecap="butt" stroke-miterlimit="1" stroke-linejoin="miter" fill="none" stroke="#000000" d="M 147.137 -86.398 C 134.332 -95.309 118.906 -106.91 106.449 -118.867 C 98.328 -126.664 90.332 -136.016 83.531 -144.629 "/>
<path transform="matrix(2.7777777,0,0,-2.7777777,0,0)" d="M 86.285 -146.793 L 77.414 -152.582 L 80.734 -142.523 Z M 86.285 -146.793 "/>
<path transform="matrix(2.7777777,0,0,-2.7777777,0,0)" stroke-width="1" stroke-linecap="butt" stroke-miterlimit="1" stroke-linejoin="miter" fill="none" stroke="#000000" d="M 86.285 -146.793 L 77.414 -152.582 L 80.734 -142.523 Z M 86.285 -146.793 "/>
<symbol id="font_0_4">
<path d="M .31396485 .063964847 C .29215495 .041178388 .27083335 .024739584 .25 .0146484379 C .22916667 .0048828127 .20670574 0 .18261719 0 C .13378906 0 .091145839 .020345053 .0546875 .061035158 C .018229166 .10205078 0 .15462239 0 .21875 C 0 .2828776 .020182291 .34147135 .060546876 .39453126 C .10091146 .44791667 .15283203 .47460938 .2163086 .47460938 C .25569663 .47460938 .2882487 .4620768 .31396485 .43701173 L .31396485 .51953127 C .31396485 .570638 .31266276 .6020508 .3100586 .61376956 C .30777995 .6254883 .30403648 .63346359 .29882813 .6376953 C .29361979 .64192709 .28710938 .64404299 .27929688 .64404299 C .27083335 .64404299 .25960288 .6414388 .24560547 .63623049 L .23925781 .6533203 L .3725586 .7080078 L .39453126 .7080078 L .39453126 .19091797 C .39453126 .13850911 .39567057 .10644531 .39794923 .09472656 C .40055339 .083333339 .40445964 .07535807 .40966798 .07080078 C .4152018 .06624349 .42154948 .063964847 .42871095 .063964847 C .4375 .063964847 .44921876 .06673177 .4638672 .072265628 L .46923829 .05517578 L .33642579 0 L .31396485 0 L .31396485 .063964847 M .31396485 .09814453 L .31396485 .32861329 C .31201173 .3507487 .30615235 .370931 .29638673 .38916017 C .2866211 .4073893 .27360026 .4210612 .25732423 .43017579 C .2413737 .43961589 .2257487 .44433595 .21044922 .44433595 C .18180339 .44433595 .15625 .43147788 .13378906 .40576173 C .104166667 .37190757 .08935547 .32242839 .08935547 .25732423 C .08935547 .19156902 .10367838 .14111328 .13232422 .10595703 C .16097005 .071126308 .1928711 .053710939 .22802735 .053710939 C .25764976 .053710939 .28629557 .06852213 .31396485 .09814453 Z "/>
</symbol>
<symbol id="font_0_5">
<path d="M .115722659 .69433596 C .12939453 .69433596 .14095052 .6894531 .15039063 .6796875 C .16015625 .6702474 .16503906 .6586914 .16503906 .64501956 C .16503906 .63134768 .16015625 .6196289 .15039063 .6098633 C .14095052 .60009768 .12939453 .59521487 .115722659 .59521487 C .10205078 .59521487 .09033203 .60009768 .080566409 .6098633 C .07080078 .6196289 .06591797 .63134768 .06591797 .64501956 C .06591797 .6586914 .07063802 .6702474 .080078128 .6796875 C .08984375 .6894531 .10172526 .69433596 .115722659 .69433596 M .15625 .46044923 L .15625 .10107422 C .15625 .07307943 .15820313 .05436198 .16210938 .044921876 C .16634114 .035807294 .17236328 .028971354 .18017578 .024414063 C .1883138 .019856772 .20296224 .017578125 .2241211 .017578125 L .2241211 0 L .0068359377 0 L .0068359377 .017578125 C .028645834 .017578125 .04329427 .01969401 .05078125 .023925782 C .05826823 .028157553 .0641276 .03515625 .068359378 .044921876 C .072916667 .0546875 .07519531 .073404949 .07519531 .10107422 L .07519531 .2734375 C .07519531 .3219401 .07373047 .35335288 .07080078 .36767579 C .06852213 .37809245 .064941409 .3852539 .060058595 .38916017 C .05517578 .39339195 .048502607 .3955078 .040039064 .3955078 C .030924479 .3955078 .019856772 .3930664 .0068359377 .3881836 L 0 .40576173 L .13476563 .46044923 L .15625 .46044923 Z "/>
</symbol>
<symbol id="font_0_6">
<path d="M .12109375 .37890626 C .09375 .3922526 .072753909 .41080729 .05810547 .4345703 C .04345703 .45865885 .036132814 .4851888 .036132814 .51416018 C .036132814 .55843099 .052734376 .5965169 .0859375 .62841799 C .11946615 .66031906 .16227214 .67626956 .21435547 .67626956 C .2569987 .67626956 .2939453 .66585287 .3251953 .64501956 L .41992188 .64501956 C .43391929 .64501956 .44205729 .64453127 .44433595 .6435547 C .4466146 .6429036 .4482422 .64160159 .44921876 .63964846 C .45117188 .63671877 .45214845 .63151046 .45214845 .62402346 C .45214845 .6155599 .45133464 .6097005 .44970704 .6064453 C .44873048 .6048177 .4469401 .6035156 .44433595 .60253909 C .44205729 .6015625 .43391929 .6010742 .41992188 .6010742 L .3618164 .6010742 C .38004557 .5776367 .38916017 .5476888 .38916017 .51123049 C .38916017 .4695638 .37320964 .43391929 .3413086 .40429688 C .30940757 .37467448 .26660157 .35986329 .21289063 .35986329 C .1907552 .35986329 .16813152 .3631185 .14501953 .3696289 C .13069661 .35725913 .12093099 .34635417 .115722659 .33691407 C .110839847 .32779948 .10839844 .31998698 .10839844 .31347657 C .10839844 .30794273 .1110026 .30257163 .11621094 .29736329 C .12174479 .29215495 .13232422 .28841148 .14794922 .2861328 C .1570638 .28483073 .17985027 .2836914 .2163086 .28271485 C .28336589 .28108726 .3268229 .2788086 .3466797 .2758789 C .37695313 .27164714 .40104167 .26041667 .4189453 .2421875 C .43717448 .22395833 .44628907 .20149739 .44628907 .17480469 C .44628907 .13802083 .42903648 .103515628 .39453126 .07128906 C .34375 .023763022 .2775065 0 .19580078 0 C .13297527 0 .07991537 .014160156 .036621095 .04248047 C .012207031 .05875651 0 .075683597 0 .09326172 C 0 .10107422 .0017903646 .10888672 .0053710939 .11669922 C .010904948 .12874349 .022298178 .14550781 .03955078 .16699219 C .041829427 .16992188 .05843099 .1875 .08935547 .21972656 C .07242838 .2298177 .060384115 .23876953 .053222658 .24658203 C .04638672 .25472007 .04296875 .26383464 .04296875 .27392579 C .04296875 .285319 .047526044 .29866538 .056640626 .31396485 C .06608073 .3292643 .0875651 .35091148 .12109375 .37890626 M .20605469 .65283206 C .18196614 .65283206 .16178386 .6432292 .14550781 .62402346 C .12923177 .6048177 .12109375 .5753581 .12109375 .53564456 C .12109375 .48421226 .13216146 .44433595 .15429688 .41601563 C .17122396 .39453126 .19270833 .38378907 .21875 .38378907 C .24348958 .38378907 .26383464 .3930664 .27978517 .4116211 C .2957357 .43017579 .30371095 .4593099 .30371095 .49902345 C .30371095 .55078127 .29248048 .5913086 .27001954 .62060549 C .25341798 .64208987 .23209636 .65283206 .20605469 .65283206 M .11621094 .21582031 C .10091146 .19921875 .08935547 .18375652 .08154297 .1694336 C .07373047 .15511067 .06982422 .14192708 .06982422 .12988281 C .06982422 .11425781 .07926432 .10058594 .09814453 .08886719 C .13069661 .0686849 .17773438 .05859375 .23925781 .05859375 C .29785157 .05859375 .34098307 .069010417 .36865235 .08984375 C .39664714 .11035156 .41064454 .13232422 .41064454 .15576172 C .41064454 .1726888 .40234376 .18473308 .3857422 .19189453 C .3688151 .19905599 .33528648 .20328777 .28515626 .20458985 C .21191406 .20654297 .15559896 .21028646 .11621094 .21582031 Z "/>
</symbol>
<symbol id="font_0_7">
<path d="M .15136719 .6015625 L .15136719 .45458985 L .25585938 .45458985 L .25585938 .42041017 L .15136719 .42041017 L .15136719 .1303711 C .15136719 .10139974 .1554362 .08186849 .16357422 .071777347 C .17203777 .0616862 .18277996 .056640626 .19580078 .056640626 C .20654297 .056640626 .21695964 .059895833 .22705078 .06640625 C .23714192 .07324219 .24495442 .08317057 .25048829 .096191409 L .26953126 .096191409 C .25813804 .06429037 .24202474 .040201826 .2211914 .023925782 C .20035808 .007975261 .1788737 0 .15673828 0 C .14176433 0 .12711589 .0040690104 .11279297 .012207031 C .098470058 .020670573 .087890628 .032552083 .08105469 .047851564 C .07421875 .06347656 .07080078 .087402347 .07080078 .119628909 L .07080078 .42041017 L 0 .42041017 L 0 .43652345 C .017903647 .4436849 .036132814 .45572917 .0546875 .47265626 C .07356771 .48990885 .09033203 .5102539 .10498047 .5336914 C .112467449 .5460612 .12288412 .5686849 .13623047 .6015625 L .15136719 .6015625 Z "/>
</symbol>
<symbol id="font_0_8">
<path d="M 0 .59716799 L .16113281 .67578127 L .1772461 .67578127 L .1772461 .11669922 C .1772461 .079589847 .17871094 .056477865 .18164063 .04736328 C .18489583 .0382487 .19140625 .03125 .20117188 .026367188 C .2109375 .021484375 .23079427 .018717448 .2607422 .018066407 L .2607422 0 L .01171875 0 L .01171875 .018066407 C .04296875 .018717448 .06315104 .021321616 .072265628 .025878907 C .08138021 .030761719 .08772787 .037109376 .091308597 .044921876 C .09488932 .053059896 .09667969 .07698568 .09667969 .11669922 L .09667969 .4741211 C .09667969 .52229818 .095052089 .55322268 .091796878 .56689456 C .08951823 .5773112 .08528646 .58496096 .07910156 .58984377 C .07324219 .59472659 .06608073 .59716799 .057617189 .59716799 C .045572919 .59716799 .028808594 .5921224 .0073242189 .58203127 L 0 .59716799 Z "/>
</symbol>
<symbol id="font_0_9">
<path d="M .06347656 .67578127 L .41845704 .67578127 L .41845704 .65722659 L .1977539 0 L .1430664 0 L .3408203 .5961914 L .1586914 .5961914 C .121907558 .5961914 .095703128 .5917969 .080078128 .5830078 C .052734376 .5680339 .030761719 .5449219 .014160156 .5136719 L 0 .51904299 L .06347656 .67578127 Z "/>
</symbol>
<use xlink:href="#font_0_4" transform="matrix(38.888887,0,0,-38.88888,283.65046,367.10929)"/>
<use xlink:href="#font_0_5" transform="matrix(38.888887,0,0,-38.88888,302.94297,366.5776)"/>
<use xlink:href="#font_0_6" transform="matrix(38.888887,0,0,-38.88888,313.7342,374.9706)"/>
<use xlink:href="#font_0_5" transform="matrix(38.888887,0,0,-38.88888,333.15965,366.5776)"/>
<use xlink:href="#font_0_7" transform="matrix(38.888887,0,0,-38.88888,343.1723,366.86244)"/>
<use xlink:href="#font_0_8" transform="matrix(38.888887,0,0,-38.88888,358.12205,366.5776)"/>
<use xlink:href="#font_0_9" transform="matrix(38.888887,0,0,-38.88888,370.74684,489.33149)"/>
<path transform="matrix(2.7777777,0,0,-2.7777777,0,0)" stroke-width="1" stroke-linecap="butt" stroke-miterlimit="1" stroke-linejoin="miter" fill="none" stroke="#000000" d="M 159.848 -97.617 C 156.922 -104.496 153.938 -111.895 151.449 -118.867 C 148.727 -126.496 146.137 -134.887 143.898 -142.656 "/>
<path transform="matrix(2.7777777,0,0,-2.7777777,0,0)" d="M 147.238 -143.711 L 141.176 -152.402 L 140.496 -141.828 Z M 147.238 -143.711 "/>
<path transform="matrix(2.7777777,0,0,-2.7777777,0,0)" stroke-width="1" stroke-linecap="butt" stroke-miterlimit="1" stroke-linejoin="miter" fill="none" stroke="#000000" d="M 147.238 -143.711 L 141.176 -152.402 L 140.496 -141.828 Z M 147.238 -143.711 "/>
<symbol id="font_0_a">
<path d="M .43701173 .1274414 L .390625 0 L 0 0 L 0 .018066407 C .11490885 .12288412 .19580078 .2084961 .24267578 .27490235 C .28955079 .3413086 .31298829 .40201823 .31298829 .45703126 C .31298829 .49902345 .30013023 .5335286 .27441407 .5605469 C .24869792 .5875651 .2179362 .6010742 .1821289 .6010742 C .14957683 .6010742 .120279949 .5914714 .09423828 .5722656 C .06852213 .55338546 .049479169 .5255534 .037109376 .48876954 L .019042969 .48876954 C .02718099 .5489909 .048014326 .59521487 .08154297 .6274414 C .11539713 .65966799 .15755208 .67578127 .20800781 .67578127 C .26171876 .67578127 .30647788 .6585286 .34228517 .62402346 C .37841798 .58951827 .39648438 .5488281 .39648438 .5019531 C .39648438 .46842448 .38867188 .43489585 .37304688 .4013672 C .34895835 .3486328 .30989585 .292806 .25585938 .23388672 C .17480469 .14534505 .124186199 .09195963 .104003909 .07373047 L .27685548 .07373047 C .31201173 .07373047 .33658854 .075032558 .35058595 .07763672 C .36490885 .08024088 .37776695 .08544922 .38916017 .09326172 C .40055339 .10139974 .41048179 .11279297 .4189453 .1274414 L .43701173 .1274414 Z "/>
</symbol>
<symbol id="font_0_b">
<path d="M .010253906 .54785159 C .029134116 .59244796 .052897138 .62679037 .08154297 .6508789 C .11051432 .67529299 .14648438 .6875 .18945313 .6875 C .24251302 .6875 .28320313 .6702474 .31152345 .6357422 C .3330078 .61002609 .34375 .58251956 .34375 .55322268 C .34375 .5050456 .31347657 .45524089 .2529297 .4038086 C .29361979 .38785807 .3243815 .36507163 .34521485 .33544923 C .3660482 .3058268 .37646485 .2709961 .37646485 .23095703 C .37646485 .17366536 .3582357 .12402344 .32177735 .08203125 C .2742513 .02734375 .20540364 0 .115234378 0 C .07063802 0 .040201826 .005533854 .023925782 .016601563 C .007975261 .027669272 0 .03955078 0 .052246095 C 0 .0616862 .0037434896 .06998698 .011230469 .07714844 C .019042969 .0843099 .028320313 .087890628 .0390625 .087890628 C .04720052 .087890628 .0555013 .08658854 .063964847 .083984378 C .069498699 .08235677 .08203125 .07633463 .1015625 .06591797 C .12109375 .055826826 .13460286 .049804689 .14208985 .047851564 C .15413411 .044270833 .16699219 .04248047 .18066406 .04248047 C .21386719 .04248047 .24267578 .055338544 .26708985 .08105469 C .29182945 .106770839 .30419923 .13720703 .30419923 .17236328 C .30419923 .19807942 .2985026 .22314453 .28710938 .2475586 C .27864585 .26578776 .2693685 .2796224 .25927735 .2890625 C .24527996 .30208335 .22607422 .3138021 .20166016 .32421876 C .1772461 .33496095 .15234375 .34033204 .12695313 .34033204 L .111328128 .34033204 L .111328128 .35498048 C .13704427 .3582357 .16276042 .36751304 .18847656 .3828125 C .21451824 .39811198 .23339844 .4165039 .24511719 .43798829 C .25683595 .45947267 .2626953 .4830729 .2626953 .50878909 C .2626953 .5423177 .25211589 .56933596 .23095703 .58984377 C .2101237 .61067709 .18408203 .62109377 .15283203 .62109377 C .102376308 .62109377 .060221357 .5940755 .026367188 .54003909 L .010253906 .54785159 Z "/>
</symbol>
<use xlink:href="#font_0_4" transform="matrix(38.888887,0,0,-38.88888,417.53935,367.10929)"/>
<use xlink:href="#font_0_5" transform="matrix(38.888887,0,0,-38.88888,436.83186,366.5776)"/>
<use xlink:href="#font_0_6" transform="matrix(38.888887,0,0,-38.88888,447.6231,374.9706)"/>
<use xlink:href="#font_0_5" transform="matrix(38.888887,0,0,-38.88888,467.04853,366.5776)"/>
<use xlink:href="#font_0_7" transform="matrix(38.888887,0,0,-38.88888,477.06123,366.86244)"/>
<use xlink:href="#font_0_a" transform="matrix(38.888887,0,0,-38.88888,488.2892,366.5776)"/>
<use xlink:href="#font_0_b" transform="matrix(38.888887,0,0,-38.88888,570.87966,489.25553)"/>
<path transform="matrix(2.7777777,0,0,-2.7777777,0,0)" stroke-width="1" stroke-linecap="butt" stroke-miterlimit="1" stroke-linejoin="miter" fill="none" stroke="#000000" d="M 182.766 -98.809 L 198.613 -143.277 "/>
<path transform="matrix(2.7777777,0,0,-2.7777777,0,0)" d="M 201.922 -142.137 L 201.984 -152.73 L 195.328 -144.484 Z M 201.922 -142.137 "/>
<path transform="matrix(2.7777777,0,0,-2.7777777,0,0)" stroke-width="1" stroke-linecap="butt" stroke-miterlimit="1" stroke-linejoin="miter" fill="none" stroke="#000000" d="M 201.922 -142.137 L 201.984 -152.73 L 195.328 -144.484 Z M 201.922 -142.137 "/>
<symbol id="font_0_c">
<path d="M .27148438 .4741211 L .27148438 .32177735 L .2553711 .32177735 C .2430013 .3696289 .22705078 .402181 .20751953 .4194336 C .1883138 .4366862 .16373699 .4453125 .13378906 .4453125 C .1110026 .4453125 .09261068 .43929038 .07861328 .4272461 C .06461588 .4152018 .057617189 .40185548 .057617189 .38720704 C .057617189 .36897788 .06282552 .35335288 .07324219 .34033204 C .083333339 .3269857 .10384115 .31282554 .13476563 .29785157 L .20605469 .2631836 C .2721354 .23095703 .30517579 .18847656 .30517579 .13574219 C .30517579 .095052089 .28971354 .06217448 .25878907 .037109376 C .22819011 .012369792 .19384766 0 .15576172 0 C .12841797 0 .09716797 .0048828127 .06201172 .0146484379 C .05126953 .017903647 .04248047 .01953125 .03564453 .01953125 C .028157553 .01953125 .022298178 .0152994799 .018066407 .0068359377 L .001953125 .0068359377 L .001953125 .1665039 L .018066407 .1665039 C .02718099 .12093099 .044596357 .08658854 .0703125 .06347656 C .09602865 .040364583 .12483724 .028808594 .15673828 .028808594 C .17919922 .028808594 .19742839 .03531901 .21142578 .048339845 C .2257487 .0616862 .23291016 .07763672 .23291016 .096191409 C .23291016 .118652347 .22493489 .13753255 .20898438 .15283203 C .19335938 .16813152 .16194661 .1875 .114746097 .2109375 C .06754557 .234375 .036621095 .25553385 .021972657 .27441407 C .0073242189 .29296876 0 .31640626 0 .34472657 C 0 .3815104 .012532552 .41227214 .037597658 .43701173 C .06298828 .4617513 .095703128 .4741211 .13574219 .4741211 C .15332031 .4741211 .17464192 .4703776 .19970703 .46289063 C .2163086 .4580078 .2273763 .4555664 .23291016 .4555664 C .23811849 .4555664 .2421875 .45670573 .24511719 .45898438 C .24804688 .46126304 .25146485 .4663086 .2553711 .4741211 L .27148438 .4741211 Z "/>
</symbol>
<symbol id="font_0_d">
<path d="M .42236329 .4609375 L .42236329 .1899414 C .42236329 .1381836 .4235026 .10644531 .42578126 .09472656 C .4283854 .083333339 .43229167 .07535807 .4375 .07080078 C .44303385 .06624349 .4493815 .063964847 .45654298 .063964847 C .46663413 .063964847 .47802735 .06673177 .49072267 .072265628 L .4975586 .05517578 L .36376954 0 L .34179688 0 L .34179688 .09472656 C .3033854 .053059896 .27408854 .026855469 .25390626 .016113282 C .23372396 .0053710939 .21240235 0 .1899414 0 C .1648763 0 .1430664 .0071614587 .12451172 .021484375 C .106282558 .036132814 .09358724 .05485026 .08642578 .07763672 C .07926432 .10042318 .075683597 .13264974 .075683597 .1743164 L .075683597 .37402345 C .075683597 .39518229 .073404949 .40983073 .068847659 .41796876 C .06429037 .42610679 .057454427 .43229167 .048339845 .43652345 C .03955078 .44108073 .0234375 .44319663 0 .4428711 L 0 .4609375 L .15673828 .4609375 L .15673828 .1616211 C .15673828 .11995443 .16389974 .09261068 .17822266 .079589847 C .1928711 .06656901 .21044922 .060058595 .23095703 .060058595 C .24495442 .060058595 .2607422 .064453128 .2783203 .07324219 C .29622398 .08203125 .3173828 .09879557 .34179688 .123535159 L .34179688 .37695313 C .34179688 .40234376 .3370768 .4194336 .32763673 .42822267 C .31852214 .43733726 .2993164 .44222007 .27001954 .4428711 L .27001954 .4609375 L .42236329 .4609375 Z "/>
</symbol>
<symbol id="font_0_e">
<path d="M .15576172 .36523438 C .1883138 .39778648 .20751953 .4165039 .2133789 .42138673 C .22802735 .4337565 .24381511 .44335938 .2607422 .4501953 C .27766929 .45703126 .2944336 .46044923 .31103517 .46044923 C .33902995 .46044923 .3631185 .4523112 .38330079 .43603517 C .40348307 .41975913 .4169922 .39615885 .42382813 .36523438 C .45735679 .40429688 .4856771 .42985026 .50878909 .44189454 C .53190109 .4542643 .55566409 .46044923 .5800781 .46044923 C .6038411 .46044923 .6248372 .4542643 .6430664 .44189454 C .6616211 .42985026 .67626956 .4099935 .6870117 .38232423 C .69417318 .363444 .6977539 .33382163 .6977539 .29345704 L .6977539 .10107422 C .6977539 .07307943 .6998698 .0538737 .70410159 .04345703 C .70735678 .036295576 .7133789 .030110678 .72216799 .024902344 C .73095706 .020019532 .74527999 .017578125 .7651367 .017578125 L .7651367 0 L .5444336 0 L .5444336 .017578125 L .55371096 .017578125 C .5729167 .017578125 .5878906 .021321616 .5986328 .028808594 C .6061198 .034016927 .6114909 .042317708 .6147461 .053710939 C .61604818 .059244794 .6166992 .075032558 .6166992 .10107422 L .6166992 .29345704 C .6166992 .32991538 .6123047 .3556315 .6035156 .37060548 C .5908203 .3914388 .5704753 .40185548 .54248049 .40185548 C .52522787 .40185548 .5078125 .39746095 .49023438 .38867188 C .47298179 .38020835 .4519857 .3642578 .4272461 .3408203 L .42626954 .33544923 L .4272461 .31445313 L .4272461 .10107422 C .4272461 .07047526 .4288737 .051432294 .4321289 .043945314 C .43570964 .036458333 .44222007 .030110678 .45166017 .024902344 C .46110026 .020019532 .47721354 .017578125 .5 .017578125 L .5 0 L .27392579 0 L .27392579 .017578125 C .29866538 .017578125 .31559245 .020507813 .32470704 .026367188 C .33414714 .032226564 .34065757 .041015626 .34423829 .052734376 C .34586589 .05826823 .3466797 .07438151 .3466797 .10107422 L .3466797 .29345704 C .3466797 .32991538 .3413086 .35611979 .3305664 .3720703 C .3162435 .39290367 .29622398 .4033203 .2705078 .4033203 C .2529297 .4033203 .23551433 .39860026 .21826172 .38916017 C .19124349 .37483726 .17041016 .35872398 .15576172 .3408203 L .15576172 .10107422 C .15576172 .071777347 .15771485 .052734376 .1616211 .043945314 C .16585286 .03515625 .171875 .028483073 .1796875 .023925782 C .18782552 .01969401 .20410156 .017578125 .22851563 .017578125 L .22851563 0 L .0073242189 0 L .0073242189 .017578125 C .027832032 .017578125 .04215495 .01969401 .05029297 .023925782 C .05843099 .028483073 .06461588 .03548177 .068847659 .044921876 C .07307943 .0546875 .07519531 .073404949 .07519531 .10107422 L .07519531 .27197267 C .07519531 .3211263 .07373047 .3528646 .07080078 .3671875 C .06852213 .3779297 .064941409 .3852539 .060058595 .38916017 C .05517578 .39339195 .048502607 .3955078 .040039064 .3955078 C .030924479 .3955078 .020019532 .3930664 .0073242189 .3881836 L 0 .40576173 L .13476563 .46044923 L .15576172 .46044923 L .15576172 .36523438 Z "/>
</symbol>
<use xlink:href="#font_0_c" transform="matrix(38.888887,0,0,-38.88888,546.4803,367.10929)"/>
<use xlink:href="#font_0_d" transform="matrix(38.888887,0,0,-38.88888,559.74716,367.10929)"/>
<use xlink:href="#font_0_e" transform="matrix(38.888887,0,0,-38.88888,579.47647,366.5776)"/>
<use xlink:href="#font_0_8" transform="matrix(38.888887,0,0,-38.88888,773.8609,488.7998)"/>
<path transform="matrix(2.7777777,0,0,-2.7777777,0,0)" stroke-width="1" stroke-linecap="butt" stroke-miterlimit="1" stroke-linejoin="miter" fill="none" stroke="#000000" d="M 194.566 -90.551 C 211.629 -106.508 235.309 -128.652 253.484 -145.652 "/>
<path transform="matrix(2.7777777,0,0,-2.7777777,0,0)" d="M 255.988 -143.199 L 260.902 -152.586 L 251.207 -148.313 Z M 255.988 -143.199 "/>
<path transform="matrix(2.7777777,0,0,-2.7777777,0,0)" stroke-width="1" stroke-linecap="butt" stroke-miterlimit="1" stroke-linejoin="miter" fill="none" stroke="#000000" d="M 255.988 -143.199 L 260.902 -152.586 L 251.207 -148.313 Z M 255.988 -143.199 "/>
<symbol id="font_0_f">
<path d="M .37695313 .18359375 C .36490885 .12467448 .3413086 .07926432 .30615235 .04736328 C .2709961 .01578776 .23209636 0 .18945313 0 C .13867188 0 .09440104 .021321616 .056640626 .063964847 C .018880209 .10660807 0 .16422527 0 .2368164 C 0 .3071289 .020833334 .3642578 .0625 .40820313 C .10449219 .45214845 .15478516 .4741211 .2133789 .4741211 C .25732423 .4741211 .29345704 .46240235 .32177735 .43896485 C .35009767 .41585288 .3642578 .3917643 .3642578 .36669923 C .3642578 .35432945 .3601888 .34423829 .35205079 .33642579 C .34423829 .3289388 .33317057 .3251953 .31884767 .3251953 C .29964195 .3251953 .28515626 .33138023 .27539063 .34375 C .26985679 .35058595 .26611329 .36360679 .26416017 .3828125 C .26253257 .40201823 .25602214 .41666667 .2446289 .4267578 C .23323567 .43652345 .21744792 .44140626 .19726563 .44140626 C .16471355 .44140626 .13850911 .42936198 .118652347 .40527345 C .092285159 .3733724 .07910156 .33121745 .07910156 .2788086 C .07910156 .22542317 .0921224 .17822266 .11816406 .13720703 C .14453125 .09651693 .18001302 .076171878 .22460938 .076171878 C .2565104 .076171878 .28515626 .08707682 .31054688 .10888672 C .32845054 .12386068 .34586589 .15104167 .36279298 .19042969 L .37695313 .18359375 Z "/>
</symbol>
<symbol id="font_0_10">
<path d="M .24902344 .07373047 C .203125 .0382487 .1743164 .017740885 .16259766 .012207031 C .14501953 .0040690104 .12630208 0 .10644531 0 C .075520839 0 .04996745 .010579427 .029785157 .03173828 C .009928386 .052897138 0 .080729167 0 .115234378 C 0 .13704427 .0048828127 .15592449 .0146484379 .171875 C .027994791 .19401042 .05110677 .21484375 .083984378 .234375 C .1171875 .25390626 .17220052 .27766929 .24902344 .30566407 L .24902344 .3232422 C .24902344 .36783854 .24186199 .3984375 .22753906 .41503907 C .21354167 .43164063 .19303386 .4399414 .16601563 .4399414 C .14550781 .4399414 .12923177 .43440757 .1171875 .42333985 C .10481771 .41227214 .09863281 .3995768 .09863281 .3852539 L .099609378 .3569336 C .099609378 .34195964 .095703128 .33040367 .087890628 .32226563 C .08040365 .3141276 .07047526 .3100586 .05810547 .3100586 C .0460612 .3100586 .036132814 .31429038 .028320313 .3227539 C .020833334 .33121745 .017089844 .34277345 .017089844 .35742188 C .017089844 .38541667 .03141276 .4111328 .060058595 .4345703 C .08870443 .4580078 .12890625 .46972657 .18066406 .46972657 C .22037761 .46972657 .2529297 .46305339 .2783203 .44970704 C .29752604 .43961589 .3116862 .42382813 .32080079 .40234376 C .32666017 .38834635 .32958985 .35970054 .32958985 .31640626 L .32958985 .16455078 C .32958985 .121907558 .33040367 .095703128 .33203126 .0859375 C .33365885 .0764974 .33626304 .07014974 .33984376 .06689453 C .34375 .06363932 .34814454 .06201172 .35302735 .06201172 C .3582357 .06201172 .36279298 .06315104 .36669923 .06542969 C .37353517 .06966146 .38671876 .08154297 .40625 .10107422 L .40625 .07373047 C .36979167 .024902344 .33496095 .00048828127 .3017578 .00048828127 C .28580729 .00048828127 .27311198 .0060221354 .26367188 .017089844 C .25423179 .028157553 .24934896 .04703776 .24902344 .07373047 M .24902344 .10546875 L .24902344 .2758789 C .1998698 .25634767 .16813152 .24251302 .1538086 .234375 C .12809246 .22005208 .10970052 .20507813 .09863281 .18945313 C .0875651 .17382813 .08203125 .15673828 .08203125 .1381836 C .08203125 .114746097 .089029949 .095214847 .103027347 .079589847 C .11702474 .06429037 .13313802 .056640626 .15136719 .056640626 C .17610677 .056640626 .20865886 .072916667 .24902344 .10546875 Z "/>
</symbol>
<symbol id="font_0_11">
<path d="M .15576172 .46044923 L .15576172 .35986329 C .19319661 .42692057 .23160808 .46044923 .2709961 .46044923 C .28889976 .46044923 .30371095 .45491538 .3154297 .44384767 C .32714845 .43310548 .3330078 .4205729 .3330078 .40625 C .3330078 .3935547 .32877604 .3828125 .3203125 .37402345 C .31184898 .36523438 .3017578 .36083985 .29003907 .36083985 C .27864585 .36083985 .26578776 .3663737 .25146485 .3774414 C .23746746 .38883464 .22705078 .39453126 .22021485 .39453126 C .21435547 .39453126 .20800781 .39127604 .20117188 .38476563 C .18652344 .37141929 .17138672 .34944663 .15576172 .31884767 L .15576172 .10449219 C .15576172 .0797526 .15885417 .061035158 .16503906 .048339845 C .16927083 .03955078 .17675781 .032226564 .1875 .026367188 C .19824219 .020507813 .21370442 .017578125 .23388672 .017578125 L .23388672 0 L .0048828127 0 L .0048828127 .017578125 C .027669272 .017578125 .044596357 .021158854 .055664064 .028320313 C .063802089 .033528646 .069498699 .041829427 .072753909 .053222658 C .07438151 .05875651 .07519531 .07454427 .07519531 .10058594 L .07519531 .27392579 C .07519531 .32600913 .07405599 .3569336 .071777347 .36669923 C .06982422 .37679038 .06591797 .3841146 .060058595 .38867188 C .05452474 .39322917 .047526044 .3955078 .0390625 .3955078 C .028971354 .3955078 .017578125 .3930664 .0048828127 .3881836 L 0 .40576173 L .1352539 .46044923 L .15576172 .46044923 Z "/>
</symbol>
<symbol id="font_0_12">
<path d="M 0 .66308596 L .2084961 .66308596 L .2084961 .64501956 L .19824219 .64501956 C .18359375 .64501956 .17252605 .64176437 .16503906 .6352539 C .15787761 .62906906 .15429688 .62125656 .15429688 .6118164 C .15429688 .5991211 .15966797 .58154299 .17041016 .55908206 L .27929688 .3334961 L .37939454 .5805664 C .38492839 .5939128 .3876953 .6070964 .3876953 .6201172 C .3876953 .62597659 .386556 .6303711 .38427735 .6333008 C .3816732 .63688156 .37760417 .63964846 .3720703 .64160159 C .36653648 .6438802 .35677085 .64501956 .34277345 .64501956 L .34277345 .66308596 L .48828126 .66308596 L .48828126 .64501956 C .47623698 .64371749 .46695964 .6411133 .46044923 .63720706 C .4539388 .6333008 .44677735 .62597659 .43896485 .6152344 C .43603517 .61067709 .4305013 .59814456 .42236329 .5776367 L .24023438 .13134766 C .22265625 .08805338 .19954427 .055338544 .17089844 .033203126 C .14257813 .011067708 .115234378 0 .08886719 0 C .06966146 0 .0538737 .005533854 .041503908 .016601563 C .029134116 .027669272 .022949219 .040364583 .022949219 .0546875 C .022949219 .068359378 .02734375 .079427089 .036132814 .087890628 C .045247396 .09602865 .057617189 .100097659 .07324219 .100097659 C .083984378 .100097659 .09863281 .09651693 .1171875 .08935547 C .13020833 .084472659 .13834636 .08203125 .14160156 .08203125 C .15136719 .08203125 .16194661 .08707682 .17333985 .09716797 C .1850586 .10725912 .19677735 .12679036 .2084961 .15576172 L .24023438 .23339844 L .079589847 .5708008 C .07470703 .5808919 .06689453 .5934245 .056152345 .60839846 C .048014326 .6197917 .041341146 .6274414 .036132814 .63134768 C .028645834 .63655599 .016601563 .6411133 0 .64501956 L 0 .66308596 Z "/>
</symbol>
<symbol id="font_0_13">
<path d="M 0 .07373047 L .2524414 .07373047 L .2524414 0 L 0 0 L 0 .07373047 Z "/>
</symbol>
<symbol id="font_0_14">
<path d="M .15625 .38378907 C .19954427 .4440104 .24625652 .4741211 .29638673 .4741211 C .34228517 .4741211 .38232423 .4544271 .4165039 .41503907 C .4506836 .37597657 .46777345 .32242839 .46777345 .25439454 C .46777345 .17496746 .44140626 .1110026 .38867188 .0625 C .34342448 .020833334 .29296876 0 .23730469 0 C .21126302 0 .18473308 .0047200524 .15771485 .014160156 C .13102214 .02360026 .10367838 .037760419 .075683597 .056640626 L .075683597 .52001956 C .075683597 .5708008 .07438151 .6020508 .071777347 .61376956 C .069498699 .6254883 .06575521 .63346359 .060546876 .6376953 C .055338544 .64192709 .048828126 .64404299 .041015626 .64404299 C .031901044 .64404299 .020507813 .6414388 .0068359377 .63623049 L 0 .6533203 L .13427735 .7080078 L .15625 .7080078 L .15625 .38378907 M .15625 .35253907 L .15625 .08496094 C .17285156 .0686849 .1899414 .056315107 .20751953 .047851564 C .22542317 .039713544 .24365235 .03564453 .26220704 .03564453 C .29182945 .03564453 .31933595 .051920576 .34472657 .084472659 C .37044273 .11702474 .38330079 .16438802 .38330079 .2265625 C .38330079 .28385417 .37044273 .32779948 .34472657 .35839845 C .31933595 .3893229 .2903646 .40478517 .2578125 .40478517 C .24055989 .40478517 .2233073 .40039063 .20605469 .39160157 C .19303386 .38509117 .1764323 .3720703 .15625 .35253907 Z "/>
</symbol>
<symbol id="font_0_15">
<path d="M .2163086 .4741211 C .28401695 .4741211 .3383789 .44840495 .37939454 .39697267 C .41422526 .35302735 .43164063 .30257163 .43164063 .24560547 C .43164063 .2055664 .42203776 .16503906 .40283204 .12402344 C .3836263 .08300781 .35709635 .052083333 .3232422 .03125 C .28971354 .010416667 .25227867 0 .2109375 0 C .14355469 0 .09000651 .026855469 .05029297 .080566409 C .016764323 .1258138 0 .17659505 0 .23291016 C 0 .27392579 .0100911459 .31461589 .030273438 .35498048 C .05078125 .39567057 .07763672 .4256185 .110839847 .44482423 C .14404297 .46435548 .17919922 .4741211 .2163086 .4741211 M .20117188 .4423828 C .18391927 .4423828 .1665039 .43717448 .14892578 .4267578 C .13167317 .41666667 .11767578 .39876304 .106933597 .37304688 C .096191409 .34733073 .09082031 .31429038 .09082031 .27392579 C .09082031 .20882161 .10367838 .15266927 .12939453 .10546875 C .1554362 .05826823 .18961589 .03466797 .2319336 .03466797 C .26350913 .03466797 .28955079 .0476888 .3100586 .07373047 C .3305664 .09977213 .3408203 .14453125 .3408203 .20800781 C .3408203 .2874349 .32373048 .3499349 .28955079 .3955078 C .2664388 .4267578 .23697917 .4423828 .20117188 .4423828 Z "/>
</symbol>
<symbol id="font_0_16">
<path d="M 0 .4609375 L .1875 .4609375 L .1875 .4428711 C .17024739 .441569 .15885417 .43847657 .15332031 .43359376 C .14811199 .42871095 .14550781 .42171226 .14550781 .41259767 C .14550781 .4025065 .14827474 .39029948 .1538086 .37597657 L .24951172 .118652347 L .34570313 .328125 L .3203125 .39404298 C .3125 .41357423 .3022461 .42708335 .28955079 .4345703 C .2823893 .4391276 .26904298 .44189454 .24951172 .4428711 L .24951172 .4609375 L .46240235 .4609375 L .46240235 .4428711 C .43896485 .44189454 .42236329 .43766276 .41259767 .43017579 C .40608726 .42496745 .40283204 .41666667 .40283204 .40527345 C .40283204 .39876304 .40413413 .39208985 .40673829 .3852539 L .5083008 .12841797 L .60253909 .37597657 C .6090495 .3935547 .6123047 .4075521 .6123047 .41796876 C .6123047 .42415367 .6090495 .4296875 .60253909 .4345703 C .5963542 .43945313 .5839844 .44222007 .5654297 .4428711 L .5654297 .4609375 L .70654299 .4609375 L .70654299 .4428711 C .67822268 .4386393 .65738937 .4194336 .64404299 .3852539 L .4946289 0 L .47460938 0 L .36279298 .28564454 L .23242188 0 L .21435547 0 L .07080078 .37597657 C .061360677 .3997396 .052083333 .4156901 .04296875 .42382813 C .033854169 .43229167 .01953125 .4386393 0 .4428711 L 0 .4609375 Z "/>
</symbol>
<use xlink:href="#font_0_f" transform="matrix(38.888887,0,0,-38.88888,668.1329,367.10929)"/>
<use xlink:href="#font_0_10" transform="matrix(38.888887,0,0,-38.88888,685.41757,366.9384)"/>
<use xlink:href="#font_0_11" transform="matrix(38.888887,0,0,-38.88888,701.506,366.5776)"/>
<use xlink:href="#font_0_11" transform="matrix(38.888887,0,0,-38.88888,714.45596,366.5776)"/>
<use xlink:href="#font_0_12" transform="matrix(38.888887,0,0,-38.88888,727.38699,374.9706)"/>
<use xlink:href="#font_0_13" transform="matrix(38.888887,0,0,-38.88888,748.17959,359.28596)"/>
<use xlink:href="#font_0_14" transform="matrix(38.888887,0,0,-38.88888,759.45858,367.10929)"/>
<use xlink:href="#font_0_15" transform="matrix(38.888887,0,0,-38.88888,780.30819,367.10929)"/>
<use xlink:href="#font_0_11" transform="matrix(38.888887,0,0,-38.88888,798.6892,366.5776)"/>
<use xlink:href="#font_0_11" transform="matrix(38.888887,0,0,-38.88888,811.63919,366.5776)"/>
<use xlink:href="#font_0_15" transform="matrix(38.888887,0,0,-38.88888,825.6525,367.10929)"/>
<use xlink:href="#font_0_16" transform="matrix(38.888887,0,0,-38.88888,844.03359,367.10929)"/>
</g>
</g>
</svg>
